<svg viewBox="0 0 1000 1000" xmlns="http://www.w3.org/2000/svg"><path d="m995 651.34v13.56a81.7 81.7 0 0 1 -73.45 81.26c-2.56.25-5.14.39-7.76.4h-.45a47.09 47.09 0 0 0 -33.34 13.84c-.39.39-.78.79-1.16 1.2a47.12 47.12 0 0 0 -12.67 32.19v70.76a64 64 0 0 1 -41.67 60.05 60 60 0 0 1 -7.76 2.36c-1.59.38-3.21.7-4.84.94a63.26 63.26 0 0 1 -9.89.77h-708.57c-48.85 0-88.44-31.89-88.44-95.36a91 91 0 0 1 .66-10.9 88.5 88.5 0 0 1 87.78-77.55h23.37a47.2 47.2 0 0 0 47.19-47.22v-17.47a110.61 110.61 0 0 1 70.41-103q3.81-1.5 7.75-2.69a110.31 110.31 0 0 1 27.35-4.71c1.65-.08 3.31-.11 5-.11a47.54 47.54 0 0 0 8.75-.81 47.22 47.22 0 0 0 -8.75-93.63h-121q-4.23 0-8.39-.36c-2.62-.22-5.19-.53-7.75-.95a98.36 98.36 0 0 1 -27.91-9 99.48 99.48 0 0 1 27.94-187.29c2.56-.42 5.13-.74 7.75-.95s5.56-.36 8.39-.36h151.52a46.82 46.82 0 0 0 26.44-8.1 46.26 46.26 0 0 0 7.75-6.56 47.07 47.07 0 0 0 13-32.57 54 54 0 0 1 48.94-53.76 50.09 50.09 0 0 1 5.08-.25h14.06a46.9 46.9 0 0 0 8.19-.71 46.24 46.24 0 0 0 14.19-4.92 47.17 47.17 0 0 0 24.81-39.36c0-.74.05-1.48.05-2.24v-6.79a47.26 47.26 0 0 1 47.23-47.22h273.57a47.14 47.14 0 0 1 36.13 16.81l.06.08a47.05 47.05 0 0 1 11 30.33v6.79c0 .76 0 1.5-.05 2.24a47 47 0 0 1 -3.83 16.49 47.17 47.17 0 0 1 -15 19 44.54 44.54 0 0 1 -6 3.85 46.79 46.79 0 0 1 -22.35 5.63h-20.82a47.35 47.35 0 0 0 -40.06 22.21 46.38 46.38 0 0 0 -5.21 11.53 47.2 47.2 0 0 0 -2 13.48v6.79a47.49 47.49 0 0 0 4 19.1 47.4 47.4 0 0 0 28.56 25.84 47 47 0 0 0 14.71 2.34h128a99.67 99.67 0 0 1 18.28 1.66c2.62.47 5.21 1.07 7.76 1.76a99.5 99.5 0 0 1 0 192q-3.82 1.05-7.76 1.76a99.75 99.75 0 0 1 -18.25 1.69h-61.89a46 46 0 0 0 -9.15.89 44.22 44.22 0 0 0 -7.76 2.21 53.66 53.66 0 0 0 -4.94 2.24 47.57 47.57 0 0 0 -8.1 5.36 47.08 47.08 0 0 0 -17.27 36.51v1a47.29 47.29 0 0 0 30.31 43.09 48 48 0 0 0 7.76 2.22 47.48 47.48 0 0 0 9.15.89h80.14a76.48 76.48 0 0 1 7.76.42 79.31 79.31 0 0 1 14.64 2.83c.7.19 1.38.4 2.07.62a81.71 81.71 0 0 1 56.74 77.85z" fill="#f3f4fe"/><rect fill="#d2d6fa" height="19.16" rx="9.58" width="80.58" x="905.26" y="927.9"/><rect fill="#d2d6fa" height="19.16" rx="9.58" width="881.22" x="16.24" y="927.9"/><path d="m878.79 761.6a47.12 47.12 0 0 0 -12.67 32.19v70.76a64 64 0 0 1 -41.62 60.05 60 60 0 0 1 -7.76 2.36c-1.59.38-3.21.7-4.84.94h-702.41v-529a14.42 14.42 0 0 1 14.42-14.41h90.9a20.91 20.91 0 0 1 20.92 19.77 378 378 0 0 0 5.39 47c.55 3.1 1.13 6.18 1.77 9.24s1.28 6.13 2 9.17q.65 2.77 1.32 5.56a375.94 375.94 0 0 0 69.44 142.09c2.79 3.55 5.66 7.07 8.59 10.52q5.83 6.93 12 13.55 3.09 3.3 6.25 6.54 1.58 1.62 3.18 3.22 6.4 6.4 13.1 12.48 3.33 3 6.77 6a377.42 377.42 0 0 0 67 46.44c2.66 1.46 5.36 2.87 8.07 4.26q6.11 3.14 12.33 6c2.77 1.3 5.54 2.55 8.34 3.78a375.63 375.63 0 0 0 56.76 19.57q4.51 1.17 9.08 2.22c3 .7 6.09 1.37 9.16 2s6.15 1.22 9.25 1.77a379.31 379.31 0 0 0 66.75 5.89z" fill="#7986bf"/><path d="m878.79 761.6a47.12 47.12 0 0 0 -12.67 32.19v70.76a63.9 63.9 0 0 1 -5.38 25.76 71.32 71.32 0 0 0 -60.49-33.62h-226.19a377.38 377.38 0 0 1 -361.12-268.25q-4.68-15.48-8-31.51a97.38 97.38 0 0 0 -95.43-77.32v-81.12a14 14 0 0 1 14-14h92.94a19.32 19.32 0 0 1 19.22 18.51 376.3 376.3 0 0 0 5.45 48.32c.55 3.1 1.13 6.18 1.77 9.24s1.28 6.13 2 9.17q.65 2.77 1.33 5.56a375.94 375.94 0 0 0 69.44 142.09q4.19 5.34 8.59 10.52 5.83 6.93 12 13.55 3.09 3.3 6.25 6.54 1.58 1.62 3.18 3.22 6.4 6.4 13.1 12.48 3.33 3 6.77 6a377.42 377.42 0 0 0 67 46.44c2.66 1.46 5.36 2.87 8.07 4.26q6.11 3.14 12.33 6c2.77 1.3 5.54 2.55 8.34 3.78a375.63 375.63 0 0 0 56.76 19.57q4.51 1.17 9.08 2.22c3 .7 6.09 1.37 9.16 2s6.15 1.22 9.25 1.77a379.31 379.31 0 0 0 66.75 5.89z" fill="#adb6e0"/><g fill="#d2d6fa"><path d="m170.69 928.67h-79.06a39.53 39.53 0 0 1 79.06 0z"/><path d="m192.44 928.67h-61.28a30.64 30.64 0 1 1 61.28 0z"/><path d="m153.82 876.62a16 16 0 0 1 16 16v7.51a0 0 0 0 1 0 0 16 16 0 0 1 -16-16v-7.51a0 0 0 0 1 0 0z" transform="matrix(.66301211 .74860867 -.74860867 .66301211 719.6 178.27)"/><path d="m141.17 877.4a16 16 0 0 1 16 16v7.51a0 0 0 0 1 0 0 16 16 0 0 1 -16-16v-7.51a0 0 0 0 1 0 0z" transform="matrix(.9981348 -.06104854 .06104854 .9981348 -54.07 10.78)"/><path d="m860.17 928.67h-95.5a47.75 47.75 0 0 1 95.5 0z"/><path d="m886.44 928.67h-74a37 37 0 0 1 74 0z"/><path d="m839.79 865.8a19.28 19.28 0 0 1 19.28 19.28v9.07a0 0 0 0 1 0 0 19.28 19.28 0 0 1 -19.28-19.28v-9.07a0 0 0 0 1 0 0z" transform="matrix(.66301211 .74860867 -.74860867 .66301211 945.08 -339.35)"/><path d="m824.51 866.74a19.28 19.28 0 0 1 19.28 19.26v9.07a0 0 0 0 1 0 0 19.28 19.28 0 0 1 -19.28-19.28v-9.07a0 0 0 0 1 0 .02z" transform="matrix(.9981348 -.06104854 .06104854 .9981348 -52.28 52.63)"/><path d="m456 928.67h-46.1a23.05 23.05 0 1 1 46.1 0z"/><path d="m468.71 928.67h-35.71a17.87 17.87 0 1 1 35.73 0z"/><path d="m446.19 898.32a9.31 9.31 0 0 1 9.31 9.31v4.37a0 0 0 0 1 0 0 9.31 9.31 0 0 1 -9.31-9.31v-4.38a0 0 0 0 1 0 .01z" transform="matrix(.66301211 .74860867 -.74860867 .66301211 829.59 -32.46)"/><path d="m438.81 898.77a9.31 9.31 0 0 1 9.31 9.31v4.38a0 0 0 0 1 0 0 9.31 9.31 0 0 1 -9.31-9.31v-4.38a0 0 0 0 1 0 0z" transform="matrix(.9981348 -.06104854 .06104854 .9981348 -54.52 28.8)"/><path d="m707.2 180.46h-43.84a21.92 21.92 0 0 1 43.84 0z"/><path d="m682.54 180.46h-63a31.48 31.48 0 0 1 63 0z"/><path d="m654.84 180.46h-76.84a38.43 38.43 0 0 1 76.85 0z"/><path d="m466 285.2h-27.23a13.62 13.62 0 0 1 27.23 0z"/><path d="m450.68 285.2h-39.11a19.56 19.56 0 0 1 39.11 0z"/><path d="m433.47 285.2h-47.74a23.87 23.87 0 1 1 47.74 0z"/></g><path d="m507.13 127.38a35.13 35.13 0 0 1 35.13 35.13v184.36a0 0 0 0 1 0 0h-70.26a0 0 0 0 1 0 0v-184.36a35.13 35.13 0 0 1 35.13-35.13z" fill="#2f5176" transform="matrix(.11857727 .99294483 -.99294483 .11857727 682.41 -294.56)"/><path d="m353.94 232.6h48.9v39.82h-48.9z" fill="#f9a0b4" transform="matrix(.11857727 .99294483 -.99294483 .11857727 584.22 -153.17)"/><path d="m368.13 245.19h48.9v11.25h-48.9z" fill="#f291ab" transform="matrix(.11857727 .99294483 -.99294483 .11857727 595.04 -168.75)"/><circle cx="637.78" cy="147.91" fill="#622139" r="30.78"/><path d="m612.71 151.3a30.71 30.71 0 0 0 12.29 24.64 30.78 30.78 0 1 1 31.16-52.69 30.81 30.81 0 0 0 -43.49 28.05z" fill="#4f182e"/><circle cx="340.16" cy="334.95" fill="#2f5176" r="20.55"/><circle cx="339.3" cy="333.43" fill="#7dcacc" r="19.89"/><path d="m339.3 349.24a14.76 14.76 0 0 1 -1.77.1 15.91 15.91 0 0 1 0-31.82 17.18 17.18 0 0 1 1.77.1 15.91 15.91 0 0 0 0 31.62z" fill="#baf4f4"/><path d="m339.77 315.7a15.05 15.05 0 0 1 1.78-.11c8.78 0 15.9 8 15.9 17.84s-7.12 17.84-15.9 17.84a15.05 15.05 0 0 1 -1.78-.11c8-1 14.14-8.55 14.14-17.73s-6.18-16.74-14.14-17.73z" fill="#53a2a9"/><circle cx="339.3" cy="333.43" fill="#53a2a9" r="10.22"/><circle cx="339.3" cy="333.43" fill="#baf4f4" r="5.14"/><circle cx="438.75" cy="461.95" fill="#2f5176" r="20.55"/><circle cx="437.88" cy="460.43" fill="#7dcacc" r="19.89"/><path d="m437.88 476.23a14.76 14.76 0 0 1 -1.77.1 15.91 15.91 0 1 1 0-31.81 14.76 14.76 0 0 1 1.77.1 15.9 15.9 0 0 0 0 31.61z" fill="#baf4f4"/><path d="m438.36 442.7a12.94 12.94 0 0 1 1.77-.11c8.78 0 15.9 8 15.9 17.84s-7.12 17.84-15.9 17.84a12.94 12.94 0 0 1 -1.77-.12c7.95-1 14.13-8.54 14.13-17.72s-6.18-16.75-14.13-17.73z" fill="#53a2a9"/><circle cx="437.88" cy="460.43" fill="#53a2a9" r="10.22"/><circle cx="437.88" cy="460.43" fill="#baf4f4" r="5.14"/><rect fill="#2f5176" height="287.71" rx="39.32" transform="matrix(.79197006 -.61055992 .61055992 .79197006 -187.27 311.98)" width="78.64" x="324.9" y="286.97"/><rect fill="#f9a0b4" height="247.79" rx="25.6" transform="matrix(.60306877 -.7976892 .7976892 .60306877 70.26 712.56)" width="51.2" x="725.6" y="161.78"/><circle cx="677.47" cy="232.73" fill="#f35b32" r="39.69"/><path d="m616.35 182.88a35.13 35.13 0 0 1 35.13 35.12v178.39a0 0 0 0 1 0 0h-70.26a0 0 0 0 1 0 0v-178.39a35.13 35.13 0 0 1 35.13-35.12z" fill="#2f5176" transform="matrix(.8660254 -.5 .5 .8660254 -62.24 346.98)"/><path d="m680.28 376-21.1 12.18-78.18-141.54a13 13 0 0 0 -13-6.64l-168.65 20.15-2.38-20 179.41-21.45a18.66 18.66 0 0 1 18.39 9.2z" fill="#4d3251"/><path d="m515.93 285h4a33.14 33.14 0 0 1 33.07 33.11v190.08a0 0 0 0 1 0 0h-70.21a0 0 0 0 1 0 0v-190.08a33.14 33.14 0 0 1 33.14-33.11z" fill="#53a2a9" transform="matrix(.97452687 -.22427076 .22427076 .97452687 -75.75 126.26)"/><path d="m520.45 504.92h52.42v33.17h-52.42z" fill="#ffb2bf" transform="matrix(.97452687 -.22427076 .22427076 .97452687 -103.03 135.89)"/><path d="m517.66 505.24h52.42v8.29h-52.42z" fill="#f9a0b4" transform="matrix(.97452687 -.22427076 .22427076 .97452687 -100.39 134.95)"/><path d="m574.42 241.68h148.79a68.32 68.32 0 0 1 68.32 68.32 52.23 52.23 0 0 1 -52.23 52.23h-104.88a70.6 70.6 0 0 1 -70.6-70.6v-39.35a10.6 10.6 0 0 1 10.6-10.6z" fill="#fea642" transform="matrix(.34234814 -.93957318 .93957318 .34234814 162.01 835.35)"/><path d="m564.43 305.61h106.82a28.95 28.95 0 0 1 28.95 28.95 22.13 22.13 0 0 1 -22.13 22.13h-88.22a29.91 29.91 0 0 1 -29.91-29.91v-16.68a4.49 4.49 0 0 1 4.49-4.49z" fill="#fcc48b" transform="matrix(.34234814 -.93957318 .93957318 .34234814 103.27 809.82)"/><path d="m697 226.92c-.48 0-1 .06-1.43.06a17.1 17.1 0 0 1 -17-15.67l-.43-5.12-3.79-45.61 34.06-2.83 1.94 23.31 2.28 27.4a17.1 17.1 0 0 1 -15.63 18.46z" fill="#ffb2bf"/><path d="m710.28 181.06a49.15 49.15 0 0 1 -32.21 25.13l-3.79-45.61 34.06-2.83z" fill="#f9a0b4"/><rect fill="#7dcacc" height="287.71" rx="39.32" transform="matrix(.79197006 -.61055992 .61055992 .79197006 -191.94 309.9)" width="78.64" x="319.51" y="292.78"/><rect fill="#baf4f4" height="128.87" rx="7.81" transform="matrix(.79 -.61 .61 .79 -203.03 302.55)" width="15.62" x="334.68" y="384.8"/><path d="m456.79 539a40.08 40.08 0 0 0 -2.62-3.84l-127.64-165.62a39.34 39.34 0 0 0 -65.28 4.46 39.32 39.32 0 0 1 64.9-44.17l127.65 165.59a39.35 39.35 0 0 1 2.99 43.58z" fill="#53a2a9"/><path d="m587.24 225.69a35.13 35.13 0 0 1 35.13 35.13v219.1a0 0 0 0 1 0 0h-8.79a61.46 61.46 0 0 1 -61.46-61.46v-157.65a35.13 35.13 0 0 1 35.13-35.13z" fill="#53a2a9" transform="matrix(.34234814 -.93957318 .93957318 .34234814 54.75 783.81)"/><path d="m709.4 384.14a61 61 0 0 1 -19.84 19.08l-155.42-56.61a8.4 8.4 0 0 0 -11 9.78l2.61 11.38 30.89 134.43-27.39 6.3-35-152.2-2.31-10.06a25.14 25.14 0 0 1 33.06-29.24z" fill="#33557a"/><circle cx="734.06" cy="239.05" fill="#f35b32" r="39.69"/><circle cx="742.02" cy="235.13" fill="#fea642" r="34.21"/><g fill="#ffb2bf"><rect height="158.65" rx="25.6" transform="matrix(-.28334589 -.95901778 .95901778 -.28334589 803.75 1040.72)" width="51.2" x="765.13" y="140.73"/><rect height="158.65" rx="25.6" transform="matrix(.66314276 -.74849294 .74849294 .66314276 118.32 744.35)" width="51.2" x="860.5" y="161.4"/><circle cx="673.83" cy="147.91" r="49.12"/></g><path d="m679.26 196.73a51.25 51.25 0 0 1 -5.43.3 49.12 49.12 0 0 1 0-98.23 51.26 51.26 0 0 1 5.43.29 49.12 49.12 0 0 0 0 97.64z" fill="#f9a0b4"/><ellipse cx="931.7" cy="285.43" fill="#ffb2bf" rx="25.81" ry="32.4" transform="matrix(.9826128 -.18566662 .18566662 .9826128 -36.8 178.01)"/><ellipse cx="831.81" cy="350.94" fill="#f9a0b4" rx="25.81" ry="32.4" transform="matrix(.9826128 -.18566662 .18566662 .9826128 -50.71 160.6)"/><path d="m940.63 316.49c10.72-5.6 16.56-20.21 13.36-35.42-.18-.84-.38-1.66-.61-2.48a40.32 40.32 0 0 0 -1.58-4.59 34 34 0 0 0 -12-15.25 24.26 24.26 0 0 0 -10.5-4.09l-62-54.89-5.44-4.83a33.8 33.8 0 0 0 -27.86-5.68l-10.29 3-92.71 27.45a25.6 25.6 0 0 0 -17.34 17.29c0-.59-.06-1.19-.06-1.78a25.6 25.6 0 0 1 18.4-24.49l103-30.45a33.67 33.67 0 0 1 27.86 5.66l80.43 71.25a25.17 25.17 0 0 1 3 3.19 34.6 34.6 0 0 1 7.42 10.17 39 39 0 0 1 3.16 9.27c3.5 16.54-3.71 32.35-16.24 36.67z" fill="#f9e0e5" opacity=".38"/><ellipse cx="938.45" cy="290.34" fill="#f9e0e5" opacity=".38" rx="6.75" ry="11.61"/><circle cx="712.67" cy="127.64" fill="#622139" r="26.04"/><circle cx="686.38" cy="106.03" fill="#622139" r="30.78"/><path d="m738.7 127.64a26 26 0 0 0 -21.81-25.7 30.79 30.79 0 0 0 -58.13-9.53 30.8 30.8 0 0 1 51.35 9.32 31.24 31.24 0 0 1 1.92 7.33 25.25 25.25 0 0 1 4.83 1.28 26.09 26.09 0 0 1 14.59 35.33 26 26 0 0 0 7.25-18.03z" fill="#995370"/><circle cx="717.16" cy="143.89" fill="#ffb2bf" r="16.9"/><circle cx="647.14" cy="111.78" fill="#622139" r="35.47"/><path d="m652 137.69a27.48 27.48 0 1 1 -11.85-53.24 27.48 27.48 0 0 0 9.19 53.37 26.17 26.17 0 0 0 2.66-.13z" fill="#4f182e"/><circle cx="671.87" cy="152.68" fill="#48282b" r="3.29"/><circle cx="649.65" cy="158.74" fill="#48282b" r="3.29"/><path d="m563.83 534.76-43.33 10a22.24 22.24 0 1 1 43.33-10z" fill="#f35b32"/><path d="m517 550.91-1.24-6.7a5.58 5.58 0 0 1 4.13-6.44l56.74-14.28a7 7 0 0 1 8.57 5.51l2.31 12.41z" fill="#fea642"/><path d="m586.82 537.69 1.62 8.67-66.72 12.43a7.72 7.72 0 0 1 -9-6.18 7.72 7.72 0 0 1 6.17-9l17.38-3.24a6.63 6.63 0 0 1 7.73 5.3z" fill="#ef5938"/><path d="m353.92 264-7.63-43.81a22.23 22.23 0 1 1 7.63 43.81z" fill="#dd472f"/><path d="m340.38 216.37 6.76-.87a5.59 5.59 0 0 1 6.21 4.48l11.11 57.45a7 7 0 0 1 -6 8.25l-12.46 1.62z" fill="#ef5938"/><path d="m349.72 286.82-8.72 1.18-8.72-67.31a7.72 7.72 0 0 1 6.66-8.64 7.72 7.72 0 0 1 8.65 6.66l2.27 17.54a6.62 6.62 0 0 1 -5.72 7.42z" fill="#dd472f"/><circle cx="651.99" cy="241.6" fill="#13b6a1" r="10.57"/><path d="m659 245.33a7.68 7.68 0 0 1 -10.49 2.67 7 7 0 0 1 -1.27-1 7.68 7.68 0 0 0 7.7-12.91 7.79 7.79 0 0 1 1.44.67 7.67 7.67 0 0 1 2.62 10.57z" fill="#138a77"/><circle cx="649.65" cy="239.54" fill="#fff" r="5.29"/><ellipse cx="686.38" cy="106.03" fill="#995370" rx="14.47" ry="17.92" transform="matrix(.60306877 -.7976892 .7976892 .60306877 187.83 589.57)"/><path d="m718.57 149.34-6.25-8.78a1.71 1.71 0 0 1 .88-2.63 7.37 7.37 0 0 1 8.15 11.43 1.72 1.72 0 0 1 -2.78-.02z" fill="#f9a0b4"/><path d="m655.93 170.51a11.44 11.44 0 0 0 5.51 6.76c.33.17.66.33 1 .47a11.33 11.33 0 0 0 7.68.41l.44-.13a11.4 11.4 0 0 0 7.87-13.28c-.06-.3-.14-.61-.23-.91a2.21 2.21 0 0 0 -2.75-1.48l-18 5.41a2.21 2.21 0 0 0 -1.52 2.75z" fill="#962f4a"/><path d="m669.84 176.4a8.71 8.71 0 0 0 .67 1.63h.06a11.4 11.4 0 0 0 7.86-13.28 9.22 9.22 0 0 0 -2.52.38 9.06 9.06 0 0 0 -6.07 11.27z" fill="#e1617f"/><path d="m657.82 167.64c.73 2.12 4.54 2.84 8.6 1.62s6.84-3.92 6.28-6.09z" fill="#fff"/></svg>