<svg viewBox="0 0 1000 1000" xmlns="http://www.w3.org/2000/svg"><path d="m674.09 453c-.12 1.24-.19 2.49-.19 3.76v1.1s0 .59 0 .88 0 .59 0 .88l.06.78.12 1c0 .38.11.76.16 1.14l.12.64c0 .26.08.51.14.77.12.56.24 1.12.39 1.67a2.72 2.72 0 0 0 .13.49c.07.29.15.58.23.86s.17.57.28.86c.28.88.6 1.74.93 2.58.19.43.37.85.56 1.26a1.76 1.76 0 0 0 .09.2c.08.18.16.36.25.53s.16.34.25.5.22.43.33.64.21.38.3.57c.22.41.45.81.7 1.2l.35.55c.24.39.49.77.75 1.15s.61.88.93 1.31l.1.12c.29.38.58.76.88 1.12a3.31 3.31 0 0 1 .25.3c.27.32.54.63.83.94l.12.14c.37.4.73.78 1.1 1.16l1 .94c.17.14.33.29.48.43.32.28.64.56 1 .82l.67.55.18.14 1 .74a4.56 4.56 0 0 0 .39.27.45.45 0 0 0 .14.1c.22.17.46.33.7.49l1 .64c.21.14.44.27.66.39l.63.36a7.26 7.26 0 0 0 .67.38l.2.1c.34.19.71.37 1.06.55l.24.1c.37.19.75.36 1.13.52a4.88 4.88 0 0 0 .51.22c.34.15.71.29 1.07.43l.65.23c.16.07.35.13.53.19.55.19 1.11.37 1.67.52.29.09.58.16.86.23.85.23 1.73.42 2.6.57l.74.13 1.11.15c.69.09 1.4.16 2.11.2h.12c.75.05 1.5.07 2.26.07h106c1.35 0 2.71 0 4 .06h1.13q3.09.11 6.13.36l.94.08.66.06 1.42.14 1.62.18c.5.05 1 .11 1.49.18 1.14.14 2.29.3 3.42.48l1.62.25h.21l1.46.25c1.26.22 2.53.46 3.79.73l2.42.52 2.43.56c1.5.37 3 .76 4.47 1.18l.32.09q.9.24 1.77.51c1 .3 2 .62 3 .94l1.6.53c.92.31 1.86.63 2.78 1s1.77.64 2.63 1h.11c.91.35 1.82.71 2.72 1.08s1.8.75 2.68 1.14 1.46.64 2.19 1c.35.14.67.3 1 .45h.05c.7.32 1.38.64 2.07 1 1.74.84 3.45 1.73 5.15 2.65q2 1.1 4 2.26c.59.34 1.16.68 1.73 1l1.5.92q5.52 3.42 10.65 7.33l1.35 1.05c2.25 1.76 4.47 3.59 6.61 5.49.39.35.79.7 1.17 1.06l.58.52c.42.39.84.77 1.25 1.17s.72.68 1.09 1q3.66 3.5 7 7.26c.49.54 1 1.09 1.46 1.64l.89 1 1.38 1.62c.58.72 1.18 1.44 1.76 2.18q2.67 3.35 5.09 6.85c.44.61.86 1.22 1.27 1.84.24.35.47.71.71 1.07.4.59.78 1.18 1.17 1.78a137.26 137.26 0 0 1 21.56 74v3.31s-.06 2.19-.12 3.29-.01 2.29-.01 3.38-.17 2.17-.27 3.25c-.09.9-.18 1.8-.28 2.69 0 .37-.09.73-.14 1.1-.1.88-.21 1.76-.34 2.64l-.48 3.12a.29.29 0 0 1 0 .09c-.17 1-.36 2.09-.56 3.12q-.17.93-.36 1.86c-.11.56-.24 1.12-.35 1.68-.2.9-.4 1.8-.62 2.7s-.48 2-.75 3-.58 2.19-.89 3.27-.59 1.95-.88 2.91-.62 1.93-1 2.88a.35.35 0 0 1 0 .11c-.33 1-.69 2-1 2.93a.58.58 0 0 1 0 .14c-.36.95-.7 1.89-1.07 2.82s-.74 1.86-1.12 2.78a1.34 1.34 0 0 0 -.07.18c-.41.94-.8 1.88-1.22 2.8s-.86 1.89-1.3 2.83c-.37.76-.73 1.53-1.11 2.28-.12.27-.26.53-.39.8-.33.63-.64 1.25-1 1.87-.22.44-.46.88-.7 1.31l-.69 1.26c-.24.45-.49.9-.75 1.34s-.61 1.09-.92 1.63c-.22.38-.44.76-.68 1.13-.33.54-.68 1.07-1 1.63a8.6 8.6 0 0 1 -.49.8c-.44.73-.91 1.45-1.38 2.16-.56.86-1.12 1.72-1.7 2.57s-1.13 1.63-1.7 2.43q-2.7 3.81-5.7 7.42c-.65.79-1.3 1.57-2 2.35s-1.33 1.55-2 2.31-1.63 1.8-2.48 2.68-1.77 1.85-2.68 2.75c-2.74 2.74-5.59 5.37-8.56 7.86-1.24 1-2.5 2.07-3.78 3.06-.31.26-.65.51-1 .75l-.21.16q-1.92 1.49-3.89 2.88c-.54.39-1.1.78-1.65 1.16l-1.15.79c-1.51 1-3 2-4.6 3-.64.41-1.3.81-2 1.2h-.05c-.8.47-1.6.94-2.43 1.4s-1.65.93-2.5 1.38-1.65.89-2.5 1.32l-.1.06-2.54 1.27c-1.36.66-2.73 1.3-4.13 1.92-.58.27-1.19.53-1.79.79-1.41.6-2.81 1.18-4.23 1.73-.65.26-1.29.5-1.94.74l-1.92.71-2.23.77c-1.58.53-3.16 1-4.77 1.51-.68.2-1.36.4-2.06.59s-1.39.39-2.1.57-1.42.37-2.13.54l-1.87.45a137 137 0 0 1 -19.45 3l-1.69.13c-.61 0-1.24.09-1.85.12-1.24.08-2.49.13-3.74.17-1.42 0-2.84.06-4.27.06h-90.45a27 27 0 0 0 -10 1.89c-.33.12-.63.25-.94.39l-.65.29c-.29.13-.57.27-.85.42s-.42.21-.63.33a24.91 24.91 0 0 0 -2.31 1.4c-.27.18-.54.38-.82.58-.62.45-1.21.93-1.79 1.43a.58.58 0 0 0 -.14.13c-.25.21-.48.43-.73.66a.88.88 0 0 1 -.17.16l-.58.59c-.39.4-.77.81-1.12 1.22s-.51.61-.76.92a11.59 11.59 0 0 0 -.76 1 26 26 0 0 0 -2 3.22.28.28 0 0 0 -.07.11c-.14.29-.3.59-.43.89-.23.47-.44 1-.64 1.43l-.44 1.17c-.12.38-.26.77-.37 1.16a.94.94 0 0 0 0 .16c-.13.39-.23.78-.33 1.18s-.19.84-.28 1.27c-.08.42-.15.85-.23 1.28a.34.34 0 0 0 0 .1c0 .41-.1.84-.14 1.26s-.08.74-.1 1.11 0 1 0 1.52v102.02h-456.79v-101.95c0-.74 0-1.46-.1-2.18a27.31 27.31 0 0 0 -27.18-25.14h-53.7q-3 0-5.93-.13c-1 0-1.92-.1-2.88-.16s-1.69-.12-2.51-.19c-1.12-.09-2.21-.2-3.31-.32-.87-.09-1.71-.2-2.57-.31l-.86-.11-1.88-.27-.58-.09c-.89-.14-1.76-.28-2.65-.44a132.38 132.38 0 0 1 -109.27-130.38v-10.41a150.31 150.31 0 0 1 1-17.75 127.61 127.61 0 0 1 4.69-22.64 112.89 112.89 0 0 1 13.13-28.38 117.28 117.28 0 0 1 22.77-25.86c19.26-16.44 41.76-25.86 59.55-31.18a43.95 43.95 0 0 0 31.26-42.11v-43a63 63 0 0 1 56.65-62.69q1.84-.19 3.72-.27c.88 0 1.77-.06 2.65-.06a48.61 48.61 0 0 0 48.43-44.55c.09-1.33.16-2.68.16-4a48.6 48.6 0 0 0 -48.59-48.59h-18a83.61 83.61 0 1 1 0-167.21h516a97.93 97.93 0 0 1 97.92 97.92 69.31 69.31 0 0 0 64 69.09c1.75.13 3.5.2 5.27.2a83.31 83.31 0 0 1 59.12 24.49 84.36 84.36 0 0 1 7.41 8.49 83.17 83.17 0 0 1 17.08 50.63c0 1.77-.07 3.54-.17 5.28a83.33 83.33 0 0 1 -24.32 53.84l-1.6 1.56-1.61 1.48c-.54.49-1.11 1-1.66 1.45s-1 .85-1.52 1.26c-.67.56-1.34 1.1-2 1.62-.49.38-1 .75-1.5 1.12-.69.51-1.41 1-2.13 1.5-.49.34-1 .67-1.5 1l-.21.15c-.48.31-1 .61-1.46.91-.75.47-1.51.93-2.29 1.37s-1.3.73-1.94 1.08-1.31.7-2 1-1.33.67-2 1-1.33.62-2 .91a.08.08 0 0 1 -.07 0c-.65.3-1.33.58-2 .85h-.09c-.67.27-1.35.54-2 .8-2 .77-4.15 1.47-6.26 2.08l-1.1.31-1.44.38c-.63.17-1.26.31-1.88.46-1.19.27-2.39.52-3.6.74l-1.87.32-1.46.22-.74.1-1.76.22c-1.1.12-2.22.23-3.35.3-.67 0-1.34.09-2 .12l-1.83.07c-.72 0-1.44 0-2.17 0h-178.89c-.73 0-1.46 0-2.19.07l-.93.07-1.44.15c-.43.06-.86.11-1.3.19s-.87.15-1.3.24l-.43.09c-.27.06-.56.12-.84.2s-.56.13-.84.21-.58.15-.86.24l-.65.2q-.5.15-1 .33l-.65.23c-.86.31-1.7.65-2.52 1l-1.16.56a35.86 35.86 0 0 0 -6.57 4.29c-.41.32-.78.65-1.17 1s-.76.68-1.11 1-.72.71-1.06 1.08c-.33.35-.65.71-1 1.07l-.07.06s-.05.05-.05.08c-.27.28-.5.57-.75.87s-.54.69-.8 1.05a35.53 35.53 0 0 0 -6.88 17.77z" fill="#f3f4fe"/><g fill="#c5caef"><path d="m683.08 414.06a108 108 0 0 1 -1.72 19.33c-.1.67-.23 1.34-.36 2a35.53 35.53 0 0 0 -6.91 17.61c-.12 1.24-.19 2.49-.19 3.76v1.1q-2.05 4.65-4.5 9.06-1.84 3.31-3.91 6.48-2.91 4.49-6.23 8.64a108.8 108.8 0 0 1 -76.07 40.58c-3 .24-6 .37-9.05.37a108.7 108.7 0 0 1 -54.85-14.8q-4.27-2.49-8.3-5.36a109.25 109.25 0 0 1 -38-48.35 107.6 107.6 0 0 1 -3.54-10.34 109.58 109.58 0 0 1 -2.74-48 67.69 67.69 0 0 1 4.29-115.36 67.18 67.18 0 0 1 28.35-8.47c1.57-.11 3.15-.17 4.76-.17a67.56 67.56 0 0 1 58.46 33.61 110.59 110.59 0 0 1 11.56-.61 108.8 108.8 0 0 1 108.95 108.92z"/><circle cx="839.41" cy="305.13" r="67.67"/><path d="m644.33 257.59a67.68 67.68 0 1 1 -37.65-102 80.29 80.29 0 1 1 37.65 102z"/><path d="m500.49 583.62a80.26 80.26 0 0 1 -129.09 63.72 51.79 51.79 0 0 1 -46.59 31.12 80.29 80.29 0 1 1 -145.21 68.54 79.41 79.41 0 0 1 -16.17-10.82 134.59 134.59 0 0 1 -26.34 29.54 132.38 132.38 0 0 1 -109.23-130.39v-10.41a150.31 150.31 0 0 1 1-17.75 127.61 127.61 0 0 1 4.69-22.64 112.89 112.89 0 0 1 13.13-28.38 117.28 117.28 0 0 1 22.77-25.86 133.93 133.93 0 0 1 103.71 77 80.26 80.26 0 0 1 99.53 11.47 51.81 51.81 0 0 1 67.46-41.22 80.27 80.27 0 0 1 80-74.19c1.93 0 3.84.07 5.74.2a80.31 80.31 0 0 1 74.6 80.07z"/></g><path d="m674.09 453c-.12 1.24-.19 2.49-.19 3.76v1.1s0 .59 0 .88 0 .59 0 .88l.06.78.12 1c0 .38.11.76.16 1.14l.12.64c0 .26.08.51.14.77.12.56.24 1.12.39 1.67a2.72 2.72 0 0 0 .13.49c.07.29.15.58.23.86s.17.57.28.86c.28.88.6 1.74.93 2.58.19.43.37.85.56 1.26a1.76 1.76 0 0 0 .09.2c.08.18.16.36.25.53s.16.34.25.5.22.43.33.64.21.38.3.57c.22.41.45.81.7 1.2a5.6 5.6 0 0 0 .35.55c.24.39.49.77.75 1.15s.61.88.93 1.31l.1.12c.29.38.58.76.88 1.12a3.31 3.31 0 0 1 .25.3c.27.32.54.63.83.94l.12.14c.37.4.73.78 1.1 1.16l1 .94c.17.14.33.29.48.43.32.28.64.56 1 .82l.67.55.18.14 1 .74a4.56 4.56 0 0 0 .39.27.45.45 0 0 0 .14.1 6.76 6.76 0 0 0 .7.49l1 .64c.21.14.44.27.66.39l.63.36a7.26 7.26 0 0 0 .67.38l.2.1c.34.2.71.38 1.06.55l.24.1c.37.19.75.36 1.13.52a4.88 4.88 0 0 0 .51.22c.34.15.71.29 1.07.43l.65.23c.16.07.35.13.53.19.55.19 1.11.37 1.67.52.29.09.58.16.86.23.85.23 1.73.42 2.6.57l.74.13 1.11.15c.69.09 1.4.16 2.11.2h.12c.75.05 1.5.07 2.26.07h106c1.35 0 2.71 0 4 .06h1.13q3.09.11 6.13.36l.94.08.66.06 1.42.14 1.62.18c.5.05 1 .11 1.49.18 1.14.14 2.29.3 3.42.48l1.62.25h.21l1.46.25c1.26.22 2.53.46 3.79.73l2.42.52 2.43.56c1.5.37 3 .76 4.47 1.18l.32.09q.9.24 1.77.51c1 .3 2 .62 3 .94l1.6.53c.92.31 1.86.63 2.78 1s1.77.64 2.63 1h.11c.91.35 1.82.71 2.72 1.08s1.8.75 2.68 1.14 1.46.64 2.19 1c.35.14.67.3 1 .45h.05c.7.32 1.38.64 2.07 1 1.74.84 3.45 1.73 5.15 2.65q2 1.1 4 2.26c.59.34 1.16.68 1.73 1l1.5.92q5.52 3.42 10.65 7.33l1.35 1.05c2.25 1.76 4.47 3.59 6.61 5.49.39.35.79.7 1.17 1.06l.58.52c.42.39.84.77 1.25 1.17s.72.68 1.09 1q3.66 3.5 7 7.26c.49.54 1 1.09 1.46 1.64l.89 1 1.38 1.62c.58.72 1.18 1.44 1.76 2.18q2.67 3.35 5.09 6.85c.44.61.86 1.22 1.27 1.84.24.35.47.71.71 1.07.4.59.78 1.18 1.17 1.78a137.26 137.26 0 0 1 21.56 74v3.31s-.06 2.19-.12 3.29-.01 2.29-.01 3.38-.17 2.17-.27 3.25c-.09.9-.18 1.8-.28 2.69 0 .37-.09.73-.14 1.1-.1.88-.21 1.76-.34 2.64l-.48 3.12a.29.29 0 0 1 0 .09c-.17 1-.36 2.09-.56 3.12q-.17.93-.36 1.86c-.11.56-.24 1.12-.35 1.68-.2.9-.4 1.8-.62 2.7s-.48 2-.75 3-.58 2.19-.89 3.27-.59 1.95-.88 2.91-.62 1.93-1 2.88a.35.35 0 0 1 0 .11c-.33 1-.69 2-1 2.93a.58.58 0 0 1 0 .14c-.36.95-.7 1.89-1.07 2.82s-.74 1.86-1.12 2.78a1.34 1.34 0 0 0 -.07.18c-.41.94-.8 1.88-1.22 2.8s-.86 1.89-1.3 2.83c-.37.76-.73 1.53-1.11 2.28-.12.27-.26.53-.39.8-.33.63-.64 1.25-1 1.87-.22.44-.46.88-.7 1.31l-.69 1.26c-.24.45-.49.9-.75 1.34s-.61 1.09-.92 1.63-.47.81-.72 1.21l-1 1.6c-.15.25-.3.5-.47.75-.44.73-.91 1.45-1.38 2.16-.56.86-1.12 1.72-1.7 2.57s-1.13 1.63-1.7 2.43q-2.7 3.81-5.7 7.42c-.65.79-1.3 1.57-2 2.35s-1.33 1.55-2 2.31-1.63 1.8-2.48 2.68-1.68 1.75-2.53 2.61q-4.18 4.19-8.72 8c-1.23 1-2.5 2.07-3.77 3.06-.31.26-.65.51-1 .75l-.21.16q-1.92 1.49-3.89 2.88c-.54.39-1.1.78-1.65 1.16l-1.15.79c-1.51 1-3 2-4.6 3-.64.41-1.3.81-2 1.2h-.05c-.8.47-1.6.94-2.43 1.4s-1.65.93-2.5 1.38-1.65.89-2.5 1.32l-.1.06-2.54 1.27c-1.36.66-2.73 1.3-4.13 1.92-.58.27-1.19.53-1.79.79-1.41.6-2.81 1.18-4.23 1.73-.65.26-1.29.5-1.94.74l-1.92.71-2.23.77c-1.58.53-3.16 1-4.77 1.51-.68.2-1.36.4-2.06.59s-1.39.39-2.1.57-1.42.37-2.13.54l-1.87.45a137 137 0 0 1 -19.45 3l-1.69.13c-.61 0-1.24.09-1.85.12-1.24.08-2.49.13-3.74.17-1.42 0-2.84.06-4.27.06h-90.43a27 27 0 0 0 -10 1.89c-.33.12-.63.25-.94.39l-.65.29c-.29.13-.57.27-.85.42s-.42.21-.63.33a24.91 24.91 0 0 0 -2.31 1.4l-.82.58c-.62.45-1.21.93-1.79 1.43a.58.58 0 0 0 -.14.13c-.25.21-.48.43-.73.66a.88.88 0 0 1 -.17.16l-.58.59c-.39.4-.77.81-1.12 1.22s-.52.61-.76.92a11.59 11.59 0 0 0 -.76 1 26 26 0 0 0 -2 3.22.28.28 0 0 0 -.07.11c-.15.29-.3.59-.43.89-.23.47-.44 1-.64 1.43s-.29.77-.44 1.17-.26.77-.37 1.16a.94.94 0 0 0 0 .16c-.13.39-.23.78-.33 1.18s-.2.85-.28 1.27c-.09.42-.16.85-.23 1.28a.34.34 0 0 0 0 .1c0 .41-.1.84-.14 1.26s-.08.74-.1 1.11 0 1 0 1.52v102.02h-456.79v-101.95c0-.74 0-1.46-.1-2.18a80 80 0 0 1 -47.73-25.14h-33.19q-3 0-5.93-.13c-1 0-1.92-.1-2.88-.16s-1.69-.12-2.51-.19c-1.12-.09-2.21-.2-3.31-.32-.87-.09-1.71-.2-2.57-.31l-.86-.11-1.88-.27-.58-.09c-.89-.14-1.76-.28-2.65-.44a132.38 132.38 0 0 1 -109.23-130.38v-10.41a150.31 150.31 0 0 1 1-17.75 82.52 82.52 0 0 1 59.64 79.28 82.62 82.62 0 0 1 -3.62 24.24h.24a46 46 0 0 1 43.58 31.31 62.25 62.25 0 0 1 119-6.71 94.19 94.19 0 0 1 116.64-81.58 71.4 71.4 0 0 1 -.57-8.82 73.3 73.3 0 0 1 .44-7.88 70.81 70.81 0 0 1 22.08-44 70.67 70.67 0 0 1 37-18.19 122.45 122.45 0 0 1 -3.85-25.82c-.1-1.8-.14-3.62-.14-5.44 0-2.69.1-5.36.25-8a123.56 123.56 0 0 1 49.9-91.46c1.15-.86 2.33-1.71 3.54-2.53a123.15 123.15 0 0 1 38-17.55c2.74-.73 5.5-1.37 8.3-1.91a121.32 121.32 0 0 1 17.85-2.11 71.56 71.56 0 0 1 -.76-7.37c0-.81-.07-1.62-.07-2.44a65.07 65.07 0 0 1 2.4-17.24c-1.2-.46-2.37-.93-3.54-1.43a104.57 104.57 0 0 1 -15.83-8.32c-2.86-1.82-5.63-3.79-8.3-5.88a105.88 105.88 0 0 1 -40.77-83.6c0-.69 0-1.37 0-2.05a100.56 100.56 0 0 1 .77-10.9 106.1 106.1 0 0 1 51.52-78.53 106.16 106.16 0 0 1 88.44-8.83 105.27 105.27 0 0 1 169.25 75.84c.62-.06 1.23-.11 1.83-.14 1-.07 2.08-.1 3.13-.1a48.35 48.35 0 0 1 30 10.41 48.93 48.93 0 0 1 15 19.93 132.72 132.72 0 0 1 70.63-22.48c1.17 0 2.35-.05 3.55-.05a132.77 132.77 0 0 1 50.6 9.95 83.17 83.17 0 0 1 17.08 50.63c0 1.77-.07 3.54-.17 5.28a83.33 83.33 0 0 1 -24.32 53.84l-1.6 1.56-1.61 1.48c-.54.49-1.11 1-1.66 1.45s-1 .85-1.52 1.26c-.67.56-1.34 1.1-2 1.62-.49.38-1 .75-1.5 1.12-.69.51-1.41 1-2.13 1.5-.49.34-1 .67-1.5 1l-.21.15c-.48.31-1 .61-1.46.91-.75.47-1.51.93-2.29 1.37s-1.3.73-1.94 1.08-1.31.7-2 1-1.33.67-2 1-1.33.62-2 .91a.08.08 0 0 1 -.07 0c-.65.3-1.33.58-2 .85h-.09c-.67.27-1.35.54-2 .8-2 .77-4.15 1.47-6.26 2.08l-1.1.31-1.44.38c-.61.16-1.21.3-1.81.44-1.22.28-2.44.54-3.67.76l-1.87.32-1.46.22-.74.1-1.76.22c-1.1.12-2.22.23-3.35.3-.67 0-1.34.09-2 .12l-1.83.07c-.72 0-1.44 0-2.17 0h-178.88c-.76 0-1.51 0-2.26.08l-.87.06-1.37.14c-.45.06-.9.12-1.36.2s-.87.15-1.3.24l-.43.09c-.27.06-.56.12-.84.2s-.56.13-.84.21-.58.15-.86.24l-.65.2q-.5.15-1 .33l-.65.23c-.86.32-1.71.67-2.54 1l-1.14.55a35.86 35.86 0 0 0 -6.57 4.29c-.41.32-.78.65-1.17 1s-.76.68-1.11 1-.72.71-1.06 1.08c-.33.35-.66.7-1 1.07l-.07.06s-.05.05-.05.08c-.27.28-.5.57-.75.87s-.54.69-.8 1.05a35.53 35.53 0 0 0 -6.88 17.83z" fill="#c9cef7"/><path d="m501.82 328.81a84.62 84.62 0 0 0 56.18 50.06 84.79 84.79 0 0 1 66.61-154.15 84.79 84.79 0 0 0 -122.79 104.09z" fill="#fff" opacity=".36"/><path d="m972.14 337.4c0 1.77-.07 3.54-.17 5.28-1.17-1.36-2.39-2.7-3.65-4a86.49 86.49 0 0 0 -147.52 46.18 88.07 88.07 0 0 1 -.48-14.79 86.5 86.5 0 0 1 148.54-55.51c.06.06.12.11.17.17a84 84 0 0 1 3.11 22.67z" fill="#fff" opacity=".36"/><path d="m223.3 253.79h-17.52v-25.79l52.5-52.5v93.12a48.47 48.47 0 0 0 -34.98-14.83z" fill="#d9dcfb"/><path d="m583.21 340.59v556.31h-428.88v-417.81a43.88 43.88 0 0 0 5.93-22.09v-43a63 63 0 0 1 56.65-62.69q1.84-.19 3.72-.27c.88 0 1.77-.06 2.65-.06a48.61 48.61 0 0 0 48.43-44.55h10.29v-55.11l45.83-10.32 94.7 50.69h88.47z" fill="#d9dcfb"/><path d="m254.09 371.63v525.27h-99.76v-417.81a43.88 43.88 0 0 0 5.93-22.09v-43a63 63 0 0 1 56.65-62.69z" fill="#c5caef"/><path d="m472.98 291.68h38.03v605.22h-38.03z" fill="#c5caef"/><path d="m918 300.22v115.44a83.31 83.31 0 0 1 -29.47 5.34h-73.25v-158.81z" fill="#d9dcfb"/><path d="m918 538.12v358.78h-102.72v-404.38h.42c1.35 0 2.71 0 4 .06h1.13q3.09.11 6.13.36l.94.08.66.06 1.42.14 1.62.18c.5.05 1 .11 1.49.18 1.14.14 2.29.3 3.42.48l1.62.25h.21l1.46.25c1.26.22 2.53.46 3.79.73l2.42.52 2.43.56c1.5.37 3 .76 4.47 1.18l.32.09q.9.24 1.77.51c1 .3 2 .62 3 .94l1.6.53c.92.31 1.86.63 2.78 1s1.77.64 2.63 1h.11c.91.35 1.82.71 2.72 1.08s1.8.75 2.68 1.14 1.46.64 2.19 1c.35.14.67.3 1 .45h.05c.7.32 1.38.64 2.07 1 1.74.85 3.45 1.73 5.15 2.65q2 1.1 4 2.26c.59.34 1.16.68 1.73 1l1.5.92q5.52 3.42 10.65 7.33l1.35 1.05c2.25 1.76 4.47 3.59 6.61 5.49.39.35.79.7 1.17 1.06l.58.52c.42.39.84.77 1.25 1.17s.72.68 1.09 1q3.73 3.62 7.09 7.38z" fill="#d9dcfb"/><path d="m815.28 335.15v85.86h-50.44v-55.59z" fill="#c5caef"/><path d="m764.83 492.52h50.45v404.38h-50.45z" fill="#c5caef"/><path d="m674.09 453c-.12 1.24-.19 2.49-.19 3.76v1.1s0 .59 0 .88 0 .59 0 .88l.06.78.12 1c0 .38.11.76.16 1.14l.12.64c0 .26.08.51.14.77.12.56.24 1.12.39 1.67a2.72 2.72 0 0 0 .13.49c.07.29.15.58.23.86s.17.57.28.86c.28.88.6 1.74.93 2.58.19.43.37.85.56 1.26s.38.82.59 1.23.29.58.45.86c.06.12.13.23.18.35.22.41.45.81.7 1.2l.35.55c.24.39.49.77.75 1.15s.61.88.93 1.31l.1.12c.29.38.58.76.88 1.12a3.31 3.31 0 0 1 .25.3c.27.32.54.63.83.94l.12.14c.37.4.73.78 1.1 1.16l1 .94c.17.14.33.29.48.43.32.28.64.56 1 .82l.67.55.18.14 1 .74a4.56 4.56 0 0 0 .39.27.45.45 0 0 0 .14.1c.22.17.46.33.7.49l1 .64c.21.14.44.27.66.39l.63.36a7.26 7.26 0 0 0 .67.38l.2.1c.34.19.71.37 1.06.55l.24.1c.37.19.75.36 1.13.52a4.88 4.88 0 0 0 .51.22c.34.15.71.29 1.07.43l.65.23c.16.07.35.13.53.19.55.19 1.11.37 1.67.52.29.09.58.16.86.23.85.23 1.73.42 2.6.57l.74.13 1.11.15c.69.09 1.4.16 2.11.2h.12v404.41h-48.09v-580.38l48.12-20.18v124.75l-.87.06-1.37.14c-.45.06-.9.12-1.36.2s-.87.15-1.3.24l-.43.09c-.27.06-.56.12-.84.2s-.56.13-.84.21-.58.15-.86.24l-.65.2q-.5.15-1 .33l-.65.23c-.86.32-1.71.67-2.54 1l-1.14.55a35.86 35.86 0 0 0 -6.57 4.29c-.41.32-.78.65-1.17 1s-.76.68-1.11 1-.72.71-1.06 1.08c-.33.35-.65.71-1 1.07l-.07.06s-.05.05-.05.08c-.27.28-.5.57-.75.87s-.54.69-.8 1.05a35.53 35.53 0 0 0 -6.88 17.72z" fill="#d9dcfb"/><path d="m743.1 308.76v112.24h-33.44c-.76 0-1.51 0-2.26.08v-124.74z" fill="#c5caef"/><path d="m709.66 492.52h33.44v404.38h-35.7v-404.45c.75.05 1.5.07 2.26.07z" fill="#c5caef"/><g fill="#f3f4fe"><path d="m294.5 315.73h125.6v13.44h-125.6z"/><path d="m572.93 392.76-53.62-1.74v-68.57l53.62 36.05z"/><path d="m294.5 359.7h125.6v13.44h-125.6z"/><path d="m294.5 403.68h125.6v13.44h-125.6z"/><path d="m294.5 447.65h125.6v13.44h-125.6z"/><path d="m294.5 491.63h125.6v13.44h-125.6z"/><path d="m294.5 535.6h125.6v13.44h-125.6z"/><path d="m294.5 579.58h125.6v13.44h-125.6z"/><path d="m294.5 623.55h125.6v13.44h-125.6z"/><path d="m294.5 667.52h125.6v13.44h-125.6z"/><path d="m294.5 711.5h125.6v13.44h-125.6z"/><path d="m294.5 755.47h125.6v13.44h-125.6z"/><path d="m294.5 799.45h125.6v13.44h-125.6z"/><path d="m294.5 843.42h125.6v13.44h-125.6z"/><path d="m519.31 412.64h53.61v108.71h-53.61z"/><path d="m519.31 546.37h53.61v108.71h-53.61z"/><path d="m519.31 680.11h53.61v108.71h-53.61z"/><path d="m519.31 806.16h53.61v66.22h-53.61z"/><path d="m834.53 318.49h25.13v13.62h-25.13z"/><path d="m665.51 349.3h34.97v-39.86l-34.97 16.41z"/><path d="m881.05 318.49h25.13v13.62h-25.13z"/><path d="m834.53 354.32h25.13v13.62h-25.13z"/><path d="m881.05 354.32h25.13v13.62h-25.13z"/><path d="m834.53 390.15h25.13v13.62h-25.13z"/><path d="m881.05 390.15h25.13v13.62h-25.13z"/><path d="m859.67 499.7v11.56h-25.14v-13.63h18.47l.32.09q.9.24 1.77.51c1 .3 2 .62 3 .94z"/><path d="m885.05 511.26h-4v-2.26q2.04 1.1 4 2.26z"/><path d="m834.53 533.46h25.13v13.62h-25.13z"/><path d="m881.05 533.46h25.13v13.62h-25.13z"/><path d="m834.53 569.29h25.13v13.62h-25.13z"/><path d="m881.05 569.29h25.13v13.62h-25.13z"/><path d="m834.53 605.12h25.13v13.62h-25.13z"/><path d="m881.05 605.12h25.13v13.62h-25.13z"/><path d="m834.53 640.95h25.13v13.62h-25.13z"/><path d="m881.05 640.95h25.13v13.62h-25.13z"/><path d="m834.53 676.78h25.13v13.62h-25.13z"/><path d="m881.05 676.78h25.13v13.62h-25.13z"/><path d="m834.53 712.61h25.13v13.62h-25.13z"/><path d="m881.05 712.61h25.13v13.62h-25.13z"/><path d="m834.53 748.43h25.13v13.62h-25.13z"/><path d="m881.05 748.43h25.13v13.62h-25.13z"/><path d="m834.53 784.26h25.13v13.62h-25.13z"/><path d="m881.05 784.26h25.13v13.62h-25.13z"/><path d="m834.53 820.09h25.13v13.62h-25.13z"/><path d="m881.05 820.09h25.13v13.62h-25.13z"/><path d="m834.53 855.92h25.13v13.62h-25.13z"/><path d="m881.05 855.92h25.13v13.62h-25.13z"/><path d="m665.51 361.13h34.96v19.6h-34.96z"/><path d="m665.51 394.66h12.85v19.6h-12.85z"/><path d="m687.63 394.66h12.85v19.6h-12.85z"/><path d="m682.6 433.39s-.05.05-.05.08c-.27.28-.5.57-.75.87s-.54.69-.8 1.05a35.53 35.53 0 0 0 -6.91 17.61h-8.58v-19.61z"/><path d="m678.35 474.06v12.47h-12.84v-19.61h9.85a34.86 34.86 0 0 0 2.99 7.14z"/><path d="m689.84 486.53h-2.21v-1.6c.71.56 1.45 1.07 2.21 1.6z"/><path d="m665.51 505.66h34.96v19.6h-34.96z"/><path d="m665.51 539.19h12.85v19.6h-12.85z"/><path d="m687.63 539.19h12.85v19.6h-12.85z"/><path d="m665.51 577.35h34.96v19.6h-34.96z"/><path d="m665.51 610.88h12.85v19.6h-12.85z"/><path d="m687.63 610.88h12.85v19.6h-12.85z"/><path d="m665.51 649.04h34.96v19.6h-34.96z"/><path d="m665.51 682.57h12.85v19.6h-12.85z"/><path d="m687.63 682.57h12.85v19.6h-12.85z"/><path d="m665.51 720.73h34.96v19.6h-34.96z"/><path d="m665.51 754.26h12.85v19.6h-12.85z"/><path d="m687.63 754.26h12.85v19.6h-12.85z"/><path d="m665.51 792.42h34.96v19.6h-34.96z"/><path d="m665.51 825.95h12.85v19.6h-12.85z"/><path d="m687.63 825.95h12.85v19.6h-12.85z"/></g><rect fill="#7986bf" height="17.61" rx="8.8" transform="matrix(-1 0 0 -1 201.35 1811.52)" width="74.06" x="63.64" y="896.96"/><rect fill="#7986bf" height="17.61" rx="8.8" transform="matrix(-1 0 0 -1 1099.69 1811.52)" width="809.94" x="144.87" y="896.96"/><circle cx="728.8" cy="871.17" fill="#ff9f29" r="25.57"/><path d="m728.8 891.49a19.12 19.12 0 0 1 -2.28.13 20.46 20.46 0 0 1 0-40.91 21.47 21.47 0 0 1 2.28.13 20.45 20.45 0 0 0 0 40.65z" fill="#ffd42c"/><path d="m729.41 848.38a17.23 17.23 0 0 1 2.28-.15c11.29 0 20.45 10.27 20.45 22.94s-9.14 22.93-20.45 22.93a17.23 17.23 0 0 1 -2.28-.14c10.22-1.27 18.17-11 18.17-22.79s-7.95-21.53-18.17-22.79z" fill="#f07927"/><circle cx="728.8" cy="871.17" fill="#f07927" r="13.14"/><circle cx="728.8" cy="871.17" fill="#ffd42c" r="6.61"/><circle cx="351.99" cy="871.17" fill="#ff9f29" r="25.57"/><path d="m352 891.49a18.84 18.84 0 0 1 -2.27.13 20.46 20.46 0 0 1 0-40.91 21.14 21.14 0 0 1 2.27.13 20.45 20.45 0 0 0 0 40.65z" fill="#ffd42c"/><path d="m352.61 848.38a17 17 0 0 1 2.27-.15c11.3 0 20.45 10.27 20.45 22.94s-9.15 22.93-20.45 22.93a17 17 0 0 1 -2.27-.14c10.22-1.27 18.17-11 18.17-22.79s-7.95-21.53-18.17-22.79z" fill="#f07927"/><circle cx="351.99" cy="871.17" fill="#f07927" r="13.14"/><circle cx="351.99" cy="871.17" fill="#ffd42c" r="6.61"/><path d="m373.28 441.91a41.89 41.89 0 0 1 41.89 41.89v221.06a0 0 0 0 1 0 0h-83.77a0 0 0 0 1 0 0v-221.07a41.89 41.89 0 0 1 41.89-41.89z" fill="#652682" transform="matrix(-.31846302 .94793529 -.94793529 -.31846302 1035.69 402.15)"/><path d="m448.56 450.71h84.5a0 0 0 0 1 0 0v160.58a42.25 42.25 0 0 1 -42.25 42.25 42.25 42.25 0 0 1 -42.25-42.25v-160.58a0 0 0 0 1 0 0z" fill="#652682" transform="matrix(.83619045 .54843918 -.54843918 .83619045 383.18 -178.73)"/><path d="m201.51 513.28h68.09v27.65h-68.09z" fill="#ea8681" transform="matrix(-.31846302 .94793529 -.94793529 -.31846302 810.23 471.7)"/><path d="m441.58 605.12a40.84 40.84 0 0 1 -7.32-.66 1.43 1.43 0 1 1 .5-2.82 38.79 38.79 0 0 0 11 .38 1.43 1.43 0 1 1 .32 2.85 40.28 40.28 0 0 1 -4.5.25zm15.42-3.12a1.44 1.44 0 0 1 -.56-2.76 38.48 38.48 0 0 0 9.47-5.66 1.44 1.44 0 0 1 1.81 2.23 41.43 41.43 0 0 1 -10.17 6.08 1.54 1.54 0 0 1 -.55.11zm-33.49-.83a1.49 1.49 0 0 1 -.47-.07l-10.85-3.76a1.43 1.43 0 0 1 .94-2.71l10.87 3.77a1.44 1.44 0 0 1 -.47 2.79zm-21.69-7.51a1.5 1.5 0 0 1 -.47-.08l-10.85-3.76a1.43 1.43 0 1 1 .94-2.71l10.85 3.76a1.44 1.44 0 0 1 -.47 2.79zm72.75-5.94a1.43 1.43 0 0 1 -1.18-2.24 36.93 36.93 0 0 0 2.08-3.41l3.51-6.44a1.43 1.43 0 1 1 2.52 1.37l-3.5 6.44c-.69 1.26-1.44 2.49-2.24 3.66a1.43 1.43 0 0 1 -1.17.64zm-94.45-1.57a1.6 1.6 0 0 1 -.47-.08l-10.84-3.76a1.43 1.43 0 1 1 .94-2.71l10.84 3.75a1.44 1.44 0 0 1 -.47 2.8zm-21.69-7.52a1.5 1.5 0 0 1 -.47-.08l-10.85-3.76a1.43 1.43 0 0 1 .94-2.71l10.85 3.76a1.44 1.44 0 0 1 -.47 2.79zm-21.69-7.51a1.5 1.5 0 0 1 -.47-.08l-10.85-3.76a1.43 1.43 0 1 1 .94-2.71l10.85 3.75a1.44 1.44 0 0 1 -.47 2.8zm149-3.45a1.45 1.45 0 0 1 -.69-.18 1.43 1.43 0 0 1 -.57-1.94l5.52-10.07a1.44 1.44 0 0 1 2.52 1.38l-5.52 10.08a1.43 1.43 0 0 1 -1.25.75zm-170.69-4.07a1.33 1.33 0 0 1 -.47-.08l-10.84-3.76a1.43 1.43 0 1 1 .93-2.71l10.85 3.76a1.43 1.43 0 0 1 -.47 2.79zm-21.69-7.51a1.5 1.5 0 0 1 -.47-.08l-10.85-3.76a1.43 1.43 0 0 1 .94-2.71l10.85 3.75a1.44 1.44 0 0 1 -.47 2.8zm-21.69-7.52a1.26 1.26 0 0 1 -.47-.08l-10.85-3.76a1.43 1.43 0 1 1 .94-2.71l10.85 3.76a1.44 1.44 0 0 1 .88 1.83 1.43 1.43 0 0 1 -1.34.98zm225-1.07a1.4 1.4 0 0 1 -.68-.17 1.44 1.44 0 0 1 -.58-2l5.59-10.01a1.43 1.43 0 1 1 2.52 1.37l-5.52 10.08a1.43 1.43 0 0 1 -1.28.75zm-246.67-6.42a1.6 1.6 0 0 1 -.47-.08l-2.62-.91a1.44 1.44 0 0 1 .94-2.72l2.62.91a1.44 1.44 0 0 1 -.47 2.8zm257.7-13.72a1.45 1.45 0 0 1 -.69-.18 1.43 1.43 0 0 1 -.57-1.94l5.49-10.09a1.44 1.44 0 0 1 2.52 1.38l-5.45 10.08a1.43 1.43 0 0 1 -1.3.75zm11-20.17a1.4 1.4 0 0 1 -.7-.19 1.44 1.44 0 0 1 -.58-1.95l5.48-10.05a1.43 1.43 0 1 1 2.52 1.37l-5.49 10.08a1.43 1.43 0 0 1 -1.26.74zm11-20.16a1.45 1.45 0 0 1 -.69-.18 1.43 1.43 0 0 1 -.57-1.94l5.49-10.09a1.44 1.44 0 0 1 2.52 1.38l-5.49 10.08a1.43 1.43 0 0 1 -1.31.72zm11-20.17a1.4 1.4 0 0 1 -.68-.17 1.44 1.44 0 0 1 -.58-1.95l5.49-10.08a1.43 1.43 0 1 1 2.52 1.37l-5.49 10.08a1.43 1.43 0 0 1 -1.34.75z" fill="#a877c5"/><g fill="#813aab"><rect height="202.83" rx="42.25" transform="matrix(.46839249 -.8835205 .8835205 .46839249 -158.21 800.61)" width="84.5" x="543.92" y="430.35"/><path d="m555.49 451.44h28a0 0 0 0 1 0 0v113a0 0 0 0 1 0 0h-28a56.5 56.5 0 0 1 -56.5-56.5 56.5 56.5 0 0 1 56.5-56.5z" transform="matrix(.46839249 -.8835205 .8835205 .46839249 -161.05 748.24)"/><path d="m622.07 515.44a41.89 41.89 0 0 1 41.93 41.89v221.06a0 0 0 0 1 0 0h-83.82a0 0 0 0 1 0 0v-221.06a41.89 41.89 0 0 1 41.89-41.89z" transform="matrix(.98296744 .18377979 -.18377979 .98296744 129.54 -103.34)"/></g><path d="m561.3 775.92h68.21v27.12h-68.21z" fill="#ef948c" transform="matrix(.98 .18 -.18 .98 155.29 -96.01)"/><rect fill="#ffb829" height="32.72" rx="16.36" width="534.07" x="258.76" y="827.51"/><path d="m792.82 843.87a16.35 16.35 0 0 1 -16.36 16.36h-501.35a16.37 16.37 0 0 1 -16.36-16.36 15.81 15.81 0 0 1 .4-3.54 16.36 16.36 0 0 0 16 12.8h501.31a16.36 16.36 0 0 0 16-12.8 16.41 16.41 0 0 1 .36 3.54z" fill="#ff9f29"/><g fill="#a877c5"><path d="m543.3 462.06a1.38 1.38 0 0 1 -.56-.12 1.44 1.44 0 0 1 -.76-1.89l2.26-5.27a1.44 1.44 0 0 1 2.64 1.13l-2.26 5.27a1.43 1.43 0 0 1 -1.32.88z"/><path d="m604.36 760.82a1.27 1.27 0 0 1 -.28 0 1.43 1.43 0 0 1 -1.08-1.72l2.18-10.94a1.44 1.44 0 0 1 2.82.56l-2.19 10.95a1.42 1.42 0 0 1 -1.45 1.15zm4.37-21.9h-.28a1.44 1.44 0 0 1 -1.13-1.69l2.19-11a1.42 1.42 0 0 1 1.68-1.13 1.44 1.44 0 0 1 1.13 1.69l-2.19 10.95a1.42 1.42 0 0 1 -1.4 1.18zm4.37-21.92a1.33 1.33 0 0 1 -.28 0 1.44 1.44 0 0 1 -1.13-1.69l2.19-10.95a1.43 1.43 0 0 1 2.81.57l-2.19 10.94a1.43 1.43 0 0 1 -1.4 1.13zm4.37-21.9a1.33 1.33 0 0 1 -.28 0 1.44 1.44 0 0 1 -1.13-1.69l2.19-10.94a1.43 1.43 0 1 1 2.81.56l-2.18 11a1.44 1.44 0 0 1 -1.41 1.1zm4.37-21.9h-.28a1.45 1.45 0 0 1 -1.13-1.69l2.19-10.95a1.43 1.43 0 1 1 2.81.56l-2.18 11a1.44 1.44 0 0 1 -1.41 1.11zm4.37-21.89a1.33 1.33 0 0 1 -.28 0 1.44 1.44 0 0 1 -1.13-1.69l2.19-11a1.43 1.43 0 0 1 2.81.56l-2.18 10.95a1.45 1.45 0 0 1 -1.41 1.21zm4.37-21.9a1.33 1.33 0 0 1 -.28 0 1.44 1.44 0 0 1 -1.13-1.69l2.19-11a1.43 1.43 0 1 1 2.81.57l-2.17 11a1.44 1.44 0 0 1 -1.42 1.15zm4.37-21.9h-.28a1.43 1.43 0 0 1 -1.13-1.68l2.19-11a1.43 1.43 0 1 1 2.81.56l-2.18 10.95a1.44 1.44 0 0 1 -1.36 1.2zm3.4-22a1.45 1.45 0 0 1 -1.44-1.4 36.45 36.45 0 0 0 -1.91-10.52 1.43 1.43 0 0 1 2.72-.9 39.22 39.22 0 0 1 2 11.36 1.44 1.44 0 0 1 -1.39 1.48zm-7-20.89a1.42 1.42 0 0 1 -1.18-.61 36.92 36.92 0 0 0 -7.36-7.77 1.43 1.43 0 1 1 1.77-2.25 39.67 39.67 0 0 1 7.94 8.37 1.44 1.44 0 0 1 -.35 2 1.4 1.4 0 0 1 -.77.28zm-17.25-13.73a1.38 1.38 0 0 1 -.64-.16l-10-5a1.44 1.44 0 1 1 1.28-2.57l10 5a1.43 1.43 0 0 1 .65 1.92 1.45 1.45 0 0 1 -1.24.83zm-20-9.95a1.5 1.5 0 0 1 -.64-.15l-10-5a1.44 1.44 0 1 1 1.28-2.57l10 5a1.43 1.43 0 0 1 .65 1.92 1.45 1.45 0 0 1 -1.23.86zm-20-10a1.5 1.5 0 0 1 -.64-.15l-10-5a1.44 1.44 0 1 1 1.28-2.57l10 5a1.43 1.43 0 0 1 -.64 2.72zm-19.94-10a1.39 1.39 0 0 1 -.73-.2 39.78 39.78 0 0 1 -9-7.27 1.45 1.45 0 0 1 .09-2 1.43 1.43 0 0 1 2 .09 36.59 36.59 0 0 0 8.48 6.74 1.43 1.43 0 0 1 -.74 2.66zm-14.87-16.21a1.44 1.44 0 0 1 -1.3-.81 40.22 40.22 0 0 1 -3.47-11 1.44 1.44 0 0 1 2.84-.45 36.79 36.79 0 0 0 3.22 10.21 1.44 1.44 0 0 1 -.67 1.91 1.38 1.38 0 0 1 -.55.16zm-3.44-21.73h-.19a1.43 1.43 0 0 1 -1.23-1.61 39.65 39.65 0 0 1 2.87-10.39l.28-.65a1.44 1.44 0 1 1 2.64 1.13l-.28.65a36.78 36.78 0 0 0 -2.67 9.67 1.43 1.43 0 0 1 -1.42 1.2z"/><path d="m601 777.44a1.33 1.33 0 0 1 -.28 0 1.43 1.43 0 0 1 -1.13-1.68l1.12-5.63a1.44 1.44 0 1 1 2.82.56l-1.12 5.63a1.44 1.44 0 0 1 -1.41 1.12z"/></g><path d="m653.39 816.3h-62.65a30.82 30.82 0 0 1 1-7.67 31.35 31.35 0 0 1 16.45-20.39 31.33 31.33 0 0 1 45.25 28.06z" fill="#ffe7e9"/><path d="m628.3 797.77h1.53a25.67 25.67 0 0 1 25.67 25.67 1.2 1.2 0 0 1 -1.2 1.2h-50.47a1.2 1.2 0 0 1 -1.2-1.2 25.67 25.67 0 0 1 25.67-25.67z" fill="#652682"/><path d="m653.39 804.06-26.39 1.94-35.31 2.62a31.37 31.37 0 0 1 16.45-20.39l-45.6-8.53-8.47 37.66a8.32 8.32 0 0 0 8.11 10.14h91.61a6.11 6.11 0 0 0 5.85-6.34v-10.77a6.06 6.06 0 0 0 -6.25-6.33z" fill="#813aab"/><g fill="#652682"><path d="m580.3 811a7.51 7.51 0 1 1 -9.7-9.3 6.29 6.29 0 0 0 -.17.62 7.51 7.51 0 0 0 5.72 8.95 7.37 7.37 0 0 0 4.15-.27z"/><path d="m578.62 816.28a9.42 9.42 0 0 1 -16.37-8.67 9.33 9.33 0 0 1 3.88-5.1 9.42 9.42 0 0 0 12.49 13.77z"/><circle cx="576.4" cy="806.05" r="3.9"/></g><path d="m185.27 573.5 13.94-61.07a30.75 30.75 0 0 1 7.26 2.62 31.33 31.33 0 0 1 -21.2 58.45z" fill="#ffe7e9"/><path d="m194.88 537.49h1.53a25.67 25.67 0 0 1 25.67 25.67 1.2 1.2 0 0 1 -1.2 1.2h-50.47a1.2 1.2 0 0 1 -1.2-1.2 25.67 25.67 0 0 1 25.67-25.67z" fill="#4f1f68" transform="matrix(-.22256955 .97491681 -.97491681 -.22256955 776.29 482.82)"/><path d="m197.19 576.22 4-26.15 5.31-35a31.31 31.31 0 0 1 16.22 20.58l18.47-42.56-34.83-16.64a8.31 8.31 0 0 0 -11.69 5.65l-20.42 89.3a6.11 6.11 0 0 0 4.88 7.12l10.5 2.39a6.06 6.06 0 0 0 7.56-4.69z" fill="#652682"/><g fill="#4f1f68"><path d="m206.68 503.43a7.51 7.51 0 1 1 11.23-7.43l-.57-.31a7.5 7.5 0 0 0 -10 3.59 7.42 7.42 0 0 0 -.66 4.15z"/><path d="m201.92 500.62a9.42 9.42 0 1 1 16.21-9.12 9.41 9.41 0 0 0 -15.51 1.16 9.38 9.38 0 0 0 -.7 7.96z"/><circle cx="212.39" cy="500.73" r="3.9"/></g><path d="m690.52 225.86h19a0 0 0 0 1 0 0v33a18.31 18.31 0 0 1 -18.31 18.31h-19a0 0 0 0 1 0 0v-33a18.31 18.31 0 0 1 18.31-18.31z" fill="#54233a" transform="matrix(.96278615 .27026439 -.27026439 .96278615 93.7 -177.38)"/><rect fill="#ef948c" height="155.88" rx="22.6" transform="matrix(-.76559551 .64332225 -.64332225 -.76559551 1464.36 270.31)" width="45.19" x="660.34" y="324.02"/><path d="m736.5 458a21.83 21.83 0 0 1 -3.42 3.59 22.6 22.6 0 0 1 -31.84-2.76l-71.24-84.7a22.59 22.59 0 0 1 16.34-37.13 22.58 22.58 0 0 0 .66 28.24l71.21 84.76a22.54 22.54 0 0 0 17.31 8.05z" fill="#ea8681"/><rect fill="#ef948c" height="155.88" rx="22.6" transform="matrix(-.76357067 -.64572426 .64572426 -.76357067 1070.28 1196.03)" width="45.19" x="731.51" y="324.13"/><circle cx="647.64" cy="363.24" fill="#ffd9d9" r="38.73"/><path d="m667 391.41-56 105.67-99.9-52.93 22.8-43 33.22-62.68a56.51 56.51 0 0 1 99.88 52.94z" fill="#fff"/><path d="m668.54 305.64-9.95 18.76-3.44 6.49a17.72 17.72 0 1 1 -31.31-16.59l.89-1.68 12.49-23.62a17.21 17.21 0 0 1 23.27-7.14l.9.47a17.21 17.21 0 0 1 7.15 23.31z" fill="#ef948c"/><path d="m668.54 305.64-9.95 18.76a105.59 105.59 0 0 1 -33.86-11.78l12.49-23.62a17.21 17.21 0 0 1 23.27-7.14l.9.47a17.21 17.21 0 0 1 7.15 23.31z" fill="#ea8681"/><path d="m708.06 239.59a21.33 21.33 0 0 1 -.21 2.22c-.1.72-.23 1.44-.38 2.17l-.38 1.87-.38 1.77-.31 1.49-8.68 41.29c-.13.63-.28 1.26-.45 1.88a32.76 32.76 0 0 1 -38.36 23.46l-13.53-2.84a40.5 40.5 0 0 1 -32.09-40.32c0-.3 0-.59 0-.88a41 41 0 0 1 .83-6.63l.58-2.75.06-.28 6.27-29.86.37-1.73.45-2.12.4-2 .27-1.31 1.1-5.2.7-3.35.29-1.36.44-2.1a16.57 16.57 0 0 1 17.88-13.01 14 14 0 0 1 1.79.26l39.66 8.34a28.32 28.32 0 0 1 5.16 1.57 29.84 29.84 0 0 1 16.78 17.49c.29.78.54 1.58.76 2.39a29.13 29.13 0 0 1 1 6.75c.05.9.04 1.84-.02 2.79z" fill="#ef948c"/><circle cx="577.41" cy="348.83" fill="#ffd9d9" r="38.73"/><circle cx="575.5" cy="350.54" fill="#f7bcbc" r="24.86"/><rect fill="#ef948c" height="238.56" rx="22.6" transform="matrix(-.34709934 -.93782837 .93782837 -.34709934 289.37 968.77)" width="45.19" x="459.32" y="264.37"/><rect fill="#ea8681" height="44.4" rx="8.68" transform="matrix(.15574489 -.98779731 .98779731 .15574489 -121.04 716.67)" width="17.37" x="350.09" y="406.95"/><rect fill="#ef948c" height="69" rx="24" transform="matrix(.39922919 -.91685116 .91685116 .39922919 -155.01 589.32)" width="48" x="348.21" y="378.45"/><path d="m593.78 342.26a22.59 22.59 0 0 0 -29-13.36l-175.95 65.1-16.65-7.26a24 24 0 0 0 -32.59 28.85 23.63 23.63 0 0 1 2-10.61 24 24 0 0 1 31.58-12.42l9.06 3.94 7.61 3.31 6-2.21 169.92-62.89a22.61 22.61 0 0 1 29 13.35c.15.42.29.85.42 1.28a22.37 22.37 0 0 0 -1.4-7.08z" fill="#f3a6a0"/><rect fill="#ef948c" height="65.98" rx="8.68" transform="matrix(.39922919 -.91685116 .91685116 .39922919 -174.97 572.21)" width="17.37" x="340.5" y="386.64"/><ellipse cx="374.71" cy="420.31" fill="#f3a6a0" rx="11.68" ry="15.04" transform="matrix(.28250888 -.95926468 .95926468 .28250888 -134.35 660.99)"/><rect fill="#ef948c" height="62.12" rx="21.61" transform="matrix(.19132295 .98152714 -.98152714 .19132295 994.48 -501.45)" width="43.22" x="779.94" y="321.72"/><rect fill="#ef948c" height="59.4" rx="7.82" transform="matrix(.19132295 .98152714 -.98152714 .19132295 989.12 -528.38)" width="15.63" x="807.4" y="306.37"/><rect fill="#ea8681" height="39.97" rx="7.82" transform="matrix(.69440723 .71958224 -.71958224 .69440723 482.07 -471.45)" width="15.63" x="788.29" y="311.87"/><circle cx="790.82" cy="346.35" fill="#ea8681" r="15.4"/><path d="m629.29 212.75h12.18a0 0 0 0 1 0 0v27.25a13.76 13.76 0 0 1 -13.76 13.76h-12.18a0 0 0 0 1 0 0v-27.24a13.76 13.76 0 0 1 13.76-13.77z" fill="#54233a" transform="matrix(.96278615 .27026439 -.27026439 .96278615 86.44 -161.2)"/><path d="m623.74 224.51h9.44a0 0 0 0 1 0 0v18.25a9.84 9.84 0 0 1 -9.84 9.84h-9.44a0 0 0 0 1 0 0v-18.25a9.84 9.84 0 0 1 9.84-9.84z" fill="#662f49" transform="matrix(.96278615 .27026439 -.27026439 .96278615 87.69 -159.66)"/><circle cx="617.42" cy="249.52" fill="#ef948c" r="15.16"/><path d="m610.28 247.2a6.32 6.32 0 0 0 1.4 5.43 6.23 6.23 0 0 1 -.54-4.14 6.32 6.32 0 0 1 7.49-4.88 6.23 6.23 0 0 1 3.49 2.06 6.33 6.33 0 0 0 -11.84 1.53z" fill="#ea8681"/><path d="m711.82 234.67-94.89-17.11a48.21 48.21 0 0 1 94.89 17.11z" fill="#813aab"/><path d="m712.2 219.83a48.23 48.23 0 0 0 -91.05-1.51l-4.22-.75a48.23 48.23 0 0 1 95.27 2.26z" fill="#8942b7"/><rect fill="#652682" height="11.46" rx="5.73" transform="matrix(.98413373 .17742828 -.17742828 .98413373 50.8 -115.64)" width="125.41" x="609.32" y="220.51"/><path d="m617.48 216.4a5.74 5.74 0 0 0 4.63 6.66l-7.17-1.29a5.74 5.74 0 0 1 1-11.38 5.21 5.21 0 0 1 1 .1l7.15 1.29a5.11 5.11 0 0 0 -1-.1 5.74 5.74 0 0 0 -5.61 4.72z" fill="#813aab"/><g fill="#ffb829"><path d="m657 206.56a8.69 8.69 0 1 1 -6.43-14.16 5.22 5.22 0 0 0 -.45.6 8.68 8.68 0 0 0 6.88 13.56z"/><path d="m652.92 211.49a10.9 10.9 0 1 1 -7.52-20.16 10.9 10.9 0 0 0 7.52 20.16z"/><circle cx="654.92" cy="199.54" r="4.52"/></g><g fill="#813aab"><path d="m661.19 393.55a8.69 8.69 0 1 1 -6.43-14.16 6.38 6.38 0 0 0 -.46.6 8.67 8.67 0 0 0 6.89 13.56z"/><path d="m657.13 398.49a10.91 10.91 0 0 1 -13.87-16.34 10.77 10.77 0 0 1 6.35-3.82 10.67 10.67 0 0 0 -3.07 2.6 10.91 10.91 0 0 0 10.59 17.56z"/><circle cx="659.13" cy="386.54" r="4.52"/></g><circle cx="687.75" cy="255.05" fill="#54233a" r="3.59"/><circle cx="659.52" cy="248.65" fill="#54233a" r="3.59"/><rect fill="#f3a6a0" height="51.5" rx="5.27" transform="matrix(.34709934 .93782837 -.93782837 .34709934 679.85 -184.27)" width="10.54" x="467" y="370.37"/><path d="m681.52 267.94a10.93 10.93 0 0 1 -4.79 6.84c-.3.19-.61.36-.92.52a10.86 10.86 0 0 1 -7.31.93l-.43-.1a10.9 10.9 0 0 1 -8.45-12.13c0-.3.1-.6.16-.9a2.12 2.12 0 0 1 2.52-1.6l17.61 3.91a2.12 2.12 0 0 1 1.61 2.53z" fill="#962f4a"/><path d="m668.65 274.54a8.68 8.68 0 0 1 -.53 1.61 10.9 10.9 0 0 1 -8.5-12.15 8.43 8.43 0 0 1 2.44.18 8.67 8.67 0 0 1 6.59 10.36z" fill="#e1617f"/><path d="m679.52 265.33c-.55 2.07-4.14 3-8.1 2.15s-6.82-3.27-6.43-5.38z" fill="#fff"/></svg>