<svg viewBox="0 0 1000 1000" xmlns="http://www.w3.org/2000/svg"><path d="m976 661.19v10.41a132.24 132.24 0 0 1 -9.44 49.19q-1.14 2.84-2.4 5.61-2 4.36-4.27 8.55c-.5.91-1 1.81-1.52 2.7a133 133 0 0 1 -25.46 31.69c-.46.43-.93.85-1.4 1.27l-.14.12-1.61 1.4a131.59 131.59 0 0 1 -24.37 16.59c-2.38 1.26-4.81 2.45-7.27 3.56a128.46 128.46 0 0 1 -15 5.71c-1.21.38-2.43.74-3.65 1.08-2.94.83-5.91 1.56-8.93 2.18a133.15 133.15 0 0 1 -27 2.75h-53.65a27.31 27.31 0 0 0 -27.31 27.32v101.91h-456.76v-101.91a27.24 27.24 0 0 0 -15.17-24.45 23.93 23.93 0 0 0 -2.19-1 27 27 0 0 0 -10-1.89h-90.31c-1.43 0-2.84 0-4.26-.06a137.45 137.45 0 0 1 -23.22-2.69q-4.51-.91-8.91-2.12a136.14 136.14 0 0 1 -23.81-9c-1-.47-1.91-.94-2.86-1.44a137 137 0 0 1 -25-16.59l-.52-.43c-.38-.32-.76-.64-1.13-1l-1.59-1.39c-2.06-1.81-4.06-3.7-6-5.64a138.1 138.1 0 0 1 -20.44-26.05c-2.21-3.64-4.26-7.39-6.12-11.25-.9-1.84-1.76-3.72-2.56-5.61a135.69 135.69 0 0 1 -8.25-26 138.93 138.93 0 0 1 -1.42-48.81c.27-1.89.6-3.76 1-5.62.14-.77.3-1.54.46-2.3.23-1.15.49-2.29.76-3.43q1.06-4.5 2.43-8.9.76-2.46 1.62-4.89a136.31 136.31 0 0 1 13.82-28.38 138.32 138.32 0 0 1 22.52-26.95c2.09-1.94 4.24-3.82 6.45-5.61 1-.82 2-1.61 3-2.38q4.43-3.43 9.16-6.5a136.79 136.79 0 0 1 38.54-17.32q5.91-1.62 12-2.71 4.53-.83 9.16-1.33c3.48-.38 7-.64 10.57-.75 1.54 0 3.09-.08 4.64-.08h106a35.67 35.67 0 0 0 30.87-17.72c.4-.66.77-1.34 1.11-2a36.15 36.15 0 0 0 1.53-3.49 35.64 35.64 0 0 0 2.23-11.3c0-.1 0-.2 0-.3 0-.3 0-.61 0-.92 0-.14 0-.28 0-.41s0-.22 0-.33a35 35 0 0 0 -.93-7.28 32.73 32.73 0 0 0 -1.79-5.61 34.74 34.74 0 0 0 -2.18-4.41 35.76 35.76 0 0 0 -25-17.23c-.3-.05-.59-.1-.89-.13a33.87 33.87 0 0 0 -5-.35h-178.82-2.1a83.19 83.19 0 0 1 -57-24.46c-.93-.93-1.84-1.88-2.72-2.85a83.89 83.89 0 0 1 -15.89-25.4q-1.1-2.76-2-5.61a83.73 83.73 0 0 1 8.73-69.43q1.72-2.79 3.69-5.42 2.13-2.91 4.52-5.61c.31-.36.63-.72 1-1.07.88-1 1.79-1.92 2.72-2.85a83.19 83.19 0 0 1 57-24.46h2.1a69 69 0 0 0 36.44-10.35 69.94 69.94 0 0 0 12-9.42 69.46 69.46 0 0 0 17-26.68c.64-1.83 1.21-3.71 1.69-5.61.41-1.59.77-3.19 1.06-4.82a69.52 69.52 0 0 0 1.11-12.41v-70.6a27.31 27.31 0 0 1 27.31-27.32h636.54a83.43 83.43 0 0 1 67.78 34.69c.82 1.1 1.59 2.23 2.33 3.37.48.74 1 1.48 1.41 2.24a83.7 83.7 0 0 1 5.96 74.8c-.77 1.9-1.62 3.77-2.53 5.61a83.89 83.89 0 0 1 -41.27 39.39 81.56 81.56 0 0 1 -9.2 3.4 83.43 83.43 0 0 1 -24.52 3.66h-68a48.57 48.57 0 0 0 -13.51 1.9c-1.46.43-2.9.92-4.3 1.47a48 48 0 0 0 -5.48 2.56c-1.26.69-2.49 1.44-3.68 2.24a48.92 48.92 0 0 0 -16.51 18.85c-.23.46-.45.92-.66 1.39a45.15 45.15 0 0 0 -2.16 5.61 48.41 48.41 0 0 0 -2.18 14.57 48.54 48.54 0 0 0 21.63 40.42 47.8 47.8 0 0 0 9.16 4.8 48.34 48.34 0 0 0 17.81 3.37c.89 0 1.77 0 2.65.06a62.43 62.43 0 0 1 30.1 9.12c1.08.65 2.13 1.33 3.16 2.05l.63.45a59.47 59.47 0 0 1 5.36 4.28c.49.43 1 .88 1.45 1.33a62.84 62.84 0 0 1 19.66 45.73v43a43.93 43.93 0 0 0 29.39 41.54c.59.21 1.19.4 1.79.58 2.38.71 4.84 1.49 7.37 2.37 5.09 1.73 10.44 3.8 15.91 6.25a156.44 156.44 0 0 1 27.72 15.86c2.34 1.69 4.66 3.47 6.93 5.35l.31.26c3 2.51 6 5.21 8.85 8.08a115.25 115.25 0 0 1 15.22 18.87 112.89 112.89 0 0 1 13.13 28.38q.74 2.4 1.38 4.89c.75 2.88 1.42 5.85 2 8.9q.52 2.82.93 5.73c.26 1.84.49 3.72.66 5.62a149.55 149.55 0 0 1 .8 15.25z" fill="#f0f3f9"/><g fill="#34629b"><path d="m920 163.15h-735.38v-5.61h731.68c.82 1.1 1.59 2.23 2.33 3.37.48.74.95 1.48 1.37 2.24z" opacity=".11"/><path d="m926 238c-.77 1.9-1.62 3.77-2.53 5.61h-742.71c.64-1.83 1.21-3.71 1.69-5.61z" opacity=".11"/><path d="m736.35 318.47a45.15 45.15 0 0 0 -2.16 5.61h-686.19q2.13-2.91 4.52-5.61z" opacity=".11"/><path d="m823.92 404.54h-786.32q-1.1-2.76-2-5.61h781.51a59.47 59.47 0 0 1 5.36 4.28c.53.43.97.88 1.45 1.33z" opacity=".11"/><path d="m843.58 479.4v5.6h-514.58a32.73 32.73 0 0 0 -1.79-5.61z" opacity=".11"/><path d="m933.07 565.47h-838.43c2.09-1.94 4.24-3.82 6.45-5.61h824.74c2.34 1.69 4.66 3.47 6.93 5.35z" opacity=".11"/><path d="m975.23 645.94h-923.16c.27-1.89.6-3.76 1-5.62h921.5c.26 1.84.49 3.68.66 5.62z" opacity=".11"/><path d="m966.55 720.79q-1.14 2.84-2.4 5.61h-899.85c-.9-1.84-1.76-3.72-2.56-5.61z" opacity=".11"/><path d="m870.55 801.25a133.15 133.15 0 0 1 -27 2.75h-53.66a27.12 27.12 0 0 0 -12.19 2.87h-487.05a23.93 23.93 0 0 0 -2.19-1 27 27 0 0 0 -10-1.89h-90.31c-1.43 0-2.84 0-4.26-.06a137.45 137.45 0 0 1 -23.22-2.69z" opacity=".11"/><path d="m305.82 881.72h456.76v5.61h-456.76z" opacity=".11"/></g><rect fill="#6e8ec8" height="17.61" rx="8.8" transform="matrix(-1 0 0 -1 229.45 1884.07)" width="74.06" x="77.7" y="933.23"/><rect fill="#6e8ec8" height="17.61" rx="8.8" transform="matrix(-1 0 0 -1 1127.79 1884.07)" width="809.94" x="158.93" y="933.23"/><path d="m442.85 673.6h280.4v261.11h-280.4z" fill="#547dba"/><path d="m442.85 741.3h299.75v112.24h-299.75z" fill="#34629b"/><path d="m680.65 428.81h7.81a237.8 237.8 0 0 1 237.8 237.8v7a0 0 0 0 1 0 0h-483.41a0 0 0 0 1 0 0v-7a237.8 237.8 0 0 1 237.8-237.8z" fill="#547dba"/><path d="m926.26 666.61v7h-117.26v-7c0-112.49-78.11-206.74-183.06-231.46a237.91 237.91 0 0 1 54.74-6.34h7.81c131.31 0 237.77 106.47 237.77 237.8z" fill="#34629b"/><path d="m442.85 673.6a0 0 0 0 1 0 0v261.1a0 0 0 0 1 0 0h-72.85a13 13 0 0 1 -13-13v-162.29a85.82 85.82 0 0 1 85.82-85.82z" fill="#bbd7ff"/><path d="m385.34 168.59v404a16.36 16.36 0 0 1 -16.34 16.41h-169.13a16.35 16.35 0 0 1 -16.36-16.36v-43.77c1.54 0 3.09-.08 4.64-.08h106a35.67 35.67 0 0 0 30.87-17.72c.4-.66.77-1.34 1.11-2a36.15 36.15 0 0 0 1.53-3.49 35.64 35.64 0 0 0 2.23-11.3v-2a35.73 35.73 0 0 0 -29.89-34.53c-.3-.05-.59-.1-.89-.13a33.87 33.87 0 0 0 -5-.35h-110.6v-288.68a16.35 16.35 0 0 1 16.36-16.36h169.13a16.36 16.36 0 0 1 16.34 16.36z" fill="#6e8ec8"/><path d="m365.49 191.75v357.7a16.37 16.37 0 0 1 -16.36 16.36h-129.41a16.36 16.36 0 0 1 -16.36-16.36v-20.66h90.84a35.67 35.67 0 0 0 30.87-17.72c.4-.66.77-1.34 1.11-2a36.15 36.15 0 0 0 1.53-3.49 35.64 35.64 0 0 0 2.23-11.3v-2a35.73 35.73 0 0 0 -29.89-34.53c-.3-.05-.59-.1-.89-.13a33.87 33.87 0 0 0 -5-.35h-90.8v-265.52a16.36 16.36 0 0 1 16.36-16.36h129.41a16.36 16.36 0 0 1 16.36 16.36z" fill="#e9f1ff"/><path d="m365.49 232.9v316.55a16.37 16.37 0 0 1 -16.36 16.36h-96.94v-37h42a35.67 35.67 0 0 0 30.87-17.72c.4-.66.77-1.34 1.11-2a36.15 36.15 0 0 0 1.53-3.49 35.64 35.64 0 0 0 2.23-11.3v-2a35.73 35.73 0 0 0 -29.89-34.53c-.3-.05-.59-.1-.89-.13a33.87 33.87 0 0 0 -5-.35h-42v-50.89a6 6 0 0 1 6-6h31.2a6 6 0 0 0 6-6v-155.5a6 6 0 0 1 6-6z" fill="#cddcf5"/><g fill="#e9f1ff"><path d="m266.08 421.81h7.52v7.52h-7.52z"/><path d="m266.08 455.45h7.52v1.83h-7.52z"/><path d="m266.08 528.79h7.52v1.46h-7.52z"/><path d="m266.08 556.37h7.52v7.52h-7.52z"/><path d="m299.16 454.72v2.91a33.87 33.87 0 0 0 -5-.35h-2.56v-2.56z"/><path d="m308.84 244.79h7.52v7.52h-7.52z"/><path d="m308.84 291.86h7.52v7.52h-7.52z"/><path d="m308.84 338.92h7.52v7.52h-7.52z"/><path d="m308.84 385.99h7.52v7.52h-7.52z"/><path d="m308.84 433.05h7.52v7.52h-7.52z"/><path d="m308.84 527.18h7.52v7.52h-7.52z"/><path d="m326.18 270.23h7.52v7.52h-7.52z"/><path d="m326.18 317.29h7.52v7.52h-7.52z"/><path d="m326.18 364.36h7.52v7.52h-7.52z"/><path d="m326.18 411.42h7.52v7.52h-7.52z"/><path d="m326.18 458.48h7.52v7.52h-7.52z"/><path d="m333.7 505.55v7.52h-7.52v-4a36.15 36.15 0 0 0 1.53-3.49z"/><path d="m326.18 552.61h7.52v7.52h-7.52z"/><path d="m347.48 244.36h7.52v7.52h-7.52z"/><path d="m347.48 291.42h7.52v7.52h-7.52z"/><path d="m347.48 338.49h7.52v7.52h-7.52z"/><path d="m347.48 385.55h7.52v7.52h-7.52z"/><path d="m347.48 432.61h7.52v7.52h-7.52z"/><path d="m347.48 479.68h7.52v7.52h-7.52z"/><path d="m347.48 526.74h7.52v7.52h-7.52z"/></g><g fill="#6e8ec8"><path d="m329.94 494.25v80.26h-4.87v-63.44c.4-.66.77-1.34 1.11-2a36.15 36.15 0 0 0 1.53-3.49 35.64 35.64 0 0 0 2.23-11.33z"/><path d="m329.94 166.69v325.6a35.44 35.44 0 0 0 -4.87-17.3v-308.3z"/><path d="m234.88 166.69h4.87v290.59h-4.87z"/><path d="m234.88 528.79h4.87v45.72h-4.87z"/><path d="m280.81 103.09h4.87v197.84h-4.87z" transform="matrix(0 1 -1 0 485.26 -81.24)"/><path d="m280.81 271.68h4.87v197.84h-4.87z" transform="matrix(0 1 -1 0 653.85 87.35)"/><path d="m191.05 311.94h186.74v22.06h-186.74z"/></g><path d="m767.05 292c-1.46.43-2.9.92-4.3 1.47a48 48 0 0 0 -5.48 2.56c-1.26.69-2.49 1.44-3.68 2.24a48.35 48.35 0 0 0 -12 11.35h-230.83a8.81 8.81 0 1 1 0-17.62z" fill="#6285b7"/><g fill="#015d76"><path d="m465.09 889 10-181.42a34.58 34.58 0 0 0 -32.53-36.51l-.92-.06a34.58 34.58 0 0 0 -36.51 32.53l-10 181.42a5.27 5.27 0 0 0 4.95 5.56l59.45 3.43a5.27 5.27 0 0 0 5.56-4.95z"/><path d="m416.4 873.13h25.1v51.19h-25.1z" transform="matrix(-.03158521 .99950106 -.99950106 -.03158521 1340.8 498.43)"/><path d="m444.26 673.94h127.54a13.93 13.93 0 0 1 13.93 13.93v11.77a48.26 48.26 0 0 1 -48.26 48.26h-93.2a37 37 0 0 1 -37-37 37 37 0 0 1 37-37z" transform="matrix(.99882313 .04850112 -.04850112 .99882313 35.12 -23.28)"/><path d="m432.25 916.57-50.34 2.76a25.21 25.21 0 1 1 50.34-2.76z"/><path d="m376.81 925.47-.09-7.72a6.33 6.33 0 0 1 5.87-6.39l66.16-4.87a7.92 7.92 0 0 1 8.49 7.81l.16 14.3z"/><path d="m457.36 924.34.05 4.64a5.35 5.35 0 0 1 -5.29 5.41l-71.59.79a8.74 8.74 0 0 1 -8.84-8.65 8.75 8.75 0 0 1 8.65-8.85l20.05-.22a7.52 7.52 0 0 1 7.59 7.43z"/></g><g fill="#f9a0b4"><rect height="139.48" rx="25.27" transform="matrix(.16418685 -.98642926 .98642926 .16418685 -167.58 1003.91)" width="50.54" x="483.31" y="531.1"/><ellipse cx="455.36" cy="592.7" rx="32.22" ry="26.08" transform="matrix(.99945022 -.03315518 .03315518 .99945022 -19.45 15.46)"/><path d="m474.91 569.22a7.24 7.24 0 0 1 3 9.8 7.25 7.25 0 0 1 -9.81 3l-19.92-10.64a7.24 7.24 0 0 1 -3-9.8 7.24 7.24 0 0 1 9.8-3"/></g><circle cx="549.34" cy="408.28" fill="#4f182e" r="22.26"/><path d="m547.41 430.45c-.51 0-1-.1-1.55-.19a22.25 22.25 0 0 1 7-44c.52.08 1 .17 1.52.29a22.26 22.26 0 0 0 -6.93 43.86z" fill="#622f2b"/><path d="m574.4 412.24a22.26 22.26 0 0 1 -25.46 18.51q-.78-.12-1.53-.3a22.26 22.26 0 0 1 6.93-43.86c.52 0 1 .11 1.55.19a22.26 22.26 0 0 1 18.51 25.46z" fill="#512522"/><path d="m621.19 509.94-58.38 10.31-7.16-40.56-3.77-21.41 58.38-10.3 2.81 15.93z" fill="#ffb2bf"/><g fill="#fff2ee"><rect height="33.64" rx="5.1" transform="matrix(.96024498 -.2791587 .2791587 .96024498 -115.57 184.99)" width="64.62" x="559.53" y="481.52"/><path d="m554.59 580.07h112.46v125.44h-112.46z" transform="matrix(1 .05 -.05 1 32.75 -29.6)"/><ellipse cx="598.04" cy="566.91" rx="75.71" ry="73.84" transform="matrix(.04972137 -.99876313 .99876313 .04972137 2.06 1136)"/></g><path d="m598.15 642.62c-1.29 0-2.58 0-3.88-.09-40.73-2-72.06-37.53-70-79.29s36.78-74 77.51-71.95c1.24.06 2.47.16 3.69.28-39 .14-71.61 31.61-73.62 72s27.39 75.13 66.3 79.05z" fill="#fff"/><path d="m664.17 707.78a48.92 48.92 0 0 1 -16.08 34.12 45.74 45.74 0 0 1 -30 11.86h-.51c-.79 0-1.57 0-2.37 0l-90.05-4.38a35.08 35.08 0 0 1 -24.74-12.05 37.31 37.31 0 0 1 -8.56-17.54 37.9 37.9 0 0 1 -.66-8.5c.7-20.65 18.26-36.72 38.22-35.75l136 6.61z" fill="#007391"/><path d="m551.47 733.82-1.19 1.3-13.51 14.79-69 75.53-63.77 69.77a7.66 7.66 0 0 1 -10.81.48l-40.44-37a7.65 7.65 0 0 1 -.49-10.81l24.6-26.88 96.9-106 26-28.43a35 35 0 1 1 51.73 47.27z" fill="#007391"/><path d="m345.79 863.35h32.48v51.71h-32.48z" fill="#ffb2bf" transform="matrix(-.67456012 .73821992 -.73821992 -.67456012 1262.66 1221.77)"/><path d="m364.04 855.3h10.67v51.71h-10.67z" fill="#f9a0b4" transform="matrix(-.67456012 .73821992 -.73821992 -.67456012 1269.03 1202.86)"/><circle cx="623.37" cy="543.15" fill="#f9cabd" r="38.43"/><rect fill="#329da3" height="144.75" rx="28.81" transform="matrix(.99781302 -.06609975 .06609975 .99781302 -37.54 42.83)" width="57.62" x="598.97" y="515.67"/><circle cx="628.73" cy="628.82" fill="#f9cabd" r="32.59"/><g fill="#ffb2bf"><rect height="139.48" rx="25.27" transform="matrix(-.03629488 .99934112 -.99934112 -.03629488 1238.31 69.03)" width="50.54" x="560.6" y="561.84"/><ellipse cx="532.05" cy="630.34" rx="32.22" ry="26.08" transform="matrix(.9869402 -.16108708 .16108708 .9869402 -94.58 93.93)"/><rect height="37.08" rx="7.25" transform="matrix(.1343321 .99093637 -.99093637 .1343321 1084.74 46.68)" width="14.49" x="508.41" y="625.6"/><rect height="37.08" rx="7.25" transform="matrix(.13415914 .9909598 -.9909598 .13415914 1060.81 50.62)" width="14.49" x="494.19" y="613.88"/><rect height="37.08" rx="7.25" transform="matrix(.1343321 .99093637 -.99093637 .1343321 1053.42 27.2)" width="14.49" x="503.9" y="597.94"/><rect height="37.08" rx="7.25" transform="matrix(-.35396459 .93525882 -.93525882 -.35396459 1292.78 321.65)" width="14.49" x="528.06" y="588.78"/></g><rect fill="#fdc3cd" height="54.01" rx="9.06" transform="matrix(-.03629488 .99934112 -.99934112 -.03629488 1252.66 73.21)" width="18.13" x="581.97" y="613.58"/><path d="m613.07 463.91a43.55 43.55 0 0 1 -36.71 18.29l-10.84-.3a26 26 0 0 1 -9.87-2.22l-3.77-21.4 58.38-10.28z" fill="#f9a0b4"/><path d="m559.37 378.23h35.09a23.72 23.72 0 0 1 23.72 23.72v32.48a43.58 43.58 0 0 1 -43.57 43.57h-10.86a26.21 26.21 0 0 1 -26.21-26.21v-51.73a21.83 21.83 0 0 1 21.83-21.83z" fill="#ffb2bf" transform="matrix(.9996246 .02739824 -.02739824 .9996246 11.95 -15.67)"/><path d="m604 380.38a24.4 24.4 0 0 0 -3.55-.35l-35.07-1a21.85 21.85 0 0 0 -22.43 21.23l-1.47 51.74a26.24 26.24 0 0 0 16.59 25.11 26.2 26.2 0 0 1 -21.16-26.44l1.41-51.67a21.85 21.85 0 0 1 22.43-21.22l35.07 1a23.35 23.35 0 0 1 8.18 1.6z" fill="#fdc3cd"/><rect fill="#622f2b" height="74.69" rx="30.67" transform="matrix(.9996246 .02739824 -.02739824 .9996246 13.04 -15.35)" width="62.21" x="535.64" y="431.04"/><rect fill="#622f2b" height="74.69" rx="30.67" transform="matrix(.9996246 .02739824 -.02739824 .9996246 13.04 -15.15)" width="62.21" x="528.27" y="431.04"/><path d="m561.63 505.67c-.94.06-1.89.07-2.84.05h-.87a30.67 30.67 0 0 1 -29.82-31.49l.37-13.35a30.68 30.68 0 0 1 31.53-29.88h.87.7a30.67 30.67 0 0 0 -28.66 29.76l-.36 13.35a30.66 30.66 0 0 0 29.08 31.56z" fill="#774340"/><path d="m602.26 394.08h16.53a7.56 7.56 0 0 1 7.56 7.56v28.22a8.23 8.23 0 0 1 -8.23 8.23h-.06a15.81 15.81 0 0 1 -15.81-15.81v-28.2a0 0 0 0 1 0 0z" fill="#622f2b" transform="matrix(.9996246 .02739824 -.02739824 .9996246 11.63 -16.67)"/><circle cx="615.58" cy="427.43" fill="#ffb2bf" r="13.73"/><rect fill="#622f2b" height="43.59" rx="21.79" transform="matrix(.9996246 .02739824 -.02739824 .9996246 10.83 -15.69)" width="95.1" x="530.63" y="365.5"/><rect fill="#774340" height="26.35" rx="13.18" transform="matrix(.9996246 .02739824 -.02739824 .9996246 10.83 -15.69)" width="57.51" x="549.43" y="374.11"/><path d="m618.09 371.44a21.52 21.52 0 0 0 -6.41-1.15l-51.49-1.41a21.79 21.79 0 0 0 -22.38 21.19v.62a21.76 21.76 0 0 0 7.6 16.52 21.77 21.77 0 0 1 -14.77-20.61c0-.2 0-.42 0-.62a21.8 21.8 0 0 1 22.36-21.18l51.49 1.41a21.7 21.7 0 0 1 13.6 5.23z" fill="#774340"/><path d="m556.39 439.55a9.13 9.13 0 0 0 2.61 6.45c.21.21.43.41.65.6a9.06 9.06 0 0 0 5.77 2.11h.37a9.09 9.09 0 0 0 9.12-8.29c0-.24 0-.5 0-.75a1.74 1.74 0 0 0 -1.75-1.77l-15-.1a1.76 1.76 0 0 0 -1.77 1.75z" fill="#962f4a"/><path d="m565.62 447.31a7.15 7.15 0 0 0 .13 1.4 9.1 9.1 0 0 0 9.12-8.29 7.47 7.47 0 0 0 -2-.3 7.25 7.25 0 0 0 -7.25 7.19z" fill="#e1617f"/><path d="m558.5 437.8c.06 1.79 2.8 3.23 6.19 3.26s6.14-1.39 6.22-3.18z" fill="#fff"/><path d="m568.93 448.17a7.29 7.29 0 0 0 -3.58-.92 7.45 7.45 0 0 0 -3.35.75 9 9 0 0 0 3.44.71h.37a9 9 0 0 0 3.12-.54z" fill="#fff"/><circle cx="578.85" cy="426.54" fill="#592702" r="3.12"/><circle cx="549.42" cy="425.78" fill="#592702" r="3.12"/><path d="m351.8 908.56-39.87-30.86a25.21 25.21 0 1 1 39.87 30.86z" fill="#007391"/><path d="m304.05 879 5-5.89a6.33 6.33 0 0 1 8.62-1l53.21 39.61a7.92 7.92 0 0 1 1.32 11.46l-9.2 10.93z" fill="#fff2ee"/><path d="m365.7 930.86-3 3.52a5.37 5.37 0 0 1 -7.58.63l-54.63-46.22a8.76 8.76 0 0 1 -1-12.33 8.75 8.75 0 0 1 12.33-1l15.3 13a7.5 7.5 0 0 1 .88 10.54z" fill="#007391"/><path d="m620.68 427.65a6.5 6.5 0 0 1 -3.87 6.06 1.86 1.86 0 0 1 -2.55-1.72l-.15-8.45a1.88 1.88 0 0 1 2.66-1.75 6.52 6.52 0 0 1 3.91 5.86z" fill="#f9a0b4"/><g fill="#d7e2ff"><path d="m505.51 666.76h13.07a0 0 0 0 1 0 0v2.5a4.29 4.29 0 0 1 -4.29 4.29h-4.49a4.29 4.29 0 0 1 -4.29-4.29v-2.5a0 0 0 0 1 0 0z" transform="matrix(-.9999166 -.01291508 .01291508 -.9999166 1015.45 1346.83)"/><path d="m518.58 666.93h13.07a0 0 0 0 1 0 0v2.5a4.29 4.29 0 0 1 -4.29 4.29h-4.48a4.29 4.29 0 0 1 -4.29-4.29v-2.5a0 0 0 0 1 -.01 0z" transform="matrix(-.9999166 -.01291508 .01291508 -.9999166 1041.59 1347.34)"/><path d="m531.65 667.1h13.07a0 0 0 0 1 0 0v2.5a4.29 4.29 0 0 1 -4.29 4.29h-4.48a4.29 4.29 0 0 1 -4.29-4.29v-2.5a0 0 0 0 1 0 0z" transform="matrix(-.9999166 -.01291508 .01291508 -.9999166 1067.72 1347.84)"/><path d="m544.72 667.27h13.07a0 0 0 0 1 0 0v2.5a4.29 4.29 0 0 1 -4.29 4.29h-4.5a4.29 4.29 0 0 1 -4.29-4.29v-2.5a0 0 0 0 1 .01 0z" transform="matrix(-.9999166 -.01291508 .01291508 -.9999166 1093.86 1348.34)"/><path d="m557.79 667.43h13.07a0 0 0 0 1 0 0v2.5a4.29 4.29 0 0 1 -4.29 4.29h-4.48a4.29 4.29 0 0 1 -4.29-4.29v-2.5a0 0 0 0 1 0 0z" transform="matrix(-.9999166 -.01291508 .01291508 -.9999166 1119.99 1348.85)"/><path d="m570.86 667.6h13.07a0 0 0 0 1 0 0v2.5a4.29 4.29 0 0 1 -4.29 4.29h-4.48a4.29 4.29 0 0 1 -4.29-4.29v-2.5a0 0 0 0 1 -.01 0z" transform="matrix(-.9999166 -.01291508 .01291508 -.9999166 1146.12 1349.35)"/><path d="m583.93 667.77h13.07a0 0 0 0 1 0 0v2.5a4.29 4.29 0 0 1 -4.29 4.29h-4.48a4.29 4.29 0 0 1 -4.29-4.29v-2.5a0 0 0 0 1 -.01 0z" transform="matrix(-.9999166 -.01291508 .01291508 -.9999166 1172.26 1349.85)"/></g><rect fill="#64617f" height="10.65" rx="5.32" transform="matrix(-.9999166 -.01291508 .01291508 -.9999166 1070.72 1357.98)" width="149.18" x="465.13" y="670.23"/><path d="m506.16 680.45-124.46-1.6a11.38 11.38 0 0 1 -10.93-8.75l-23-96.68a11.4 11.4 0 0 1 11.23-14l109.85 1.41a11.4 11.4 0 0 1 10.93 8.75z" fill="#7d7ba3"/><path d="m347.75 573.42 23 96.68a11.38 11.38 0 0 0 10.93 8.75l124.46 1.6-2.54-10.68-98.34-1.27a11.37 11.37 0 0 1 -10.93-8.75l-23-96.68a11.43 11.43 0 0 1 -.28-3.52l-12.05-.16a11.4 11.4 0 0 0 -11.25 14.03z" fill="#64617f"/><circle cx="419.21" cy="622.94" fill="#d7e2ff" r="6.23"/><path d="m410.75 632.16a12.21 12.21 0 1 0 17.08-16.65 12.22 12.22 0 0 1 -17.08 16.65z" fill="#d7e2ff"/><path d="m575.32 222a18.46 18.46 0 0 1 18.46 18.46v10.07a0 0 0 0 1 0 0 18.46 18.46 0 0 1 -18.46-18.53v-10a0 0 0 0 1 0 0z" fill="#6e8ec8" transform="matrix(.38107038 .92454603 -.92454603 .38107038 580.2 -394.23)"/><path d="m564.36 206.71a18.46 18.46 0 0 1 18.46 18.46v10.07a0 0 0 0 1 0 0 18.46 18.46 0 0 1 -18.46-18.46v-10.07a0 0 0 0 1 0 0z" fill="#6285b7" transform="matrix(.92454603 .38107038 -.38107038 .92454603 127.48 -201.9)"/><path d="m574.48 222a0 0 0 0 1 0 0v10a18.46 18.46 0 0 1 -18.48 18.49 0 0 0 0 1 0 0v-10.07a18.46 18.46 0 0 1 18.48-18.42z" fill="#6e8ec8" transform="matrix(-.38107038 .92454603 -.92454603 -.38107038 999.06 -196.36)"/><path d="m607.17 258.92a33 33 0 1 1 -66.07 0 32 32 0 0 1 .22-3.81 32.56 32.56 0 0 1 .79-4.32h64.06a31 31 0 0 1 .78 4.32 30 30 0 0 1 .22 3.81z" fill="#6e8ec8"/><rect fill="#6285b7" height="8.65" rx="4.32" width="75.73" x="537.04" y="242.14"/><path d="m607 255.11h-65.68a32.56 32.56 0 0 1 .79-4.32h64.06a31 31 0 0 1 .83 4.32z" fill="#4575af"/><path d="m737.64 237.21a14.44 14.44 0 0 1 14.44 14.44v7.87a0 0 0 0 1 0 0 14.44 14.44 0 0 1 -14.44-14.44v-7.87a0 0 0 0 1 0 0z" fill="#6e8ec8" transform="matrix(.38107038 .92454603 -.92454603 .38107038 690.64 -534.94)"/><path d="m729.06 225.27a14.44 14.44 0 0 1 14.44 14.44v7.87a0 0 0 0 1 0 0 14.44 14.44 0 0 1 -14.44-14.44v-7.87a0 0 0 0 1 0 0z" fill="#6285b7" transform="matrix(.92454603 .38107038 -.38107038 .92454603 145.65 -262.73)"/><path d="m737 237.21a0 0 0 0 1 0 0v7.87a14.44 14.44 0 0 1 -14.44 14.44 0 0 0 0 1 0 0v-7.87a14.44 14.44 0 0 1 14.44-14.44z" fill="#6e8ec8" transform="matrix(-.38107038 .92454603 -.92454603 -.38107038 1237.48 -331.7)"/><path d="m762.56 266.11a25.85 25.85 0 1 1 -51.69 0 24.46 24.46 0 0 1 .17-3 23.69 23.69 0 0 1 .62-3.38h50.11a25.82 25.82 0 0 1 .79 6.36z" fill="#6e8ec8"/><rect fill="#6285b7" height="6.76" rx="3.38" width="59.24" x="707.69" y="252.99"/><path d="m762.39 263.13h-51.39a23.69 23.69 0 0 1 .62-3.38h50.11a26.85 26.85 0 0 1 .66 3.38z" fill="#4575af"/><path d="m641.35 170.42h15.65a8.79 8.79 0 0 1 8.79 8.79v112.79a0 0 0 0 1 0 0h-33.23a0 0 0 0 1 0 0v-112.79a8.79 8.79 0 0 1 8.79-8.79z" fill="#6e8ec8"/><circle cx="649.18" cy="231.19" fill="#4575af" r="10.72"/><path d="m649.18 238.93a8 8 0 0 1 -1.18.07 7.83 7.83 0 1 1 0-15.66 6.89 6.89 0 0 1 1.21.1 7.83 7.83 0 0 0 0 15.47z" fill="#6e8ec8"/><path d="m672.36 201.33h11.64a6.55 6.55 0 0 1 6.55 6.55v84.12a0 0 0 0 1 0 0h-24.74a0 0 0 0 1 0 0v-84.12a6.55 6.55 0 0 1 6.55-6.55z" fill="#6285b7"/><circle cx="678.2" cy="246.64" fill="#6e8ec8" r="8"/><path d="m678.2 252.41a5.4 5.4 0 0 1 -.91.08 5.84 5.84 0 1 1 0-11.68 5.41 5.41 0 0 1 .91.07 5.84 5.84 0 0 0 0 11.53z" fill="#e9f1ff"/><path d="m309.19 924.05h-12v-680.56a71.43 71.43 0 0 1 142.85 0v78.26h-12.04v-78.26a59.43 59.43 0 0 0 -118.85 0z" fill="#34629b"/><circle cx="435.37" cy="370.6" fill="#bbd7ff" r="36.86"/><path d="m472.23 370.6a36.87 36.87 0 0 1 -44.12 36.14 36.86 36.86 0 0 0 0-72.28 36.87 36.87 0 0 1 44.12 36.14z" fill="#d4e6fc"/><path d="m512.38 370.6h-156.68c0-54 35.09-97.7 78.34-97.7s78.34 43.74 78.34 97.7z" fill="#547dba"/><path d="m512.38 370.6h-156.68c0-54 35.09-97.7 78.34-97.7s78.34 43.74 78.34 97.7z" fill="#547dba"/><path d="m512.37 370.6h-26.37c0-48.35-28.16-88.5-65.15-96.31a62.83 62.83 0 0 1 13.15-1.39c43.31 0 78.37 43.74 78.37 97.7z" fill="#34629b"/><rect fill="#547dba" height="18.36" rx="9.18" width="157.96" x="224.21" y="914.86"/><path d="m382.17 924.05a9.18 9.18 0 0 1 -9.18 9.18h-26.5a9.19 9.19 0 1 0 0-18.37h26.51a9.19 9.19 0 0 1 9.17 9.19z" fill="#34629b"/><path d="m709.86 673.6a0 0 0 0 1 0 0v261.1a0 0 0 0 1 0 0h-85.86a0 0 0 0 1 0 0v-175.29a85.82 85.82 0 0 1 85.86-85.81z" fill="#bbd7ff"/><path d="m709.86 673.6h216.4a0 0 0 0 1 0 0v247.33a13.78 13.78 0 0 1 -13.78 13.78h-202.62a0 0 0 0 1 0 0v-261.11a0 0 0 0 1 0 0z" fill="#34629b"/><rect fill="#d4e6fc" height="153.12" rx="10.27" width="20.53" x="654.29" y="745.06"/></svg>