<svg viewBox="0 0 1000 1000" xmlns="http://www.w3.org/2000/svg"><path d="m945.55 584.53a137.78 137.78 0 0 1 -32.55 142.9c-2.78 2.79-5.69 5.46-8.7 8q-5.24 4.4-10.87 8.26a135.54 135.54 0 0 1 -17.51 10.2 137.09 137.09 0 0 1 -55.92 13.78c-1.43 0-2.85.06-4.27.06h-90.38a27.06 27.06 0 0 0 -10 1.89c-.66.26-1.31.54-2 .85l-.4.22a27.13 27.13 0 0 0 -15 24.36v101.95h-456.67v-101.95a26 26 0 0 0 -.61-5.68 24.33 24.33 0 0 0 -.87-3.17 26.79 26.79 0 0 0 -5.16-9 27.17 27.17 0 0 0 -20.64-9.47h-53.73q-5.22 0-10.32-.4c-4-.31-8-.8-11.93-1.46l-1-.18q-5.88-1-11.59-2.59t-11.15-3.58c-1.78-.65-3.53-1.35-5.25-2.08a132.62 132.62 0 0 1 -36.67-23.1 135.37 135.37 0 0 1 -9.87-9.74c-.36-.39-.71-.79-1.07-1.19-.18-.2-.36-.4-.51-.59-.42-.46-.8-.91-1.2-1.37-.12-.14-.23-.28-.35-.41-.51-.6-1-1.21-1.51-1.82s-1.11-1.36-1.64-2.05c-.43-.53-.85-1.07-1.25-1.61-.25-.31-.49-.63-.72-.95-.41-.54-.81-1.08-1.2-1.63-.52-.7-1-1.42-1.52-2.14-.35-.49-.69-1-1-1.49-.64-1-1.27-1.92-1.89-2.89-.31-.49-.62-1-.92-1.47-.63-1-1.25-2-1.83-3s-1.26-2.18-1.86-3.28a131.85 131.85 0 0 1 -16.12-63.35v-10.44a137.14 137.14 0 0 1 5.73-40.39 113.22 113.22 0 0 1 13.12-28.38 119.61 119.61 0 0 1 27.25-29.58 142.91 142.91 0 0 1 14.69-10q2.88-1.72 5.75-3.28 4.36-2.34 8.67-4.35 3.82-1.8 7.58-3.34a193.38 193.38 0 0 1 18.3-6.48 43.58 43.58 0 0 0 14.26-7.34 5.54 5.54 0 0 0 .45-.37 44 44 0 0 0 16.53-34.16v-43.25c0-1.11 0-2.21.08-3.3a63.09 63.09 0 0 1 29.58-50.16 62 62 0 0 1 14.45-6.65 62.67 62.67 0 0 1 16.28-2.89q1.33-.06 2.67-.06a49 49 0 0 0 9.05-.84 48.09 48.09 0 0 0 20.28-9c.72-.54 1.41-1.1 2.09-1.67l.86-.74q1.53-1.36 2.94-2.85a47.68 47.68 0 0 0 3.57-4.2 49.07 49.07 0 0 0 5-8.16l.81-1.74c.25-.58.47-1.16.71-1.74.39-1 .76-2.1 1.11-3.17.46-1.53.88-3.1 1.2-4.69a49.68 49.68 0 0 0 1-9.75 48.34 48.34 0 0 0 -6.91-24.94l-.62-1a48.92 48.92 0 0 0 -31.22-21.63 48.69 48.69 0 0 0 -9.88-1h-67.94a83.57 83.57 0 0 1 -63.34-138.23c.53-.63 1.08-1.25 1.65-1.85a83.33 83.33 0 0 1 61.67-27.16h636.6a27.31 27.31 0 0 1 27.31 27.32v70.6a69.32 69.32 0 0 0 69.31 69.29 83.61 83.61 0 0 1 0 167.22h-178.88a35.47 35.47 0 0 0 -5.86.48c-.83.14-1.68.31-2.5.51a35.77 35.77 0 0 0 -27.4 34.76c0 .65 0 1.3.06 1.94a35.43 35.43 0 0 0 1.4 8.22 35.75 35.75 0 0 0 34.3 25.59h106a137.51 137.51 0 0 1 108.79 53.36c2.56 3.31 5 6.73 7.24 10.27a135.82 135.82 0 0 1 13.86 28.39z" fill="#fffaf4"/><path d="m496.78 207.87-3.23-5.45a4.33 4.33 0 0 1 4.29-6.5l21.56 2.87zm116.94-38.2a11.4 11.4 0 0 0 -8.82-6.16 21 21 0 0 0 -12.32 1.9l-34.5 16.18-37.08-14.52c-4.68-1.75-8.37-1.71-11 .17a9.22 9.22 0 0 0 -3.36 7.28 2.23 2.23 0 0 0 1 1.78l25 17.18-66.53 26.73a1.65 1.65 0 0 0 -.07 3 76.21 76.21 0 0 0 41.12 6.32l17.43-2.15 8.8-6 12.89-6.1-3.47 36.33a2.23 2.23 0 0 0 .74 1.89 9.92 9.92 0 0 0 6 2.26 7.18 7.18 0 0 0 1.78-.23c3.11-.81 5.52-3.59 7.18-8.32l15.09-44.7 29.89-14c8.74-4.01 13.28-12.34 10.23-18.84z" fill="#f2dfcc"/><path d="m538.78 218.78-11.33 16.13a3.94 3.94 0 0 1 -6 .58l-9-8.56a76.22 76.22 0 0 0 23.27-6.74l3-1.4z" fill="#f2dfcc"/><path d="m739.84 747.4-26.84 23.29-10.11 8.77-45.53 39.54a241.88 241.88 0 0 1 -158.59 59.25h-257.49v-83.2a26 26 0 0 0 -.61-5.68 24.33 24.33 0 0 0 -.87-3.17 26.79 26.79 0 0 0 -5.16-9 27.17 27.17 0 0 0 -20.64-9.47h-53.73q-5.22 0-10.32-.4c-4-.31-8-.8-11.93-1.46l-1-.18q-5.88-1-11.59-2.59t-11.15-3.58c-1.78-.65-3.53-1.35-5.25-2.08a132.62 132.62 0 0 1 -36.67-23.1l-1.9-1.73h663.86a8.43 8.43 0 0 1 5.52 14.79z" fill="#e8ceb8"/><g fill="#f2dfcc"><path d="m391.22 849.34-101.22 14.51v-93.38l101.22 14.53a32.52 32.52 0 0 1 27.89 32.18 32.52 32.52 0 0 1 -27.89 32.16z"/><path d="m298.36 773.44v88.32a8.88 8.88 0 0 1 -.05.9 8.35 8.35 0 0 1 -15.19 3.82 8.25 8.25 0 0 1 -1.47-4.72v-88.32a8.35 8.35 0 0 1 16.51-1.8 8.21 8.21 0 0 1 .2 1.8z"/><path d="m290 783.79v67.62a8.36 8.36 0 0 1 -6.88 8.23 8 8 0 0 1 -1.47.13 8.36 8.36 0 0 1 -8.36-8.36v-67.62a8.34 8.34 0 0 1 2.45-5.91 7.75 7.75 0 0 1 .74-.66 8.35 8.35 0 0 1 13.52 6.57z"/></g><path d="m523.81 732.61h181.85l33.11-117.05a45.39 45.39 0 0 0 -43.68-57.74h-9.15a45.41 45.41 0 0 0 -35.4 17z" fill="#e8ceb8"/><path d="m287.73 396h266.41a16.87 16.87 0 0 1 16.86 16.84v105.67a0 0 0 0 1 0 0h-283.27a0 0 0 0 1 0 0v-122.51a0 0 0 0 1 0 0z" fill="#f2dfcc"/><path d="m287.73 457.24v61.27h-184.58v-9.58q3.82-1.8 7.58-3.34a193.38 193.38 0 0 1 18.3-6.48 43.58 43.58 0 0 0 14.26-7.34 5.54 5.54 0 0 0 .45-.37 44 44 0 0 0 16.53-34.16z" fill="#f2dfcc"/><path d="m294.76 269-7 8.42h-22.76l-.62-1a48.06 48.06 0 0 0 -5.77-7.4z" fill="#dbb595"/><path d="m317.42 243.66-22.3 25.34h-36.5a48.49 48.49 0 0 0 -35.33-15.24h-11.75l-8.89-10.13a1.37 1.37 0 0 1 1-2.29h112.74a1.38 1.38 0 0 1 1.03 2.32z" fill="#f2dfcc"/><path d="m212.93 237.12h93.21v4.25h-93.21z" fill="#dbb595"/><path d="m219.48 200.07h80.12a6.54 6.54 0 0 1 6.54 6.54 0 0 0 0 1 0 0h-93.21a0 0 0 0 1 0 0 6.54 6.54 0 0 1 6.55-6.54z" fill="#dbb595"/><g fill="#f2dfcc"><path d="m249.75 193.46h19.58v13.15h-19.58z"/><path d="m252.12 102.27a2.37 2.37 0 0 1 2.37 2.37v71.82a0 0 0 0 1 0 0h-4.73a0 0 0 0 1 0 0v-71.82a2.37 2.37 0 0 1 2.37-2.37z"/><path d="m258.36 126.46a1.18 1.18 0 0 1 1.18 1.18v48.81a0 0 0 0 1 0 0h-2.37a0 0 0 0 1 0 0v-48.8a1.18 1.18 0 0 1 1.19-1.19z"/><path d="m246.51 176.46h26.06a2 2 0 0 1 1.87 2.64l-5.11 14.36h-19.58l-5.11-14.36a2 2 0 0 1 1.87-2.64z"/></g><path d="m188.88 206.61h141.32a2.22 2.22 0 0 1 2.13 2.85l-7.65 26.07a2.22 2.22 0 0 1 -2.13 1.59h-126a2.23 2.23 0 0 1 -2.13-1.59l-7.65-26.07a2.22 2.22 0 0 1 2.11-2.85z" fill="#e8ceb8"/><g fill="#fff1e2"><rect height="51.87" rx="2.54" width="44.68" x="301.51" y="415.32"/><rect height="14.62" rx="2.54" width="44.68" x="301.51" y="473.25"/><rect height="51.87" rx="2.54" width="44.68" x="353.72" y="415.32"/><rect height="14.62" rx="2.54" width="44.68" x="353.72" y="473.25"/><rect height="51.87" rx="2.54" width="44.68" x="405.92" y="415.32"/><rect height="14.62" rx="2.54" width="44.68" x="405.92" y="473.25"/><rect height="51.87" rx="2.54" width="44.68" x="458.13" y="415.32"/><rect height="14.62" rx="2.54" width="44.68" x="458.13" y="473.25"/><rect height="51.87" rx="2.54" width="44.68" x="510.33" y="415.32"/><rect height="14.62" rx="2.54" width="44.68" x="510.33" y="473.25"/><path d="m247.65 470.17v14.64h-97.25a44.22 44.22 0 0 0 7.86-14.64z"/><path d="m247.65 491.4v14.65h-136.92v-.46a193.38 193.38 0 0 1 18.3-6.48 43.58 43.58 0 0 0 14.26-7.34 5.54 5.54 0 0 0 .45-.37z"/><path d="m198.88 763.91v3.82h-12.88v-3.82a6.47 6.47 0 0 1 6.46-6.47 6.49 6.49 0 0 1 6.47 6.47z"/><path d="m174.42 763.91v3.82h-12.94v-3.82a6.47 6.47 0 0 1 12.94 0z"/><path d="m150 763.91v3.42c-4-.31-8-.8-11.93-1.46l-1-.18v-1.78a6.47 6.47 0 0 1 6.47-6.47 6.5 6.5 0 0 1 6.47 6.47z"/><path d="m125.42 763.1q-5.67-1.54-11.15-3.58a6.46 6.46 0 0 1 11.15 3.58z"/></g><path d="m287.73 277.45v241.06h-35.11v-177.39c.72-.54 1.41-1.1 2.09-1.67l.86-.74q1.53-1.36 2.94-2.85a47.68 47.68 0 0 0 3.57-4.2 49.07 49.07 0 0 0 5-8.16l.81-1.74c.25-.58.47-1.16.71-1.74.39-1 .76-2.1 1.11-3.17.46-1.53.88-3.1 1.2-4.69a49.68 49.68 0 0 0 1-9.75 48.34 48.34 0 0 0 -6.91-24.96z" fill="#e8ceb8"/><path d="m252.62 341.12v177.39h-20.28v-168.37a48.09 48.09 0 0 0 20.28-9.02z" fill="#e2c5af"/><g fill="#f2dfcc"><rect height="21.1" rx="3.88" width="19.18" x="300.24" y="211.37"/><rect height="21.1" rx="3.88" width="19.18" x="275.38" y="211.37"/><rect height="21.1" rx="3.88" width="19.18" x="250.53" y="211.37"/><rect height="21.1" rx="3.88" width="19.18" x="225.67" y="211.37"/><rect height="21.1" rx="3.88" width="19.18" x="200.81" y="211.37"/><path d="m269.71 316.83v2.23a2.87 2.87 0 0 1 -1.82 2.68c.25-.58.47-1.16.71-1.74.4-1 .76-2.1 1.11-3.17z"/><rect height="34.56" rx="2.89" width="11.21" x="273.57" y="287.38"/><path d="m269.71 334.55v28.79a2.89 2.89 0 0 1 -2.88 2.89h-5.43a2.89 2.89 0 0 1 -2.89-2.89v-27.48a47.68 47.68 0 0 0 3.57-4.2h4.75a2.89 2.89 0 0 1 2.88 2.89z"/><rect height="34.56" rx="2.89" width="11.21" x="273.57" y="331.66"/><rect height="34.56" rx="2.89" width="11.21" x="258.5" y="375.94"/><rect height="34.56" rx="2.89" width="11.21" x="273.57" y="375.94"/><rect height="34.56" rx="2.89" width="11.21" x="258.5" y="420.22"/><rect height="34.56" rx="2.89" width="11.21" x="273.57" y="420.22"/><rect height="34.56" rx="2.89" width="11.21" x="258.5" y="464.5"/><rect height="34.56" rx="2.89" width="11.21" x="273.57" y="464.5"/></g><g fill="#fff"><path d="m819.23 113.9v45.16l-426.01 737.94h-95.22l467.89-810.42h26a27.31 27.31 0 0 1 27.34 27.32z" opacity=".51"/><path d="m841 234.88-107.49 186.12-39.28 68-235.51 408h-31.63l248.27-430 25.94-45 122.62-212.4a69.18 69.18 0 0 0 17.08 25.28z" opacity=".51"/><path d="m496.34 86.58-387.34 670.86a132.62 132.62 0 0 1 -36.67-23.1 135.37 135.37 0 0 1 -9.87-9.74c-.36-.39-.71-.79-1.07-1.19-.18-.2-.36-.4-.51-.59-.42-.46-.8-.91-1.2-1.37-.12-.14-.23-.28-.35-.41-.51-.6-1-1.21-1.51-1.82s-1.11-1.36-1.64-2.05c-.43-.53-.85-1.07-1.25-1.61-.25-.31-.49-.63-.72-.95-.41-.54-.81-1.08-1.2-1.63-.52-.7-1-1.42-1.52-2.14-.35-.49-.69-1-1-1.49-.64-1-1.27-1.92-1.89-2.89-.31-.49-.62-1-.92-1.47-.63-1-1.25-2-1.83-3l209.72-363.28q1.53-1.36 2.94-2.85a47.68 47.68 0 0 0 3.57-4.2 49.07 49.07 0 0 0 5-8.16l.81-1.74c.25-.58.47-1.16.71-1.74.39-1 .76-2.1 1.11-3.17.46-1.53.88-3.1 1.2-4.69l130.23-225.58z" opacity=".51"/><path d="m561.84 86.58-393.26 681.15h-8.31a133.53 133.53 0 0 1 -22.27-1.86l392.21-679.29z" opacity=".51"/></g><path d="m308.12 86.58h28.96v810.38h-28.96z" fill="#dbb595"/><path d="m612.02 86.58h28.96v810.38h-28.96z" fill="#dbb595"/><rect fill="#a66633" height="17.61" rx="8.8" width="74.06" x="880.75" y="896.96"/><rect fill="#a66633" height="17.61" rx="8.8" width="809.94" x="63.64" y="896.96"/><path d="m713.43 770.47a27.36 27.36 0 0 0 -14.81 18.9h-457.95a27.33 27.33 0 0 0 -14.77-18.9z" fill="#dbb595"/><path d="m725.77 642.77h143.09a14.57 14.57 0 0 1 14.57 14.57v209.25a8.21 8.21 0 0 1 -8.21 8.21h-155.81a8.21 8.21 0 0 1 -8.21-8.21v-209.25a14.57 14.57 0 0 1 14.57-14.57z" fill="#547dba"/><path d="m735.94 746h122.75a7.57 7.57 0 0 1 7.57 7.57v87.37a19.35 19.35 0 0 1 -19.35 19.35h-99.19a19.35 19.35 0 0 1 -19.35-19.35v-87.38a7.57 7.57 0 0 1 7.57-7.56z" fill="#34629b"/><rect fill="#34629b" height="63.15" rx="13.03" width="137.89" x="728.37" y="670.08"/><path d="m883.43 854.25v-90.68a13.63 13.63 0 0 1 13.63 13.63v63.42a13.63 13.63 0 0 1 -13.63 13.63z" fill="#547dba"/><path d="m711.2 854.25v-90.68a13.63 13.63 0 0 0 -13.63 13.63v63.42a13.63 13.63 0 0 0 13.63 13.63z" fill="#547dba"/><path d="m740 880.36h25.28a0 0 0 0 1 0 0v8.55a8 8 0 0 1 -8 8h-9.28a8 8 0 0 1 -8-8v-8.55a0 0 0 0 1 0 0z" fill="#34629b"/><path d="m837.36 880.36h9.32a8 8 0 0 1 8 8v8.55a0 0 0 0 1 0 0h-25.3a0 0 0 0 1 0 0v-8.55a8 8 0 0 1 7.98-8z" fill="#34629b" transform="matrix(-1 0 0 -1 1684.04 1777.26)"/><path d="m735.94 739.33h122.75a7.57 7.57 0 0 1 7.57 7.57v87.37a19.35 19.35 0 0 1 -19.35 19.35h-99.19a19.35 19.35 0 0 1 -19.35-19.35v-87.37a7.57 7.57 0 0 1 7.57-7.57z" fill="#cddcf5"/><rect fill="#cddcf5" height="63.15" rx="13.03" width="137.89" x="728.37" y="663.42"/><path d="m741.98 753.62h110.67v2.62h-110.67z" fill="#547dba"/><path d="m745 770h-2.26a3 3 0 0 1 -2.92-3.44l2.18-12.94h3.84l2.16 12.94a3 3 0 0 1 -3 3.44z" fill="#34629b"/><path d="m741.98 675.37h110.67v2.62h-110.67z" fill="#547dba"/><g fill="#34629b"><path d="m745 691.74h-2.26a3 3 0 0 1 -2.92-3.43l2.18-12.94h3.84l2.16 12.94a3 3 0 0 1 -3 3.43z"/><path d="m854.82 642.78h-115a16.9 16.9 0 0 1 16.92-16.95h81.14a16.88 16.88 0 0 1 16 11.35 16.24 16.24 0 0 1 .94 5.6z"/><path d="m756.75 553.38h6.03v72.45h-6.03z"/><path d="m831.85 553.38h6.03v72.45h-6.03z" transform="matrix(-1 0 0 -1 1669.74 1179.21)"/><path d="m755.75 539.47h83.13a7.76 7.76 0 0 1 7.76 7.76v6.69a0 0 0 0 1 0 0h-98.64a0 0 0 0 1 0 0v-6.69a7.76 7.76 0 0 1 7.75-7.76z"/><path d="m860.69 880.36h-126.75a5.57 5.57 0 0 1 -5.57-5.56h137.89a5.56 5.56 0 0 1 -5.57 5.56z"/><path d="m854.82 642.78h-115a16.71 16.71 0 0 1 .94-5.6h113.09a16.24 16.24 0 0 1 .97 5.6z"/></g><path d="m829.38 880.36h25.28v4.59h-25.28z" fill="#265587"/><path d="m739.97 880.36h25.28v4.59h-25.28z" fill="#265587"/><path d="m241.28 816.8h456.76v18.87h-456.76z" fill="#dbb595"/><path d="m436.05 714.58 129.51 166.11a9.54 9.54 0 0 1 -14.27 12.62l-149-148.89a22.57 22.57 0 1 1 31.91-31.92 25.59 25.59 0 0 1 1.85 2.08z" fill="#315284"/><path d="m264.48 788.53-112.84 104.88a9.56 9.56 0 0 1 -14.1-12.82l93.6-122.36a22.61 22.61 0 0 1 35.91 27.47 24 24 0 0 1 -2.57 2.83z" fill="#315284"/><g fill="#39838e"><path d="m256.92 698a46.58 46.58 0 0 0 21 27.82 39.85 39.85 0 0 0 28.5 4.94 3.43 3.43 0 0 0 .44-.09c.68-.14 1.36-.31 2-.5l207.21-60.12a30.56 30.56 0 0 0 19-15.71 35.22 35.22 0 0 0 3.8-17.56 36.29 36.29 0 0 0 -1.18-7.84c-4.86-18.58-23.42-29.75-40.55-25l-246.6 71.06z"/><path d="m613.82 882.88-.04.03-.02-.03z"/><path d="m667.08 860.73v22.15h-59.21v-10.17l-12.26-21.12 39.78-23.07 12 20.71a22.63 22.63 0 0 0 16.46 11.06z"/><path d="m613.14 821.17h9.49v45.97h-9.49z" transform="matrix(.50166173 .86506388 -.86506388 .50166173 1038.19 -113.82)"/><path d="m641.15 880.76 44.8 1.53a22.41 22.41 0 1 0 -44.8-1.53z"/><path d="m690.59 887.66-.06-6.87a5.64 5.64 0 0 0 -5.34-5.57l-81.46-3.12a7 7 0 0 0 -7.41 7.09l.12 12.72z"/><path d="m596.4 888.12v4.11a4.79 4.79 0 0 0 4.83 4.73l86.19-.6a7.78 7.78 0 0 0 7.7-7.85 7.78 7.78 0 0 0 -7.85-7.71l-17.82.17a6.67 6.67 0 0 0 -6.61 6.74z"/><path d="m645.6 825.49-52.28 31a6.57 6.57 0 0 1 -9-2.3l-115.22-194a37.88 37.88 0 0 1 14.26-52.5 37.88 37.88 0 0 1 51 14.08l113.57 194.76a6.56 6.56 0 0 1 -2.33 8.96z"/></g><circle cx="255.89" cy="532.99" fill="#339fa1" r="34.47"/><path d="m367.89 546.75a28.64 28.64 0 0 1 -.71 4 29.36 29.36 0 0 1 -31.6 22.13l-77.5-8.26a29.37 29.37 0 1 1 6.23-58.41l77.49 8.25a29.38 29.38 0 0 1 26.09 32.29z" fill="#e6ffff"/><path d="m367.18 550.72a29.36 29.36 0 0 1 -31.6 22.13l-77.5-8.26a29.35 29.35 0 0 1 -22.49-14.83 34.22 34.22 0 0 0 17.56 6.24l53.22 4 12.18.91c.78.07 1.53.09 2.3.11s1.62.33 2.45.45a47.07 47.07 0 0 0 29.95-5.47 46.12 46.12 0 0 0 13.93-5.28z" fill="#e9fffe"/><g fill="#f5b5a9"><rect height="35.01" rx="17.51" transform="matrix(.76660509 -.64211887 .64211887 .76660509 -194.81 390.76)" width="53.56" x="413.34" y="445.84"/><rect height="27.72" rx="13.86" transform="matrix(.13882742 -.99031659 .99031659 .13882742 -110.24 763.14)" width="53.56" x="356.89" y="431.1"/><rect height="49" rx="24.5" transform="matrix(.76660509 -.64211887 .64211887 .76660509 -185.68 375)" width="68.38" x="388.8" y="418.41"/><rect height="163.43" rx="36.56" transform="matrix(-.76413388 -.64505768 .64505768 -.76413388 347.3 1127.34)" width="73.13" x="343.17" y="418.46"/><rect height="35.01" rx="17.51" transform="matrix(.76660509 -.64211887 .64211887 .76660509 -194.81 390.76)" width="53.56" x="413.34" y="445.84"/></g><path d="m327 562.63a36.49 36.49 0 0 1 -11.63-18.07 36.62 36.62 0 0 0 60.54 7l54.8-64.91 3.46-4.1a34.83 34.83 0 0 0 2.76-3.73 16.77 16.77 0 0 0 4.69-2.8l2.91-2.44 11.3-9.47a17.26 17.26 0 0 0 5.21-7.39 17.64 17.64 0 0 0 .84-8.85 17.51 17.51 0 0 1 -3.44 22.94l-14.22 11.91a18.16 18.16 0 0 1 -4.71 2.83 38.26 38.26 0 0 1 -2.74 3.69l-58.24 69a36.57 36.57 0 0 1 -51.53 4.39z" fill="#f8cdc5"/><path d="m211.35 430.93h38.72v45.16h-38.72z" fill="#f5b5a9" transform="matrix(.99114616 -.13277537 .13277537 .99114616 -58.16 34.64)"/><ellipse cx="264.96" cy="377.65" fill="#16194f" rx="11.85" ry="23.79" transform="matrix(.99114616 -.13277537 .13277537 .99114616 -47.79 38.52)"/><path d="m208.53 433.7 1.79 13.39a54.87 54.87 0 0 0 32 15.29 53.49 53.49 0 0 0 9.15.29l-4.57-34.11z" fill="#f29495"/><path d="m181.48 386.58 4.57 23.56a54.9 54.9 0 0 0 64.36 43.42 33 33 0 0 0 26.1-38.71l-6.51-33.47-1.11-5.66-.4-2.08-1.19-6.17a27.5 27.5 0 0 0 -32.25-21.74l-5.84 1.14-24.13 4.68a29.89 29.89 0 0 0 -23.62 35z" fill="#f5b5a9"/><path d="m189 386.77c8 14.63 34.83 15.37 59.89 1.64a82.61 82.61 0 0 0 19.6-14.77l-1.19-6.17a27.5 27.5 0 0 0 -32.25-21.74l-5.84 1.14-24.13 4.68a29.85 29.85 0 0 0 -8.88 3.24c-8.86 11.11-12.05 23.09-7.2 31.98z" fill="#f29495"/><circle cx="230.69" cy="401.92" fill="#252849" r="3.8"/><circle cx="257.31" cy="398.35" fill="#252849" r="3.8"/><path d="m249.39 416.85a8.46 8.46 0 0 1 -2.13 6.15c-.18.21-.38.4-.57.59a8.48 8.48 0 0 1 -5.29 2.26h-.35a8.49 8.49 0 0 1 -8.92-7.29c0-.23-.06-.47-.08-.7a1.7 1.7 0 0 1 .42-1.2 1.67 1.67 0 0 1 1.13-.55l14.05-.83a1.65 1.65 0 0 1 1.74 1.57z" fill="#962f4a"/><path d="m241.15 424.55a6.43 6.43 0 0 1 -.05 1.32 8.5 8.5 0 0 1 -8.92-7.29 6.69 6.69 0 0 1 1.86-.38 6.77 6.77 0 0 1 7.11 6.35z" fill="#e1617f"/><path d="m247.33 415.32c0 1.67-2.46 3.16-5.62 3.34s-5.8-1-6-2.65z" fill="#fff"/><path d="m200.9 378.51h2a0 0 0 0 1 0 0v45.9a0 0 0 0 1 0 0h-23.14a0 0 0 0 1 0 0v-24.75a21.15 21.15 0 0 1 21.14-21.15z" fill="#212263" transform="matrix(-.99114616 .13277537 -.13277537 -.99114616 434.26 773.97)"/><circle cx="190.61" cy="414.1" fill="#f5b5a9" r="13.96"/><path d="m186.23 413.09a6 6 0 0 0 3.69 5.55 1.73 1.73 0 0 0 2.34-1.64v-7.84a1.75 1.75 0 0 0 -2.5-1.57 6 6 0 0 0 -3.53 5.5z" fill="#f29495"/><circle cx="186.59" cy="366.76" fill="#212263" r="25.2"/><path d="m161.61 370.11a25.13 25.13 0 0 0 11.27 17.78 25.19 25.19 0 0 1 30.56-39.89 25.2 25.2 0 0 0 -41.83 22.09z" fill="#16194f"/><ellipse cx="229.08" cy="351.11" fill="#212263" rx="55.1" ry="31.6" transform="matrix(.90879968 -.41723271 .41723271 .90879968 -125.6 127.59)"/><ellipse cx="229.08" cy="351.11" fill="#2f3384" rx="33.77" ry="19.37" transform="matrix(.90879968 -.41723271 .41723271 .90879968 -125.6 127.59)"/><path d="m270.42 359.46c4.85-8.23 6.21-16.56 3-23.5-7.28-15.85-35.61-18.43-63.27-5.72-11.7 5.36-21.4 12.6-28.15 20.37 6.25-10.61 18.3-21.08 33.87-28.22 27.65-12.71 56-10.13 63.26 5.72 4.23 9.16.51 20.75-8.71 31.35z" fill="#2f3384"/><path d="m229.44 468.35h28.56a63.79 63.79 0 0 1 63.79 63.79v143.3a0 0 0 0 1 0 0h-108.86a0 0 0 0 1 0 0v-190.58a16.51 16.51 0 0 1 16.51-16.51z" fill="#fff" transform="matrix(.97444853 -.22461092 .22461092 .97444853 -121.63 74.67)"/><rect fill="#fff" height="27.45" rx="13.72" transform="matrix(.99114616 -.13277537 .13277537 .99114616 -60.95 35.39)" width="85.5" x="192.22" y="461.1"/><path d="m521.16 660.64a31 31 0 0 1 -10.7 13.1 24.87 24.87 0 0 1 -3.22 1.89 26.06 26.06 0 0 1 -4.76 1.84l-33 9.62-174.13 50.78c-.68.18-1.36.35-2 .49l-.45.09c-9.94 2-20.12-.48-28.87-6.31-10-6.65-18.19-17.69-22-31.37l-7.11-25.66 46.87-13.55 3.57-1 181.34-52.45 14.77-4.28a27.11 27.11 0 0 1 6.33-1c8.45-.29 16.91 3.33 23.58 9.72a42.86 42.86 0 0 1 11.68 20.09 45.08 45.08 0 0 1 1.42 8.7 40.67 40.67 0 0 1 -3.32 19.3z" fill="#339fa1"/><path d="m598.1 882.72-.04.03-.02-.03z" fill="#ffb2bf"/><path d="m651.36 860.57v22.15h-59.21v-10.17l-12.26-21.12 39.78-23.08 12 20.72a22.59 22.59 0 0 0 16.46 11z" fill="#ffb2bf"/><path d="m597.42 821.01h9.49v45.97h-9.49z" fill="#f9a0b4" transform="matrix(.50166173 .86506388 -.86506388 .50166173 1030.22 -100.3)"/><path d="m625.43 880.6 44.8 1.53a22.41 22.41 0 1 0 -44.8-1.53z" fill="#339fa1"/><path d="m674.87 887.5-.06-6.87a5.64 5.64 0 0 0 -5.34-5.57l-81.47-3.12a7 7 0 0 0 -7.4 7.06l.12 12.72z" fill="#fdbf48"/><g fill="#339fa1"><path d="m580.68 888v4.11a4.79 4.79 0 0 0 4.83 4.73l86.19-.6a7.78 7.78 0 0 0 7.7-7.85 7.78 7.78 0 0 0 -7.85-7.71l-17.82.17a6.67 6.67 0 0 0 -6.61 6.74z"/><path d="m629.88 825.33-22.07 13.07-3.2 1.9-27 16a6.56 6.56 0 0 1 -9-2.31l-115.13-193.83-.09-.15c-.62-1.06-1.19-2.12-1.7-3.2a37.88 37.88 0 0 1 67-35.22l113.52 194.78a6.57 6.57 0 0 1 -2.33 8.96z"/><circle cx="247.64" cy="517.71" r="34.47"/></g><path d="m293.88 620.64a28.76 28.76 0 0 1 -3.75 1.46 29.37 29.37 0 0 1 -35.31-15.58l-33.07-70.52a29.37 29.37 0 0 1 14.13-39.06 29.06 29.06 0 0 1 10.12-2.73 29.38 29.38 0 0 1 29 16.82l33 70.56a29.36 29.36 0 0 1 -14.12 39.05z" fill="#e6ffff"/><path d="m290.13 622.1a29.37 29.37 0 0 1 -35.31-15.58l-33.07-70.52a29.36 29.36 0 0 1 1-26.93 34.17 34.17 0 0 0 3.75 18.26l24.17 47.59 5.53 10.89c.34.7.71 1.35 1.09 2s.56 1.55.88 2.33a47.19 47.19 0 0 0 20.17 22.78 46.58 46.58 0 0 0 11.79 9.18z" fill="#86bfbe"/><circle cx="291.27" cy="597.57" fill="#339fa1" r="41.97"/><g fill="#f5b5a9"><rect height="35.01" rx="17.51" transform="matrix(.98357147 -.18051915 .18051915 .98357147 -98.04 82.41)" width="53.56" x="377" y="562.35"/><rect height="27.72" rx="13.86" transform="matrix(.60917674 -.79303448 .79303448 .60917674 -282.91 497.93)" width="53.56" x="336.97" y="522.15"/><rect height="49" rx="24.5" transform="matrix(.98357147 -.18051915 .18051915 .98357147 -93.38 81.11)" width="68.38" x="364.78" y="529.13"/><rect height="163.43" rx="36.56" transform="matrix(-.34660825 -.93800998 .93800998 -.34660825 -97.47 1096.33)" width="73.13" x="296.53" y="500.4"/><rect height="35.01" rx="17.51" transform="matrix(.98357147 -.18051915 .18051915 .98357147 -98.04 82.41)" width="53.56" x="377" y="562.35"/></g><path d="m256.44 610.44a36.42 36.42 0 0 1 -1.21-21.44 36.62 36.62 0 0 0 49.21 36l79.68-29.44 5-1.86a35.89 35.89 0 0 0 4.24-1.88 17.09 17.09 0 0 0 5.47-.13l3.72-.69 14.5-2.66a17.28 17.28 0 0 0 8.18-3.86 17.67 17.67 0 0 0 5.1-7.28 17.49 17.49 0 0 1 -14.3 18.25l-18.25 3.35a18.14 18.14 0 0 1 -5.49.15 39.73 39.73 0 0 1 -4.21 1.85l-84.7 31.31a36.56 36.56 0 0 1 -46.94-21.67z" fill="#f8cdc5"/><path d="m607.81 838.4-3.2 1.9-93.78-159.4a47.61 47.61 0 0 0 -54.33-21.61l-3 .87-121.5 35.12a39 39 0 0 1 -48-26.28l-2.19-7.41 3.57-1 2.18 7.39a35.23 35.23 0 0 0 43.44 23.73l120.68-34.9 3.78-1.09a51.48 51.48 0 0 1 58.54 23.28z" fill="#e6ffff"/><path d="m253.83 793.46a21 21 0 0 1 -26.93-18.54c-9.32-127.1-110.37-220.58-111.39-221.51a21 21 0 0 1 28.18-31c4.39 4 101.53 93.43 122.05 223.75l223.44-67a21 21 0 1 1 12 40.15z" fill="#3a62a0"/><g fill="#cddcf5"><path d="m497.34 604.47 14.14-3.35 11.16-146.46-8.12 1.92a8.51 8.51 0 0 0 -6.5 7.61z"/><path d="m484.92 588.44h16a0 0 0 0 1 0 0v3.56a4.4 4.4 0 0 1 -4.4 4.4h-7.22a4.4 4.4 0 0 1 -4.4-4.4v-3.61a0 0 0 0 1 .02.05z" transform="matrix(-.97301803 .23072909 -.23072909 -.97301803 1109.27 1055.13)"/><path d="m469.34 592.13h16a0 0 0 0 1 0 0v3.61a4.4 4.4 0 0 1 -4.4 4.4h-7.22a4.4 4.4 0 0 1 -4.4-4.4v-3.61a0 0 0 0 1 .02 0z" transform="matrix(-.97301803 .23072909 -.23072909 -.97301803 1079.39 1066.01)"/><path d="m453.76 595.83h16a0 0 0 0 1 0 0v3.61a4.4 4.4 0 0 1 -4.4 4.4h-7.22a4.4 4.4 0 0 1 -4.4-4.4v-3.61a0 0 0 0 1 .02 0z" transform="matrix(-.97301803 .23072909 -.23072909 -.97301803 1049.5 1076.9)"/><path d="m438.18 599.52h16a0 0 0 0 1 0 0v3.61a4.4 4.4 0 0 1 -4.4 4.4h-7.22a4.4 4.4 0 0 1 -4.4-4.4v-3.61a0 0 0 0 1 .02 0z" transform="matrix(-.97301803 .23072909 -.23072909 -.97301803 1019.61 1087.79)"/><path d="m422.6 603.22h16a0 0 0 0 1 0 0v3.61a4.4 4.4 0 0 1 -4.4 4.4h-7.2a4.4 4.4 0 0 1 -4.4-4.4v-3.61a0 0 0 0 1 0 0z" transform="matrix(-.97301803 .23072909 -.23072909 -.97301803 989.72 1098.67)"/><path d="m407 606.92h16a0 0 0 0 1 0 0v3.61a4.4 4.4 0 0 1 -4.4 4.4h-7.22a4.4 4.4 0 0 1 -4.4-4.4v-3.61a0 0 0 0 1 .02 0z" transform="matrix(-.97301803 .23072909 -.23072909 -.97301803 959.84 1109.56)"/><path d="m391.44 610.61h16a0 0 0 0 1 0 0v3.61a4.4 4.4 0 0 1 -4.4 4.4h-7.22a4.4 4.4 0 0 1 -4.4-4.4v-3.61a0 0 0 0 1 .02 0z" transform="matrix(-.97301803 .23072909 -.23072909 -.97301803 929.95 1120.45)"/><path d="m375.86 614.31h16a0 0 0 0 1 0 0v3.61a4.4 4.4 0 0 1 -4.4 4.4h-7.22a4.4 4.4 0 0 1 -4.4-4.4v-3.61a0 0 0 0 1 .02 0z" transform="matrix(-.97301803 .23072909 -.23072909 -.97301803 900.06 1131.34)"/></g><path d="m367.6 621.29 133-31.53a3.1 3.1 0 0 0 2.37-2.79l9.6-134.12a6.93 6.93 0 1 1 13.83 1l-10.27 142.87a4.6 4.6 0 0 1 -3.52 4.13l-142.16 33.72a6.79 6.79 0 0 1 -8.3-5.69 7 7 0 0 1 5.45-7.59z" fill="#315284"/><path d="m443.84 724.1a9.51 9.51 0 0 1 -8.94-6.26l-17.55-48a44.09 44.09 0 0 0 -53.72-27.1l-178.63 57.4a9.53 9.53 0 0 1 -5.85-18.14l178.85-57.47a63.23 63.23 0 0 1 77.21 38.77l17.55 48a9.53 9.53 0 0 1 -9 12.8z" fill="#3a62a0"/></svg>