<svg viewBox="0 0 1000 1000" xmlns="http://www.w3.org/2000/svg"><path d="m932.71 624.75v10.41a132.93 132.93 0 0 1 -.77 14.33 131.54 131.54 0 0 1 -10.05 38.18c-1.6 3.71-3.37 7.32-5.28 10.84a132.74 132.74 0 0 1 -61.78 57.33q-1.94.88-3.93 1.71c-3.59 1.49-7.28 2.83-11 4a132.84 132.84 0 0 1 -39.55 6h-53.73a27.32 27.32 0 0 0 -27.31 27.32v101.92h-397.12a59.64 59.64 0 0 1 -59.64-59.64v-42.27a27.3 27.3 0 0 0 -13.85-23.75 25.67 25.67 0 0 0 -3.51-1.68c-.77-.3-1.56-.57-2.36-.81a27.18 27.18 0 0 0 -3-.68 25.89 25.89 0 0 0 -4.6-.4h-30.36c-1.42 0-2.83 0-4.26-.06a137.11 137.11 0 0 1 -55.93-13.78q-6-2.93-11.67-6.4a137.15 137.15 0 0 1 -16.71-12.06q-4.55-3.81-8.72-8a138.17 138.17 0 0 1 -17.14-20.9 137.9 137.9 0 0 1 -15.44-122 137.47 137.47 0 0 1 129.85-92h46.06a35.65 35.65 0 0 0 24.53-9.74l.76-.73a35.76 35.76 0 0 0 5.24-43.9 35.76 35.76 0 0 0 -30.53-17.14h-28.86a83.4 83.4 0 0 1 -58.45-23.85l-.66-.66a83.6 83.6 0 0 1 -8.87-107.8 84.22 84.22 0 0 1 8.87-10.44c.21-.22.43-.44.66-.65l.21-.21a83.48 83.48 0 0 1 58.24-23.63 69.19 69.19 0 0 0 46.51-17.93c1.06-1 2.09-2 3.11-3 .64-.66 1.28-1.34 1.89-2a69.25 69.25 0 0 0 9.75-13.93c1-1.94 2-3.95 2.82-6a68.39 68.39 0 0 0 5.07-21.86c.1-1.5.14-3 .14-4.54v-70.6a27.32 27.32 0 0 1 27.32-27.32h486.58a83.52 83.52 0 0 1 71.22 39.82c.69 1.09 1.35 2.2 2 3.33a83.58 83.58 0 0 1 4.72 10.09c.81 2.07 1.54 4.17 2.18 6.32a81.76 81.76 0 0 1 2.75 12.76 80.89 80.89 0 0 1 .78 11.29c0 2.9-.16 5.76-.43 8.58a88.69 88.69 0 0 1 -1.7 10.27 83.7 83.7 0 0 1 -81.49 64.75h-68a48.51 48.51 0 0 0 -43.55 27c-.51 1-1 2.05-1.42 3.11a48.3 48.3 0 0 0 -3.64 18.46 48.6 48.6 0 0 0 48.61 48.59q1.32 0 2.64.06a62.66 62.66 0 0 1 21.87 4.89q2.63 1.11 5.12 2.45a62.94 62.94 0 0 1 33.38 55.62v43a43.92 43.92 0 0 0 31.25 42.1 189.21 189.21 0 0 1 23.27 8.62 164.39 164.39 0 0 1 16.4 8.46 140.89 140.89 0 0 1 20.41 14.57 117.58 117.58 0 0 1 22.26 25.43 113.22 113.22 0 0 1 13.13 28.36 123.74 123.74 0 0 1 3.11 12.45 144.51 144.51 0 0 1 2.6 27.94z" fill="#f3f4fe"/><path d="m871.2 516a140.89 140.89 0 0 1 20.41 14.57 28 28 0 0 1 -11 2.23h-480.89a28.12 28.12 0 0 1 -28.12-28.11v-259.84a28.13 28.13 0 0 1 28.12-28.12h474.89a83.84 83.84 0 0 1 -69.37 36.89h-68a48.51 48.51 0 0 0 -43.55 27c-.51 1-1 2.05-1.42 3.11a48.3 48.3 0 0 0 -3.64 18.46 48.6 48.6 0 0 0 48.61 48.59q1.32 0 2.64.06a62.66 62.66 0 0 1 21.87 4.89q2.63 1.11 5.12 2.45a62.94 62.94 0 0 1 33.38 55.62v43a43.92 43.92 0 0 0 31.25 42.1 189.21 189.21 0 0 1 23.27 8.62 164.39 164.39 0 0 1 16.43 8.48z" fill="#d2d6fa"/><path d="m871.2 516a25.31 25.31 0 0 1 -11.77 2.87h-438.53a25.63 25.63 0 0 1 -25.63-25.63v-236.94a25.63 25.63 0 0 1 25.63-25.64h438.53a25.25 25.25 0 0 1 3.15.2 83.3 83.3 0 0 1 -57.34 22.76h-68a48.51 48.51 0 0 0 -43.55 27c-.51 1-1 2.05-1.42 3.11a48.3 48.3 0 0 0 -3.64 18.46 48.6 48.6 0 0 0 48.61 48.59q1.32 0 2.64.06a62.66 62.66 0 0 1 21.87 4.89q2.63 1.11 5.12 2.45a62.94 62.94 0 0 1 33.38 55.62v43a43.92 43.92 0 0 0 31.25 42.1 189.21 189.21 0 0 1 23.27 8.62 164.39 164.39 0 0 1 16.43 8.48z" fill="#f1f2fd"/><path d="m932.71 624.75v10.41a132.93 132.93 0 0 1 -.77 14.33 131.54 131.54 0 0 1 -10.05 38.18c-1.6 3.71-3.37 7.32-5.28 10.84a132.92 132.92 0 0 1 -11.53 17.6h-514.78v-89.79a29.51 29.51 0 0 1 29.51-29.51h510.29a144.51 144.51 0 0 1 2.61 27.94z" fill="#7f93c9"/><path d="m932.71 633.7v1.46a132.93 132.93 0 0 1 -.77 14.33h-541.64v-15.79z" fill="#d2d6fa"/><path d="m921.89 687.67c-1.6 3.71-3.37 7.32-5.28 10.84a132.74 132.74 0 0 1 -61.78 57.33q-1.94.88-3.93 1.71h-463a34.94 34.94 0 0 1 0-69.88z" fill="#d2d6fa"/><g fill="#7f93c9"><path d="m692.32 283.75a48.82 48.82 0 0 0 -3 10.26h-317.72v-10.26z"/><path d="m761.81 216.73h5.13v36.89h-5.13z"/><path d="m761.81 355.76q2.63 1.11 5.12 2.45v174.59h-5.12z"/><path d="m346.5 372.2h316.06v5.13h-316.06z" transform="matrix(0 1 -1 0 879.3 -129.77)"/></g><path d="m850.9 757.55c-3.59 1.49-7.28 2.83-11 4a132.84 132.84 0 0 1 -39.55 6h-53.73a27.32 27.32 0 0 0 -27.31 27.32v101.13h-276.76v-138.45z" fill="#cbd2f7"/><g fill="#7986bf"><path d="m883.15 139.65h-591.81v-13.42h585.12c.69 1.09 1.35 2.2 2 3.33a83.58 83.58 0 0 1 4.69 10.09z"/><rect height="49.17" rx="8.03" width="16.07" x="655.24" y="113.73"/><path d="m659.1 151.25h8.34v72.22h-8.34z"/><path d="m663.27 300.92a40.95 40.95 0 1 1 41-40.95 41 41 0 0 1 -41 40.95zm0-73a32.06 32.06 0 1 0 32.06 32.08 32.09 32.09 0 0 0 -32.06-32.08z"/></g><rect fill="#d2d6fa" height="17.61" rx="8.35" transform="matrix(-1 0 0 -1 315.5 1809.57)" width="66.58" x="124.46" y="895.98"/><rect fill="#d2d6fa" height="17.61" rx="8.35" transform="matrix(-1 0 0 -1 1123.08 1809.57)" width="728.11" x="197.48" y="895.98"/><circle cx="411.58" cy="333.05" fill="#4e3636" r="24.47"/><path d="m436.06 333.05a22.1 22.1 0 0 1 -.25 3.37 24.46 24.46 0 0 0 -48.45 0 22.1 22.1 0 0 1 -.24-3.37 24.47 24.47 0 1 1 48.94 0z" fill="#594444"/><circle cx="411.59" cy="347.04" fill="#ffbf49" r="24.47"/><path d="m338.81 550.9s12.8-93 58.65-127.13" fill="none" stroke="#339fa1" stroke-linecap="round" stroke-miterlimit="10" stroke-width="5"/><rect fill="#ffb2bf" height="33.47" rx="6.55" transform="matrix(-.99863865 .05216166 -.05216166 -.99863865 685.29 567.1)" width="13.09" x="328.71" y="275.75"/><circle cx="330.2" cy="304.38" fill="#ff6d8d" r="12.89"/><path d="m391.83 453a18.19 18.19 0 0 1 -23.67-7 12.41 12.41 0 0 1 -.71-1.29l-7.08-14.36-51.75-105a18.21 18.21 0 1 1 32.66-16.1l39.58 80.32 10.28 20.87 9 18.19a18.2 18.2 0 0 1 -8.31 24.37z" fill="#ffb2bf"/><ellipse cx="322.72" cy="306.44" fill="#ffb2bf" rx="20.59" ry="24.43" transform="matrix(.93470166 -.35543326 .35543326 .93470166 -87.85 134.72)"/><path d="m447.34 364.71v49.23c0 1.82-1.95 3.29-4.35 3.29h-7.38a2.08 2.08 0 0 1 -2-1.18l-1.48-4.05a.79.79 0 0 0 -1.37 0l-1.54 4.09a2.1 2.1 0 0 1 -2 1.16h-28a2.06 2.06 0 0 1 -2.05-1.25l-2-6.9a.83.83 0 0 0 -1.47 0l-2.27 6.9a2.09 2.09 0 0 1 -2.05 1.21h-7.13c-2.41 0-4.35-1.47-4.35-3.29v-49.21z" fill="#422a2a"/><path d="m420.16 679.24h37.03v208.01h-37.03z" fill="#ffb2bf"/><path d="m367.37 679.24h37.03v208.01h-37.03z" fill="#ffb2bf" transform="matrix(-1 0 0 -1 771.77 1566.49)"/><path d="m420.16 679.24h37.03v24.49h-37.03z" fill="#f9a0b4"/><path d="m367.37 679.24h37.03v24.49h-37.03z" fill="#f9a0b4" transform="matrix(-1 0 0 -1 771.77 1382.97)"/><path d="m419.28 893.22h37.34a18.67 18.67 0 0 0 -37.34 0z" fill="#a5254a"/><path d="m459 896h-40.12a6.34 6.34 0 0 1 -6.33-6.34 6.33 6.33 0 0 1 6.95-6.3l39.87 3.87a4.4 4.4 0 0 1 4 4.37 4.4 4.4 0 0 1 -4.37 4.4z" fill="#b83153"/><path d="m367.63 893.22h37.37a18.67 18.67 0 0 0 -37.34 0z" fill="#a5254a"/><path d="m405.89 896h-40.06a6.34 6.34 0 0 1 -6.34-6.34 6.33 6.33 0 0 1 6.95-6.3l39.88 3.87a4.4 4.4 0 0 1 4 4.37 4.4 4.4 0 0 1 -4.43 4.4z" fill="#b83153"/><path d="m312.81 688.53h199a12.74 12.74 0 0 0 12.37-15.53c-13.59-58.2-35-110.84-77.85-140.15h-67.65c-42 36.28-66.34 84.23-78.32 140.3a12.74 12.74 0 0 0 12.45 15.38z" fill="#b83153"/><path d="m511.76 688.53h-13.19a12.72 12.72 0 0 0 12.43-15.53c-13.57-58.2-35-110.84-77.85-140.15h13.18c42.87 29.31 64.28 82 77.86 140.15a12.73 12.73 0 0 1 -12.43 15.53z" fill="#cc3e66"/><path d="m399.64 387.9v33.47a11.95 11.95 0 0 0 23.89 0v-33.47a11.95 11.95 0 1 0 -23.89 0z" fill="#ffb2bf"/><path d="m377.81 480.71v51.29a34.76 34.76 0 1 0 69.52 0v-51.29z" fill="#b83153"/><rect fill="#ffb2bf" height="100.4" rx="18.98" transform="matrix(-.83427094 .55135469 -.55135469 -.83427094 1092.19 609.32)" width="38.27" x="435.37" y="418.63"/><path d="m377.81 468.64v51.34l69.52-15.06v-36.28z" fill="#aa2249"/><path d="m460.31 471v1.76a23.51 23.51 0 0 1 -23.51 23.51h-50.45a23.51 23.51 0 0 1 -23.5-23.51v-1.76a48.43 48.43 0 0 1 7.28-25.61c10.1 7.32 24.93 11.93 41.46 11.93s31.34-4.61 41.44-11.94a48.38 48.38 0 0 1 7.28 25.62z" fill="#b83153"/><g fill="#ffbf49"><path d="m377.81 525.16h69.53v8.28h-69.53z"/><rect height="5.5" rx="2.75" transform="matrix(.5 .8660254 -.8660254 .5 686.84 -111.61)" width="26.85" x="426.65" y="536.26"/><rect height="5.5" rx="2.75" transform="matrix(-.29337298 .95599806 -.95599806 -.29337298 1067.92 282.32)" width="23.54" x="417.86" y="533.06"/></g><path d="m460.31 471v1.76a23.51 23.51 0 0 1 -23.51 23.51h-15.69a52.4 52.4 0 0 0 22.6-43.13c0-.79 0-1.58-.06-2.36a54.39 54.39 0 0 0 9.38-5.4c-.23-.38-.47-.75-.72-1.12-.75-1.15-1.56-2.26-2.41-3.34.85 1.08 1.66 2.19 2.42 3.34a48.44 48.44 0 0 1 7.99 26.74z" fill="#cc3e66"/><path d="m399.64 387.9v25.83a29.05 29.05 0 0 0 23.89.62v-26.45a11.95 11.95 0 1 0 -23.89 0z" fill="#f9a0b4"/><circle cx="381.71" cy="374.43" fill="#ffb2bf" r="12.2"/><ellipse cx="412.29" cy="371.39" fill="#ffb2bf" rx="34.48" ry="41.66"/><path d="m374.51 374a5.29 5.29 0 0 1 3.24-4.88 1.52 1.52 0 0 1 2.05 1.44v6.87a1.53 1.53 0 0 1 -2.19 1.38 5.28 5.28 0 0 1 -3.1-4.81z" fill="#f9a0b4"/><circle cx="399.01" cy="377" fill="#4e3636" r="2.62"/><circle cx="425.15" cy="377" fill="#4e3636" r="2.62"/><path d="m418.35 387.66a5.6 5.6 0 0 1 -1.66 4 4.72 4.72 0 0 1 -.41.37 5.77 5.77 0 0 1 -3.66 1.32h-.23a5.82 5.82 0 0 1 -3.4-1.07 5.67 5.67 0 0 1 -2.38-4.1c0-.16 0-.32 0-.47a1.11 1.11 0 0 1 1.11-1.11l9.53-.07a1.11 1.11 0 0 1 1.1 1.13z" fill="#962f4a"/><path d="m412.5 392.5a4.3 4.3 0 0 1 -.08.88 5.74 5.74 0 0 1 -5.78-5.17 4.58 4.58 0 0 1 5.89 4.29z" fill="#e1617f"/><path d="m417 386.57c0 1.11-1.77 2-3.92 2s-3.89-.87-3.94-2z" fill="#fff"/><path d="m416.28 392.05a5.71 5.71 0 0 1 -3.66 1.32h-.23a5.82 5.82 0 0 1 -3.4-1.07 4 4 0 0 1 3.69-2 4.14 4.14 0 0 1 3.6 1.75z" fill="#fff"/><g fill="#ffb2bf"><rect height="45.84" rx="15.95" transform="matrix(.91803166 -.39650708 .39650708 .91803166 -189.28 228.83)" width="31.89" x="442.85" y="549.28"/><rect height="101.42" rx="15.87" transform="matrix(-.96414174 -.26538785 .26538785 -.96414174 773.56 1164.77)" width="31.74" x="449.6" y="479.42"/><rect height="45.84" rx="15.95" transform="matrix(.91803166 -.39650708 .39650708 .91803166 -189.28 228.83)" width="31.89" x="442.85" y="549.28"/></g><path d="m489.16 505.61-16.26 59 3.3 7.63a15.95 15.95 0 0 1 -17.26 22.06 16 16 0 0 0 13.3-15.74 15.91 15.91 0 0 0 -1.31-6.32l-.37-.87-2.92-6.74 2-7.21 12.3-44.66s7.39-18.49 1.32-27.23l-2.46-3.73-32.71-49.48a19.09 19.09 0 0 0 -13.38-8.4 19.17 19.17 0 0 1 18.65 8.4l35.17 53.21c3.63 4.98 4.35 10.76.63 20.08z" fill="#fdc3cd"/><path d="m458.6 573.9q0 .83 0 1.65z"/><path d="m458.6 573.9q0 .83 0 1.65z"/><path d="m458.6 573.9q0 .83 0 1.65z"/><path d="m453 445.33a54.39 54.39 0 0 1 -9.38 5.4 78 78 0 0 1 -32.06 6.54c-16.53 0-31.36-4.61-41.46-11.93.47-.77 1-1.52 1.48-2.25a46.39 46.39 0 0 1 5.51-6.59c.77-.78 1.58-1.53 2.41-2.26a46.15 46.15 0 0 1 5.56-4.18c.35-.24.71-.46 1.07-.67a46.92 46.92 0 0 1 7.94-3.93 48.72 48.72 0 0 1 35.9.38 47.08 47.08 0 0 1 7 3.56c.52.31 1 .65 1.54 1 .28.18.55.36.82.56a46.58 46.58 0 0 1 4.25 3.31c.84.73 1.64 1.48 2.42 2.25a47.41 47.41 0 0 1 6.27 7.7c.29.36.53.78.73 1.11z" fill="#ffb2bf"/><rect fill="#fdc3cd" height="107.78" rx="5.32" width="10.64" x="439.36" y="735.91"/><ellipse cx="427.67" cy="524.56" fill="#ffbf49" rx="4.75" ry="8.2" transform="matrix(.59860425 -.80104491 .80104491 .59860425 -248.53 553.15)"/><ellipse cx="433.88" cy="524.56" fill="#ffbf49" rx="8.2" ry="4.75" transform="matrix(.59860425 -.80104491 .80104491 .59860425 -246.04 558.12)"/><ellipse cx="456.17" cy="571.42" fill="#fdc3cd" rx="4.14" ry="8.44"/><circle cx="443.66" cy="374.43" fill="#ffb2bf" r="12.2"/><path d="m449.41 374a5.28 5.28 0 0 1 -3.23 4.88 1.52 1.52 0 0 1 -2.05-1.44v-6.87a1.53 1.53 0 0 1 2.19-1.38 5.28 5.28 0 0 1 3.09 4.81z" fill="#f9a0b4"/><path d="m445.21 364.71h-14.53a1.51 1.51 0 0 1 -1.46-1.13l-1.28-5.07a1 1 0 0 0 -1.9-.08l-2 5.72a.84.84 0 0 1 -.79.56h-1.75a.83.83 0 0 1 -.81-.64l-1.4-5.55a1 1 0 0 0 -1.91-.08l-1.8 5.16a1.65 1.65 0 0 1 -1.56 1.11h-34.66a2 2 0 0 1 -1.95-2.18c2-18.66 16.86-33.15 34.88-33.15s32.86 14.49 34.87 33.15a2 2 0 0 1 -1.95 2.18z" fill="#4e3636"/><path d="m447.17 362.53a2 2 0 0 1 -.72 1.74c-3.65-16.53-17.56-28.82-34.16-28.82s-30.51 12.29-34.16 28.82a2 2 0 0 1 -.72-1.74c2-18.66 16.87-33.15 34.88-33.15s32.87 14.49 34.88 33.15z" fill="#594444"/><path d="m397.46 420.07s20.73 115.09-37.32 149.07" fill="none" stroke="#339fa1" stroke-linecap="round" stroke-miterlimit="10" stroke-width="5"/><ellipse cx="340.74" cy="571.91" fill="#339fa1" rx="20.04" ry="28.31" transform="matrix(.5 -.8660254 .8660254 .5 -324.92 581.05)"/><path d="m365.25 586.07a15.52 15.52 0 0 1 -7.81 6.59c.31-8.58-5.95-18.42-16.45-24.49-9.27-5.35-19.44-6.36-26.72-3.39a14.77 14.77 0 0 1 2-7c5.52-9.58 21-11 34.52-3.2s20.01 21.9 14.46 31.49z" fill="#277c83"/><ellipse cx="340.74" cy="570.21" fill="#ffbf49" rx="6.47" ry="9.13" transform="matrix(.5 -.8660254 .8660254 .5 -323.44 580.2)"/><rect fill="#277c83" height="9.98" rx="4.99" transform="matrix(.58481611 .8111659 -.8111659 .58481611 610.78 -59.63)" width="9.98" x="358.65" y="561.81"/><rect fill="#277c83" height="9.98" rx="4.99" transform="matrix(.58481611 .8111659 -.8111659 .58481611 587.58 -46.09)" width="9.98" x="333.82" y="545.91"/><g fill="#7986bf"><rect height="49.17" rx="8.03" width="16.07" x="312.26" y="113.73"/><path d="m316.12 151.25h8.34v72.22h-8.34z"/><path d="m320.3 300.92a41 41 0 1 1 40.94-40.92 41 41 0 0 1 -40.94 40.92zm0-73a32.06 32.06 0 1 0 32.05 32.08 32.09 32.09 0 0 0 -32.05-32.08z"/></g><g fill="#ffb2bf"><rect height="28.65" rx="6.75" transform="matrix(-.98599604 .16676875 -.16676875 -.98599604 830.65 500.92)" width="13.49" x="387.54" y="271.03"/><rect height="28.65" rx="6.75" transform="matrix(-.98599604 .16676875 -.16676875 -.98599604 812.3 512.28)" width="13.49" x="377.88" y="275.93"/><rect height="28.65" rx="6.75" transform="matrix(-.98599604 .16676875 -.16676875 -.98599604 793.92 521.32)" width="13.49" x="368.32" y="279.68"/></g><rect fill="#e2eaf7" height="158.94" rx="22.98" transform="matrix(.57500525 .81814972 -.81814972 .57500525 678.58 -261.75)" width="45.96" x="568.28" y="442.86"/><path d="m658.07 479.65a23 23 0 0 0 -29.83-2.93l-92.43 65a23 23 0 0 0 -7.38 29 22.5 22.5 0 0 1 -2.19-2.65 23 23 0 0 1 5.58-32l92.44-65a23 23 0 0 1 32 5.59 23.24 23.24 0 0 1 1.81 2.99z" fill="#f5f9ff"/><rect fill="#e2eaf7" height="158.94" rx="22.98" transform="matrix(-.57500525 .81814972 -.81814972 -.57500525 1603.2 211.93)" width="45.96" x="723.58" y="442.86"/><path d="m814.9 561a22.93 22.93 0 0 0 -9.72-17.46l-92.44-65a23 23 0 0 0 -32 5.59 22.55 22.55 0 0 0 -3.34 7c0-.46 0-.91 0-1.36a23 23 0 0 1 36.19-18.77l92.41 65a23 23 0 0 1 8.9 25z" fill="#f5f9ff"/><path d="m701.56 846.21h34.01v40.68h-34.01z" fill="#f0a284"/><path d="m701.56 846.21h34.01v21.06h-34.01z" fill="#d85e66"/><path d="m700 869h12.28a11.11 11.11 0 0 1 11.11 11.11v6.81a0 0 0 0 1 0 0h-23.39a0 0 0 0 1 0 0v-17.92a0 0 0 0 1 0 0z" fill="#28468e"/><path d="m704.15 880.4 18-1.18a19.32 19.32 0 0 1 35.4 10.94l-38.64-.47-19.27-.24.06-4.33a4.79 4.79 0 0 1 4.45-4.72z" fill="#28468e"/><path d="m736.45 870.68a19.31 19.31 0 0 1 17.08 19.43h4a19.33 19.33 0 0 0 -19.09-19.56c-.67.05-1.33.07-1.99.13z" fill="#4286f1"/><path d="m696 892.24a3 3 0 0 0 2.56 3 2.47 2.47 0 0 0 .39 0l57.6.7a3.85 3.85 0 0 0 .48 0 4.54 4.54 0 0 0 4.11-4.46 4.54 4.54 0 0 0 -4-4.56 5.72 5.72 0 0 0 -.72 0l-2.22.09-6.32.26-2.94.13-6.32.26-2.94.12-6.32.26-2.94.13-6.32.26-2.94.12-6.32.26-2.94.13-6.32.26-2.72.11h-.23a3 3 0 0 0 -1.79.89 2.93 2.93 0 0 0 -.84 2.04z" fill="#1b366d"/><g fill="#28468e"><path d="m754.18 887-.11 8.94h2.94l.11-9.05a5.72 5.72 0 0 0 -.72 0z"/><path d="m744.92 887.38-.1 8.44 2.94.04.1-8.61z"/><path d="m735.66 887.76-.1 7.95 2.94.03.1-8.1z"/><path d="m726.4 888.15-.09 7.45 2.94.03.09-7.61z"/><path d="m717.14 888.53-.09 6.95 2.94.04.09-7.11z"/><path d="m707.88 888.92-.08 6.45 2.94.04.08-6.62z"/><path d="m698.61 889.31-.07 6h2.94l.08-6.11-2.72.11z"/></g><circle cx="709.89" cy="881.48" fill="#4286f1" r="5.43"/><circle cx="709.89" cy="881.48" fill="#4286f1" r="5.43"/><path d="m709.67 877.18a4 4 0 0 1 .85.13 4.28 4.28 0 0 0 -.45 8.38 4.2 4.2 0 0 1 -.87 0 4.28 4.28 0 1 1 .47-8.54z" fill="#1b366d"/><path d="m709.29 884.43a3 3 0 0 1 -.6-.09 3 3 0 0 0 .32-5.85 4.1 4.1 0 0 1 .61 0 3 3 0 1 1 -.33 6z" fill="#76aeff"/><path d="m743.63 647.55h34.01v40.68h-34.01z" fill="#f0a284" transform="matrix(-.19217942 .98135981 -.98135981 -.19217942 1562.2 49.74)"/><path d="m734 655.47h34.01v21.06h-34.01z" fill="#d85e66" transform="matrix(-.19217942 .98135981 -.98135981 -.19217942 1548.88 56.94)"/><path d="m761.41 654.42h23.39a0 0 0 0 1 0 0v6.81a11.11 11.11 0 0 1 -11.11 11.11h-12.28a0 0 0 0 1 0 0v-17.92a0 0 0 0 1 0 0z" fill="#28468e" transform="matrix(-.19217942 .98135981 -.98135981 -.19217942 1572.66 32.13)"/><path d="m777 656.41-4.61 17.41a19.32 19.32 0 0 0 3.94 36.84l7-38 3.47-19-4.26-.78a4.8 4.8 0 0 0 -5.54 3.53z" fill="#28468e"/><path d="m761.24 686.24a19.33 19.33 0 0 0 15.76 20.5l-.71 3.92a19.32 19.32 0 0 1 -15.53-22.48c.14-.66.3-1.31.48-1.94z" fill="#4286f1"/><path d="m790.17 650.66a3 3 0 0 1 2.44 3.09 1.72 1.72 0 0 1 0 .39l-10.42 56.66a2.47 2.47 0 0 1 -.11.47 4.53 4.53 0 0 1 -8.87-1.63 6.12 6.12 0 0 1 .11-.71l.52-2.16 1.47-6.15.69-2.86 1.47-6.15.69-2.87 1.47-6.15.68-2.86 1.47-6.15.69-2.87 1.47-6.15.69-2.86 1.47-6.15.63-2.64a2 2 0 0 1 .07-.23 3 3 0 0 1 3.37-2z" fill="#1b366d"/><g fill="#28468e"><path d="m773.84 706.77 8.8 1.61-.53 2.89-8.9-1.63a6.12 6.12 0 0 1 .11-.71z"/><path d="m776 697.76 8.31 1.52-.54 2.89-8.46-1.55z"/><path d="m778.16 688.74 7.81 1.43-.53 2.9-7.97-1.46z"/><path d="m780.31 679.73 7.33 1.34-.53 2.89-7.48-1.37z"/><path d="m782.47 670.71 6.84 1.25-.53 2.9-7-1.28z"/><path d="m784.63 661.7 6.35 1.16-.53 2.9-6.51-1.19z"/><path d="m786.8 652.68 5.84 1.07-.53 2.9-6-1.1.63-2.64a2 2 0 0 1 .06-.23z"/></g><circle cx="776.94" cy="662.25" fill="#4286f1" r="5.43"/><circle cx="776.94" cy="662.25" fill="#4286f1" r="5.43"/><path d="m772.76 661.2a4.25 4.25 0 0 0 0 .87 4.28 4.28 0 0 1 8.31 1.16 4.68 4.68 0 0 0 .2-.84 4.28 4.28 0 1 0 -8.48-1.19z" fill="#1b366d"/><path d="m780 662.23a3.14 3.14 0 0 0 0-.61 3 3 0 0 1 -5.8-.81 3 3 0 1 0 5.78 1.42z" fill="#76aeff"/><rect fill="#007494" height="38.18" rx="19.09" width="152.51" x="591.51" y="649.49"/><path d="m728.64 652.79h-121.76l-7.25-123.42a68.24 68.24 0 0 1 68.13-72.25 68.24 68.24 0 0 1 68.13 72.25z" fill="#fcffff"/><rect fill="#007494" height="52.21" rx="26.1" transform="matrix(.60279029 .79789966 -.79789966 .60279029 760.68 -224.69)" width="77.16" x="567.41" y="625.5"/><rect fill="#f0a284" height="21.69" rx="10.84" transform="matrix(-.98105672 -.1937207 .1937207 -.98105672 1312.92 1249.32)" width="41.91" x="696.59" y="549.62"/><path d="m636.55 730.17h184.61a3.54 3.54 0 0 1 3.54 3.54v45.13a3.54 3.54 0 0 1 -3.54 3.54h-184.61a25.43 25.43 0 0 1 -25.43-25.38v-1.4a25.43 25.43 0 0 1 25.43-25.43z" fill="#3980e5" transform="matrix(0 1 -1 0 1474.19 38.37)"/><rect fill="#f0a284" height="21.69" rx="10.84" transform="matrix(.98105672 -.1937207 .1937207 .98105672 -96.83 130.79)" width="41.91" x="599.32" y="549.62"/><path d="m646.61 376h1.5a0 0 0 0 1 0 0v22.13a16.88 16.88 0 0 1 -16.88 16.87h-1.5a0 0 0 0 1 0 0v-22.12a16.88 16.88 0 0 1 16.88-16.88z" fill="#2f3d6c" transform="matrix(-1 0 0 -1 1277.83 791.02)"/><path d="m692.67 380.57a14 14 0 0 1 14 14v25a0 0 0 0 1 0 0 14 14 0 0 1 -14-14v-25a0 0 0 0 1 0 0z" fill="#2f3d6c"/><path d="m684.23 417v44.63a15.21 15.21 0 1 1 -30.41 0v-44.63a15.21 15.21 0 1 1 30.41 0z" fill="#f0a284"/><path d="m684.23 417v40.35a32.35 32.35 0 0 1 -30.41.75v-41.1a15.21 15.21 0 1 1 30.41 0z" fill="#d85e66"/><path d="m700.93 401.39v2.14l-.24 19.47a32.37 32.37 0 0 1 -64.73-.73l.24-21.27a32.37 32.37 0 0 1 64.73.35z" fill="#f0a284"/><path d="m700.93 401.39v2.14l-10.35 4a36.69 36.69 0 0 1 -47.38-21.14l-1.27-3.39a32.36 32.36 0 0 1 59 18.36z" fill="#d85e66" opacity=".35"/><path d="m684.58 413a4.78 4.78 0 0 1 -9.55 0 4.9 4.9 0 0 1 .11-1 4.78 4.78 0 0 0 9.34 0 5.69 5.69 0 0 1 .1 1z" fill="#374453"/><path d="m661.71 413a4.78 4.78 0 0 1 -9.55 0 4.9 4.9 0 0 1 .11-1 4.77 4.77 0 0 0 9.33 0 4.9 4.9 0 0 1 .11 1z" fill="#374453"/><path d="m709.55 416.35a12.55 12.55 0 0 1 -10.33 10.4 1.75 1.75 0 0 1 -2.05-1.72v-21.32a1.72 1.72 0 0 1 2-1.72 12.53 12.53 0 0 1 10.38 14.36z" fill="#f0a284"/><path d="m672.92 424.19a4.38 4.38 0 0 1 -1.38 3.06c-.1.1-.21.19-.32.28a4.37 4.37 0 0 1 -2.81.91h-.18a4.25 4.25 0 0 1 -2.55-.91 4.39 4.39 0 0 1 -1.69-3.23c0-.12 0-.24 0-.37a.86.86 0 0 1 .27-.59.83.83 0 0 1 .61-.23l7.23.22a.85.85 0 0 1 .82.86z" fill="#962f4a"/><path d="m668.34 427.76a3.72 3.72 0 0 1 -.09.68 4.38 4.38 0 0 1 -4.24-4.15 3.48 3.48 0 0 1 4.35 3.47z" fill="#e1617f"/><path d="m671.93 423.31c-.06.86-1.4 1.51-3 1.46s-2.93-.77-2.93-1.64z" fill="#fff"/><path d="m671.22 427.53a4.39 4.39 0 0 1 -2.81.91h-.18a4.32 4.32 0 0 1 -2.55-.92 3 3 0 0 1 2.85-1.46 3.1 3.1 0 0 1 2.69 1.47z" fill="#fff"/><circle cx="636.97" cy="414.37" fill="#f0a284" r="12.54"/><path d="m629.73 414.07a5.44 5.44 0 0 0 3.31 5 1.56 1.56 0 0 0 2.11-1.47v-7.08a1.58 1.58 0 0 0 -2.25-1.42 5.44 5.44 0 0 0 -3.17 4.97z" fill="#d85e66"/><path d="m705.13 414.07a5.44 5.44 0 0 1 -3.31 5 1.56 1.56 0 0 1 -2.12-1.47v-7.08a1.58 1.58 0 0 1 2.25-1.42 5.44 5.44 0 0 1 3.18 4.97z" fill="#d85e66"/><path d="m648.26 357.24h22.35a31.51 31.51 0 0 1 31.51 31.51v11.81a4.85 4.85 0 0 1 -4.85 4.85h-17a36.69 36.69 0 0 1 -36.69-36.69v-6.82a4.66 4.66 0 0 1 4.68-4.66z" fill="#2f3d6c" transform="matrix(.93383039 -.3577161 .3577161 .93383039 -91.88 265.91)"/><path d="m706.79 392.89a4.84 4.84 0 0 1 -2.52 2.2l-15.85 6.07a36.68 36.68 0 0 1 -47.42-21.16l-2.44-6.37a4.65 4.65 0 0 1 2.67-6l3.52-1.35a4.65 4.65 0 0 0 -.23 3.85l2.43 6.37a36.68 36.68 0 0 0 47.38 21.13z" fill="#495c91"/><path d="m659.45 368.19h12.19a17.18 17.18 0 0 1 17.18 17.18v6.44a2.64 2.64 0 0 1 -2.64 2.64h-9.26a20 20 0 0 1 -20-20v-3.72a2.54 2.54 0 0 1 2.54-2.54z" fill="#495c91" transform="matrix(.93383039 -.3577161 .3577161 .93383039 -91.88 265.91)"/><g fill="#f5f9ff"><path d="m660.46 556.39h11.49v69.46h-11.49z"/><path d="m713.65 605.61-41.65 20.25v-69.47c12.55-9.58 26.14-15.56 41.7-14.65z"/><path d="m618.75 605.61 41.71 20.25v-69.47c-14-8.28-27.46-14.51-39.43-13.54z"/></g><path d="m660.46 561.99h11.49v69.46h-11.49z" fill="#c53f24"/><path d="m713.65 611.2-41.7 20.25v-69.46l41.7-20.25z" fill="#f05e47"/><path d="m618.75 611.2 41.71 20.25v-69.46l-41.71-20.25z" fill="#f05e47"/><path d="m592.51 622.82h161.6a3.74 3.74 0 0 1 3.74 3.74v44.73a3.74 3.74 0 0 1 -3.74 3.74h-161.6a26.1 26.1 0 0 1 -26.1-26.1 26.1 26.1 0 0 1 26.1-26.1z" fill="#4286f1" transform="matrix(.98225453 .18755275 -.18755275 .98225453 133.43 -112.65)"/><circle cx="791.93" cy="559.22" fill="#4286f1" r="32.83"/><g fill="#f0a284"><rect height="27.4" rx="13.7" transform="matrix(-.85806491 .51354125 -.51354125 -.85806491 1643.26 759.67)" width="41.91" x="695.7" y="593.21"/><rect height="38.34" rx="19.17" transform="matrix(-.85806491 .51354125 -.51354125 -.85806491 1614.15 731.91)" width="53.5" x="679.19" y="569.83"/><rect height="127.87" rx="28.61" transform="matrix(-.35869381 -.93345528 .93345528 -.35869381 498 1485.63)" width="57.21" x="730.77" y="507.8"/><rect height="27.4" rx="13.7" transform="matrix(-.85806491 .51354125 -.51354125 -.85806491 1643.26 759.67)" width="41.91" x="695.7" y="593.21"/></g><path d="m819.06 548.8a28.56 28.56 0 0 0 -10.37-13.23 28.65 28.65 0 0 1 -10.36 46.55l-62 23.84-3.92 1.5a28.22 28.22 0 0 1 -3.46 1.09 13.55 13.55 0 0 1 -3.28 2.75l-2.55 1.51-9.89 5.93a13.56 13.56 0 0 1 -6.8 2 13.72 13.72 0 0 1 -6.76-1.65 13.68 13.68 0 0 0 17.83 3.35l12.46-7.46a13.81 13.81 0 0 0 3.3-2.75 29.53 29.53 0 0 0 3.43-1.08l66-25.33a28.62 28.62 0 0 0 16.37-37.02z" fill="#ffb7a1"/><circle cx="545.89" cy="559.22" fill="#4286f1" r="32.83"/><g fill="#f0a284"><rect height="27.4" rx="13.7" transform="matrix(.86 .51 -.51 .86 399.81 -232.85)" width="41.91" x="600.21" y="593.21"/><rect height="38.34" rx="19.17" transform="matrix(.85806491 .51354125 -.51354125 .85806491 392.13 -240.89)" width="53.5" x="605.13" y="569.83"/><rect height="127.87" rx="28.61" transform="matrix(.35869381 -.93345528 .93345528 .35869381 -162.7 906.67)" width="57.21" x="549.84" y="507.8"/><rect height="27.4" rx="13.7" transform="matrix(.86 .51 -.51 .86 399.81 -232.85)" width="41.91" x="600.21" y="593.21"/></g><g fill="#ffb7a1"><path d="m518.77 548.8a28.48 28.48 0 0 1 10.36-13.23 28.65 28.65 0 0 0 10.36 46.55l62 23.84 3.92 1.5a28.22 28.22 0 0 0 3.46 1.09 13.55 13.55 0 0 0 3.28 2.75l2.55 1.51 9.9 5.93a13.5 13.5 0 0 0 6.79 2 13.72 13.72 0 0 0 6.76-1.65 13.68 13.68 0 0 1 -17.83 3.35l-12.46-7.46a13.81 13.81 0 0 1 -3.3-2.75 29.53 29.53 0 0 1 -3.43-1.08l-65.95-25.33a28.61 28.61 0 0 1 -16.41-37.02z"/><rect height="63.92" rx="6.18" transform="matrix(-.39650708 -.91803166 .91803166 -.39650708 524.38 1504.62)" width="12.37" x="750.55" y="547.99"/><rect height="63.92" rx="6.18" transform="matrix(.39650708 -.91803166 .91803166 .39650708 -185.06 871.05)" width="12.37" x="563.81" y="544.33"/></g></svg>