<svg viewBox="0 0 1000 1000" xmlns="http://www.w3.org/2000/svg"><path d="m989.05 472.77a50.86 50.86 0 0 1 -.54 7.35 49.2 49.2 0 0 1 -48.65 41.88 30.9 30.9 0 0 0 -30.63 27 29.48 29.48 0 0 0 -.25 3.9v98.73a64.74 64.74 0 0 1 -.4 7.14 59.86 59.86 0 0 1 -1.28 7.4 63.33 63.33 0 0 1 -16.89 30.32c-1.11 1.1-2.26 2.17-3.45 3.19a63.36 63.36 0 0 1 -41.42 15.32 43.26 43.26 0 0 0 -43.09 39.52c-.12 1.23-.17 2.47-.17 3.73a43.23 43.23 0 0 0 43.26 43.25h68.52a65.77 65.77 0 0 1 46.56 19.29c.84.83 1.64 1.68 2.42 2.56a65.45 65.45 0 0 1 16.79 40.94c.07 1 .09 2 .09 3.07a65.88 65.88 0 0 1 -65.86 65.85h-837.26a65.75 65.75 0 0 1 -65.8-65.83c0-1 0-2 .07-3.07a65.81 65.81 0 0 1 65.73-62.79h85.87a43.23 43.23 0 0 0 43.25-43.25c0-1.26-.06-2.5-.17-3.73a43.2 43.2 0 0 0 -43.08-39.54h-13.48a99.67 99.67 0 0 1 -53.28-15.37 99.26 99.26 0 0 1 -17.42-13.91 100.59 100.59 0 0 1 -15.25-19.6c-1.44-2.4-2.76-4.87-4-7.4a97.57 97.57 0 0 1 -5.53-14 99.89 99.89 0 0 1 -4.54-29.72 103 103 0 0 1 .61-11.17 100 100 0 0 1 99.41-88.83h73.65a44.18 44.18 0 0 0 43.16-34.88 44.73 44.73 0 0 0 1-9.25 44.11 44.11 0 0 0 -44.11-44.1h-94.63a104.36 104.36 0 0 1 -84.12-42.47 104 104 0 0 1 -20.14-54.89c-.18-2.38-.25-4.78-.25-7.2 0-2.27.06-4.52.23-6.75a104.06 104.06 0 0 1 19.85-54.88 104.34 104.34 0 0 1 84.47-42.94 29 29 0 0 0 11.7-2.44 26.35 26.35 0 0 0 2.95-1.5 28.79 28.79 0 0 0 5.77-4.4 29.82 29.82 0 0 0 3.12-3.61 29.25 29.25 0 0 0 2.48-4.05 28 28 0 0 0 2.83-9 28.59 28.59 0 0 0 .31-4.16v-20.79c0-1 0-2 .08-2.93a45.22 45.22 0 0 1 .54-5 48.87 48.87 0 0 1 2.3-9c.32-.88.66-1.74 1-2.59s.7-1.6 1.1-2.38a49.73 49.73 0 0 1 5.61-9 54 54 0 0 1 4.46-5c.71-.69 1.46-1.37 2.21-2a50 50 0 0 1 10.48-7 48.35 48.35 0 0 1 4.84-2.09 49.52 49.52 0 0 1 12.7-2.87h.1c1.49-.13 3-.2 4.51-.2h385.8a49.86 49.86 0 0 1 49.85 47v1.26s0 1.11 0 1.67a49.08 49.08 0 0 0 .72 8.45 50 50 0 0 0 16.8 29.55c.43.37.88.73 1.33 1.08a49.66 49.66 0 0 0 31.1 10.87h26.14a83 83 0 0 1 72.87 43.07 80.32 80.32 0 0 1 6.1 13.95 82.69 82.69 0 0 1 4.23 26.22v68.31 1.29a54.48 54.48 0 0 0 54.5 53.23h83.06a49.08 49.08 0 0 1 34.76 14.42c.38.39.78.79 1.14 1.19a49 49 0 0 1 13.26 33.58z" fill="#f3f4fe"/><path d="m907.3 666.12a63.33 63.33 0 0 1 -16.89 30.32c-1.11 1.1-2.26 2.17-3.45 3.19h-791.08a99.26 99.26 0 0 1 -17.42-13.91 100.59 100.59 0 0 1 -15.25-19.6z" fill="#d2d6fa"/><path d="m887 699.63a63.36 63.36 0 0 1 -41.46 15.37 43.11 43.11 0 0 0 -16.06 3.08h-650.75a43.19 43.19 0 0 0 -16.06-3.08h-13.48a99.67 99.67 0 0 1 -53.28-15.37z" fill="#c4cbf7"/><rect fill="#d2d6fa" height="17.61" rx="8.8" width="74.06" x="862.07" y="933.23"/><rect fill="#d2d6fa" height="17.61" rx="8.8" width="822.72" x="32.18" y="933.23"/><path d="m662 206.77h-167.27a59.46 59.46 0 0 1 -59.45-59.46v-29.57h157.88a49.86 49.86 0 0 1 49.85 47v1.26s0 1.11 0 1.67a49.08 49.08 0 0 0 .72 8.45 50 50 0 0 0 16.8 29.55c.52.39.97.75 1.47 1.1z" fill="#c4cbf7"/><rect fill="#d2d6fa" height="300.78" rx="106.58" width="213.16" x="393.44" y="236.89"/><rect fill="#f3f4fe" height="253.09" rx="89.68" width="179.37" x="410.34" y="260.73"/><rect fill="#d2d6fa" height="17.64" rx="8.82" width="121.11" x="423.57" y="571.52"/><rect fill="#d2d6fa" height="17.64" rx="8.82" width="196.96" x="423.57" y="609.15"/><circle cx="303.78" cy="425.5" fill="#63e4e4" r="44.04"/><path d="m443.75 460a36.41 36.41 0 0 1 -1.5 4.92 37.5 37.5 0 0 1 -43.45 23.27l-97-22.25a37.52 37.52 0 1 1 16.78-73.14l97 22.24a37.53 37.53 0 0 1 28.17 44.96z" fill="#def9ff"/><path d="m442.25 464.89a37.5 37.5 0 0 1 -43.45 23.27l-97-22.25a37.46 37.46 0 0 1 -26.27-22.23 43.7 43.7 0 0 0 21.32 10.6l66.91 13.13 15.31 3c1 .21 1.92.34 2.9.49 1 .32 2 .66 3 .95a60.23 60.23 0 0 0 38.8-2.38 59.51 59.51 0 0 0 18.48-4.58z" fill="#e9fffe"/><g fill="#f5b5a9"><rect height="44.73" rx="22.36" transform="matrix(.83752804 -.54639435 .54639435 .83752804 -110.48 358.78)" width="68.42" x="513.82" y="342.8"/><rect height="35.41" rx="17.71" transform="matrix(.26 -.97 .97 .26 34.55 711.37)" width="68.42" x="445.02" y="315.55"/><rect height="62.59" rx="31.3" transform="matrix(.83752804 -.54639435 .54639435 .83752804 -97.92 343.97)" width="87.35" x="485.74" y="305.33"/><rect height="208.77" rx="46.71" transform="matrix(-.68199836 -.7313537 .7313537 -.68199836 489.08 1018.04)" width="93.41" x="419.14" y="298.31"/><rect height="44.73" rx="22.36" transform="matrix(.83752804 -.54639435 .54639435 .83752804 -110.48 358.78)" width="68.42" x="513.82" y="342.8"/></g><path d="m389.51 473.89a46.42 46.42 0 0 1 -12-24.67 46.76 46.76 0 0 0 75.72 18.08l79.36-74 5-4.67a48.46 48.46 0 0 0 4.07-4.31 21.72 21.72 0 0 0 6.38-2.85l4.05-2.65 15.77-10.29a22.18 22.18 0 0 0 7.73-8.58 22.49 22.49 0 0 0 2.41-11.1 22.34 22.34 0 0 1 -7.84 28.57l-19.85 12.94a23 23 0 0 1 -6.4 2.88 47.66 47.66 0 0 1 -4 4.27l-84.36 78.68a46.71 46.71 0 0 1 -66.04-2.3z" fill="#f8cdc5"/><path d="m254.89 322.65h49.46v57.69h-49.46z" fill="#f5b5a9" transform="matrix(.99424483 -.10713175 .10713175 .99424483 -36.05 31.98)"/><ellipse cx="325.86" cy="255.76" fill="#030303" rx="15.14" ry="30.39" transform="matrix(.99424483 -.10713175 .10713175 .99424483 -25.52 36.38)"/><path d="m251.94 325.46 1.85 17.17a70 70 0 0 0 40.37 20.57 68.23 68.23 0 0 0 11.67.68l-4.71-43.71z" fill="#f29495"/><path d="m219 264.4 5 30.24a70.11 70.11 0 0 0 80.75 57.56 42.19 42.19 0 0 0 34.62-48.57l-7.2-42.95-1.17-7.26-.45-2.67-1.32-7.92a35.13 35.13 0 0 0 -40.49-28.83l-7.5 1.26-31 5.19a37.65 37.65 0 0 0 -11.45 3.85 38.18 38.18 0 0 0 -19.79 40.1z" fill="#f5b5a9"/><path d="m228.58 264.9c9.76 19 44 20.77 76.42 4.06a105.36 105.36 0 0 0 25.52-18.21l-1.32-7.92a35.13 35.13 0 0 0 -40.46-28.83l-7.5 1.26-31 5.19a37.65 37.65 0 0 0 -11.45 3.85c-11.66 13.89-16.13 29.08-10.21 40.6z" fill="#f29495"/><circle cx="283.66" cy="284.21" fill="#1e1d1d" r="4.85"/><circle cx="317.93" cy="282.48" fill="#1e1d1d" r="4.85"/><path d="m314.07 301.26a14.43 14.43 0 0 1 -3.87 10.33c-.33.34-.66.66-1 1a14.29 14.29 0 0 1 -9.05 3.59h-.58a14.41 14.41 0 0 1 -14.8-12.73 11.69 11.69 0 0 1 -.09-1.19 2.78 2.78 0 0 1 2.7-2.88l23.8-.81a2.8 2.8 0 0 1 2.89 2.69z" fill="#962f4a"/><path d="m299.78 314a10.86 10.86 0 0 1 -.14 2.22h-.08a14.4 14.4 0 0 1 -14.79-12.73 11.46 11.46 0 0 1 15 10.51z" fill="#e1617f"/><path d="m310.65 298.58c0 2.83-4.3 5.24-9.65 5.42s-9.79-1.93-10-4.76z" fill="#fff"/><path d="m243.27 254.42h2.56a0 0 0 0 1 0 0v58.58a0 0 0 0 1 0 0h-29.57a0 0 0 0 1 0 0v-31.57a27 27 0 0 1 27.01-27.01z" fill="#030303" transform="matrix(-.99424483 .10713175 -.10713175 -.99424483 491.16 541.08)"/><circle cx="229.71" cy="299.85" fill="#f5b5a9" r="17.84"/><path d="m224.14 298.41a7.7 7.7 0 0 0 4.54 7.21 2.2 2.2 0 0 0 3-2l.25-10a2.24 2.24 0 0 0 -3.14-2.09 7.72 7.72 0 0 0 -4.65 6.88z" fill="#f29495"/><circle cx="226.13" cy="239.26" fill="#030303" r="32.19"/><path d="m194.13 242.71a32.12 32.12 0 0 0 13.8 23.09 32.18 32.18 0 0 1 40.34-49.91 32.19 32.19 0 0 0 -54.14 26.82z" fill="#1e1d1d"/><g fill="#030303"><circle cx="257.66" cy="217.29" r="43.18"/><circle cx="311.9" cy="222.19" r="43.18"/><circle cx="257.66" cy="217.29" r="43.18"/><circle cx="311.9" cy="222.19" r="43.18"/></g><g fill="#1e1d1d"><path d="m214.61 213.9a43.13 43.13 0 0 1 66.14-21.6 38.5 38.5 0 0 1 5 4.19 39.87 39.87 0 0 1 7.27-4 43.18 43.18 0 0 0 -78.42 21.37z"/><path d="m280.75 192.3a38.5 38.5 0 0 1 5 4.19 39.87 39.87 0 0 1 7.27-4 42.64 42.64 0 0 1 12.2-3.17 43.17 43.17 0 0 1 47.56 38.29 44 44 0 0 1 .12 8 43.17 43.17 0 0 0 -65.1-49.3 41.41 41.41 0 0 0 -7.05 5.99z"/><circle cx="251.61" cy="223.65" r="18.61"/></g><path d="m280.31 374.87h26.87a76.44 76.44 0 0 1 76.44 76.44v157.47a0 0 0 0 1 0 0h-139.09a0 0 0 0 1 0 0v-198.14a35.77 35.77 0 0 1 35.78-35.77z" fill="#333" transform="matrix(.99424483 -.10713175 .10713175 .99424483 -50.88 36.48)"/><rect fill="#333" height="35.06" rx="17.53" transform="matrix(.99424483 -.10713175 .10713175 .99424483 -38.92 32.71)" width="109.22" x="230.39" y="361.1"/><g fill="#030303"><path d="m483.38 881.84-11.31-247.84a39.27 39.27 0 0 1 36.93-41.46l1-.06a39.27 39.27 0 0 1 41.47 36.94l11.31 247.84a6 6 0 0 1 -5.63 6.31l-67.51 3.9a6 6 0 0 1 -6.26-5.63z"/><path d="m510.17 863.84h28.51v58.13h-28.51z" transform="matrix(.03158521 .99950106 -.99950106 .03158521 1400.29 340.49)"/><path d="m388.37 595.83h105.85a54.81 54.81 0 0 1 54.78 54.8v13.37a15.82 15.82 0 0 1 -15.82 15.82h-144.81a42 42 0 0 1 -42-42 42 42 0 0 1 42-42z" transform="matrix(-.99882313 .04850112 -.04850112 -.99882313 925.86 1253.14)"/><path d="m520.67 913.18 57.18 3.13a28.63 28.63 0 1 0 -57.18-3.13z"/><path d="m583.64 923.29.1-8.78a7.19 7.19 0 0 0 -6.67-7.25l-75.13-5.53a9 9 0 0 0 -9.65 8.87l-.18 16.25z"/><path d="m492.17 922-.06 5.27a6.08 6.08 0 0 0 6 6.15l81.29.89a9.93 9.93 0 0 0 10.05-9.82 9.94 9.94 0 0 0 -9.83-10l-22.76-.25a8.52 8.52 0 0 0 -8.62 8.43z"/></g><path d="m257.3 634.26a55.51 55.51 0 0 0 18.26 38.74 51.92 51.92 0 0 0 34.09 13.47 5.42 5.42 0 0 0 .57 0c.9 0 1.79 0 2.7-.05l102.27-5a39.85 39.85 0 0 0 28.09-13.68 42.33 42.33 0 0 0 9.72-19.89 43.39 43.39 0 0 0 .75-9.66c-.79-23.45-20.74-41.7-43.41-40.6l-154.46 7.51z" fill="#333"/><path d="m616.65 850.73h36.89v58.73h-36.89z" fill="#ffb2bf" transform="matrix(.67 .74 -.74 .67 856.39 -182.42)"/><path d="m620.68 841.59h12.12v58.73h-12.12z" fill="#f9a0b4" transform="matrix(.67456012 .73821992 -.73821992 .67456012 846.93 -179.23)"/><path d="m646.71 902.08 45.29-35.08a28.63 28.63 0 1 0 -45.28 35.05z" fill="#333"/><path d="m700.94 868.51-5.67-6.69a7.19 7.19 0 0 0 -9.79-1.13l-60.43 45a9 9 0 0 0 -1.5 13l10.5 12.41z" fill="#fdbf48"/><path d="m630.92 927.4 3.39 4a6.09 6.09 0 0 0 8.6.72l62-52.5a9.94 9.94 0 0 0 1.17-14 10 10 0 0 0 -14-1.17l-17.37 14.71a8.52 8.52 0 0 0 -1 12z" fill="#333"/><path d="m385.28 663.82 1.36 1.48 15.36 16.79 78.39 85.79 109.1 120.71a8.68 8.68 0 0 0 12.27.55l45.93-42a8.69 8.69 0 0 0 .55-12.27l-64.63-72-110.08-120.44-29.53-32.29a39.79 39.79 0 0 0 -58.75 53.68z" fill="#333"/><circle cx="286.21" cy="439.65" fill="#030303" r="44.04"/><path d="m334.52 575.46a37.5 37.5 0 0 1 -48.28-22l-34.87-93.25a37.51 37.51 0 1 1 70.28-26.21l34.87 93.23a37.52 37.52 0 0 1 -22 48.23z" fill="#302e2e"/><path d="m329.59 576.93a37.51 37.51 0 0 1 -43.35-23.46l-34.87-93.25a37.49 37.49 0 0 1 4.08-34.22 43.83 43.83 0 0 0 2.89 23.64l25.89 63.08 5.92 14.43c.37.93.77 1.8 1.19 2.69s.55 2 .88 3.06a60.21 60.21 0 0 0 23.36 31.1 59.65 59.65 0 0 0 14.01 12.93z" fill="#333"/><circle cx="333.57" cy="545.81" fill="#030303" r="53.61"/><g fill="#f5b5a9"><rect height="44.73" rx="22.36" transform="matrix(.99489833 -.10088266 .10088266 .99489833 -51.49 50.99)" width="68.42" x="444.43" y="512.45"/><rect height="35.41" rx="17.71" transform="matrix(.67094445 -.74150761 .74150761 .67094445 -209.92 476.68)" width="68.42" x="397.96" y="457.17"/><rect height="62.59" rx="31.3" transform="matrix(.99489833 -.10088266 .10088266 .99489833 -48.09 50.48)" width="87.35" x="431.53" y="469.62"/><rect height="208.77" rx="46.71" transform="matrix(-.27 -.96 .96 -.27 -17.41 1047.66)" width="93.41" x="341.69" y="426.04"/><rect height="44.73" rx="22.36" transform="matrix(.99489833 -.10088266 .10088266 .99489833 -51.49 50.99)" width="68.42" x="444.43" y="512.45"/></g><path d="m287.89 558.62a46.51 46.51 0 0 1 .67-27.43 46.77 46.77 0 0 0 59 50.84l104.44-29.3 6.6-1.85a48 48 0 0 0 5.6-2 21.81 21.81 0 0 0 7 .4l4.82-.5 18.74-1.9a22.13 22.13 0 0 0 10.8-4.07 22.53 22.53 0 0 0 7.24-8.75 22.34 22.34 0 0 1 -20.08 21.77l-23.58 2.39a23 23 0 0 1 -7-.38 47.79 47.79 0 0 1 -5.55 1.93l-111.1 31.23a46.71 46.71 0 0 1 -57.6-32.38z" fill="#f8cdc5"/><path d="m176.26 811.07h316.4a71.07 71.07 0 0 1 71.07 71.07v51.42a0 0 0 0 1 0 0h-458.54a0 0 0 0 1 0 0v-51.42a71.07 71.07 0 0 1 71.07-71.07z" fill="#7986bf"/><path d="m155.86 694.23h357.2v150.76h-357.2z" fill="#7986bf"/><rect fill="#97a6db" height="437.61" rx="26.08" transform="matrix(.98741381 -.15815807 .15815807 .98741381 -70.86 31.15)" width="99.77" x="110.35" y="241.83"/><path d="m105.48 240.33h48.72a74.82 74.82 0 0 1 74.8 74.82 74.82 74.82 0 0 1 -74.81 74.85h-66.89a0 0 0 0 1 0 0v-131.5a18.17 18.17 0 0 1 18.17-18.17z" fill="#97a6db" transform="matrix(.98741381 -.15815807 .15815807 .98741381 -47.87 28.99)"/><path d="m135.7 694.23h386a35.64 35.64 0 0 1 35.64 35.64v4.13a35.64 35.64 0 0 1 -35.64 35.64h-377.3a8.7 8.7 0 0 1 -8.7-8.7v-66.71a0 0 0 0 1 0 0z" fill="#6877af"/><path d="m157.38 604h385a17.14 17.14 0 0 1 17.14 17.14v5.86a85.18 85.18 0 0 1 -85.18 85.18h-314.4a30.87 30.87 0 0 1 -30.87-30.87v-49a28.31 28.31 0 0 1 28.31-28.31z" fill="#7986bf"/><path d="m636.73 159.67c29.07-3.91 50.78-21 48.48-38.07s-27.74-27.81-56.82-23.9c-16.21 2.19-29.42 13.77-37.93 23.6a17.26 17.26 0 0 0 3.45 25.64c10.81 7.22 26.6 14.91 42.82 12.73z" fill="#e1160c"/><path d="m709.73 252.84h63.51a0 0 0 0 1 0 0v67.49a0 0 0 0 1 0 0h-63.51a31.77 31.77 0 0 1 -31.73-31.77v-3.95a31.77 31.77 0 0 1 31.73-31.77z" fill="#efd6d8" transform="matrix(.79494435 -.60668235 .60668235 .79494435 -25.07 498.99)"/><rect fill="#d2d6fa" height="13.71" rx="6.85" width="173.54" x="435.03" y="362.01"/><path d="m796.3 204.5h6.55a0 0 0 0 1 0 0v224.41a0 0 0 0 1 0 0h-81.14a0 0 0 0 1 0 0v-149.82a74.58 74.58 0 0 1 74.59-74.59z" fill="#efd6d8" transform="matrix(.79494435 -.60668235 .60668235 .79494435 -35.83 527.42)"/><path d="m787.02 182.43h8.37v224.41h-8.37z" fill="#f7dade" transform="matrix(.79494435 -.60668235 .60668235 .79494435 -16.5 540.44)"/><path d="m779.76 368.19h81.14v49.15h-81.14z" fill="#614d63" transform="matrix(.79494435 -.60668235 .60668235 .79494435 -70.07 578.23)"/><path d="m664.62 74.55h7.67a33.17 33.17 0 0 1 33.17 33.17v40.82a43.5 43.5 0 0 1 -43.46 43.46h-.29a43.5 43.5 0 0 1 -43.5-43.5v-27.5a46.46 46.46 0 0 1 46.41-46.45z" fill="#e1160c" transform="matrix(.87706234 -.48037658 .48037658 .87706234 17.34 334.35)"/><path d="m698.13 165.94 3.94 7.5 8.48 16.19a14.71 14.71 0 1 1 -26.06 13.67l-.89-1.69-11.53-22a14.72 14.72 0 1 1 26.06-13.68z" fill="#ffb2bf"/><path d="m698.13 165.94 3.94 7.5a49.33 49.33 0 0 1 -18.47 28.17l-11.53-22a14.72 14.72 0 1 1 26.06-13.68z" fill="#f9a0b4"/><path d="m688.6 96 14 29a49.49 49.49 0 0 1 -23.08 66 38.2 38.2 0 0 1 -51-17.8l-11.72-24.3c-.07-.15-.14-.29-.21-.45-.32-.67-.61-1.34-.89-2a51.26 51.26 0 0 1 24.37-65.67c.2-.11.42-.21.62-.31l1.45-.7a34.75 34.75 0 0 1 46.46 16.23z" fill="#ffb2bf"/><path d="m675 192.85a38.19 38.19 0 0 1 -38-21.42l-11.8-24.32c-.07-.15-.13-.29-.21-.44-.31-.67-.61-1.34-.88-2a51.26 51.26 0 0 1 24.36-65.67l.63-.31 1.45-.69a30.49 30.49 0 0 1 3.81-1.56 32.81 32.81 0 0 0 -6 1 35.34 35.34 0 0 0 -6.19 2.3l-1.44.7-.64.3a51.28 51.28 0 0 0 -24.36 65.68c.28.69.58 1.36.89 2l.21.44 11.73 24.31a38.19 38.19 0 0 0 46.44 19.68z" fill="#f9a0b4"/><path d="m692.43 102.48-.19.06a3.17 3.17 0 0 0 -.4.14l-.11-.23c.27 0 .47.01.7.03z" fill="#f9e0e5"/><circle cx="648.07" cy="152.01" fill="#2c0f33" r="3.69"/><g fill="#ffb2bf"><rect height="149.42" rx="28.02" transform="matrix(-.87906683 -.47669855 .47669855 -.87906683 1179.82 920.6)" width="56.03" x="678.65" y="235.96"/><rect height="149.42" rx="28.02" transform="matrix(-.14 -.99 .99 -.14 371.85 1039.51)" width="56.03" x="610.51" y="283.14"/><ellipse cx="582.07" cy="372.34" rx="37.59" ry="29.64" transform="matrix(.53139858 -.84712192 .84712192 .53139858 -42.64 667.6)"/></g><path d="m561.45 366.32a49.29 49.29 0 0 1 2.88-4.11c7.13-9.09 16.83-14.6 26.21-15.53.77-.18 1.56-.32 2.37-.43l13.8-1.92 53.88-7.48 10.56-1.47 6.07-11.18 31.55-58.2a28 28 0 0 1 34.08-13 16.08 16.08 0 0 0 8.79.69l.28-.06a28 28 0 0 0 -47.63 2.65l-37.63 69.4-78.24 10.85c-.81.12-1.6.26-2.38.45-10.72 1.07-21.87 8.13-29.08 19.63-8.94 14.26-9.13 31-1.49 41.4-2.42-9.63-.54-21.31 5.98-31.69z" fill="#f9a0b4"/><rect fill="#614d63" height="8.4" rx="4.2" transform="matrix(-.13744455 -.99050946 .99050946 -.13744455 344.28 1021.5)" width="74.38" x="579.71" y="356.65"/><rect fill="#614d63" height="8.4" rx="4.2" transform="matrix(-.13744455 -.99050946 .99050946 -.13744455 357.72 1029.65)" width="65.28" x="594.53" y="354.88"/><ellipse cx="588.07" cy="376.1" fill="#fdc3cd" rx="15.34" ry="11.06" transform="matrix(.50708715 -.86189479 .86189479 .50708715 -34.31 692.21)"/><path d="m634.56 132.41c29.07-3.91 50.78-21 48.47-38.07s-27.73-27.81-56.81-23.89c-16.22 2.18-29.42 13.77-37.93 23.55a17.26 17.26 0 0 0 3.45 25.64c10.8 7.27 26.6 14.95 42.82 12.77z" fill="#e1160c"/><path d="m634.56 132.41c29.07-3.91 50.78-21 48.47-38.07s-27.73-27.81-56.81-23.89c-16.22 2.18-29.42 13.77-37.93 23.55a17.26 17.26 0 0 0 3.45 25.64c10.8 7.27 26.6 14.95 42.82 12.77z" fill="#e1160c"/><path d="m591.74 119.69a86.64 86.64 0 0 0 19.19 9.81 92.78 92.78 0 0 1 -11.93-6.81 17.28 17.28 0 0 1 -3.44-25.69c8.51-9.83 21.71-21.41 37.93-23.6 12.66-1.7 24.64-.63 34.3 2.52-10.56-5.38-25.51-7.67-41.57-5.52-16.22 2.23-29.43 13.82-37.93 23.6a17.28 17.28 0 0 0 3.45 25.69z" fill="#fc4942"/><g fill="#e1160c"><circle cx="668.74" cy="89.96" r="27.95"/><ellipse cx="694.31" cy="105.69" rx="20.79" ry="28.69" transform="matrix(.83224452 -.55440874 .55440874 .83224452 57.91 402.72)"/><circle cx="668.74" cy="89.96" r="27.95"/><ellipse cx="694.31" cy="105.69" rx="20.79" ry="28.69" transform="matrix(.83224452 -.55440874 .55440874 .83224452 57.91 402.72)"/></g><path d="m640.79 89.69a28 28 0 0 1 51.87 1.94 26.39 26.39 0 0 1 3.82 1.72 36.41 36.41 0 0 1 12.73 11.86 35.55 35.55 0 0 1 6.19 18.59c4.17-7.78 3-19.49-3.79-29.64a34.68 34.68 0 0 0 -16.54-13.59 28 28 0 0 0 -54.28 9.12z" fill="#d20900"/><circle cx="696.85" cy="117.34" fill="#ffb2bf" r="15.5"/><path d="m704.89 130.59a49.5 49.5 0 0 1 -25.37 60.41 38.06 38.06 0 0 1 -15.62 3.78 37.37 37.37 0 0 0 9.88-3.19 49.5 49.5 0 0 0 25.83-59c-.14-.47-.28-.94-.45-1.4a15.84 15.84 0 0 0 4.42-4 15.52 15.52 0 0 0 -11.15-24.68 15.5 15.5 0 0 1 12.46 28.11z" fill="#fdc3cd"/><path d="m701.07 114.13a6.62 6.62 0 0 0 -7-2.24 1.89 1.89 0 0 0 -.89 3l5.38 6.73a1.92 1.92 0 0 0 3.22-.37 6.62 6.62 0 0 0 -.71-7.12z" fill="#f9a0b4"/><path d="m778 434.09h114.7l-44.46 219.54a2.9 2.9 0 0 1 -2.86 2.34h-64.38a2.91 2.91 0 0 1 -2.92-2.91z" fill="#614d63"/><circle cx="835.37" cy="434.09" fill="#614d63" r="57.33"/><path d="m892.71 434.1a57.16 57.16 0 0 1 -4.52 22.35l-39.94 197.19a3 3 0 0 1 -2.87 2.34h-10l36.8-177.92 5.79-28a56.58 56.58 0 0 0 4.31-15.95 55.11 55.11 0 0 0 .41-6.84 57.13 57.13 0 0 0 -20.28-43.73 57.3 57.3 0 0 1 30.3 50.56z" fill="#68566b"/><path d="m688 189.14h34.2a6.06 6.06 0 0 1 6.06 6.06v21.46a6.06 6.06 0 0 1 -6.06 6.06h-30.32a9.89 9.89 0 0 1 -9.89-9.89v-17.64a6.06 6.06 0 0 1 6.01-6.05z" fill="#614d63" transform="matrix(.79494435 -.60668235 .60668235 .79494435 19.67 470.04)"/><path d="m716.32 178.81h2.39a6.1 6.1 0 0 1 6.1 6.1v21.37a6.1 6.1 0 0 1 -6.1 6.1 6.17 6.17 0 0 1 -6.17-6.17v-23.62a3.78 3.78 0 0 1 3.78-3.78z" fill="#68566b" transform="matrix(.79 -.61 .61 .79 28.71 476.13)"/><path d="m606.08 41.9 44.54-12a15.41 15.41 0 0 1 18.06 8.54l12 26.59a11.79 11.79 0 0 1 -7.19 16.08l-61.39 19.43a11.79 11.79 0 0 1 -15.32-10.48l-2.07-32.3a15.41 15.41 0 0 1 11.37-15.86z" fill="#614d63"/><path d="m673.47 81.12-9.72 3.08a11.68 11.68 0 0 0 -.89-2.92l-12-26.58a15.41 15.41 0 0 0 -18-8.55l-38.18 10.27a15.41 15.41 0 0 1 11.4-14.52l44.55-12a15.38 15.38 0 0 1 18 8.55l12 26.59a11.78 11.78 0 0 1 -7.16 16.08z" fill="#68566b"/><path d="m696.47 209s-30.36 4.5-36.47 51-37.66 51.88-37.66 51.88 71.44 20.37 65.66-39.58c-4-41.48 8.47-63.3 8.47-63.3z" fill="#614d63"/><path d="m782.74 655.97h52.63v267.17h-52.63z" fill="#ffb2bf"/><path d="m782.74 655.97h52.63v24.85h-52.63z" fill="#f9a0b4"/><path d="m737.62 920.54 76.8-.33a38.4 38.4 0 0 0 -76.8.33z" fill="#efd6d8"/><path d="m730.43 921.58a13.17 13.17 0 0 0 13.22 13.11l33.23-.15 65.31-.33a9 9 0 0 0 .61-17.89l-63.86-5.41-34.39-2.51a13.14 13.14 0 0 0 -14.12 13.18z" fill="#614d63"/><circle cx="772.16" cy="883.58" fill="#614d63" r="10.23"/><path d="m489.27 280.23h36.5a1.86 1.86 0 0 1 1.86 1.86v12.39a20.12 20.12 0 0 1 -20.12 20.12 20.12 20.12 0 0 1 -20.12-20.12v-12.38a1.86 1.86 0 0 1 1.88-1.87z" fill="#c4c8f2"/><path d="m523.92 283.4v11.6a16.4 16.4 0 0 1 -16.39 16.41 16.4 16.4 0 0 1 -16.41-16.41v-2.31c5.95 11.77 18.74 9.42 21 0 2.18-9.21 11.34-9.32 11.81-9.32z" fill="#e1160c"/><path d="m507 311.43a2.65 2.65 0 0 1 2.65 2.65v42.92a0 0 0 0 1 0 0h-5.3a0 0 0 0 1 0 0v-42.91a2.65 2.65 0 0 1 2.65-2.66z" fill="#c4c8f2"/><rect fill="#c4c8f2" height="4.52" rx="2.26" width="32.56" x="490.71" y="357.01"/><path d="m769.74 371.57h81.14v16.12h-81.14z" fill="#4c3a4f" transform="matrix(.79494435 -.60668235 .60668235 .79494435 -64.16 569.46)"/><path d="m835.23 349.44h8.17v16.12h-8.17z" fill="#564559" transform="matrix(.79494435 -.60668235 .60668235 .79494435 -44.78 582.52)"/><path d="m648.53 174.48a11.39 11.39 0 0 0 7.56 4.3c.36 0 .73.07 1.09.08a11.3 11.3 0 0 0 7.3-2.38l.36-.29a11.17 11.17 0 0 0 3.94-5.83 11.31 11.31 0 0 0 -1.4-9.34 8.29 8.29 0 0 0 -.55-.77 2.18 2.18 0 0 0 -1.46-.84 2.23 2.23 0 0 0 -1.63.45l-14.82 11.53a2.21 2.21 0 0 0 -.39 3.09z" fill="#962f4a"/><path d="m663.59 175a8.61 8.61 0 0 0 1.2 1.28h.05a11.36 11.36 0 0 0 2.54-15.28 8.57 8.57 0 0 0 -2.21 1.26 9 9 0 0 0 -1.58 12.74z" fill="#e1617f"/><path d="m649.25 171.13c1.44 1.71 5.25 1 8.58-1.59s4.95-6.11 3.66-7.92z" fill="#fff"/></svg>