<svg viewBox="0 0 1000 1000" xmlns="http://www.w3.org/2000/svg"><path d="m972.14 661.19v10.41a132.51 132.51 0 0 1 -63.93 113.34 127.76 127.76 0 0 1 -11.83 6.35c-.7.34-1.41.67-2.12 1a128.46 128.46 0 0 1 -15 5.71l-1.39.42a132.46 132.46 0 0 1 -38.14 5.58h-53.73a27.32 27.32 0 0 0 -27.31 27.32v101.91h-456.69v-101.91a27.26 27.26 0 0 0 -17.36-25.43c-.77-.3-1.55-.57-2.35-.81a27.18 27.18 0 0 0 -3-.68 26 26 0 0 0 -4.61-.4h-90.38c-1.43 0-2.84 0-4.26-.06a137.23 137.23 0 0 1 -32.13-4.81c-1.13-.31-2.26-.63-3.38-1a135.75 135.75 0 0 1 -20.43-8 137.24 137.24 0 0 1 -28.38-18.43q-4.53-3.81-8.71-8a137.67 137.67 0 0 1 57.52-229.07c1.12-.34 2.25-.66 3.38-1a136.81 136.81 0 0 1 35.8-4.86h106.64a35.7 35.7 0 0 0 7.29-.75l.29-.06a35.66 35.66 0 0 0 17.71-9.66 33.77 33.77 0 0 0 2.75-3.11v-.05a34.47 34.47 0 0 0 2.74-4v-.05q.58-1 1.11-2a35.55 35.55 0 0 0 3.79-15.23c0-.27 0-.54 0-.81a35.75 35.75 0 0 0 -35.76-35.75h-178.8a83.6 83.6 0 0 1 -59.11-142.75l.62-.61.26-.25a83.42 83.42 0 0 1 58.23-23.63 69.19 69.19 0 0 0 46.53-17.93c1.07-1 2.1-2 3.11-3a69 69 0 0 0 19.53-43.82c.1-1.5.15-3 .15-4.54v-70.6a27.31 27.31 0 0 1 27.31-27.32h636.57a83.62 83.62 0 0 1 80.09 59.56 84.59 84.59 0 0 1 3.52 24.05c0 2.9-.15 5.76-.43 8.58a84.6 84.6 0 0 1 -1.7 10.27 83.64 83.64 0 0 1 -81.48 64.75h-68a48.26 48.26 0 0 0 -17.39 3.21 47 47 0 0 0 -5.89 2.72 49 49 0 0 0 -18.56 17.95c-.6 1-1.17 2.07-1.7 3.14a48.22 48.22 0 0 0 -5 21.57v.29c0 1.5.09 3 .23 4.44a48.09 48.09 0 0 0 5 17.13c.39.77.8 1.53 1.23 2.27a48.63 48.63 0 0 0 42.18 24.46c.82 0 1.62 0 2.43.05h.22a62.55 62.55 0 0 1 26.12 6.88 63.2 63.2 0 0 1 29.47 32c0 .11.09.21.13.32a61.62 61.62 0 0 1 3.82 13.62 62.82 62.82 0 0 1 .82 10.15v43a41.35 41.35 0 0 0 .28 4.87 43.94 43.94 0 0 0 31 37.23l.27.08q3 .9 6.19 2c5.36 1.8 11 4 16.82 6.57l2.12 1c3.92 1.82 7.88 3.84 11.83 6.08a136.11 136.11 0 0 1 31 23.69 115.24 115.24 0 0 1 11.6 14c.84 1.19 1.65 2.4 2.45 3.63a112.89 112.89 0 0 1 13.13 28.38 137.49 137.49 0 0 1 5.67 40.4z" fill="#fffaf4"/><path d="m877.44 537.43c-17.89 175.57-166.17 312.57-346.44 312.57-181.88 0-331.21-139.43-346.92-317.22-.12-1.32-.23-2.63-.34-4h106.61a35.7 35.7 0 0 0 7.29-.75l.29-.06a35.66 35.66 0 0 0 17.71-9.66 33.77 33.77 0 0 0 2.75-3.11v-.05a34.47 34.47 0 0 0 2.74-4v-.05q.58-1 1.11-2c15.5-1.74 25-4.1 24.54-7.39-.46-3.53-8.45-6.06-20.75-7.84 0-.27 0-.54 0-.81a35.75 35.75 0 0 0 -35.76-35.75h-104.8q1.07-8.44 2.54-16.76 1.17-6.52 2.56-13c31.26.27 61 .34 61-5.16 0-7.29-32.6-11.14-56.59-13a346.86 346.86 0 0 1 11.02-33.24q3.87-10 8.32-19.7c35.84-1 73.44-1.83 104.21-3.15 39.16-1.68 67.25-4.16 66.58-8.84-.78-5.45-22.63-9.31-50.3-12-36.57-3.58-83.32-5.15-105-5.74a349.55 349.55 0 0 1 38.61-53.81 2 2 0 0 1 .19-.24c4.62-5.33 9.44-10.49 14.4-15.52 45.13-1.12 93.62-2.34 92-11.54-2.89-16.54-65-12.74-65.44-12.72q10.59-8.73 21.8-16.62 12.58-8.83 26-16.52c57.2.32 135.24 1.78 133.86-7.52-1.23-8.23-42.97-14.23-79.23-18.01a349.43 349.43 0 0 1 260.12 9c-40.53.87-89.11 3.43-93.81 10.51-5.45 8.15 73 6.69 128.21 7.15h.05q7.7 4.45 15.13 9.34c-5.4.61-9.1 1.73-8.9 4 .34 4.08 13.74 6.3 26.66 8.51 5.26 3.95 10.32 8 15.3 12.17-20.41 4-69.92 3.89-66.58 12.77 2.19 5.87 47 6.81 88.38 7.15q7.33 7.34 14.23 15 8.76 9.79 16.76 20.25h-30.84a48.26 48.26 0 0 0 -17.39 3.21 47 47 0 0 0 -5.89 2.72 49 49 0 0 0 -18.56 17.95c-.6 1-1.17 2.07-1.7 3.14a48.22 48.22 0 0 0 -5 21.57v.29c0 1.5.09 3 .23 4.44a48.09 48.09 0 0 0 5 17.13c.39.77.8 1.53 1.23 2.27a48.63 48.63 0 0 0 42.18 24.46c.82 0 1.62 0 2.43.05h.22a62.55 62.55 0 0 1 26.12 6.88 63.2 63.2 0 0 1 29.47 32c0 .11.09.21.13.32a61.62 61.62 0 0 1 3.82 13.62 62.82 62.82 0 0 1 .82 10.15v43a41.35 41.35 0 0 0 .28 4.87 43.94 43.94 0 0 0 31 37.23l.27.08q2.9.91 6.07 1.98z" fill="#f2e1d3"/><path d="m767.46 494.23c0 136.19-110.4 246.59-246.59 246.59-124.46 0-227.38-92.2-244.19-212h13.67a35.7 35.7 0 0 0 7.29-.75l.29-.06a35.66 35.66 0 0 0 17.71-9.66 33.77 33.77 0 0 0 2.75-3.11v-.05a34.47 34.47 0 0 0 2.74-4v-.05q.58-1 1.11-2c15.5-1.74 25-4.1 24.54-7.39-.46-3.53-8.45-6.06-20.75-7.84 0-.27 0-.54 0-.81a35.75 35.75 0 0 0 -35.76-35.75h-13.27a245.16 245.16 0 0 1 41.49-104c39.16-1.68 67.25-4.16 66.58-8.84-.78-5.45-22.63-9.31-50.3-12a246 246 0 0 1 186.07-84.76c136.22-.11 246.62 110.25 246.62 246.48z" fill="#e8d1c1"/><g fill="#d6af99"><circle cx="520.87" cy="494.23" r="68.99"/><path d="m520.87 666c-94.73 0-171.81-77-171.81-171.77s77.08-171.81 171.81-171.81 171.81 77.08 171.81 171.81-77.07 171.77-171.81 171.77zm0-337.62c-91.42 0-165.81 74.38-165.81 165.81s74.39 165.81 165.81 165.81 165.81-74.38 165.81-165.81-74.38-165.77-165.81-165.77z"/><path d="m520.87 643.7c-82.42 0-149.47-67.05-149.47-149.47s67.05-149.47 149.47-149.47 149.47 67.05 149.47 149.47-67.05 149.47-149.47 149.47zm0-293.72c-79.54 0-144.25 64.71-144.25 144.25s64.71 144.25 144.25 144.25 144.25-64.71 144.25-144.25-64.71-144.23-144.25-144.23z"/></g><rect fill="#a66633" height="17.61" rx="8.8" transform="matrix(-1 0 0 -1 220.39 1884.07)" width="74.06" x="73.17" y="933.23"/><rect fill="#a66633" height="17.61" rx="8.8" transform="matrix(-1 0 0 -1 1118.73 1884.07)" width="809.94" x="154.4" y="933.23"/><rect fill="#f5a491" height="71.4" rx="35.7" transform="matrix(.70710678 -.70710678 .70710678 .70710678 -229.34 423.51)" width="204.22" x="294.43" y="452.89"/><path d="m450.52 406.63a35.5 35.5 0 0 0 -18.25 9.75l-83.88 83.9a35.7 35.7 0 0 0 -25.32 11.37c.41-.46.84-.9 1.27-1.34l93.92-93.93a35.79 35.79 0 0 1 32.26-9.75z" fill="#ffc4af"/><rect fill="#f5a491" height="71.4" rx="35.7" transform="matrix(-.55 -.83 .83 -.55 575.1 1300.2)" width="194.55" x="539.62" y="459.88"/><path d="m706.52 549a35.7 35.7 0 0 1 -65.42 17.65l-68-102.69a35.73 35.73 0 0 1 1.27-41.2 35.45 35.45 0 0 0 5.86 21.76l68 102.69a35.71 35.71 0 0 0 58.29 1.79z" fill="#ef927f"/><path d="m485.61 283.28a0 0 0 0 1 0 0v39.58a26.11 26.11 0 0 1 -26.11 26.14 0 0 0 0 1 0 0v-39.61a26.11 26.11 0 0 1 26.11-26.11z" fill="#61280b" transform="matrix(-1 0 0 -1 945.1 632.25)"/><path d="m555.41 283.28a23.61 23.61 0 0 1 23.59 23.61v42.11a0 0 0 0 1 0 0 23.61 23.61 0 0 1 -23.61-23.61v-42.11a0 0 0 0 1 .02 0z" fill="#61280b"/><path d="m262.37 736.19h531.41v196.3h-531.41z" fill="#7b5649"/><path d="m639.35 932.49-222.55-196.3h222.55z" fill="#a17c74"/><path d="m610.82 871.05h-165.49l-12.84-85.63h191.17z" fill="#936e62"/><path d="m445.33 797.63h165.49v73.42h-165.49z" fill="#c9a6a1"/><path d="m465.08 830.06h125.99v8.56h-125.99z" fill="#936e62"/><rect fill="#c9a6a1" height="25.62" rx="12.81" width="183.69" x="436.23" y="889.96"/><path d="m650.31 697.46h132.5a11 11 0 0 1 11 11v224.03a0 0 0 0 1 0 0h-154.46a0 0 0 0 1 0 0v-224.07a11 11 0 0 1 10.96-10.96z" fill="#a17c74"/><path d="m272.93 697.46h132.5a11 11 0 0 1 11 11v224.03a0 0 0 0 1 0 0h-154.43a0 0 0 0 1 0 0v-224.07a11 11 0 0 1 10.93-10.96z" fill="#a17c74"/><g fill="#936e62"><path d="m416.39 877.58v54.9h-154.39v-224.06a11 11 0 0 1 11-11h26.23v62.89a117.24 117.24 0 0 0 117.16 117.27z"/><path d="m793.78 877.58v54.9h-154.42v-224.06a11 11 0 0 1 11-11h26.23v62.89a117.23 117.23 0 0 0 117.19 117.27z"/><circle cx="721.72" cy="807.54" r="64.21"/></g><circle cx="716.57" cy="812.69" fill="#a17c74" r="59.05"/><path d="m721.72 860.26a48.49 48.49 0 1 1 0-95.13 48.49 48.49 0 0 0 0 95.13z" fill="#c9a6a1"/><circle cx="716.57" cy="812.69" fill="#7b5649" r="11.28"/><circle cx="344.33" cy="807.54" fill="#936e62" r="64.21"/><circle cx="339.18" cy="812.69" fill="#a17c74" r="59.05"/><circle cx="339.18" cy="812.69" fill="#7b5649" r="11.28"/><path d="m344.33 860.26a48.49 48.49 0 1 1 0-95.13 48.49 48.49 0 0 0 0 95.13z" fill="#c9a6a1"/><circle cx="280.93" cy="711.16" fill="#d8ba9f" r="7.62"/><circle cx="282.59" cy="711.65" fill="#a17c74" r="9.28"/><circle cx="280.93" cy="711.16" fill="#c9a6a1" r="7.62"/><path d="m288.54 711.16a7.62 7.62 0 0 1 -7.62 7.61 7.14 7.14 0 0 1 -.8 0 7.62 7.62 0 0 0 0-15.15 7.14 7.14 0 0 1 .8 0 7.62 7.62 0 0 1 7.62 7.54z" fill="#936e62"/><path d="m280.93 715.33a4.28 4.28 0 0 1 -1.19.17 4.35 4.35 0 1 1 0-8.69 3.94 3.94 0 0 1 1.19.18 4.33 4.33 0 0 0 0 8.34z" fill="#a17c74"/><circle cx="397.6" cy="711.16" fill="#d8ba9f" r="7.62"/><circle cx="399.27" cy="711.65" fill="#a17c74" r="9.28"/><circle cx="397.6" cy="711.16" fill="#c9a6a1" r="7.62"/><path d="m405.21 711.16a7.61 7.61 0 0 1 -7.61 7.61 6.91 6.91 0 0 1 -.8 0 7.62 7.62 0 0 0 0-15.15 6.91 6.91 0 0 1 .8 0 7.62 7.62 0 0 1 7.61 7.54z" fill="#936e62"/><path d="m397.6 715.33a4.23 4.23 0 0 1 -1.19.17 4.35 4.35 0 0 1 0-8.69 3.9 3.9 0 0 1 1.19.18 4.33 4.33 0 0 0 0 8.34z" fill="#a17c74"/><circle cx="280.93" cy="914.19" fill="#d8ba9f" r="7.62"/><circle cx="282.59" cy="914.68" fill="#a17c74" r="9.28"/><circle cx="280.93" cy="914.19" fill="#c9a6a1" r="7.62"/><path d="m288.54 914.19a7.62 7.62 0 0 1 -7.62 7.61 7.14 7.14 0 0 1 -.8 0 7.62 7.62 0 0 0 0-15.15 7.14 7.14 0 0 1 .8 0 7.62 7.62 0 0 1 7.62 7.54z" fill="#936e62"/><path d="m280.93 918.36a4.28 4.28 0 0 1 -1.19.17 4.35 4.35 0 1 1 0-8.69 3.94 3.94 0 0 1 1.19.18 4.33 4.33 0 0 0 0 8.34z" fill="#a17c74"/><circle cx="397.6" cy="914.19" fill="#d8ba9f" r="7.62"/><circle cx="399.27" cy="914.68" fill="#a17c74" r="9.28"/><circle cx="397.6" cy="914.19" fill="#c9a6a1" r="7.62"/><path d="m405.21 914.19a7.61 7.61 0 0 1 -7.61 7.61 6.91 6.91 0 0 1 -.8 0 7.62 7.62 0 0 0 0-15.15 6.91 6.91 0 0 1 .8 0 7.62 7.62 0 0 1 7.61 7.54z" fill="#936e62"/><path d="m397.6 918.36a4.23 4.23 0 0 1 -1.19.17 4.35 4.35 0 0 1 0-8.69 3.9 3.9 0 0 1 1.19.18 4.33 4.33 0 0 0 0 8.34z" fill="#a17c74"/><circle cx="656.57" cy="711.16" fill="#d8ba9f" r="7.62"/><circle cx="658.23" cy="711.65" fill="#a17c74" r="9.28"/><circle cx="656.57" cy="711.16" fill="#c9a6a1" r="7.62"/><path d="m664.18 711.16a7.62 7.62 0 0 1 -7.62 7.61 6.91 6.91 0 0 1 -.8 0 7.62 7.62 0 0 0 0-15.15 6.91 6.91 0 0 1 .8 0 7.62 7.62 0 0 1 7.62 7.54z" fill="#936e62"/><path d="m656.57 715.33a4.3 4.3 0 0 1 -1.2.17 4.35 4.35 0 0 1 0-8.69 4 4 0 0 1 1.2.18 4.33 4.33 0 0 0 0 8.34z" fill="#a17c74"/><circle cx="773.24" cy="711.16" fill="#d8ba9f" r="7.62"/><circle cx="774.9" cy="711.65" fill="#a17c74" r="9.28"/><circle cx="773.24" cy="711.16" fill="#c9a6a1" r="7.62"/><path d="m780.85 711.16a7.62 7.62 0 0 1 -7.62 7.61 6.85 6.85 0 0 1 -.79 0 7.62 7.62 0 0 0 0-15.15 6.85 6.85 0 0 1 .79 0 7.62 7.62 0 0 1 7.62 7.54z" fill="#936e62"/><path d="m773.24 715.33a4.23 4.23 0 0 1 -1.19.17 4.35 4.35 0 1 1 0-8.69 3.9 3.9 0 0 1 1.19.18 4.33 4.33 0 0 0 0 8.34z" fill="#a17c74"/><circle cx="656.57" cy="914.19" fill="#d8ba9f" r="7.62"/><circle cx="658.23" cy="914.68" fill="#a17c74" r="9.28"/><circle cx="656.57" cy="914.19" fill="#c9a6a1" r="7.62"/><path d="m664.18 914.19a7.62 7.62 0 0 1 -7.62 7.61 6.91 6.91 0 0 1 -.8 0 7.62 7.62 0 0 0 0-15.15 6.91 6.91 0 0 1 .8 0 7.62 7.62 0 0 1 7.62 7.54z" fill="#936e62"/><path d="m656.57 918.36a4.3 4.3 0 0 1 -1.2.17 4.35 4.35 0 0 1 0-8.69 4 4 0 0 1 1.2.18 4.33 4.33 0 0 0 0 8.34z" fill="#a17c74"/><circle cx="773.24" cy="914.19" fill="#d8ba9f" r="7.62"/><circle cx="774.9" cy="914.68" fill="#a17c74" r="9.28"/><circle cx="773.24" cy="914.19" fill="#c9a6a1" r="7.62"/><path d="m780.85 914.19a7.62 7.62 0 0 1 -7.62 7.61 6.85 6.85 0 0 1 -.79 0 7.62 7.62 0 0 0 0-15.15 6.85 6.85 0 0 1 .79 0 7.62 7.62 0 0 1 7.62 7.54z" fill="#936e62"/><path d="m773.24 918.36a4.23 4.23 0 0 1 -1.19.17 4.35 4.35 0 1 1 0-8.69 3.9 3.9 0 0 1 1.19.18 4.33 4.33 0 0 0 0 8.34z" fill="#a17c74"/><path d="m422.59 476.14h196.97v148.66h-196.97z" fill="#ffdd37"/><path d="m454.26 402h133.63a56.14 56.14 0 0 1 56.11 56.15 78.19 78.19 0 0 1 -78.19 78.19h-89.49a78.19 78.19 0 0 1 -78.19-78.19 56.14 56.14 0 0 1 56.13-56.15z" fill="#ffdd37"/><path d="m619.56 476.13v148.67h-88.56v-109.8c.53-.49 1-1 1.56-1.51a78 78 0 0 0 20.83-37.31z" fill="#ffc63a"/><path d="m644 458.16a77.91 77.91 0 0 1 -22.9 55.28c-.52.52-1 1-1.56 1.51a77.85 77.85 0 0 1 -53.73 21.4h-34.81v-21.35c.53-.49 1-1 1.56-1.51a77.84 77.84 0 0 0 22.9-55.28 56.14 56.14 0 0 0 -56.16-56.21h88.59a56.14 56.14 0 0 1 56.11 56.16z" fill="#ffc63a"/><path d="m546.68 344.67v75.15a25.61 25.61 0 0 1 -51.21 0v-75.15a25.61 25.61 0 0 1 51.21 0z" fill="#f5a491"/><rect fill="#673315" height="117.94" rx="58.97" width="271.33" x="385.41" y="620.21"/><path d="m516.85 721.89h218.15a0 0 0 0 1 0 0v98a0 0 0 0 1 0 0h-218.15a49 49 0 0 1 -49-49 49 49 0 0 1 49-49z" fill="#865234" transform="matrix(-.00698126 .99997563 -.99997563 -.00698126 1376.55 174.95)"/><path d="m650.92 683c.08 1.21.12 2.44.11 3.67l-1.54 218.16-20.32-.15 1.31-185.09c0-1.23 0-2.46-.1-3.67a49 49 0 0 0 -76.85-37 49 49 0 0 1 97.39 4.08z" fill="#7a4023"/><path d="m353.22 720h218.16a0 0 0 0 1 0 0v98a0 0 0 0 1 0 0h-218.16a49 49 0 0 1 -49-49 49 49 0 0 1 49-49z" fill="#865234" transform="matrix(.00872654 .99996192 -.99996192 .00872654 1202.9 324.47)"/><rect fill="#935c41" height="30.04" rx="15.02" transform="matrix(.00872654 .99996192 -.99996192 .00872654 1160.78 328.51)" width="132.17" x="348.6" y="734.74"/><rect fill="#935c41" height="30.04" rx="15.02" transform="matrix(-.00698126 .99997563 -.99997563 -.00698126 1359.56 186.3)" width="132.17" x="521.2" y="753.13"/><path d="m488 902.13-24.77.22-1.68-190.59a49 49 0 0 0 -70.78-43.51 49 49 0 0 1 95.3 15.75z" fill="#673315"/><g fill="#f5a491"><path d="m414.56 891.18h49.22v71.98h-49.22z" transform="matrix(-.00872654 -.99996192 .99996192 -.00872654 -484.11 1374.45)"/><path d="m578.65 893.13h49.22v71.98h-49.22z" transform="matrix(-.00698126 .99997563 -.99997563 -.00698126 1536.61 332.43)"/><path d="m487.62 604a35.69 35.69 0 0 1 -28.72 35l-.87.17c-.87.16-1.74.28-2.62.36-.29 0-.59 0-.88.06l-.83.06h-.15-.79a36.75 36.75 0 0 1 -4.57-.17c-.52-.05-1-.12-1.56-.2-.79-.11-1.57-.26-2.34-.43s-1.68-.39-2.51-.64a33.7 33.7 0 0 1 -3.68-1.32 35.25 35.25 0 0 1 -5.89-3.15l-102.69-68a35.78 35.78 0 0 1 -15.64-34.88c.12-.85.27-1.69.46-2.52s.4-1.68.64-2.51a35.93 35.93 0 0 1 1.32-3.68c.17-.41.35-.82.53-1.21.37-.79.78-1.59 1.21-2.37s.91-1.54 1.41-2.31c.24-.34.46-.69.71-1a33 33 0 0 1 2.31-2.9c.2-.24.4-.46.6-.68a35.7 35.7 0 0 1 25.32-11.37 35.34 35.34 0 0 1 20.54 5.91l102.69 68a35.65 35.65 0 0 1 16 29.78z"/></g><path d="m458.9 638.93-.87.17c-.86.15-1.74.27-2.62.36-.29 0-.59 0-.88.06l-.83.06h-.15-.79a36.75 36.75 0 0 1 -4.57-.17c-.52-.05-1-.12-1.56-.2-.78-.12-1.57-.26-2.34-.43s-1.68-.39-2.51-.64a33.7 33.7 0 0 1 -3.68-1.32 35.25 35.25 0 0 1 -5.89-3.15l-102.69-68a35.78 35.78 0 0 1 -15.64-34.88c.12-.84.28-1.69.46-2.52s.4-1.68.64-2.51a35.93 35.93 0 0 1 1.32-3.68c.17-.41.35-.82.53-1.21.38-.8.78-1.59 1.21-2.37s.91-1.54 1.41-2.31c.24-.34.46-.69.71-1a33 33 0 0 1 2.31-2.9c.2-.24.4-.46.6-.68a35.7 35.7 0 0 1 25.32-11.37l-10 10c-.44.44-.87.88-1.27 1.34-.2.22-.41.44-.61.68a35.71 35.71 0 0 0 7.06 53.41l8.24 5.45 94.46 62.51a35.33 35.33 0 0 0 12.63 5.3z" fill="#ffc4af"/><path d="m546.68 344.67v67.94a54.54 54.54 0 0 1 -51.21 1.26v-69.2a25.61 25.61 0 0 1 51.21 0z" fill="#ef927f"/><path d="m489.54 971.19-91.31-4.35a45.71 45.71 0 1 1 91.31 4.35z" fill="#935c41"/><path d="m395.66 973.46 98 4.67a15.52 15.52 0 0 0 16.23-14.76 15.51 15.51 0 0 0 -16.25-16.22l-98 4.81a10.78 10.78 0 0 0 -10.22 10.24 10.77 10.77 0 0 0 10.24 11.26z" fill="#865234"/><path d="m489.54 971.19h-.32l.35-.6z" fill="#adc0fb"/><g fill="#673315"><path d="m493.63 978.13-12-.57a15.57 15.57 0 0 0 7.58-6.38h.32v-.61a15.54 15.54 0 0 0 -3.51-19.22 15.33 15.33 0 0 0 -7.26-3.48l5.47-.27 9.33-.46a15.33 15.33 0 0 1 2.72.1 15.51 15.51 0 0 1 -2.69 30.88z"/><path d="m489.54 971.19h-.32l.35-.6z"/><path d="m484.27 947.61-5.47.27-12.71.62-.22-.4a45.69 45.69 0 0 0 -32.37-23.6 45.06 45.06 0 0 1 12.56-1.14 45.64 45.64 0 0 1 38.21 24.25z"/></g><path d="m647.18 967.72-91.32-4.22a45.71 45.71 0 0 1 91.32 4.22z" fill="#935c41"/><path d="m553.3 970.12 98 4.53a15.51 15.51 0 0 0 16.21-14.77 15.52 15.52 0 0 0 -16.28-16.21l-98 5a10.76 10.76 0 0 0 -10.2 10.25 10.76 10.76 0 0 0 10.27 11.2z" fill="#865234"/><path d="m647.18 967.73h-.32c.12-.21.24-.4.35-.61z" fill="#adc0fb"/><g fill="#673315"><path d="m651.28 974.66-12-.55a15.67 15.67 0 0 0 7.57-6.39h.32v-.62a15.53 15.53 0 0 0 -10.8-22.69l5.47-.27 9.33-.48a16.22 16.22 0 0 1 2.71.1 15.51 15.51 0 0 1 -2.64 30.89z"/><path d="m647.18 967.73h-.32c.12-.21.24-.4.35-.61z"/><path d="m641.88 944.15-5.47.27-12.71.65-.22-.41a45.69 45.69 0 0 0 -32.4-23.55 45.71 45.71 0 0 1 50.8 23z"/></g><rect fill="#f5a491" height="144.75" rx="54.49" transform="matrix(1 .01 -.01 1 3.8 -5.81)" width="108.98" x="465.61" y="263.85"/><path d="m550.46 330.13a8 8 0 1 1 -16.08 0 8.7 8.7 0 0 1 .18-1.71 8 8 0 0 0 15.72 0 8.7 8.7 0 0 1 .18 1.71z" fill="#374453"/><path d="m505.82 330.13a8 8 0 1 1 -15.89-1.71 8 8 0 0 0 15.71 0 8 8 0 0 1 .18 1.71z" fill="#374453"/><path d="m589.31 343.52a21.12 21.12 0 0 1 -17.4 17.5 2.94 2.94 0 0 1 -3.45-2.89v-35.89a2.91 2.91 0 0 1 3.31-2.91 21.11 21.11 0 0 1 17.54 24.19z" fill="#f5a491"/><path d="m500.28 247h83.35a8.26 8.26 0 0 1 8.26 8.26v1.42a52.14 52.14 0 0 1 -52.14 52.14h-83.35a8.26 8.26 0 0 1 -8.26-8.26v-1.42a52.14 52.14 0 0 1 52.14-52.14z" fill="#61280b"/><path d="m489.14 259.21h63.31a6.5 6.5 0 0 1 6.5 6.5v2.1a41 41 0 0 1 -41 41h-63.31a6.5 6.5 0 0 1 -6.5-6.5v-2.1a41 41 0 0 1 41-41z" fill="#673315"/><ellipse cx="462.47" cy="605.13" fill="#f5a491" rx="39.16" ry="49.91" transform="matrix(.22069744 -.97534232 .97534232 .22069744 -229.8 922.65)"/><ellipse cx="448.14" cy="614" fill="#ffc4af" rx="19.58" ry="24.96" transform="matrix(.22069744 -.97534232 .97534232 .22069744 -249.62 915.6)"/><rect fill="#f5a491" height="71.4" rx="35.7" transform="matrix(.40322589 -.91510048 .91510048 .40322589 -28.41 928.73)" width="204.22" x="595.79" y="450.44"/><ellipse cx="728.86" cy="404.53" fill="#f5a491" rx="39.16" ry="49.91" transform="matrix(.99994333 -.01064631 .01064631 .99994333 -4.24 7.74)"/><path d="m763.63 381.8a61.63 61.63 0 0 1 .57 7.87 60.33 60.33 0 0 1 -5.26 25.65 51.72 51.72 0 0 1 -4.63 8.12c-.24.63-.49 1.26-.77 1.89l-11.61 26.34-41.93 95.21a35.71 35.71 0 0 1 -64.53 1.72 35.71 35.71 0 0 0 68.34 12.72l53.56-121.54c.28-.63.54-1.25.76-1.88 6.28-8.95 10-20.81 9.9-33.79a61.19 61.19 0 0 0 -4.4-22.31z" fill="#ffc4af"/><rect fill="#f5a491" height="71.61" rx="13.6" transform="matrix(.99789303 -.06488064 .06488064 .99789303 -21.22 47.6)" width="27.21" x="707.9" y="314.3"/><rect fill="#f5a491" height="71.61" rx="13.6" transform="matrix(.84572782 .53361452 -.53361452 .84572782 313.31 -348.76)" width="27.21" x="746.16" y="331.62"/><path d="m531.87 350.75a11.74 11.74 0 0 1 -3.58 8.3c-.27.27-.56.52-.85.76a11.8 11.8 0 0 1 -7.55 2.58h-.48a11.66 11.66 0 0 1 -6.93-2.37 11.79 11.79 0 0 1 -4.68-8.64 8 8 0 0 1 0-1 2.27 2.27 0 0 1 2.32-2.25l19.53.29a2.28 2.28 0 0 1 2.22 2.33z" fill="#962f4a"/><path d="m519.67 360.57a9.94 9.94 0 0 1 -.2 1.82h-.07a11.81 11.81 0 0 1 -11.6-11 9.05 9.05 0 0 1 2.62-.33 9.38 9.38 0 0 1 9.25 9.51z" fill="#e1617f"/><path d="m529.18 348.42c-.12 2.32-3.72 4.12-8.12 4.06s-7.94-2-8-4.3z" fill="#fff"/><path d="m527.43 359.81a11.71 11.71 0 0 1 -7.55 2.58h-.48a11.73 11.73 0 0 1 -6.92-2.38c1.19-2.42 4.18-4.11 7.65-4.05a8.38 8.38 0 0 1 7.3 3.85z" fill="#fff"/><circle cx="467.11" cy="340.19" fill="#f5a491" r="21.11"/><g fill="#936e62"><circle cx="842.39" cy="617.74" r="10.66"/><rect height="49.7" rx="4.55" transform="matrix(.95340153 .30170436 -.30170436 .95340153 219.64 -226.24)" width="9.1" x="837.7" y="573.1"/><circle cx="807.47" cy="601.82" r="10.66"/><rect height="38.76" rx="4.01" transform="matrix(.95340153 .30170436 -.30170436 .95340153 213.93 -215.9)" width="8.02" x="801.93" y="565.25"/><rect height="52.35" rx="5.23" transform="matrix(-.16212052 .98677097 -.98677097 -.16212052 1529.2 -153.24)" width="10.45" x="824.44" y="546.49"/><circle cx="432.26" cy="133.96" r="6.88"/><rect height="32.1" rx="2.94" transform="matrix(.95340153 .30170436 -.30170436 .95340153 56.69 -124.74)" width="5.88" x="429.23" y="105.13"/><circle cx="409.71" cy="123.68" r="6.88"/><rect height="25.03" rx="2.59" transform="matrix(.95340153 .30170436 -.30170436 .95340153 53.01 -118.06)" width="5.18" x="406.13" y="100.06"/><rect height="33.81" rx="3.38" transform="matrix(-.16212052 .98677097 -.98677097 -.16212052 596.22 -296.6)" width="6.75" x="420.67" y="87.94"/><circle cx="766.79" cy="109.15" r="9.11"/><rect height="42.46" rx="3.89" transform="matrix(.95340153 .30170436 -.30170436 .95340153 63.55 -227)" width="7.78" x="762.78" y="71.01"/><circle cx="736.95" cy="95.55" r="9.11"/><rect height="33.11" rx="3.42" transform="matrix(.95340153 .30170436 -.30170436 .95340153 58.67 -218.17)" width="6.85" x="732.22" y="64.31"/><rect height="44.72" rx="4.47" transform="matrix(-.16212052 .98677097 -.98677097 -.16212052 948.11 -663.84)" width="8.93" x="751.45" y="48.28"/><circle cx="221.44" cy="582.08" r="13.33"/><rect height="62.13" rx="5.69" transform="matrix(-.95340153 .30170436 -.30170436 -.95340153 601.05 1021.84)" width="11.38" x="215.93" y="526.27"/><circle cx="265.1" cy="562.18" r="13.33"/><rect height="48.45" rx="5.01" transform="matrix(-.95340153 .30170436 -.30170436 -.95340153 684.72 975.62)" width="10.02" x="262.01" y="516.46"/><rect height="65.45" rx="6.53" transform="matrix(.16212052 .98677097 -.98677097 .16212052 717.67 206.31)" width="13.07" x="230.82" y="493"/></g><g fill="#ef927f"><path d="m456.35 340.33a9.41 9.41 0 0 0 6 8.52 2.69 2.69 0 0 0 3.58-2.64l-.34-12.21a2.72 2.72 0 0 0 -3.95-2.35 9.41 9.41 0 0 0 -5.29 8.68z"/><path d="m582.63 340.33a9.4 9.4 0 0 1 -6 8.52 2.69 2.69 0 0 1 -3.58-2.64l.31-12.22a2.73 2.73 0 0 1 4-2.35 9.4 9.4 0 0 1 5.27 8.69z"/></g></svg>