<svg viewBox="0 0 1000 1000" xmlns="http://www.w3.org/2000/svg"><path d="m954.23 820.81a65.94 65.94 0 0 1 15.43 68.83 65 65 0 0 1 -2.94 6.92 65.87 65.87 0 0 1 -59.05 36.67h-824.47a65.57 65.57 0 0 1 -42-15.16q-2.37-2-4.54-4.13c-.81-.81-1.61-1.64-2.38-2.5a65.61 65.61 0 0 1 -10.1-14.88 61.13 61.13 0 0 1 -2.94-6.92 65.83 65.83 0 0 1 62-88.12h85.86a42.94 42.94 0 0 0 18-3.9 43.57 43.57 0 0 0 12.62-8.77 43.07 43.07 0 0 0 12.67-30.58 41.74 41.74 0 0 0 -.28-4.9 43.26 43.26 0 0 0 -43-38.35h-13.53a100 100 0 0 1 -22.31-2.5h-.07l-.51-.12c-.56-.12-1.11-.26-1.66-.4l-.82-.21c-.72-.19-1.44-.38-2.15-.59s-1.2-.35-1.79-.54a97.43 97.43 0 0 1 -13.12-5c-.94-.44-1.88-.89-2.8-1.37a99.21 99.21 0 0 1 -18.81-12.4q-3.48-2.9-6.68-6.1a99.62 99.62 0 0 1 -29.15-65.29q-.06-1.11-.09-2.22c0-1.09-.06-2.19-.06-3.28 0-.48 0-1 0-1.43a99.81 99.81 0 0 1 49.83-85.1 98.12 98.12 0 0 1 14.47-6.92c2.1-.81 4.23-1.54 6.39-2.21s4.59-1.31 6.93-1.84a100 100 0 0 1 22.4-2.5h73.66a44.1 44.1 0 0 0 44-41.53c.05-.85.08-1.71.08-2.58a44.08 44.08 0 0 0 -44.1-44.1h-24.56a104.49 104.49 0 0 1 -36.43-6.52 101.51 101.51 0 0 1 -12-5.35q-2.58-1.35-5.07-2.83-3.55-2.11-6.92-4.5a104.73 104.73 0 0 1 -41.78-63.14q-.18-.8-.33-1.59c-.36-1.76-.67-3.53-.93-5.33a105.67 105.67 0 0 1 -1.11-15.3c0-.4 0-.8 0-1.2a104.1 104.1 0 0 1 23.8-65.23c.94-1.14 1.91-2.27 2.9-3.37 1.26-1.42 2.57-2.8 3.91-4.14.95-1 1.92-1.89 2.91-2.79.75-.7 1.5-1.38 2.27-2a101.85 101.85 0 0 1 8.35-6.58c.86-.62 1.74-1.21 2.62-1.8 1.41-.94 2.84-1.85 4.3-2.71l.71-.42c1.43-.84 2.89-1.65 4.36-2.41a99.85 99.85 0 0 1 12-5.34 104 104 0 0 1 36.43-6.53 29.15 29.15 0 0 0 26.72-17.47 28.83 28.83 0 0 0 2.26-8.51 25.28 25.28 0 0 0 .16-2.77c0-.13 0-.26 0-.39v-20.88a49.82 49.82 0 0 1 2.06-14.23c.13-.43.26-.86.4-1.28a49.89 49.89 0 0 1 43-34.24c1.49-.13 3-.2 4.51-.2h183a49.81 49.81 0 0 1 34.53 13.86c.27.25.53.51.79.77a49.77 49.77 0 0 1 14.59 33.63v1.67s0 .95 0 1.42a49.39 49.39 0 0 0 .7 7c.08.49.18 1 .27 1.47.19.93.41 1.86.64 2.77a49.61 49.61 0 0 0 3.09 8.51c.44.94.91 1.87 1.4 2.77.23.43.47.85.72 1.27a49.27 49.27 0 0 0 5.16 7.24 48.6 48.6 0 0 0 4.6 4.7c.73.66 1.48 1.29 2.24 1.91a49.81 49.81 0 0 0 31.11 10.86h146.19c2.87 0 5.7.15 8.5.43a82.59 82.59 0 0 1 29 8.51 84.35 84.35 0 0 1 8.09 4.7 82.65 82.65 0 0 1 10.84 8.5c.39.36.79.73 1.17 1.11.87.83 1.71 1.67 2.51 2.54.32.31.61.63.9.95a.31.31 0 0 1 .1.1c.31.33.61.66.89 1 .87 1 1.71 1.94 2.52 3 .36.43.71.87 1 1.32s.67.86 1 1.3.68.9 1 1.36q.23.28.42.57c.65.92 1.28 1.85 1.89 2.8.4.63.8 1.26 1.19 1.9.68 1.12 1.33 2.26 2 3.41q1.35 2.51 2.54 5.1 1.07 2.31 2 4.7a79.49 79.49 0 0 1 2.75 8.5c.42 1.55.79 3.12 1.11 4.7a79.66 79.66 0 0 1 1.27 8.51 81.31 81.31 0 0 1 .4 8.15v68.31a54.52 54.52 0 0 0 54.52 54.52h83.06a49 49 0 0 1 23.47 5.95 49.71 49.71 0 0 1 9.7 6.92c.55.5 1.09 1 1.61 1.54a50.65 50.65 0 0 1 3.47 3.85 49.21 49.21 0 0 1 0 61.87 50.65 50.65 0 0 1 -3.47 3.85 49 49 0 0 1 -28.37 14 48.49 48.49 0 0 1 -6.41.42 30.85 30.85 0 0 0 -30.88 30.88v98.73a63.12 63.12 0 0 1 -14.4 40.24 60.91 60.91 0 0 1 -4.18 4.62 62.63 62.63 0 0 1 -9.47 7.78c-.69.48-1.39.93-2.1 1.37-1 .62-2 1.21-3.07 1.77l-1.46.77a3.37 3.37 0 0 1 -.38.19c-.49.25-1 .49-1.48.72a.48.48 0 0 1 -.18.08c-.55.26-1.1.51-1.65.74s-1.18.5-1.77.73a57.45 57.45 0 0 1 -5.63 1.93 63.24 63.24 0 0 1 -17.67 2.5 43.26 43.26 0 0 0 -43 38.35 41.74 41.74 0 0 0 -.28 4.9 43.24 43.24 0 0 0 43.26 43.25h68.52a65.65 65.65 0 0 1 46.56 19.29z" fill="#f0f3f9"/><path d="m448.53 365.81v207.68a44.79 44.79 0 0 1 -44.79 44.79h-348.12c0-1.09-.06-2.19-.06-3.28 0-.48 0-1 0-1.43a99.81 99.81 0 0 1 49.83-85.1 98.12 98.12 0 0 1 14.47-6.92c2.1-.81 4.23-1.54 6.39-2.21s4.59-1.31 6.93-1.84a100 100 0 0 1 22.4-2.5h73.66a44.1 44.1 0 0 0 44-41.53c.05-.85.08-1.71.08-2.58a44.08 44.08 0 0 0 -44.1-44.1h-24.56a104.49 104.49 0 0 1 -36.43-6.52 101.51 101.51 0 0 1 -12-5.35q-2.58-1.35-5.07-2.83-3.55-2.11-6.92-4.5a104.73 104.73 0 0 1 -41.78-63.14q-.18-.8-.33-1.59c-.36-1.76-.67-3.53-.93-5.33a105.67 105.67 0 0 1 -1.11-15.3c0-.4 0-.8 0-1.2h303.65a44.79 44.79 0 0 1 44.79 44.78z" fill="#6e8ec8"/><path d="m420.17 377.47v184.35a39.76 39.76 0 0 1 -39.76 39.76h-324a100 100 0 0 1 48.95-73.11 98.12 98.12 0 0 1 14.47-6.92c2.1-.81 4.23-1.54 6.39-2.21s4.59-1.31 6.93-1.84a100 100 0 0 1 22.43-2.5h73.66a44.1 44.1 0 0 0 44-41.53c.05-.85.08-1.71.08-2.58a44.08 44.08 0 0 0 -44.1-44.1h-24.56a104.49 104.49 0 0 1 -36.43-6.52 101.51 101.51 0 0 1 -12-5.35q-2.58-1.35-5.07-2.83-3.55-2.11-6.92-4.5a104.73 104.73 0 0 1 -41.78-63.14q-.18-.8-.33-1.59a39.51 39.51 0 0 1 19.54-5.13h258.74a39.76 39.76 0 0 1 39.76 39.74z" fill="#e9f1ff"/><path d="m971.72 441.84v61.87a50.65 50.65 0 0 1 -3.47 3.85 49 49 0 0 1 -28.37 14 48.49 48.49 0 0 1 -6.41.42 30.85 30.85 0 0 0 -30.88 30.88v65.43h-324.73a41.59 41.59 0 0 1 -41.6-41.6v-214.08a41.59 41.59 0 0 1 41.6-41.6h218v48.05a54.52 54.52 0 0 0 54.52 54.52h83.06a49 49 0 0 1 23.47 5.95 49.71 49.71 0 0 1 9.7 6.92c.55.5 1.09 1 1.61 1.54a50.65 50.65 0 0 1 3.5 3.85z" fill="#6e8ec8"/><path d="m782.69 255.78h-658.78c.94-1.14 1.91-2.27 2.9-3.37 1.26-1.42 2.57-2.8 3.91-4.14.95-1 1.92-1.89 2.91-2.79.75-.7 1.5-1.38 2.27-2h637c.32.31.61.63.9.95a.31.31 0 0 1 .1.1c.31.33.61.66.89 1 .87 1 1.71 1.94 2.52 3 .36.43.71.87 1 1.32s.67.86 1 1.3.68.9 1 1.36q.23.28.42.57c.72.82 1.35 1.75 1.96 2.7z" fill="#34629b"/><path d="m902.59 642.67v8.91a63.12 63.12 0 0 1 -14.4 40.24 60.91 60.91 0 0 1 -4.18 4.62 62.63 62.63 0 0 1 -9.47 7.78c-.69.48-1.39.93-2.1 1.37-1 .62-2 1.21-3.07 1.77l-1.46.77a3.37 3.37 0 0 1 -.38.19c-.49.25-1 .49-1.48.72a.48.48 0 0 1 -.18.08c-.55.26-1.1.51-1.65.74s-1.18.5-1.77.73a57.45 57.45 0 0 1 -5.63 1.93 63.24 63.24 0 0 1 -17.67 2.5 43.26 43.26 0 0 0 -43 38.35h-584.15a43.26 43.26 0 0 0 -43-38.35h-13.42a100 100 0 0 1 -22.31-2.5h-.07l-.51-.12c-.56-.12-1.11-.26-1.66-.4l-.82-.21c-.72-.19-1.44-.38-2.15-.59s-1.2-.35-1.79-.54a97.43 97.43 0 0 1 -13.12-5c-.94-.44-1.88-.89-2.8-1.37a99.21 99.21 0 0 1 -18.81-12.4q-3.48-2.9-6.68-6.1a100 100 0 0 1 -25.42-43.05z" fill="#6e8ec8"/><path d="m888.19 691.82a60.91 60.91 0 0 1 -4.18 4.62 62.63 62.63 0 0 1 -9.47 7.78h-764.19a99.21 99.21 0 0 1 -18.81-12.4z" fill="#f0f3f9"/><rect fill="#547dba" height="74.7" rx="35.21" width="773.05" x="86.31" y="753.37"/><path d="m154.42 828.07h636.83v110.7h-636.83z" fill="#7a98c4"/><path d="m982.66 472.77a48.94 48.94 0 0 1 -10.94 30.94 50.65 50.65 0 0 1 -3.47 3.85 49 49 0 0 1 -28.37 14 48.49 48.49 0 0 1 -6.41.42 30.85 30.85 0 0 0 -30.88 30.88v48.73h-295.71a39.76 39.76 0 0 1 -39.76-39.76v-184.36a39.76 39.76 0 0 1 39.76-39.76h189v31.35a54.52 54.52 0 0 0 54.52 54.52h83.06a49 49 0 0 1 23.47 5.95 49.71 49.71 0 0 1 9.7 6.92c.55.5 1.09 1 1.61 1.54a50.65 50.65 0 0 1 3.47 3.85 48.93 48.93 0 0 1 10.95 30.93z" fill="#e9f1ff"/><g fill="#34629b"><rect height="17.61" rx="8.8" width="74.06" x="64.39" y="933.33"/><rect height="17.61" rx="8.8" width="809.94" x="145.62" y="933.33"/><rect height="49.17" rx="8.03" width="16.07" x="325.43" y="227.42"/><path d="m329.29 264.93h8.34v72.22h-8.34z"/><path d="m333.47 414.61a41 41 0 1 1 40.94-40.95 41 41 0 0 1 -40.94 40.95zm0-73a32 32 0 1 0 32 32.05 32.09 32.09 0 0 0 -32-32.05z"/></g><path d="m308.6 617.72h8.21v48.77h-8.21z" fill="#604970"/><circle cx="312.7" cy="664.6" fill="#836b96" r="8.02"/><path d="m292.49 565.89h28.23a0 0 0 0 1 0 0v50.11a0 0 0 0 1 0 0h-28.23a15.37 15.37 0 0 1 -15.37-15.37v-19.38a15.37 15.37 0 0 1 15.37-15.36z" fill="#836b96"/><path d="m296.86 616.05h-4.37a15.37 15.37 0 0 1 -15.37-15.37v-19.43a15.37 15.37 0 0 1 15.37-15.37h4.37a15.37 15.37 0 0 0 -15.37 15.37v19.43a15.37 15.37 0 0 0 15.37 15.37z" fill="#c8b3dd"/><path d="m316.29 495.06h8.81a0 0 0 0 1 0 0v50.16a0 0 0 0 1 0 0h-28.24a15.37 15.37 0 0 1 -15.37-15.37 34.79 34.79 0 0 1 34.8-34.79z" fill="#836b96" transform="matrix(.97595482 .21797291 -.21797291 .97595482 120.64 -53.59)"/><path d="m285.42 525.87a15 15 0 0 0 -.38 3.37 15.37 15.37 0 0 0 12 15l22.09 4.93v.22l-27.55-6.16a15.36 15.36 0 0 1 -11.65-18.34 34.79 34.79 0 0 1 41.54-26.38l1.69.38a34.78 34.78 0 0 0 -37.74 26.98z" fill="#c8b3dd"/><path d="m349.29 481.16h13.81a16.46 16.46 0 0 1 16.46 16.46v114.71a16.46 16.46 0 0 1 -16.46 16.46h-60.22a16.46 16.46 0 0 1 -16.46-16.46v-68.33a62.87 62.87 0 0 1 62.87-62.84z" fill="#604970"/><path d="m356.11 481.16h7.89a15.51 15.51 0 0 1 15.51 15.51v116.61a15.51 15.51 0 0 1 -15.51 15.51h-51.61a15.51 15.51 0 0 1 -15.51-15.51v-72.89a59.23 59.23 0 0 1 59.23-59.23z" fill="#503b60"/><path d="m377.96 890.17h36.1v29.63h-36.1z" fill="#f29495"/><path d="m377.96 890.17h36.1v17.42h-36.1z" fill="#e5888c"/><path d="m378.89 915.5 21.34-1.66a22.94 22.94 0 0 1 42.2 12.48h-68.79v-5.15a5.69 5.69 0 0 1 5.25-5.67z" fill="#1c4042"/><path d="m417.12 903.49a23 23 0 0 1 20.57 22.83h4.74a23 23 0 0 0 -25.31-22.83z" fill="#467167"/><path d="m369.35 929.68a3.54 3.54 0 0 0 3.09 3.52 3.44 3.44 0 0 0 .46 0h68.43a5.49 5.49 0 0 0 .58 0 5.4 5.4 0 0 0 4.81-5.36 5.4 5.4 0 0 0 -4.81-5.36 6.18 6.18 0 0 0 -.86 0l-2.63.14-7.51.41-3.49.19-7.5.4-3.5.19-7.5.4-3.49.19-7.5.4-3.5.19-7.5.4-3.49.19-7.51.41-3.22.17h-.27a3.52 3.52 0 0 0 -2.12 1.07 3.56 3.56 0 0 0 -.97 2.45z" fill="#0e2d2d"/><g fill="#1c4042"><path d="m438.42 922.6v10.63h3.49v-10.75a6.18 6.18 0 0 0 -.86 0z"/><path d="m427.42 923.2v10.03h3.49v-10.22z"/><path d="m416.42 923.79v9.44h3.5v-9.63z"/><path d="m405.43 924.38v8.85h3.49v-9.04z"/><path d="m394.43 924.97v8.26h3.5v-8.45z"/><path d="m383.44 925.56v7.67h3.49v-7.86z"/><path d="m372.44 926.17v7.06h3.49v-7.23l-3.22.17z"/></g><path d="m272.83 919.8h36.1l3.1-12.2 4.36-17.09h-36.1l-1.35 5.29-3 11.8z" fill="#f5b5a9"/><path d="m275.94 907.6h36.09l4.36-17.09h-34.71l-2.74 5.29z" fill="#f29495"/><path d="m272.51 915.5 21.33-1.66a22.95 22.95 0 0 1 42.21 12.48h-68.8v-5.15a5.69 5.69 0 0 1 5.26-5.67z" fill="#1c4042"/><path d="m310.73 903.49a23 23 0 0 1 20.58 22.83h4.74a23 23 0 0 0 -22.95-23 23.21 23.21 0 0 0 -2.37.17z" fill="#467167"/><path d="m263 929.68a3.55 3.55 0 0 0 3.55 3.55h68.45.57a5.39 5.39 0 0 0 0-10.72 6.1 6.1 0 0 0 -.86 0l-2.63.14-7.5.41-3.5.19-7.5.4-3.49.19-7.51.4-3.49.19-7.5.4-3.49.19-7.5.4-3.5.19-7.5.41-3.22.17a1.27 1.27 0 0 0 -.28 0 3.55 3.55 0 0 0 -3.09 3.51z" fill="#0e2d2d"/><g fill="#1c4042"><path d="m332 922.6v10.63h3.49v-10.75a6.1 6.1 0 0 0 -.86 0z"/><path d="m321.03 923.2v10.03h3.5v-10.22z"/><path d="m310.04 923.79v9.44h3.49v-9.63z"/><path d="m299.04 924.38v8.85h3.5v-9.04z"/><path d="m288.05 924.97v8.26h3.49v-8.45z"/><path d="m277.05 925.56v7.67h3.5v-7.86z"/><path d="m266.05 926.17v7.06h3.5v-7.23l-3.22.17a1.27 1.27 0 0 0 -.28 0z"/></g><rect fill="#f29495" height="25.32" rx="12.66" transform="matrix(.78152047 -.6238796 .6238796 .78152047 -196.88 422.88)" width="38.73" x="486.04" y="479.91"/><rect fill="#f29495" height="35.43" rx="17.72" transform="matrix(.78152047 -.6238796 .6238796 .78152047 -190.11 412.08)" width="49.45" x="468.66" y="459.79"/><rect fill="#f4e9e9" height="93.23" rx="21.24" transform="matrix(.74279437 -.66951962 .66951962 .74279437 -246.87 417.47)" width="42.47" x="398.64" y="483.41"/><rect fill="#f29495" height="118.18" rx="26.44" transform="matrix(-.74872438 -.66288144 .66288144 -.74872438 462.88 1211.8)" width="52.88" x="434.69" y="459.08"/><path d="m520.85 480.9a12.65 12.65 0 0 1 -2.3 17.38l-10.48 8.37a12.78 12.78 0 0 1 -3.45 2 26.72 26.72 0 0 1 -2.05 2.64l-43.29 48.89a26.44 26.44 0 0 1 -37.28 2.23c-.45-.4-.89-.82-1.31-1.24a26.44 26.44 0 0 0 33.46-5.11l41.85-47.34 1.38-1.55a25.49 25.49 0 0 0 2.05-2.63 12.66 12.66 0 0 0 3.45-2l6-4.8 4.48-3.57a12.67 12.67 0 0 0 2.3-17.4v-.06a12.74 12.74 0 0 1 4.9 3.74c.09.17.19.31.29.45z" fill="#ef848a"/><rect fill="#f29495" height="93.23" rx="21.24" transform="matrix(.74279437 -.66951962 .66951962 .74279437 -246.87 417.47)" width="42.47" x="398.64" y="483.41"/><path d="m488.68 526.93-31 35a26.44 26.44 0 0 1 -41.1-1.86 25.53 25.53 0 0 1 -2.36-3.89l7.23 1.49a26.44 26.44 0 0 0 35.28-3.9l27.33-30.87z" fill="#ef848a"/><path d="m360.52 450.73h27.75v32.37h-27.75z" fill="#f5b5a9"/><path d="m377.94 899.54h35.5a5.46 5.46 0 0 0 5.45-5.57l-6-283.34a5.45 5.45 0 0 0 -5.45-5.33h-35.5a5.45 5.45 0 0 0 -5.45 5.57l6 283.33a5.45 5.45 0 0 0 5.45 5.34z" fill="#1c4042"/><path d="m384.15 899.54h-6.21a5.45 5.45 0 0 1 -5.45-5.34l-6-283.33a5.45 5.45 0 0 1 5.45-5.57h6.21a5.45 5.45 0 0 0 -5.45 5.57l6 283.33a5.45 5.45 0 0 0 5.45 5.34z" fill="#0e2d2d"/><path d="m374.4 605.3a38.55 38.55 0 0 1 38.55 38.55v13.81a0 0 0 0 1 0 0h-77.1a0 0 0 0 1 0 0v-13.81a38.55 38.55 0 0 1 38.55-38.55z" fill="#467167" transform="matrix(-1 0 0 -1 748.79 1262.96)"/><path d="m335.84 537.17h77.1v68.13h-77.1z" fill="#f6c51b" transform="matrix(-1 0 0 -1 748.79 1142.47)"/><ellipse cx="405.95" cy="416.29" fill="#503b60" rx="8.49" ry="17.05"/><path d="m312.27 522.63a40.8 40.8 0 0 0 10.83 28 35.77 35.77 0 0 0 26.16 11.58h43.61c20.43 0 37-17.7 37-39.53a40.84 40.84 0 0 0 -10.87-28 35.74 35.74 0 0 0 -26.16-11.57h-43.58c-20.43 0-36.99 17.69-36.99 39.52z" fill="#f6c51b"/><path d="m360.52 450.73v9.69a39.28 39.28 0 0 0 21.28 13.9 37.19 37.19 0 0 0 6.47 1.08v-24.67z" fill="#f29495"/><path d="m391.74 482.8h.1c1.11 0 2.22.09 3.3.2h.09a39.69 39.69 0 0 1 -4.08 79.15h-13.38a39.71 39.71 0 0 0 17.46-75.29.18.18 0 0 0 -.09 0c-1.07-.53-2.17-1-3.3-1.45h-.1z" fill="#ffd561"/><path d="m353.66 481.33v12.67h41.48v-12.67a7 7 0 0 0 -6.86-7h-27.76a7 7 0 0 0 -6.86 7z" fill="#f6c51b"/><path d="m395.14 481.33v5.48c-1.07-.53-2.17-1-3.3-1.44h-.1v-4a7 7 0 0 0 -6.86-7h3.39a7 7 0 0 1 6.87 7z" fill="#ffd561"/><path d="m315.79 899.54h-35.79a5.19 5.19 0 0 1 -5.08-6.27l61.34-288h46.4l-61.79 290.16a5.19 5.19 0 0 1 -5.08 4.11z" fill="#467167"/><path d="m342 605.3-61.8 290.14a5.14 5.14 0 0 1 -2.63 3.48 5.18 5.18 0 0 1 -2.63-5.65l61.34-288z" fill="#767687"/><path d="m342 605.3-61.8 290.14a5.14 5.14 0 0 1 -2.63 3.48 5.18 5.18 0 0 1 -2.63-5.65l61.34-288z" fill="#568276"/><path d="m345.79 414.69 1 17.17a39.36 39.36 0 0 0 41.6 37 23.66 23.66 0 0 0 22.22-25l-1.43-24.39-.24-4.13-.09-1.51-.26-4.5a19.7 19.7 0 0 0 -20.84-18.51l-4.26.25-17.58 1a21.41 21.41 0 0 0 -20.12 22.64z" fill="#f5b5a9"/><path d="m351.13 415.54c4.3 11.16 23.28 14.23 42.38 6.86a59 59 0 0 0 15.34-8.62l-.26-4.5a19.7 19.7 0 0 0 -20.84-18.51l-4.26.25-17.58 1a21.34 21.34 0 0 0 -6.62 1.46c-7.37 7.08-10.77 15.28-8.16 22.06z" fill="#f29495"/><ellipse cx="348.14" cy="422.15" fill="#604970" rx="8.49" ry="17.05"/><path d="m339.65 422.15c0 9.41 3.8 17.05 8.5 17.05a4.58 4.58 0 0 0 2.25-.61c-3.6-2-6.24-8.6-6.24-16.44a32.8 32.8 0 0 1 .41-5.26c.07-.46.16-.9.24-1.35a11 11 0 0 1 -3.61-3.22 26 26 0 0 0 -.89 3.22 32.91 32.91 0 0 0 -.66 6.61z" fill="#503b60"/><circle cx="345.75" cy="405.79" fill="#604970" r="11.17"/><path d="m334.58 405.79a11.16 11.16 0 0 0 5.73 9.75 10.82 10.82 0 0 0 4.26 1.35c.07-.46.16-.9.24-1.35a11.21 11.21 0 0 1 -5.73-9.75 11.19 11.19 0 0 1 8.92-11 11.92 11.92 0 0 0 -2.25-.22 11.17 11.17 0 0 0 -11.17 11.22z" fill="#503b60"/><circle cx="349.66" cy="435.11" fill="#f5b5a9" r="10.01"/><path d="m346.64 434a4.32 4.32 0 0 0 2.09 4.3 1.24 1.24 0 0 0 1.82-.94l.74-5.57a1.25 1.25 0 0 0 -1.62-1.36 4.34 4.34 0 0 0 -3.03 3.57z" fill="#f29495"/><circle cx="378.2" cy="427.83" fill="#1c4042" r="2.72"/><circle cx="397.45" cy="427.83" fill="#1c4042" r="2.72"/><path d="m391.54 440.07a6.62 6.62 0 0 1 -2.25 4.48l-.5.38a6.54 6.54 0 0 1 -4.26 1.19h-.26a6.55 6.55 0 0 1 -6.06-6.47c0-.18 0-.36 0-.54a1.28 1.28 0 0 1 .43-.87 1.31 1.31 0 0 1 .92-.3l10.79.8a1.26 1.26 0 0 1 1.19 1.33z" fill="#962f4a"/><path d="m384.47 445.1a4.65 4.65 0 0 1 -.17 1 6.56 6.56 0 0 1 -6.06-6.47 5.44 5.44 0 0 1 1.46-.1 5.2 5.2 0 0 1 4.77 5.57z" fill="#e1617f"/><path d="m390.12 438.7c-.14 1.28-2.19 2.15-4.61 2s-4.33-1.35-4.28-2.64z" fill="#fff"/><ellipse cx="402.72" cy="585.85" fill="#f8cdc5" rx="12.86" ry="9.44"/><circle cx="398.29" cy="496.43" fill="#fff3f3" r="4.05"/><circle cx="398.91" cy="496.79" fill="#f6c51b" r="2.96"/><path d="m400.83 497a2.75 2.75 0 0 1 0 .4 2 2 0 0 1 -3.91-.5 2.23 2.23 0 0 1 .09-.39 2 2 0 0 0 3.84.49z" fill="#fff3f3"/><path d="m396.4 496.93a2.93 2.93 0 0 1 0-.51 2.53 2.53 0 0 1 5 .64 3.66 3.66 0 0 1 -.12.5 2.53 2.53 0 0 0 -4.9-.63z" fill="#f4e9e9"/><circle cx="405.59" cy="508.67" fill="#fff3f3" r="4.05"/><circle cx="406.21" cy="509.04" fill="#f6c51b" r="2.96"/><path d="m408.13 509.29v.4a2 2 0 0 1 -3.92-.51 2.74 2.74 0 0 1 .09-.39 2 2 0 0 0 3.84.5z" fill="#fff3f3"/><path d="m403.7 509.18a2.18 2.18 0 0 1 0-.51 2.52 2.52 0 0 1 5 .64 4.05 4.05 0 0 1 -.12.5 2.53 2.53 0 0 0 -4.9-.63z" fill="#f4e9e9"/><path d="m375.93 907.86v15.51h39.87v-15a3.3 3.3 0 0 0 -3.3-3.3h-33.7a2.81 2.81 0 0 0 -2.87 2.79z" fill="#1c4042"/><path d="m312.84 908.72-3.84 13.76h-39.45l4.32-15.48a3.74 3.74 0 0 1 3.6-2.74h31.95a3.55 3.55 0 0 1 3.42 4.46z" fill="#1c4042"/><rect fill="#503b60" height="39.71" rx="19.86" width="75.59" x="342.27" y="377.25"/><path d="m417.85 397.1a19.85 19.85 0 0 1 -19.85 19.9h-5.67a19.86 19.86 0 1 0 0-39.71h5.67a19.85 19.85 0 0 1 19.85 19.81z" fill="#604970"/><rect fill="#604970" height="23.4" rx="11.7" width="44.55" x="348" y="387.54"/><path d="m472.89 255.78h13.49v678.28h-13.49z" fill="#34629b"/><rect fill="#f29495" height="17.37" rx="8.68" transform="matrix(.04030618 -.99918738 .99918738 .04030618 -11.13 917.42)" width="30.03" x="456.97" y="455.82"/><rect fill="#f29495" height="32.26" rx="14.46" transform="matrix(.04030618 -.99918738 .99918738 .04030618 -2.95 955.39)" width="51.58" x="470.05" y="463.1"/><path d="m342.58 481.51s51.42 2.63 16.49 77.49l9.29 4.94s41.83-71.69-13.5-82.4z" fill="#604970"/><g fill="#f5b5a9"><rect height="25.32" rx="12.66" transform="matrix(.86654853 .49909283 -.49909283 .86654853 354.6 -118.51)" width="38.73" x="379.53" y="591.11"/><rect height="20.05" rx="10.02" transform="matrix(.97767335 -.2101305 .2101305 .97767335 -109.19 96.34)" width="38.73" x="379.53" y="552.13"/><rect height="35.43" rx="17.72" transform="matrix(.86654853 .49909283 -.49909283 .86654853 347.55 -125.55)" width="49.45" x="383.8" y="569.34"/><rect height="84.42" rx="21.24" transform="matrix(.96487908 .26269442 -.26269442 .96487908 151.88 -68.01)" width="42.47" x="309.08" y="491.87"/><rect height="110.07" rx="26.44" transform="matrix(.343004 -.93933394 .93933394 .343004 -300.25 717.34)" width="52.88" x="336.24" y="518.27"/><rect height="25.32" rx="12.66" transform="matrix(.86654853 .49909283 -.49909283 .86654853 354.6 -118.51)" width="38.73" x="379.53" y="591.11"/><rect height="84.42" rx="21.24" transform="matrix(.96487908 .26269442 -.26269442 .96487908 151.88 -68.01)" width="42.47" x="309.08" y="491.87"/></g><path d="m357.07 513.83a21.18 21.18 0 0 1 -.75 5.59l-4.32 15.7-32.32-8.8-8.62-2.32 4.27-15.7c.15-.54.31-1.06.5-1.57.05-.15.1-.3.16-.44s.14-.37.22-.56.23-.55.36-.81.23-.48.35-.72.3-.58.46-.85.28-.48.43-.72a18.92 18.92 0 0 1 1.73-2.39l.36-.41a6.87 6.87 0 0 1 .58-.63c.2-.21.4-.41.61-.61s.41-.39.62-.58.43-.38.64-.55l.68-.53c.22-.17.45-.34.69-.5l.7-.47.73-.44c.46-.27.92-.52 1.4-.75l.11-.05.77-.35.79-.32.8-.29.82-.26c.54-.16 1.1-.3 1.66-.42s1.14-.21 1.72-.28a21.26 21.26 0 0 1 23.84 21.07z" fill="#f6c51b"/><path d="m414.28 615.39a12.67 12.67 0 0 1 -15.9 2.69l-11.61-6.69a12.38 12.38 0 0 1 -3.08-2.48 27.34 27.34 0 0 1 -3.21-1l-11.42-4.17 2.63-7.21 8.75 3.2 10.56 3.88a26.28 26.28 0 0 0 3.23.95c8.49 11.44 18.2 10.7 20.05 10.83z" fill="#f29495"/><path d="m371.69 596.57-2.63 7.21-15.44-5.63-34.48-12.59a26.45 26.45 0 0 1 -15.77-33.91c.19-.52.39-1 .62-1.52.08-.47.2-.92.33-1.4l6.74-24.73 8.66 2.36-2.87 10.53-2.05 7.54c-.13.47-.24.94-.35 1.42s-.41 1-.6 1.49a26.45 26.45 0 0 0 6 27.67 26.07 26.07 0 0 0 9.72 6.24l26.63 9.73z" fill="#f29495"/><path d="m333.24 492.75a21.11 21.11 0 0 0 -7.42 11.15l-6.09 22.41-8.67-2.31 4.27-15.7c.15-.54.31-1.06.5-1.57.05-.15.1-.3.16-.44s.14-.37.22-.56.23-.55.36-.81.23-.48.35-.72.3-.58.46-.85.28-.48.43-.72a18.92 18.92 0 0 1 1.73-2.39l.36-.41a6.87 6.87 0 0 1 .58-.63c.2-.21.4-.41.61-.61s.41-.39.62-.58.43-.38.64-.55l.68-.53c.22-.17.45-.34.69-.5l.7-.47.73-.44c.46-.27.92-.52 1.4-.75l.11-.05.77-.35.79-.32.8-.29.82-.26c.54-.16 1.1-.3 1.66-.42s1.16-.26 1.74-.33z" fill="#eab215"/><path d="m615 395.17a0 0 0 0 1 0 0v98.91a42.57 42.57 0 0 1 -42.57 42.57 0 0 0 0 1 0 0v-98.91a42.57 42.57 0 0 1 42.57-42.57z" fill="#2c2c76"/><rect fill="#3b3b9e" height="81.24" rx="4.6" width="9.21" x="581.87" y="428.58"/><circle cx="608.93" cy="408.47" fill="#2c2c76" r="17.02"/><circle cx="614.61" cy="412.19" fill="#f6c51b" r="17.02"/><g fill="#2c2c76"><circle cx="640.53" cy="415.32" r="16.64"/><circle cx="613.41" cy="422.65" r="14.19"/><circle cx="624.84" cy="414.38" r="14.19"/><circle cx="654.19" cy="424.88" r="16.64"/></g><path d="m636.84 399.09a16.65 16.65 0 0 1 18.78 9.21 16.64 16.64 0 0 1 11.84 26.62 16.65 16.65 0 0 0 -10.83-23.77 14.48 14.48 0 0 0 -2.54-.42 14.72 14.72 0 0 0 -1.38-2.42 16.64 16.64 0 0 0 -27-.6 16.61 16.61 0 0 1 11.13-8.62z" fill="#37379b"/><g fill="#ffb2bf"><path d="m702.24 403.55a16.89 16.89 0 0 1 20.46 23.86l-43.23 81.67-14.09 26.62a16.89 16.89 0 0 1 -29.86-15.8l57.32-108.3a16.83 16.83 0 0 1 9.4-8.05z"/><ellipse cx="712.09" cy="410.68" rx="22.67" ry="19.1" transform="matrix(.38477866 -.92300887 .92300887 .38477866 59.02 909.91)"/><path d="m702.24 403.55a16.89 16.89 0 0 1 20.46 23.86l-43.23 81.67-14.09 26.62a16.89 16.89 0 0 1 -29.86-15.8l57.32-108.3a16.83 16.83 0 0 1 9.4-8.05z"/><ellipse cx="712.09" cy="410.68" rx="22.67" ry="19.1" transform="matrix(.38477866 -.92300887 .92300887 .38477866 59.02 909.91)"/></g><path d="m642.55 542.72a16.79 16.79 0 0 1 -7.79-8.65 16.9 16.9 0 0 0 21.33-6.18l16.29-25.34 46.34-72.06 3.25-5.06a26.21 26.21 0 0 0 2.15-1.66 26 26 0 0 0 6-7.68c.29-.56.56-1.13.8-1.69a27.3 27.3 0 0 1 -1.22 3.64 25.75 25.75 0 0 1 -7.36 10l-42.89 81-14.07 26.66a16.9 16.9 0 0 1 -22.83 7z" fill="#f9a0b4"/><rect fill="#ffb2bf" height="33.22" rx="6.07" transform="matrix(.99757621 -.06958236 .06958236 .99757621 -27.41 49.4)" width="12.15" x="689.7" y="401.67"/><circle cx="701" cy="427" fill="#ffb2bf" r="10.48"/><path d="m601 489.58-30.38 24.85-13.3 10.88a16.93 16.93 0 1 0 21.44 26.21l15.24-12.4 1.78-1.46 26.74-21.88a16.93 16.93 0 1 0 -21.52-26.2z" fill="#f9a0b4"/><path d="m663.87 533.29v44a30.25 30.25 0 0 1 -51.5 21.09 29.59 29.59 0 0 1 -8.83-21.09v-44z" fill="#339fa1"/><path d="m663.87 522.93v37.46l-60.33-6.33v-31.13z" fill="#1c4042"/><path d="m679 525.12v1.54a20.57 20.57 0 0 1 -20.57 20.58h-44.14a20.57 20.57 0 0 1 -20.58-20.58v-1.54a42.39 42.39 0 0 1 14.61-32.12 41.8 41.8 0 0 1 3.72-2.91c.68-.47 1.36-.92 2.06-1.35a40.65 40.65 0 0 1 6.14-3.11 42.61 42.61 0 0 1 38.39 3.1l.93.59a39.35 39.35 0 0 1 4.86 3.66c.73.64 1.44 1.3 2.11 2a40.36 40.36 0 0 1 4.83 5.77 42.41 42.41 0 0 1 7.64 24.37z" fill="#339fa1"/><path d="m593.71 525.12v1.54a20.57 20.57 0 0 0 20.58 20.58h13.71a46 46 0 0 1 -15.27-57.63c-.25.16-.48.32-.72.49a39.92 39.92 0 0 0 -3.72 2.9 42.45 42.45 0 0 0 -14.61 32.12z" fill="#1c4042"/><path d="m627.12 685.86h34.21v238.27h-34.21z" fill="#ffb2bf"/><path d="m627.12 752.42h34.21v34.8h-34.21z" fill="#f9a0b4"/><path d="m688.48 925.71-40.8-.18a20.4 20.4 0 0 1 40.8.18z" fill="#f6c51b"/><path d="m692.29 926.26a7 7 0 0 1 -7 7l-17.65-.08-39-.17a4.76 4.76 0 0 1 -.32-9.51l38.24-2.87 18.26-1.33a7 7 0 0 1 7.47 6.96z" fill="#0e2d2d"/><circle cx="670.13" cy="906.08" fill="#0e2d2d" r="5.43"/><path d="m584.86 695.18h34.21v230.23h-34.21z" fill="#ffb2bf"/><path d="m584.89 761.74-.04 25.48h34.22l.04-25.48z" fill="#f9a0b4"/><path d="m619.71 930.22h-40.8a20.4 20.4 0 0 1 40.8 0z" fill="#f6c51b"/><path d="m576.08 933.23h40.66a6.69 6.69 0 0 0 6.43-6.92c0-4.09-3.27-7.29-7-6.89l-40.47 4.23a4.69 4.69 0 0 0 -4 4.78 4.64 4.64 0 0 0 4.38 4.8z" fill="#0e2d2d"/><circle cx="599.31" cy="912.77" fill="#0e2d2d" r="5.43"/><g fill="#339fa1"><path d="m603.54 571.58h60.33a0 0 0 0 1 0 0v27.74a60.33 60.33 0 0 1 -60.33 60.33 0 0 0 0 1 0 0v-88.07a0 0 0 0 1 0 0z"/><circle cx="615.69" cy="619.91" r="35.82"/><path d="m663.88 596.84v172.16a5.46 5.46 0 0 1 -5.46 5.46h-73.09a5.45 5.45 0 0 1 -5.45-5.46v-150.89c0-.73 0-1.46.11-2.17a21.19 21.19 0 0 1 20.12-19.07h1z"/></g><path d="m615.37 571.57v14.64a35.8 35.8 0 0 0 -23.66 33.7v150a4.86 4.86 0 0 0 3.27 4.59h-9.65a5.45 5.45 0 0 1 -5.45-5.46v-150.93c0-.73 0-1.46.11-2.17a16.68 16.68 0 0 1 .32-2.12c.11-.58.26-1.16.42-1.73a35.88 35.88 0 0 1 22.81-25.88v-14.64z" fill="#568276"/><path d="m603.54 571.58h60.33v9.88h-60.33z" fill="#1c4042"/><path d="m647.15 454.68.92 28.7a10.25 10.25 0 0 1 -20.48.65l-.92-28.69a10.25 10.25 0 0 1 20.48-.66z" fill="#ffb2bf"/><path d="m647.15 454.68.71 22.15a25 25 0 0 1 -20.47 1.17l-.72-22.68a10.25 10.25 0 0 1 20.48-.66z" fill="#ef92ab"/><path d="m606.82 430.74 3.68 20.53a32.1 32.1 0 0 0 37.26 25.93 24.76 24.76 0 0 0 20-28.75l-3.09-17.23-.06-.31c-.08-.48-.18-.94-.3-1.41a33.24 33.24 0 0 0 -37.79-25.21l-.45.07-1 .19a22.54 22.54 0 0 0 -18.23 26.19z" fill="#ffb2bf"/><g fill="#2c2c76"><circle cx="653.07" cy="439.6" r="2.39"/><circle cx="634.02" cy="440.77" r="2.39"/><path d="m607 439.17 43.45-9a2.79 2.79 0 0 0 2.22-2.41l.65-5.36a.56.56 0 0 1 1.08-.14l1.86 4.85a2.82 2.82 0 0 0 2.92 1.79l9-.92c-5.74-17.68-23.28-29-41.54-26l-.51.08-1.14.2a24.82 24.82 0 0 0 -4.6 1.3 25.66 25.66 0 0 0 -15.6 28.64z"/><circle cx="608.87" cy="439.6" r="13.56"/></g><circle cx="610.62" cy="445.11" fill="#ffb2bf" r="10.05"/><path d="m606.22 445.92a4.29 4.29 0 0 1 2-4.32 1.23 1.23 0 0 1 1.83.89l.88 5.51a1.25 1.25 0 0 1 -1.58 1.39 4.33 4.33 0 0 1 -3.13-3.47z" fill="#f9a0b4"/><rect fill="#f6c51b" height="49.89" rx="15.51" width="85.77" x="569.95" y="577.8"/><path d="m655.73 593.31v18.88a15.52 15.52 0 0 1 -15.51 15.51h-1.08v-15.35a15.5 15.5 0 0 0 -15.51-15.51h-53.63v-3.53a15.52 15.52 0 0 1 15.51-15.51h54.76a15.52 15.52 0 0 1 15.46 15.51z" fill="#eab215"/><rect fill="#339fa1" height="5.78" rx="2.89" width="17.49" x="605.77" y="598.8"/><rect fill="#339fa1" height="5.78" rx="1.92" width="7.75" x="610.64" y="601.69"/><path d="m568.78 521.69a16.94 16.94 0 0 0 -16 23.83l.28.6c.1.19.19.38.3.57l.12.22.22.38c.18.3.37.6.57.88s.28.41.43.61a16.61 16.61 0 0 0 1.51 1.75 6.33 6.33 0 0 0 .46.44c.16.16.32.3.49.45.36.31.74.61 1.13.9l41.07 29.85 4.64 3.33c.54.39 1.09.74 1.65 1.07a16.93 16.93 0 0 0 18.26-28.45l-45.66-33.2a16.8 16.8 0 0 0 -9.47-3.23z" fill="#ffb2bf"/><ellipse cx="616.95" cy="578.99" fill="#ffb2bf" rx="17.91" ry="22.72" transform="matrix(.99758834 -.06940825 .06940825 .99758834 -38.7 44.21)"/><path d="m554.55 528.66a17 17 0 0 1 23.65-3.74l17.53 12.74 19 13.82 9.13 6.63.09.08q.38.27.72.57l.34.28.1.08c5.31 3.67 9.15 10.53 9.71 18.63.87 12.51-6.42 23.22-16.3 23.9a14.36 14.36 0 0 1 -5.31-.63h.62c9.87-.69 17.16-11.39 16.29-23.91 0-.1 0-.21 0-.31-.63-7.94-4.43-14.67-9.66-18.28-.1-.1-.21-.19-.32-.28l-42.26-30.73a17 17 0 0 0 -23.65 3.74 17 17 0 0 0 -2.87 6.42 16.91 16.91 0 0 1 3.19-9.01z" fill="#fdc3cd"/><path d="m554.1 543.58.29.6c.09.2.19.38.29.57l.13.23.22.37c.18.3.36.6.56.89l.44.61a16.45 16.45 0 0 0 1.51 1.75c.15.15.3.3.46.44a5.12 5.12 0 0 0 .49.44 12.25 12.25 0 0 0 1.12.9l39.39 28.62 1.58 1.15a26.58 26.58 0 0 0 .66 3.38c2.58 9.84 10.16 16.76 18.59 16.17a15.92 15.92 0 0 0 11.47-6.56c-2.94 4.87-7.5 8.12-12.8 8.49-9.37.66-17.69-7.95-19.25-19.54l-41-29.8a14.28 14.28 0 0 1 -1.13-.89c-.17-.15-.34-.29-.49-.45a6.33 6.33 0 0 1 -.46-.44 16.61 16.61 0 0 1 -1.51-1.75c-.15-.2-.3-.4-.44-.61s-.38-.58-.56-.88l-.22-.38a1.67 1.67 0 0 1 -.12-.23 5.12 5.12 0 0 1 -.3-.57c-.1-.2-.19-.4-.28-.59a16.93 16.93 0 0 1 1.77-16.86l.41-.54a17 17 0 0 0 -.82 15.48z" fill="#f9a0b4"/><ellipse cx="619.03" cy="581.59" fill="#fdc3cd" rx="5.2" ry="7.15" transform="matrix(.95350679 -.30137155 .30137155 .95350679 -146.47 213.54)"/><path d="m581.87 581.59s1-33.86 27-34.35" fill="none" stroke="#eab215" stroke-linecap="round" stroke-miterlimit="10" stroke-width="4"/><path d="m636.37 588.74s9.94-47.92-32.83-40.93" fill="none" stroke="#eab215" stroke-linecap="round" stroke-miterlimit="10" stroke-width="4"/><path d="m650.14 447.35a5.73 5.73 0 0 1 -1.55 4.12c-.12.14-.26.26-.39.39a5.73 5.73 0 0 1 -3.62 1.43h-.23a5.77 5.77 0 0 1 -5.91-5.08 3.87 3.87 0 0 1 0-.48 1.09 1.09 0 0 1 .3-.8 1.13 1.13 0 0 1 .77-.35l9.51-.32a1.12 1.12 0 0 1 1.12 1.09z" fill="#962f4a"/><path d="m644.44 452.41a4.34 4.34 0 0 1 -.06.89 5.77 5.77 0 0 1 -5.91-5.08 4.83 4.83 0 0 1 1.27-.23 4.59 4.59 0 0 1 4.7 4.42z" fill="#e1617f"/><path d="m648.78 446.28c0 1.13-1.72 2.09-3.86 2.16s-3.91-.77-4-1.9z" fill="#fff"/><g fill="#34629b"><rect height="49.17" rx="8.03" width="16.07" x="716.46" y="227.42"/><path d="m720.32 264.93h8.34v72.22h-8.34z"/><path d="m724.49 414.61a41 41 0 1 1 41-40.95 41 41 0 0 1 -41 40.95zm0-73a32.05 32.05 0 1 0 32.06 32.05 32.08 32.08 0 0 0 -32.06-32.05z"/></g><g fill="#ffb2bf"><rect height="23.38" rx="5.37" transform="matrix(.85913858 .511743 -.511743 .85913858 300.84 -307.01)" width="11.01" x="702.62" y="381.3"/><rect height="26.74" rx="5.51" transform="matrix(.85913858 .511743 -.511743 .85913858 304.29 -311.49)" width="11.01" x="712.49" y="383.66"/><rect height="23.38" rx="5.42" transform="matrix(.68873429 .72501385 -.72501385 .68873429 520.04 -401.1)" width="10.84" x="721.68" y="393.34"/></g></svg>