<svg viewBox="0 0 1000 1000" xmlns="http://www.w3.org/2000/svg"><path d="m972.14 661.19v10.41a132.51 132.51 0 0 1 -63.93 113.34 127.76 127.76 0 0 1 -11.83 6.35c-.7.34-1.41.67-2.12 1a128.46 128.46 0 0 1 -15 5.71l-1.39.42a132.46 132.46 0 0 1 -38.14 5.58h-53.73a27.32 27.32 0 0 0 -27.31 27.32v101.91h-456.69v-101.91a27.26 27.26 0 0 0 -17.36-25.43c-.77-.3-1.55-.57-2.35-.81a27.18 27.18 0 0 0 -3-.68 26 26 0 0 0 -4.61-.4h-90.38c-1.43 0-2.84 0-4.26-.06a137.23 137.23 0 0 1 -32.13-4.81c-1.13-.31-2.26-.63-3.38-1a135.75 135.75 0 0 1 -20.43-8 137.24 137.24 0 0 1 -28.38-18.43q-4.53-3.81-8.71-8a137.67 137.67 0 0 1 57.52-229.07c1.12-.34 2.25-.66 3.38-1a137.34 137.34 0 0 1 36.39-4.87h106.05a35.7 35.7 0 0 0 7.29-.75l.29-.06a35.66 35.66 0 0 0 17.71-9.66 33.77 33.77 0 0 0 2.75-3.11v-.05a34.47 34.47 0 0 0 2.74-4v-.05a35.75 35.75 0 0 0 -30.85-53.83h-178.81a83.6 83.6 0 0 1 -59.11-142.7l.62-.61.26-.25a83.42 83.42 0 0 1 58.23-23.63 69.19 69.19 0 0 0 46.53-17.93c1.07-1 2.1-2 3.11-3a69 69 0 0 0 19.53-43.82c.1-1.5.15-3 .15-4.54a97.92 97.92 0 0 1 97.92-97.92h566a83.62 83.62 0 0 1 80.09 59.56 84.59 84.59 0 0 1 3.52 24.05c0 2.9-.15 5.76-.43 8.58a84.6 84.6 0 0 1 -1.7 10.27 83.64 83.64 0 0 1 -81.48 64.75h-68a48.26 48.26 0 0 0 -17.39 3.21 47 47 0 0 0 -5.89 2.72 49 49 0 0 0 -18.56 17.95c-.6 1-1.17 2.07-1.7 3.14a48.22 48.22 0 0 0 -5 21.57v.29c0 1.5.09 3 .23 4.44a48.09 48.09 0 0 0 5 17.13c.39.77.8 1.53 1.23 2.27a48.63 48.63 0 0 0 42.18 24.46c.82 0 1.62 0 2.43.05h.22a62.55 62.55 0 0 1 26.12 6.88 63.2 63.2 0 0 1 29.47 32c0 .11.09.21.13.32a61.62 61.62 0 0 1 3.82 13.62 62.82 62.82 0 0 1 .82 10.15v43a41.35 41.35 0 0 0 .28 4.87 43.94 43.94 0 0 0 31 37.23l.27.08a190 190 0 0 1 23 8.54l2.12 1c3.92 1.82 7.88 3.84 11.83 6.08a136.11 136.11 0 0 1 31 23.69 115.24 115.24 0 0 1 11.6 14c.84 1.19 1.65 2.4 2.45 3.63a112.89 112.89 0 0 1 13.13 28.38 137.49 137.49 0 0 1 5.64 40.43z" fill="#fffaf4"/><path d="m636.1 574.74h-28.94l-8.41-93.83a4.25 4.25 0 0 1 4.23-4.63h20.42a4.25 4.25 0 0 1 4.23 3.87z" fill="#f9e7d9"/><circle cx="617.22" cy="523.63" fill="#efd6c5" r="8.82"/><path d="m574.89 476.28h18.4a5.27 5.27 0 0 1 5.27 5.27v93.19a0 0 0 0 1 0 0h-28.94a0 0 0 0 1 0 0v-93.19a5.27 5.27 0 0 1 5.27-5.27z" fill="#f9e7d9"/><circle cx="584.09" cy="523.63" fill="#efd6c5" r="8.82"/><rect fill="#f9e7d9" height="98.45" rx="5.45" transform="matrix(0 1 -1 0 1320.15 -199.61)" width="28.94" x="745.41" y="511.04"/><circle cx="761.76" cy="560.27" fill="#efd6c5" r="8.82"/><rect fill="#f9e7d9" height="98.45" rx="5.45" transform="matrix(0 1 -1 0 1303.57 -240.92)" width="28.94" x="757.77" y="482.1"/><circle cx="774.13" cy="531.33" fill="#efd6c5" r="8.82"/><rect fill="#f9e7d9" height="40.46" rx="5.5" width="51.95" x="644.15" y="647.41"/><circle cx="670.13" cy="667.64" fill="#e8d1c1" r="10.5"/><circle cx="664.88" cy="667.64" fill="#d3aa94" r="1.07"/><circle cx="675.92" cy="667.64" fill="#d3aa94" r="1.07"/><g fill="#f9e7d9"><path d="m950.84 588.79h-396.41v-14h384.81a115.24 115.24 0 0 1 11.6 14z"/><path d="m746.66 376.84h-192.23v-14h180.1a48.7 48.7 0 0 0 12.13 14z"/><path d="m546.84 263a7.59 7.59 0 0 1 7.59 7.59v662.64a0 0 0 0 1 0 0h-15.18a0 0 0 0 1 0 0v-662.68a7.59 7.59 0 0 1 7.59-7.55z"/></g><rect fill="#f2e1d3" height="23.42" rx="2.7" width="55.69" x="631.46" y="185.97"/><rect fill="#f9eee4" height="23.42" rx="2.7" width="55.69" x="593.27" y="218.33"/><rect fill="#f9eee4" height="23.42" rx="2.7" width="55.69" x="523.68" y="218.33"/><rect fill="#f9e7d9" height="23.42" rx="2.7" width="55.69" x="668.02" y="218.33"/><rect fill="#f9e7d9" height="23.42" rx="2.7" width="55.69" x="561.33" y="251.25"/><rect fill="#f2e1d3" height="23.42" rx="2.7" width="55.69" x="230.11" y="638.42"/><rect fill="#f9eee4" height="23.42" rx="2.7" width="55.69" x="191.92" y="670.77"/><rect fill="#f9eee4" height="23.42" rx="2.7" width="55.69" x="122.33" y="670.77"/><rect fill="#f9e7d9" height="23.42" rx="2.7" width="55.69" x="266.66" y="670.77"/><rect fill="#f9e7d9" height="23.42" rx="2.7" width="55.69" x="159.98" y="703.7"/><rect fill="#f2e1d3" height="21.16" rx="2.44" width="50.31" x="117.8" y="325.16"/><rect fill="#f9eee4" height="21.16" rx="2.44" width="50.31" x="83.3" y="354.39"/><rect fill="#f9e7d9" height="21.16" rx="2.44" width="50.31" x="150.83" y="354.39"/><rect fill="#f2e1d3" height="21.16" rx="2.44" width="50.31" x="775.41" y="683.25"/><rect fill="#f9eee4" height="21.16" rx="2.44" width="50.31" x="740.91" y="712.49"/><rect fill="#f9e7d9" height="21.16" rx="2.44" width="50.31" x="808.44" y="712.49"/><rect fill="#a66633" height="17.61" rx="8.8" transform="matrix(-1 0 0 -1 220.39 1884.07)" width="74.06" x="73.17" y="933.23"/><rect fill="#a66633" height="17.61" rx="8.8" transform="matrix(-1 0 0 -1 1118.73 1884.07)" width="809.94" x="154.4" y="933.23"/><rect fill="#dee4eb" height="163.51" rx="32.54" transform="matrix(-.76300688 .64639036 -.64639036 -.76300688 1001.27 323.03)" width="65.09" x="408.87" y="263.32"/><rect fill="#ef927f" height="41.89" rx="8.18" transform="matrix(.17347629 .98483805 -.98483805 .17347629 856.25 -316.18)" width="16.37" x="608.32" y="331.12"/><path d="m630.49 357.91-25.12 4.43a7.67 7.67 0 0 1 -1.43.12 8.11 8.11 0 0 1 -4.18-1.16 6.81 6.81 0 0 0 1 .07 7.58 7.58 0 0 0 1.42-.13l25.13-4.43a8.19 8.19 0 0 0 6.64-9.48 8.11 8.11 0 0 0 -3.87-5.6 8.18 8.18 0 0 1 .39 16.18z" fill="#ef927f"/><circle cx="479.09" cy="379.79" fill="#004393" r="36.82"/><rect fill="#f0a284" height="157.55" rx="28.54" transform="matrix(.3385737 .94093988 -.94093988 .3385737 692.66 -257.48)" width="57.09" x="500.93" y="285.16"/><ellipse cx="586.96" cy="344.1" fill="#f0a284" rx="36.39" ry="29.46" transform="matrix(.98917011 -.14677364 .14677364 .98917011 -44.14 89.86)"/><rect fill="#e28f79" height="157.55" rx="28.54" transform="matrix(.3385737 .94093988 -.94093988 .3385737 692.66 -257.48)" width="57.09" x="500.93" y="285.16"/><ellipse cx="586.96" cy="344.1" fill="#f0a284" rx="36.39" ry="29.46" transform="matrix(.98917011 -.14677364 .14677364 .98917011 -44.14 89.86)"/><path d="m623 338.77a24.17 24.17 0 0 0 -2.71-8c-1.75 7.89-7.3 15-15.2 19.84a43.26 43.26 0 0 1 -16.15 5.77 45.53 45.53 0 0 1 -4.6.44l-24.07 8.67-70.74 25.45a28.5 28.5 0 0 1 -35.44-14.64 28.24 28.24 0 0 0 1.3 14.35 28.52 28.52 0 0 0 36.52 17.2l94.53-34a1.7 1.7 0 0 0 .24-.09 46.55 46.55 0 0 0 4.65-.45c19.83-3.01 34.02-18.46 31.67-34.54z" fill="#ef927f"/><g fill="#f0a284"><rect height="41.89" rx="8.18" transform="matrix(.25021103 .96819133 -.96819133 .25021103 788.81 -347.65)" width="16.37" x="610.69" y="314.54"/><rect height="41.89" rx="8.18" transform="matrix(.17347629 .98483805 -.98483805 .17347629 816.89 -329.39)" width="16.37" x="596.51" y="301.07"/><rect height="41.89" rx="8.18" transform="matrix(.62169475 .78325962 -.78325962 .62169475 468.74 -329.58)" width="16.37" x="567.36" y="299.51"/><circle cx="565.36" cy="338.28" r="16.88"/></g><path d="m369.61 153.13h22a10.9 10.9 0 0 1 10.9 10.9v8.34a28.55 28.55 0 0 1 -28.51 28.55 4.36 4.36 0 0 1 -4.36-4.36v-43.43a0 0 0 0 1 -.03 0z" fill="#004393"/><g fill="#9a463b"><rect height="24.52" rx="12.26" width="210.64" x="324.63" y="542.68"/><path d="m413.24 549.18-8.41 24-14.81 42.27-72.22 204.89-39.69 112.59h-30.7l28.29-112.59 51.48-204.89 11.36-42.27 6.45-24z"/><path d="m521.79 549.18-1.37 24-2.41 42.27-14.45 204.89-7.95 112.59h-30.7l-3.45-112.59-6.29-204.89-1.05-42.27-.59-24z"/><path d="m393.85 397.93h96.34a4.22 4.22 0 0 1 4.22 4.22 30.75 30.75 0 0 1 -30.75 30.75h-100.56a0 0 0 0 1 0 0v-4.22a30.75 30.75 0 0 1 30.75-30.75z"/><rect height="158.75" rx="17.03" width="34.05" x="406.77" y="408.46"/><path d="m317.43 315.87h64.57a46.75 46.75 0 0 1 46.75 46.75v134.77a46.75 46.75 0 0 1 -46.75 46.75h-111.32a0 0 0 0 1 0 0v-181.51a46.75 46.75 0 0 1 46.75-46.76z"/></g><path d="m275.7 820.34h42.1l-39.69 112.59h-30.7z" fill="#6f232d"/><path d="m503.56 820.34-7.95 112.59h-30.7l-3.45-112.59z" fill="#6f232d"/><path d="m468.65 736.47h36.69v58.41h-36.69z" fill="#f0a284" transform="matrix(.04065496 .99917325 -.99917325 .04065496 1232.21 247.92)"/><path d="m480.46 724.16h12.06v58.41h-12.06z" fill="#ef927f" transform="matrix(.04065496 .99917325 -.99917325 .04065496 1219.44 236.62)"/><path d="m481.75 789.84 56.91 2.33a28.48 28.48 0 0 0 -56.91-2.33z" fill="#fff"/><path d="m544.51 799v-8.72a7.16 7.16 0 0 0 -6.73-7.13l-74.78-4.44a8.93 8.93 0 0 0 -9.47 8.95v16.16z" fill="#004393"/><path d="m453.52 799v8a3.25 3.25 0 0 0 3.26 3.25l83.65-.22a9.88 9.88 0 0 0 9.86-9.91 9.88 9.88 0 0 0 -9.91-9.86l-22.64.06a8.48 8.48 0 0 0 -8.46 8.5z" fill="#108fd4"/><path d="m386.55 666.86h28.36v57.82h-28.36z" fill="#ef927f" transform="matrix(.57100017 -.82094994 .82094994 .57100017 -399.28 627.45)"/><path d="m385.7 709.73 43.78 36.43a28.48 28.48 0 1 0 -43.78-36.43z" fill="#efdadc"/><path d="m430 755.17 5.29-6.95a7.16 7.16 0 0 0 -1-9.75l-56.69-49a8.94 8.94 0 0 0 -13 1.35l-9.78 12.86z" fill="#004393"/><path d="m357.71 699.85-5 6.58a3 3 0 0 0 .57 4.22l66.72 50.81a9.89 9.89 0 0 0 13.85-1.88 9.88 9.88 0 0 0 -1.85-13.85l-18-13.73a8.48 8.48 0 0 0 -11.88 1.62z" fill="#013568"/><path d="m559.77 470.73a39.42 39.42 0 0 1 9.86 54.87l-128 184-64.73-45 128-184a39.4 39.4 0 0 1 54.87-9.87z" fill="#004393"/><path d="m535.41 542.68h-105.28a54.5 54.5 0 0 1 -54.51-54.51v-13.3a15.73 15.73 0 0 1 15.73-15.73h144.06a41.78 41.78 0 0 1 41.78 41.77 41.78 41.78 0 0 1 -41.78 41.77z" fill="#004393"/><rect fill="#fff" height="205.21" rx="28.07" transform="matrix(-.99999925 .00122173 -.00122173 -.99999925 706.53 771.6)" width="127.03" x="289.52" y="283.4"/><path d="m340.68 266.07h32.43a66.56 66.56 0 0 1 66.56 66.56v6.52a40.71 40.71 0 0 1 -40.67 40.7h-84.17a40.71 40.71 0 0 1 -40.71-40.71v-6.52a66.56 66.56 0 0 1 66.56-66.56z" fill="#fff" transform="matrix(-.99999925 .00122173 -.00122173 -.99999925 714.18 645.5)"/><path d="m368.61 262.43v3.63l-44.28.05-.03-22.23-.01-21.07 44.27-.05z" fill="#f0a284"/><path d="m289.55 488.17a54.52 54.52 0 0 0 51.16 54.4h.59c.91 0 1.83.07 2.76.07h105.29a41.71 41.71 0 0 0 41.76-41.11c.36-23.34-19.21-42.43-42.55-42.43h-159z" fill="#108fd4"/><path d="m412.15 504.1.27 2 3.07 22.41 15.71 114.49 15.69 114.31 78.42-10.76-6.77-49.35-22.06-160.76-5.92-43.1a39.48 39.48 0 0 0 -18.35-28.26 37.63 37.63 0 0 0 -3.8-2.07 39.57 39.57 0 0 0 -56.26 41.09z" fill="#108fd4"/><path d="m368.61 262.43c-1 .08-2.05.11-3.09.09a56.72 56.72 0 0 1 -41.22-18.64v-21.07l44.27-.05z" fill="#ef927f"/><path d="m395.09 167.23-.14 8.71-.66 41.29a34.24 34.24 0 0 1 -34.75 33.67 56.9 56.9 0 0 1 -56-57.78l.4-24.87a31 31 0 0 1 31.45-30.46l31.63.5a28.49 28.49 0 0 1 28.07 28.94z" fill="#f0a284"/><path d="m395.09 167.23-.14 8.71a87.85 87.85 0 0 1 -31.11 5.37c-30 0-54.35-13.37-54.55-29.92a30.91 30.91 0 0 1 26.13-13.6l31.63.5a28.49 28.49 0 0 1 28.04 28.94z" fill="#ef927f"/><g fill="#db8d5c"><path d="m317.93 425.49v124.69a17 17 0 0 1 -34.06 0v-124.69a16.64 16.64 0 0 1 1.2-6.25 17 17 0 0 1 31.67 0 16.83 16.83 0 0 1 1.19 6.25z"/><path d="m346.51 549.18-6.32 18.03-2.09 5.97-9.75 27.83-5.06 14.44-72.22 204.89-39.69 112.59h-30.7l28.3-112.59 51.48-204.89 3.88-14.44 7.47-27.83 1.61-5.97 4.84-18.03z"/><path d="m455.07 549.18-1.03 18.03-.34 5.97-1.6 27.83-.81 14.44-14.46 204.89-7.95 112.59h-30.7l-3.44-112.59-6.28-204.89-.37-14.44-.68-27.83-.16-5.97-.44-18.03z"/><rect height="34.25" rx="14.49" width="210.64" x="257.9" y="532.95"/></g><rect fill="#f1a873" height="20.02" rx="9.51" width="155.21" x="285.62" y="540.07"/><g fill="#cb7748"><path d="m273.42 567.21h66.77l-2.09 5.97-9.75 27.83h-64.01z"/><path d="m454.04 567.21-.34 5.97-1.6 27.83h-64.01l-.68-27.83-.16-5.97z"/><path d="m317.93 425.49v28.71h-34.06v-28.71a16.64 16.64 0 0 1 1.2-6.25h31.67a16.83 16.83 0 0 1 1.19 6.25z"/><path d="m251.07 820.34-39.69 112.59h-30.7l28.3-112.59z"/><path d="m436.83 820.34-7.95 112.59h-30.7l-3.44-112.59z"/></g><path d="m271 397.93h96.34a4.22 4.22 0 0 1 4.22 4.22 30.75 30.75 0 0 1 -30.75 30.75h-100.61a0 0 0 0 1 0 0v-4.22a30.75 30.75 0 0 1 30.8-30.75z" fill="#db8d5c"/><path d="m371.51 397.93v4.22a30.74 30.74 0 0 1 -30.74 30.75h-48a30.75 30.75 0 0 0 30.75-30.75v-4.22z" fill="#e9a06d"/><path d="m574.37 578.89h141.87v38.41h-141.87z" fill="#cb7748"/><path d="m752.9 934.65h-14.12l-12.36-114.31-44.3-409.98-2.52-23.35h31.38l1.79 23.35 31.38 409.98z" fill="#db8d5c"/><path d="m609.66 387.01-2.8 23.35-49.16 409.98-13.71 114.31h-15.66l9.71-114.31 34.81-409.98 1.99-23.35z" fill="#db8d5c"/><path d="m574.84 387.01h34.82l-2.8 23.35h-34.01z" fill="#cb7748"/><path d="m712.77 410.36h-30.65l-2.52-23.35h31.38z" fill="#cb7748"/><rect fill="#db8d5c" height="24.86" rx="9.95" width="187.36" x="551.24" y="375.36"/><path d="m538.04 820.34h19.66l-13.71 114.31h-15.66z" fill="#cb7748"/><path d="m752.9 934.65h-14.12l-12.36-114.31h17.73z" fill="#cb7748"/><path d="m728.55 752c-1.34 0-2.51-1.52-2.72-3.65l-22.62-236c-.23-2.35.81-4.53 2.31-4.88s2.9 1.27 3.12 3.61l22.63 236c.22 2.34-.81 4.52-2.31 4.87a1.48 1.48 0 0 1 -.41.05z" fill="#f1a873"/><path d="m556.34 752c1.34 0 2.51-1.52 2.72-3.65l22.62-236c.23-2.35-.81-4.53-2.31-4.88s-2.9 1.27-3.12 3.61l-22.63 236c-.22 2.34.81 4.52 2.31 4.87a1.48 1.48 0 0 0 .41.05z" fill="#f1a873"/><g fill="#dee4eb"><path d="m606.4 362.45h4.21a4 4 0 0 1 4 4v2.34a0 0 0 0 1 0 0h-12.24a0 0 0 0 1 0 0v-2.34a4 4 0 0 1 4.03-4z"/><path d="m594.14 362.45h4.21a4 4 0 0 1 4 4v2.34a0 0 0 0 1 0 0h-12.23a0 0 0 0 1 0 0v-2.34a4 4 0 0 1 4.02-4z"/><path d="m581.89 362.45h4.21a4 4 0 0 1 4 4v2.34a0 0 0 0 1 0 0h-12.24a0 0 0 0 1 0 0v-2.34a4 4 0 0 1 4.03-4z"/><path d="m569.63 362.45h4.21a4 4 0 0 1 4 4v2.34a0 0 0 0 1 0 0h-12.24a0 0 0 0 1 0 0v-2.34a4 4 0 0 1 4.03-4z"/><path d="m557.37 362.45h4.21a4 4 0 0 1 4 4v2.34a0 0 0 0 1 0 0h-12.23a0 0 0 0 1 0 0v-2.34a4 4 0 0 1 4.02-4z"/><path d="m545.12 362.45h4.21a4 4 0 0 1 4 4v2.34a0 0 0 0 1 0 0h-12.24a0 0 0 0 1 0 0v-2.34a4 4 0 0 1 4.03-4z"/><path d="m532.86 362.45h4.21a4 4 0 0 1 4 4v2.34a0 0 0 0 1 0 0h-12.24a0 0 0 0 1 0 0v-2.34a4 4 0 0 1 4.03-4z"/></g><rect fill="#004393" height="11.95" rx="5.98" width="167.45" x="492.54" y="363.4"/><path d="m613.86 375.36h139.72a12.78 12.78 0 0 0 12.42-9.66l27.23-108.2a12.78 12.78 0 0 0 -12.4-15.9h-123.34a12.77 12.77 0 0 0 -12.39 9.66z" fill="#108fd4"/><path d="m793.21 257.51-27.21 108.19a12.78 12.78 0 0 1 -12.4 9.66h-139.73l3-12h110.39a12.8 12.8 0 0 0 12.41-9.66l27.22-108.19a12.72 12.72 0 0 0 .36-4h13.56a12.79 12.79 0 0 1 12.4 16z" fill="#004393"/><circle cx="712.28" cy="312.06" fill="#dee4eb" r="6.99"/><path d="m721.65 322.53a13.7 13.7 0 1 1 -18.93-18.93 13.71 13.71 0 0 0 18.93 18.93z" fill="#dee4eb"/><path d="m295.1 153.13h32.9a0 0 0 0 1 0 0v19.25a28.55 28.55 0 0 1 -28.55 28.55 4.36 4.36 0 0 1 -4.36-4.36v-43.44a0 0 0 0 1 .01 0z" fill="#004393"/><ellipse cx="346.45" cy="145.27" fill="#004393" rx="54.57" ry="30.13"/><path d="m393 145.27c0 12.32-18.08 22.3-40.38 22.3-1.87 0-3.72-.07-5.53-.21 19.67-1.49 34.84-10.81 34.84-22.09s-15.17-20.6-34.84-22.09c1.81-.13 3.66-.2 5.53-.2 22.25.02 40.38 10.02 40.38 22.29z" fill="#108fd4"/><ellipse cx="324.3" cy="139.98" fill="#108fd4" rx="25.92" ry="14.31"/><circle cx="305.91" cy="191.5" fill="#f0a284" r="14.47"/><rect fill="#dee4eb" height="163.51" rx="32.54" transform="matrix(-.88676894 .46221299 -.46221299 -.88676894 751.77 511.87)" width="65.09" x="280.65" y="266.26"/><path d="m341 423.81a32.59 32.59 0 0 1 -33.9-17.12l-45.48-87.27a32.54 32.54 0 0 1 33.85-47.2 32.13 32.13 0 0 0 -10 3.3 32.53 32.53 0 0 0 -13.82 43.9l45.49 87.27a32.45 32.45 0 0 0 23.86 17.12z" fill="#fff"/><circle cx="336.12" cy="390.07" fill="#004393" r="36.82"/><rect fill="#f0a284" height="157.55" rx="28.54" transform="matrix(.19680182 .98044329 -.98044329 .19680182 686.56 -67.37)" width="57.09" x="355.86" y="306.57"/><ellipse cx="444.18" cy="374.17" fill="#f0a284" rx="36.39" ry="29.46"/><path d="m480.56 373.75c-2.11 13-14.74 23.35-30.74 25.24a44.61 44.61 0 0 1 -5.33.32 44 44 0 0 1 -4.62-.24l-.29.07-10 2-88.48 17.76a28.56 28.56 0 0 1 -33.6-22.38 28.55 28.55 0 0 1 -.56-5.48 28.59 28.59 0 0 0 28.21 32.74 28.8 28.8 0 0 0 5.65-.57l98.5-19.77.28-.06a44.17 44.17 0 0 0 4.63.23c20.1 0 36.39-13.18 36.39-29.45-.03-.16-.03-.26-.04-.41z" fill="#fcb798"/><g fill="#f0a284"><rect height="41.89" rx="8.18" transform="matrix(.0270493 .9996341 -.9996341 .0270493 838.79 -88.7)" width="16.37" x="456.78" y="365.64"/><rect height="41.89" rx="8.18" transform="matrix(.0270493 .9996341 -.9996341 .0270493 836.49 -117.65)" width="16.37" x="470.5" y="349.98"/><rect height="41.89" rx="8.18" transform="matrix(.0270493 .9996341 -.9996341 .0270493 807.14 -119.5)" width="16.37" x="456.78" y="333.98"/><rect height="41.89" rx="8.18" transform="matrix(.5 .8660254 -.8660254 .5 520.51 -203.35)" width="16.37" x="428.18" y="328.16"/></g><rect fill="#fcb798" height="61.01" rx="8.6" transform="matrix(.19680182 .98044329 -.98044329 .19680182 685.66 -49.85)" width="17.2" x="364.66" y="363.05"/><circle cx="352.26" cy="191.5" fill="#361647" r="3.38"/><circle cx="377.07" cy="191.5" fill="#361647" r="3.38"/><path d="m308.72 199v-12.28a2 2 0 0 0 -2.56-1.86 8.4 8.4 0 0 0 0 16 2 2 0 0 0 2.56-1.86z" fill="#ef927f"/><circle cx="308.08" cy="192.86" fill="#fcf4e6" r="5.86"/><rect fill="#fcf4e6" height="15.64" rx="2.38" transform="matrix(.77571608 -.63108206 .63108206 .77571608 -55.68 242.59)" width="4.77" x="311.07" y="191.82"/><path d="m315.86 203.26-4.7-5.78-.4-.49a4.64 4.64 0 0 1 -1.3.17 3.87 3.87 0 0 1 -.48 0 5.38 5.38 0 0 1 -4.91-5.36 5.25 5.25 0 0 1 1-3.16 5.31 5.31 0 0 0 -2.06 4.23 5.39 5.39 0 0 0 5.39 5.39 5 5 0 0 0 1.29-.17l5.11 6.27a2.19 2.19 0 0 0 3.7-.5 2.2 2.2 0 0 1 -2.64-.6z" fill="#fff"/><path d="m372.29 206a8.63 8.63 0 0 1 -2.55 6.11c-.2.2-.41.38-.62.56a8.58 8.58 0 0 1 -5.51 2h-.35a8.67 8.67 0 0 1 -8.6-8q0-.36 0-.72a1.68 1.68 0 0 1 .5-1.18 1.63 1.63 0 0 1 1.18-.49h14.31a1.67 1.67 0 0 1 1.64 1.72z" fill="#962f4a"/><path d="m363.44 213.33a6.52 6.52 0 0 1 -.13 1.33h-.05a8.66 8.66 0 0 1 -8.6-8 6.75 6.75 0 0 1 1.92-.27 6.88 6.88 0 0 1 6.86 6.94z" fill="#e1617f"/><path d="m370.3 204.35c-.07 1.69-2.69 3.05-5.91 3s-5.83-1.38-5.9-3.08z" fill="#fff"/></svg>