<svg viewBox="0 0 1000 1000" xmlns="http://www.w3.org/2000/svg"><path d="m995.05 631.75v13.58a81.76 81.76 0 0 1 -73.53 81.33c-2.56.25-5.14.39-7.76.41h-.45a47.29 47.29 0 0 0 -47.31 47.27v70.84a64.18 64.18 0 0 1 -41.67 60.11 61.09 61.09 0 0 1 -7.76 2.36 64 64 0 0 1 -14.75 1.71h-709.25c-48.89 0-88.52-31.92-88.52-95.46a91.31 91.31 0 0 1 .66-10.9 88.56 88.56 0 0 1 87.86-77.62h23.43a47.25 47.25 0 0 0 47.28-47.27v-17.5a110.63 110.63 0 0 1 70.48-103.09q3.81-1.5 7.76-2.69a109.55 109.55 0 0 1 27.37-4.71c1.66-.08 3.33-.11 5-.11a47.28 47.28 0 0 0 0-94.55h-121.16c-2.82 0-5.62-.12-8.38-.34s-5.21-.54-7.77-1a99.58 99.58 0 0 1 0-196.51c2.56-.43 5.14-.74 7.77-.95s5.55-.36 8.38-.36h151.68a47.27 47.27 0 0 0 47.27-47.28 54.08 54.08 0 0 1 49-53.82c1.67-.16 3.36-.24 5.08-.24h14.09a47.15 47.15 0 0 0 8.19-.71 47.83 47.83 0 0 0 7.76-2 46 46 0 0 0 6.44-2.88 47.43 47.43 0 0 0 21-22.9 46.9 46.9 0 0 0 3.81-16.5c0-.74.05-1.5.05-2.25v-6.79a47.29 47.29 0 0 1 47.28-47.27h273.82a47.11 47.11 0 0 1 36.17 16.83l.07.07a47.15 47.15 0 0 1 11 30.37v6.79 2.25a47.14 47.14 0 0 1 -3.83 16.5 47.5 47.5 0 0 1 -21 22.9 47.06 47.06 0 0 1 -22.41 5.63h-20.87a47.4 47.4 0 0 0 -40.1 22.23 46.47 46.47 0 0 0 -5.23 11.54 47 47 0 0 0 -2 13.5v6.79a47 47 0 0 0 4 19.12 45.83 45.83 0 0 0 3.14 5.92 47.17 47.17 0 0 0 40.1 22.24h128.25a100 100 0 0 1 18.27 1.66q3.93.72 7.76 1.76a99.59 99.59 0 0 1 0 192.24q-3.82 1.05-7.76 1.77a100.05 100.05 0 0 1 -18.27 1.67h-62a47 47 0 0 0 -9.16.9 44.87 44.87 0 0 0 -7.76 2.22 47.51 47.51 0 0 0 -13.05 7.6 47.16 47.16 0 0 0 -17.3 36.55v1a47.28 47.28 0 0 0 30.34 43.14 47.28 47.28 0 0 0 16.97 3.15h80.23q3.93 0 7.76.41a81.22 81.22 0 0 1 14.66 2.83c.7.2 1.38.42 2.07.64a81.77 81.77 0 0 1 56.8 77.87z" fill="#f3f4fe"/><g fill="#edeefe"><path d="m144.35 256.7v198.42c-2.63-.22-5.21-.54-7.77-1v-196.47c2.56-.43 5.14-.74 7.77-.95z"/><path d="m144.35 715.92v186.5h-7.77v-181.77a47.53 47.53 0 0 0 7.77-4.73z"/><path d="m233.73 256.34h7.77v199.12h-7.77z"/><path d="m241.49 554.83v347.59h-7.76v-344.9q3.81-1.52 7.76-2.69z"/><path d="m338.64 241.67v660.75h-7.76v-654.19a47.29 47.29 0 0 0 7.76-6.56z"/><path d="m435.79 152.25v750.17h-7.79v-748.13a47.83 47.83 0 0 0 7.79-2.04z"/><path d="m525.17 53.66h7.77v848.76h-7.77z"/><path d="m622.31 53.66h7.78v848.76h-7.78z"/><path d="m720.05 202.27v6.79a46.45 46.45 0 0 0 .4 6.17 46.93 46.93 0 0 0 6.78 18.87v668.32h-7.77v-848.76h7.77v123.57a47 47 0 0 0 -7.18 25.04z"/><path d="m824.37 70.49v67.67a46.15 46.15 0 0 1 -7.76 7.35v-82.37a46.55 46.55 0 0 1 7.76 7.35z"/><path d="m824.37 256.34v200a44.87 44.87 0 0 0 -7.76 2.22v-202.22z"/><path d="m816.61 546.89a47.72 47.72 0 0 0 7.76 2.23v349.23a59.51 59.51 0 0 1 -7.76 2.36z"/><path d="m921.52 259.78v192.22q-3.82 1.05-7.76 1.77v-195.77q3.93.74 7.76 1.78z"/><path d="m913.76 550q3.93 0 7.76.41v176.25c-2.56.25-5.14.39-7.76.41z"/></g><g fill="#d2d6fa"><path d="m456.12 350.91v16.75l-12.57 7.73v-24.48z"/><path d="m313.93 350.91v24.48l-12.58-7.73v-16.75z"/><path d="m276.2 350.91h197.86l6-14.63h-209.85z"/></g><path d="m301.35 350.91h12.58v7.3h-12.58z" fill="#bec4ed"/><path d="m443.55 350.91h12.57v7.3h-12.57z" fill="#bec4ed"/><path d="m308.69 239.71h6.31a8.35 8.35 0 0 1 8.35 8.35v88.22a0 0 0 0 1 0 0h-23a0 0 0 0 1 0 0v-88.22a8.35 8.35 0 0 1 8.34-8.35z" fill="#adb6e0"/><circle cx="311.84" cy="284.17" fill="#d2d6fa" r="6.22"/><path d="m336.09 259.59h8.13a7.44 7.44 0 0 1 7.44 7.44v69.25a0 0 0 0 1 0 0h-23a0 0 0 0 1 0 0v-69.28a7.44 7.44 0 0 1 7.43-7.41z" fill="#adb6e0"/><circle cx="340.16" cy="299.73" fill="#d2d6fa" r="6.22"/><path d="m362.25 286.12h5.32a4.87 4.87 0 0 1 4.87 4.87v45.3a0 0 0 0 1 0 0h-15.06a0 0 0 0 1 0 0v-45.29a4.87 4.87 0 0 1 4.87-4.87z" fill="#adb6e0"/><circle cx="364.91" cy="312.37" fill="#d2d6fa" r="4.07"/><path d="m427.71 234.2h31.13a3.11 3.11 0 0 1 3.11 3.11v98.77a0 0 0 0 1 0 0h-34.24a0 0 0 0 1 0 0v-101.88a0 0 0 0 1 0 0z" fill="#93a0ce"/><path d="m425.48 234.2h31.12a0 0 0 0 1 0 0v101.89a0 0 0 0 1 0 0h-34.24a0 0 0 0 1 0 0v-98.78a3.11 3.11 0 0 1 3.12-3.11z" fill="#adb6e0"/><circle cx="439.01" cy="251" fill="#93a0ce" r="8.23"/><circle cx="439.01" cy="251" fill="#d2d6fa" r="3.73"/><circle cx="439.01" cy="282.38" fill="#93a0ce" r="8.23"/><circle cx="439.01" cy="282.38" fill="#d2d6fa" r="3.73"/><circle cx="439.01" cy="320.58" fill="#93a0ce" r="13.37"/><g fill="#d2d6fa"><circle cx="439.01" cy="320.58" r="6.07"/><rect height="19.18" rx="9.59" width="80.66" x="905.22" y="908.59"/><rect height="19.18" rx="9.59" width="882.11" x="15.3" y="908.59"/></g><path d="m766.27 570.2h103a10.3 10.3 0 0 1 10.3 10.3v326.74a0 0 0 0 1 0 0h-113.3a0 0 0 0 1 0 0v-337a0 0 0 0 1 0-.04z" fill="#6675ad"/><path d="m758.9 570.2h103a0 0 0 0 1 0 0v337a0 0 0 0 1 0 0h-113.3a0 0 0 0 1 0 0v-326.7a10.3 10.3 0 0 1 10.3-10.3z" fill="#7986bf"/><circle cx="803.69" cy="625.78" fill="#6675ad" r="27.22"/><circle cx="803.69" cy="625.78" fill="#f3f4fe" r="12.35"/><circle cx="803.69" cy="729.59" fill="#6675ad" r="27.22"/><circle cx="803.69" cy="729.59" fill="#f3f4fe" r="12.35"/><circle cx="803.69" cy="855.95" fill="#6675ad" r="44.23"/><circle cx="803.69" cy="855.95" fill="#f3f4fe" r="20.07"/><path d="m370.86 444.52 22.61 82 1.53 5.58-2.42.72-70.41 20.77a46.92 46.92 0 0 1 -7.61 1.55c-.44.05-.88.1-1.31.13s-1 .08-1.5.11h-1.44c-.44 0-.88 0-1.34 0-1.11 0-2.23-.05-3.32-.14-.44 0-.89-.08-1.31-.13-.66-.07-1.31-.16-1.95-.26l-1.26-.22c-.79-.14-1.58-.29-2.35-.49a45.65 45.65 0 0 1 -25.78-16.88c-.35-.48-.69-1-1-1.45a46 46 0 0 1 -5-9.58c-.43-1.15-.83-2.32-1.18-3.53s-.58-2.13-.8-3.2a45.38 45.38 0 0 1 31.56-53z" fill="#e07373"/><path d="m326.49 529.76a34.85 34.85 0 0 1 -4.57 7.42 35.34 35.34 0 0 1 -19.26 12.32c-.46.13-.93.23-1.41.32-1 .2-1.91.34-2.87.46-.24 0-.49.06-.75.08s-.67.07-1 .09a27.89 27.89 0 0 1 -2.89.08c-.36 0-.72 0-1.07 0-.87 0-1.74-.09-2.62-.19l-1.22-.17a33.42 33.42 0 0 1 -3.45-.69c-.47-.12-.95-.25-1.41-.4s-.95-.29-1.41-.45-.92-.33-1.39-.51-.92-.37-1.37-.58-.92-.41-1.37-.64a35.33 35.33 0 0 1 -6.44-4.1l-11.8-9.43-72.79-58.21a37.67 37.67 0 0 1 -3.31-3c-.45-.47-.89-.95-1.31-1.42s-1-1.15-1.42-1.75c-.33-.43-.64-.86-1-1.31a17.4 17.4 0 0 1 -1-1.59c-.25-.37-.46-.74-.68-1.13a.42.42 0 0 1 -.1-.2 10.65 10.65 0 0 1 -.57-1c-.34-.64-.65-1.28-.94-1.94-.1-.24-.21-.47-.3-.72s-.27-.65-.38-1c0 0 0 0 0-.08-.17-.43-.32-.87-.46-1.31a30.32 30.32 0 0 1 -1-3.62 8.55 8.55 0 0 1 -.22-1c-.16-.81-.27-1.61-.38-2.42l-.12-1.17a2.91 2.91 0 0 1 0-.51c0-.4-.06-.81-.07-1.21s0-.94 0-1.41a.29.29 0 0 1 0-.13c0-.45 0-.92 0-1.36s.06-1 .09-1.46a28.38 28.38 0 0 1 .37-2.9c0-.32.12-.67.19-1a35.55 35.55 0 0 1 57-20.82l84.59 67.6a35.54 35.54 0 0 1 10.11 42.46z" fill="#edba70"/><path d="m326.49 529.76a34.85 34.85 0 0 1 -4.57 7.42 35.34 35.34 0 0 1 -19.26 12.32c-.46.13-.93.23-1.41.32-.94.2-1.9.35-2.87.46-.24 0-.49.06-.75.08s-.67.07-1 .09a27.89 27.89 0 0 1 -2.89.08c-.36 0-.72 0-1.07 0-.87 0-1.74-.09-2.62-.19l-1.22-.17a33.42 33.42 0 0 1 -3.45-.69c-.47-.12-.95-.25-1.41-.4s-.95-.29-1.41-.45-.92-.33-1.39-.51-.92-.37-1.37-.58-.92-.41-1.37-.64c-.29-.13-.56-.27-.84-.41l-.31-.15c-.62-.27-1.22-.54-1.82-.84s-1.06-.53-1.59-.82l-.4-.23-1.56-.89c-.27-.19-.55-.35-.81-.52-.55-.35-1.09-.7-1.62-1.07l-.75-.54c-.51-.38-1-.75-1.54-1.16-.74-.57-1.45-1.19-2.17-1.83-.91-.82-1.79-1.68-2.66-2.59s-1.48-1.64-2.17-2.48l-72.79-58.21a37.67 37.67 0 0 1 -3.31-3c-.45-.47-.89-.95-1.31-1.42s-1-1.15-1.42-1.75c-.33-.43-.64-.86-1-1.31a17.4 17.4 0 0 1 -1-1.59c-.25-.37-.46-.74-.68-1.13a.42.42 0 0 1 -.1-.2 10.65 10.65 0 0 1 -.57-1c-.34-.64-.65-1.28-.94-1.94-.1-.24-.21-.47-.3-.72s-.27-.65-.38-1c0 0 0 0 0-.08-.17-.43-.32-.87-.46-1.31a30.32 30.32 0 0 1 -1-3.62 8.55 8.55 0 0 1 -.22-1c-.16-.81-.29-1.61-.38-2.42l-.12-1.17a2.91 2.91 0 0 1 0-.51c0-.4-.06-.81-.07-1.21s0-.94 0-1.41a.29.29 0 0 1 0-.13c0-.45 0-.92 0-1.36s0-.75.06-1.12a2 2 0 0 1 0-.34 28.38 28.38 0 0 1 .37-2.9c0-.34.11-.68.18-1a35.41 35.41 0 0 0 13.25 26.04l63.82 51 9 7.18 11.79 9.42a36 36 0 0 0 5.64 3.7 45 45 0 0 0 14.37 3.49 45.65 45.65 0 0 0 10.95-.5 45.06 45.06 0 0 0 22.92-11.09z" fill="#38cea1"/><path d="m374 525.22c-27.09-22.83-29.8-54-17.24-76.64l64.64-18.8a27.93 27.93 0 0 1 28.5 8.1 57.43 57.43 0 0 1 12.51 22.49c12.22 42-25.69 86.77-78.58 70.22a28.51 28.51 0 0 1 -9.83-5.37z" fill="#e07373"/><path d="m316.86 618.75-123.78 49-72.2-218.08c-4.69-14.17 2-29.82 15-34.95l13.15-5.2c48.14-19.06 101.3 8.16 118.72 60.8z" fill="#f8c97b"/><path d="m201 405.89c-13.54 14-37.18 12.95-55.76 5.15l1.55-21.86 2.55-36h48.38l2.18 35z" fill="#f5a491"/><path d="m199.92 388.2c-14.46 10.65-41.44 1.41-52.47-8.05l1.91-26.94h48.38z" fill="#ef927f"/><path d="m648.66 902.16-102.1 2.24a16.64 16.64 0 0 1 -12-4.76 16.68 16.68 0 0 1 -4.76-9.29l-2.78-18-2.24-14.54-2.95-18.81-1.56-10-.23-1.48-.66-4.27 53.8-8.51.35 2.15.33 2.11 1.83 11.57 2.63 16.66 2.09 13.2a10 10 0 0 0 .5 1.92 10.17 10.17 0 0 0 8.59 6.6 7.39 7.39 0 0 0 1.16.06l22.79-.5a34.48 34.48 0 0 1 34.2 26.15 31.87 31.87 0 0 1 .88 5.57c.08.62.11 1.27.13 1.93z" fill="#f5a491"/><path d="m518 908.19 131.39.06a6.85 6.85 0 0 0 6.86-7 6.85 6.85 0 0 0 -7.16-6.7l-131.26 5.83a3.91 3.91 0 0 0 -3.74 4 3.91 3.91 0 0 0 3.91 3.81z" fill="#65617b"/><path d="m649.87 900.15-77.43 1.7a38.72 38.72 0 1 1 77.43-1.7z" fill="#65617b"/><path d="m580.91 862.3-53.93 10-2.24-14.54-2.91-18.76-1.56-10 53.59-10 1.83 11.57 2.63 16.66 2.09 13.2a10 10 0 0 0 .5 1.87z" fill="#ef927f"/><path d="m741.05 703.67-83.51 58.77a16.65 16.65 0 0 1 -12.65 2.75 16.76 16.76 0 0 1 -9.12-5.07l-12.33-13.38-10-10.82-12.86-14-6.92-7.5-1-1.1-2.92-3.18 39.93-37 1.48 1.59 1.46 1.57 8 8.59 11.39 12.33 9.1 9.78a10.76 10.76 0 0 0 1.49 1.31 10.18 10.18 0 0 0 10.81.7 8.82 8.82 0 0 0 1-.6l18.64-13.12a34.46 34.46 0 0 1 42.96 2.71 32.18 32.18 0 0 1 3.85 4.13c.44.48.83 1.01 1.2 1.54z" fill="#f5a491"/><path d="m636 781.48 109.09-73.18a6.86 6.86 0 0 0 1.79-9.65 6.87 6.87 0 0 0 -9.68-1.57l-105.73 78a3.92 3.92 0 0 0 -.88 5.4 3.91 3.91 0 0 0 5.41 1z" fill="#65617b"/><path d="m740.94 701.33-63.33 44.57a38.72 38.72 0 1 1 63.33-44.57z" fill="#65617b"/><path d="m662.59 708.34-39.17 38.4-10-10.82-12.86-14-6.92-7.5 38.92-38.17 8 8.59 11.44 12.38 9.1 9.78a10.76 10.76 0 0 0 1.49 1.34z" fill="#ef927f"/><path d="m515.14 541.21 142.94 149.79-50.58 50.3-149.07-143.65a40 40 0 0 1 -.47-57.17 40 40 0 0 1 57.18.73z" fill="#65617b"/><path d="m565.79 642.76 19.42 206.1-70.89 8.14-28-205.11a40 40 0 0 1 35.06-45.17 40 40 0 0 1 44.41 36.04z" fill="#56526a"/><path d="m223.6 606.48h301.53a40.86 40.86 0 0 1 40.87 40.85 40.86 40.86 0 0 1 -40.86 40.86h-301.54a0 0 0 0 1 0 0v-81.71a0 0 0 0 1 0 0z" fill="#56526a"/><path d="m551.47 853-16-170.71a43.17 43.17 0 0 0 -44.42-39.09l-280.83 9.63-.07-2.13 280.85-9.7a45.33 45.33 0 0 1 46.63 41l16 170.71z" fill="#edeefe"/><path d="m193.23 580.08h301.52a40.86 40.86 0 0 1 40.86 40.86 40.86 40.86 0 0 1 -40.86 40.86h-301.52a0 0 0 0 1 0 0v-81.72a0 0 0 0 1 0 0z" fill="#65617b" transform="matrix(.92274002 -.38542295 .38542295 .92274002 -211.15 188.4)"/><path d="m531.69 606.7c-1-.11-2.05-.17-3.09-.2l-11.3-12.15a57.17 57.17 0 0 0 -64.89-13.35l-245 108.17-.85-1.95 245-108.17a59.26 59.26 0 0 1 67.29 13.86z" fill="#f3f4fe"/><path d="m634.98 717.74-1.56 1.45-67.78-72.86-.12-3.26z" fill="#f3f4fe"/><rect fill="#65617b" height="15.01" rx="7.5" transform="matrix(.69428163 -.71970342 .71970342 .69428163 -319.52 671.14)" width="92.27" x="584.16" y="704.2"/><ellipse cx="209.4" cy="290.7" fill="#7c5b5d" rx="14.33" ry="28.77" transform="matrix(.99424483 -.10713175 .10713175 .99424483 -29.94 24.11)"/><path d="m108.19 298.88 4.81 28.64a66.37 66.37 0 0 0 76.44 54.48 39.94 39.94 0 0 0 32.77-46l-6.82-40.67-1.15-6.87-.43-2.53-1.25-7.5a33.26 33.26 0 0 0 -38.31-27.29l-7.09 1.19-29.31 4.91a36.13 36.13 0 0 0 -29.66 41.61z" fill="#f5a491"/><path d="m117.3 299.36c9.24 17.94 41.63 19.66 72.35 3.84a99.54 99.54 0 0 0 24.16-17.2l-1.25-7.5a33.26 33.26 0 0 0 -38.31-27.29l-7.09 1.19-29.31 4.91a35.9 35.9 0 0 0 -10.85 3.61c-11.07 13.15-15.31 27.53-9.7 38.44z" fill="#ef927f"/><circle cx="164.94" cy="315.07" fill="#5e4041" r="4.59"/><circle cx="197.24" cy="314.02" fill="#5e4041" r="4.59"/><path d="m188.45 331.88a10.29 10.29 0 0 1 -2.76 7.38q-.34.36-.72.69a10.23 10.23 0 0 1 -6.46 2.57h-.42a10.29 10.29 0 0 1 -10.56-9.09 8.12 8.12 0 0 1 -.07-.85 2 2 0 0 1 1.93-2.06l17-.57a2 2 0 0 1 2.06 1.93z" fill="#962f4a"/><path d="m178.25 340.94a8.34 8.34 0 0 1 -.1 1.59h-.06a10.29 10.29 0 0 1 -10.56-9.09 7.66 7.66 0 0 1 2.26-.4 8.18 8.18 0 0 1 8.46 7.9z" fill="#e1617f"/><path d="m186 330c0 2-3.07 3.74-6.89 3.87s-7-1.38-7.14-3.4z" fill="#fff"/><path d="m131.21 289.43h2.43a0 0 0 0 1 0 0v55.51a0 0 0 0 1 0 0h-28a0 0 0 0 1 0 0v-29.94a25.57 25.57 0 0 1 25.57-25.57z" fill="#7c5b5d" transform="matrix(-.99424483 .10713175 -.10713175 -.99424483 272.56 619.73)"/><circle cx="118.37" cy="332.45" fill="#f5a491" r="16.89"/><path d="m113.1 331.08a7.28 7.28 0 0 0 4.29 6.83 2.09 2.09 0 0 0 2.88-1.9l.24-9.48a2.12 2.12 0 0 0 -3-2 7.3 7.3 0 0 0 -4.41 6.55z" fill="#ef927f"/><circle cx="114.98" cy="275.08" fill="#7c5b5d" r="30.47"/><path d="m84.69 278.35a30.41 30.41 0 0 0 13.06 21.86 30.46 30.46 0 0 1 38.19-47.21 30.47 30.47 0 0 0 -51.25 25.39z" fill="#5e4041"/><g fill="#7c5b5d"><circle cx="144.83" cy="254.28" r="40.88"/><circle cx="196.18" cy="258.92" r="40.88"/><circle cx="144.83" cy="254.28" r="40.88"/><circle cx="196.18" cy="258.92" r="40.88"/></g><g fill="#5e4041"><path d="m104.07 251.07a40.84 40.84 0 0 1 62.62-20.45 36 36 0 0 1 4.74 4 38.43 38.43 0 0 1 6.88-3.75 40 40 0 0 0 -4.94-5.83 40.89 40.89 0 0 0 -69.3 26.06z"/><path d="m166.69 230.62a36 36 0 0 1 4.74 4 38.43 38.43 0 0 1 6.88-3.75 40.16 40.16 0 0 1 11.56-3 40.92 40.92 0 0 1 45.13 43.81 40.87 40.87 0 0 0 -61.63-46.68 39.5 39.5 0 0 0 -6.68 5.62z"/><circle cx="139.1" cy="260.31" r="17.62"/></g><rect fill="#f0a284" height="28.18" rx="14.09" transform="matrix(.52947515 -.84832544 .84832544 .52947515 -243.75 478.45)" width="79.16" x="269.86" y="444.87"/><circle cx="425.4" cy="417.59" fill="#2329ad" r="6.81"/><circle cx="427.34" cy="417.43" fill="#161762" r="6.81"/><path d="m334.43 540 87.57-7.22a13.86 13.86 0 0 0 12.66-12.54l13.49-146.51a13.85 13.85 0 0 0 -14.93-15.07l-87.57 7.18a13.84 13.84 0 0 0 -12.65 12.54l-13.5 146.51a13.86 13.86 0 0 0 14.93 15.11z" fill="#7a59a4"/><path d="m344.7 539.12 87.58-7.18a13.86 13.86 0 0 0 12.66-12.54l13.49-146.51a13.85 13.85 0 0 0 -14.92-15.08l-87.58 7.19a13.86 13.86 0 0 0 -12.66 12.53l-13.49 146.52a13.84 13.84 0 0 0 14.92 15.07z" fill="#593870"/><path d="m379.33 449.37a16.63 16.63 0 0 0 30.36 7.95 16.38 16.38 0 0 1 -4.35 1 16.65 16.65 0 0 1 -17.95-15.23 16.37 16.37 0 0 1 2.82-10.65 16.56 16.56 0 0 0 -10.88 16.93z" fill="#7a59a4"/><g fill="#ed9281"><rect height="23.8" rx="11.9" transform="matrix(.9 -.43 .43 .9 -149.5 234.91)" width="47.98" x="418.77" y="434.9"/><rect height="23.8" rx="11.9" transform="matrix(.90205864 -.43161349 .43161349 .90205864 -157.27 241.06)" width="47.98" x="428.44" y="455.09"/><rect height="23.8" rx="11.9" transform="matrix(1 -.03 .03 1 -15.53 14.89)" width="47.98" x="431.84" y="479.29"/></g><rect fill="#edba70" height="179.34" rx="35.53" transform="matrix(-.86776545 .49697396 -.49697396 -.86776545 572.17 876)" width="71.05" x="134.01" y="424.45"/><path d="m107.28 463.62a35.53 35.53 0 0 1 60.7 1.57l53.82 94a35.31 35.31 0 0 1 4.52 21.17 35.49 35.49 0 0 0 1-36.88l-53.82-94a35.52 35.52 0 0 0 -66.17 14.13z" fill="#e0ab65"/><path d="m332.62 546.74c18.36-13.57 21.17-40.92 6.27-61.09-11.36-15.38-29.73-22.15-46-18.49a38 38 0 0 0 -14.25 6.51l-101.3 74.81c-18.34 13.52-21.15 40.91-6.25 61.08 14.9 20.18 41.87 25.54 60.23 12z" fill="#f0a284"/><rect fill="#fcb798" height="78.87" rx="11.14" transform="matrix(-.5798501 -.81472318 .81472318 -.5798501 -86.63 1109.87)" width="22.28" x="231.73" y="537.84"/><g fill="#f0a284"><path d="m294 559.66c-33-12.76-45.74-41.31-41.24-66.85l55-38.82a27.89 27.89 0 0 1 29.57-1.62 57.27 57.27 0 0 1 19.15 17.19c25.25 35.77 4 90.41-51.43 92a28.4 28.4 0 0 1 -11.05-1.9z"/><rect height="28.18" rx="14.09" transform="matrix(.76828352 -.6401097 .6401097 .76828352 -220.77 312.84)" width="72.32" x="285.58" y="447.28"/><rect height="28.18" rx="14.09" transform="matrix(.88596088 -.46375999 .46375999 .88596088 -194.68 219.03)" width="72.32" x="311.9" y="491.31"/></g><path d="m171.1 609.57c12.66 17.15 34 23.59 51.42 16.83a38.14 38.14 0 0 0 8.8-4.85l82.17-60.7c30.6-4.09 49-25.41 52.8-49.1l7.85-4.1a14.11 14.11 0 0 0 6.61-17.6 12.08 12.08 0 0 0 -.64-1.42c-.2-.38-.41-.73-.62-1.1a14 14 0 0 1 -7.49 11.72l-5 2.6-2.88 1.5a54.05 54.05 0 0 1 -2.9 11.07 57.26 57.26 0 0 1 -26.22 30.37 66.23 66.23 0 0 1 -23.67 7.67l-11.82 8.7-70.4 52a38.32 38.32 0 0 1 -8.79 4.85c-17.41 6.76-38.77.32-51.43-16.83a48.45 48.45 0 0 1 -6.78-12.64 48.86 48.86 0 0 0 8.99 21.03z" fill="#fcb798"/><rect fill="#f0a284" height="28.18" rx="14.09" transform="matrix(.84329766 -.5374468 .5374468 .84329766 -205.6 257.16)" width="96.8" x="289.86" y="467.11"/><rect fill="#56526a" height="15.01" rx="7.5" transform="matrix(.99088942 -.13467799 .13467799 .99088942 -109.2 81.88)" width="92.27" x="504.41" y="840.43"/><path d="m486 708.53a33.66 33.66 0 0 1 -33.66 33.66h-258a27.25 27.25 0 0 1 -26.24-19.9l-98.63-351.88a15.27 15.27 0 0 1 10.32-18.75l7.52-2.25a31.9 31.9 0 0 1 39.69 21.39l50.53 168.67a64.39 64.39 0 0 0 61.68 45.92h113.6a58.39 58.39 0 0 1 58.4 58.39v31.1h41.12a33.66 33.66 0 0 1 33.67 33.65z" fill="#6675ad"/><path d="m486 707.21a33.68 33.68 0 0 1 -24.74 33.79 33.69 33.69 0 0 0 1-10.09c-.94-17.99-16.26-31.91-34.26-31.91h-29a11.42 11.42 0 0 1 -11.43-11.42v-19.65a58.4 58.4 0 0 0 -58.39-58.4h-113.65a64.4 64.4 0 0 1 -61.69-45.91l-50.53-168.62a31.87 31.87 0 0 0 -33.31-22.67l-.54-1.92a15.27 15.27 0 0 1 10.31-18.74l7.53-2.26a31.89 31.89 0 0 1 39.7 21.39l50.53 168.67a64.4 64.4 0 0 0 61.68 45.92h113.6a58.4 58.4 0 0 1 58.4 58.4v31.09h40.51c18.21 0 33.58 14.17 34.28 32.33z" fill="#5b6da5"/><path d="m232.88 742.2-6.47 23.64-39.07 142.76h-12.3l29.86-142.76 4.94-23.64z" fill="#6675ad"/><path d="m476.65 908.6h-12.29l-39.08-142.76-6.47-23.64h23.05l4.94 23.64z" fill="#6675ad"/><path d="m209.84 742.2h23.04l-6.47 23.64h-21.51z" fill="#5b6da5"/><path d="m446.8 765.84h-21.52l-6.47-23.64h23.05z" fill="#5b6da5"/><rect fill="#adb6e0" height="401.47" rx="26.19" width="210.46" x="559.25" y="140.07"/><rect fill="#f3f4fe" height="372.73" rx="14.05" width="183.66" x="572.66" y="154.44"/><path d="m756.32 168.49v344.64a14 14 0 0 1 -14.06 14h-155.55a14 14 0 0 1 -14.06-14v-344.64a14 14 0 0 1 14.06-14h155.55a14 14 0 0 1 14.06 14z" fill="#f3f4fe"/><path d="m756.32 251.65v261.48a14 14 0 0 1 -14.06 14h-57v-301.79z" fill="#ebecfd"/><path d="m650.35 527.17v-230.42l34.91-20.94v251.36z" fill="#d9dcfb"/><path d="m610.62 249v278.2h-23.91a14 14 0 0 1 -14.06-14v-250.27z" fill="#ebecfd"/><path d="m635.32 257.56v269.61h-24.7v-278.2z" fill="#d9dcfb"/><g fill="#f1f2fd"><path d="m698.57 264.28h17.38v9.42h-17.38z"/><path d="m576.18 285.6h29.65v-27.57l-29.65 11.35z"/><path d="m730.75 264.28h17.38v9.42h-17.38z"/><path d="m698.57 289.07h17.38v9.42h-17.38z"/><path d="m730.75 289.07h17.38v9.42h-17.38z"/><path d="m698.57 313.86h17.38v9.42h-17.38z"/><path d="m730.75 313.86h17.38v9.42h-17.38z"/><path d="m698.57 338.64h17.38v9.42h-17.38z"/><path d="m730.75 338.64h17.38v9.42h-17.38z"/><path d="m698.57 363.43h17.38v9.42h-17.38z"/><path d="m730.75 363.43h17.38v9.42h-17.38z"/><path d="m698.57 388.21h17.38v9.42h-17.38z"/><path d="m730.75 388.21h17.38v9.42h-17.38z"/><path d="m698.57 413h17.38v9.42h-17.38z"/><path d="m730.75 413h17.38v9.42h-17.38z"/><path d="m698.57 437.78h17.38v9.42h-17.38z"/><path d="m730.75 437.78h17.38v9.42h-17.38z"/><path d="m698.57 462.57h17.38v9.42h-17.38z"/><path d="m730.75 462.57h17.38v9.42h-17.38z"/><path d="m698.57 487.36h17.38v9.42h-17.38z"/><path d="m730.75 487.36h17.38v9.42h-17.38z"/><path d="m698.57 512.14h17.38v9.42h-17.38z"/><path d="m730.75 512.14h17.38v9.42h-17.38z"/><path d="m576.18 293.78h29.65v13.56h-29.65z"/><path d="m576.18 316.98h10.89v13.56h-10.89z"/><path d="m594.94 316.98h10.89v13.56h-10.89z"/><path d="m576.18 343.77h29.65v13.56h-29.65z"/><path d="m576.18 366.97h10.89v13.56h-10.89z"/><path d="m594.94 366.97h10.89v13.56h-10.89z"/><path d="m576.18 393.76h29.65v13.56h-29.65z"/><path d="m576.18 416.96h10.89v13.56h-10.89z"/><path d="m594.94 416.96h10.89v13.56h-10.89z"/><path d="m576.18 443.36h29.65v13.56h-29.65z"/><path d="m576.18 466.55h10.89v13.56h-10.89z"/><path d="m594.94 466.55h10.89v13.56h-10.89z"/><path d="m576.18 492.95h29.65v13.56h-29.65z"/></g><g fill="#adb6e0"><path d="m535.21 178.54h255.1l10.04-14.4h-275.18z"/><path d="m535.21 203.1h255.1l10.04-14.39h-275.18z"/><path d="m535.21 227.67h255.1l10.04-14.39h-275.18z"/><path d="m535.21 252.24h255.1l10.04-14.4h-275.18z"/><path d="m582.04 252.24h5.14v63.23h-5.14z"/><rect height="22.81" rx="5.95" width="11.9" x="578.66" y="307.07"/></g></svg>