<svg viewBox="0 0 1000 1000" xmlns="http://www.w3.org/2000/svg"><path d="m983.08 662v10.41a132.5 132.5 0 0 1 -77.88 120.69 128.46 128.46 0 0 1 -15 5.71 132.52 132.52 0 0 1 -39.55 6h-53.65a27.32 27.32 0 0 0 -27.31 27.32v101.92h-456.78v-101.91a27.26 27.26 0 0 0 -17.36-25.43c-.77-.3-1.55-.57-2.35-.81a27.18 27.18 0 0 0 -3-.68 26 26 0 0 0 -4.61-.4h-90.35c-1.43 0-2.84 0-4.26-.06a137.22 137.22 0 0 1 -84.32-32.24q-4.53-3.81-8.71-8a137.56 137.56 0 0 1 97.29-234.91h106.05a35.76 35.76 0 1 0 0-71.51h-178.88a83.6 83.6 0 0 1 -59.11-142.73c.29-.29.58-.58.88-.86a83.21 83.21 0 0 1 58.23-23.63 69.19 69.19 0 0 0 46.51-17.88c1.07-1 2.1-2 3.11-3a69 69 0 0 0 19.53-43.82c.1-1.5.15-3 .15-4.54v-70.64a27.31 27.31 0 0 1 27.29-27.33h636.61a83.62 83.62 0 0 1 80.09 59.56 84.59 84.59 0 0 1 3.52 24.05c0 2.9-.15 5.76-.43 8.58a84.6 84.6 0 0 1 -1.7 10.27 83.64 83.64 0 0 1 -81.48 64.75h-68a48.59 48.59 0 0 0 -48.6 48.59 48.6 48.6 0 0 0 48.6 48.59c.89 0 1.77 0 2.65.06a63 63 0 0 1 60.36 63v43a43.92 43.92 0 0 0 31.25 42.1 189.31 189.31 0 0 1 23.28 8.62c21 9.42 43.61 24.48 59 48.42a112.89 112.89 0 0 1 13.13 28.38 137.49 137.49 0 0 1 5.8 40.36z" fill="#f3f4fe"/><g fill="#d2d6fa"><rect height="17.61" rx="8.8" transform="matrix(-1 0 0 -1 243.64 1885.71)" width="74.06" x="84.79" y="934.05"/><rect height="17.61" rx="8.8" transform="matrix(-1 0 0 -1 1141.98 1885.71)" width="809.94" x="166.02" y="934.05"/><path d="m532.43 260.4v673.65h-219.52v-101.91a27.26 27.26 0 0 0 -17.36-25.43c-.77-.3-1.55-.57-2.35-.81a27.18 27.18 0 0 0 -3-.68 26 26 0 0 0 -4.61-.4h-9.66v-275.21h25.36a35.76 35.76 0 1 0 0-71.51h-25.36v-197.7a12.41 12.41 0 0 1 12.41-12.4h231.66a12.41 12.41 0 0 1 12.43 12.4z"/></g><g fill="#b7bfed"><path d="m290.2 529.61v275.61a27.18 27.18 0 0 1 3 .68v-276.29zm0-254.47v183h3v-180a5.19 5.19 0 0 1 5.19-5.19h211.61a5.18 5.18 0 0 1 5.18 5.19v654.41h-202.27v1.5h205.26v-658.91a5.18 5.18 0 0 0 -5.17-5.14h-217.61a5.19 5.19 0 0 0 -5.19 5.14z"/><path d="m335.44 314.51h138.29v11.3h-138.29z"/><path d="m335.44 350.3h138.29v11.3h-138.29z"/><path d="m335.44 386.1h138.29v11.3h-138.29z"/><path d="m287.37 606.29h71.47v11.3h-71.47z" transform="matrix(0 1 -1 0 935.05 288.83)"/></g><path d="m250.07 529.61v275.21h-54.83c-1.43 0-2.84 0-4.26-.06a137.22 137.22 0 0 1 -84.32-32.24q-4.53-3.81-8.71-8a137.56 137.56 0 0 1 97.29-234.91z" fill="#d2d6fa"/><path d="m250.07 260.4v197.7h-127.66a83.6 83.6 0 0 1 -59.11-142.73c.29-.29.58-.58.88-.86a83.21 83.21 0 0 1 58.23-23.63 69.19 69.19 0 0 0 46.51-17.88c1.07-1 2.1-2 3.11-3a69.28 69.28 0 0 0 14.47-22h51.17a12.41 12.41 0 0 1 12.4 12.4z" fill="#d2d6fa"/><g fill="#b7bfed"><path d="m172 270c-1 1-2 2-3.11 3h58.7a5.18 5.18 0 0 1 5.18 5.19v180h3v-183a5.18 5.18 0 0 0 -5.18-5.19zm60.8 259.61v275.21h3v-275.21z"/><path d="m191.36 314.51v11.3h-136.92a83.29 83.29 0 0 1 8.86-10.44c.29-.29.58-.58.88-.86z"/><path d="m53.07 350.3h138.29v11.3h-138.29z"/><path d="m53.07 386.1h138.29v11.3h-138.29z"/><path d="m938.79 215.86a84.6 84.6 0 0 1 -1.7 10.27h-745.53c.1-1.5.15-3 .15-4.54v-5.73z"/><path d="m938.45 196h-746.74v-29.18h737.08a83.77 83.77 0 0 1 6.91 16.41 81.76 81.76 0 0 1 2.75 12.77z"/></g><path d="m496.94 457.07h13.51v80.32h-13.51z" fill="#604970"/><circle cx="503.7" cy="534.27" fill="#836b96" r="13.2"/><path d="m393.72 819.32h45.93v55.95h-45.93z" fill="#f29495" transform="matrix(.65934582 -.75183981 .75183981 .65934582 -495.08 601.91)"/><path d="m409.41 812.21h27.01v55.95h-27.01z" fill="#e5888c" transform="matrix(.65934582 -.75183981 .75183981 .65934582 -487.61 604.18)"/><path d="m386 842.05 26.56 19.87a35.57 35.57 0 0 1 36.44 57.68l-53.49-46.91-26.7-23.39 5.26-6a8.82 8.82 0 0 1 11.93-1.25z" fill="#604970"/><path d="m442.81 867.13a35.55 35.55 0 0 1 .64 47.62l5.55 4.85a35.58 35.58 0 0 0 -3.29-50.2 34.14 34.14 0 0 0 -2.9-2.27z" fill="#836b96"/><path d="m360.37 848.83a5.48 5.48 0 0 0 0 7.25 4.81 4.81 0 0 0 .5.51l79.76 69.94a6.28 6.28 0 0 0 .7.55 8.35 8.35 0 0 0 10.94-12.49 9.43 9.43 0 0 0 -1-.9l-3.21-2.52-9.16-7.2-4.26-3.35-9.15-7.19-4.27-3.36-9.15-7.2-4.26-3.34-9.16-7.2-4.24-3.33-9.14-7.19-4.27-3.38-9.16-7.2-3.93-3.09c-.11-.09-.23-.17-.35-.25a5.49 5.49 0 0 0 -7.19.94z" fill="#3c1c39"/><g fill="#604970"><path d="m448.09 911.17-10.86 12.38 4.07 3.57 11-12.53a9.43 9.43 0 0 0 -1-.9z"/><path d="m434.67 900.62-10.25 11.69 4.07 3.57 10.44-11.91z"/><path d="m421.25 890.07-9.65 11 4.08 3.58 9.84-11.22z"/><path d="m407.84 879.53-9.05 10.31 4.07 3.56 9.24-10.53z"/><path d="m394.41 868.97-8.43 9.63 4.07 3.57 8.63-9.84z"/><path d="m381 858.43-7.84 8.93 4.08 3.57 8.02-9.15z"/><path d="m367.56 847.89-7.21 8.23 4.07 3.57 7.42-8.46-3.93-3.09c-.11-.09-.23-.14-.35-.25z"/></g><path d="m521 577.06a36.21 36.21 0 0 1 36.21 36.21v260.73a3.91 3.91 0 0 1 -3.91 3.91h-64.61a3.91 3.91 0 0 1 -3.91-3.91v-260.73a36.21 36.21 0 0 1 36.22-36.21z" fill="#3c1c39" transform="matrix(.75183981 .65934582 -.65934582 .75183981 608.95 -162.99)"/><path d="m576.12 424.51h72.43a0 0 0 0 1 0 0v220.49a36.21 36.21 0 0 1 -36.21 36.21 36.21 36.21 0 0 1 -36.22-36.21v-220.49a0 0 0 0 1 0 0z" fill="#3c1c39" transform="matrix(.98702441 .1605703 -.1605703 .98702441 96.71 -91.15)"/><path d="m606.92 422-30.49 187.36-1.92 11.8a26.15 26.15 0 0 1 -6.15 13l-7.31 8.34-158.7 181-4.82-4.23a3.91 3.91 0 0 1 -.36-5.51l167-190.44 33-203z" fill="#efcbd1"/><path d="m470.41 371.71h46.49a0 0 0 0 1 0 0v82.6a0 0 0 0 1 0 0h-46.49a25.31 25.31 0 0 1 -25.31-25.31v-32a25.31 25.31 0 0 1 25.31-25.29z" fill="#836b96"/><path d="m477.61 454.32h-7.2a25.31 25.31 0 0 1 -25.31-25.32v-32a25.32 25.32 0 0 1 25.31-25.32h7.2a25.32 25.32 0 0 0 -25.31 25.32v32a25.31 25.31 0 0 0 25.31 25.32z" fill="#c8b3dd"/><path d="m509.6 255.08h14.5a0 0 0 0 1 0 0v82.6a0 0 0 0 1 0 0h-46.49a25.31 25.31 0 0 1 -25.31-25.31 57.3 57.3 0 0 1 57.3-57.29z" fill="#836b96" transform="matrix(.97595482 .21797291 -.21797291 .97595482 76.32 -99.27)"/><path d="m458.76 305.82a25 25 0 0 0 -.61 5.54 25.32 25.32 0 0 0 19.79 24.64l36.37 8.11-.08.36-45.37-10.14a25.32 25.32 0 0 1 -19.79-24.67 25.69 25.69 0 0 1 .61-5.54 57.29 57.29 0 0 1 68.41-43.43l2.78.62a57.29 57.29 0 0 0 -62.11 44.51z" fill="#c8b3dd"/><path d="m563.94 232.19h22.74a27.1 27.1 0 0 1 27.1 27.1v188.9a27.1 27.1 0 0 1 -27.1 27.1h-99.16a27.1 27.1 0 0 1 -27.1-27.1v-112.48a103.52 103.52 0 0 1 103.52-103.52z" fill="#604970"/><path d="m575.18 232.19h13.07a25.54 25.54 0 0 1 25.54 25.54v192a25.54 25.54 0 0 1 -25.54 25.54h-85.08a25.54 25.54 0 0 1 -25.54-25.54v-120a97.54 97.54 0 0 1 97.55-97.54z" fill="#503b60"/><path d="m379.94 836.56-9.88 11.27 47.12 41.32 16.21-18.49-42.28-37.08c-2.67-2.34-7.67-1.01-11.17 2.98z" fill="#604970"/><path d="m568.65 430.46h72.43a0 0 0 0 1 0 0v220.48a36.21 36.21 0 0 1 -36.21 36.21 36.21 36.21 0 0 1 -36.21-36.21v-220.48a0 0 0 0 1 -.01 0z" fill="#915e8c" transform="matrix(.98176015 -.19012364 .19012364 .98176015 -95.23 125.22)"/><g fill="#f29495"><rect height="39.25" rx="19.62" transform="matrix(.99923587 -.03908542 .03908542 .99923587 -12.5 33.25)" width="60.03" x="812.7" y="316.23"/><rect height="31.07" rx="15.53" transform="matrix(.5162344 -.85644734 .85644734 .5162344 149.02 825.51)" width="60.03" x="775.25" y="265.31"/><rect height="54.92" rx="27.46" transform="matrix(.99923587 -.03908542 .03908542 .99923587 -11.33 33.18)" width="76.64" x="803.22" y="278.52"/><rect height="144.51" rx="32.92" transform="matrix(.74279437 -.66951962 .66951962 .74279437 -31.9 532.64)" width="65.83" x="644.33" y="235.58"/><rect height="183.18" rx="40.98" transform="matrix(-.2101305 -.97767335 .97767335 -.2101305 604.58 1142.71)" width="81.96" x="722.94" y="235.53"/></g><path d="m872.72 335.45a19.62 19.62 0 0 1 -18.85 19.6l-20.77.82a19.7 19.7 0 0 1 -6.08-.73 39.93 39.93 0 0 1 -5 1.42l-99 21.25a41 41 0 0 1 -43-17.73c-.33-.32-.64-.65-.94-1l-52.67-58.44a32.87 32.87 0 0 1 -7.27-30.87 33 33 0 0 0 7.33 13.4l47 52.15 5.68 6.28c.31.34.63.69 1 1a41 41 0 0 0 43 17.7l4.69-1 85.44-18.3 8.8-1.89a38.85 38.85 0 0 0 5-1.42 18.83 18.83 0 0 0 6.08.73l15.25-.6 5.52-.21a19.6 19.6 0 0 0 16.78-10.79 19.66 19.66 0 0 1 2 7.9c.01.21.01.48.01.73z" fill="#e58389"/><circle cx="655.1" cy="278.55" fill="#ffb41f" r="42.44"/><path d="m585.25 184.94h43.01v50.17h-43.01z" fill="#f5b5a9"/><path d="m606.75 424.51a59.76 59.76 0 0 1 59.76 59.76v21.41a0 0 0 0 1 0 0h-119.51a0 0 0 0 1 0 0v-21.42a59.76 59.76 0 0 1 59.75-59.75z" fill="#915e8c" transform="matrix(-1 0 0 -1 1213.51 930.18)"/><path d="m641.37 865.76h55.95v45.93h-55.95z" fill="#f29495" transform="matrix(.98176015 -.19012364 .19012364 .98176015 -156.79 143.5)"/><path d="m638.06 909.71 3.42 17.65 61.52-11.92-4.9-25.34-53.83 10.42a7.85 7.85 0 0 0 -6.21 9.19z" fill="#604970"/><path d="m639.57 865.93h55.95v27.01h-55.95z" fill="#e5888c" transform="matrix(.98176015 -.19012364 .19012364 .98176015 -155.05 142.99)"/><path d="m646.4 909.77 32-8.81a35.57 35.57 0 0 1 67.91 6.55l-69.88 13.49-34.84 6.75-1.51-7.75a8.81 8.81 0 0 1 6.32-10.23z" fill="#604970"/><path d="m701 880.23a35.57 35.57 0 0 1 38 28.67l7.22-1.39a35.56 35.56 0 0 0 -41.69-28.16 31.91 31.91 0 0 0 -3.53.88z" fill="#836b96"/><path d="m636.05 934.16a5.49 5.49 0 0 0 5.74 4.44 3.43 3.43 0 0 0 .71-.08l104.14-20.17a7.73 7.73 0 0 0 .86-.22 8.35 8.35 0 0 0 -3.15-16.3 8.66 8.66 0 0 0 -1.32.22l-4 1-11.3 2.83-5.26 1.32-11.25 2.8-5.22 1.33-11.3 2.82-5.25 1.32-11.3 2.82-5.27 1.32-11.29 2.82-5.26 1.32-11.33 2.82-4.85 1.21-.41.13a5.51 5.51 0 0 0 -3.67 6.25z" fill="#3c1c39"/><g fill="#604970"><path d="m739.07 903 3.13 16.17 5.31-1-3.16-16.35a8.66 8.66 0 0 0 -1.32.22z"/><path d="m722.51 907.19 2.95 15.26 5.32-1.03-3.01-15.55z"/><path d="m705.95 911.33 2.78 14.36 5.32-1.03-2.83-14.65z"/><path d="m689.4 915.47 2.6 13.46 5.32-1.03-2.67-13.75z"/><path d="m672.83 919.61 2.44 12.56 5.32-1.03-2.49-12.85z"/><path d="m656.28 923.75 2.26 11.66 5.32-1.03-2.32-11.95z"/><path d="m639.72 927.91 2.08 10.75 5.32-1-2.14-11-4.85 1.21z"/></g><path d="m640.85 606.06a36.21 36.21 0 0 1 36.21 36.21v236.9a3.91 3.91 0 0 1 -3.91 3.91h-64.61a3.91 3.91 0 0 1 -3.91-3.91v-236.89a36.21 36.21 0 0 1 36.21-36.21z" fill="#915e8c" transform="matrix(.98176015 -.19012364 .19012364 .98176015 -129.89 135.45)"/><path d="m547 318.91h119.51v105.6h-119.51z" fill="#ffd41d" transform="matrix(-1 0 0 -1 1213.51 743.42)"/><path d="m587.4 426.52h9.66a0 0 0 0 1 0 0v464.23a0 0 0 0 1 0 0h-5.76a3.91 3.91 0 0 1 -3.91-3.91v-460.32a0 0 0 0 1 0 0z" fill="#f4dbde" transform="matrix(.98176015 -.19012364 .19012364 .98176015 -114.44 124.64)"/><path d="m514.38 296.88a64 64 0 0 0 16.43 42.81c10.19 11.09 24.19 17.95 39.68 17.95h65.1c31.11 0 57.39-27.8 57.14-61.77a64 64 0 0 0 -16.43-42.81c-10.16-11.09-24.19-17.95-39.68-17.95h-65.1c-31.11 0-57.39 27.8-57.14 61.77z" fill="#ffd41d"/><path d="m585.25 184.94v15a60.91 60.91 0 0 0 33 21.55 59 59 0 0 0 10 1.67v-38.22z" fill="#f29495"/><path d="m611.83 358.18h20.73a61.26 61.26 0 0 0 6.34-122.18c-1.74-.18-3.49-.28-5.27-.31h-21.8a61.09 61.09 0 0 1 21.8 4c1.8.69 3.55 1.44 5.27 2.29a61.27 61.27 0 0 1 -27.07 116.24z" fill="#f9e27d"/><path d="m574.61 232.36v19.64h64.29v-19.64a10.86 10.86 0 0 0 -10.63-10.86h-43a10.86 10.86 0 0 0 -10.66 10.86z" fill="#ffd41d"/><path d="m623 221.5a10.86 10.86 0 0 1 10.63 10.86v7.29c1.8.69 3.55 1.44 5.27 2.29v-9.58a10.86 10.86 0 0 0 -10.63-10.86z" fill="#f9e27d"/><path d="m628.44 213a61 61 0 0 1 -64.44-57.31l-1.56-26.62a33 33 0 0 1 4.33-18.45v-.06a33.18 33.18 0 0 1 26.82-16.56l27.26-1.59 6.6-.39a30.52 30.52 0 0 1 32.29 28.69l.41 7 .14 2.35.38 6.38.26 4.34 2 33.48a36.68 36.68 0 0 1 -34.49 38.74z" fill="#f5b5a9"/><path d="m660.93 140.73a23.29 23.29 0 0 1 -2.75-.28l-71.18-11.45a25 25 0 0 1 -20.26-18.46 33.18 33.18 0 0 1 26.85-16.54l27.26-1.59 6.6-.39a30.52 30.52 0 0 1 32.29 28.69l.41 7 .14 2.35.38 6.38z" fill="#f29495"/><circle cx="612.65" cy="156.73" fill="#3c1c39" r="4.22"/><circle cx="642.49" cy="156.73" fill="#3c1c39" r="4.22"/><path d="m639.35 174a12.57 12.57 0 0 1 -4.31 8.57c-.31.26-.63.51-1 .74a12.43 12.43 0 0 1 -8.15 2.27h-.51a12.38 12.38 0 0 1 -7.18-2.94 12.52 12.52 0 0 1 -4.43-9.44c0-.35 0-.7 0-1a2.45 2.45 0 0 1 2.6-2.25l20.66 1.53a2.44 2.44 0 0 1 2.32 2.52z" fill="#962f4a"/><path d="m625.81 183.68a9.9 9.9 0 0 1 -.33 1.91h-.06a12.52 12.52 0 0 1 -11.61-12.38 9.65 9.65 0 0 1 2.8-.2 10 10 0 0 1 9.2 10.67z" fill="#e1617f"/><path d="m636.64 171.41c-.28 2.44-4.2 4.13-8.85 3.78s-8.28-2.58-8.2-5z" fill="#fff"/><circle cx="552.9" cy="278.55" fill="#ffb41f" r="42.44"/><rect fill="#50274c" height="50.08" rx="25.04" width="122.14" x="552.9" y="79.25"/><rect fill="#50274c" height="50.08" rx="25.04" width="102.29" x="559.36" y="66.89"/><path d="m675 104.29a25.06 25.06 0 0 1 -25 25h-14.12a25 25 0 0 0 9.12-48.29c-.29-.58-.6-1.17-.94-1.73a25 25 0 0 0 -21.56-12.38h14.11a25 25 0 0 1 22.52 14.11 25 25 0 0 1 15.87 23.29z" fill="#684568"/><path d="m556.74 123h21a0 0 0 0 1 0 0v23.4a19.5 19.5 0 0 1 -19.5 19.5h-1.51a0 0 0 0 1 0 0v-42.9a0 0 0 0 1 .01 0z" fill="#50274c"/><circle cx="568.55" cy="112.16" fill="#50274c" r="27.14"/><path d="m556.74 130.8a27.2 27.2 0 0 0 7.93 5.82v28.16a19.42 19.42 0 0 1 -6.41 1.08h-1.52v-29.25a27.15 27.15 0 0 1 15.77-51.3 27.14 27.14 0 0 0 -15.77 45.49z" fill="#3f1b3d"/><circle cx="568.41" cy="160.72" fill="#f5b5a9" r="15.51"/><path d="m563.73 159a6.69 6.69 0 0 0 3.25 6.66 1.91 1.91 0 0 0 2.81-1.45l1.15-8.64a2 2 0 0 0 -2.52-2.1 6.72 6.72 0 0 0 -4.69 5.53z" fill="#f29495"/><rect fill="#684568" height="20.66" rx="9.9" width="69.54" x="568.55" y="96.31"/><path d="m552.9 232.77s84.69 4.32 27.15 127.56l15.29 8.12s68.89-118-22.23-135.68z" fill="#604970"/><g fill="#f5b5a9"><rect height="39.25" rx="19.62" transform="matrix(.86828541 .49606497 -.49606497 .86828541 294.99 -261.78)" width="60.03" x="610.43" y="404.99"/><rect height="31.07" rx="15.53" transform="matrix(.99728885 -.07358632 .07358632 .99728885 -27.04 47.25)" width="60.03" x="598.11" y="375.33"/><rect height="54.92" rx="27.46" transform="matrix(.78961985 .61359636 -.61359636 .78961985 400.57 -301.32)" width="76.64" x="601.36" y="406"/><rect height="130.84" rx="32.92" transform="matrix(.96487908 .26269442 -.26269442 .96487908 101.41 -130.39)" width="65.83" x="505.51" y="248.69"/><rect height="39.25" rx="19.62" transform="matrix(.78961985 .61359636 -.61359636 .78961985 411.2 -285.1)" width="60.03" x="591.32" y="437.44"/><rect height="140.98" rx="32.92" transform="matrix(.96487908 .26269442 -.26269442 .96487908 102.65 -129.87)" width="65.83" x="504.18" y="248.52"/></g><path d="m544.55 249.51a34.08 34.08 0 0 1 34.08 34.08v50.13a0 0 0 0 1 0 0h-68.15a0 0 0 0 1 0 0v-50.13a34.08 34.08 0 0 1 34.08-34.08z" fill="#ffd41d" transform="matrix(.96487908 .26269442 -.26269442 .96487908 95.71 -132.79)"/><path d="m647.58 442.59a41 41 0 0 1 -52.06 18.57c-.37-.17-.75-.32-1.12-.5s-.62-.28-.92-.44-.88-.43-1.31-.65l-89.39-47.47a40.75 40.75 0 0 1 -12.35-10.05c-.33-.4-.66-.81-1-1.22-.63-.82-1.23-1.67-1.79-2.54-.29-.42-.56-.86-.82-1.31-.54-.88-1-1.78-1.49-2.71a41.3 41.3 0 0 1 -2.33-5.68c-.33-1-.6-2-.85-3s-.45-2-.62-3c-.08-.51-.15-1-.22-1.53-.13-1-.22-2-.28-3.07a40.74 40.74 0 0 1 4.75-21.34c.4-.75.82-1.48 1.25-2.19a40.88 40.88 0 0 1 54.15-14.77l89.4 47.46a41 41 0 0 1 17 55.44z" fill="#f5b5a9"/><ellipse cx="618.4" cy="433.75" fill="#f8cdc5" rx="14.63" ry="19.93" transform="matrix(.3 -.95 .95 .3 17.28 891.14)"/></svg>