<svg viewBox="0 0 1000 1000" xmlns="http://www.w3.org/2000/svg"><path d="m981.89 661.19v10.41a132.55 132.55 0 0 1 -63.07 112.82q-4.64 2.85-9.52 5.32a131.74 131.74 0 0 1 -59.81 14.26h-53.69a27.33 27.33 0 0 0 -27.32 27.32v101.91h-456.76v-101.91a27.34 27.34 0 0 0 -27.32-27.32h-90.34c-.89 0-1.78 0-2.66 0-.54 0-1.07 0-1.61 0-2.66-.08-5.29-.24-7.91-.47a137 137 0 0 1 -63.22-22q-4.91-3.21-9.52-6.84-1.86-1.45-3.67-3-4.53-3.81-8.71-8a137.17 137.17 0 0 1 -40.3-97.3 138.55 138.55 0 0 1 1.54-20.59 135 135 0 0 1 5.81-23.8c.12-.39.25-.78.39-1.16a136.74 136.74 0 0 1 10.8-23.4q1.49-2.55 3.06-5a138.46 138.46 0 0 1 23.43-27.8q3.72-3.39 7.69-6.51 4.6-3.61 9.52-6.84a136.63 136.63 0 0 1 55.16-21c1.23-.18 2.46-.35 3.7-.5 1.44-.17 2.9-.32 4.36-.45.62-.05 1.25-.11 1.88-.15l2.88-.18c1.58-.08 3.17-.14 4.76-.17h2.66 106a35.68 35.68 0 0 0 25.29-10.47c.7-.7 1.36-1.43 2-2.18a35.69 35.69 0 0 0 0-46.23 35.71 35.71 0 0 0 -21.39-12.2 35.26 35.26 0 0 0 -5.85-.48h-178.93c-.86 0-1.71 0-2.56 0a82.74 82.74 0 0 1 -9.52-.84c-2.6-.37-5.17-.87-7.69-1.48a81.2 81.2 0 0 1 -10.28-3.21 83.58 83.58 0 0 1 -53.31-71.57c-.16-2.14-.24-4.29-.24-6.47a83.43 83.43 0 0 1 24.49-59.12 85.7 85.7 0 0 1 9.11-7.9 83.2 83.2 0 0 1 20-11 81.2 81.2 0 0 1 10.28-3.21c2.52-.61 5.09-1.11 7.69-1.48a82.74 82.74 0 0 1 9.52-.84h2.56a69.14 69.14 0 0 0 52.6-24.18c1.3-1.51 2.54-3.09 3.7-4.71a66.64 66.64 0 0 0 4.36-6.89c.72-1.3 1.4-2.62 2-4a64.59 64.59 0 0 0 2.73-6.66 69.82 69.82 0 0 0 3.88-22.89v-70.6a27.53 27.53 0 0 1 .88-6.9 27.92 27.92 0 0 1 1.37-4 26.76 26.76 0 0 1 3.84-6.34 27.25 27.25 0 0 1 21.22-10.13h636.57a83.61 83.61 0 1 1 0 167.21h-68a48.57 48.57 0 0 0 -48.59 48.59 48.53 48.53 0 0 0 48.59 48.59c.89 0 1.78 0 2.66.06a63 63 0 0 1 60.36 63v43a43.91 43.91 0 0 0 31.24 42.1 185.86 185.86 0 0 1 28.57 11.11q4.74 2.31 9.52 5.06c16.33 9.36 32.4 22.5 44.23 40.87a113.22 113.22 0 0 1 13.12 28.38 137.16 137.16 0 0 1 5.77 40.36z" fill="#f0f3f9"/><g fill="#34629b" opacity=".38"><path d="m118.66 290.1v167.14a82.74 82.74 0 0 1 -9.52-.84v-165.46a82.74 82.74 0 0 1 9.52-.84z" opacity=".11"/><path d="m109.14 558.11q4.6-3.61 9.52-6.84v230.25q-4.91-3.21-9.52-6.84z" opacity=".11"/><path d="m191.4 143.27v314h-9.52v-203c.72-1.3 1.4-2.62 2-4a64.59 64.59 0 0 0 2.73-6.66 69.82 69.82 0 0 0 3.88-22.89v-70.6a27.53 27.53 0 0 1 .91-6.85z" opacity=".11"/><path d="m186.64 529c1.58-.08 3.17-.14 4.76-.17v275.17c-.54 0-1.07 0-1.61 0-2.66-.08-5.29-.24-7.91-.47v-274.21c.62-.05 1.25-.11 1.88-.15z" opacity=".11"/><path d="m254.62 122.85h9.52v334.43h-9.52z" opacity=".11"/><path d="m254.62 528.79h9.52v275.21h-9.52z" opacity=".11"/><path d="m327.37 122.85h9.51v811.1h-9.51z" opacity=".11"/><path d="m400.11 122.85h9.52v811.1h-9.52z" opacity=".11"/><path d="m472.85 122.85h9.52v811.1h-9.52z" opacity=".11"/><path d="m545.59 122.85h9.52v811.1h-9.52z" opacity=".11"/><path d="m618.33 122.85h9.52v811.1h-9.52z" opacity=".11"/><path d="m691.08 122.85h9.51v811.1h-9.51z" opacity=".11"/><path d="m773.34 122.85v169a48.38 48.38 0 0 0 -9.52 3.8v-172.8z" opacity=".11"/><path d="m763.82 381.66a48.38 48.38 0 0 0 9.52 3.8v548.54h-9.52z" opacity=".11"/><path d="m836.56 122.85h9.52v167.21h-9.52z" opacity=".11"/><path d="m846.08 429.79v374.21h-9.52v-392a62.61 62.61 0 0 1 9.52 17.79z" opacity=".11"/><path d="m918.82 153.14v106.63a82.82 82.82 0 0 1 -9.52 9.76v-126.15a83.59 83.59 0 0 1 9.52 9.76z" opacity=".11"/><path d="m918.82 551.55v232.87q-4.64 2.85-9.52 5.32v-243.25q4.7 2.31 9.52 5.06z" opacity=".11"/></g><g fill="#6e8ec8"><rect height="17.61" rx="8.8" width="74.06" x="871.52" y="933.23"/><rect height="17.61" rx="8.8" width="809.94" x="54.42" y="933.23"/><path d="m666.83 416.3h52.77a90.46 90.46 0 0 1 90.46 90.46v30.15a0 0 0 0 1 0 0h-233.69a0 0 0 0 1 0 0v-30.15a90.46 90.46 0 0 1 90.46-90.46z"/><path d="m810.07 485.75v51.14c-77.17 21.06-155.14 19.2-233.73 0v-51.14a116.46 116.46 0 0 1 39.66-87.64c12.19-10.72 19.64-25.82 19.64-42.05a54.73 54.73 0 0 0 -4.91-22.67l-44.11-97.19c-14.35-31.61 8.75-67.53 43.51-67.53a29.2 29.2 0 0 0 29.2-29.2v-9h67.82v9a29.19 29.19 0 0 0 29.19 29.2c34.76 0 57.92 35.92 43.51 67.53l-44.11 97.19a54.88 54.88 0 0 0 -4.94 22.61c0 16.23 7.45 31.32 19.63 42a116.5 116.5 0 0 1 39.64 87.75z"/></g><path d="m576.34 485.75v51.15a432.39 432.39 0 0 0 132.29 14.72 427.35 427.35 0 0 1 -95.22-14.72v-51.15a116.48 116.48 0 0 1 39.65-87.68 59.21 59.21 0 0 0 14.37-19 53.7 53.7 0 0 0 5.25-23.07 55 55 0 0 0 -4.9-22.67l-44.12-97.19a47.64 47.64 0 0 1 43.51-67.53 29.2 29.2 0 0 0 29.19-29.2v-9h-37.07v9a29.19 29.19 0 0 1 -29.19 29.2 47.64 47.64 0 0 0 -43.51 67.53l44.12 97.19a55 55 0 0 1 4.9 22.67 53.7 53.7 0 0 1 -5.25 23.08 59.07 59.07 0 0 1 -14.37 19 116.48 116.48 0 0 0 -39.65 87.67z" fill="#5a80b7"/><g fill="#6e8ec8"><path d="m682.98 546.61h25.85v295.07h-25.85z"/><path d="m695.28 833.22a104.54 104.54 0 0 0 -77.56 34.44l-32 35.41 18.66 16.87 32-35.39a79.39 79.39 0 0 1 58.89-26.15 79.38 79.38 0 0 1 58.92 26.18l31.95 35.36 18.71-16.87-32-35.41a104.55 104.55 0 0 0 -77.57-34.44z"/><path d="m683 833.24h25.85a0 0 0 0 1 0 0v41.26a12.92 12.92 0 0 1 -12.92 12.92 12.92 12.92 0 0 1 -12.93-12.93v-41.25a0 0 0 0 1 0 0z"/><circle cx="594.7" cy="911.81" r="21.15"/><circle cx="794.45" cy="911.81" r="21.15"/></g><path d="m462.16 122.85v522.95h-404.16a135 135 0 0 1 5.81-23.8c.12-.39.25-.78.39-1.16a136.74 136.74 0 0 1 10.8-23.4q1.49-2.55 3.06-5a138.46 138.46 0 0 1 23.43-27.8 137 137 0 0 1 72.37-34.35c1.23-.18 2.46-.35 3.7-.5 2.06-.24 4.14-.45 6.24-.6l2.88-.18q3.69-.19 7.42-.2h106a35.76 35.76 0 0 0 5.85-71 35.26 35.26 0 0 0 -5.85-.48h-178.88a83.67 83.67 0 0 1 -19.77-2.36 81.2 81.2 0 0 1 -10.28-3.21 83.58 83.58 0 0 1 -53.31-71.57h-.3v-25.53l3.61-5.14a83.43 83.43 0 0 1 20.94-35 85.7 85.7 0 0 1 9.11-7.9 83.2 83.2 0 0 1 20-11 81.2 81.2 0 0 1 10.28-3.21 83.67 83.67 0 0 1 19.77-2.36 69.14 69.14 0 0 0 52.6-24.18c1.3-1.51 2.54-3.09 3.7-4.71a68.5 68.5 0 0 0 6.39-10.85 64.59 64.59 0 0 0 2.73-6.66 69.82 69.82 0 0 0 3.88-22.89v-70.6a27 27 0 0 1 2.25-10.85 26.76 26.76 0 0 1 3.84-6.34 27.25 27.25 0 0 1 21.22-10.13z" fill="#a5b8dd"/><path d="m436.25 122.85v499.15h-372.44c.12-.39.25-.78.39-1.16a136.74 136.74 0 0 1 10.8-23.4q1.49-2.55 3.06-5a138.46 138.46 0 0 1 23.43-27.8 137 137 0 0 1 72.37-34.35c1.23-.18 2.46-.35 3.7-.5 2.06-.24 4.14-.45 6.24-.6l2.88-.18q3.69-.19 7.42-.2h106a35.76 35.76 0 0 0 5.85-71 35.26 35.26 0 0 0 -5.85-.48h-178.88a83.67 83.67 0 0 1 -19.77-2.36 81.2 81.2 0 0 1 -10.28-3.21 83.58 83.58 0 0 1 -53.31-71.57h-.3v-25.53l3.61-5.14a83.43 83.43 0 0 1 20.94-35 85.7 85.7 0 0 1 9.11-7.9 83.2 83.2 0 0 1 20-11 81.2 81.2 0 0 1 10.28-3.21 83.67 83.67 0 0 1 19.77-2.36 69.14 69.14 0 0 0 52.6-24.18c1.3-1.51 2.54-3.09 3.7-4.71a68.5 68.5 0 0 0 6.39-10.85 64.59 64.59 0 0 0 2.73-6.66 69.82 69.82 0 0 0 3.88-22.89v-70.6a27 27 0 0 1 2.25-10.85 26.76 26.76 0 0 1 3.84-6.34 27.25 27.25 0 0 1 21.22-10.13z" fill="#ecf2fc"/><g fill="#cddbf1"><path d="m101.45 292.42v162.5a81.2 81.2 0 0 1 -10.28-3.21 83.58 83.58 0 0 1 -53.31-71.57h-.3v-25.48l3.61-5.14a83.43 83.43 0 0 1 20.94-35 85.7 85.7 0 0 1 9.11-7.9 83.2 83.2 0 0 1 20-11 81.2 81.2 0 0 1 10.23-3.2z"/><path d="m101.45 564.62v57.38h-37.64c.12-.39.25-.78.39-1.16a136.74 136.74 0 0 1 10.8-23.4q1.49-2.55 3.06-5a138.46 138.46 0 0 1 23.43-27.8z"/><path d="m436.26 122.85v499.15h-102.72v-116.28a35.84 35.84 0 0 0 0-25.37v-357.5z"/></g><path d="m333.54 122.85v357.5a35.79 35.79 0 0 0 -27.54-22.59 35.26 35.26 0 0 0 -5.85-.48h-17v-334.43z" fill="#b4c6e2"/><path d="m325.39 518.32a35.88 35.88 0 0 0 8.15-12.6v116.28h-50.46v-93.21h17a35.68 35.68 0 0 0 25.31-10.47z" fill="#b4c6e2"/><path d="m225.64 528.79v93.21h-48.12v-92.23c2.06-.24 4.14-.45 6.24-.6l2.88-.18q3.69-.19 7.42-.2z" fill="#cddbf1"/><path d="m225.64 122.85v334.43h-48.12v-196.11a68.5 68.5 0 0 0 6.39-10.85 64.59 64.59 0 0 0 2.73-6.66 69.82 69.82 0 0 0 3.88-22.89v-70.6a27 27 0 0 1 2.25-10.85 26.76 26.76 0 0 1 3.84-6.34 27.25 27.25 0 0 1 21.22-10.13z" fill="#cddbf1"/><path d="m225.64 122.85h35.71v334.43h-35.71z" fill="#b0c2df"/><path d="m225.64 528.79h35.71v93.17h-35.71z" fill="#b0c2df"/><g fill="#dee7f7"><path d="m91.17 295.63v84.51h-53.61v-25.48l3.61-5.14a83.43 83.43 0 0 1 20.94-35 85.7 85.7 0 0 1 9.11-7.9 83.2 83.2 0 0 1 19.95-10.99z"/><path d="m91.17 405.17v46.54a83.86 83.86 0 0 1 -47.41-46.54z"/><path d="m91.17 575v22.41h-16.17q1.49-2.55 3.06-5a138.7 138.7 0 0 1 13.11-17.41z"/><path d="m352.78 122.85h25.13v5.98h-25.13z"/><path d="m399.3 122.85h25.13v5.98h-25.13z"/><path d="m352.78 151.03h25.13v13.62h-25.13z"/><path d="m399.3 151.03h25.13v13.62h-25.13z"/><path d="m352.78 186.86h25.13v13.62h-25.13z"/><path d="m399.3 186.86h25.13v13.62h-25.13z"/><path d="m352.78 222.69h25.13v13.62h-25.13z"/><path d="m399.3 222.69h25.13v13.62h-25.13z"/><path d="m352.78 258.52h25.13v13.62h-25.13z"/><path d="m399.3 258.52h25.13v13.62h-25.13z"/><path d="m352.78 294.35h25.13v13.62h-25.13z"/><path d="m399.3 294.35h25.13v13.62h-25.13z"/><path d="m352.78 330.17h25.13v13.62h-25.13z"/><path d="m399.3 330.17h25.13v13.62h-25.13z"/><path d="m352.78 366h25.13v13.62h-25.13z"/><path d="m399.3 366h25.13v13.62h-25.13z"/><path d="m352.78 401.83h25.13v13.62h-25.13z"/><path d="m399.3 401.83h25.13v13.62h-25.13z"/><path d="m352.78 437.66h25.13v13.62h-25.13z"/><path d="m399.3 437.66h25.13v13.62h-25.13z"/><path d="m352.78 473.49h25.13v13.62h-25.13z"/><path d="m399.3 473.49h25.13v13.62h-25.13z"/><path d="m352.78 509.32h25.13v13.62h-25.13z"/><path d="m399.3 509.32h25.13v13.62h-25.13z"/><path d="m352.78 545.15h25.13v13.62h-25.13z"/><path d="m399.3 545.15h25.13v13.62h-25.13z"/><path d="m352.78 580.98h25.13v13.62h-25.13z"/><path d="m399.3 580.98h25.13v13.62h-25.13z"/><path d="m196.61 133v6.34h-3.84a26.76 26.76 0 0 1 3.84-6.34z"/><path d="m218.72 122.85v16.47h-12.84v-13.72a27.18 27.18 0 0 1 12-2.75z"/><path d="m190.52 158.45h28.2v19.6h-28.2z"/><path d="m190.52 191.98h6.09v19.6h-6.09z"/><path d="m205.88 191.98h12.85v19.6h-12.85z"/><path d="m218.72 230.71v19.61h-34.81a64.59 64.59 0 0 0 2.73-6.66 67.3 67.3 0 0 0 3.16-12.95z"/><path d="m183.76 264.24h12.85v19.6h-12.85z"/><path d="m205.88 264.24h12.85v19.6h-12.85z"/><path d="m183.76 302.4h34.96v19.6h-34.96z"/><path d="m183.76 335.94h12.85v19.6h-12.85z"/><path d="m205.88 335.94h12.85v19.6h-12.85z"/><path d="m183.76 374.1h34.96v19.6h-34.96z"/><path d="m183.76 407.63h12.85v19.6h-12.85z"/><path d="m205.88 407.63h12.85v19.6h-12.85z"/><path d="m183.76 445.79h34.96v11.49h-34.96z"/><path d="m218.72 528.79v8.29h-35v-7.91l2.88-.18q3.69-.19 7.42-.2z"/><path d="m183.76 551.01h12.85v19.6h-12.85z"/><path d="m205.88 551.01h12.85v19.6h-12.85z"/></g><path d="m186.64 243.66v213.62h-12.82v-191.4c1.3-1.51 2.54-3.09 3.7-4.71a68.5 68.5 0 0 0 6.39-10.85 64.59 64.59 0 0 0 2.73-6.66z" fill="#a5b8dd"/><path d="m186.64 529v93h-12.82v-91.73c1.23-.18 2.46-.35 3.7-.5 2.06-.24 4.14-.45 6.24-.6z" fill="#a5b8dd"/><path d="m280.51 179.13h95.62v177.12h-95.62z" fill="#4e3636"/><path d="m463.79 358.49a26.34 26.34 0 0 1 -41.9 21.25l-17.83-13-.07-.05-3.21-2.35-49.78-36.43a26.32 26.32 0 0 1 5.32-45.52c.67-.29 1.36-.55 2.05-.77a26.21 26.21 0 0 1 23.74 3.76l70.89 51.83a26.32 26.32 0 0 1 10.79 21.28z" fill="#ef948c"/><path d="m463.79 358.49a26.26 26.26 0 0 1 -5.08 15.51 25.53 25.53 0 0 1 -2.75 3.18 26.36 26.36 0 0 0 -8-33.12l-70.9-51.84a26.33 26.33 0 0 0 -34 2.52 27.15 27.15 0 0 1 2.26-3.68 26.34 26.34 0 0 1 36.82-5.71l70.86 51.86a26.32 26.32 0 0 1 10.79 21.28z" fill="#f79f9a"/><rect fill="#ef948c" height="139.65" rx="22.17" transform="matrix(-.66013278 -.75114893 .75114893 -.66013278 537.8 911.85)" width="44.33" x="453" y="264.45"/><rect fill="#ef948c" height="63.13" rx="21.96" transform="matrix(.04466556 .999002 -.999002 .04466556 799.78 -235.53)" width="43.92" x="501.09" y="268.87"/><path d="m554.61 300a22 22 0 0 1 -21 21.92l-11.43.51-68.18 59.96c-18.56 20-49.95-15.68-49.95-15.68l-.07-.06-3.2-2.34-49.78-36.39a26.42 26.42 0 0 1 -7.58-33.92 26.41 26.41 0 0 0 10.73 19.57l53.05 38.83s31.87 32.16 49.95 15.68l6.33-5.57 45.63-40.1 16.22-14.25 7.22-.33 4.21-.2a21.88 21.88 0 0 0 17.67-10.34q.11.87.15 1.74c.01.33.03.66.03.97z" fill="#e87a74"/><g fill="#ef948c"><rect height="60.36" rx="7.94" transform="matrix(.04466556 .999002 -.999002 .04466556 800.54 -265.84)" width="15.89" x="531.33" y="255.5"/><rect height="40.62" rx="7.94" transform="matrix(.5809871 .81391277 -.81391277 .5809871 444.96 -307.08)" width="15.89" x="512.76" y="258.28"/><path d="m338.71 635.52h50.99v286.43h-50.99z"/><path d="m266.02 635.52h50.99v286.43h-50.99z" transform="matrix(-1 0 0 -1 583.03 1557.46)"/></g><path d="m338.71 635.52h50.99v33.72h-50.99z" fill="#e87a74"/><path d="m266.02 635.52h50.99v33.72h-50.99z" fill="#e87a74" transform="matrix(-1 0 0 -1 583.03 1304.76)"/><path d="m339.44 930.16h51.42a25.71 25.71 0 0 0 -51.42 0z" fill="#b0dff3"/><path d="m392.12 934h-55.12a8.73 8.73 0 0 1 -8.73-8.72 8.74 8.74 0 0 1 9.57-8.69l54.91 5.33a6.07 6.07 0 0 1 5.47 6 6.05 6.05 0 0 1 -6.1 6.08z"/><path d="m266.38 930.16h51.42a25.71 25.71 0 0 0 -51.42 0z" fill="#b0dff3"/><path d="m319.06 934h-55.16a8.73 8.73 0 0 1 -8.73-8.72 8.74 8.74 0 0 1 9.57-8.69l54.91 5.33a6.07 6.07 0 0 1 5.47 6 6.05 6.05 0 0 1 -6.06 6.08z"/><path d="m255.83 490.47h144.68v157.84h-144.68z"/><path d="m400.55 490.47v2.27 155.57h-8.95v-155.57c0-.76 0-1.51 0-2.27a63.12 63.12 0 0 0 -63.12-63.12h8.91a63.12 63.12 0 0 1 63.16 63.12z" fill="#191d1e"/><circle cx="326.9" cy="125.86" fill="#4e3636" r="37.77"/><circle cx="326.9" cy="125.86" fill="#4e3636" r="37.77"/><path d="m364.67 125.86a36.62 36.62 0 0 1 -.32 4.83 37.76 37.76 0 0 0 -74.9 0 36.62 36.62 0 0 1 -.32-4.83 37.77 37.77 0 0 1 75.54 0z" fill="#604646"/><circle cx="326.9" cy="154.25" fill="#f9be78" r="24.87"/><rect fill="#ef948c" height="140.51" rx="26.35" transform="matrix(.63607822 .77162458 -.77162458 .63607822 351.54 -66.49)" width="52.69" x="219.91" y="269.18"/><path d="m310.46 234.35v46.09a16.45 16.45 0 0 0 32.89 0v-46.09a16.45 16.45 0 1 0 -32.89 0z" fill="#ef948c"/><rect height="126.23" rx="63.12" transform="matrix(-1 0 0 -1 655.72 980.94)" width="145.37" x="255.17" y="427.35"/><path d="m280.39 362.15v70.67a47.87 47.87 0 1 0 95.74 0v-70.67z" fill="#b0dff3"/><path d="m280.39 345.53v70.7l95.74-20.74v-49.96z" fill="#9acfe2"/><path d="m404.9 356.44v2.62a34.94 34.94 0 0 1 -.84 7.64l-.07-.05-3.21-2.35-49.78-36.39a26.34 26.34 0 0 1 -8.26-10 26.28 26.28 0 0 1 15.67-29c.5.18 1 .37 1.46.56a69.71 69.71 0 0 1 10.41 5.29c1.2.73 2.36 1.5 3.5 2.3a69.63 69.63 0 0 1 6.32 4.93 72 72 0 0 1 24.8 54.51z" fill="#e87a74"/><path d="m399.31 350v2.62a34.93 34.93 0 0 1 -34.93 34.93h-75a34.93 34.93 0 0 1 -34.92-34.93v-2.62a71.89 71.89 0 0 1 10.82-38.06c.69-1.14 1.43-2.26 2.19-3.35a70.37 70.37 0 0 1 8.19-9.79c1.14-1.15 2.34-2.27 3.58-3.36a69.35 69.35 0 0 1 8.26-6.21c.53-.34 1-.67 1.59-1a71.17 71.17 0 0 1 11.8-5.84 72.54 72.54 0 0 1 53.34.57 69.93 69.93 0 0 1 10.43 5.29c1.18.73 2.35 1.48 3.49 2.3a67.89 67.89 0 0 1 6.32 4.93 71.22 71.22 0 0 1 12.92 14.77c.36.55.72 1.1 1.06 1.67a71.81 71.81 0 0 1 10.86 38.08z" fill="#b0dff3"/><path d="m399.31 350v2.62a34.94 34.94 0 0 1 -34.94 34.93h-23.31a78 78 0 0 0 25.94-97.84l1.21.83a71.45 71.45 0 0 1 6.32 4.93 72 72 0 0 1 24.78 54.53z" fill="#caf1ff"/><path d="m310.46 234.35v35.57a40 40 0 0 0 32.89.86v-36.43a16.45 16.45 0 1 0 -32.89 0z" fill="#e87a74"/><circle cx="285.76" cy="215.8" fill="#ef948c" r="16.8"/><ellipse cx="327.87" cy="211.63" fill="#ef948c" rx="47.48" ry="57.37"/><path d="m275.86 215.25a7.28 7.28 0 0 1 4.45-6.71 2.08 2.08 0 0 1 2.83 2v9.46a2.12 2.12 0 0 1 -3 1.9 7.29 7.29 0 0 1 -4.28-6.65z" fill="#e87a74"/><circle cx="350.02" cy="217.9" fill="#4e3636" r="3.61"/><circle cx="313.07" cy="217.9" fill="#4e3636" r="3.61"/><path d="m340.7 235.35a11.84 11.84 0 0 1 -3.87 8.29c-.29.26-.59.51-.9.74a12.16 12.16 0 0 1 -7.8 2.43h-.49a12.11 12.11 0 0 1 -7-2.57 11.82 11.82 0 0 1 -4.6-8.83c0-.33 0-.66 0-1a2.31 2.31 0 0 1 .75-1.61 2.34 2.34 0 0 1 1.68-.61l20 .77a2.33 2.33 0 0 1 2.23 2.39z" fill="#962f4a"/><path d="m328 245a9.17 9.17 0 0 1 -.26 1.83h-.06a12 12 0 0 1 -11.68-11.44 10 10 0 0 1 2.69-.28 9.57 9.57 0 0 1 9.31 9.89z" fill="#e1617f"/><path d="m338 232.93c-.18 2.34-3.92 4.07-8.42 3.9s-8.09-2.19-8.1-4.53z" fill="#fff"/><path d="m335.93 244.38a12.16 12.16 0 0 1 -7.8 2.43h-.49a12.17 12.17 0 0 1 -7-2.56c1.27-2.42 4.37-4 7.93-3.91a8.66 8.66 0 0 1 7.36 4.04z" fill="#fff"/><rect fill="#ef948c" height="139.65" rx="22.17" transform="matrix(.75631038 -.65421297 .65421297 .75631038 -205.28 255.33)" width="44.33" x="217.92" y="333.37"/><rect fill="#ef948c" height="63.13" rx="21.96" transform="matrix(-.99932198 .03681812 -.03681812 -.99932198 563.53 892.31)" width="43.92" x="251.59" y="419.78"/><path d="m274.71 482.89a21.75 21.75 0 0 0 5.8-1 21.66 21.66 0 0 1 -6.25-1.43 22 22 0 0 1 -14-19.65l-.08-2.34-.33-9.09-8.53-9.86-50.86-58.79a22.19 22.19 0 0 1 10.14-35.67 22.17 22.17 0 0 0 -18.49 36.61l59.39 68.66.42 11.43a21.94 21.94 0 0 0 22.76 21.14z" fill="#e87a74"/><path d="m391.64 490.47v2.27z"/><path d="m391.64 490.47v2.27z"/><path d="m391.64 490.47v2.27z"/><circle cx="371.07" cy="215.8" fill="#ef948c" r="16.8"/><path d="m379 215.22a7.29 7.29 0 0 1 -4.45 6.71 2.09 2.09 0 0 1 -2.83-2v-9.47a2.11 2.11 0 0 1 3-1.89 7.28 7.28 0 0 1 4.28 6.65z" fill="#e87a74"/><g fill="#4e3636"><circle cx="345.98" cy="163.63" r="28.09"/><circle cx="310.46" cy="174.68" r="24.24"/><circle cx="288.98" cy="189.92" r="18.47"/><circle cx="370.54" cy="187.7" r="16.26"/><circle cx="345.98" cy="163.63" r="28.09"/><circle cx="310.46" cy="174.68" r="24.24"/><circle cx="288.98" cy="189.92" r="18.47"/><circle cx="370.54" cy="187.7" r="16.26"/></g><path d="m374.08 163.63a27.58 27.58 0 0 1 -.61 5.78 28.09 28.09 0 0 0 -49.08-14.55 28.48 28.48 0 0 0 -4.53 7.21 18.8 18.8 0 0 0 -1.86-.71 23.59 23.59 0 0 0 -7.87-1.32 24.2 24.2 0 0 0 -20.57 11.42 23.71 23.71 0 0 0 -3 7.21 21.78 21.78 0 0 0 -.47 2.56 18.49 18.49 0 0 0 -15.09 12.86 19.17 19.17 0 0 1 -.47-4.17 18.47 18.47 0 0 1 15.89-18.29 24.25 24.25 0 0 1 33.79-19.15 28.1 28.1 0 0 1 53.89 11.15z" fill="#604646"/><path d="m386.8 187.7a16.17 16.17 0 0 1 -.91 5.36 16.21 16.21 0 0 0 -13.33-11.83 27.5 27.5 0 0 0 1.17-8c0-.5 0-1 0-1.48a16.28 16.28 0 0 1 13.07 15.95z" fill="#604646"/><path d="m388.49 311.92c-15 10.89-37 17.75-61.58 17.75s-46.58-6.86-61.59-17.74c.69-1.14 1.43-2.26 2.19-3.35a70.37 70.37 0 0 1 8.19-9.79c1.14-1.15 2.34-2.27 3.58-3.36a69.35 69.35 0 0 1 8.26-6.21c.53-.34 1-.67 1.59-1a71.17 71.17 0 0 1 11.8-5.84 72.54 72.54 0 0 1 53.34.57 69.93 69.93 0 0 1 10.43 5.29c1.18.73 2.35 1.48 3.49 2.3a67.89 67.89 0 0 1 6.32 4.93 71.22 71.22 0 0 1 12.92 14.77c.36.56.72 1.11 1.06 1.68z" fill="#ef948c"/><rect fill="#9acfe2" height="9.59" rx="4.8" width="39.27" x="307.27" y="272.1"/><rect fill="#f79f9a" height="148.41" rx="7.33" width="14.66" x="365.15" y="713.55"/></svg>