<svg viewBox="0 0 1000 1000" xmlns="http://www.w3.org/2000/svg"><path d="m970.27 488.11a110.09 110.09 0 0 1 -8.9 43.44q-1.56 3.65-3.38 7.14a110.37 110.37 0 0 1 -63.47 54.1 106.37 106.37 0 0 1 -14.94 3.76l-.54.1q-2.76.48-5.57.82a109.21 109.21 0 0 1 -13.37.81h-89.84a19.48 19.48 0 1 0 0 39h26.83a66.66 66.66 0 0 1 21.76 3.61c2.06.7 4.06 1.5 6 2.39a66.59 66.59 0 0 1 16 10.26q1.9 1.63 3.67 3.41c.24.24.48.48.7.72.71.72 1.4 1.46 2 2.21 1.3 1.44 2.51 2.94 3.67 4.49a66.54 66.54 0 0 1 9.89 19c.25.73.47 1.46.69 2.2a67.13 67.13 0 0 1 2.67 18.82c0 1.58-.05 3.15-.17 4.7 0 .74-.11 1.48-.19 2.21a66.19 66.19 0 0 1 -6.31 22.3c-.2.41-.4.82-.61 1.22-.38.75-.77 1.48-1.18 2.21a67.38 67.38 0 0 1 -21.88 23.52c-1.17.77-2.36 1.51-3.58 2.2a66 66 0 0 1 -8.47 4.07 66.75 66.75 0 0 1 -24.75 4.72 54.69 54.69 0 0 0 -37.43 14.74c-.47.43-.93.88-1.38 1.33l-.85.87c-.78.82-1.54 1.66-2.26 2.52-.36.43-.72.86-1.07 1.3s-.58.73-.85 1.11l-.34.45-.31.42-.52.74c-.29.4-.56.81-.84 1.22s-.69 1.07-1 1.62-.51.84-.76 1.27c-.6 1-1.17 2.12-1.7 3.21-.2.4-.4.81-.58 1.22-.3.64-.58 1.29-.85 1.94-.19.46-.37.93-.55 1.4 0 .06 0 .13-.07.2-.2.52-.39 1-.57 1.58-.32.93-.61 1.88-.88 2.83 0 .16-.1.33-.14.49-.2.73-.38 1.47-.55 2.21a55.19 55.19 0 0 0 -1.36 12.21v32.49h-520.27v-59.86c0-.41 0-.81 0-1.22s0-.74-.07-1.1c0-.05 0-.09 0-.14 0-.31-.06-.61-.1-.91 0-.12 0-.23 0-.34a10.09 10.09 0 0 0 -.17-1.08 14.74 14.74 0 0 0 -.3-1.5c0-.25-.11-.49-.18-.74s-.2-.73-.31-1.09-.26-.83-.41-1.23-.31-.83-.48-1.24c-.32-.75-.66-1.49-1-2.2a23.79 23.79 0 0 0 -1.21-2.07 26.94 26.94 0 0 0 -3.64-4.39 25.4 25.4 0 0 0 -2.08-1.93 27.44 27.44 0 0 0 -17.58-6.35 66.6 66.6 0 0 1 -33.21-8.79c-1.22-.69-2.42-1.42-3.59-2.2a67.24 67.24 0 0 1 -10.39-8.4l-.29-.28a67.3 67.3 0 0 1 -11.2-14.85c-.41-.73-.8-1.46-1.18-2.21-.62-1.21-1.2-2.45-1.74-3.7a66.15 66.15 0 0 1 -5.19-19.82c-.07-.74-.14-1.47-.18-2.21-.12-1.55-.17-3.12-.17-4.7a67.19 67.19 0 0 1 2.67-18.82c.21-.74.44-1.47.68-2.2a68 68 0 0 1 5-11.45 66.44 66.44 0 0 1 8.56-12.07c.65-.75 1.33-1.49 2-2.21.28-.31.58-.61.88-.91 1.14-1.13 2.31-2.21 3.53-3.26a66.93 66.93 0 0 1 42.48-16.2h70.54a19.46 19.46 0 0 0 19.47-19.67c-.11-10.76-9.21-19.28-20-19.28h-148.01a110.18 110.18 0 0 1 -110.22-109.29 107.42 107.42 0 0 1 8.77-43.42 112.29 112.29 0 0 1 102.7-67.61h121a18 18 0 0 0 18-18.14c-.07-10-8.5-17.9-18.48-17.9h-42.43a67.14 67.14 0 0 1 -57.8-33 65.31 65.31 0 0 1 -3.61-7 67.17 67.17 0 0 1 10.68-71.14c.49-.57 1-1.14 1.52-1.69a66.94 66.94 0 0 1 49.21-21.47h210.43a37 37 0 0 0 14.23-2.87 36.51 36.51 0 0 0 8.49-5 35.82 35.82 0 0 0 6.94-7.24 36.31 36.31 0 0 0 6.94-21.08 37.22 37.22 0 0 1 22.46-34.08 36 36 0 0 1 14-2.83h254.93a35.92 35.92 0 0 1 10.32 1.47 33.4 33.4 0 0 1 3.79 1.34 36.66 36.66 0 0 1 18.54 17.26 36.72 36.72 0 0 1 3.91 16.48v7.24a29.14 29.14 0 0 0 3.3 13.51 28.75 28.75 0 0 0 3.61 5.38c.53.64 1.09 1.25 1.68 1.84a29.21 29.21 0 0 0 13.93 7.79 28.1 28.1 0 0 0 5 .74q.9.06 1.83.06a67.34 67.34 0 0 1 27.23 5.75 65.17 65.17 0 0 1 8.49 4.54 67.16 67.16 0 0 1 20.58 20.27 66.31 66.31 0 0 1 7.35 15.2l.06.16a66 66 0 0 1 2.89 12.68 67.11 67.11 0 0 1 -66.6 75.69h-52.96a18 18 0 0 0 -3.65 35.67 18.29 18.29 0 0 0 3.65.37h114.39a110 110 0 0 1 55.5 15 110.74 110.74 0 0 1 46.16 52.63c.37.9.74 1.8 1.09 2.71v.09a110.06 110.06 0 0 1 7.42 39.71z" fill="#f3f4fe"/><path d="m91 445.55s140.77-49.19 247.7-38.26a519.72 519.72 0 0 1 65.84 10.59 179.45 179.45 0 0 0 131-19.29c33.69-19.49 76.11-36.14 115.82-29.09 83.92 14.88 147.46 78.16 147.46 78.16s106.31-42.59 154-19.09c5.37 2.65 9 17 9 17-62.82 38.6-506.47 131.69-573.4 132.64-75.44 1.08-273-35.22-282.53-46s-14.89-86.66-14.89-86.66z" fill="#dee1fc"/><path d="m970.27 488.11a110.09 110.09 0 0 1 -8.9 43.44q-1.56 3.65-3.38 7.14a110.37 110.37 0 0 1 -63.47 54.1 106.37 106.37 0 0 1 -14.94 3.76l-.54.1q-2.76.48-5.57.82a109.21 109.21 0 0 1 -13.37.81h-89.84a19.48 19.48 0 1 0 0 39h26.83a66.66 66.66 0 0 1 21.76 3.61c2.06.7 4.06 1.5 6 2.39a66.59 66.59 0 0 1 16 10.26q1.9 1.63 3.67 3.41c.24.24.48.48.7.72.71.72 1.4 1.46 2 2.21 1.3 1.44 2.51 2.94 3.67 4.49a66.54 66.54 0 0 1 9.89 19c.25.73.47 1.46.69 2.2a67.13 67.13 0 0 1 2.67 18.82c0 1.58-.05 3.15-.17 4.7 0 .74-.11 1.48-.19 2.21a66.19 66.19 0 0 1 -6.31 22.3c-.2.41-.4.82-.61 1.22-.38.75-.77 1.48-1.18 2.21a67.38 67.38 0 0 1 -21.88 23.52c-1.17.77-2.36 1.51-3.58 2.2a66 66 0 0 1 -8.47 4.07 66.75 66.75 0 0 1 -24.75 4.72 54.69 54.69 0 0 0 -37.43 14.74c-.47.43-.93.88-1.38 1.33l-.85.87c-.78.82-1.54 1.66-2.26 2.52-.37.43-.73.86-1.07 1.3s-.58.73-.85 1.11l-.34.45-.31.42-.52.74c-.29.4-.56.81-.84 1.22s-.69 1.07-1 1.62-.51.84-.76 1.27c-.6 1-1.17 2.12-1.7 3.21-.2.4-.39.81-.58 1.22-.3.64-.58 1.29-.85 1.94-.19.46-.37.93-.55 1.4 0 .06 0 .13-.07.2-.2.52-.39 1-.57 1.58-.32.93-.61 1.88-.88 2.83 0 .16-.1.33-.14.49-.2.73-.38 1.47-.55 2.21a55.19 55.19 0 0 0 -1.36 12.21v19.82h-520.27v-47.19c0-.41 0-.81 0-1.22s0-.74-.07-1.1c0-.05 0-.09 0-.14 0-.31-.06-.61-.1-.91 0-.12 0-.23 0-.34a10.09 10.09 0 0 0 -.17-1.08q-.12-.75-.3-1.5c0-.25-.11-.49-.18-.74s-.2-.73-.31-1.09-.26-.83-.41-1.23-.31-.83-.48-1.24c-.32-.75-.66-1.49-1-2.2a23.79 23.79 0 0 0 -1.21-2.07 26.94 26.94 0 0 0 -3.64-4.39 25.4 25.4 0 0 0 -2.08-1.93 27.44 27.44 0 0 0 -17.58-6.35 66.6 66.6 0 0 1 -33.21-8.79c-1.22-.69-2.42-1.42-3.59-2.2a67.24 67.24 0 0 1 -10.39-8.4l-.29-.28a67.3 67.3 0 0 1 -11.2-14.85c-.41-.73-.8-1.46-1.18-2.21-.62-1.21-1.2-2.45-1.74-3.7a66.15 66.15 0 0 1 -5.19-19.82c-.07-.74-.14-1.47-.18-2.21-.12-1.55-.17-3.12-.17-4.7a67.19 67.19 0 0 1 2.67-18.82c.21-.74.44-1.47.68-2.2a68 68 0 0 1 5-11.45 66.44 66.44 0 0 1 8.56-12.07c.65-.75 1.33-1.49 2-2.21.28-.31.58-.61.88-.91 1.14-1.13 2.31-2.21 3.53-3.26a66.93 66.93 0 0 1 42.48-16.2h70.54a19.46 19.46 0 0 0 19.47-19.67c-.11-10.76-9.21-19.28-20-19.28h-148.01a110.18 110.18 0 0 1 -110.22-109.29 107.42 107.42 0 0 1 8.77-43.42h948.21c.37.9.74 1.8 1.09 2.71v.09a110.06 110.06 0 0 1 7.42 39.73z" fill="#edeefe"/><rect fill="#d2d6fa" height="17.61" rx="8.8" width="809.94" x="98.67" y="845.84"/><g fill="#bcbff6"><rect height="26.16" rx="12.82" width="932.03" x="19.13" y="469.13"/><path d="m861.56 685.55a67.13 67.13 0 0 1 2.67 18.82c0 1.58-.05 3.15-.17 4.7 0 .74-.11 1.48-.19 2.21a66.19 66.19 0 0 1 -6.31 22.3c-.2.41-.4.82-.61 1.22-.38.75-.77 1.48-1.18 2.21a67.38 67.38 0 0 1 -21.88 23.52c-1.17.77-2.36 1.51-3.58 2.2a66 66 0 0 1 -8.47 4.07 50.7 50.7 0 0 1 7.83-47.13 26.38 26.38 0 0 0 5.23-12.81c2.22-17.74 4.33-35.48 6-53.27v-.1q1.9 1.63 3.67 3.41c.24.24.48.48.7.72.71.72 1.4 1.46 2 2.21 1.3 1.44 2.51 2.94 3.67 4.49a66.54 66.54 0 0 1 9.89 19c.29.76.51 1.49.73 2.23z"/><path d="m894.52 592.79a106.37 106.37 0 0 1 -14.94 3.76l-.54.1q-2.76.48-5.57.82a109.21 109.21 0 0 1 -13.37.81h-14.1l6-64 .74-8h35.61l.74 8z"/><path d="m831.3 505.49h78.46a6.63 6.63 0 0 0 6.63-6.63v-7.86h-91.72v7.83a6.63 6.63 0 0 0 6.63 6.66z"/><path d="m839.84 505.49h61.37v15.66a5.09 5.09 0 0 1 -5.09 5.1h-51.18a5.1 5.1 0 0 1 -5.1-5.1z"/></g><path d="m839.84 505.49h61.37v8.02h-61.37z" fill="#abb1ef"/><path d="m894.52 592.79a106.37 106.37 0 0 1 -14.94 3.76c-1.46-15.61-2.77-29.73-3.78-40.57a23.93 23.93 0 0 0 -23.8-21.71l.74-8h35.61l.74 8z" fill="#abb1ef"/><g fill="#bcbff6"><path d="m690.48 750.56a50.5 50.5 0 0 1 -9.27 29.24 51.08 51.08 0 0 1 -15.7 14.46h-51.51a50.73 50.73 0 0 1 -14.48-74.59 26.39 26.39 0 0 0 5.24-12.81c2.22-17.74 4.32-35.48 6-53.27l11.1-119.32.74-8h35.61l.74 8s10.77 115.82 16 172.15a26.87 26.87 0 0 0 5.33 13.67 50.49 50.49 0 0 1 10.2 30.47z"/><path d="m601.19 505.49h78.46a6.63 6.63 0 0 0 6.63-6.63v-7.86h-91.72v7.83a6.63 6.63 0 0 0 6.63 6.66z"/><path d="m609.74 505.49h61.37v15.66a5.1 5.1 0 0 1 -5.1 5.1h-51.17a5.1 5.1 0 0 1 -5.1-5.1z"/></g><path d="m609.74 505.49h61.37v8.02h-61.37z" fill="#abb1ef"/><path d="m698.4 787.13v7.13h-115.94v-7.13a7.33 7.33 0 0 1 7.33-7.33h101.27a7.34 7.34 0 0 1 7.34 7.33z" fill="#bcbff6"/><path d="m582.56 786c.4.62.81 1.24 1.24 1.84h-1.34v-.69a6.23 6.23 0 0 1 .1-1.15z" fill="#abb1ef"/><path d="m698.4 787.13v7.13h-37.16a51.32 51.32 0 0 0 5.42-6.44 50.73 50.73 0 0 0 -1.31-60.24 24 24 0 0 1 -4.86-12.46v-.12c-.32-3.52-.67-7.28-1-11.24-4.03-42.76-10.49-112.6-13.8-147.76a23.92 23.92 0 0 0 -23.81-21.71l.74-8h35.61l.74 8s10.77 115.82 16 172.15a26.87 26.87 0 0 0 5.33 13.67 50.74 50.74 0 0 1 .9 59.71h9.86a7.33 7.33 0 0 1 7.34 7.31z" fill="#abb1ef"/><g fill="#bcbff6"><path d="m460.37 750.56a50.5 50.5 0 0 1 -9.27 29.24 51.08 51.08 0 0 1 -15.7 14.46h-51.47a50.71 50.71 0 0 1 -14.47-74.59 26.38 26.38 0 0 0 5.23-12.81c2.22-17.74 4.33-35.48 6-53.27l11.1-119.32.74-8h35.61l.74 8s10.78 115.82 16 172.15a26.86 26.86 0 0 0 5.32 13.67 50.49 50.49 0 0 1 10.17 30.47z"/><path d="m371.09 505.49h78.46a6.63 6.63 0 0 0 6.63-6.63v-7.86h-91.72v7.83a6.63 6.63 0 0 0 6.63 6.66z"/><path d="m379.63 505.49h61.37v15.66a5.09 5.09 0 0 1 -5.09 5.1h-51.18a5.1 5.1 0 0 1 -5.1-5.1z"/></g><path d="m379.63 505.49h61.37v8.02h-61.37z" fill="#abb1ef"/><path d="m468.29 787.13v7.13h-115.94v-7.13a7.33 7.33 0 0 1 7.33-7.33h101.32a7.33 7.33 0 0 1 7.29 7.33z" fill="#bcbff6"/><path d="m352.45 786c.4.62.81 1.24 1.24 1.84h-1.34v-.69a6.23 6.23 0 0 1 .1-1.15z" fill="#abb1ef"/><path d="m468.29 787.13v7.13h-37.16a51.32 51.32 0 0 0 5.42-6.44 50.73 50.73 0 0 0 -1.31-60.24 24 24 0 0 1 -4.85-12.46v-.12c-.32-3.52-.67-7.28-1-11.24-4-42.8-10.48-112.64-13.75-147.82a23.93 23.93 0 0 0 -23.82-21.71l.74-8h35.61l.74 8s10.78 115.82 16 172.15a26.86 26.86 0 0 0 5.32 13.67 50.74 50.74 0 0 1 .9 59.71h9.87a7.33 7.33 0 0 1 7.29 7.37z" fill="#abb1ef"/><g fill="#bcbff6"><path d="m155.72 598.28 5.95-64 .74-8h35.59l.74 8s2.64 28.45 6 64z"/><path d="m230.27 750.56a50.43 50.43 0 0 1 -12.76 33.63 26.94 26.94 0 0 0 -3.51-4.39h-2.92c.29-.63.57-1.28.84-1.93a27.44 27.44 0 0 0 -17.58-6.35 66.6 66.6 0 0 1 -33.21-8.79c-1.22-.69-2.42-1.42-3.59-2.2a67.24 67.24 0 0 1 -10.39-8.4l-.29-.28a67.3 67.3 0 0 1 -11.2-14.85c-.41-.73-.8-1.46-1.18-2.21-.62-1.21-1.2-2.45-1.74-3.7a49.73 49.73 0 0 1 6.61-11.43 26.39 26.39 0 0 0 5.24-12.81c2.22-17.74 4.32-35.48 6-53.27v-.14a66.93 66.93 0 0 1 42.41-16.2h15.3c2.35 25.34 4.69 50.53 6.43 69.19a26.87 26.87 0 0 0 5.33 13.67 50.49 50.49 0 0 1 10.21 30.46z"/><path d="m141 505.49h78.46a6.63 6.63 0 0 0 6.63-6.63v-7.86h-91.74v7.83a6.63 6.63 0 0 0 6.65 6.66z"/><path d="m149.53 505.49h61.37v15.66a5.1 5.1 0 0 1 -5.1 5.1h-51.17a5.1 5.1 0 0 1 -5.1-5.1z"/></g><path d="m149.53 505.49h61.37v8.02h-61.37z" fill="#abb1ef"/><path d="m238.19 787.13v7.13h-16.75q-.12-.75-.3-1.5c0-.25-.11-.49-.18-.74s-.2-.73-.31-1.09-.26-.83-.41-1.23-.31-.83-.48-1.24c-.32-.75-.66-1.49-1-2.2a23.79 23.79 0 0 0 -1.21-2.07 26.94 26.94 0 0 0 -3.55-4.39h16.86a7.33 7.33 0 0 1 7.33 7.33z" fill="#bcbff6"/><g fill="#abb1ef"><path d="m204.71 598.28h-15.29c-1.52-16.3-2.89-31.06-3.94-42.3a23.92 23.92 0 0 0 -23.81-21.71l.74-8h35.59l.74 8s2.66 28.45 5.97 64.01z"/><path d="m238.19 787.13v7.13h-16.75q-.12-.75-.3-1.5c0-.25-.11-.49-.18-.74s-.2-.73-.31-1.09-.26-.83-.41-1.23-.31-.83-.48-1.24c-.32-.75-.66-1.49-1-2.2a23.79 23.79 0 0 0 -1.21-2.07 26.94 26.94 0 0 0 -3.55-4.39h-2.92c.29-.63.57-1.28.84-1.93a50.76 50.76 0 0 0 -6.78-50.29 24 24 0 0 1 -4.86-12.46v-.12c-.32-3.52-.67-7.28-1-11.24-1.75-18.73-4-42.64-6.2-66.56h15.3c2.35 25.34 4.69 50.53 6.43 69.19a26.87 26.87 0 0 0 5.33 13.67 50.74 50.74 0 0 1 .9 59.71h9.86a7.33 7.33 0 0 1 7.29 7.36z"/><path d="m872.91 330a37.52 37.52 0 0 1 37.52 37.52v20.48a0 0 0 0 1 0 0 37.52 37.52 0 0 1 -37.52-37.52v-20.48a0 0 0 0 1 0 0z" transform="matrix(.29187094 .95645771 -.95645771 .29187094 974.76 -598.6)"/></g><path d="m915.56 343.6a37.52 37.52 0 0 1 -18.93 32.56 37.48 37.48 0 0 0 7.37-35.39l-19.58 6a36.84 36.84 0 0 0 -7.62 3.29 37.29 37.29 0 0 1 17.5-11.43l19.58-6a37.66 37.66 0 0 1 1.68 10.97z" fill="#bcbff6"/><path d="m851.77 300.61a37.52 37.52 0 0 1 37.52 37.52v20.47a0 0 0 0 1 0 0 37.52 37.52 0 0 1 -37.52-37.52v-20.47a0 0 0 0 1 0 0z" fill="#bcbff6" transform="matrix(.88433665 .46684974 -.46684974 .88433665 254.51 -368.23)"/><path d="m887.48 328.43a37.16 37.16 0 0 1 -3.94 16.68c-.54-12.88-3.54-32.11-15.8-38.59-6.23 4.05-10.42 13.43-13.74 25.12-.14.27-.28.53-.4.8a37.43 37.43 0 0 1 4.31-19.13l9.56-18.1a37.52 37.52 0 0 1 20.01 33.22z" fill="#abb1ef"/><path d="m871.38 326.33a0 0 0 0 1 0 0v20.47a37.52 37.52 0 0 1 -37.52 37.52 0 0 0 0 1 0 0v-20.46a37.52 37.52 0 0 1 37.52-37.52z" fill="#abb1ef" transform="matrix(-.46684974 .88433665 -.88433665 -.46684974 1564.84 -232.84)"/><path d="m872.79 359.12a37.4 37.4 0 0 0 -14.6-13.75l-18.1-9.55a37.3 37.3 0 0 0 -3.29 26.31 37.5 37.5 0 0 1 -1.08-36.93l18.11 9.56a37.45 37.45 0 0 1 18.96 24.36z" fill="#bcbff6"/><path d="m834.33 454.78h72.41a6.47 6.47 0 0 1 6.47 6.47v8.27a0 0 0 0 1 0 0h-85.36a0 0 0 0 1 0 0v-8.27a6.47 6.47 0 0 1 6.48-6.47z" fill="#bcbff6"/><path d="m859.27 423.22h22.52v14.75h-22.52z" fill="#abb1ef"/><rect fill="#bcbff6" height="15.79" rx="7.9" width="85.35" x="827.85" y="412.23"/><path d="m927.5 381.21-9.61 14.48a15.81 15.81 0 0 1 -13.16 7.07h-1.44a15.79 15.79 0 0 0 -15.79 15.79h-31.57a15.79 15.79 0 0 0 -15.8-15.79h-3.8a15.78 15.78 0 0 1 -13.16-7.07l-9.62-14.48a8.1 8.1 0 0 1 6.75-12.58h100.45a8.1 8.1 0 0 1 6.75 12.58z" fill="#bcbff6"/><path d="m927.5 381.21-9.62 14.48a15.78 15.78 0 0 1 -13.16 7.07h-1.43a15.79 15.79 0 0 0 -14.47 9.47h16.18a8.08 8.08 0 0 1 8.15 7.28 7.91 7.91 0 0 1 -7.87 8.51h-24.04a7.9 7.9 0 0 0 7.9-7.9 1.52 1.52 0 0 0 -1.64-1.57h-18.5a4.53 4.53 0 0 1 -4.22-6.26v-.06a15.79 15.79 0 0 1 14.47-9.47h1.44a15.81 15.81 0 0 0 13.16-7.07l9.61-14.48a8.1 8.1 0 0 0 -6.75-12.58h24.07a8.1 8.1 0 0 1 6.72 12.58z" fill="#abb1ef"/><g fill="#bcbff6"><path d="m830.54 412.23h5.2a7.82 7.82 0 0 0 -4.63 1.51 13.75 13.75 0 0 0 -.57-1.51z"/><path d="m830.54 412.23h5.2a7.82 7.82 0 0 0 -4.63 1.51 13.75 13.75 0 0 0 -.57-1.51z"/><path d="m863.49 433.3h14.07a21.49 21.49 0 0 1 21.44 21.48 0 0 0 0 1 0 0h-57a0 0 0 0 1 0 0 21.49 21.49 0 0 1 21.49-21.49z"/><path d="m834.33 454.78h72.41a6.47 6.47 0 0 1 6.47 6.47v8.27a0 0 0 0 1 0 0h-85.36a0 0 0 0 1 0 0v-8.27a6.47 6.47 0 0 1 6.48-6.47z"/><path d="m863.49 433.3h14.07a21.49 21.49 0 0 1 21.44 21.48 0 0 0 0 1 0 0h-57a0 0 0 0 1 0 0 21.49 21.49 0 0 1 21.49-21.49z"/></g><path d="m913.2 461.26v8.27h-14.15v-8.27a6.48 6.48 0 0 0 -6.48-6.48h-7.68a21.48 21.48 0 0 0 -21.4-21.48h14.07a21.48 21.48 0 0 1 21.49 21.48h7.68a6.48 6.48 0 0 1 6.47 6.48z" fill="#abb1ef"/><path d="m182.59 330a37.52 37.52 0 0 1 37.52 37.52v20.48a0 0 0 0 1 0 0 37.52 37.52 0 0 1 -37.52-37.52v-20.48a0 0 0 0 1 0 0z" fill="#abb1ef" transform="matrix(.29187094 .95645771 -.95645771 .29187094 485.97 61.64)"/><path d="m225.25 343.6a37.52 37.52 0 0 1 -18.93 32.56 37.48 37.48 0 0 0 7.41-35.39l-19.58 6a36.84 36.84 0 0 0 -7.62 3.29 37.29 37.29 0 0 1 17.47-11.46l19.58-6a37.66 37.66 0 0 1 1.67 11z" fill="#bcbff6"/><path d="m161.45 300.61a37.52 37.52 0 0 1 37.55 37.53v20.47a0 0 0 0 1 0 0 37.52 37.52 0 0 1 -37.52-37.52v-20.48a0 0 0 0 1 -.03 0z" fill="#bcbff6" transform="matrix(.88433665 .46684974 -.46684974 .88433665 174.69 -46.01)"/><path d="m197.17 328.43a37.16 37.16 0 0 1 -3.94 16.68c-.56-12.88-3.58-32.14-15.8-38.59-6.23 4.05-10.43 13.48-13.74 25.12-.14.27-.28.53-.4.8a37.43 37.43 0 0 1 4.31-19.13l9.56-18.1a37.52 37.52 0 0 1 20.01 33.22z" fill="#abb1ef"/><path d="m181.06 326.33a0 0 0 0 1 0 0v20.47a37.52 37.52 0 0 1 -37.52 37.52 0 0 0 0 1 0 0v-20.46a37.52 37.52 0 0 1 37.52-37.52z" fill="#abb1ef" transform="matrix(-.46684974 .88433665 -.88433665 -.46684974 552.3 377.66)"/><path d="m182.48 359.12a37.4 37.4 0 0 0 -14.6-13.75l-18.1-9.55a37.3 37.3 0 0 0 -3.29 26.31 37.5 37.5 0 0 1 -1.08-36.93l18.11 9.56a37.45 37.45 0 0 1 18.96 24.36z" fill="#bcbff6"/><path d="m144 454.78h72.41a6.47 6.47 0 0 1 6.47 6.47v8.27a0 0 0 0 1 0 0h-85.34a0 0 0 0 1 0 0v-8.27a6.47 6.47 0 0 1 6.46-6.47z" fill="#bcbff6"/><path d="m168.95 423.22h22.52v14.75h-22.52z" fill="#abb1ef"/><rect fill="#bcbff6" height="15.79" rx="7.9" width="85.35" x="137.54" y="412.23"/><path d="m237.19 381.21-9.62 14.48a15.78 15.78 0 0 1 -13.16 7.07h-1.41a15.8 15.8 0 0 0 -15.8 15.79h-31.59a15.79 15.79 0 0 0 -15.79-15.79h-3.82a15.81 15.81 0 0 1 -13.16-7.07l-9.61-14.48a8.1 8.1 0 0 1 6.77-12.58h100.44a8.1 8.1 0 0 1 6.75 12.58z" fill="#bcbff6"/><path d="m237.19 381.21-9.62 14.48a15.78 15.78 0 0 1 -13.16 7.07h-1.41a15.79 15.79 0 0 0 -14.47 9.47h16.2a8.08 8.08 0 0 1 8.16 7.28 7.91 7.91 0 0 1 -7.89 8.49h-24.07a7.9 7.9 0 0 0 7.9-7.9 1.52 1.52 0 0 0 -1.64-1.57h-18.55a4.54 4.54 0 0 1 -4.23-6.26v-.06a15.79 15.79 0 0 1 14.47-9.47h1.44a15.81 15.81 0 0 0 13.16-7.07l9.61-14.48a8.1 8.1 0 0 0 -6.75-12.58h24.07a8.1 8.1 0 0 1 6.78 12.6z" fill="#abb1ef"/><g fill="#bcbff6"><path d="m140.23 412.23h5.2a7.82 7.82 0 0 0 -4.63 1.51 13.75 13.75 0 0 0 -.57-1.51z"/><path d="m140.23 412.23h5.2a7.82 7.82 0 0 0 -4.63 1.51 13.75 13.75 0 0 0 -.57-1.51z"/><path d="m173.18 433.3h14.07a21.49 21.49 0 0 1 21.49 21.49 0 0 0 0 1 0 0h-57a0 0 0 0 1 0 0 21.49 21.49 0 0 1 21.44-21.49z"/><path d="m144 454.78h72.41a6.47 6.47 0 0 1 6.47 6.47v8.27a0 0 0 0 1 0 0h-85.34a0 0 0 0 1 0 0v-8.27a6.47 6.47 0 0 1 6.46-6.47z"/><path d="m173.18 433.3h14.07a21.49 21.49 0 0 1 21.49 21.49 0 0 0 0 1 0 0h-57a0 0 0 0 1 0 0 21.49 21.49 0 0 1 21.44-21.49z"/></g><path d="m222.89 461.26v8.27h-14.15v-8.27a6.48 6.48 0 0 0 -6.48-6.48h-7.68a21.48 21.48 0 0 0 -21.4-21.48h14.07a21.48 21.48 0 0 1 21.49 21.48h7.68a6.48 6.48 0 0 1 6.47 6.48z" fill="#abb1ef"/><path d="m752.6 794.26a54.34 54.34 0 0 0 -8.34 17.23c0 .16-.1.33-.14.49-.2.73-.38 1.47-.55 2.21a55.19 55.19 0 0 0 -1.36 12.21v19.82h-520.34v-47.17a26.18 26.18 0 0 0 -.43-4.79z" fill="#abb1ef"/><path d="m498.26 186.65a118.64 118.64 0 0 1 -235.42 21h141.93a37 37 0 0 0 14.23-2.89 36.51 36.51 0 0 0 8.49-5 35.82 35.82 0 0 0 6.94-7.24 36.31 36.31 0 0 0 6.94-21.08 37.22 37.22 0 0 1 22.46-34.08 36 36 0 0 1 14-2.83h8.35a118.06 118.06 0 0 1 12.08 52.12z" fill="#f8faff"/><path d="m366.06 661.25-26.26 174.35h46l26.26-174.35z" fill="#f9a0b4"/><path d="m366.06 661.25-8.15 54.11h46l8.15-54.11z" fill="#f490aa"/><path d="m364.28 818.63h34.72a19.09 19.09 0 0 1 19.09 19.09 0 0 0 0 1 0 0h-53.81a0 0 0 0 1 0 0v-19.09a0 0 0 0 1 0 0z" fill="#f9a0b4"/><g fill="#104799"><path d="m428.15 838.46a9.41 9.41 0 0 1 -9.45 9.36l-23.7-.1-54-.23a6.37 6.37 0 0 1 -5.53-3.24 6.5 6.5 0 0 1 -.83-3.18 6.4 6.4 0 0 1 5.93-6.36l52.95-3.86 24.56-1.8a9.39 9.39 0 0 1 10.07 9.41z"/><rect height="23.95" rx="4.21" width="8.42" x="392.08" y="814.47"/><path d="m359 839.44h-19.5l5.62-39.44a14.71 14.71 0 0 1 14.71 15.22z"/><rect height="11.15" rx="5.57" width="47.67" x="345.97" y="804.6"/><path d="m453 416.73-43.15 250.32-3.78 22h-66a5.32 5.32 0 0 1 -5.24-6.21l2.71-15.76 42.53-250.32h72.93z"/></g><g fill="#f9a0b4"><rect height="32.8" rx="7.81" transform="matrix(-.13294836 .99112297 -.99112297 -.13294836 875.41 -59.69)" width="15.62" x="456.01" y="336.69"/><rect height="40.79" rx="7.81" transform="matrix(-.92757563 .37363544 -.37363544 -.92757563 1059.74 562.29)" width="15.62" x="467.56" y="363.48"/><path d="m377.2 353a22.79 22.79 0 0 1 -12.88-37.72l15.53-17.11 1.37-1.5 34.09-37.59a22.76 22.76 0 0 1 33.69 30.55l-4.51 5-26.7 29.44-2.08 2.28-17.69 19.51a22.75 22.75 0 0 1 -20.82 7.14z"/><path d="m378.81 308.17a22.77 22.77 0 0 0 -16.54 34.83l.5.74c.16.24.33.47.51.7a2.47 2.47 0 0 0 .21.27c.11.16.23.3.36.46.3.36.6.73.93 1.06s.46.49.69.72a22.93 22.93 0 0 0 2.36 2c.23.18.46.34.7.5s.49.33.74.49c.54.35 1.1.67 1.68 1l60.55 31.56 6.75 3.53a26 26 0 0 0 2.42 1.09 22.77 22.77 0 0 0 18.62-41.47l-67.29-35.06a22.59 22.59 0 0 0 -13.19-2.42z"/><ellipse cx="454.25" cy="374.78" rx="24.09" ry="30.55" transform="matrix(.9763715 -.21609881 .21609881 .9763715 -70.26 107.03)"/></g><path d="m438.85 216.09-.12 7.38-.27 15.93a12.83 12.83 0 1 0 25.66.44v-1.67l.36-21.64a12.83 12.83 0 1 0 -25.66-.44z" fill="#ffb2bf"/><path d="m420.06 157.79-2.54 25.21c-2.15 21.4 14.76 40.77 37.77 43.27 17.76 1.92 33.5-9.9 35.16-26.41l2.14-21.14v-.38c.06-.58.09-1.16.11-1.74.95-21.12-15.91-39.86-38.69-42.62l-.58-.07-1.36-.15a31.64 31.64 0 0 0 -5.58-.11c-13.75.9-25.1 10.86-26.43 24.14z" fill="#ffb2bf"/><path d="m452.32 132a36.16 36.16 0 0 1 36.16 36.16v26.84a37 37 0 0 1 -37 37 35.37 35.37 0 0 1 -35.37-35.37v-28.43a36.16 36.16 0 0 1 36.21-36.2z" fill="#fed4be" transform="matrix(-.99938472 -.03507392 .03507392 -.99938472 897.99 379.77)"/><path d="m498.37 221.11a18.18 18.18 0 0 1 -27.84 15.4 18.18 18.18 0 0 0 14.05-33 18.2 18.2 0 0 1 13.79 17.6z" fill="#51aff4"/><path d="m425.33 667.05-14.53 168.55h46l14.53-168.55z" fill="#ffb2bf"/><path d="m425.33 667.04-4.16 48.32h45.99l4.17-48.32z" fill="#f9a0b4"/><path d="m435.11 818.63h34.69a19.09 19.09 0 0 1 19.09 19.09 0 0 0 0 1 0 0h-53.78a0 0 0 0 1 0 0v-19.09a0 0 0 0 1 0 0z" fill="#ffb2bf"/><g fill="#1455af"><path d="m499 838.46a9.4 9.4 0 0 1 -9.44 9.36l-23.74-.11-54-.23a6.4 6.4 0 0 1 -.44-12.78l52.95-3.86 24.57-1.8a9.39 9.39 0 0 1 10.1 9.42z"/><rect height="23.95" rx="4.21" width="8.42" x="462.91" y="814.47"/><path d="m429.83 839.44h-19.5l3.44-39.44h1a15.82 15.82 0 0 1 15.81 16.35z"/><rect height="11.15" rx="5.57" width="47.67" x="416.79" y="804.6"/></g><g fill="#104799"><path d="m505.4 686.75-106.24 2.25 18.3-209.24.31-6 4.31-81.8h72.32c1.72 27.34 16.64 237 20 284.83a9.26 9.26 0 0 1 -9 9.96z"/><path d="m411.92 306.75v60.11a41.3 41.3 0 0 0 70.32 28.8 40.4 40.4 0 0 0 12.06-28.8v-60.11z"/><path d="m509.19 296.65-.08 2.1c-.6 15.52-13 27.74-27.6 27.32l-56.92-1.62c-14.66-.4-26-13.32-25.46-28.82l.08-2.11a60.68 60.68 0 0 1 11.15-33 58.37 58.37 0 0 1 6.53-7.7c.91-.9 1.84-1.77 2.81-2.61a55.58 55.58 0 0 1 6.47-4.84l.4-.24c.23-.16.49-.31.73-.45l.1-.07c.81-.48 1.61-.93 2.44-1.4a55.34 55.34 0 0 1 6.7-3 52.2 52.2 0 0 1 37.76.41c.92.35 1.81.74 2.7 1.16h.05a52.28 52.28 0 0 1 7 4c.22.18.48.32.69.49.91.61 1.76 1.26 2.6 1.92a57 57 0 0 1 14 16.24 60.19 60.19 0 0 1 7.85 32.22z"/><path d="m509.19 296.65-.08 2.1c-.6 15.52-13 27.74-27.6 27.32l-56.92-1.62c-14.66-.4-26-13.32-25.46-28.82l.08-2.11a60.68 60.68 0 0 1 11.15-33 58.37 58.37 0 0 1 6.53-7.7c.91-.9 1.84-1.77 2.81-2.61a55.58 55.58 0 0 1 6.47-4.84l.4-.24c.23-.16.49-.31.73-.45l.1-.07c.81-.48 1.61-.93 2.44-1.4a55.34 55.34 0 0 1 6.7-3 52.2 52.2 0 0 1 37.76.41c.92.35 1.81.74 2.7 1.16h.05a52.28 52.28 0 0 1 7 4c.22.18.48.32.69.49.91.61 1.76 1.26 2.6 1.92a57 57 0 0 1 14 16.24 60.19 60.19 0 0 1 7.85 32.22z"/><path d="m494.4 361.59v35.55a82.69 82.69 0 0 1 -76.6 82.64l.31-6a43.14 43.14 0 0 1 -6.19-1.68v-110.51z"/><path d="m475.36 426.57a48.12 48.12 0 0 1 -57.59 47.23 43.31 43.31 0 0 1 -6.23-1.68 48.16 48.16 0 1 1 63.82-45.55z"/></g><path d="m410.26 381.5a48 48 0 0 0 -17.92 28.41l-.59 3.43a.28.28 0 0 0 0 .09c-.15 1.08-.25 2.18-.31 3.28h-.26l-5.73 33.81-35.63 209.7-6.16 28.78h-3.61a5.31 5.31 0 0 1 -5.23-6.21l2.71-15.76 41.86-246.33a.49.49 0 0 0 0-.12 48.16 48.16 0 0 1 30.87-39.08z" fill="#1455af"/><g fill="#104799"><path d="m456.53 464.78-.83.62.06-.34c.24-.06.51-.19.77-.28z"/><path d="m391.17 416.73.57-3.28c-.15 1.08-.25 2.18-.31 3.28z"/><path d="m392.34 409.93-.59 3.43c.15-1.17.34-2.31.59-3.43z"/></g><rect fill="#ffb2bf" height="35.22" rx="7.81" transform="matrix(.74860867 .66301211 -.66301211 .74860867 327.14 -300.52)" width="15.62" x="552" y="263.48"/><path d="m558.09 225.19h34.46a1.76 1.76 0 0 1 1.76 1.76v11.7a19 19 0 0 1 -19 19 19 19 0 0 1 -19-19v-11.7a1.76 1.76 0 0 1 1.76-1.76z" fill="#c4c8f2"/><path d="m590.81 228.18v11a15.5 15.5 0 0 1 -15.48 15.5 15.5 15.5 0 0 1 -15.48-15.5v-2.18c5.62 11.12 17.69 8.89 19.81 0 2.06-8.69 10.71-8.8 11.15-8.8z" fill="#e03f41"/><path d="m574.82 254.65a2.5 2.5 0 0 1 2.5 2.5v40.52a0 0 0 0 1 0 0h-5a0 0 0 0 1 0 0v-40.52a2.5 2.5 0 0 1 2.5-2.5z" fill="#c4c8f2"/><rect fill="#c4c8f2" height="4.26" rx="2.13" width="30.74" x="559.45" y="297.68"/><g fill="#ffb2bf"><rect height="36.32" rx="7.81" transform="matrix(.25291375 .96748883 -.96748883 .25291375 704.54 -353.75)" width="15.62" x="573.5" y="261.14"/><path d="m513.5 355.36a22.78 22.78 0 0 1 -39-8.27l-6.73-22.09-.59-1.94-14.8-48.54a22.74 22.74 0 0 1 15.13-28.41 22.48 22.48 0 0 1 13.54.09 22.72 22.72 0 0 1 14.87 15l2 6.43 11.6 38 .9 3 7.68 25.19a22.73 22.73 0 0 1 -4.6 21.54z"/><path d="m475.85 331a22.77 22.77 0 0 0 21.46 32.06h.89l.86-.08h.34l.58-.08c.47-.07.94-.15 1.39-.25l1-.23a22.66 22.66 0 0 0 2.95-1c.27-.11.53-.22.79-.35s.53-.25.8-.38c.57-.29 1.14-.6 1.69-.95l58.11-35.83 6.48-4a26.12 26.12 0 0 0 2.17-1.51 22.76 22.76 0 0 0 -26.06-37.24l-64.6 39.82a22.72 22.72 0 0 0 -8.85 10.02z"/><ellipse cx="573.51" cy="299.17" rx="30.55" ry="25.31" transform="matrix(.99591597 -.09028495 .09028495 .99591597 -24.69 53.05)"/></g><ellipse cx="573.62" cy="300.4" fill="#fdc3cd" rx="12.04" ry="9.49" transform="matrix(.99591597 -.09028495 .09028495 .99591597 -24.8 53.07)"/><path d="m495.58 360.45.89-.05a8.33 8.33 0 0 0 .86-.08 1.86 1.86 0 0 0 .34 0l.58-.07c.47-.07.94-.15 1.39-.26s.65-.14 1-.23a21.25 21.25 0 0 0 2.95-1c.27-.11.53-.22.79-.35s.53-.24.8-.38c.57-.28 1.14-.6 1.69-.94l55.74-34.39 2.24-1.37a36.8 36.8 0 0 0 4.54.9c13.55 1.82 26.83-7.88 30.4-18.67 1.94-5.82.34-15.78-2.88-21.32 7.44 7.43 8.29 16 6.05 22.83-4 12-21.17 22.87-36.38 18.9l-58 35.76c-.56.34-1.12.65-1.7.94a7.33 7.33 0 0 1 -.8.38c-.26.13-.51.24-.78.35a23.17 23.17 0 0 1 -2.95 1c-.33.08-.65.17-1 .23s-.93.18-1.39.25l-.58.08h-.34c-.29 0-.57.06-.86.08h-.89a22.78 22.78 0 0 1 -20.06-10.82c-.16-.26-.31-.51-.46-.78a22.82 22.82 0 0 0 18.81 9.01z" fill="#f9a0b4"/><circle cx="481.89" cy="158.44" fill="#fed4be" r="18.79"/><circle cx="470.28" cy="149.99" fill="#fed4be" r="18.79"/><path d="m500.67 158.44a18.79 18.79 0 0 0 -14.36-18.27 18.8 18.8 0 0 0 -34.12 4.74 18.78 18.78 0 0 1 28.27-5.2 19.06 19.06 0 0 1 4.1 4.7 17.92 17.92 0 0 1 4 1.49 18.74 18.74 0 0 1 10.31 16.76 18.25 18.25 0 0 1 -.71 5.09 18.5 18.5 0 0 0 2.51-9.31z" fill="#ffe5d6"/><ellipse cx="449.02" cy="196.97" fill="#fed4be" rx="36.46" ry="40.24" transform="matrix(.65855813 -.75252986 .75252986 .65855813 5.09 405.16)"/><path d="m406.68 141.92h30.78a47 47 0 0 1 47 47v66a60.3 60.3 0 0 1 -60.3 60.3 17.48 17.48 0 0 1 -17.48-17.48v-155.82a0 0 0 0 1 0 0z" fill="#fed4be"/><circle cx="444.72" cy="155.97" fill="#51aff4" r="22.05"/><circle cx="424.4" cy="141.92" fill="#24364f" r="40.12"/><circle cx="424.4" cy="141.92" fill="#fed4be" r="40.12"/><path d="m457.89 119.86a40.11 40.11 0 0 0 -60 52.17 40.11 40.11 0 1 1 60-52.17z" fill="#f7c4ad"/><rect fill="#d2d6fa" height="17.61" rx="8.8" width="74.06" x="915.78" y="845.84"/></svg>