<svg viewBox="0 0 1000 1000" xmlns="http://www.w3.org/2000/svg"><path d="m930.63 521.1v70.9a43.72 43.72 0 0 1 -43.75 43.76 35.05 35.05 0 0 0 -35.07 35.07v5.37a35.08 35.08 0 0 1 -35.08 35.08h-655.64a45.33 45.33 0 0 1 -37-71.53 43.8 43.8 0 0 1 5-5.9 45.15 45.15 0 0 1 32-13.24h35.91a65 65 0 0 0 64.44-56.46q.39-2.91.51-5.9c0-.87.05-1.75.05-2.63a64.94 64.94 0 0 0 -65-65h-14.16a88.07 88.07 0 0 1 -19.06-2.08 87.73 87.73 0 0 1 -68-75.6c-.23-2-.39-3.91-.48-5.9q-.09-2-.09-4.08a87.65 87.65 0 0 1 87.67-87.67h1.3a41.47 41.47 0 0 0 39.65-53.56 40.12 40.12 0 0 0 -2.31-5.9 41.45 41.45 0 0 0 -37.34-23.44h-15.93a43.34 43.34 0 0 1 -43.34-43.34c0-1 0-2 .1-2.92a42.31 42.31 0 0 1 .8-5.9 43.37 43.37 0 0 1 42.44-34.52h294.83a35.08 35.08 0 0 1 35.07 34.52v.56 14.41a35.06 35.06 0 0 0 35.08 35.08 35.07 35.07 0 0 1 34.89 31.45 36.16 36.16 0 0 1 .18 3.63v14.86a35.08 35.08 0 0 0 35.08 35.07h48.68a109.43 109.43 0 0 1 57.41 16.15 104.13 104.13 0 0 1 8.67 5.9 108.4 108.4 0 0 1 11.74 10.19 109.64 109.64 0 0 1 30.71 59.51c.34 1.95.61 3.91.83 5.9a110.46 110.46 0 0 1 .7 12.41 35.07 35.07 0 0 0 35.07 35.07h72.81a60.62 60.62 0 0 1 60.63 60.64z" fill="#f3f4fe"/><rect fill="#d2d6fa" height="17.61" rx="8.8" width="74.06" x="872.48" y="702.52"/><rect fill="#d2d6fa" height="17.61" rx="8.8" width="809.94" x="55.37" y="702.52"/><g fill="#edeefe"><path d="m498.16 180.83v5.34h-373.16a42.31 42.31 0 0 1 .8-5.9h372.35c.01.19.01.37.01.56z"/><path d="m568.13 261.77h-344.34a40.12 40.12 0 0 0 -2.31-5.9h345.52a35 35 0 0 1 1.13 5.9z"/><path d="m718.15 337.38h-593.44a87.91 87.91 0 0 1 7.41-5.9h577.36a104.13 104.13 0 0 1 8.67 5.9z"/><path d="m761.43 413h-665.69c-.23-2-.39-3.91-.48-5.9h665.34c.34 1.9.61 3.9.83 5.9z"/><path d="m921.18 488.58h-757.4a86.91 86.91 0 0 1 -17.51-5.89h770.64a60.5 60.5 0 0 1 4.27 5.89z"/><path d="m930.63 558.29v5.9h-669.21q.39-2.91.51-5.9z"/><path d="m899.69 633.89a43.35 43.35 0 0 1 -12.81 1.91 34.89 34.89 0 0 0 -16.26 4h-746.52a43.8 43.8 0 0 1 5-5.9z"/></g><rect fill="#ffa84d" height="64.07" rx="31.93" transform="matrix(.68212599 -.73123466 .73123466 .68212599 -328 373.82)" width="210.39" x="160.78" y="532.16"/><rect fill="#ffa84d" height="64.07" rx="31.93" transform="matrix(.68212599 -.73123466 .73123466 .68212599 -328 373.82)" width="210.39" x="160.78" y="532.16"/><path d="m348 511.2a31.55 31.55 0 0 0 -7.34-10.26l-.16-.15a31.92 31.92 0 0 0 -45.12 1.57l-100 107.15a31.75 31.75 0 0 0 -8.57 21.28 31.92 31.92 0 0 1 5.77-34.88l100-107.15a31.93 31.93 0 0 1 45.13-1.56l.15.14a31.77 31.77 0 0 1 10.14 23.86z" fill="#ffbe83"/><path d="m537 699.86a32 32 0 0 1 -40.72-19.86l-12.42-36.19-6.68-19.51-33.45-96.19a32 32 0 0 1 60.61-20.78l28.11 80.63 24.43 71.27a32 32 0 0 1 -19.88 40.63z" fill="#ffa84d"/><path d="m539.35 698.93c-.77.35-1.57.65-2.38.93a32 32 0 0 1 -40.7-19.86l-35.83-104.56a32 32 0 0 1 32.45-42.36 32 32 0 0 0 -17.53 39.76l35.83 104.52a32 32 0 0 0 28.16 21.57z" fill="#ffbe83"/><g fill="#ffdab2"><path d="m317.14 536.82h154.66v165.7h-154.66z"/><path d="m334.52 470.32h119.9a50.37 50.37 0 0 1 50.37 50.37 70.16 70.16 0 0 1 -70.16 70.16h-80.32a70.16 70.16 0 0 1 -70.16-70.16 50.37 50.37 0 0 1 50.37-50.37z"/><path d="m317.14 536.82h154.66v165.7h-154.66z"/><path d="m334.52 470.32h119.9a50.37 50.37 0 0 1 50.37 50.37 70.16 70.16 0 0 1 -70.16 70.16h-80.32a70.16 70.16 0 0 1 -70.16-70.16 50.37 50.37 0 0 1 50.37-50.37z"/></g><rect fill="#ff9f8c" height="64.07" rx="32.03" width="183.24" x="494.61" y="637.68"/><ellipse cx="664.44" cy="665.55" fill="#ff9f8c" rx="44.78" ry="35.13" transform="matrix(.91046724 -.41358121 .41358121 .91046724 -215.74 334.31)"/><path d="m705.22 647a28 28 0 0 0 -2-3.69c4.2 16.78-7.39 36.4-27.92 45.73a54.24 54.24 0 0 1 -5.87 2.28 50.41 50.41 0 0 1 -25.43 1.85c-.61.05-1.22.06-1.83.06h-11.82l-107.35.08a32 32 0 0 1 -27.24-15.16 32 32 0 0 0 30.93 23.63l119.18-.07c.61 0 1.22 0 1.82-.06 9.61 1.92 20.71.7 31.31-4.11 22.49-10.23 34.24-32.84 26.22-50.54z" fill="#f78f7a"/><path d="m454 470.32h-24.75a50.37 50.37 0 0 1 50.38 50.36 70.08 70.08 0 0 1 -25.91 54.45 19 19 0 0 0 -7.08 14.68v112.71h25.16v-122.33a70.21 70.21 0 0 0 33-59c.2-27.96-22.8-50.87-50.8-50.87z" fill="#ffecd9"/><rect fill="#ff9f8c" height="43.79" rx="9.48" transform="matrix(.79674091 .60432104 -.60432104 .79674091 518.11 -266.89)" width="18.96" x="646.38" y="614.97"/><path d="m365 678.45h10.33a24.07 24.07 0 0 1 24.07 24.07 0 0 0 0 1 0 0h-58.52a0 0 0 0 1 0 0 24.07 24.07 0 0 1 24.12-24.07z" fill="#4970db"/><path d="m347 663.85a32 32 0 0 1 -22.08 34.08l-.76.24c-.75.23-1.52.42-2.3.58-.25.06-.51.1-.78.15l-.72.13h-.14l-.63.09h-.06a31.16 31.16 0 0 1 -4.1.3c-.46 0-.94 0-1.41 0-.71 0-1.43-.07-2.13-.14s-1.53-.19-2.3-.32a30.25 30.25 0 0 1 -3.42-.81 31.46 31.46 0 0 1 -5.55-2.21l-1.86-.94-96.56-49.26a32 32 0 0 1 -17.27-25 31.37 31.37 0 0 1 -.19-4.55c0-.77.07-1.54.16-2.3s.18-1.53.31-2.3a35 35 0 0 1 .8-3.41c.12-.38.23-.76.36-1.14.25-.74.53-1.49.84-2.23s.65-1.47 1-2.19c.18-.34.35-.68.54-1a26.92 26.92 0 0 1 1.65-2.62 2.14 2.14 0 0 1 .13-.19c.15-.23.31-.45.47-.67a32.09 32.09 0 0 1 21.42-12.68c.55-.07 1.1-.14 1.65-.18a31.65 31.65 0 0 1 17.26 3.38l98.41 50.22a32 32 0 0 1 17.26 24.97z" fill="#ff9f8c"/><ellipse cx="324.71" cy="667.44" fill="#ff9f8c" rx="35.13" ry="44.78" transform="matrix(.10956083 -.99398009 .99398009 .10956083 -374.28 917.07)"/><path d="m332.69 702.42a55.76 55.76 0 0 1 -11.83-.06 54.38 54.38 0 0 1 -22.09-7.36l-96.57-49.26a32 32 0 0 1 -17.27-25 31.37 31.37 0 0 1 -.19-4.55c0-.77.07-1.54.16-2.3s.18-1.53.31-2.3a35 35 0 0 1 .8-3.41c.12-.38.23-.76.36-1.14.25-.74.53-1.49.84-2.23s.65-1.47 1-2.19c.18-.34.35-.68.54-1a26.92 26.92 0 0 1 1.65-2.62 2.14 2.14 0 0 1 .13-.19c.15-.23.31-.45.47-.67a32.09 32.09 0 0 1 21.42-12.68c.55-.07 1.1-.14 1.65-.18l-9.34 11.72c-.35.43-.68.88-1 1.32-.16.21-.31.44-.47.67l-.13.18a32 32 0 0 0 19.87 49.11c-.77.14-1.55.26-2.32.35h-.33l64.47 32.9 26.7 13.63 1.86.95a33.57 33.57 0 0 0 5.56 2.22c.73.21 1.45.39 2.18.55l-.72.13h-.14l-.63.09a55.3 55.3 0 0 0 13.06 3.32z" fill="#ffc3b5"/><path d="m329.79 632.6h-.32l.52.08z" fill="#fcb798"/><g fill="#ff9f8c"><rect height="43.79" rx="9.48" transform="matrix(.30702443 .95170163 -.95170163 .30702443 833.7 130.63)" width="18.96" x="317.68" y="615.87"/><rect height="58.11" rx="9.48" transform="matrix(-.50392474 .86374757 -.86374757 -.50392474 1122 685.56)" width="18.96" x="354.64" y="635.94"/><rect height="58.11" rx="9.48" transform="matrix(-.50392474 .86374757 -.86374757 -.50392474 1127.15 717.49)" width="18.96" x="348.05" y="653.38"/><rect height="58.11" rx="9.48" transform="matrix(-.50392474 .86374757 -.86374757 -.50392474 1094.66 746.95)" width="18.96" x="323.34" y="658.78"/></g><ellipse cx="321.17" cy="663.36" fill="#ffc3b5" rx="17.57" ry="22.39" transform="matrix(.10956083 -.99398009 .99398009 .10956083 -373.39 909.91)"/><path d="m403.86 401.26-22.47-76.69a10.51 10.51 0 0 1 9.54-13.57 51.92 51.92 0 0 1 28.73 96.22 10.63 10.63 0 0 1 -15.8-5.96z" fill="#082a3c"/><path d="m420.35 414.74-.13 26.54-.18 31.72-69.06.49.24-46.67.07-11.59z" fill="#ff9f8c"/><path d="m427.18 454.8a5 5 0 0 1 5.09 5.42l-.4 4.65-.68 7.73a5 5 0 0 1 -4.87 4.55l-80.88 1.85a5 5 0 0 1 -5.08-5.42l1.07-12.38a5 5 0 0 1 4.87-4.55z" fill="#ffdab2"/><path d="m420.36 415.12.06 33.38a30.34 30.34 0 0 1 -14.26 3.6h-12.66a50.68 50.68 0 0 1 -42.19-22.31v-14.58z" fill="#fe8f77"/><path d="m374.72 327.76h12.64a50.76 50.76 0 0 1 50.76 50.76v37.84a27.63 27.63 0 0 1 -27.63 27.64h-40.87a25.43 25.43 0 0 1 -25.43-25.43v-60.28a30.53 30.53 0 0 1 30.53-30.53z" fill="#ff9f8c" transform="matrix(-.9999961 .00279252 -.00279252 -.9999961 783.41 770.63)"/><path d="m438 353.06.17 60.26a30.53 30.53 0 0 1 -30.45 30.62h-12.63a50.87 50.87 0 0 1 -18.73-3.51 50.43 50.43 0 0 0 12.46 1.57h12.63a30.53 30.53 0 0 0 30.45-30.62l-.17-60.38a25.42 25.42 0 0 0 -14.55-22.91 25.42 25.42 0 0 1 20.82 24.97z" fill="#ffc3b5"/><path d="m418.47 403.53a8.44 8.44 0 0 1 -2.3 6c-.19.2-.39.39-.59.57a8.39 8.39 0 0 1 -5.3 2.07h-.34a8.44 8.44 0 0 1 -8.62-7.49c0-.23 0-.47-.05-.7a1.65 1.65 0 0 1 .45-1.17 1.6 1.6 0 0 1 1.14-.51l13.93-.39a1.63 1.63 0 0 1 1.68 1.62z" fill="#962f4a"/><path d="m410.07 410.91a7 7 0 0 1 -.09 1.3h-.05a8.43 8.43 0 0 1 -8.61-7.49 6.7 6.7 0 0 1 8.75 6.19z" fill="#e1617f"/><path d="m416.47 402c0 1.66-2.52 3.06-5.66 3.15s-5.72-1.17-5.83-2.82z" fill="#fff"/><circle cx="394.97" cy="382.29" fill="#541000" r="3.63"/><circle cx="427.43" cy="381.98" fill="#541000" r="3.63"/><g fill="#082a3c"><circle cx="354.59" cy="333.6" r="21.8"/><circle cx="385.66" cy="320.92" r="32.82"/><circle cx="354.59" cy="333.6" r="21.8"/><circle cx="385.66" cy="320.92" r="32.82"/></g><path d="m412.87 302.56a32.83 32.83 0 0 0 -49.82 10.94 33.69 33.69 0 0 0 -2.2 5.61 21.79 21.79 0 0 0 -18.49 32.54 21.8 21.8 0 0 1 11.77-39.84 32.82 32.82 0 0 1 58.74-9.25z" fill="#011923"/><circle cx="425.39" cy="316.9" fill="#082a3c" r="43.02"/><circle cx="425.39" cy="316.9" fill="#082a3c" r="43.02"/><path d="m468.41 316.9a43 43 0 0 1 -47.85 42.75 43 43 0 0 0 0-85.5 43 43 0 0 1 47.85 42.75z" fill="#0f4d68"/><path d="m336.83 387.2-1.47-48.58a6.4 6.4 0 0 1 7.69-6.51 31.58 31.58 0 0 1 2.17 61 6.47 6.47 0 0 1 -8.39-5.91z" fill="#082a3c"/><path d="m335.24 387.86 3.78-35.1a4.65 4.65 0 0 1 6.18-3.92 22.94 22.94 0 0 1 -4.52 44.16 4.7 4.7 0 0 1 -5.44-5.14z" fill="#0f4d68"/><circle cx="347.39" cy="388.3" fill="#ff9f8c" r="15.84"/><path d="m342.07 388.66a7.07 7.07 0 0 0 4.5 6.4 2 2 0 0 0 2.68-2l-.25-9.19a2 2 0 0 0 -3-1.76 7.07 7.07 0 0 0 -3.93 6.55z" fill="#fb8265"/><path d="m707.16 374.64h61.21a42.06 42.06 0 0 1 42.06 42.06v174.47a0 0 0 0 1 0 0h-103.27a0 0 0 0 1 0 0v-216.53a0 0 0 0 1 0 0z" fill="#011923"/><path d="m707.16 374.64h61.21a42.06 42.06 0 0 1 42.06 42.06v174.47a0 0 0 0 1 0 0h-103.27a0 0 0 0 1 0 0v-216.53a0 0 0 0 1 0 0z" fill="#011923"/><path d="m810.42 416.7v174.47h-42.42v-174.47a42.06 42.06 0 0 0 -42-42.06h42.41a42.06 42.06 0 0 1 42.01 42.06z" fill="#082a3c"/><path d="m710.28 575.39c.15.24.31.47.47.7-2.43 0-4.82 0-7.19-.13 2.22-.11 4.44-.31 6.72-.57z" fill="#0f4d68"/><path d="m726.55 539.08a27.63 27.63 0 0 1 -9.81 21.17l-31 26.24-22.74 19.23-34.28 29a27.72 27.72 0 0 1 -35.82-42.31l88-74.49a27.71 27.71 0 0 1 45.62 21.14z" fill="#ffb2bf"/><path d="m685.74 586.49-22.74 19.23a31.34 31.34 0 0 1 -7.92-20.89v-2.36a65.27 65.27 0 0 1 19.15-46.24c1.22-1.22 2.47-2.38 3.78-3.49a77 77 0 0 0 4.39 46.91c1.02 2.35 2.14 4.64 3.34 6.84z" fill="#ff6d8d"/><path d="m726.56 539.09a25.32 25.32 0 0 1 -.2 3.25 27.73 27.73 0 0 0 -45.42-17.81l-88 74.49a27.52 27.52 0 0 0 -9.62 17.92 27.72 27.72 0 0 1 9.62-24.51l88-74.49a27.72 27.72 0 0 1 45.62 21.15z" fill="#f9e0e5"/><path d="m680.29 586.69h86.48v115.83h-86.48z" fill="#0d9a73"/><path d="m766.78 586.69v23.38a175.32 175.32 0 0 1 -86.49 25.56v-48.94z" fill="#0b8962"/><path d="m720 521.19a27.31 27.31 0 0 0 -3.65-3.57 27.7 27.7 0 0 1 -3.54 38.68l-88 74.5a27.7 27.7 0 0 1 -35.4.32c.1.12.18.25.29.38a27.72 27.72 0 0 0 39.06 3.24l88-74.49a27.71 27.71 0 0 0 3.24-39.06z" fill="#ff6d8d"/><rect fill="#ffb2bf" height="158.83" rx="27.72" transform="matrix(-.99682073 .079677 -.079677 -.99682073 1255.82 1074.72)" width="55.43" x="578.77" y="482.98"/><rect fill="#f9e0e5" height="46.41" opacity=".38" rx="8.23" transform="matrix(-.99682073 .079677 -.079677 -.99682073 1235.96 1077.47)" width="16.47" x="588.27" y="540.17"/><g fill="#ffb2bf"><rect height="147.82" rx="27.72" transform="matrix(-.80062681 .59916334 -.59916334 -.80062681 1747.87 574.15)" width="55.43" x="750.71" y="503.93"/><rect height="147.82" rx="27.72" transform="matrix(-.95716803 -.28953301 .28953301 -.95716803 1360.66 1518.44)" width="55.43" x="764.9" y="584.69"/><ellipse cx="782.28" cy="715.32" rx="29.32" ry="37.19" transform="matrix(.8369554 -.5472711 .5472711 .8369554 -263.91 544.66)"/></g><path d="m768.34 731.36a47 47 0 0 1 -2.5-4.3c-5.22-10.16-6.16-21.16-3.11-30 .16-.77.36-1.54.59-2.3l4-13.2 15.58-51.51 3-10.09-7.5-10.06-39.24-52.44a27.73 27.73 0 0 1 2.4-36 15.83 15.83 0 0 0 4.26-7.61l.06-.27a27.73 27.73 0 0 0 -17.33 43.89l46.79 62.53-22.63 74.79c-.23.78-.43 1.55-.58 2.33-3.48 10.07-1.74 23 5.6 34.24 9.12 13.94 24 21 36.59 18.48-9.64-1.84-19.32-8.33-25.98-18.48z" fill="#ff6d8d"/><rect fill="#ffa84d" height="8.31" rx="4.15" transform="matrix(-.95716803 -.28953301 .28953301 -.95716803 1342.44 1557.08)" width="73.58" x="749.58" y="675.11"/><rect fill="#ffecd9" height="8.31" rx="4.15" transform="matrix(-.95716803 -.28953301 .28953301 -.95716803 1350.52 1538.36)" width="64.58" x="756.73" y="665.15"/><path d="m613 641.53a1.81 1.81 0 0 1 -.23 0c-.75.06-1.5.08-2.24.08a27.71 27.71 0 0 1 -27.53-25.47l-8.23-103.07a27.72 27.72 0 0 1 25.42-29.84 28.09 28.09 0 0 1 4.68 0 27.7 27.7 0 0 0 -25.21 29.81l8.23 103.07a27.72 27.72 0 0 0 25.11 25.42z" fill="#f9e0e5"/><path d="m790.17 575.7v2.36a31.55 31.55 0 0 1 -31.55 31.56h-67.71a31.57 31.57 0 0 1 -31.56-31.56v-2.36a65.41 65.41 0 0 1 130.82 0z" fill="#0d9a73"/><path d="m659 575.7v2.37a31.56 31.56 0 0 0 31.54 31.56h28.46a77.33 77.33 0 0 1 -37-83.63c-1.31 1.1-2.56 2.27-3.78 3.48a66.07 66.07 0 0 0 -7.41 8.85 65 65 0 0 0 -11.81 37.37z" fill="#13b887"/><path d="m778.42 538.31a75.15 75.15 0 0 1 -50.25 23.55c-1.52.1-3.07.15-4.63.15-.95 0-1.89 0-2.83-.06a75.2 75.2 0 0 1 -50.63-22.14c11.7-17.77 31.82-30.74 54.68-30.74 18.07 0 34.42 8.56 46.25 20.39a64.6 64.6 0 0 1 7.41 8.85z" fill="#ffb2bf"/><path d="m728.17 561.86c-1.52.1-3.07.15-4.63.15-.95 0-1.89 0-2.83-.06l.84-4.77a2.89 2.89 0 0 1 5.69 0z" fill="#ff6d8d"/><ellipse cx="608.19" cy="505.21" fill="#ffb2bf" rx="29.32" ry="37.19" transform="matrix(.66977887 -.74256062 .74256062 .66977887 -174.32 618.4)"/><path d="m639.44 499.86a46.36 46.36 0 0 0 -8.52-10.26c-15.26-13.75-36.41-15.16-47.26-3.13-7 7.8-8 19.35-3.63 30.25-7.61-12.5-7.84-27.12.55-36.42 10.85-12 32-10.62 47.25 3.13a44.4 44.4 0 0 1 11.61 16.43z" fill="#f9e0e5"/><circle cx="762.9" cy="397.8" fill="#ffa84d" r="26.38"/><circle cx="757.67" cy="398.88" fill="#082a3c" r="24.24"/><path d="m720.4 372.36h11.86a37.11 37.11 0 0 1 37.11 37.11v41.43a48.66 48.66 0 0 1 -48.66 48.66h-3.62a48.66 48.66 0 0 1 -48.66-48.66v-26.57a52 52 0 0 1 52-52z" fill="#082a3c" transform="matrix(.99875443 -.04989569 .04989569 .99875443 -20.85 36.4)"/><path d="m742.09 484.76.29 9.16.62 19.78a15.93 15.93 0 1 1 -31.85 1l-.07-2.08-.85-26.86a15.94 15.94 0 0 1 9.77-15.17 15.61 15.61 0 0 1 3-.95 16 16 0 0 1 19.09 15.12z" fill="#ffb2bf"/><path d="m742.09 484.76.29 9.16a53.32 53.32 0 0 1 -31.29 18.72l-.85-26.86a15.94 15.94 0 0 1 9.76-15.19 15.61 15.61 0 0 1 3-.95 16 16 0 0 1 19.09 15.12z" fill="#f9a0b4"/><path d="m765.84 412.07-.06 34.83a53.59 53.59 0 0 1 -53.67 53.49 41.34 41.34 0 0 1 -41.26-41.39v-29.23c0-.18 0-.35 0-.53 0-.8 0-1.6.08-2.39a55.51 55.51 0 0 1 54.75-52.49h2.5a37.67 37.67 0 0 1 37.61 37.73z" fill="#ffb2bf"/><path d="m706.81 500a41.35 41.35 0 0 1 -26.94-38.82v-29.23c0-.18 0-.35 0-.53 0-.8 0-1.6.09-2.39a55.49 55.49 0 0 1 54.74-52.48h2.5a32.82 32.82 0 0 1 4.45.28 35.49 35.49 0 0 0 -6.37-1.83 37.1 37.1 0 0 0 -7.11-.69h-1.67c-.26 0-.52 0-.77 0a55.5 55.5 0 0 0 -54.73 52.52c-.06.8-.09 1.59-.09 2.39v.54 29.22a41.34 41.34 0 0 0 35.9 41.02z" fill="#f9a0b4"/><path d="m774.62 436.42-11.36-20.95a20.18 20.18 0 0 0 -4.23-5.36l1.19-.32c.42-.15 1.21-6 1.19-6.39a1 1 0 0 0 -.06-.29 48.78 48.78 0 0 0 -26-28.08 38 38 0 0 0 -7.12-.69h-2.5a55.51 55.51 0 0 0 -54.73 52.49 48.66 48.66 0 0 0 30.06-1l16-4.36a24.85 24.85 0 0 1 28.36 12.15 20.35 20.35 0 0 0 27.58 8.21 4 4 0 0 0 1.62-5.41z" fill="#f9a0b4"/><path d="m743.28 393.87h5.72a29.14 29.14 0 0 1 29.13 29.13v16.47a5.71 5.71 0 0 1 -5.71 5.71 29.14 29.14 0 0 1 -29.14-29.18v-22.13a0 0 0 0 1 0 0z" fill="#082a3c" transform="matrix(.99875443 -.04989569 .04989569 .99875443 -19.98 38.46)"/><circle cx="763.78" cy="436.81" fill="#ffb2bf" r="16.78"/><path d="m765.36 453.51a53.6 53.6 0 0 1 -53.25 46.88 41.11 41.11 0 0 1 -17-3.68 40.49 40.49 0 0 0 11.13 1.54 53.61 53.61 0 0 0 53-45.28c.08-.52.16-1.05.22-1.58a17 17 0 0 0 6.22-1.84 16.8 16.8 0 0 0 .78-29.31 16.78 16.78 0 0 1 -1.13 33.27z" fill="#fdc3cd"/><path d="m766.49 420.24h-.21l-.45-.05v-.28c.22.09.45.2.66.33z" fill="#f9e0e5"/><path d="m769.41 435.66a7.16 7.16 0 0 0 -5.74-5.47 2.06 2.06 0 0 0 -2.28 2.51l2.06 9.09a2.08 2.08 0 0 0 3.31 1.16 7.16 7.16 0 0 0 2.65-7.29z" fill="#f9a0b4"/><circle cx="685.01" cy="436.77" fill="#473a82" r="4"/><circle cx="717.37" cy="438.29" fill="#473a82" r="4"/><path d="m657.86 361.13h47.06a61.41 61.41 0 0 1 61.41 61.41 0 0 0 0 1 0 0h-47.07a61.41 61.41 0 0 1 -61.41-61.41 0 0 0 0 1 0 0z" fill="#082a3c" transform="matrix(-.9635838 .26740656 -.26740656 -.9635838 1503.02 578.98)"/><path d="m674.31 409.71c-.06-.06-.11-.13-.17-.2-8.44-10-3.49-25.44 9.13-28.94l24.08-6.69a61.37 61.37 0 0 1 52.92 9.79 61.44 61.44 0 0 0 -55-21.2 60.82 60.82 0 0 0 -8.3 1.7l-45.34 12.57a61.08 61.08 0 0 0 22.68 32.97z" fill="#0f4d68"/><rect fill="#0f4d68" height="126.92" rx="4.99" width="9.98" x="787.63" y="419.45"/><path d="m693 453a8.39 8.39 0 0 0 2.29 6c.19.2.39.39.59.57a8.41 8.41 0 0 0 5.3 2.07h.35a8.44 8.44 0 0 0 8.61-7.49c0-.23 0-.46.05-.7a1.62 1.62 0 0 0 -1.58-1.68l-13.93-.39a1.62 1.62 0 0 0 -1.68 1.62z" fill="#962f4a"/><path d="m701.42 460.34a7 7 0 0 0 .09 1.3 8.42 8.42 0 0 0 8.61-7.49 6.7 6.7 0 0 0 -8.75 6.19z" fill="#e1617f"/><path d="m695 451.39c0 1.65 2.53 3.05 5.66 3.14s5.72-1.17 5.83-2.82z" fill="#fff"/><g fill="#d7e2ff"><path d="m545.81 683.83h6.09a5.83 5.83 0 0 1 5.83 5.83v3.39a0 0 0 0 1 0 0h-17.73a0 0 0 0 1 0 0v-3.39a5.83 5.83 0 0 1 5.81-5.83z"/><path d="m528.06 683.83h6.09a5.83 5.83 0 0 1 5.83 5.83v3.39a0 0 0 0 1 0 0h-17.74a0 0 0 0 1 0 0v-3.39a5.83 5.83 0 0 1 5.82-5.83z"/><path d="m510.32 683.83h6.09a5.83 5.83 0 0 1 5.83 5.83v3.39a0 0 0 0 1 0 0h-17.75a0 0 0 0 1 0 0v-3.39a5.83 5.83 0 0 1 5.83-5.83z"/><path d="m492.57 683.83h6.09a5.83 5.83 0 0 1 5.83 5.83v3.39a0 0 0 0 1 0 0h-17.74a0 0 0 0 1 0 0v-3.39a5.83 5.83 0 0 1 5.82-5.83z"/><path d="m474.83 683.83h6.09a5.83 5.83 0 0 1 5.83 5.83v3.39a0 0 0 0 1 0 0h-17.75a0 0 0 0 1 0 0v-3.39a5.83 5.83 0 0 1 5.83-5.83z"/><path d="m457.08 683.83h6.09a5.83 5.83 0 0 1 5.83 5.83v3.39a0 0 0 0 1 0 0h-17.75a0 0 0 0 1 0 0v-3.39a5.83 5.83 0 0 1 5.83-5.83z"/><path d="m439.34 683.83h6.09a5.83 5.83 0 0 1 5.83 5.83v3.39a0 0 0 0 1 0 0h-17.75a0 0 0 0 1 0 0v-3.39a5.83 5.83 0 0 1 5.83-5.83z"/></g><rect fill="#4970db" height="14.46" rx="7.23" width="202.54" x="409.92" y="688.05"/><path d="m556.67 702.51h169a15.45 15.45 0 0 0 15-11.68l32.92-130.83a15.46 15.46 0 0 0 -15-19.23h-149.15a15.47 15.47 0 0 0 -15 11.69z" fill="#5476ef"/><path d="m773.59 560-32.94 130.83a15.47 15.47 0 0 1 -15 11.69h-169l3.64-14.47h133.54a15.47 15.47 0 0 0 15-11.68l32.93-130.87a15.59 15.59 0 0 0 .44-4.77h16.39a15.47 15.47 0 0 1 15 19.27z" fill="#4970db"/><g fill="#d7e2ff"><circle cx="675.71" cy="625.95" r="8.46"/><path d="m687 638.61a16.58 16.58 0 1 1 -22.9-22.89 16.58 16.58 0 0 0 22.9 22.89z"/></g></svg>