<svg viewBox="0 0 1000 1000" xmlns="http://www.w3.org/2000/svg"><rect fill="#d2d6fa" height="17.61" rx="8.8" width="74.06" x="871.52" y="933.23"/><rect fill="#d2d6fa" height="17.61" rx="8.8" width="809.94" x="54.42" y="933.23"/><path d="m981.89 661.19v10.41a132.39 132.39 0 0 1 -132.4 132.4h-53.69a27.32 27.32 0 0 0 -27.32 27.32v101.91h-456.76v-101.91a27.34 27.34 0 0 0 -27.32-27.32h-90.34c-1.43 0-2.85 0-4.27-.06a137.22 137.22 0 0 1 -84.32-32.24q-4.53-3.81-8.71-8a137.6 137.6 0 0 1 97.3-234.91h106a35.76 35.76 0 0 0 5.85-71 35.26 35.26 0 0 0 -5.85-.48h-178.84a83.61 83.61 0 1 1 .17-167.22c38.21.08 69.13-31.08 69.13-69.29a97.92 97.92 0 0 1 97.92-97.92h526a83.61 83.61 0 1 1 0 167.21h-28a48.58 48.58 0 0 0 -48.59 48.59 48.58 48.58 0 0 0 48.59 48.59c.89 0 1.78 0 2.66.06a63 63 0 0 1 60.36 63v43a43.91 43.91 0 0 0 31.24 42.1c25.57 7.65 60.89 23.78 82.32 57a113.22 113.22 0 0 1 13.12 28.38 137.16 137.16 0 0 1 5.75 40.38z" fill="#f3f4fe"/><path d="m981.89 661.19v10.41a132.39 132.39 0 0 1 -132.4 132.4h-53.69a27.32 27.32 0 0 0 -27.32 27.32v101.91h-456.76v-101.91a27.34 27.34 0 0 0 -27.32-27.32h-90.34c-1.43 0-2.85 0-4.27-.06a137.22 137.22 0 0 1 -84.32-32.24q-4.53-3.81-8.71-8a137.6 137.6 0 0 1 97.3-234.91h106a35.76 35.76 0 0 0 5.85-71 35.26 35.26 0 0 0 -5.85-.48h-178.84a83.63 83.63 0 0 1 -82.42-97.66q3.5-2 7.14-3.67c145.94-67.29 292.06 105.02 485.4 54.36a866.09 866.09 0 0 1 233.18-28.34 48.26 48.26 0 0 0 21.94 5.23c.89 0 1.78 0 2.66.06a63 63 0 0 1 60.36 63v43a43.91 43.91 0 0 0 31.24 42.1c25.57 7.65 60.89 23.78 82.32 57a113.22 113.22 0 0 1 13.12 28.38 137.16 137.16 0 0 1 5.73 40.42z" fill="#edeefe"/><path d="m864.35 460.1s-226.19-81.54-468.44 58.34c0 0 206.87-110.44 468.44-58.34z" fill="#f8f9ff"/><path d="m966.61 735a132.5 132.5 0 0 1 -116.29 69h-53.69a27.32 27.32 0 0 0 -27.32 27.32v101.91h-456.76v-101.91a27.34 27.34 0 0 0 -27.32-27.32h-90.34c-1.43 0-2.85 0-4.27-.06a137.22 137.22 0 0 1 -84.32-32.24q-4.53-3.81-8.71-8a137.52 137.52 0 0 1 -36-63.13c141.39-84.78 385.14 44.72 595.55-.52 222.34-47.81 309.47 34.95 309.47 34.95z" fill="#d2d6fa"/><path d="m966.61 735a132.5 132.5 0 0 1 -116.29 69h-53.69a27.32 27.32 0 0 0 -27.32 27.32v101.91h-456.76v-101.91a27.34 27.34 0 0 0 -27.32-27.32h-90.34c-1.43 0-2.85 0-4.27-.06a137.22 137.22 0 0 1 -84.32-32.24q-4.53-3.81-8.71-8a137.52 137.52 0 0 1 -36-63.13c141.39-84.78 385.14 44.72 595.55-.52 222.34-47.81 309.47 34.95 309.47 34.95z" fill="#d2d6fa"/><path d="m966.61 735c-1 1.77-2 3.51-3 5.23-17.06-13.58-107.77-75.07-306.48-32.35-209.48 45-452-83.12-593.67-.59q-1-3.3-1.88-6.67c141.39-84.78 385.14 44.72 595.55-.52 222.35-47.86 309.48 34.9 309.48 34.9z" fill="#f8f9ff"/><path d="m599.92 393.31-13.27 13.28a2.11 2.11 0 0 1 -1.48.61h-31.27a2.12 2.12 0 0 1 -1.48-.61l-13.07-13.08a2.09 2.09 0 0 1 1.47-3.57l57.62-.2a2.09 2.09 0 0 1 1.48 3.57z" fill="#edeefe"/><path d="m564.2 337.7v41.53a1.4 1.4 0 0 0 1.4 1.4h29.8a1.4 1.4 0 0 0 1.14-2.22l-29.8-41.53a1.4 1.4 0 0 0 -2.54.82z" fill="#edeefe"/><g fill="#fff"><path d="m838.61 212.58h-55.37a27.69 27.69 0 1 1 55.37 0z"/><path d="m807.46 212.58h-79.53a39.77 39.77 0 1 1 79.53 0z"/><path d="m772.48 212.58h-97.08a48.54 48.54 0 1 1 97.08 0z"/><path d="m373.1 238.5h-35.35a17.68 17.68 0 1 1 35.35 0z"/><path d="m353.21 238.5h-50.77a25.39 25.39 0 1 1 50.77 0z"/><path d="m330.88 238.5h-62a31 31 0 0 1 62 0z"/></g><ellipse cx="366.86" cy="767.8" fill="#bdc9f9" rx="195.57" ry="18.08"/><path d="m729.46 688h-327.59v-31.34a9.33 9.33 0 0 1 9.32-9.33h309a9.32 9.32 0 0 1 9.31 9.33z" fill="#f3f4fe"/><path d="m720.15 774.13h-309a9.33 9.33 0 0 1 -9.32-9.31v-76.82h327.63v76.8a9.31 9.31 0 0 1 -9.31 9.33z" fill="#edeefe"/><g fill="#c7cfff"><path d="m401.87 678.21v-21.55a9.33 9.33 0 0 1 9.32-9.33h21.54a30.86 30.86 0 0 1 -30.86 30.88z"/><path d="m432.73 774.13h-21.54a9.33 9.33 0 0 1 -9.32-9.31v-21.54a30.84 30.84 0 0 1 30.86 30.85z"/><path d="m729.46 678.21a30.87 30.87 0 0 1 -30.85-30.88h21.54a9.32 9.32 0 0 1 9.31 9.33z"/><path d="m720.15 774.13h-21.54a30.85 30.85 0 0 1 30.85-30.85v21.54a9.31 9.31 0 0 1 -9.31 9.31z"/></g><path d="m587.47 703.03h126.8v15.4h-126.8z" fill="#bcbff6" transform="matrix(0 1 -1 0 1361.6 59.86)"/><path d="m417.06 703.03h126.8v15.4h-126.8z" fill="#bcbff6" transform="matrix(0 1 -1 0 1191.2 230.27)"/><path d="m562.4 527.49h6.54v327.59h-6.54z" fill="#adb3ea" transform="matrix(0 1 -1 0 1256.96 125.62)"/><rect fill="#adb3ea" height="9.41" rx="2" width="26.83" x="430.04" y="696.63"/><rect fill="#c7cfff" height="9.41" rx="2" width="26.83" x="430.04" y="694.56"/><rect fill="#adb3ea" height="23.09" rx="4.84" transform="matrix(-1 0 0 -1 886.91 1379.57)" width="10.99" x="437.96" y="678.24"/><rect fill="#c7cfff" height="23.09" rx="4.84" transform="matrix(-1 0 0 -1 886.91 1375.42)" width="10.99" x="437.96" y="676.17"/><rect fill="#adb3ea" height="9.41" rx="2" transform="matrix(-1 0 0 -1 1375.76 1402.66)" width="26.83" x="674.46" y="696.63"/><rect fill="#c7cfff" height="9.41" rx="2" transform="matrix(-1 0 0 -1 1375.76 1398.52)" width="26.83" x="674.46" y="694.56"/><rect fill="#adb3ea" height="23.09" rx="4.84" width="10.99" x="682.39" y="678.24"/><g fill="#c7cfff"><rect height="23.09" rx="4.84" width="10.99" x="682.39" y="676.17"/><path d="m518.43 716.9a6.2 6.2 0 0 1 12.35-.86c.54.86 5.66 7.5 34.52 7.5 29.47 0 34.78-7 35.3-7.79a6.21 6.21 0 0 1 6.46-5 6.28 6.28 0 0 1 5.84 6.56c-.25 4.38-4.43 18.7-47.6 18.7-43.5-.01-46.87-14.64-46.87-19.11z"/><path d="m748.51 426.47v45.91h-319.51v-45.91a4.36 4.36 0 0 1 4.35-4.36h310.82a4.35 4.35 0 0 1 4.34 4.36z"/></g><path d="m748.51 472.38v68.27a4.34 4.34 0 0 1 -4.34 4.35h-310.81a4.35 4.35 0 0 1 -4.35-4.35v-68.27z" fill="#91a1e5"/><g fill="#8390db"><path d="m501.81 509.64h21.71v10.11h-21.71z"/><path d="m654 509.64h21.71v10.11h-21.71z" transform="matrix(-1 0 0 -1 1329.72 1029.38)"/><path d="m504.68 506.09 4-4.18a5.51 5.51 0 0 1 7.92 0l4 4.18v25.61l-4 4.18a5.51 5.51 0 0 1 -7.92 0l-4-4.18z"/><path d="m672.84 506.09-4-4.18a5.51 5.51 0 0 0 -7.92 0l-4 4.18v25.61l4 4.18a5.51 5.51 0 0 0 7.92 0l4-4.18z"/></g><path d="m429.01 472.38h319.5v6.2h-319.5z" fill="#9da8ed"/><g fill="#bcbff6"><path d="m462.23 422.11a33.22 33.22 0 0 1 -33.23 33.23v-28.87a4.36 4.36 0 0 1 4.35-4.36z"/><path d="m748.51 426.47v28.87a33.23 33.23 0 0 1 -33.21-33.23h28.87a4.35 4.35 0 0 1 4.34 4.36z"/><path d="m462.23 545h-28.87a4.35 4.35 0 0 1 -4.35-4.35v-28.87a33.22 33.22 0 0 1 33.22 33.22z"/><path d="m748.51 511.78v28.87a4.34 4.34 0 0 1 -4.34 4.35h-28.87a33.23 33.23 0 0 1 33.21-33.22z"/></g><path d="m504.68 422.11h15.97v86.56h-15.97z" fill="#f3f4fe"/><path d="m504.68 502.71 4-4.18a5.51 5.51 0 0 1 7.92 0l4 4.18v25.61l-4 4.18a5.51 5.51 0 0 1 -7.92 0l-4-4.18z" fill="#9da8ed"/><path d="m501.81 506.73h21.71v10.11h-21.71z" fill="#c7cfff"/><path d="m450.1 486.14h34.04v14.81h-34.04z" fill="#f3f4fe"/><path d="m656.87 422.11h15.97v86.56h-15.97z" fill="#f3f4fe" transform="matrix(-1 0 0 -1 1329.72 930.79)"/><path d="m672.84 502.71-4-4.18a5.51 5.51 0 0 0 -7.92 0l-4 4.18v25.61l4 4.18a5.51 5.51 0 0 0 7.92 0l4-4.18z" fill="#9da8ed"/><path d="m654 506.73h21.71v10.11h-21.71z" fill="#c7cfff" transform="matrix(-1 0 0 -1 1329.72 1023.56)"/><path d="m693.38 486.14h34.04v14.81h-34.04z" fill="#f3f4fe" transform="matrix(-1 0 0 -1 1420.81 987.1)"/><path d="m548.13 491.09h81.27v18.28h-81.27z" fill="#f3f4fe"/><path d="m541.82 491.09h6.3v18.28h-6.3z" fill="#8390db"/><path d="m629.4 491.09h6.3v18.28h-6.3z" fill="#8390db" transform="matrix(-1 0 0 -1 1265.11 1000.47)"/><g fill="#9da8ed"><circle cx="512.67" cy="489.98" r="1.92"/><circle cx="512.67" cy="479.82" r="1.92"/><circle cx="512.67" cy="469.65" r="1.92"/><circle cx="512.67" cy="459.49" r="1.92"/><circle cx="512.67" cy="449.33" r="1.92"/><circle cx="512.67" cy="439.16" r="1.92"/><circle cx="512.67" cy="429" r="1.92"/><path d="m662.94 490a1.92 1.92 0 1 1 1.92 1.92 1.92 1.92 0 0 1 -1.92-1.92z"/><path d="m662.94 479.82a1.92 1.92 0 1 1 1.92 1.92 1.92 1.92 0 0 1 -1.92-1.92z"/><path d="m662.94 469.65a1.92 1.92 0 1 1 1.92 1.93 1.92 1.92 0 0 1 -1.92-1.93z"/><path d="m662.94 459.49a1.92 1.92 0 1 1 1.92 1.92 1.92 1.92 0 0 1 -1.92-1.92z"/><path d="m662.94 449.33a1.92 1.92 0 1 1 1.92 1.92 1.93 1.93 0 0 1 -1.92-1.92z"/><path d="m662.94 439.16a1.92 1.92 0 1 1 1.92 1.93 1.92 1.92 0 0 1 -1.92-1.93z"/><path d="m662.94 429a1.92 1.92 0 1 1 1.92 1.92 1.92 1.92 0 0 1 -1.92-1.92z"/></g><path d="m218.26 504.38h152.82a15.56 15.56 0 0 1 15.56 15.56v223.47a8.77 8.77 0 0 1 -8.77 8.77h-166.4a8.77 8.77 0 0 1 -8.77-8.77v-223.47a15.56 15.56 0 0 1 15.56-15.56z" fill="#bcbff6"/><path d="m229.13 614.61h131.09a8.09 8.09 0 0 1 8.09 8.09v93.3a20.66 20.66 0 0 1 -20.66 20.66h-105.94a20.66 20.66 0 0 1 -20.71-20.66v-93.3a8.09 8.09 0 0 1 8.13-8.09z" fill="#91a1e5"/><rect fill="#91a1e5" height="67.45" rx="13.92" width="147.26" x="221.04" y="533.54"/><path d="m386.64 730.24v-96.84a14.55 14.55 0 0 1 14.56 14.6v67.73a14.56 14.56 0 0 1 -14.56 14.51z" fill="#bcbff6"/><path d="m202.7 730.24v-96.84a14.54 14.54 0 0 0 -14.55 14.6v67.73a14.55 14.55 0 0 0 14.55 14.51z" fill="#bcbff6"/><path d="m233.43 758.12h27a0 0 0 0 1 0 0v9.13a8.53 8.53 0 0 1 -8.53 8.53h-9.9a8.53 8.53 0 0 1 -8.53-8.53v-9.13a0 0 0 0 1 -.04 0z" fill="#8390db"/><path d="m337.44 758.12h10a8.53 8.53 0 0 1 8.53 8.53v9.13a0 0 0 0 1 0 0h-27a0 0 0 0 1 0 0v-9.13a8.53 8.53 0 0 1 8.47-8.53z" fill="#8390db" transform="matrix(-1 0 0 -1 684.82 1533.9)"/><path d="m229.13 607.5h131.09a8.09 8.09 0 0 1 8.09 8.09v93.31a20.66 20.66 0 0 1 -20.66 20.66h-105.94a20.66 20.66 0 0 1 -20.71-20.66v-93.32a8.09 8.09 0 0 1 8.09-8.09z" fill="#f3f4fe"/><rect fill="#f3f4fe" height="67.45" rx="13.92" width="147.26" x="221.04" y="526.43"/><path d="m235.57 622.77h118.2v2.79h-118.2z" fill="#bcbff6"/><path d="m238.83 640.26h-2.41a3.16 3.16 0 0 1 -3.12-3.67l2.27-13.82h4.11l2.32 13.82a3.16 3.16 0 0 1 -3.17 3.67z" fill="#91a1e5"/><path d="m235.57 539.2h118.2v2.79h-118.2z" fill="#bcbff6"/><path d="m238.83 556.68h-2.41a3.16 3.16 0 0 1 -3.12-3.68l2.27-13.81h4.11l2.32 13.81a3.15 3.15 0 0 1 -3.17 3.68z" fill="#91a1e5"/><path d="m356.08 504.39h-122.8a17.91 17.91 0 0 1 1-6 18 18 0 0 1 17.07-12.12h86.65a18 18 0 0 1 17 12.12 17.2 17.2 0 0 1 1.08 6z" fill="#91a1e5"/><path d="m251.35 408.92h6.44v77.38h-6.44z" fill="#8390db"/><path d="m331.56 408.92h6.44v77.38h-6.44z" fill="#8390db" transform="matrix(-1 0 0 -1 669.55 895.21)"/><path d="m250.28 394.05h88.78a8.29 8.29 0 0 1 8.29 8.29v7.14a0 0 0 0 1 0 0h-105.35a0 0 0 0 1 0 0v-7.14a8.29 8.29 0 0 1 8.28-8.29z" fill="#91a1e5"/><path d="m362.36 758.12h-135.36a5.94 5.94 0 0 1 -6-5.94h147.3a5.94 5.94 0 0 1 -5.94 5.94z" fill="#91a1e5"/><path d="m356.08 504.39h-122.8a17.91 17.91 0 0 1 1-6h120.77a17.2 17.2 0 0 1 1.03 6z" fill="#8390db"/><path d="m328.91 758.12h27v4.9h-27z" fill="#6a7dcc"/><path d="m233.43 758.12h27v4.9h-27z" fill="#6a7dcc"/><path d="m536.38 347.86v4.14c-4.41 0-14.74 0-14.74-9.09v-10.54a2.32 2.32 0 0 0 -2.31-2.34h-35a2.34 2.34 0 0 0 -2.34 2.34v10.54c0 9.09-10.33 9.09-14.74 9.09v-4.14c8.86 0 10.6-1.82 10.6-4.95v-10.54a6.49 6.49 0 0 1 6.48-6.48h35a6.48 6.48 0 0 1 6.45 6.48v10.54c0 3.09 1.74 4.95 10.6 4.95z" fill="#91a1e5"/><path d="m525.78 324.15v6.74h-47.94v-6.74a4.39 4.39 0 0 1 4.39-4.39h39.19a4.38 4.38 0 0 1 4.36 4.39z" fill="#bcbff6"/><path d="m477.84 326.85h47.94v4.04h-47.94z" fill="#c7cfff"/><path d="m508.39 423.25h-13.16a41.43 41.43 0 0 1 -41-47.47l1.95-13.19a27.66 27.66 0 0 1 27.38-23.59h36.51a27.67 27.67 0 0 1 27.37 23.63l1.94 13.19a41.43 41.43 0 0 1 -40.99 47.43z" fill="#bcbff6"/><path d="m469.32 368.84h65a0 0 0 0 1 0 0v24.06a10.68 10.68 0 0 1 -10.68 10.68h-43.64a10.68 10.68 0 0 1 -10.68-10.68v-24.06a0 0 0 0 1 0 0z" fill="#c7cfff"/><path d="m469.32 366.27h65a0 0 0 0 1 0 0v24.07a10.68 10.68 0 0 1 -10.7 10.66h-43.62a10.68 10.68 0 0 1 -10.68-10.68v-24.05a0 0 0 0 1 0 0z" fill="#bcbff6"/><path d="m469.3 364.26h64.98v2.01h-64.98z" fill="#c7cfff"/><path d="m471.65 376.85h-1.74a2.27 2.27 0 0 1 -2.24-2.64l1.63-9.95h3l1.64 9.95a2.28 2.28 0 0 1 -2.29 2.64z" fill="#91a1e5"/><path d="m413.37 550.16v92a5.14 5.14 0 0 0 5.15 5.13h294a5.13 5.13 0 0 0 5.13-5.13v-92a5.13 5.13 0 0 0 -5.13-5.13h-294a5.14 5.14 0 0 0 -5.15 5.13z" fill="#bcbff6"/><path d="m420.8 554.54h289.37v83.28h-289.37z" fill="#f3f4fe"/><g fill="#9da8ed"><path d="m413.37 629.28v12.92a5.14 5.14 0 0 0 5.15 5.13h12.89a18.05 18.05 0 0 0 -18.04-18.05z"/><path d="m697.6 647.33h14.88a5.13 5.13 0 0 0 5.13-5.13v-12.79a15.86 15.86 0 0 0 -2-.13 18.05 18.05 0 0 0 -18.01 18.05z"/><path d="m413.37 550.16v12.9a18 18 0 0 0 18-18h-12.85a5.14 5.14 0 0 0 -5.15 5.1z"/><path d="m699.57 545a18 18 0 0 0 18 18v-12.9a5.13 5.13 0 0 0 -5.13-5.13z"/></g><path d="m420.8 578.51h289.38v8.09h-289.38z" fill="#bcbff6" transform="matrix(-1 0 0 -1 1130.98 1165.11)"/><path d="m420.8 586.6h289.38v8.09h-289.38z" fill="#bcbff6" transform="matrix(-1 0 0 -1 1130.98 1181.3)"/><path d="m413.37 584.46h304.25v4.28h-304.25z" fill="#9da8ed" transform="matrix(-1 0 0 -1 1130.98 1173.2)"/><path d="m544.97 578.51h41.05v16.18h-41.05z" fill="#9da8ed" transform="matrix(-1 0 0 -1 1130.98 1173.2)"/><path d="m553.35 603.07h24.29a8.38 8.38 0 0 0 8.38-8.38h-41.02a8.38 8.38 0 0 0 8.35 8.38z" fill="#bcbff6"/><path d="m574.45 603.07c0-5-4-4.19-9-4.19s-9-.76-9 4.19a9 9 0 1 0 17.92 0z" fill="#bcbff6"/><g fill="#9da8ed"><path d="m523.29 605.73v10.44a15.26 15.26 0 0 0 15.25 15.24h54.26a15.26 15.26 0 0 0 15.2-15.24v-10.44h-8.28v10.44a7 7 0 0 1 -7 7h-54.18a7 7 0 0 1 -7-7v-10.44z"/><rect height="17.12" rx="2.46" transform="matrix(0 -1 1 0 -1.48 1209.28)" width="8.47" x="599.66" y="596.82"/><rect height="17.12" rx="2.46" transform="matrix(0 -1 1 0 -78.3 1132.45)" width="8.47" x="522.84" y="596.82"/></g><path d="m18.68 400.46s74.06-45.71 171.85-11.63c0 0-89.28-23.36-171.85 11.63z" fill="#f8f9ff"/><path d="m780.21 633.42h-43.08v299.81h43.08a4.09 4.09 0 0 0 4.09-4.08v-291.65a4.09 4.09 0 0 0 -4.09-4.08z" fill="#33346a"/><path d="m737.13 633.42h-64.07a4.07 4.07 0 0 0 -4.06 4.08v291.65a4.08 4.08 0 0 0 4.07 4.08h64.07z" fill="#212460"/><g fill="#14194c"><path d="m687.24 849.99h20.38v9.48h-20.38z" transform="matrix(0 -1 1 0 -157.3 1552.15)"/><path d="m687.24 707.18h20.38v9.48h-20.38z" transform="matrix(0 1 -1 0 1409.34 14.49)"/><path d="m705.5 862.22 3.91-3.77a5.16 5.16 0 0 0 0-7.44l-3.91-3.77h-24l-3.95 3.76a5.16 5.16 0 0 0 0 7.44l3.91 3.77z"/><path d="m705.5 704.42 3.91 3.78a5.15 5.15 0 0 1 0 7.43l-3.91 3.78h-24l-3.91-3.78a5.15 5.15 0 0 1 0-7.43l3.91-3.78z"/><path d="m584.32 780.41h299.81v5.82h-299.81z" transform="matrix(0 -1 1 0 -49.1 1517.55)"/></g><g fill="#ffd371"><path d="m784.3 902.06a31.17 31.17 0 0 0 -31.18 31.17h27.09a4.09 4.09 0 0 0 4.09-4.08z"/><path d="m780.21 633.42h-27.09a31.18 31.18 0 0 0 31.18 31.17v-27.09a4.09 4.09 0 0 0 -4.09-4.08z"/><path d="m669 902.06v27.09a4.08 4.08 0 0 0 4.07 4.08h27.1a31.17 31.17 0 0 0 -31.17-31.17z"/><path d="m700.16 633.42h-27.1a4.07 4.07 0 0 0 -4.06 4.08v27.09a31.19 31.19 0 0 0 31.16-31.17z"/></g><path d="m736.19 814.12h14.99v81.23h-14.99z" fill="#dbad52" transform="matrix(0 -1 1 0 -111.05 1598.41)"/><path d="m708.67 862.22 3.92-3.77a5.18 5.18 0 0 0 0-7.44l-3.92-3.77h-24l-3.95 3.76a5.16 5.16 0 0 0 0 7.44l3.91 3.77z" fill="#ffd371"/><path d="m689.97 849.99h20.38v9.48h-20.38z" fill="#fd9" transform="matrix(0 -1 1 0 -154.57 1554.89)"/><path d="m701.29 890.52h31.94v13.9h-31.94z" fill="#fd9" transform="matrix(0 -1 1 0 -180.2 1614.73)"/><path d="m736.19 671.3h14.99v81.23h-14.99z" fill="#dbad52" transform="matrix(0 1 -1 0 1455.6 -31.77)"/><path d="m708.67 704.42 3.92 3.78a5.17 5.17 0 0 1 0 7.43l-3.92 3.78h-24l-3.91-3.78a5.15 5.15 0 0 1 0-7.43l3.91-3.78z" fill="#ffd371"/><g fill="#fd9"><path d="m689.97 707.18h20.38v9.48h-20.38z" transform="matrix(0 1 -1 0 1412.08 11.76)"/><path d="m701.29 662.23h31.94v13.9h-31.94z" transform="matrix(0 1 -1 0 1386.44 -48.09)"/><path d="m672.86 774.75h76.27v17.15h-76.27z" transform="matrix(0 -1 1 0 -72.33 1494.32)"/></g><g fill="#ffd371"><path d="m708.03 815.84h5.92v17.15h-5.92z" transform="matrix(0 -1 1 0 -113.42 1535.41)"/><path d="m708.03 733.66h5.92v17.15h-5.92z" transform="matrix(0 1 -1 0 1453.23 31.24)"/><circle cx="720.61" cy="854.73" r="1.8"/><circle cx="730.15" cy="854.73" r="1.8"/><circle cx="739.69" cy="854.73" r="1.8"/><circle cx="749.22" cy="854.73" r="1.8"/><circle cx="758.76" cy="854.73" r="1.8"/><circle cx="768.3" cy="854.73" r="1.8"/><circle cx="777.84" cy="854.73" r="1.8"/><circle cx="720.61" cy="711.92" r="1.8"/><circle cx="730.15" cy="711.92" r="1.8"/><circle cx="739.69" cy="711.92" r="1.8"/><circle cx="749.22" cy="711.92" r="1.8"/><circle cx="758.76" cy="711.92" r="1.8"/><circle cx="768.3" cy="711.92" r="1.8"/><circle cx="777.84" cy="711.92" r="1.8"/></g><path d="m788.93 199.54a86.34 86.34 0 0 1 86.34 86.34v155.3a0 0 0 0 1 0 0 86.34 86.34 0 0 1 -86.34-86.34v-155.3a0 0 0 0 1 0 0z" fill="#7f5a41"/><path d="m788.93 199.54a86.34 86.34 0 0 1 86.34 86.34v155.3a0 0 0 0 1 0 0 86.34 86.34 0 0 1 -86.34-86.34v-155.3a0 0 0 0 1 0 0z" fill="#7f5a41"/><path d="m875.28 285.88v155.31a86.05 86.05 0 0 1 -18.78-2.06v-153.25a86.34 86.34 0 0 0 -67.57-84.27v-2.06a86.35 86.35 0 0 1 86.35 86.33z" fill="#8c684e"/><circle cx="784.67" cy="231.48" fill="#8c684e" r="45.36"/><path d="m740.77 408.9a33.61 33.61 0 0 1 -11.93 25.75l-37.7 31.92-27.64 23.43-41.68 35.29a33.71 33.71 0 1 1 -43.57-51.46l107-90.59a33.71 33.71 0 0 1 55.48 25.71z" fill="#ffb2bf"/><path d="m691.14 466.57-27.64 23.43a38.15 38.15 0 0 1 -9.63-25.4v-2.88a79.54 79.54 0 0 1 23.3-56.24q2.21-2.22 4.59-4.23a93.63 93.63 0 0 0 5.34 57.05q1.83 4.24 4.04 8.27z" fill="#f9a0b4"/><path d="m740.78 408.91a32.72 32.72 0 0 1 -.24 3.95 33.72 33.72 0 0 0 -55.25-21.65l-107 90.59a33.45 33.45 0 0 0 -11.7 21.79 33.69 33.69 0 0 1 11.7-29.81l107-90.59a33.72 33.72 0 0 1 55.49 25.72z" fill="#f9e0e5"/><path d="m732.79 387.14a33.65 33.65 0 0 0 -4.44-4.34 33.7 33.7 0 0 1 -4.3 47.05l-107 90.6a33.71 33.71 0 0 1 -43.06.39c.13.15.23.31.35.46a33.71 33.71 0 0 0 47.51 4l107-90.6a33.71 33.71 0 0 0 3.94-47.56z" fill="#f9a0b4"/><rect fill="#ffb2bf" height="193.18" rx="33.71" transform="matrix(-.98450318 .17536673 -.17536673 -.98450318 1245.21 764.25)" width="67.42" x="555.12" y="340.56"/><rect fill="#f9e0e5" height="64.28" opacity=".38" rx="6.92" transform="matrix(-.98450318 .17536673 -.17536673 -.98450318 1233.41 775.54)" width="13.83" x="575.52" y="410.13"/><path d="m606 532.18a1.09 1.09 0 0 1 -.26.05c-.91.17-1.81.29-2.71.37a33.71 33.71 0 0 1 -36.36-27.6l-22-123.81a33.7 33.7 0 0 1 27.28-39.1 34.12 34.12 0 0 1 5.65-.52 33.71 33.71 0 0 0 -27 39l21.99 123.83a33.73 33.73 0 0 0 33.41 27.78z" fill="#f9e0e5"/><ellipse cx="584.19" cy="367.72" fill="#ffb2bf" rx="35.66" ry="45.23" transform="matrix(.59510335 -.80364918 .80364918 .59510335 -58.98 618.39)"/><path d="m621.39 357.58a56.21 56.21 0 0 0 -11.52-11.42c-20.08-14.86-45.84-14.09-57.57 1.75-7.61 10.28-7.42 24.37-.85 37-10.67-14.24-12.67-31.91-3.61-44.16 11.73-15.82 37.5-16.6 57.57-1.74a53.92 53.92 0 0 1 15.98 18.57z" fill="#f9e0e5"/><path d="m591.12 599.21 99.66 53.91a58.67 58.67 0 0 0 79.52-23.69l6.81-12.59a16.93 16.93 0 0 0 -6.84-23l-136.37-73.72a45 45 0 0 0 -60.9 18.16 45 45 0 0 0 18.12 60.93z" fill="#f9a0b4"/><path d="m777.11 616.85-6.81 12.58a58.66 58.66 0 0 1 -79.52 23.68l-99.67-53.9a45 45 0 0 1 -4.9-3.07 58.66 58.66 0 0 0 76.71-25.14l14.73-27.23 92.62 50.11a16.92 16.92 0 0 1 6.84 22.97z" fill="#33346a"/><ellipse cx="754.29" cy="285.55" fill="#8c684e" rx="73.27" ry="61.42" transform="matrix(.95960912 -.28133671 .28133671 .95960912 -49.87 223.76)"/><path d="m684.5 476.66h104.75v138.84h-104.75z" fill="#ffb2bf" transform="matrix(.99999925 .00122173 -.00122173 .99999925 .71 -.95)"/><path d="m721 453.06c.18.29.38.58.57.85-2.95.06-5.86 0-8.74-.15 2.68-.14 5.41-.38 8.17-.7z" fill="#fdfae4"/><path d="m789.69 466.81v77.64a52.6 52.6 0 0 1 -52.59 52.55 52.6 52.6 0 0 1 -52.59-52.59v-77.6z" fill="#a2c845"/><path d="m789.69 466.81v77.63a52.59 52.59 0 1 1 -105.18 0v-77.63z" fill="#ffb2bf"/><path d="m789.69 466.81v28.43a213.35 213.35 0 0 1 -105.18 31.09v-59.52z" fill="#f9a0b4"/><path d="m866.62 528.28a33.71 33.71 0 0 1 -47.19-6.8l-1.23-1.65-9.2-12.26-56.9-76.05a33.72 33.72 0 0 1 6.8-47.19c.49-.36 1-.71 1.49-1.05a2.41 2.41 0 0 1 .36-.23 12.1 12.1 0 0 1 1.08-.67 4.25 4.25 0 0 1 .58-.35l.24-.14c.44-.26.9-.48 1.34-.71s.8-.4 1.19-.57.6-.27.92-.39a28.08 28.08 0 0 1 3.54-1.25c.55-.17 1.09-.32 1.66-.45s1.16-.26 1.74-.36a.61.61 0 0 1 .13 0 33.68 33.68 0 0 1 32.91 13l67.32 90a33.72 33.72 0 0 1 -6.78 47.12z" fill="#ffb2bf"/><path d="m821.9 507.55-3.7 12.28-9.2-12.26-56.9-76.05a33.72 33.72 0 0 1 6.8-47.19c.49-.36 1-.71 1.49-1.05a2.41 2.41 0 0 1 .36-.23 12.1 12.1 0 0 1 1.08-.67 4.25 4.25 0 0 1 .58-.35l.24-.14c.44-.26.9-.48 1.34-.71s.8-.4 1.19-.57.6-.27.92-.39a28.08 28.08 0 0 1 3.54-1.25c.55-.17 1.09-.32 1.66-.45s1.16-.26 1.74-.36a.61.61 0 0 1 .13 0l-.07.33a19.36 19.36 0 0 1 -5.19 9.26 33.73 33.73 0 0 0 -2.91 43.8l47.72 63.77z" fill="#f9a0b4"/><path d="m659.05 453.43v2.88a38.39 38.39 0 0 0 38.38 38.38h82.35a38.38 38.38 0 0 0 38.37-38.38v-2.88a79.16 79.16 0 0 0 -14.29-45.43 74.79 74.79 0 0 0 -5.11-6.55q-.13-.18-.3-.36-1.74-2-3.6-3.84a79.57 79.57 0 0 0 -121.5 10.72c-.43.62-.85 1.24-1.25 1.86a79 79 0 0 0 -13.05 43.6z" fill="#fffc99"/><path d="m659.05 453.44v2.88a38.27 38.27 0 0 0 38.15 38.38h34.37a94.2 94.2 0 0 1 -44.78-101.7c-1.59 1.34-3.11 2.76-4.57 4.23a79.55 79.55 0 0 0 -23.17 56.24z" fill="#fffcbd"/><path d="m673.35 407.92a91.28 91.28 0 0 0 60.48 28q2.79.18 5.64.18c1.15 0 2.29 0 3.44-.07a91.42 91.42 0 0 0 61.57-26.93 80.44 80.44 0 0 0 -5.73-7.7q-.13-.18-.3-.36-1.74-2-3.6-3.84a79.57 79.57 0 0 0 -121.5 10.72z" fill="#ffb2bf"/><path d="m733.83 435.92q2.79.18 5.64.18c1.14 0 2.29 0 3.43-.08l-1-5.8a3.52 3.52 0 0 0 -6.92-.06z" fill="#f9a0b4"/><ellipse cx="747.6" cy="291.55" fill="#8c684e" rx="65.74" ry="74.9"/><path d="m768.84 316.11-3.65 42.63-2.54 29.77a16.82 16.82 0 0 1 -18.18 15.3l-2.27-.19a16.82 16.82 0 0 1 -15.32-18.18l1.68-19.53 4.54-52.91a16.8 16.8 0 0 1 18.18-15.31l2.28.21a16.77 16.77 0 0 1 15.28 18.21z" fill="#ffb2bf"/><path d="m768.84 316.11-3.65 42.63a59.88 59.88 0 0 1 -30.15 7.7 47.6 47.6 0 0 1 -6.48-.53l4.54-52.91a16.8 16.8 0 0 1 18.18-15.31l2.28.21a16.77 16.77 0 0 1 15.28 18.21z" fill="#f9a0b4"/><path d="m751.76 217.6h2a42.32 42.32 0 0 1 42.24 42.32v39.08a60.2 60.2 0 0 1 -60.2 60.2 46.44 46.44 0 0 1 -46.4-46.4v-32.8a62.36 62.36 0 0 1 62.36-62.36z" fill="#ffb2bf" transform="matrix(.99993762 .01116987 -.01116987 .99993762 3.28 -8.31)"/><path d="m689.12 312.2a46.45 46.45 0 0 0 45.92 47c1.7 0 3.38 0 5-.15a46.43 46.43 0 0 1 -42.82-46.81l.37-32.83a62.34 62.34 0 0 1 58.82-61.57c-.65 0-1.28-.06-1.93-.06h-2a62.34 62.34 0 0 0 -63 61.66z" fill="#f9e0e5"/><ellipse cx="742.9" cy="246.73" fill="#8c684e" rx="42.41" ry="67.45" transform="matrix(.10938735 -.9939992 .9939992 .10938735 416.42 958.21)"/><ellipse cx="742.9" cy="246.73" fill="#8c684e" rx="42.41" ry="67.45" transform="matrix(.10938735 -.9939992 .9939992 .10938735 416.42 958.21)"/><path d="m797 225.08c-10.92-7.25-25.33-12.46-41.46-14.23-37-4.07-69.13 11.5-71.69 34.78-1.14 10.39 3.8 20.57 12.9 29-14.11-9.37-22.37-22.15-20.92-35.28 2.56-23.28 34.65-38.85 71.69-34.78 20.48 2.27 38.21 10.06 49.48 20.51z" fill="#aa7c62"/><ellipse cx="726.82" cy="241.71" fill="#aa7c62" rx="31.42" ry="19.76" transform="matrix(.99994876 -.01012274 .01012274 .99994876 -2.42 7.41)"/><ellipse cx="791.3" cy="291.55" fill="#8c684e" rx="23.4" ry="22.9"/><circle cx="794.36" cy="301.39" fill="#ffb2bf" r="18.97"/><circle cx="703.8" cy="299.7" fill="#59442a" r="3.9"/><circle cx="740.26" cy="301.39" fill="#59442a" r="3.9"/><path d="m799.88 303a7.56 7.56 0 0 1 -4.8 6.85 2.16 2.16 0 0 1 -2.88-2.12l.25-9.84a2.19 2.19 0 0 1 3.18-1.89 7.57 7.57 0 0 1 4.25 7z" fill="#f9a0b4"/><path d="m788.86 611.85a61.23 61.23 0 0 1 -16.55 42.38 51.33 51.33 0 0 1 -33.79 16.18h-.58c-.9 0-1.81.08-2.72.08h-103.59a39.32 39.32 0 0 1 -29.07-13.17 46.18 46.18 0 0 1 -10.8-20.8 48.78 48.78 0 0 1 -1.23-10.29c-.35-25.11 18.91-45.66 41.87-45.66h156.46z" fill="#ffb2bf"/><path d="m788.86 580.62v31.23a61.21 61.21 0 0 1 -16.55 42.38 51.29 51.29 0 0 1 -33.79 16.18h-.58c-.9 0-1.8.08-2.72.08h-103.8l2.18-.08h.58a51.19 51.19 0 0 0 33.82-16.18 61.18 61.18 0 0 0 16.57-42.38v-31.23z" fill="#35649a"/><path d="m659.9 646.85-66.3 74.9-52 58.72a34.34 34.34 0 0 1 -13.2 40.53l-56.4 42.61a22.45 22.45 0 0 1 -32.55-29.45l46.55-79.42a18.12 18.12 0 0 1 5.5-6l40.37-58.45 64-92.75a40.43 40.43 0 1 1 64 49.26z" fill="#ffb2bf"/><path d="m645.05 583.22-.87 7.83a40.44 40.44 0 0 0 -43 16.41l-33.65 48.73-30.39 44-40.37 58.45a18.25 18.25 0 0 0 -5.51 6l-46.55 79.36a22.29 22.29 0 0 0 -2.36 16.48 22.43 22.43 0 0 1 -2.89-26.35l46.54-79.39a18.12 18.12 0 0 1 5.5-6l40.37-58.45 35.5-51.42 28.55-41.33a40.42 40.42 0 0 1 49.13-14.32z" fill="#f9e0e5" opacity=".38"/><path d="m596.09 774.71a29.47 29.47 0 0 0 5.41-.26 29.15 29.15 0 0 0 24.84-25.6l9.85-87.09-68.56 9.74.58 74.31a29.16 29.16 0 0 0 27.88 28.9z" fill="#f9a0b4"/><path d="m647.41 562.35-2.36 20.87-.87 7.83-8 70.71-8.82 77.93a34.32 34.32 0 0 1 12.49 40.76l-21.68 67.27a22.45 22.45 0 0 1 -43.56-5.41l-7.53-91.73a18.23 18.23 0 0 1 1.08-8.07l-.53-71-.12-15.32-.14-17.27-.62-80.13a40.43 40.43 0 1 1 80.65 3.56z" fill="#f9a0b4"/><path d="m604.13 861.61a22.49 22.49 0 0 1 -29.51-19.3l-7.53-91.73a18.23 18.23 0 0 1 1.08-8.07l-.53-71-.88-112.72a40.43 40.43 0 0 1 42.24-40.79 38.36 38.36 0 0 1 5.3.6 40.44 40.44 0 0 0 -33.3 40.19l.88 112.72.54 71a18.23 18.23 0 0 0 -1.09 8.07l7.54 91.73a22.46 22.46 0 0 0 15.26 19.3z" fill="#ffb2bf"/><ellipse cx="742.05" cy="501.6" fill="#fffc99" rx="9.2" ry="19.14" transform="matrix(.8369554 -.5472711 .5472711 .8369554 -153.52 487.81)"/><ellipse cx="724.88" cy="501.6" fill="#fffc99" rx="19.14" ry="9.2" transform="matrix(.59510335 -.80364918 .80364918 .59510335 -109.61 785.66)"/><path d="m878.56 510.5-32.56 107.56a33.71 33.71 0 1 1 -64.53-19.53l27.51-91 3.72-12.28 1.3-4.25a33.71 33.71 0 0 1 64.53 19.52z" fill="#ffb2bf"/><ellipse cx="817.46" cy="623.5" fill="#ffb2bf" rx="35.66" ry="45.23" transform="matrix(.8369554 -.5472711 .5472711 .8369554 -207.94 548.94)"/><path d="m832.1 665.48c-15.26 3.1-33.41-5.52-44.49-22.46-8.94-13.68-11.05-29.4-6.82-41.66a26.68 26.68 0 0 1 .72-2.83l27.51-91 3.72-12.28 9.16 12.26-3.7 12.28-18.94 62.63-4.85 16c-.29.94-.54 1.87-.74 2.81-3.7 10.71-2.56 24.1 3.79 36.45a59.59 59.59 0 0 0 3 5.23c8.1 12.45 19.92 20.38 31.64 22.57z" fill="#f9a0b4"/><rect fill="#fffc99" height="10.1" rx="5.05" transform="matrix(-.95716803 -.28953301 .28953301 -.95716803 1441.86 1372.57)" width="89.49" x="777.69" y="574.6"/><rect fill="#35649a" height="10.1" rx="5.05" transform="matrix(-.96 -.29 .29 -.96 1451.68 1349.79)" width="78.55" x="786.39" y="562.49"/><g fill="#fffc99"><rect height="130.51" rx="8.39" transform="matrix(.95716803 .28953301 -.28953301 .95716803 262.23 -147.99)" width="16.78" x="623.03" y="747.25"/><rect height="70.94" rx="8.39" transform="matrix(.16797324 -.98579155 .98579155 .16797324 -320.47 1276.73)" width="16.78" x="587.72" y="792.75"/><rect height="70.94" rx="8.39" transform="matrix(-.0662739 -.99780147 .99780147 -.0662739 -96.3 1383.61)" width="16.78" x="590.78" y="701.39"/></g><g fill="#f4ee87"><rect height="130.51" rx="8.39" transform="matrix(.68556427 .72801211 -.72801211 .68556427 771.85 -105.52)" width="16.78" x="499.69" y="775.52"/><rect height="70.94" rx="8.39" transform="matrix(.63688591 -.77095806 .77095806 .63688591 -477.99 666.58)" width="16.78" x="460.31" y="805.3"/><rect height="70.94" rx="8.39" transform="matrix(.43978243 -.89810435 .89810435 .43978243 -395.77 891.74)" width="16.78" x="508.49" y="727.62"/></g><path d="m711.88 316.82a8.39 8.39 0 0 0 2.29 6c.19.2.39.38.59.56a8.37 8.37 0 0 0 5.3 2.08h.34a8.44 8.44 0 0 0 8.6-7.46c0-.23 0-.47.05-.7a1.67 1.67 0 0 0 -.44-1.17 1.64 1.64 0 0 0 -1.15-.51l-13.93-.4a1.63 1.63 0 0 0 -1.65 1.6z" fill="#962f4a"/><path d="m720.27 324.2a7 7 0 0 0 .09 1.3 8.43 8.43 0 0 0 8.64-7.5 6.7 6.7 0 0 0 -8.75 6.19z" fill="#e1617f"/><path d="m713.87 315.24c0 1.66 2.53 3.06 5.66 3.14s5.72-1.16 5.83-2.81z" fill="#fff"/></svg>