<svg viewBox="0 0 1000 1000" xmlns="http://www.w3.org/2000/svg"><path d="m954.9 584.53a137.78 137.78 0 0 1 -32.56 142.9q-4.19 4.19-8.71 8a137.22 137.22 0 0 1 -84.32 32.24c-1.42 0-2.84.06-4.27.06h-90.34a27.34 27.34 0 0 0 -27.32 27.32v64.78a37.13 37.13 0 0 1 -37.13 37.17h-382.5a37.13 37.13 0 0 1 -37.13-37.13v-27.69a64.44 64.44 0 0 0 -64.45-64.45h-16.56a132.33 132.33 0 0 1 -132.4-132.4v-10.41a137.16 137.16 0 0 1 5.72-40.39 113.22 113.22 0 0 1 13.12-28.38 119.64 119.64 0 0 1 27.34-29.58 140.76 140.76 0 0 1 14.69-10q2.86-1.72 5.75-3.28a184 184 0 0 1 34.54-14.17 43.49 43.49 0 0 0 14.26-7.34 44 44 0 0 0 17-34.76v-43.02q0-1.67.09-3.3a63 63 0 0 1 29.58-50.16 61.93 61.93 0 0 1 14.44-6.65 62.74 62.74 0 0 1 16.26-2.89c.88 0 1.77-.06 2.66-.06a48.67 48.67 0 0 0 43.77-27.48c.56-1.14 1.06-2.3 1.52-3.48a48.56 48.56 0 0 0 3.29-17.61 48.56 48.56 0 0 0 -48.59-48.59h-68a83.59 83.59 0 0 1 -63.32-138.2c.54-.63 1.09-1.25 1.65-1.85a83.33 83.33 0 0 1 61.67-27.16h599.49a64.44 64.44 0 0 1 64.44 64.43c0 50.62 35.57 94.68 85.26 104.29a83.62 83.62 0 0 1 -16 165.7h-178.84a35.26 35.26 0 0 0 -5.85.48 35.76 35.76 0 0 0 5.85 71h106a137.72 137.72 0 0 1 129.86 92z" fill="#fffaf4"/><rect fill="#a66633" height="17.61" rx="8.8" width="74.06" x="72.99" y="896.96"/><rect fill="#a66633" height="17.61" rx="8.8" width="809.94" x="154.22" y="896.96"/><path d="m559.19 498.48v21.37a6.72 6.72 0 0 1 -6.72 6.72h-469.08a140.76 140.76 0 0 1 14.69-10q2.86-1.72 5.75-3.28a184 184 0 0 1 34.54-14.17 43.49 43.49 0 0 0 14.26-7.34h399.84a6.71 6.71 0 0 1 6.72 6.7z" fill="#ea9e5a"/><path d="m139.24 500h392.44v3.28h-392.44z" fill="#a66633"/><path d="m451.42 513.28v3.28h-353.34q2.86-1.72 5.75-3.28z" fill="#a66633"/><path d="m448.85 526.57-1.1 34.8-10.64 337.13h-19.78l-10.64-337.13-1.1-34.8z" fill="#ea9e5a"/><path d="m448.85 526.57-1.1 34.8h-41.06l-1.1-34.8z" fill="#a66633"/><path d="m559.19 86.58v353.22a8 8 0 0 1 -8 7.95h-381.58v-33.75q0-1.67.09-3.3a63 63 0 0 1 29.58-50.16 61.93 61.93 0 0 1 14.44-6.65 62.74 62.74 0 0 1 16.28-2.89c.88 0 1.77-.06 2.66-.06a48.31 48.31 0 0 0 31.41-11.53l12.36-15.95c.56-1.14 1.06-2.3 1.52-3.48a48.56 48.56 0 0 0 3.29-17.61 48.56 48.56 0 0 0 -48.59-48.59h-68a83.59 83.59 0 0 1 -63.32-138.2v-1.85h1.67a83.33 83.33 0 0 1 61.67-27.16z" fill="#a66633"/><path d="m529.4 86.58v327.71.41a8 8 0 0 1 -7.94 7.7h-351.85v-8.4q0-1.67.09-3.3a63 63 0 0 1 29.58-50.16 61.93 61.93 0 0 1 14.44-6.65 62.74 62.74 0 0 1 16.28-2.89c.88 0 1.77-.06 2.66-.06a48.31 48.31 0 0 0 31.41-11.53l12.36-15.95c.56-1.14 1.06-2.3 1.52-3.48a48.56 48.56 0 0 0 3.29-17.61 48.56 48.56 0 0 0 -48.59-48.59h-68a83.58 83.58 0 0 1 -63.32-29v-111h1.67a83.33 83.33 0 0 1 61.67-27.16z" fill="#fffaeb"/><g opacity=".63"><path d="m529.4 261.31v153 .41a8 8 0 0 1 -7.94 7.54h-351.85v-8.26q0-1.67.09-3.3a63 63 0 0 1 29.58-50.16 61.93 61.93 0 0 1 14.44-6.65 62.74 62.74 0 0 1 16.28-2.89c.88 0 1.77-.06 2.66-.06a48.31 48.31 0 0 0 31.41-11.53l12.36-15.95c.56-1.14 1.06-2.3 1.52-3.48a48.56 48.56 0 0 0 3.29-17.61 48.56 48.56 0 0 0 -48.59-48.59h-68a83.58 83.58 0 0 1 -63.32-29v-111h51.29a23.62 23.62 0 0 1 23.63 23.64v40.26a17.89 17.89 0 0 0 17.89 17.9h.46a18.43 18.43 0 0 0 18.51-18.42v-11.95a12.53 12.53 0 0 1 8.57-11.93 12.41 12.41 0 0 1 4-.66h39.32a12.4 12.4 0 0 1 4 .66 12.56 12.56 0 0 1 7.46 6.75c.11.24.21.48.31.73a12.6 12.6 0 0 1 .81 4.45v100a27.13 27.13 0 0 0 .56 5.52 27.43 27.43 0 0 0 22.45 21.55 26.9 26.9 0 0 0 4.42.36 27.42 27.42 0 0 0 16.37-5.42 26.89 26.89 0 0 0 3-2.61 27.33 27.33 0 0 0 8-19.4v-19.42a9 9 0 0 1 11-8.81 8.83 8.83 0 0 1 4.4 2.44l19.66 19.58 9.94 9.94a72.27 72.27 0 0 1 21.19 51.13v53.74a10.92 10.92 0 0 0 21.83 0v-173.2a53.7 53.7 0 0 1 1.25-11.55 54.35 54.35 0 0 1 14.72-27l1.29-1.29 7.48-7.48 18.78-18.78.09-.09a10.88 10.88 0 0 1 18.58 7.69v72.4a46.81 46.81 0 0 0 46.81 46.8z" fill="#f9f2de"/><g fill="#fffdf8"><path d="m109.72 124.98h17.98v12.12h-17.98z"/><path d="m109.72 176.93h17.98v12.12h-17.98z"/><path d="m127.7 228.88v12.12h-7.47a83.69 83.69 0 0 1 -10.51-7.81v-4.31z"/><path d="m143.08 150.95h17.98v12.12h-17.98z"/><path d="m143.08 202.9h17.98v12.12h-17.98z"/><path d="m143.08 228.88h17.98v12.12h-17.98z"/><path d="m340.8 311.18h17.98v12.12h-17.98z"/><path d="m340.8 363.13h17.98v12.12h-17.98z"/><path d="m340.8 389.1h17.98v12.12h-17.98z"/><path d="m371.12 337.15h17.98v12.12h-17.98z"/><path d="m371.12 363.13h17.98v12.12h-17.98z"/><path d="m491.42 285.2h29.37v12.12h-29.37z"/><path d="m491.42 337.15h29.37v12.12h-29.37z"/><path d="m491.42 389.1h29.37v12.12h-29.37z"/><path d="m187.81 202.9h11.47v12.12h-11.47z"/><path d="m199.28 360.53v10.35h-11.47v-1.18a62.33 62.33 0 0 1 11.47-9.17z"/><path d="m225.39 164.75h41.15v12.12h-41.15z"/><path d="m225.39 190.73h41.15v12.12h-41.15z"/><path d="m266.55 242.68v12.12h-24a48.69 48.69 0 0 0 -9.88-1h-7.25v-11.12z"/><path d="m225.39 372.55h41.15v12.12h-41.15z"/><path d="m430.5 186.04h41.15v12.12h-41.15z"/><path d="m430.5 263.96h41.15v12.12h-41.15z"/><path d="m430.5 315.91h41.15v12.12h-41.15z"/><path d="m430.5 367.86h41.15v12.12h-41.15z"/><path d="m283.36 335.83h39.56v12.12h-39.56z"/></g></g><g fill="#fff"><path d="m213.72 353.88-44 56.81a63 63 0 0 1 29.58-50.16 61.93 61.93 0 0 1 14.42-6.65z" opacity=".42"/><path d="m420.82 86.58-51.68 66.7-5.79 7.48-42 54.17-12 15.48-31.24 40.33-4.41 5.69a48.56 48.56 0 0 0 -41.09-22.64h-28.8l39.47-50.94 9.39-12.12 10.74-13.86 3.14-4.05 9.34-12.06.57-.73 5.23-6.75 27.69-35.74 12-15.48 12-15.48z" opacity=".42"/><path d="m501.05 86.58-37.13 47.92-14.55 18.78-5.8 7.48-21.92 28.3-54.21 69.96-46.06 59.44-12 15.48-1.46 1.89-9.39 12.12-57.57 74.29-.12.16h-41.06l.12-.16 29.11-37.57 9.39-12.12 25.65-33.1 12.36-15.95.01-.02 24.17-31.19 8.79-11.34 12-15.49 11.07-14.29 11-14.19 59.05-76.22 5.8-7.48 51.68-66.7z" opacity=".42"/></g><path d="m309.38 86.58h12v355.39h-12z" fill="#a66633"/><path d="m94.61 153.28h441.29v7.48h-441.29z" fill="#a66633"/><g fill="#8c684e"><ellipse cx="680.38" cy="413" rx="106.76" ry="89.49" transform="matrix(.95960912 -.28133671 .28133671 .95960912 -88.71 208.11)"/><ellipse cx="674.73" cy="332.85" rx="81.55" ry="68.36" transform="matrix(.95960912 -.28133671 .28133671 .95960912 -66.39 203.28)"/><ellipse cx="680.38" cy="413" rx="106.76" ry="89.49" transform="matrix(.95960912 -.28133671 .28133671 .95960912 -88.71 208.11)"/><ellipse cx="674.73" cy="332.85" rx="81.55" ry="68.36" transform="matrix(.95960912 -.28133671 .28133671 .95960912 -66.39 203.28)"/></g><path d="m747.92 477.05c23.17-23.49 33.7-55.18 24.92-85.1a77.91 77.91 0 0 0 -24.35-37.3c-1.65-1.43-3.35-2.79-5.12-4.09a60.57 60.57 0 0 0 2-14.26 57.87 57.87 0 0 0 -2.37-17.42c-10.62-36.23-54.26-55.32-97.48-42.64a94.51 94.51 0 0 0 -31.13 15.76 92.41 92.41 0 0 1 41.11-24.7c43.21-12.68 86.87 6.42 97.49 42.64a59.25 59.25 0 0 1 .37 31.67c14 10.36 24.49 24.45 29.47 41.39 9.95 33.89-4.92 70.11-34.91 94.05z" fill="#59442a"/><ellipse cx="668.54" cy="278.81" fill="#8c684e" rx="63.39" ry="53.14" transform="matrix(.95960912 -.28133671 .28133671 .95960912 -51.44 199.36)"/><rect fill="#ea9e5a" height="30.76" rx="15.38" width="210.71" x="527.09" y="612.59"/><path d="m570.73 794.63h133.53v14.15h-133.53z" fill="#a66633"/><path d="m711.76 643.35-.72 26.98-9.17 228.46h-14.19l-9.16-228.46-.71-26.98z" fill="#ea9e5a"/><path d="m587.7 643.35-.71 26.98-9.16 228.46h-14.19l-9.16-228.46-.72-26.98z" fill="#ea9e5a"/><path d="m587.7 643.35-.71 26.98h-32.51l-.72-26.98z" fill="#a66633"/><path d="m711.76 643.35h-33.95l.71 26.98h32.52z" fill="#a66633"/><path d="m608.16 444.14h90.62v120.11h-90.62z" fill="#a2c845" transform="matrix(.99999925 .00122173 -.00122173 .99999925 .65 -.84)"/><path d="m639.72 423.73c.16.25.33.49.5.73-2.56.05-5.08 0-7.56-.13 2.34-.12 4.69-.33 7.06-.6z" fill="#fdfae4"/><path d="m656.85 385.52a29.08 29.08 0 0 1 -10.33 22.28l-32.62 27.61-23.9 20.23-36.06 30.53a29.16 29.16 0 1 1 -37.68-44.52l92.6-78.37a29.16 29.16 0 0 1 48 22.24z" fill="#ffb2bf"/><path d="m613.9 435.41-23.9 20.23a33.07 33.07 0 0 1 -8.33-22v-2.49a68.76 68.76 0 0 1 20.16-48.65c1.28-1.28 2.59-2.5 4-3.66a80.93 80.93 0 0 0 4.62 49.35c1.02 2.5 2.19 4.9 3.45 7.22z" fill="#f9a0b4"/><path d="m656.85 385.53a26.17 26.17 0 0 1 -.21 3.42 29.17 29.17 0 0 0 -47.79-18.74l-92.6 78.38a29 29 0 0 0 -10.12 18.85 29.18 29.18 0 0 1 10.12-25.79l92.6-78.37a29.16 29.16 0 0 1 48 22.25z" fill="#f9e0e5"/><path d="m699.16 435.62v67.17a45.49 45.49 0 0 1 -45.49 45.49 45.5 45.5 0 0 1 -45.5-45.49v-67.17z" fill="#a2c845"/><path d="m699.17 435.62v67.16a45.5 45.5 0 1 1 -91 0v-67.16z" fill="#a2c845"/><path d="m699.17 435.62v24.6a184.56 184.56 0 0 1 -91 26.89v-51.49z" fill="#839e31"/><path d="m649.94 366.7a28.88 28.88 0 0 0 -3.84-3.7 29.15 29.15 0 0 1 -3.72 40.69l-92.6 78.31a29.15 29.15 0 0 1 -37.25.33c.1.13.19.27.3.4a29.17 29.17 0 0 0 41.1 3.42l92.6-78.38a29.16 29.16 0 0 0 3.41-41.07z" fill="#f9a0b4"/><rect fill="#ffb2bf" height="167.12" rx="29.16" transform="matrix(-.98450318 .17536673 -.17536673 -.98450318 1114.55 721.42)" width="58.32" x="496.24" y="326.4"/><rect fill="#f9e0e5" height="55.61" opacity=".38" rx="5.98" transform="matrix(-.98450318 .17536673 -.17536673 -.98450318 1104.35 731.18)" width="11.96" x="513.88" y="386.59"/><g fill="#ffb2bf"><rect height="155.53" rx="29.16" transform="matrix(-.80062681 .59916334 -.59916334 -.80062681 1550.46 337.21)" width="58.32" x="689.97" y="348.77"/><rect height="155.53" rx="29.16" transform="matrix(-.95716803 -.28953301 .28953301 -.95716803 1288.64 1213.59)" width="58.32" x="704.91" y="433.73"/><ellipse cx="723.19" cy="571.18" rx="30.85" ry="39.13" transform="matrix(.8369554 -.5472711 .5472711 .8369554 -194.67 488.83)"/></g><path d="m708.52 588.06c-1-1.49-1.85-3-2.63-4.52-5.49-10.69-6.48-22.27-3.28-31.54q.25-1.21.63-2.43l4.2-13.88 16.39-54.19 3.2-10.63-7.92-10.61-41.29-55.17a29.18 29.18 0 0 1 2.52-37.89 16.58 16.58 0 0 0 4.48-8l.07-.29a29.18 29.18 0 0 0 -18.23 46.19l49.23 65.8-23.81 78.68a22.08 22.08 0 0 0 -.61 2.46c-3.67 10.59-1.84 24.21 5.89 36 9.6 14.67 25.29 22.11 38.5 19.44-10.14-1.89-20.37-8.74-27.34-19.42z" fill="#f9a0b4"/><rect fill="#ea9e5a" height="8.74" rx="4.37" transform="matrix(-.95716803 -.28953301 .28953301 -.95716803 1269.48 1254.25)" width="77.42" x="688.78" y="528.88"/><rect fill="#9b7d63" height="8.74" rx="4.37" transform="matrix(-.95716803 -.28953301 .28953301 -.95716803 1277.97 1234.55)" width="67.95" x="696.31" y="518.4"/><path d="m540.28 492.17-.23.05c-.79.14-1.56.24-2.34.32a29.18 29.18 0 0 1 -31.49-23.9l-19.07-107.12a29.16 29.16 0 0 1 28.49-34.27 29.16 29.16 0 0 0 -23.37 33.75l19.08 107.11a29.16 29.16 0 0 0 28.93 24.06z" fill="#f9e0e5"/><path d="m586.14 424.05v2.49a33.22 33.22 0 0 0 33.21 33.2h71.24a33.2 33.2 0 0 0 33.19-33.2v-2.49a68.46 68.46 0 0 0 -12.36-39.35 66.42 66.42 0 0 0 -4.42-5.7 2.38 2.38 0 0 0 -.26-.31q-1.5-1.7-3.11-3.32a68.84 68.84 0 0 0 -105.12 9.28c-.36.53-.73 1.07-1.08 1.6a68.43 68.43 0 0 0 -11.29 37.8z" fill="#a2c845"/><path d="m586.14 424.06v2.49a33.12 33.12 0 0 0 33 33.2h29.73a81.5 81.5 0 0 1 -38.74-88c-1.37 1.16-2.68 2.38-3.95 3.66a67.82 67.82 0 0 0 -7.76 9.31 68.77 68.77 0 0 0 -12.28 39.34z" fill="#badb52"/><ellipse cx="521.38" cy="349.9" fill="#ffb2bf" rx="30.85" ry="39.13" transform="matrix(.59510335 -.80364918 .80364918 .59510335 -70.08 560.69)"/><path d="m553.57 341.13a48.42 48.42 0 0 0 -10-9.88c-17.37-12.86-39.66-12.19-49.81 1.51-6.58 8.89-6.42 21.08-.73 32.05-9.24-12.32-11-27.6-3.13-38.2 10.15-13.69 32.44-14.37 49.81-1.51a46.72 46.72 0 0 1 13.86 16.03z" fill="#f9e0e5"/><path d="m598.51 384.68a79 79 0 0 0 52.33 24.22c1.61.1 3.24.16 4.88.16 1 0 2 0 3-.07a79.06 79.06 0 0 0 53.28-23.3 70.55 70.55 0 0 0 -5-6.66 2.38 2.38 0 0 0 -.26-.31q-1.5-1.7-3.11-3.32a68.84 68.84 0 0 0 -105.12 9.28z" fill="#ffb2bf"/><path d="m650.84 408.89c1.6.11 3.23.16 4.88.16 1 0 2 0 3-.06l-.89-5a3 3 0 0 0 -6-.06z" fill="#f9a0b4"/><ellipse cx="662.75" cy="284" fill="#8c684e" rx="56.87" ry="64.8"/><path d="m681.13 305.25-3.13 36.88-2.2 25.75a14.55 14.55 0 0 1 -15.72 13.24l-2-.17a14.54 14.54 0 0 1 -13.25-15.72l1.45-16.9 3.92-45.74a14.54 14.54 0 0 1 15.74-13.25l2 .18a14.51 14.51 0 0 1 13.19 15.73z" fill="#ffb2bf"/><path d="m681.13 305.25-3.13 36.88a51.77 51.77 0 0 1 -26.08 6.66 41.35 41.35 0 0 1 -5.61-.46l3.92-45.74a14.54 14.54 0 0 1 15.74-13.25l2 .18a14.51 14.51 0 0 1 13.16 15.73z" fill="#f9a0b4"/><path d="m666.35 220h1.65a36.61 36.61 0 0 1 36.61 36.61v33.84a52.08 52.08 0 0 1 -52.08 52.08 40.18 40.18 0 0 1 -40.18-40.18v-28.35a53.95 53.95 0 0 1 54-54z" fill="#ffb2bf" transform="matrix(.99993762 .01116987 -.01116987 .99993762 3.19 -7.36)"/><path d="m612.16 301.87a40.18 40.18 0 0 0 39.73 40.62c1.47 0 2.92 0 4.35-.13a40.17 40.17 0 0 1 -37-40.49l.33-28.41a53.94 53.94 0 0 1 50.88-53.27c-.56 0-1.11-.05-1.67-.05h-1.7a53.93 53.93 0 0 0 -54.54 53.34z" fill="#f9e0e5"/><ellipse cx="658.69" cy="245.23" fill="#8c684e" rx="36.69" ry="58.36" transform="matrix(.10938735 -.9939992 .9939992 .10938735 342.91 873.16)"/><ellipse cx="658.69" cy="245.23" fill="#8c684e" rx="36.69" ry="58.36" transform="matrix(.10938735 -.9939992 .9939992 .10938735 342.91 873.16)"/><path d="m705.52 226.49c-9.45-6.27-21.92-10.78-35.87-12.31-32-3.52-59.81 9.95-62 30.1-1 9 3.28 17.79 11.16 25.09-12.21-8.1-19.36-19.16-18.1-30.52 2.21-20.14 30-33.61 62-30.09 17.71 1.95 33.03 8.69 42.81 17.73z" fill="#aa7c62"/><ellipse cx="644.78" cy="240.88" fill="#aa7c62" rx="27.18" ry="17.09" transform="matrix(.99994876 -.01012274 .01012274 .99994876 -2.42 6.57)"/><ellipse cx="700.56" cy="284" fill="#8c684e" rx="20.25" ry="19.81"/><circle cx="703.2" cy="292.51" fill="#ffb2bf" r="16.41"/><circle cx="629.21" cy="291.05" fill="#59442a" r="3.37"/><circle cx="656.85" cy="292.51" fill="#59442a" r="3.37"/><path d="m708 293.94a6.55 6.55 0 0 1 -4.15 5.93 1.87 1.87 0 0 1 -2.49-1.84l.21-8.51a1.9 1.9 0 0 1 2.75-1.64 6.54 6.54 0 0 1 3.68 6.06z" fill="#f9a0b4"/><path d="m506.44 611.86h98a50.76 50.76 0 0 0 50.75-50.76v-12.38a14.65 14.65 0 0 0 -14.65-14.65h-134.1a38.9 38.9 0 0 0 -38.9 38.9 38.9 38.9 0 0 0 38.9 38.89z" fill="#59442a"/><path d="m394.34 720.52a25.52 25.52 0 0 0 4 2.39 25.22 25.22 0 0 0 30.13-6.65l48.6-58.21-54.07-25.62-35 53.94a25.23 25.23 0 0 0 6.34 34.15z" fill="#f9a0b4"/><path d="m423 632.43 54.15 25.62 55.46-66.44a35 35 0 1 0 -56.55-41z" fill="#59442a"/><path d="m351 783a19.42 19.42 0 0 1 -4.39-23.9l38.25-69.84a15.9 15.9 0 0 1 24.4-4.48l16.21 14a29.67 29.67 0 0 1 -2.29 46.69l-47.69 38.26a19.43 19.43 0 0 1 -24.49-.73z" fill="#f9a0b4"/><path d="m394.34 720.52a25.52 25.52 0 0 0 4 2.39 25.22 25.22 0 0 0 30.13-6.65l48.6-58.21-54.07-25.62-35 53.94a25.23 25.23 0 0 0 6.34 34.15z" fill="#f9a0b4"/><path d="m472.83 672-54.93-36.09 5.24-20.55 66.47 43.68z" fill="#362714"/><path d="m698.44 561.1a53 53 0 0 1 -14.31 36.66 44.36 44.36 0 0 1 -29.23 14h-.5c-.79.05-1.57.07-2.36.07h-89.62a34 34 0 0 1 -25.14-11.39 39.77 39.77 0 0 1 -9.34-18 41.92 41.92 0 0 1 -1.07-8.9c-.31-21.73 16.35-39.51 36.22-39.51h135.35z" fill="#9b7d63"/><path d="m613.93 749.9a25.22 25.22 0 0 0 17.26-29.8l-17-73.9-53.14 27.65 21.81 60.47a25.24 25.24 0 0 0 31.07 15.58z" fill="#ffb2bf"/><path d="m561.07 673.85 53.14-27.65-19.4-84.35a35 35 0 1 0 -66.81 20.27z" fill="#9b7d63"/><path d="m561.07 673.84 9.8-5.1-33.08-91.74a35 35 0 0 1 12-40 35 35 0 0 0 -21.79 45.12z" fill="#c9a788"/><path d="m637.54 822.17a19.41 19.41 0 0 1 -21.7-10.95l-32.5-72.69a15.89 15.89 0 0 1 11.17-22.14l21-4.44a29.68 29.68 0 0 1 35.81 30l1.63 61.12a19.41 19.41 0 0 1 -15.41 19.1z" fill="#ffb2bf"/><path d="m637.54 822.17a19.26 19.26 0 0 0 9-4.57l-.36.1a19.42 19.42 0 0 1 -21.69-11l-25.46-57-7.03-15.7a15.74 15.74 0 0 1 -1.44-6.92l-2.72-7.54-18.12-50.21-8.6 4.47 20.84 57.78a15.71 15.71 0 0 0 1.42 6.9l32.51 72.7a19.42 19.42 0 0 0 21.65 10.99z" fill="#f9e0e5" opacity=".38"/><path d="m547.57 663.39 13.2 16.6 12.01-4.25 49.96-17.7-.18-21.2-56.04 19.84z" fill="#59442a"/><path d="m633.58 305.38a8.4 8.4 0 0 0 2.3 6c.19.2.38.38.58.56a8.37 8.37 0 0 0 5.31 2.08h.34a8.44 8.44 0 0 0 8.62-7.49c0-.23 0-.47 0-.7a1.64 1.64 0 0 0 -1.59-1.68l-13.93-.4a1.65 1.65 0 0 0 -1.63 1.63z" fill="#962f4a"/><path d="m642 312.76a5.62 5.62 0 0 0 .09 1.3 8.43 8.43 0 0 0 8.61-7.49 6.3 6.3 0 0 0 -1.85-.32 6.69 6.69 0 0 0 -6.85 6.51z" fill="#e1617f"/><path d="m635.57 303.8c0 1.66 2.53 3.05 5.66 3.14s5.72-1.16 5.84-2.81z" fill="#fff"/><path d="m488.91 438h15a14 14 0 0 1 14 14v35.17a4.68 4.68 0 0 1 -4.68 4.68h-33.6a4.68 4.68 0 0 1 -4.68-4.68v-35.25a14 14 0 0 1 13.96-13.92z" fill="#626594" transform="matrix(-1 0 0 -1 992.85 929.73)"/><path d="m517.9 442.64v35.17a14 14 0 0 1 -14 14h-15a14 14 0 0 1 -13.53-10.52 26.58 26.58 0 0 0 26.63-26.61v-16.68h11.28a4.68 4.68 0 0 1 4.62 4.64z" fill="#5a5a7f"/><path d="m515.09 447.83v5.07a9 9 0 1 1 0 18v5.1a14.08 14.08 0 1 0 0-28.16z" fill="#5a5a7f"/><g fill="#fff"><path d="m357.86 491.77h-12.29l-37.77-118.34h7.05a7.18 7.18 0 0 1 6.84 5z"/><path d="m356.09 477.62h6.1a3.72 3.72 0 0 1 3.72 3.72v3.05a0 0 0 0 1 0 0h-13.54a0 0 0 0 1 0 0v-3.05a3.72 3.72 0 0 1 3.72-3.72z"/><path d="m369.63 477.62h6.1a3.72 3.72 0 0 1 3.72 3.72v3.05a0 0 0 0 1 0 0h-13.54a0 0 0 0 1 0 0v-3.05a3.72 3.72 0 0 1 3.72-3.72z"/><path d="m383.17 477.62h6.1a3.72 3.72 0 0 1 3.72 3.72v3.05a0 0 0 0 1 0 0h-13.54a0 0 0 0 1 0 0v-3.05a3.72 3.72 0 0 1 3.72-3.72z"/><path d="m396.71 477.62h6.1a3.72 3.72 0 0 1 3.72 3.72v3.05a0 0 0 0 1 0 0h-13.53a0 0 0 0 1 0 0v-3.05a3.72 3.72 0 0 1 3.72-3.72z"/><path d="m410.25 477.62h6.1a3.72 3.72 0 0 1 3.72 3.72v3.05a0 0 0 0 1 0 0h-13.53a0 0 0 0 1 0 0v-3.05a3.72 3.72 0 0 1 3.72-3.72z"/><path d="m423.8 477.62h6.1a3.72 3.72 0 0 1 3.72 3.72v3.05a0 0 0 0 1 0 0h-13.54a0 0 0 0 1 0 0v-3.05a3.72 3.72 0 0 1 3.72-3.72z"/><path d="m437.34 477.62h6.1a3.72 3.72 0 0 1 3.72 3.72v3.05a0 0 0 0 1 0 0h-13.54a0 0 0 0 1 0 0v-3.05a3.72 3.72 0 0 1 3.72-3.72z"/><path d="m450.88 477.62h6.12a3.72 3.72 0 0 1 3.72 3.72v3.05a0 0 0 0 1 0 0h-13.56a0 0 0 0 1 0 0v-3.05a3.72 3.72 0 0 1 3.72-3.72z"/></g><path d="m467.9 480.29h-115.56a2.61 2.61 0 0 1 -2.49-1.83l-34.07-108.46a5.86 5.86 0 1 0 -11.19 3.51l36.29 115.57a3.88 3.88 0 0 0 3.7 2.72h123.56a5.75 5.75 0 0 0 5.72-6.31 5.91 5.91 0 0 0 -5.96-5.2z" fill="#59442a"/></svg>