<svg viewBox="0 0 1000 1000" xmlns="http://www.w3.org/2000/svg"><path d="m985.91 475.75a110.09 110.09 0 0 1 -8.9 43.44q-1.56 3.64-3.38 7.14a110.19 110.19 0 0 1 -79 58q-2.76.48-5.57.82a109.21 109.21 0 0 1 -13.37.81h-89.79a19.48 19.48 0 1 0 0 39h26.83a66.66 66.66 0 0 1 21.76 3.61c2.06.7 4.06 1.5 6 2.39a67 67 0 0 1 19.69 13.67c.24.24.48.48.7.72.71.72 1.4 1.46 2.05 2.21 1.3 1.44 2.51 2.94 3.67 4.49a66.54 66.54 0 0 1 9.89 19c.25.73.47 1.46.69 2.2a67.13 67.13 0 0 1 2.69 18.75c0 1.58 0 3.15-.17 4.7 0 .74-.11 1.48-.19 2.21a66.19 66.19 0 0 1 -6.31 22.3c-.2.41-.4.82-.61 1.22-.38.75-.77 1.48-1.18 2.21a67.38 67.38 0 0 1 -21.88 23.52c-1.17.77-2.36 1.51-3.58 2.2a66.74 66.74 0 0 1 -33.22 8.79 54.69 54.69 0 0 0 -37.43 14.75c-.47.43-.93.88-1.38 1.33l-.85.87a54.78 54.78 0 0 0 -13.31 23.52c-.2.73-.38 1.47-.55 2.21a55.19 55.19 0 0 0 -1.36 12.17v49.41h-520.34v-76.72a27.45 27.45 0 0 0 -2.11-10.59c-.32-.75-.66-1.49-1-2.2a27.54 27.54 0 0 0 -24.4-14.74 66.6 66.6 0 0 1 -33.21-8.79c-1.22-.69-2.42-1.42-3.59-2.2a67.24 67.24 0 0 1 -10.39-8.4l-.29-.28a67.3 67.3 0 0 1 -11.2-14.84c-.41-.73-.8-1.46-1.18-2.21a66.54 66.54 0 0 1 -6.93-23.52c-.07-.74-.14-1.47-.18-2.21-.12-1.55-.17-3.12-.17-4.7a67.19 67.19 0 0 1 2.67-18.82c.21-.74.44-1.47.68-2.2a68 68 0 0 1 5-11.45 66.44 66.44 0 0 1 8.56-12.07c.65-.75 1.33-1.49 2.05-2.21.28-.31.58-.61.88-.91a67 67 0 0 1 47.3-19.48h69.24a19.46 19.46 0 0 0 19.47-19.67c-.11-10.76-9.21-19.28-20-19.28h-148.12a110.18 110.18 0 0 1 -110.17-109.31c-.47-61.06 50.41-111 111.47-111h121a18 18 0 0 0 18-18.14c-.07-10-8.5-17.9-18.48-17.9h-42.41a67.14 67.14 0 0 1 -57.8-33 65.31 65.31 0 0 1 -3.61-7 67.17 67.17 0 0 1 10.68-71.14c.49-.57 1-1.14 1.52-1.69a66.94 66.94 0 0 1 49.21-21.49h210.41a37 37 0 0 0 14.19-2.85 36.51 36.51 0 0 0 8.49-5.05 35.82 35.82 0 0 0 6.94-7.24 36.31 36.31 0 0 0 6.97-21.11 37.22 37.22 0 0 1 22.43-34 36 36 0 0 1 14.05-2.83h254.92a35.92 35.92 0 0 1 10.32 1.49 33.4 33.4 0 0 1 3.79 1.34 36.66 36.66 0 0 1 18.54 17.26 36.72 36.72 0 0 1 3.95 16.43v7.24a29.14 29.14 0 0 0 3.3 13.51 28.75 28.75 0 0 0 3.61 5.38c.53.64 1.09 1.25 1.68 1.84a29.21 29.21 0 0 0 13.93 7.79 28.1 28.1 0 0 0 5 .74q.9.06 1.83.06a67.34 67.34 0 0 1 27.16 5.75 65.17 65.17 0 0 1 8.49 4.54 67.16 67.16 0 0 1 20.58 20.27 66.31 66.31 0 0 1 7.35 15.2l.06.16a66 66 0 0 1 2.89 12.68 67.11 67.11 0 0 1 -66.6 75.69h-52.93a18 18 0 0 0 -3.65 35.67 18.29 18.29 0 0 0 3.65.37h114.39a110 110 0 0 1 55.5 15 110.69 110.69 0 0 1 47.25 55.34v.09a110.06 110.06 0 0 1 7.42 39.74z" fill="#fffaf4"/><g fill="#faf4ea"><path d="m863 647.47h-703.24c.65-.75 1.33-1.49 2.05-2.21h699.09c.71.74 1.4 1.46 2.1 2.21z"/><path d="m877.2 673.19h-731.69c.21-.74.44-1.47.68-2.2h730.32c.25.73.49 1.46.69 2.2z"/><path d="m879.7 696.71c0 .74-.11 1.48-.19 2.21h-736.32c-.07-.74-.14-1.47-.18-2.21z"/><path d="m872.59 722.44c-.38.75-.77 1.48-1.18 2.21h-720.11c-.41-.73-.8-1.46-1.18-2.21z"/><path d="m849.53 748.17c-1.17.77-2.36 1.51-3.58 2.2h-669.18c-1.22-.69-2.42-1.42-3.59-2.2z"/><path d="m775.3 773.9c-.47.43-.93.88-1.38 1.33l-.85.87h-537.67c-.32-.75-.66-1.49-1-2.2z"/><path d="m759.76 799.62c-.2.73-.38 1.47-.55 2.21h-521.7v-2.21z"/><path d="m237.51 825.35h520.34v2.21h-520.34z"/></g><rect fill="#f2ead7" height="17.61" rx="8.8" width="809.94" x="98.2" y="845.84"/><path d="m878 241.17a66 66 0 0 1 2.89 12.68 63.36 63.36 0 0 0 -3-12.68h-454.26a17.28 17.28 0 0 0 .66-4.74v-41.43a36 36 0 0 0 10.31-2.64 36.51 36.51 0 0 0 8.49-5.05 35.82 35.82 0 0 0 6.94-7.24 36.31 36.31 0 0 0 6.97-21.07 37.22 37.22 0 0 1 22.43-34 36 36 0 0 1 14.05-2.83h254.92a36.23 36.23 0 0 1 14.11 2.83 36.66 36.66 0 0 1 18.54 17.26 36.72 36.72 0 0 1 3.95 16.43v7.24a29.13 29.13 0 0 0 6.91 18.89c.53.64 1.09 1.25 1.68 1.84a29.21 29.21 0 0 0 13.93 7.79 28.1 28.1 0 0 0 5 .74q.9.06 1.83.06a67.34 67.34 0 0 1 27.16 5.75 65.17 65.17 0 0 1 8.49 4.54 67.27 67.27 0 0 1 28 35.63z" fill="#f9f2de"/><path d="m985.91 475.75a110.13 110.13 0 0 1 -110.17 110.17h-89.84a19.48 19.48 0 1 0 0 39h-506.68a19.46 19.46 0 0 0 19.47-19.67c-.11-10.76-9.21-19.28-20-19.28h-102.69v-220.39h76.82a18 18 0 0 0 18-18.14c-.07-10-8.5-17.9-18.48-17.9h-42.34a67 67 0 0 1 -20.3-3.13h118.36a20.63 20.63 0 0 0 8.31-1.87 20.92 20.92 0 0 0 12.28-19.07 51.62 51.62 0 0 1 51.61-51.61h500.62a67.11 67.11 0 0 1 -66.6 75.69h-52.93a18 18 0 0 0 0 36h114.39a110 110 0 0 1 55.5 15 110 110 0 0 1 54.67 95.19z" fill="#f9f2de"/><path d="m406.59 430.76v194.11h-127.37a19.46 19.46 0 0 0 19.47-19.67c-.11-10.76-9.21-19.28-20-19.28h-102.69v-155.16z" fill="#fff5dc"/><path d="m406.59 430.76v194.11h-6.24v-188.53h-224.32v-5.58z" fill="#f2ead7"/><g fill="#fffdf8"><path d="m176.03 481.74h230.56v2.26h-230.56z"/><path d="m222.92 526.69h194.11v2.26h-194.11z" transform="matrix(0 1 -1 0 847.79 207.85)"/><path d="m229.15 430.76h2.26v155.16h-2.26z"/></g><path d="m946.06 390.94h-770.06v-10.38h755.24a110.91 110.91 0 0 1 14.82 10.38z" fill="#f2ead7"/><path d="m908.13 370.43v10.13h-453.3a78.71 78.71 0 0 1 78.7-78.7h335.07a67 67 0 0 1 -54.32 27.68h-52.93a18 18 0 0 0 0 36h114.39a110.47 110.47 0 0 1 32.39 4.85z" fill="#fff6de"/><g fill="#f2ead7"><path d="m880.88 253.85h-474a17.41 17.41 0 0 0 16.76-12.68h454.21a63.36 63.36 0 0 1 3.03 12.68z"/><path d="m443.09 187.35v53.82h-8.49v-48.77a36.51 36.51 0 0 0 8.49-5.05z"/><path d="m463.66 151.82h8.49v89.35h-8.49z"/><path d="m492.73 151.82h8.49v89.35h-8.49z"/><path d="m521.79 151.82h8.49v89.35h-8.49z"/><path d="m550.86 151.82h8.49v89.35h-8.49z"/><path d="m579.92 151.82h8.49v89.35h-8.49z"/><path d="m608.99 151.82h8.49v89.35h-8.49z"/><path d="m638.05 151.82h8.49v89.35h-8.49z"/><path d="m667.12 151.82h8.49v89.35h-8.49z"/><path d="m696.18 151.82h8.49v89.35h-8.49z"/><path d="m725.25 151.82h8.49v89.35h-8.49z"/><path d="m754.31 151.82h8.49v89.35h-8.49z"/><path d="m791.87 184.82v56.35h-8.49v-89.35h.93a36.13 36.13 0 0 1 .65 6.87v7.24a29.13 29.13 0 0 0 6.91 18.89z"/><path d="m820.94 195.58v45.59h-8.49v-46q.9.06 1.83.06a66.59 66.59 0 0 1 6.66.35z"/><path d="m850 205.54v35.63h-8.49v-40.17a65.17 65.17 0 0 1 8.49 4.54z"/><path d="m878 241.17h-7.41v-15.36a66.63 66.63 0 0 1 7.41 15.36z"/><path d="m316.37 195.25v129.28a20.63 20.63 0 0 1 -8.31 1.87h-1.24v-131.15z"/><path d="m272.19 299v27.4h-10.19v-24.29a5.55 5.55 0 0 0 -5.55-5.55h-104.27a65.31 65.31 0 0 1 -3.61-7h114.17a9.45 9.45 0 0 1 9.45 9.44z"/></g><path d="m985.91 475.75v2.24.39a3.65 3.65 0 0 1 0 .47v.15c0 .71 0 1.41-.08 2.11v.12c0 .37 0 .74-.06 1.11s-.05.9-.09 1.35 0 .71-.07 1.06a.28.28 0 0 0 0 .09c0 .54-.09 1.08-.14 1.62v.32c0 .25 0 .5-.08.75-.07.64-.15 1.29-.23 1.93s-.14 1.14-.22 1.7v.22a109.25 109.25 0 0 1 -7.8 27.84q-1.56 3.64-3.38 7.14a110.19 110.19 0 0 1 -79 58q-2.76.48-5.57.82a109.21 109.21 0 0 1 -13.37.81h-84.6c-4.07-1.09-8.1-2.29-12.07-3.63a207.51 207.51 0 0 1 -30.39-12.87 211 211 0 0 1 -113.76-187.21 210.8 210.8 0 0 1 153.26-202.84 28.75 28.75 0 0 0 3.61 5.38c.53.64 1.09 1.25 1.68 1.84a29.21 29.21 0 0 0 13.93 7.79 28.1 28.1 0 0 0 5 .74q.9.06 1.83.06a67.34 67.34 0 0 1 27.2 5.75 65.17 65.17 0 0 1 8.49 4.54 67.16 67.16 0 0 1 20.58 20.27 66.31 66.31 0 0 1 7.35 15.2l.06.16a66 66 0 0 1 2.89 12.68 67.11 67.11 0 0 1 -66.6 75.69h-52.93a18 18 0 0 0 -3.65 35.67 18.29 18.29 0 0 0 3.65.37h114.39a110 110 0 0 1 55.5 15 110.69 110.69 0 0 1 47.25 55.34v.09a110.06 110.06 0 0 1 7.42 39.74z" fill="#f0efed"/><path d="m985.91 475.75v2.63a3.65 3.65 0 0 1 0 .47c0 .79 0 1.57-.09 2.35 0 1.21-.13 2.41-.23 3.61 0 .54-.09 1.08-.14 1.62 0 .36-.07.72-.11 1.07-.14 1.29-.3 2.58-.48 3.85a109.25 109.25 0 0 1 -7.8 27.84q-1.56 3.64-3.38 7.14a110.19 110.19 0 0 1 -79 58q-2.76.48-5.57.82a109.21 109.21 0 0 1 -13.37.81h-84.6c-4.07-1.09-8.1-2.29-12.07-3.63a207.51 207.51 0 0 1 -30.39-12.87 211.3 211.3 0 0 1 -46.93-33.21 208 208 0 0 1 -13.95-137.25c21.12-87.32 97.55-153 190.13-157.95l.06.16a66 66 0 0 1 2.89 12.68 67.11 67.11 0 0 1 -66.6 75.69h-52.93a18 18 0 0 0 -3.65 35.67 18.29 18.29 0 0 0 3.65.37h114.39a110 110 0 0 1 55.5 15 110.69 110.69 0 0 1 47.25 55.34v.09a110.06 110.06 0 0 1 7.42 39.7z" fill="#e2e1de"/><g fill="#adadad"><path d="m814.28 329.54h-1.89a165.45 165.45 0 0 1 37.21-10.05 66.89 66.89 0 0 1 -35.32 10.05z"/><path d="m985.91 475.75a109.71 109.71 0 0 1 -8.9 43.44q-1.56 3.64-3.38 7.14a110.19 110.19 0 0 1 -79 58q-2.76.48-5.57.82a109.21 109.21 0 0 1 -13.37.81h-84.6c-4.07-1.09-8.1-2.29-12.07-3.63a207.51 207.51 0 0 1 -30.39-12.87 210.27 210.27 0 0 1 -22.5-13.54c-1.27-.87-2.54-1.77-3.79-2.67-.37-.81-.73-1.62-1.08-2.44q-2.34-5.35-4.3-10.91c-.81-2.31-1.58-4.65-2.29-7a166.48 166.48 0 0 1 -7.16-48.47c0-1.83 0-3.65.1-5.47.1-3.46.32-6.9.64-10.3a164.84 164.84 0 0 1 2.75-18.22q1.25-6 2.93-11.94a166.65 166.65 0 0 1 43.75-73.29 18.29 18.29 0 0 0 3.65.37h114.41a110.11 110.11 0 0 1 51.16 12.57c1.47.78 2.91 1.58 4.34 2.41.78.46 1.55.92 2.32 1.4a109 109 0 0 1 9.86 6.86c.89.69 1.77 1.4 2.64 2.12s2 1.64 2.9 2.5a110.34 110.34 0 0 1 29.53 42.46v.09a110.06 110.06 0 0 1 7.42 39.76z"/><path d="m889.11 463.54v86.86l-47.11 35.52h-56.1a19.48 19.48 0 1 0 0 39h4.43l-247.22 186.34v-77a19.67 19.67 0 0 1 7.83-15.7l197.74-149.14z"/><path d="m491.35 626.61a34.51 34.51 0 0 0 4.41 15.66 49.53 49.53 0 0 0 73.91 14.58 57.54 57.54 0 0 1 86.75 18.62l21.92 42.2a4 4 0 0 1 -1.71 5.4 4.06 4.06 0 0 1 -1.84.45 4 4 0 0 1 -3.55-2.16l-21.92-42.21a49.54 49.54 0 0 0 -74.69-16 57.52 57.52 0 0 1 -83.29-12.82c-.91-1.34-1.76-2.71-2.56-4.13a42.43 42.43 0 0 1 12.31-55.33l212.91-152.37 101.89-72.92h13.75l-118.64 84.86-205.25 146.91a34.37 34.37 0 0 0 -14.4 29.26z"/></g><g fill="#33313f"><path d="m547.47 246.63h49.8a10.63 10.63 0 0 1 10.63 10.63v114.74a35.85 35.85 0 0 1 -35.85 35.85 35.85 35.85 0 0 1 -35.85-35.85v-114.1a11.27 11.27 0 0 1 11.27-11.27z"/><ellipse cx="572.26" cy="259.6" rx="35.65" ry="42.05"/><path d="m547.47 246.63h49.8a10.63 10.63 0 0 1 10.63 10.63v114.74a35.85 35.85 0 0 1 -35.85 35.85 35.85 35.85 0 0 1 -35.85-35.85v-114.1a11.27 11.27 0 0 1 11.27-11.27z"/><ellipse cx="572.26" cy="259.6" rx="35.65" ry="42.05"/></g><g fill="#535267"><path d="m600.91 257.26v2.34c0-1.43-.07-2.85-.18-4.24a10.74 10.74 0 0 1 .18 1.9z"/><path d="m607.9 257.26v2.34c0-1.43-.06-2.85-.18-4.24a9.87 9.87 0 0 1 .18 1.9z"/><path d="m600.91 257.26v2.34c0-1.43-.07-2.85-.18-4.24a10.74 10.74 0 0 1 .18 1.9z"/><path d="m607.9 259.6v112.4a35.85 35.85 0 0 1 -35.85 35.85 30.89 30.89 0 0 1 -3.49-.18 35.84 35.84 0 0 0 32.35-35.67v-114.74a10.74 10.74 0 0 0 -.18-1.9v-.06a47.94 47.94 0 0 0 -1.5-8.5c-4.25-15.7-16.11-27.4-30.47-29a29.1 29.1 0 0 1 3.5-.2c18.45 0 33.63 16.54 35.46 37.74v.06c.12 1.35.18 2.77.18 4.2z"/><path d="m600.91 257.26v2.34c0-1.43-.07-2.85-.18-4.24a10.74 10.74 0 0 1 .18 1.9z"/></g><path d="m672.76 432.29h-35a5.28 5.28 0 0 0 -5.27 5.27v11.27h3.41v-9.5a4.19 4.19 0 0 1 4.19-4.2h30.38a4.19 4.19 0 0 1 4.2 4.2v9.5h3.33v-11.27a5.28 5.28 0 0 0 -5.24-5.27z" fill="#37639b"/><rect fill="#ffb2bf" height="24.2" rx="5.76" transform="matrix(-.99997313 -.00733032 .00733032 -.99997313 933.98 584.17)" width="11.52" x="462.3" y="278.27"/><rect fill="#ffb2bf" height="30.1" rx="5.76" transform="matrix(-.5 .8660254 -.8660254 -.5 911.55 31.22)" width="11.52" x="441" y="263.7"/><circle cx="567.54" cy="228.76" fill="#ffab00" r="21.48"/><path d="m558.37 248.18a20.15 20.15 0 0 0 1.91.79 21.48 21.48 0 0 0 14.53-40.42c-.65-.23-1.31-.43-2-.6a21.48 21.48 0 0 1 -14.47 40.23z" fill="#ea9600"/><path d="m548.76 211.95h5.49a22.7 22.7 0 0 1 22.7 22.7v27.64a29.77 29.77 0 0 1 -29.77 29.77h-.45a29.77 29.77 0 0 1 -29.73-29.77v-18.55a31.8 31.8 0 0 1 31.76-31.79z" fill="#33313f" transform="matrix(.99647824 .08385176 -.08385176 .99647824 23.07 -45)"/><path d="m562.03 606.94 56.25 111.45-31.5 12.63-56.25-111.44z" fill="#f9a0b4"/><path d="m562.03 606.94 16.12 31.94-31.5 12.64-16.12-31.95z" fill="#f490aa"/><path d="m561.33 720.32h39.67a0 0 0 0 1 0 0 14.09 14.09 0 0 1 -14.09 14.09h-25.6a0 0 0 0 1 0 0v-14.09a0 0 0 0 1 .02 0z" fill="#f9a0b4" transform="matrix(-.92816139 .37217795 -.37217795 -.92816139 1391.35 1186.1)"/><g fill="#37639b"><path d="m558.68 744.56a6.94 6.94 0 0 0 9 3.82l16.22-6.6 36.91-15a4.7 4.7 0 0 0 2.9-3.75 4.73 4.73 0 0 0 -6.11-5.12l-37.33 11.89-17.27 5.55a6.92 6.92 0 0 0 -4.32 9.21z"/><rect height="17.68" rx="3.11" transform="matrix(-.92816139 .37217795 -.37217795 -.92816139 1383.77 1188.01)" width="6.21" x="574.09" y="718.75"/><path d="m606.3 726.24 13.36-5.36-13.19-26-.71.28a11.66 11.66 0 0 0 -6.33 15.54z"/><rect height="8.23" rx="4.11" transform="matrix(-.92816139 .37217795 -.37217795 -.92816139 1403.27 1147.41)" width="35.17" x="573.29" y="705.05"/></g><path d="m603.14 611.23 19.37 128.65h-33.93l-19.38-128.65z" fill="#ffb2bf"/><path d="m603.14 611.23 6.01 39.92h-33.94l-6.01-39.92z" fill="#f9a0b4"/><path d="m564.76 727.35h39.69a0 0 0 0 1 0 0 14.09 14.09 0 0 1 -14.09 14.09h-25.6a0 0 0 0 1 0 0v-14.09a0 0 0 0 1 0 0z" fill="#ffb2bf" transform="matrix(-1 0 0 -1 1169.21 1468.79)"/><g fill="#62a9fa"><path d="m557.32 742a6.94 6.94 0 0 0 7 6.91l17.51-.08 39.83-.17a4.72 4.72 0 0 0 .33-9.43l-39.08-2.85-18.15-1.38a6.93 6.93 0 0 0 -7.44 7z"/><rect height="17.68" rx="3.11" transform="matrix(-1 0 0 -1 1161.66 1466.24)" width="6.21" x="577.72" y="724.28"/><path d="m608.34 742.71h14.4l-4.15-29.1a10.87 10.87 0 0 0 -10.86 11.23z"/><rect height="8.23" rx="4.11" transform="matrix(-1 0 0 -1 1200.75 1442.23)" width="35.17" x="582.79" y="717"/><path d="m573.47 629.58h-53.37l-.86-16.21c-4.77-77.54-12.13-178-10.7-200.82h53.37l10.69 200.82z"/></g><g fill="#ffb2bf"><rect height="32.95" rx="6.03" transform="matrix(-.98166047 .19063767 -.19063767 -.98166047 1359.63 717.24)" width="12.05" x="639.28" y="407.57"/><path d="m546.37 324.82a16.66 16.66 0 0 0 5.09 11.41l21.54 20.77 4.76 4.6 61.19 59.09a16.76 16.76 0 0 0 23.28-24.11l-77.77-75.1-9.67-9.34a16.75 16.75 0 0 0 -28.38 12.69z"/><ellipse cx="657.77" cy="415.17" rx="18.95" ry="22.49" transform="matrix(.62578735 -.77999372 .77999372 .62578735 -77.69 668.41)"/></g><path d="m459.19 353.66a16.6 16.6 0 0 0 2.89 8.84 16.79 16.79 0 0 0 23.33 4.5l14.11-9.57 1.24-.84 31-21a16.79 16.79 0 1 0 -18.85-27.79l-4.11 2.78-24.28 16.42-1.89 1.28-16.08 10.91a16.76 16.76 0 0 0 -7.36 14.47z" fill="#f9a0b4"/><path d="m569.41 349.64v44.36a30.48 30.48 0 0 1 -51.89 21.25 29.81 29.81 0 0 1 -8.9-21.25v-44.36z" fill="#fdd55f"/><path d="m569.41 339.21v37.74l-60.79-6.38v-31.36z" fill="#ffb460"/><path d="m459.19 352.41a16.79 16.79 0 0 0 22.74 3.65l10.77-7.31a6.91 6.91 0 0 0 3-5.75v-1.59a42.76 42.76 0 0 1 13.11-30.89l4.11-2.78a16.77 16.77 0 0 1 22.72 3.65 9.41 9.41 0 0 1 .6.81 16.78 16.78 0 0 1 -4.47 23.33l-31 21-1.24.84-14.12 9.63a16.79 16.79 0 0 1 -23.33-4.47 16.6 16.6 0 0 1 -2.89-8.84c-.02-.44-.02-.86 0-1.28z" fill="#f490aa"/><path d="m546.48 326.16a15.6 15.6 0 0 1 -.09-2.9.86.86 0 0 1 0-.16c0-.51.08-1 .16-1.53a.59.59 0 0 0 0-.13c.09-.49.19-1 .31-1.47v-.09a14.14 14.14 0 0 1 .45-1.44 1.86 1.86 0 0 1 .1-.25c.18-.47.37-.93.59-1.39a.75.75 0 0 0 .07-.12c.22-.45.47-.88.73-1.3l.1-.17c.27-.42.56-.84.87-1.24l.18-.22c.33-.41.67-.82 1-1.21l.15-.15.34-.31a16.74 16.74 0 0 1 23.2.05l9.67 9.34a42.49 42.49 0 0 1 4.92 19.94v1.71a41.4 41.4 0 0 0 12.41 30.2l35.36 34.15 12.5 12.08c.89 9.34 17.37 15.76 25.48 4.32a18.28 18.28 0 0 0 3.54-8.8 17.46 17.46 0 0 1 -3.32 14.17 16.59 16.59 0 0 1 -7.39 5.22h-.12a18.68 18.68 0 0 1 -2.36.65l-.29.06-1 .17h-.24c-.41.06-.82.1-1.24.12h-.22c-.35 0-.7 0-1.06 0h-.31a20.29 20.29 0 0 1 -2.57-.17h-.31l-1.08-.18h-.24c-.43-.09-.87-.19-1.3-.3l-.21-.06-1.1-.32-.3-.1a25.58 25.58 0 0 1 -2.58-1l-.25-.12c-.38-.18-.75-.37-1.13-.57l-.15-.08c-.43-.23-.86-.48-1.28-.74l-.11-.08q-.59-.36-1.14-.75l-.19-.13c-.41-.3-.82-.6-1.22-.92a26.24 26.24 0 0 1 -6.14-7 .43.43 0 0 0 0-.07.3.3 0 0 1 0-.08 26.07 26.07 0 0 1 -1.31-2.58l-86.91-83.95c-.24-.23-.47-.46-.69-.7a.39.39 0 0 1 -.08-.1 2.85 2.85 0 0 1 -.23-.26l-.23-.27-.09-.1-.12-.15c-.16-.2-.32-.4-.47-.61l-.11-.15-.05-.08-.18-.26-.23-.34-.06-.1c-.09-.13-.15-.27-.23-.4s-.24-.4-.35-.6-.26-.53-.39-.79-.18-.37-.26-.56a1.3 1.3 0 0 0 -.08-.17.76.76 0 0 0 0-.11c-.1-.24-.19-.49-.28-.75l-.06-.16a.19.19 0 0 0 0-.07l-.05-.17c-.06-.16-.11-.33-.16-.49s0-.1 0-.15c-.07-.24-.13-.49-.19-.74s0 0 0-.05c-.1-.44-.17-.89-.23-1.34-.13-.22-.14-.32-.15-.43z" fill="#f9a0b4"/><path d="m498 337.69-.13 1.55a20.74 20.74 0 0 0 18.89 22.44l44.34 3.8a20.73 20.73 0 0 0 22.43-18.89l.14-1.54a42.79 42.79 0 0 0 -5.6-25.15 42 42 0 0 0 -4.36-6.21c-.61-.74-1.27-1.46-1.94-2.16a41.29 41.29 0 0 0 -4.57-4.1l-.28-.22-.61-.45a42.13 42.13 0 0 0 -6.68-4.05 43.05 43.05 0 0 0 -31.63-2.37 40.13 40.13 0 0 0 -5.83 2.3l-.59.29c-.74.37-1.47.77-2.19 1.18a43.28 43.28 0 0 0 -4 2.6 42.84 42.84 0 0 0 -17.44 31z" fill="#fdd55f"/><path d="m522.19 302.64a22.48 22.48 0 0 0 44.71 4.57l-.61-.45a42.13 42.13 0 0 0 -6.68-4.05 43.05 43.05 0 0 0 -31.61-2.37 40.13 40.13 0 0 0 -5.81 2.3z" fill="#ffb2bf"/><path d="m498 337.7-.14 1.54a20.74 20.74 0 0 0 18.89 22.44l13.79 1.18a46.31 46.31 0 0 1 -10.36-59.17l-.76.43a41.2 41.2 0 0 0 -4 2.59 42.71 42.71 0 0 0 -17.43 31z" fill="#ffb460"/><path d="m539.11 430.79 31.83 184.71 2.79 16.21h53.35l-2.78-16.21-31.38-184.71z" fill="#62a9fa"/><path d="m508.54 390.11a61.14 61.14 0 0 1 61.14 61.14v26.23a0 0 0 0 1 0 0h-61.14a0 0 0 0 1 0 0v-87.37a0 0 0 0 1 0 0z" fill="#62a9fa" transform="matrix(-1 0 0 -1 1078.23 867.59)"/><path d="m508.54 390.11h61.14v9.8h-61.14z" fill="#37639b" transform="matrix(-1 0 0 -1 1078.23 790.02)"/><path d="m556.56 284.83-.56 5.43-1.2 11.74a9.47 9.47 0 1 1 -18.8-2l.13-1.23 1.63-15.89a9.47 9.47 0 1 1 18.84 1.92z" fill="#ffb2bf"/><circle cx="558.13" cy="438.06" fill="#62a9fa" r="35.54"/><path d="m556.56 284.83-.56 5.43a31.69 31.69 0 0 1 -19.91 8.54l1.63-15.89a9.47 9.47 0 1 1 18.84 1.92z" fill="#f9a0b4"/><path d="m576.31 243.91-2.79 20.5a31.85 31.85 0 0 1 -35.86 27.25 24.57 24.57 0 0 1 -21-27.66l2.34-17.21c0-.11 0-.21 0-.31.07-.48.15-.94.24-1.4a33 33 0 0 1 36.41-26.57l.45.05 1 .15a21.6 21.6 0 0 1 4.13 1 22.38 22.38 0 0 1 15.08 24.2z" fill="#ffb2bf"/><path d="m579.55 259-5-13.25a12.05 12.05 0 0 0 -2.06-3.49l.72-.09c.26-.06 1.19-3.41 1.21-3.67a1 1 0 0 0 0-.17 29 29 0 0 0 -13.09-18.61 21.6 21.6 0 0 0 -4.13-1l-1-.15-.45-.05a33 33 0 0 0 -36.41 26.57 28.92 28.92 0 0 0 17.78 1.8l9.8-1.29a14.77 14.77 0 0 1 15.74 9.4 12.09 12.09 0 0 0 15.59 7 2.36 2.36 0 0 0 1.3-3z" fill="#f9a0b4"/><path d="m562.34 232.64h3.39a17.32 17.32 0 0 1 17.32 17.36v9.79a3.39 3.39 0 0 1 -3.39 3.39 17.32 17.32 0 0 1 -17.32-17.32v-13.22a0 0 0 0 1 0 0z" fill="#33313f" transform="matrix(.99647824 .08385176 -.08385176 .99647824 22.82 -47.17)"/><circle cx="573.14" cy="258.31" fill="#ffb2bf" r="9.97"/><path d="m576.54 258.08a4.24 4.24 0 0 0 -2.94-3.67 1.21 1.21 0 0 0 -1.54 1.29l.49 5.52a1.24 1.24 0 0 0 1.86.95 4.26 4.26 0 0 0 2.13-4.09z" fill="#f9a0b4"/><g fill="#62a9fa"><path d="m519.83 390.11h3.6v9.8h-3.6z"/><path d="m535.06 390.11h3.6v9.8h-3.6z"/><path d="m550.29 390.11h3.6v9.8h-3.6z"/></g><circle cx="530.01" cy="252.94" fill="#33313f" r="2.37"/><circle cx="551.57" cy="254.76" fill="#33313f" r="2.37"/><path d="m519.34 615.5h104.96l2.78 16.21h-106.86z" fill="#37639b"/><g fill="#af437c"><ellipse cx="536.68" cy="265.48" rx="2.68" ry="3.21" transform="matrix(.09115401 -.99583681 .99583681 .09115401 223.37 775.71)"/><ellipse cx="541.55" cy="265.92" rx="2.68" ry="3.21" transform="matrix(.09115401 -.99583681 .99583681 .09115401 227.35 780.97)"/><path d="m533.49 265.18 11.26 1c-.22 2.4-2.91 4.12-6 3.83s-5.48-2.43-5.26-4.83z"/></g><path d="m536.37 266.12c-.08.83 1 1.61 2.42 1.74s2.63-.44 2.7-1.27z" fill="#c16b9c"/><path d="m567.92 403.9a35.49 35.49 0 0 1 14 21.52l.45 2.6v.14c.11.87.19 1.74.22 2.63h.23l4.65 27.36 29.53 173.56h10.12l-33.76-198.35c-.12-.87-.27-1.73-.44-2.57a35.54 35.54 0 0 0 -25-26.89z" fill="#85c2ff"/><path d="m627.08 631.71h-10.11l-2.79-16.21h10.12z" fill="#62a9fa"/><path d="m492.08 357.12a16.79 16.79 0 0 1 -27.17 8.48c-.17-.14-.33-.29-.49-.44s-.31-.29-.46-.44l-.18-.18-.3-.32c-.23-.25-.47-.51-.68-.78l-.45-.59a16.7 16.7 0 0 1 -1.24-1.93c-.11-.19-.2-.37-.29-.56a6.45 6.45 0 0 1 -.29-.59c-.19-.43-.37-.88-.53-1.33l-16.78-47.5-1.87-5.3a18.87 18.87 0 0 1 -.55-1.87 16.8 16.8 0 0 1 32.2-9.32l18.66 52.8a16.61 16.61 0 0 1 .42 9.87z" fill="#ffb2bf"/><ellipse cx="451.22" cy="295.12" fill="#ffb2bf" rx="17.77" ry="22.54" transform="matrix(.35086122 -.93642747 .93642747 .35086122 16.56 614.13)"/><path d="m467.12 364.89-.49-.44-.46-.44-.18-.19-.29-.31a10.13 10.13 0 0 1 -.68-.79c-.16-.19-.31-.38-.46-.58a17.61 17.61 0 0 1 -1.24-1.93c-.1-.19-.2-.37-.29-.57s-.19-.39-.28-.59q-.3-.65-.54-1.32l-16.09-45.57-.65-1.83a27 27 0 0 1 -3-1.58c-8.63-5.23-13.07-14.4-10.12-22.25a15.81 15.81 0 0 1 9.47-9.06c-5.46 1.43-9.84 4.84-11.69 9.77-3.27 8.73 2.57 19.07 13.15 23.84l16.72 47.39c.16.46.34.9.53 1.33a6.45 6.45 0 0 0 .29.59 5.93 5.93 0 0 0 .29.56 15.89 15.89 0 0 0 1.24 1.93l.45.59c.21.27.45.53.68.79l.3.31a1.53 1.53 0 0 0 .18.18c.15.15.29.3.46.44s.32.3.49.45a16.8 16.8 0 0 0 16.53 3.07c.21-.07.41-.15.62-.24a16.82 16.82 0 0 1 -14.94-3.55z" fill="#f9a0b4"/><rect fill="#37639b" height="56.65" rx="8.37" width="89.77" x="611.01" y="444.34"/><rect fill="#37639b" height="56.65" rx="8.37" width="89.77" x="611.01" y="444.34"/><path d="m700.78 452.7v39.92a8.37 8.37 0 0 1 -8.37 8.37h-8.06a8.37 8.37 0 0 0 8.37-8.37v-39.92a8.37 8.37 0 0 0 -8.37-8.36h8.06a8.37 8.37 0 0 1 8.37 8.36z" fill="#2a5787"/><g fill="#245489"><path d="m626.11 469h5.89a0 0 0 0 1 0 0v5.25a2.95 2.95 0 0 1 -2.95 2.95 2.95 2.95 0 0 1 -2.95-2.95v-5.25a0 0 0 0 1 .01 0z"/><path d="m678.84 469h5.89a0 0 0 0 1 0 0v5.25a2.95 2.95 0 0 1 -2.95 2.95 2.95 2.95 0 0 1 -2.95-2.95v-5.25a0 0 0 0 1 .01 0z"/><path d="m611.01 458.21h89.77v2.26h-89.77z"/><path d="m644.76 458.21h22.24a0 0 0 0 1 0 0v7.23a5 5 0 0 1 -5 5h-12.2a5 5 0 0 1 -5-5v-7.23a0 0 0 0 1 -.04 0z"/></g><circle cx="526.75" cy="218.26" fill="#33313f" r="24.98"/><circle cx="557.79" cy="225.44" fill="#33313f" r="21.41"/><g fill="#535267"><path d="m579.2 225.44a21.17 21.17 0 0 1 -1.21 7.1 21.4 21.4 0 0 0 -21.22-18.68 21.78 21.78 0 0 0 -5.32.66 19.94 19.94 0 0 0 -3.9 1.42 25.07 25.07 0 0 0 -21.82-12.84 25 25 0 0 0 -23.84 17.48 22.24 22.24 0 0 1 -.12-2.32 25 25 0 0 1 46.81-12.13 21.4 21.4 0 0 1 30.62 19.31z"/><rect height="55.25" rx="4.31" width="8.62" x="588.23" y="264.33"/><circle cx="528.08" cy="223.17" r="10.57"/></g><rect fill="#62a9fa" height="8.2" rx="1.65" width="10.5" x="623.8" y="462.66"/><rect fill="#62a9fa" height="8.2" rx="1.65" width="10.5" x="676.53" y="462.66"/><path d="m985.91 475.75a109.71 109.71 0 0 1 -8.9 43.44q-1.56 3.64-3.38 7.14l-79 58q-2.76.48-5.57.82a109.21 109.21 0 0 1 -13.37.81h-89.79a19.48 19.48 0 1 0 0 39h26.83a66.66 66.66 0 0 1 21.76 3.61l-295.76 217.04a7.73 7.73 0 0 1 -12.31-6.23v-65.29a12.47 12.47 0 0 1 5.07-10l11.62-8.55 236-173.21 110-80.78 89.38-65.61v.09a110.06 110.06 0 0 1 7.42 39.72z" fill="#e2e1de"/><path d="m684.88 480.36h7v138.18h-7z" fill="#adadad" transform="matrix(.81522889 -.5791389 .5791389 .81522889 -191.02 500.2)"/><path d="m933.56 382-216.56 157.86-20.52 15-2.79 2-4.13-5.66 2.86-2.09 22.29-16.25 212.19-154.71c1.47.78 2.91 1.58 4.34 2.41.76.44 1.55.92 2.32 1.44z" fill="#adadad"/><g fill="#e2e1de"><path d="m493.89 638.4a34.39 34.39 0 0 0 1.87 29.94 49.54 49.54 0 0 0 73.91 14.59 57.53 57.53 0 0 1 86.75 18.61l18.49 35.61a4 4 0 0 1 -1.7 5.4 4.06 4.06 0 0 1 -1.84.45 4 4 0 0 1 -3.56-2.16l-18.49-35.62a49.54 49.54 0 0 0 -74.69-16 57.53 57.53 0 0 1 -85.85-17 42.42 42.42 0 0 1 12.31-55.33l207.21-148.27 144-103h13.7l-158.34 113.3-201.91 144.5a34.34 34.34 0 0 0 -11.86 14.98z"/><path d="m645.5 531.78h7v138.18h-7z" transform="matrix(.81522889 -.5791389 .5791389 .81522889 -228.07 486.89)"/><path d="m949 393.44-222.82 162.44-19.06 13.9-5.66 4.13-44.35 32.33-2.79 2-4.13-5.65 2.87-2.09 44.34-32.3 5.66-4.12 18.25-13.31 222.11-161.95c.89.69 1.77 1.4 2.64 2.12s1.94 1.64 2.94 2.5z"/></g><path d="m985.91 475.75v2.24.39a3.65 3.65 0 0 1 0 .47v.15c0 .71 0 1.41-.08 2.11v.12c0 .37 0 .74-.06 1.11s-.05.9-.09 1.35 0 .71-.07 1.06a.28.28 0 0 0 0 .09c0 .54-.09 1.08-.14 1.62v.32c0 .25 0 .5-.08.75-.07.64-.15 1.29-.23 1.93s-.14 1.14-.22 1.7v.22a216 216 0 0 1 -320-189.49 215.8 215.8 0 0 1 93.92-178.25 33.4 33.4 0 0 1 3.79 1.34 36.66 36.66 0 0 1 18.54 17.26 36.72 36.72 0 0 1 3.81 16.45v7.24a29.14 29.14 0 0 0 3.3 13.51 28.75 28.75 0 0 0 3.61 5.38c.53.64 1.09 1.25 1.68 1.84a29.21 29.21 0 0 0 13.93 7.79 28.1 28.1 0 0 0 5 .74q.9.06 1.83.06a67.34 67.34 0 0 1 27.16 5.75 65.17 65.17 0 0 1 8.49 4.54 67.16 67.16 0 0 1 20.58 20.27 66.31 66.31 0 0 1 7.35 15.2l.06.16a66 66 0 0 1 2.89 12.68 67.11 67.11 0 0 1 -66.6 75.69h-52.93a18 18 0 0 0 -3.65 35.67 18.29 18.29 0 0 0 3.65.37h114.39a110 110 0 0 1 55.5 15 110.69 110.69 0 0 1 47.25 55.34v.09a110.06 110.06 0 0 1 7.42 39.74z" fill="#898989"/><path d="m218.53 243.5a1.19 1.19 0 0 0 -.59 1.56l2.69 5.77a1.17 1.17 0 0 0 .67.62 1.09 1.09 0 0 0 .4.07 1.21 1.21 0 0 0 .5-.1l20.3-9.49-1.84 19.23a1.18 1.18 0 0 0 .4 1 5.21 5.21 0 0 0 3.15 1.2 3.67 3.67 0 0 0 .94-.12c1.65-.43 2.93-1.9 3.8-4.41l8-23.66 15.82-7.38c4.66-2.17 7.06-6.57 5.45-10a6.05 6.05 0 0 0 -4.67-3.26 11 11 0 0 0 -6.52 1l-18.26 8.56-19.63-7.68c-2.47-.93-4.43-.9-5.8.09a4.82 4.82 0 0 0 -1.78 3.85 1.2 1.2 0 0 0 .51.95l13.22 9.08-7.58 3.62-12.71-3.27a1.18 1.18 0 0 0 -1.32.58l-3.16 5.69a1.2 1.2 0 0 0 -.07 1 1.16 1.16 0 0 0 .7.7l9.39 3.89z" fill="#f9f2de"/></svg>