<svg viewBox="0 0 1000 1000" xmlns="http://www.w3.org/2000/svg"><path d="m972.14 628.07v10.41 2.23 1.67c0 .73 0 1.45-.08 2.18 0 1-.1 2-.17 3s-.15 2-.24 3-.19 2-.3 3-.23 1.92-.36 2.87c-.15 1.1-.31 2.2-.49 3.3q-.21 1.32-.45 2.64c-.19 1.06-.4 2.12-.62 3.17v.16c-.18.87-.37 1.74-.58 2.61-.06.27-.12.55-.19.81-.2.87-.42 1.73-.64 2.6v.07c-.27 1-.55 2.06-.84 3.08-.17.59-.34 1.18-.52 1.77s-.35 1.17-.54 1.76-.35 1.12-.54 1.68c-.43 1.33-.89 2.64-1.37 3.94q-1.19 3.24-2.53 6.39c-.24.56-.48 1.12-.73 1.67-.54 1.22-1.09 2.44-1.67 3.64-.21.43-.42.87-.64 1.3q-1.2 2.44-2.5 4.83c-.5.91-1 1.81-1.52 2.7a133 133 0 0 1 -25.46 31.69c-.46.43-.93.85-1.4 1.27l-.14.12-1.72 1.37a131.59 131.59 0 0 1 -24.37 16.59c-2.38 1.26-4.81 2.45-7.27 3.56a128.46 128.46 0 0 1 -15 5.71c-1.21.38-2.43.74-3.65 1.08l-2.51.68c-.84.22-1.69.43-2.53.63-.61.15-1.21.29-1.82.42l-1.42.31c-.62.14-1.25.27-1.88.39l-1.35.25-1.52.28h-.17l-1.82.3c-1 .16-2.05.31-3.08.45l-1.31.17-1.6.19-1.9.2-2.71.23-1.93.13-2 .12h-.23l-1.92.07c-.69 0-1.39 0-2.09.05h-2.1-53.67a27.32 27.32 0 0 0 -27.32 27.32v101.98h-456.73v-101.91a27.26 27.26 0 0 0 -17.36-25.43c-.38-.15-.77-.3-1.17-.43s-.62-.21-.94-.3-.38-.12-.57-.16a5.62 5.62 0 0 0 -.55-.15 7.31 7.31 0 0 0 -.78-.18 24.72 24.72 0 0 0 -3-.51l-.67-.06c-.35 0-.7-.06-1.05-.07h-1.23-90.38c-1.43 0-2.84 0-4.26-.06a137.23 137.23 0 0 1 -32.13-4.85c-.86-.23-1.71-.48-2.56-.73-1.21-.35-2.4-.72-3.59-1.11-1-.31-2-.64-2.93-1q-2.25-.8-4.45-1.66l-.45-.18c-.53-.2-1.05-.41-1.57-.63s-1.25-.5-1.86-.77l-.9-.38c-.8-.34-1.59-.7-2.38-1.07-1-.47-2.09-1-3.12-1.46s-1.91-.94-2.86-1.44c-.56-.29-1.12-.58-1.67-.88l-1.31-.71-1.26-.68c-.92-.52-1.83-1-2.74-1.58s-1.81-1.08-2.7-1.64l-.12-.07-2.35-1.51-.81-.53-2-1.35c-.87-.6-1.73-1.2-2.58-1.82h-.06c-.72-.53-1.44-1.06-2.15-1.6-2-1.46-3.9-2.95-5.74-4.57-.38-.32-.76-.64-1.13-1l-1.62-1.41c-2.06-1.81-4.06-3.7-6-5.64a138.1 138.1 0 0 1 -20.44-26.05c-.73-1.21-1.45-2.43-2.14-3.66l-.9-1.61c-.33-.6-.65-1.19-1-1.79s-.51-1-.75-1.45c-.79-1.52-1.54-3.07-2.26-4.62-.29-.61-.57-1.22-.85-1.84s-.59-1.33-.86-2-.5-1.18-.75-1.77c-.4-.94-.8-1.89-1.16-2.85l-.8-2.15c-.49-1.32-1-2.65-1.39-4-.22-.65-.43-1.3-.64-2-.3-.94-.59-1.88-.86-2.82-.06-.2-.12-.39-.17-.59-.25-.83-.48-1.67-.7-2.51-.06-.21-.11-.42-.16-.63-.17-.63-.34-1.26-.49-1.9s-.26-1.07-.37-1.6c-.16-.78-.33-1.57-.53-2.34-.07-.28-.13-.55-.19-.83a137.91 137.91 0 0 1 -2.93-28.35c0-.7 0-1.4 0-2.11q0-.76 0-1.53v-1.13c0-.43 0-.86.05-1.29 0-.86.08-1.71.14-2.56s.09-1.49.15-2.22a.25.25 0 0 1 0-.08c0-.47.07-1 .12-1.42q.24-2.82.6-5.6c.12-.93.25-1.85.4-2.77.38-2.58.85-5.14 1.38-7.67.23-1.15.49-2.29.76-3.43q1.07-4.5 2.43-8.9.77-2.46 1.62-4.89c.42-1.21.87-2.41 1.32-3.61a136.61 136.61 0 0 1 12.5-24.77 138.47 138.47 0 0 1 31.94-34.94q4.42-3.43 9.16-6.5a136.79 136.79 0 0 1 38.54-17.32q5.91-1.62 12-2.71 4.53-.82 9.16-1.33a138.87 138.87 0 0 1 15.21-.83h106.21a35.75 35.75 0 0 0 35.75-34.84c0-.3 0-.61 0-.92 0-.14 0-.28 0-.41a35.74 35.74 0 0 0 -29.9-34.86 35.34 35.34 0 0 0 -5.85-.48h-178.88-2.1a83.19 83.19 0 0 1 -57-24.46c-.93-.93-1.84-1.88-2.72-2.85a83.55 83.55 0 0 1 0-112.54c.88-1 1.79-1.92 2.72-2.85a83.19 83.19 0 0 1 57-24.46q1 0 2.1 0a69 69 0 0 0 36.44-10.35 69.94 69.94 0 0 0 12-9.42 69.24 69.24 0 0 0 20.84-49.52 97.92 97.92 0 0 1 97.92-97.92h526a83.61 83.61 0 0 1 33.68 160.14 81.56 81.56 0 0 1 -9.16 3.41 83.43 83.43 0 0 1 -24.52 3.66h-28a48.57 48.57 0 0 0 -23.29 5.93c-1.26.69-2.49 1.44-3.68 2.24a48.57 48.57 0 0 0 -21.63 40.42 48.57 48.57 0 0 0 48.6 48.59c.89 0 1.77 0 2.65.06a62.43 62.43 0 0 1 30.1 9.12c1.08.65 2.13 1.33 3.16 2.05a61.91 61.91 0 0 1 6 4.73 62.85 62.85 0 0 1 21.11 47.06v43a43.93 43.93 0 0 0 29.46 41.52c.59.21 1.19.4 1.79.58 2.38.71 4.84 1.49 7.37 2.37 5.09 1.73 10.44 3.8 15.91 6.25a152 152 0 0 1 34.65 21.21 123.15 123.15 0 0 1 9.16 8.34 115.25 115.25 0 0 1 15.22 18.87 112.89 112.89 0 0 1 13.13 28.38q.74 2.4 1.38 4.89c.75 2.88 1.42 5.85 2 8.9.16.88.32 1.77.46 2.67s.29 1.79.42 2.7.25 1.83.36 2.75q.13 1 .24 2.13c0 .22.05.45.07.67.09.83.17 1.67.24 2.51 0 .42.07.85.1 1.28.07.92.14 1.85.19 2.79s.11 1.8.14 2.71.07 2.12.09 3.2v1c.06.72.07 1.46.07 2.21z" fill="#f3f4fe"/><path d="m972.14 628.07v10.41 2.23 1.67c0 .73 0 1.45-.08 2.18 0 1-.1 2-.17 3s-.15 2-.24 3-.19 2-.3 3-.23 1.92-.36 2.87c-.15 1.1-.31 2.2-.49 3.3q-.21 1.32-.45 2.64c-.19 1.06-.4 2.12-.62 3.17v.16c-.18.87-.37 1.74-.58 2.61-.06.27-.12.55-.19.81-.2.87-.42 1.73-.64 2.6v.07c-.27 1-.55 2.06-.84 3.08-.17.59-.34 1.18-.52 1.77s-.35 1.17-.54 1.76-.35 1.12-.54 1.68c-.43 1.33-.89 2.64-1.37 3.94q-1.19 3.24-2.53 6.39c-.24.56-.48 1.12-.73 1.67-.54 1.22-1.09 2.44-1.67 3.64-.21.43-.42.87-.64 1.3q-1.2 2.44-2.5 4.83c-.5.91-1 1.81-1.52 2.7a133 133 0 0 1 -25.46 31.69c-.46.43-.93.85-1.4 1.27l-.14.12-1.72 1.37a131.59 131.59 0 0 1 -24.37 16.59c-2.38 1.26-4.81 2.45-7.27 3.56a128.46 128.46 0 0 1 -15 5.71c-1.21.38-2.43.74-3.65 1.08l-2.51.68c-.84.22-1.69.43-2.53.63-.61.15-1.21.29-1.82.42l-1.42.31c-.62.14-1.25.27-1.88.39l-1.35.25-1.52.28h-.17l-1.82.3c-1 .16-2.05.31-3.08.45l-1.31.17-1.6.19-1.9.2-2.71.23-1.93.13-2 .12h-.23l-1.92.07c-.69 0-1.39 0-2.09.05h-2.1-53.72a27.32 27.32 0 0 0 -27.31 27.32v101.98h-456.69v-101.91a27.26 27.26 0 0 0 -17.36-25.43c-.38-.15-.77-.3-1.17-.43s-.62-.21-.94-.3-.38-.12-.57-.16a5.62 5.62 0 0 0 -.55-.15l-.78-.18a24.72 24.72 0 0 0 -3-.51l-.67-.06c-.35 0-.7-.06-1.05-.07h-1.23-90.38c-1.43 0-2.84 0-4.26-.06a137.23 137.23 0 0 1 -32.13-4.85c-.86-.23-1.71-.48-2.56-.73-1.21-.35-2.4-.72-3.59-1.11-.83-.26-1.66-.54-2.49-.83l-.44-.15q-2.25-.8-4.45-1.66l-.45-.18c-.53-.2-1.05-.41-1.57-.63s-1.25-.5-1.86-.77l-.9-.38c-.8-.34-1.59-.7-2.38-1.07l-.56-.26c-.86-.39-1.71-.79-2.56-1.2s-1.61-.79-2.41-1.21l-.45-.23c-.56-.29-1.12-.58-1.67-.88l-1.31-.71-1.26-.7c-.92-.52-1.83-1-2.74-1.58s-1.81-1.08-2.7-1.64l-.12-.07-2.35-1.51-.81-.53-2-1.35-1.74-1.22-.84-.6h-.06c-.69-.5-1.37-1-2-1.52-.92-.69-1.82-1.39-2.72-2.09s-1.76-1.42-2.62-2.14l-.52-.43c-.38-.32-.76-.64-1.13-1l-1.65-1.4c-.92-.81-1.83-1.64-2.73-2.48-1.11-1-2.19-2.09-3.26-3.16a138.1 138.1 0 0 1 -20.44-26.05c-.73-1.21-1.45-2.43-2.14-3.66l-.9-1.61c-.33-.6-.65-1.19-1-1.79s-.51-1-.75-1.45c-.79-1.52-1.54-3.07-2.26-4.62-.29-.61-.57-1.22-.85-1.84s-.59-1.33-.86-2c-.18-.38-.34-.77-.5-1.16-.62-1.46-1.2-2.92-1.76-4.4l-.45-1.21c-.49-1.32-1-2.65-1.39-4-.22-.65-.43-1.3-.64-2-.3-.94-.59-1.88-.86-2.82-.06-.2-.12-.39-.17-.59-.25-.83-.48-1.67-.7-2.51-.06-.21-.11-.42-.16-.63-.17-.63-.34-1.26-.49-1.9-.11-.41-.21-.83-.3-1.25-.22-.93-.43-1.86-.63-2.8-.06-.24-.11-.48-.16-.72a137.91 137.91 0 0 1 -2.93-28.35c0-.7 0-1.4 0-2.11q0-.76 0-1.53v-1.13c0-.43 0-.86.05-1.29 0-.86.08-1.71.14-2.56s.09-1.49.15-2.22a.25.25 0 0 1 0-.08c0-.47.07-1 .12-1.42q.24-2.82.6-5.6c.12-.93.25-1.85.4-2.77.38-2.58.85-5.14 1.38-7.67.23-1.15.49-2.29.76-3.43q1.07-4.5 2.43-8.9.77-2.46 1.62-4.89c.42-1.21.87-2.41 1.32-3.61 254.54-167.65 428.61 108.91 539.36-128.65 17.18-36.88 37.61-65.16 59.7-86.68a219.07 219.07 0 0 1 75.7-48.54 48.67 48.67 0 0 0 19.34 25.86 47.8 47.8 0 0 0 9.16 4.8 48.34 48.34 0 0 0 17.81 3.37c.89 0 1.77 0 2.65.06a62.43 62.43 0 0 1 30.1 9.12c1.08.65 2.13 1.33 3.16 2.05a61.91 61.91 0 0 1 6 4.73 62.85 62.85 0 0 1 21.11 47.06v43a43.93 43.93 0 0 0 29.46 41.52c.59.21 1.19.4 1.79.58 2.38.71 4.84 1.49 7.37 2.37 5.09 1.73 10.44 3.8 15.91 6.25a152 152 0 0 1 34.65 21.21 123.15 123.15 0 0 1 9.16 8.34 115.25 115.25 0 0 1 15.22 18.87 112.89 112.89 0 0 1 13.13 28.38q.74 2.4 1.38 4.89c.75 2.88 1.42 5.85 2 8.9.16.88.32 1.77.46 2.67s.29 1.79.42 2.7.25 1.83.36 2.75q.13 1 .24 2.13c0 .22.05.45.07.67.09.83.17 1.67.24 2.51 0 .42.07.85.1 1.28.07.92.14 1.85.19 2.79s.11 1.8.14 2.71.07 2.12.09 3.2v1c.02.67.03 1.41.03 2.16z" fill="#e6e9ff"/><path d="m972.14 628.07v10.41a132 132 0 0 1 -16.14 63.35c-.5.91-1 1.81-1.52 2.7a133 133 0 0 1 -25.46 31.69c-.46.43-.93.85-1.4 1.27l-.14.12-1.58 1.39a131.59 131.59 0 0 1 -24.37 16.59c-2.38 1.26-4.81 2.45-7.27 3.56a128.46 128.46 0 0 1 -15 5.71c-1.21.38-2.43.74-3.65 1.08q-5 1.41-10.16 2.43a132.45 132.45 0 0 1 -17.39 2.23q-4.14.27-8.35.27h-53.71a27.32 27.32 0 0 0 -27.31 27.32v101.92h-102.25a220.69 220.69 0 0 1 315.24-283.92q.47 5.76.46 11.88z" fill="#dce1fb"/><path d="m817.21 770.88h-31.21a27.32 27.32 0 0 0 -27.31 27.32v101.91h-337.56c2.38-119.78 100.23-216.11 220.58-216.11a220.38 220.38 0 0 1 175.5 86.92z" fill="#dce1fb"/><g fill="#d2d6fa"><path d="m972.1 624.89h-925.1q.38-6.33 1.32-12.49h923.02q.66 6.03.76 12.49z"/><path d="m970 662.35q-1.15 6.36-2.92 12.5h-914q-1.95-6.14-3.31-12.5z"/><path d="m843.43 674.85h26.68v19.42h-26.68z"/></g><path d="m848.08 694.27h17.4v9.87h-17.4z" fill="#bcbff6"/><path d="m865.47 704.14v64.24a132.45 132.45 0 0 1 -17.39 2.23v-66.47z" fill="#d2d6fa"/><path d="m697.21 674.85h26.68v19.42h-26.68z" fill="#d2d6fa"/><path d="m701.86 694.27h17.4v9.87h-17.4z" fill="#bcbff6"/><path d="m701.86 704.14h17.4v195.96h-17.4z" fill="#d2d6fa"/><path d="m550.99 674.85h26.68v19.42h-26.68z" fill="#d2d6fa"/><path d="m555.64 694.27h17.4v9.87h-17.4z" fill="#bcbff6"/><path d="m555.64 704.14h17.4v195.96h-17.4z" fill="#d2d6fa"/><path d="m404.78 674.85h26.68v19.42h-26.68z" fill="#d2d6fa"/><path d="m409.42 694.27h17.4v9.87h-17.4z" fill="#bcbff6"/><path d="m409.42 704.14h17.4v195.96h-17.4z" fill="#d2d6fa"/><path d="m258.56 674.85h26.68v19.42h-26.68z" fill="#d2d6fa"/><path d="m263.2 694.27h17.4v9.87h-17.4z" fill="#bcbff6"/><path d="m280.6 704.14v67.41a26.47 26.47 0 0 0 -6-.67h-11.4v-66.74z" fill="#d2d6fa"/><path d="m112.34 674.85h26.68v19.42h-26.68z" fill="#d2d6fa"/><path d="m116.98 694.27h17.4v9.87h-17.4z" fill="#bcbff6"/><g fill="#d2d6fa"><path d="m134.38 704.14v57.39c-3.5-1.35-6.93-2.86-10.28-4.49-1-.47-1.91-.94-2.86-1.44q-2.16-1.11-4.26-2.3v-49.16z"/><rect height="17.61" rx="8.8" transform="matrix(-1 0 0 -1 221.75 1817.82)" width="74.06" x="73.85" y="900.1"/><rect height="17.61" rx="8.8" transform="matrix(-1 0 0 -1 1120.09 1817.82)" width="809.94" x="155.08" y="900.1"/></g><circle cx="310.18" cy="259.18" fill="#fff" r="117.41"/><g fill="#d2d6fa"><path d="m585.62 174.07h-42.38a22.14 22.14 0 0 1 44.2-2 1.82 1.82 0 0 1 -1.82 2z"/><path d="m562.61 174.07h-63.61a31.8 31.8 0 1 1 63.59 0z"/><path d="m534.64 174.07h-73.06a4.29 4.29 0 0 1 -4.29-4.75 38.82 38.82 0 0 1 77.35 4.75z"/><path d="m714.1 271.44h-28a14.62 14.62 0 0 1 29.19-1.29 1.2 1.2 0 0 1 -1.19 1.29z"/><path d="m698.9 271.44h-42a21 21 0 1 1 42 0z"/><path d="m680.42 271.44h-48.24a2.83 2.83 0 0 1 -2.84-3.13 25.64 25.64 0 0 1 51.08 3.13z"/><path d="m117.74 363.22h52.94a29 29 0 0 0 -57.51-5.59 4.67 4.67 0 0 0 4.57 5.59z"/><path d="m145.29 363.22h83.37a41.69 41.69 0 0 0 -83.37 0z"/><path d="m182 363.22h94.69a6.6 6.6 0 0 0 6.52-7.57 50.89 50.89 0 0 0 -101.21 7.57z"/></g><path d="m839.73 417.15v16.21a151.07 151.07 0 0 1 -185.08-64.68 219.07 219.07 0 0 1 75.7-48.54 48.67 48.67 0 0 0 19.39 25.86 47.8 47.8 0 0 0 9.16 4.8 48.34 48.34 0 0 0 17.81 3.37c.89 0 1.77 0 2.65.06a62.43 62.43 0 0 1 30.1 9.12c1.08.65 2.13 1.33 3.16 2.05a61.91 61.91 0 0 1 6 4.73 62.85 62.85 0 0 1 21.11 47.06z" fill="#eef0ff"/><path d="m243.35 638.08q-6.27-.66-12.71-.77c-.87 0-1.74 0-2.62 0q-3.95 0-7.85.21-6.43.33-12.72 1.22a146.71 146.71 0 0 0 -117.18 95c.9.84 1.81 1.67 2.73 2.48l1.59 1.39c.37.33.75.65 1.13 1l.52.43c.86.72 1.74 1.43 2.62 2.14s1.8 1.4 2.72 2.09c.68.51 1.36 1 2 1.52h.06l.84.6 1.74 1.22 2 1.35.81.53 2.35 1.51.12.07c.89.56 1.79 1.1 2.7 1.64s1.82 1.06 2.74 1.58l1.28.71 1.31.71c.55.3 1.11.59 1.67.88l.45.23c.8.42 1.6.81 2.41 1.21s1.7.81 2.56 1.2l.56.26c.79.37 1.58.73 2.38 1.07l.9.38c.61.27 1.23.53 1.86.77s1 .43 1.57.63l.45.18q2.2.87 4.45 1.66l.44.15a90.83 90.83 0 0 1 80.9-70.26q3.89-.35 7.85-.34h2.62a90.15 90.15 0 0 1 12.75 1.27 91.07 91.07 0 0 1 58.65 142.94v63.17h15.17a146.53 146.53 0 0 0 -73.79-262z" fill="#8a89d9"/><path d="m243.35 648.68q-6.27-.7-12.71-.84h-2.62c-2.64 0-5.25.07-7.85.23q-6.45.36-12.72 1.32a136.15 136.15 0 0 0 -108.59 91.76c.9.7 1.8 1.4 2.72 2.09.68.51 1.36 1 2 1.52h.06l.84.6a129.48 129.48 0 0 1 102.92-89.26 126.84 126.84 0 0 1 12.72-1.39q3.89-.24 7.85-.24h2.62c4.29.08 8.53.38 12.71.87a129.31 129.31 0 0 1 58.7 234.53v8.06a136 136 0 0 0 -58.62-249.25z" fill="#edd2f2"/><path d="m243.35 675a106.61 106.61 0 0 0 -12.71-1c-.87 0-1.75 0-2.62 0q-4 0-7.85.28a106.55 106.55 0 0 0 -12.72 1.65 110 110 0 0 0 -85.76 80c.8.42 1.6.81 2.41 1.21s1.7.81 2.56 1.2a104.66 104.66 0 0 1 80.79-76.92 102.43 102.43 0 0 1 12.72-1.74q3.89-.29 7.85-.29h2.62a104.51 104.51 0 0 1 71.36 178.26v7.48a109.93 109.93 0 0 0 -58.65-190.13z" fill="#edd2f2"/><rect fill="#746bb7" height="116.65" rx="6.36" width="12.72" x="207.45" y="599.09"/><rect fill="#746bb7" height="116.65" rx="6.36" width="12.72" x="230.64" y="599.09"/><path d="m447.57 786.02h52.42v92.86h-52.42z" fill="#ffb2bf"/><path d="m447.57 786.02h52.42v61.53h-52.42z" fill="#ff6d8d"/><path d="m718.87 844.18-48.87 18.94-6.79-17.58-17.47-9 1.06-2a33.48 33.48 0 0 0 2-26.05c-.16-.47-.33-.94-.5-1.4l-4.87-12.56-11.51-29.7 48.89-18.94 13.69 35.36 23.43 60.51z" fill="#ff6d8d"/><path d="m717.91 841.69h-14.51a49.87 49.87 0 0 0 -49.29-33.5l-5.33.23c-.16-.47-.33-.94-.5-1.4l-4.87-12.56 51.07-13.28z" fill="#f4648a"/><path d="m723.7 787.5-87.19 10.4-11.5 1.37-12.42-29.03-147.4-344.66 87.24-37.31 145.59 340.43 16.98 39.69z" fill="#5b4a91"/><path d="m723.7 787.5-87.19 10.4-11.5 1.37-12.42-29.03 10.26-4.98h.01l75.16-36.56 16.98 39.69z" fill="#4b407c"/><path d="m639.57 804.36-11.81 1.34-162.57-380.12 10.48-4.47 162.55 380.12z" fill="#6a5e9e"/><path d="m426.34 453.85v383.06h94.88v-413.42h-64.52a30.36 30.36 0 0 0 -30.36 30.36z" fill="#8a89d9"/><path d="m426.34 789.53v47.38h94.88v-64.43z" fill="#746bb7"/><path d="m729.66 788.44a4.84 4.84 0 0 1 -4 6.41l-86.09 10.27-11.93 1.42a4.84 4.84 0 0 1 -5-3l-8.41-20.34a4.84 4.84 0 0 1 2.36-6.21l9.37-4.55 79-38.43a4.85 4.85 0 0 1 6.7 2.76z" fill="#a695cd"/><circle cx="505.34" cy="444.56" fill="#8a89d9" r="79.09"/><path d="m438.6 444.57c0 2.07.1 4.11.25 6.14-.1 1-.16 2.08-.16 3.14v383.06h-12.34v-383.06c0-1.06 0-2.12.15-3.14-.15-2-.26-4.07-.26-6.14a79.1 79.1 0 0 1 79.1-79.1c2.07 0 4.12.08 6.17.24a79.09 79.09 0 0 0 -72.91 78.86z" fill="#afafe8"/><path d="m629.4 331.8c-47.1 30.11-104.51 24.49-128.59-12.47-34.84 4-66.63-8.45-80.24-34.81-14.09-27.31-4.73-61.88 20.68-88.35a32.88 32.88 0 0 1 -13-10.31c-11.95-16-7.11-40.29 10.31-57.52-3.82-8.75-4.76-17.94-2.12-26.68 7.07-23.37 37.33-35.27 69.85-28.64a.07.07 0 0 1 .05 0 81.59 81.59 0 0 1 25.92-11.86c36.33-9.48 72 6.65 79.66 36a46.88 46.88 0 0 1 -1.4 27.64l.16.16a44 44 0 0 1 13.65 23.14c2.22 10.18.52 20.5-4.27 30 21.67 3.11 40.45 13.7 51.71 31.33 23.91 37.34 4.94 92.14-42.37 122.37z" fill="#fff6bb"/><g fill="#ffe6bb"><path d="m610.52 124.86a45.17 45.17 0 0 0 -1.33-14.86c-7.67-29.38-43.34-45.51-79.65-36-24.84 6.41-43.54 23.18-50.44 42.55 1.9-24.45 23.01-47.55 53.18-55.42 36.33-9.48 72 6.65 79.66 36a46.69 46.69 0 0 1 -1.42 27.73z"/><path d="m629.4 331.8c-32.59 20.83-70.11 24.56-98.11 12.65 25.65 5.55 56.25.05 83.39-17.3 47.31-30.23 66.29-85 42.4-122.41a67 67 0 0 0 -30.78-25.57c19 4.12 35.32 14.31 45.49 30.22 23.89 37.38 4.92 92.18-42.39 122.41z"/><path d="m567.94 215c-37.22 8.13-72.51-8.62-78.8-37.41a42.34 42.34 0 0 1 -.25-16.74c.08.4.16.78.25 1.18 6.29 28.79 41.58 45.54 78.8 37.39 30-6.54 52.11-27.24 56.27-50.11 5.37 28.39-19.54 57.62-56.27 65.69z"/></g><path d="m448 101.66c-2.64 8.74-1.7 17.93 2.12 26.68-17.43 17.23-22.26 41.55-10.32 57.52a33.12 33.12 0 0 0 13 10.31c-25.4 26.47-34.78 61-20.68 88.35 11.16 21.6 34.53 33.89 61.78 35.4-32.06 1.7-60.58-10.81-73.28-35.4-14.09-27.31-4.73-61.88 20.68-88.35a32.88 32.88 0 0 1 -13-10.31c-11.95-16-7.11-40.29 10.31-57.52-3.82-8.75-4.76-17.94-2.12-26.68 6.19-20.46 30.18-32.14 57.89-30.26-22.67 1.6-41.11 12.69-46.38 30.26z" fill="#fdfae4"/><path d="m500.81 319.33c.15.25.32.49.49.72-2.52.05-5 0-7.45-.13 2.3-.11 4.62-.32 6.96-.59z" fill="#fdfae4"/><path d="m517.68 281.69a28.67 28.67 0 0 1 -10.17 21.95l-32.13 27.2-23.55 19.93-35.52 30.07a28.73 28.73 0 1 1 -37.12-43.84l91.21-77.2a28.73 28.73 0 0 1 47.28 21.9z" fill="#ffb2bf"/><path d="m475.38 330.84-23.55 19.93a32.56 32.56 0 0 1 -8.21-21.65v-2.46a67.42 67.42 0 0 1 12.18-38.75 66.65 66.65 0 0 1 7.68-9.17c1.26-1.26 2.55-2.47 3.91-3.61a79.78 79.78 0 0 0 4.55 48.62q1.56 3.66 3.44 7.09z" fill="#ff6d8d"/><path d="m517.68 281.71a27.16 27.16 0 0 1 -.2 3.36 28.73 28.73 0 0 0 -47.08-18.45l-91.21 77.2a28.51 28.51 0 0 0 -10 18.57 28.71 28.71 0 0 1 10-25.4l91.21-77.2a28.72 28.72 0 0 1 47.28 21.92z" fill="#f9e0e5"/><path d="m457.53 177.62a22.29 22.29 0 1 0 25 19.24 22.29 22.29 0 0 0 -25-19.24zm4.72 36.31a18.18 18.18 0 1 1 15.69-20.36 18.17 18.17 0 0 1 -15.69 20.36z" fill="#5b4a91"/><path d="m541.44 196.86a22.29 22.29 0 1 0 25-19.24 22.28 22.28 0 0 0 -25 19.24zm4.58-3.29a18.17 18.17 0 1 1 15.68 20.36 18.18 18.18 0 0 1 -15.7-20.36z" fill="#5b4a91"/><circle cx="559.16" cy="166.65" fill="#ffb2bf" r="16.76"/><path d="m559.36 331v66.2a44.82 44.82 0 0 1 -44.81 44.8 44.82 44.82 0 0 1 -44.81-44.82v-66.18z" fill="#f8f3f4"/><path d="m559.36 331v66.2a44.82 44.82 0 0 1 -89.63 0v-66.2z" fill="#f8f3f4"/><path d="m559.36 377.73.46 21.45c0 24.75-21.43 44.12-47.29 44.12s-46.82-20.06-46.82-44.81v-4.14z" fill="#8a89d9"/><path d="m531.46 199.26v68.49a15.84 15.84 0 0 1 -15.83 15.84h-2.15a15.85 15.85 0 0 1 -15.85-15.84v-68.49a15.85 15.85 0 0 1 15.85-15.85h2.15a15.84 15.84 0 0 1 15.83 15.85z" fill="#ffb2bf"/><path d="m531.46 199.26v39.09a51.62 51.62 0 0 1 -33.83 0v-39.09a15.85 15.85 0 0 1 15.85-15.85h2.15a15.84 15.84 0 0 1 15.83 15.85z" fill="#ff6d8d"/><path d="m562.25 146.68v32.63a50.72 50.72 0 0 1 -.63 8v.08a51.47 51.47 0 0 1 -102.3-8.12v-32.59a51.48 51.48 0 0 1 91.48-32.38c1 1.3 2 2.63 3 4 .27.4.53.81.79 1.22a51 51 0 0 1 7.41 21.71 51.74 51.74 0 0 1 .25 5.45z" fill="#ffb2bf"/><path d="m559.36 331v24.23a181.7 181.7 0 0 1 -89.63 26.49v-50.72z" fill="#efd6d8"/><path d="m510.88 263.15a29.29 29.29 0 0 0 -3.79-3.69 28.7 28.7 0 0 1 -3.67 40.09l-91.2 77.2a28.71 28.71 0 0 1 -36.7.33c.11.13.2.27.3.39a28.74 28.74 0 0 0 40.49 3.36l91.2-77.2a28.73 28.73 0 0 0 3.37-40.48z" fill="#ff6d8d"/><rect fill="#ffb2bf" height="164.61" rx="28.72" transform="matrix(-.99682073 .079677 -.079677 -.99682073 809.58 579.45)" width="57.45" x="364.52" y="223.56"/><rect fill="#f9e0e5" height="48.1" opacity=".38" rx="8.53" transform="matrix(-.99682073 .079677 -.079677 -.99682073 789.01 582.3)" width="17.07" x="374.36" y="282.83"/><g fill="#ffb2bf"><rect height="153.19" rx="28.72" transform="matrix(-.80062681 .59916334 -.59916334 -.80062681 1221.8 237.23)" width="57.45" x="542.71" y="245.27"/><rect height="153.19" rx="28.72" transform="matrix(-.95716803 -.28953301 .28953301 -.95716803 1029.8 963.43)" width="57.45" x="557.42" y="328.96"/><ellipse cx="575.43" cy="464.35" rx="30.39" ry="38.54" transform="matrix(.8369554 -.5472711 .5472711 .8369554 -160.3 390.56)"/></g><path d="m561 481a50.33 50.33 0 0 1 -2.59-4.45c-5.41-10.55-6.41-21.96-3.24-31.09.16-.8.37-1.6.61-2.39l4.14-13.68 16.14-53.39 3.16-10.46-7.81-10.46-40.67-54.34a28.73 28.73 0 0 1 2.49-37.32 16.25 16.25 0 0 0 4.41-7.89l.07-.28a28.74 28.74 0 0 0 -18 45.49l48.49 64.81-23.45 77.51a23.56 23.56 0 0 0 -.6 2.41c-3.61 10.44-1.81 23.85 5.8 35.49 9.45 14.45 24.91 21.78 37.92 19.15-9.95-1.87-20.02-8.62-26.87-19.11z" fill="#ff6d8d"/><rect fill="#f8f3f4" height="8.61" rx="4.3" transform="matrix(-.95716803 -.28953301 .28953301 -.95716803 1010.92 1003.48)" width="76.26" x="541.54" y="422.68"/><rect fill="#f8f3f4" height="8.61" rx="4.3" transform="matrix(-.95716803 -.28953301 .28953301 -.95716803 1019.29 984.08)" width="66.93" x="548.95" y="412.36"/><path d="m400 387.88h-.23c-.78.07-1.55.09-2.32.09a28.73 28.73 0 0 1 -28.6-26.42l-8.53-106.83a28.69 28.69 0 0 1 31.19-30.89 28.7 28.7 0 0 0 -26.11 30.89l8.52 106.83a28.73 28.73 0 0 0 26.08 26.33z" fill="#f9e0e5"/><path d="m583.61 319.65v2.45a32.71 32.71 0 0 1 -32.69 32.71h-70.18a32.73 32.73 0 0 1 -32.74-32.71v-2.45a67.79 67.79 0 1 1 135.58 0z" fill="#f8f3f4"/><path d="m447.69 319.65v2.46a32.71 32.71 0 0 0 32.7 32.7h29.44a80.12 80.12 0 0 1 -38.37-86.69c-1.36 1.14-2.66 2.35-3.91 3.61a66.06 66.06 0 0 0 -7.68 9.17 67.42 67.42 0 0 0 -12.18 38.75z" fill="#fbfbfa"/><path d="m571.44 280.9a77.9 77.9 0 0 1 -52.09 24.41q-2.37.15-4.8.15c-1 0-1.95 0-2.93-.06a77.9 77.9 0 0 1 -52.47-22.95c12.13-18.41 33-31.86 56.67-31.86 18.72 0 35.67 8.88 47.94 21.14a67.48 67.48 0 0 1 7.68 9.17z" fill="#ffb2bf"/><path d="m466.99 416.03 92.57-16.85v-15.31l-92.57 16.85z" fill="#ffda9a"/><rect fill="#ffda9a" height="15.31" rx="7.65" transform="matrix(-.22325012 .97476119 -.97476119 -.22325012 1032.84 104.73)" width="124.34" x="412.52" y="456.26"/><g fill="#8a89d9"><path d="m472.46 395.81h5.78a0 0 0 0 1 0 0v17.71a2.52 2.52 0 0 1 -2.52 2.52h-3.26a0 0 0 0 1 0 0v-20.23a0 0 0 0 1 0 0z"/><path d="m494.91 391.96h5.78v24.2h-5.78z"/><path d="m517.36 388.1h5.78v24.2h-5.78z"/><path d="m539.82 384.25h5.78v24.2h-5.78z"/></g><rect fill="none" height="12.58" rx="2.73" stroke="#fff" stroke-linecap="round" stroke-linejoin="round" stroke-width="4.25" transform="matrix(.97476119 .22325012 -.22325012 .97476119 118.48 -93.19)" width="15.31" x="463.9" y="471.33"/><circle cx="464.8" cy="166.65" fill="#ffb2bf" r="16.76"/><path d="m531.46 785.29v46.77a4.85 4.85 0 0 1 -4.85 4.85h-105.61a4.85 4.85 0 0 1 -4.85-4.85v-29.27a4.85 4.85 0 0 1 4.06-4.78l18.5-3.06 87.13-14.44a4.84 4.84 0 0 1 5.62 4.78z" fill="#edd2f2"/><path d="m512.5 894.33h-77.43a38.72 38.72 0 0 1 77.43 0z" fill="#f8e8e2"/><path d="m433.16 900h83.07a13.14 13.14 0 0 0 13.14-13.14 13.13 13.13 0 0 0 -14.37-13.03l-82.68 8a9.12 9.12 0 0 0 -8.23 9.07 9.11 9.11 0 0 0 9.07 9.1z" fill="#fff"/><circle cx="473.78" cy="861.22" fill="#fff" r="10.31"/><path d="m737.77 888.93-67.22-38.42a38.71 38.71 0 0 1 67.22 38.42z" fill="#e5c7bb"/><path d="m743.56 893.41a13.27 13.27 0 0 1 -18.11 4.93l-29.09-16.62-66.15-37.82a9 9 0 0 1 8.34-16l67.74 32.1 31.42 14.87a13.26 13.26 0 0 1 5.85 18.54z" fill="#f8e8e2"/><circle cx="725.82" cy="839.35" fill="#f8e8e2" r="10.31"/><path d="m639.57 805.12-11.93 1.42a4.84 4.84 0 0 1 -5-3l-8.41-20.34a4.84 4.84 0 0 1 2.36-6.21l9.37-4.55z" fill="#edd2f2"/><path d="m438.69 795v42h-17.69a4.85 4.85 0 0 1 -4.85-4.85v-29.36a4.85 4.85 0 0 1 4.06-4.78l18.5-3.06z" fill="#efdcf4"/><path d="m519.35 305.31q-2.37.15-4.8.15c-1 0-1.95 0-2.93-.06l.88-4.94a3 3 0 0 1 5.89-.06z" fill="#ff6d8d"/><rect fill="#fbfbfa" height="94.31" rx="7.64" transform="matrix(.96106903 -.27630838 .27630838 .96106903 -45.52 122.01)" width="50.85" x="384.76" y="175.38"/><rect fill="#cac4ce" height="94.31" rx="7.64" transform="matrix(.96106903 -.27630838 .27630838 .96106903 -46.44 121.59)" width="50.85" x="382.8" y="178.44"/><circle cx="405.02" cy="195.01" fill="#fbfbfa" r="5.57"/><circle cx="392.11" cy="198.72" fill="#fbfbfa" r="2.9"/><ellipse cx="395.01" cy="246.6" fill="#ffb2bf" rx="30.39" ry="38.54" transform="matrix(.66977887 -.74256062 .74256062 .66977887 -52.68 374.72)"/><path d="m427.4 241.05a47.65 47.65 0 0 0 -8.84-10.63c-15.8-14.25-37.72-15.72-49-3.25-7.3 8.09-8.3 20.06-3.76 31.36-7.89-13-8.13-28.11.56-37.75 11.25-12.46 33.17-11 49 3.25a46.08 46.08 0 0 1 12.04 17.02z" fill="#f9e0e5"/><path d="m554.54 119.55c-7.12 9.18-17.43 18-30 25-24.85 13.83-51 16.38-65.19 7.71v-5.63a51.48 51.48 0 0 1 91.48-32.38 54.3 54.3 0 0 1 3.71 5.3z" fill="#fff6bb"/><path d="m562.25 146.68v31.85a59.47 59.47 0 0 1 -12.17-13.83c-11.38-17.72-12-37.58-1.45-44.36a14.17 14.17 0 0 1 5.12-2c.27.4.53.81.79 1.22a51.24 51.24 0 0 1 7.71 27.12z" fill="#fff6bb"/><path d="m563.12 142.92a52.23 52.23 0 0 1 -.73 8.82 52.36 52.36 0 0 0 -103.22 0 54.39 54.39 0 0 1 -.73-8.82 52.34 52.34 0 1 1 104.68 0z" fill="#5b4a91"/><path d="m459.31 147.83c0 .91 0 1.83.09 2.73-.08.39-.16.79-.22 1.18a53.28 53.28 0 0 1 -.75-8.82 52.4 52.4 0 0 1 63-51.26c-35.43 5.18-62.12 28.34-62.12 56.17z" fill="#6a5e9e"/><ellipse cx="487.4" cy="134.17" fill="#fdfae4" rx="21.1" ry="8.6" transform="matrix(.88571793 -.46422381 .46422381 .88571793 -6.59 241.57)"/><g fill="#5b4a91"><circle cx="458.13" cy="176.63" r="2.28"/><path d="m457.53 177.62a22.29 22.29 0 0 0 -1.4 44l.4-7.84a18.18 18.18 0 0 1 1-35.88 7.9 7.9 0 0 1 .82-.09v-.26c-.25 0-.53.04-.82.07z"/><circle cx="565.83" cy="176.63" r="2.28"/><path d="m565.55 177.53v.26a7.9 7.9 0 0 1 .82.09 18.18 18.18 0 0 1 1 35.88l.4 7.84a22.29 22.29 0 0 0 -1.4-44c-.24-.01-.52-.05-.82-.07z"/><path d="m541.26 162.91a9.18 9.18 0 0 1 -18.35 0 8.64 8.64 0 0 1 .16-1.69 9.17 9.17 0 0 0 18 0 8.64 8.64 0 0 1 .19 1.69z"/><path d="m496 162.91a9.17 9.17 0 0 1 -18.34 0 8.64 8.64 0 0 1 .15-1.69 9.18 9.18 0 0 0 18 0 9.48 9.48 0 0 1 .19 1.69z"/></g><path d="m500.72 176.87a8.29 8.29 0 0 0 2.23 6c.19.2.38.38.58.56a8.23 8.23 0 0 0 5.22 2.07h.33a8.34 8.34 0 0 0 8.54-7.35c0-.22 0-.46 0-.69a1.61 1.61 0 0 0 -1.55-1.66l-13.74-.46a1.6 1.6 0 0 0 -1.61 1.53z" fill="#962f4a"/><path d="m509 184.19a6.13 6.13 0 0 0 .08 1.29 8.32 8.32 0 0 0 8.53-7.35 6.5 6.5 0 0 0 -1.83-.32 6.6 6.6 0 0 0 -6.78 6.38z" fill="#e1617f"/><path d="m502.69 175.33c0 1.63 2.48 3 5.57 3.12s5.64-1.11 5.76-2.74z" fill="#fff"/></svg>