<svg viewBox="0 0 1000 1000" xmlns="http://www.w3.org/2000/svg"><path d="m970.07 820.81a65.94 65.94 0 0 1 15.43 68.83 65 65 0 0 1 -2.94 6.92 65.87 65.87 0 0 1 -59 36.67h-824.56a65.57 65.57 0 0 1 -42-15.16q-2.37-2-4.54-4.13c-.81-.81-1.61-1.64-2.38-2.5a65.61 65.61 0 0 1 -10.08-14.88 61.13 61.13 0 0 1 -2.94-6.92 65.83 65.83 0 0 1 62-88.12h85.84a42.94 42.94 0 0 0 18-3.9 43.57 43.57 0 0 0 12.62-8.77 43.25 43.25 0 0 0 -30.62-73.85h-13.48a100 100 0 0 1 -22.31-2.5h-.11l-.51-.12c-.56-.12-1.11-.26-1.66-.4l-.82-.21c-.72-.19-1.44-.38-2.15-.59s-1.2-.35-1.79-.54a97.43 97.43 0 0 1 -13.12-5 100.15 100.15 0 0 1 -57.4-85.14c-.1-1.82-.15-3.66-.15-5.5 0-.48 0-1 0-1.43a99.89 99.89 0 0 1 49.83-85.1 98.12 98.12 0 0 1 14.47-6.92c2.1-.81 4.23-1.54 6.39-2.21s4.61-1.34 6.91-1.84a100 100 0 0 1 22.42-2.5h73.66a44.1 44.1 0 0 0 44-41.53c0-.85.08-1.71.08-2.58a44.08 44.08 0 0 0 -44.1-44.1h-134.56a104.49 104.49 0 0 1 -36.43-6.52 101.51 101.51 0 0 1 -12-5.35q-2.58-1.35-5.07-2.83-3.55-2.11-6.92-4.5a104.73 104.73 0 0 1 -41.77-63.16c-.5-2.28-.92-4.58-1.26-6.92a105.67 105.67 0 0 1 -1.11-15.3 104.17 104.17 0 0 1 26.71-69.8c1.26-1.42 2.57-2.8 3.91-4.14.95-1 1.92-1.89 2.91-2.79a102.32 102.32 0 0 1 10.62-8.63c.86-.62 1.74-1.21 2.62-1.8 1.41-.94 2.84-1.85 4.3-2.71l.71-.42c1.43-.84 2.89-1.65 4.36-2.41a99.85 99.85 0 0 1 12-5.34 104 104 0 0 1 36.43-6.53 29.15 29.15 0 0 0 26.72-17.47 28.83 28.83 0 0 0 2.26-8.51 25.28 25.28 0 0 0 .16-2.77c0-.13 0-.26 0-.39v-20.81a49.82 49.82 0 0 1 2.06-14.23c.13-.43.26-.86.4-1.28a49.89 49.89 0 0 1 43-34.24c1.49-.13 3-.2 4.51-.2h293a49.81 49.81 0 0 1 34.53 13.86c.27.25.53.51.79.77a49.77 49.77 0 0 1 14.57 33.63v1.67s0 .95 0 1.42a49.39 49.39 0 0 0 .7 7c.08.49.18 1 .27 1.47.19.93.41 1.86.64 2.77a49.61 49.61 0 0 0 3.09 8.51c.44.94.91 1.87 1.4 2.77.23.43.47.85.72 1.27a49.27 49.27 0 0 0 5.16 7.24 48.6 48.6 0 0 0 4.6 4.7c.73.66 1.48 1.29 2.24 1.91a49.81 49.81 0 0 0 31.11 10.86h146.19c2.87 0 5.7.15 8.5.43a82.59 82.59 0 0 1 29 8.51 84.35 84.35 0 0 1 8.09 4.7 82.65 82.65 0 0 1 10.84 8.5c.39.36.79.73 1.17 1.11q1.77 1.7 3.41 3.49a.31.31 0 0 1 .1.1c.31.33.61.66.89 1 .87 1 1.71 1.94 2.52 3 .36.43.71.87 1 1.32s.67.86 1 1.3.68.9 1 1.36q.22.28.42.57c1.08 1.53 2.1 3.1 3.08 4.7.68 1.12 1.33 2.26 2 3.41q1.35 2.51 2.54 5.1 1.06 2.31 2 4.7a79.49 79.49 0 0 1 2.75 8.5c.42 1.55.79 3.12 1.11 4.7a79.66 79.66 0 0 1 1.27 8.51 81.31 81.31 0 0 1 .4 8.15v68.31a54.52 54.52 0 0 0 54.52 54.52h83.06a49 49 0 0 1 23.47 5.95 49.71 49.71 0 0 1 9.7 6.92c.55.5 1.09 1 1.61 1.54a49.2 49.2 0 0 1 -28.37 83.56 48.49 48.49 0 0 1 -6.41.42 30.85 30.85 0 0 0 -30.88 30.88v98.73a63.47 63.47 0 0 1 -30.15 54c-1 .62-2 1.21-3.07 1.77l-1.46.77a3.37 3.37 0 0 1 -.38.19c-.49.25-1 .49-1.48.72a.48.48 0 0 1 -.18.08c-.55.26-1.1.51-1.65.74s-1.18.5-1.77.73a57.45 57.45 0 0 1 -5.63 1.93 63.24 63.24 0 0 1 -17.65 2.49 43.25 43.25 0 1 0 0 86.5h68.52a65.65 65.65 0 0 1 46.56 19.29z" fill="#f3f4fe"/><g fill="#bcbff6"><path d="m701.17 252.41h85.1v85.1h-85.1z"/><path d="m786.27 240.89v4.6h-85.1v-27.85h27.46c2.87 0 5.7.15 8.5.43a82.59 82.59 0 0 1 29 8.51 84.35 84.35 0 0 1 8.09 4.7 82.65 82.65 0 0 1 10.84 8.5c.43.36.83.73 1.21 1.11z"/><path d="m701.17 344.43h85.1v85.1h-85.1z"/><path d="m701.17 436.45h85.1v85.1h-85.1z"/><path d="m701.17 528.47h85.1v85.1h-85.1z"/><path d="m701.17 620.49h85.1v85.1h-85.1z"/><path d="m701.17 712.51h85.1v85.1h-85.1z"/><path d="m701.17 804.53h85.1v85.1h-85.1z"/><path d="m701.17 896.55h85.1v36.68h-85.1z"/><path d="m149.04 252.41h85.1v85.1h-85.1z"/><path d="m149.04 160.39h85.1v85.1h-85.1z"/><path d="m234.14 117.74v35.72h-85.14v-14.92a49.82 49.82 0 0 1 36-20.6c1.49-.13 3-.2 4.51-.2z"/><path d="m149.04 344.43h85.1v82.34h-85.1z"/><path d="m234.13 514.98h.01v6.57h-.01z"/><path d="m149.04 528.47h85.1v85.1h-85.1z"/><path d="m149.04 620.49h85.1v85.1h-85.1z"/><path d="m234.14 712.51v85.1-85.09z"/><path d="m149.04 804.53h85.1v85.1h-85.1z"/><path d="m149.04 896.55h85.1v36.68h-85.1z"/></g><g fill="#edeefe"><path d="m885.21 423.58v283.78a59.65 59.65 0 0 1 -6.92 3.23v-287z"/><path d="m878.29 801.52h6.92v131.71h-6.92z"/><path d="m793.19 248.43v684.8h-6.92v-692.34q1.77 1.7 3.41 3.49a.31.31 0 0 1 .1.1c.31.33.61.66.89 1 .87.96 1.71 1.94 2.52 2.95z"/><path d="m694.25 217.64h6.92v715.59h-6.92z"/><path d="m602.22 217.64h6.93v715.59h-6.93z"/><path d="m517.13 131.6v801.63h-6.93v-807.18a49.44 49.44 0 0 1 6.93 5.55z"/><path d="m418.18 117.74h6.92v815.49h-6.92z"/><path d="m326.16 117.74h6.92v815.49h-6.92z"/><path d="m234.13 117.74h6.93v309.03h-6.93z"/><path d="m234.13 514.98h6.93v418.25h-6.93z"/><path d="m149 138.54v288.23h-6.93v-274.59a49.7 49.7 0 0 1 6.93-13.64z"/><path d="m149 517.5v195l-.51-.12c-.56-.12-1.11-.26-1.66-.4l-.82-.21c-.72-.19-1.44-.38-2.15-.59s-1.2-.35-1.79-.54v-191.3c2.32-.69 4.63-1.34 6.93-1.84z"/><path d="m142.11 801.52h6.93v131.71h-6.93z"/><path d="m57 232.34v179.73q-3.55-2.11-6.92-4.5v-170.72c.86-.62 1.74-1.21 2.62-1.8 1.42-.94 2.85-1.85 4.3-2.71z"/><path d="m57 816.68v101.39q-2.37-2-4.54-4.13c-.81-.81-1.61-1.64-2.38-2.5v-88.11a65.89 65.89 0 0 1 6.92-6.65z"/><path d="m985.5 889.64a65 65 0 0 1 -2.94 6.92h-942.56a61.13 61.13 0 0 1 -2.94-6.92z"/><path d="m943.27 804.54h-864a65.85 65.85 0 0 1 19.76-3h85.87a42.94 42.94 0 0 0 18-3.9h634.1a43 43 0 0 0 18 3.9h68.52a65.85 65.85 0 0 1 19.75 3z"/><path d="m888.28 705.59c-1 .62-2 1.21-3.07 1.77l-1.46.77a3.37 3.37 0 0 1 -.38.19c-.49.25-1 .49-1.48.72a.48.48 0 0 1 -.18.08c-.55.26-1.1.51-1.65.74s-1.18.5-1.77.73a57.45 57.45 0 0 1 -5.63 1.93h-723.66l-.51-.12c-.56-.12-1.11-.26-1.66-.4l-.82-.21c-.72-.19-1.44-.38-2.15-.59s-1.2-.35-1.79-.54a97.43 97.43 0 0 1 -13.12-5z"/><path d="m918.43 613.57v6.93h-846.88c-.1-1.82-.15-3.66-.15-5.5 0-.48 0-1 0-1.43z"/><path d="m955.72 521.55a48.49 48.49 0 0 1 -6.41.42 30.82 30.82 0 0 0 -19 6.5h-809.06a98.12 98.12 0 0 1 14.47-6.92z"/><path d="m982.48 436.45h-709.83a43.87 43.87 0 0 0 -12.2-6.92h712.33a49.71 49.71 0 0 1 9.7 6.92z"/><path d="m811.73 337.51v6.92h-803.42c-.5-2.28-.92-4.58-1.26-6.92z"/><path d="m796.22 252.41h-763.57c1.26-1.42 2.57-2.8 3.91-4.14.95-1 1.92-1.89 2.91-2.79h751.2a76.54 76.54 0 0 1 5.55 6.93z"/><path d="m532 160.39h-391.82a49.68 49.68 0 0 1 1.53-6.93h388.78a49.66 49.66 0 0 1 1.51 6.93z"/></g><g fill="#fff"><circle cx="320.25" cy="248.95" opacity=".51" r="28.71"/><circle cx="712.55" cy="860.92" opacity=".51" r="22.34"/><circle cx="734.73" cy="847.56" opacity=".51" r="13.36"/><circle cx="295.26" cy="862.71" opacity=".51" r="18.35"/><circle cx="313.47" cy="851.75" opacity=".51" r="10.97"/><circle cx="627.14" cy="351.25" opacity=".51" r="44.37"/><circle cx="671.18" cy="324.72" opacity=".51" r="26.53"/><circle cx="687.85" cy="350.09" opacity=".51" r="26.53"/><circle cx="291.54" cy="266.25" opacity=".51" r="28.71"/></g><rect fill="#bcbff6" height="680.67" opacity=".4" rx="34.89" width="352.1" x="311.81" y="251.94"/><rect fill="#c7edef" height="723.51" rx="37.08" width="374.27" x="266.27" y="178.87"/><g fill="#bee8ea"><path d="m541.75 178.87h12.8v723.51h-12.8z"/><path d="m447 178.87h12.8v723.51h-12.8z"/><path d="m352.26 178.87h12.8v723.51h-12.8z"/></g><path d="m603.39 379.19c.15-.22.28-.46.42-.68.28-.45.55-.89.81-1.36l.44-.85q.33-.66.63-1.35c.14-.31.27-.62.39-.94s.36-.95.52-1.45c.11-.31.21-.63.31-.95.16-.54.3-1.1.43-1.67.06-.28.14-.55.2-.84.17-.86.32-1.73.42-2.62 1.48-13.11-5.7-24.69-16-25.85-.13 0-.27 0-.4 0-.46 0-.91-.07-1.35-.07-.23 0-.45 0-.68 0s-.52 0-.78 0c-8.26.81-15.5 8.34-17.72 18.58l-34.36 26.13-42.77-28.7a51.29 51.29 0 0 0 11.25-8.57 51.37 51.37 0 0 0 -6.38-77.85c.06-.31.12-.62.17-.93 0-.1 0-.2 0-.3.17-1.07.29-2.15.38-3.24 0-.22 0-.43.05-.65.08-1.11.14-2.22.14-3.35a46.48 46.48 0 0 0 -46.48-46.48c-1 0-2 0-3 .1h-.44c-.85.06-1.68.14-2.51.25l-.48.06a46.44 46.44 0 0 0 -5.68 1.15l-.28.08c-.83.22-1.65.48-2.46.75l-.4.13a47.2 47.2 0 0 0 -5.29 2.21h-.08c-.81.4-1.6.83-2.38 1.27l-.33.19c-.78.46-1.56.93-2.31 1.43a46.91 46.91 0 0 0 -4.52 3.41l-.31.27c-.63.55-1.25 1.12-1.85 1.7l-.2.19a46.88 46.88 0 0 0 -3.72 4.12c-.12.14-.23.28-.34.43-.47.59-.92 1.19-1.35 1.81-.08.11-.17.22-.25.34a46.49 46.49 0 0 0 -35.26 60.29 46.65 46.65 0 0 0 -20.74 23.13h-.16l-.47-.13c-.88-.25-1.78-.47-2.68-.67l-.24-.06q-1.5-.32-3-.54h-.32c-.9-.12-1.81-.22-2.73-.29h-.55c-1-.07-2.05-.11-3.09-.11a46.27 46.27 0 0 0 -29.61 10.62 46.78 46.78 0 0 0 -10.95 13.08c-.27.49-.54 1-.8 1.5-10 1.56-16.85 12.9-15.4 25.74.1.89.25 1.76.42 2.62.06.29.13.56.2.85.13.56.27 1.12.43 1.66.09.32.2.64.31 1 .16.49.33 1 .52 1.45.12.32.25.63.38.94s.42.91.64 1.35c.14.29.29.57.44.85.25.47.53.91.8 1.36.15.22.28.46.43.68.4.59.81 1.15 1.25 1.69a1.09 1.09 0 0 0 .13.17 23 23 0 0 0 1.55 1.71l.34.31c.44.41.88.81 1.34 1.18l.15.13c.08.14.18.26.27.39s.34.52.53.77.38.5.58.74l.52.63c.27.29.55.57.83.85l.42.43c.46.41.93.82 1.42 1.19l35.32 26.86 14.8 11.26c.58.43 1.17.82 1.78 1.19l.6.32c.42.23.83.45 1.26.65l.71.29c.41.17.83.33 1.25.46.23.08.47.16.71.22.45.13.9.24 1.36.33l.62.13a17.44 17.44 0 0 0 1.77.21h.22a18.39 18.39 0 0 0 2.1 0h.13a17.11 17.11 0 0 0 1.77-.18 22.65 22.65 0 0 0 12.4-3.87l2.1-1.41a46.17 46.17 0 0 0 21.71 5.39 47.14 47.14 0 0 0 9.57-1v36a59.18 59.18 0 0 0 -21.32 45.55v58a6.44 6.44 0 0 0 6.44 6.44h1.95v222c-.65.79-1.25 1.61-1.81 2.44l-.21.31q-.81 1.21-1.5 2.49l-.18.33a33.71 33.71 0 0 0 -2.28 5.41l-.12.38c-.28.89-.51 1.78-.71 2.69 0 .16-.07.33-.11.49-.19.92-.35 1.84-.46 2.76v.26c-.1.87-.16 1.75-.2 2.63v.47c0 .9 0 1.79.06 2.68v.63c.07.89.16 1.78.3 2.67l.09.48c.14.81.3 1.62.5 2.42 0 .16.07.32.12.48.22.86.49 1.71.79 2.55.07.22.15.44.23.66.31.83.66 1.65 1 2.46.09.18.19.36.27.54.38.76.78 1.51 1.21 2.25.07.11.13.23.2.35.48.78 1 1.55 1.55 2.31l.43.57c.55.73 1.14 1.45 1.77 2.14.15.18.32.35.48.52.63.67 1.28 1.33 2 2l.15.15 16.21 14.51 21.9 19.61c.5.45 1 .87 1.56 1.26l.07.05c.5.37 1 .71 1.53 1l.32.18c.45.26.9.51 1.35.73l.45.21c.42.2.85.39 1.28.56l.53.19c.41.15.83.29 1.25.41l.58.16c.41.11.82.2 1.24.28.2 0 .4.09.61.12.42.07.84.13 1.26.17l.59.07c.46 0 .93 0 1.39.06h.38.07a21 21 0 0 0 2.38-.14l.45-.06c.72-.1 1.44-.23 2.16-.4l.24-.05a21.38 21.38 0 0 0 2.31-.74l.41-.16a22.63 22.63 0 0 0 2.13-1h.09a18.39 18.39 0 0 0 1.81-1.08 21.57 21.57 0 0 0 8-25.83l-18.74-47.57c-.2-.52-.42-1-.65-1.51v-109.29l34.51 71a33.5 33.5 0 0 0 -.21 10.36l6.8 50.69a21.57 21.57 0 0 0 18.9 18.57 21.41 21.41 0 0 0 8.87-.83l.15-.06a19.77 19.77 0 0 0 2-.74c.22-.09.43-.2.65-.3.47-.22.93-.46 1.39-.72l.65-.37a20.7 20.7 0 0 0 1.79-1.2l.22-.18c.52-.4 1-.82 1.49-1.27.17-.15.33-.31.49-.47.42-.42.83-.86 1.22-1.31l.32-.37a22.64 22.64 0 0 0 1.34-1.83l.24-.41a18.93 18.93 0 0 0 .93-1.65l.27-.53a23.39 23.39 0 0 0 .9-2.19l6-17.28 10.7-31.06a.24.24 0 0 0 0-.08c.28-.8.51-1.6.72-2.4.06-.22.11-.44.16-.66.18-.74.34-1.48.47-2.21a2.33 2.33 0 0 1 .05-.28q.19-1.25.3-2.49c0-.19 0-.38 0-.57q.07-1.06.09-2.13v-.4c0-.82 0-1.64-.11-2.45 0-.16 0-.33 0-.49-.07-.69-.15-1.37-.26-2.05 0-.16 0-.32-.08-.48-.13-.8-.3-1.59-.49-2.37 0-.12-.07-.24-.1-.36-.18-.68-.37-1.34-.59-2-.06-.16-.11-.33-.17-.5-.26-.76-.55-1.52-.86-2.26 0 0-.05-.09-.07-.14-.3-.7-.63-1.38-1-2l-.24-.45a34.28 34.28 0 0 0 -2.61-4.14l-.23-.31a33.49 33.49 0 0 0 -3.34-3.81l-.09-.08a34 34 0 0 0 -4.07-3.39l-52.12-107.33 7-62.24h5.07a6.44 6.44 0 0 0 6.44-6.44v-58.04a59.21 59.21 0 0 0 -21.79-45.94v-45.06a26.77 26.77 0 0 0 10.07-7.29l18.72 12.59a22.7 22.7 0 0 0 12.4 3.87 17.59 17.59 0 0 0 1.78.18h.12 2.1.23a17.78 17.78 0 0 0 1.77-.21l.62-.13c.45-.09.9-.2 1.35-.32l.72-.23c.42-.13.83-.29 1.24-.45l.72-.3c.42-.2.84-.42 1.26-.65.2-.11.4-.2.6-.32a20.28 20.28 0 0 0 1.77-1.19l16.15-12.28 34-25.83a18.35 18.35 0 0 0 1.42-1.2l.43-.43c.28-.28.56-.56.82-.85s.35-.42.53-.63.39-.48.58-.74l.53-.76.27-.4.15-.13c.46-.37.9-.76 1.34-1.18l.33-.31c.54-.54 1.06-1.1 1.56-1.71l.12-.16c.44-.59.87-1.16 1.26-1.75z" fill="#2b2a41" opacity=".1"/><path d="m409.34 797.39a35.47 35.47 0 0 1 52.79 16.44l19.74 50.08a22.73 22.73 0 0 1 -8.46 27.19 22.72 22.72 0 0 1 -27.84-1.93l-40.1-35.91a35.47 35.47 0 0 1 3.87-55.87z" fill="#f9a0b4"/><path d="m536.8 743a35.48 35.48 0 0 1 29.46 46.8l-17.54 50.9a22.74 22.74 0 0 1 -24.1 15.17 22.73 22.73 0 0 1 -19.9-19.56l-7.16-53.35a35.48 35.48 0 0 1 39.24-39.96z" fill="#ffb2bf"/><path d="m461.46 493.9v330.36a29.89 29.89 0 0 1 -59.77 0v-330.36a29.89 29.89 0 1 1 59.77 0z" fill="#f9a0b4"/><path d="m471.51 892.24a22.73 22.73 0 0 1 -25.94-3.07l-40.11-35.91a35.49 35.49 0 0 1 -3.77-48.93v-310.43a29.87 29.87 0 0 1 29.87-29.9h.14a29.92 29.92 0 0 0 -17.53 27.23v310.44a35.47 35.47 0 0 0 3.83 48.93l.69.62 39.4 35.28a22.74 22.74 0 0 0 13.42 5.74z" fill="#fdc3cd"/><path d="m461.46 493.9v240.69l-29.59-60.93a29.77 29.77 0 0 1 -5.68-21.11l16.21-143.46a29.93 29.93 0 0 1 17.73-24 30.07 30.07 0 0 1 1.33 8.81z" fill="#f291ab"/><path d="m401.69 464h59.76a0 0 0 0 1 0 0v60.41a59.76 59.76 0 0 1 -59.76 59.76 0 0 0 0 1 0 0v-120.17a0 0 0 0 1 0 0z" fill="#f291ab" transform="matrix(-1 0 0 -1 863.14 1048.2)"/><rect fill="#ffb2bf" height="204.11" rx="29.88" transform="matrix(-.99367027 -.11233612 .11233612 -.99367027 884.04 1191.1)" width="59.76" x="445.69" y="468.59"/><path d="m448.31 507.19h59.76v80.55h-59.76z" fill="#f9a0b4" transform="matrix(-.99367027 -.11233612 .11233612 -.99367027 891.87 1145.18)"/><rect fill="#ffb2bf" height="204.11" rx="29.88" transform="matrix(-.89955778 .43680179 -.43680179 -.89955778 1260.53 1128.56)" width="59.76" x="470.62" y="607.16"/><path d="m566.26 789.76-17.54 50.89a22.72 22.72 0 0 1 -14.78 14.35 22.55 22.55 0 0 0 6.71-9.86l17.53-50.91a35.08 35.08 0 0 0 1.92-9.83 35.6 35.6 0 0 0 -15.05-30.75l-4.91-10.11-44.4-91.46-5.57-11.45 1.75-15.45 13.38-118.44a29.89 29.89 0 0 0 -26.3-33.05 32.41 32.41 0 0 0 -3.4-.18 29.65 29.65 0 0 0 -10.15 1.79 29.87 29.87 0 0 1 48 27l-15.21 133.87 54.89 113a35.47 35.47 0 0 1 13.13 40.59z" fill="#fdc3cd"/><path d="m455.32 440.3a62.45 62.45 0 0 1 62.45 62.45v61.11a6.78 6.78 0 0 1 -6.78 6.78h-111.34a6.78 6.78 0 0 1 -6.78-6.78v-61.11a62.45 62.45 0 0 1 62.45-62.45z" fill="#db5a9a"/><circle cx="426.64" cy="258.38" fill="#2b2a41" r="48.93"/><circle cx="473.99" cy="290.98" fill="#2b2a41" r="54.08"/><path d="m512.36 329.09a54.09 54.09 0 0 0 -81.85-70.29 54.09 54.09 0 1 1 81.85 70.29z" fill="#3d3d5e"/><g fill="#2b2a41"><circle cx="405.26" cy="369.01" r="48.93"/><circle cx="457.54" cy="238.22" r="48.93"/><circle cx="457.54" cy="238.22" r="48.93"/></g><path d="m503.56 242.89a49.28 49.28 0 0 0 -1.06-10.17 49.29 49.29 0 0 1 1 9.86 48.6 48.6 0 0 1 -8.88 28.11 48.93 48.93 0 0 0 -83-51.55 49.45 49.45 0 0 1 4.08-6.26 48.93 48.93 0 1 1 81.92 53.45 48.75 48.75 0 0 0 5.94-23.44z" fill="#3d3d5e"/><circle cx="403.62" cy="316.79" fill="#2b2a41" r="48.93"/><circle cx="344.41" cy="345.06" fill="#2b2a41" r="48.93"/><path d="m387.8 322.44a48.95 48.95 0 0 0 -78.8 56.38 48.94 48.94 0 1 1 78.82-56.38z" fill="#1f1f35"/><ellipse cx="454.81" cy="251.04" fill="#2b2a41" rx="46.53" ry="54.84"/><g fill="#ffb2bf"><path d="m505.32 306.18a24 24 0 0 1 24 24v80.08a24 24 0 0 1 -24 24 24 24 0 0 1 -24-24v-80.06a24 24 0 0 1 24-24.02z" transform="matrix(-.5580348 .82981754 -.82981754 -.5580348 1094.55 157.56)"/><rect height="106.24" rx="19.97" transform="matrix(-.60529399 -.796002 .796002 -.60529399 611.11 1056.6)" width="39.95" x="547.54" y="323.67"/><ellipse cx="600.92" cy="346.29" rx="25.15" ry="19.83" transform="matrix(.11233612 -.99367027 .99367027 .11233612 189.33 904.51)"/></g><path d="m614.06 347.79a31.46 31.46 0 0 1 -.75 4.18 26.91 26.91 0 0 1 -9.08 14.68c-12.68 12-57.57 45.38-57.57 45.38a19.85 19.85 0 0 1 -10.95 4 19.92 19.92 0 0 0 17.51-3.32l52.78-40.08a19.84 19.84 0 0 0 4.81-5.27c5.14-4 8.92-10.83 9.82-18.84 1.56-13.81-6-26-16.88-27.22a15.92 15.92 0 0 0 -3.38 0c9.13 2.98 15.1 14.08 13.69 26.49z" fill="#f9a0b4"/><g fill="#ffb2bf"><path d="m400 307.41a24 24 0 0 1 24 24v80.08a24 24 0 0 1 -24 24 24 24 0 0 1 -24-24v-80.06a24 24 0 0 1 24-24z" transform="matrix(.5580348 .82981754 -.82981754 .5580348 485.01 -167.76)"/><path d="m438.85 275.12v42a15 15 0 0 0 30 0v-42a15 15 0 1 0 -30 0z"/><path d="m415.33 391.66v63.69a7.38 7.38 0 0 0 7.39 7.38h64.72a7.38 7.38 0 0 0 7.39-7.38v-63.69z"/></g><path d="m494.82 376.5v56.68l-79.49-16.36v-40.32z" fill="#f9a0b4"/><path d="m512.3 378.75v2.11a28.21 28.21 0 0 1 -28.2 28.2h-60.53a28.21 28.21 0 0 1 -28.2-28.2v-2.11a58.15 58.15 0 0 1 10.52-33.44 4.84 4.84 0 0 1 .33-.46 125.33 125.33 0 0 0 43.91 9.81c.61 0 1.24 0 1.86.06h3.33 1.95 1.87a125.48 125.48 0 0 0 43-8.94c.22.29.41.58.61.88a58.16 58.16 0 0 1 9.55 32.09z" fill="#db5a9a"/><path d="m502.11 345.78q-5 2-10.23 3.58a126.37 126.37 0 0 1 -85.66-4.51 55 55 0 0 1 6.29-7.44c.91-.93 1.88-1.83 2.89-2.71a57.18 57.18 0 0 1 6.66-5l1.27-.8a58.27 58.27 0 0 1 61 0c.63.39 1.24.78 1.85 1.19l1 .67c.89.62 1.76 1.26 2.61 1.91q.64.49 1.26 1l1.24 1.06c.46.4.93.82 1.38 1.23s.64.6.95.91.62.59.9.89.64.64.93 1 .74.78 1.1 1.19.82.94 1.21 1.41.79 1 1.16 1.44.76 1 1.13 1.48.71.98 1.06 1.5z" fill="#ffb2bf"/><path d="m438.85 275.12v32.43a36.51 36.51 0 0 0 30 .79v-33.22a15 15 0 1 0 -30 0z" fill="#f9a0b4"/><g fill="#ffb2bf"><circle cx="416.32" cy="258.21" r="15.32"/><ellipse cx="454.73" cy="254.4" rx="43.3" ry="52.32"/><circle cx="494.12" cy="258.21" r="15.32"/></g><path d="m407.3 257.7a6.64 6.64 0 0 1 4.06-6.12 1.9 1.9 0 0 1 2.57 1.8v8.62a1.92 1.92 0 0 1 -2.75 1.73 6.65 6.65 0 0 1 -3.88-6.03z" fill="#f9a0b4"/><path d="m501.34 257.67a6.62 6.62 0 0 1 -4.06 6.12 1.9 1.9 0 0 1 -2.58-1.8v-8.63a1.92 1.92 0 0 1 2.75-1.73 6.63 6.63 0 0 1 3.89 6.04z" fill="#f9a0b4"/><rect fill="#ffb2bf" height="106.24" rx="19.97" transform="matrix(.60529399 -.796002 .796002 .60529399 -167.57 418.1)" width="39.95" x="317.84" y="324.9"/><ellipse cx="304.41" cy="347.52" fill="#ffb2bf" rx="19.83" ry="25.15" transform="matrix(.99367027 -.11233612 .11233612 .99367027 -37.11 36.39)"/><path d="m291.27 349a31.46 31.46 0 0 0 .75 4.18 26.91 26.91 0 0 0 9.08 14.68c12.68 12 57.57 45.38 57.57 45.38a19.85 19.85 0 0 0 11 4 19.94 19.94 0 0 1 -17.56-3.24l-52.77-40.12a19.84 19.84 0 0 1 -4.81-5.27c-5.14-4-8.92-10.83-9.82-18.84-1.56-13.8 6-26 16.88-27.22a15.92 15.92 0 0 1 3.38 0c-9.13 2.96-15.1 14.06-13.7 26.45z" fill="#f9a0b4"/><path d="m512.3 378.75v2.11a28.21 28.21 0 0 1 -28.2 28.21h-18.83a63 63 0 0 0 26.61-59.71q5.22-1.56 10.23-3.58c.22.29.41.58.61.88a58.16 58.16 0 0 1 9.58 32.09z" fill="#cc488e"/><path d="m457.27 354.76h-1.95c-1.12 0-2.23 0-3.33 0l1.65-5.62a1 1 0 0 1 2 0z" fill="#f9a0b4"/><path d="m499.74 242.89h-58a4.09 4.09 0 0 1 -4-3.11l-1.34-5.78a1.06 1.06 0 0 0 -1.87-.39l-6 7.71a4.12 4.12 0 0 1 -3.24 1.57h-14.2c4.55-24.22 22.67-42.32 44.33-42.32s39.77 18.1 44.32 42.32z" fill="#2b2a41"/><circle cx="455.08" cy="440.3" fill="#f9a0b4" r="4.04"/><path d="m465.53 269.28s-11.63 5.74-21.39 0c0 0 4.21 5.41 10.59 5.43 7.85.02 10.8-5.43 10.8-5.43z" fill="#db5a9a"/><path d="m482.31 256.44a6 6 0 0 1 -12 0 5.86 5.86 0 0 1 .18-1.47 6 6 0 0 0 11.61 0 5.44 5.44 0 0 1 .21 1.47z" fill="#202c47"/><path d="m476.32 235.47a19.82 19.82 0 1 0 19.82 19.82 19.82 19.82 0 0 0 -19.82-19.82zm0 36.89a17.07 17.07 0 1 1 17.07-17.07 17.07 17.07 0 0 1 -17.07 17.07z" fill="#db5a9a"/><path d="m493.39 255.29a17.08 17.08 0 0 1 -17.07 17.07 16.83 16.83 0 0 1 -3.5-.36 15.92 15.92 0 0 1 -3.22-1 12.78 12.78 0 0 1 -1.58-.77 17.12 17.12 0 0 1 -5.84-5.35 17.07 17.07 0 0 1 12.27-26.53c.62-.06 1.24-.1 1.87-.1a16.54 16.54 0 0 1 6 1.09c.55.2 1.08.43 1.6.68a18 18 0 0 1 2.87 1.81 17.06 17.06 0 0 1 6.6 13.46z" fill="#fedd4f" opacity=".24"/><path d="m482.31 239.31-14.31 30.89a17.12 17.12 0 0 1 -5.84-5.35l12.27-26.53c.62-.06 1.24-.1 1.87-.1a16.54 16.54 0 0 1 6.01 1.09z" fill="#fff" opacity=".3"/><path d="m486.78 241.8-14 30.2a15.92 15.92 0 0 1 -3.22-1l14.31-31a18 18 0 0 1 2.91 1.8z" fill="#fff" opacity=".3"/><path d="m440.5 256.44a6 6 0 0 1 -12 0 5.86 5.86 0 0 1 .18-1.47 6 6 0 0 0 11.62 0 5.86 5.86 0 0 1 .2 1.47z" fill="#202c47"/><path d="m434.51 235.47a19.82 19.82 0 1 0 19.82 19.82 19.81 19.81 0 0 0 -19.82-19.82zm0 36.89a17.07 17.07 0 1 1 17.07-17.07 17.08 17.08 0 0 1 -17.07 17.07z" fill="#db5a9a"/><path d="m451.58 255.29a17.07 17.07 0 0 1 -17.07 17.07 16.9 16.9 0 0 1 -3.51-.36 16 16 0 0 1 -3.21-1 12.12 12.12 0 0 1 -1.58-.77 17.06 17.06 0 0 1 6.42-31.88c.62-.06 1.24-.1 1.87-.1a16.47 16.47 0 0 1 6 1.09c.56.2 1.08.43 1.61.68a17.52 17.52 0 0 1 2.89 1.78 17 17 0 0 1 6.58 13.49z" fill="#fedd4f" opacity=".24"/><path d="m440.5 239.31-14.28 30.89a16.94 16.94 0 0 1 -5.84-5.35l12.26-26.53c.62-.06 1.24-.1 1.87-.1a16.47 16.47 0 0 1 5.99 1.09z" fill="#fff" opacity=".3"/><path d="m445 241.8-14 30.2a16 16 0 0 1 -3.21-1l14.31-31a17.52 17.52 0 0 1 2.9 1.8z" fill="#fff" opacity=".3"/><path d="m452.74 251.72h5.63v3.57h-5.63z" fill="#db5a9a"/></svg>