<svg viewBox="0 0 1000 1000" xmlns="http://www.w3.org/2000/svg"><path d="m955.07 792.54a81.28 81.28 0 0 1 -81.28 81.28h-651.26a58.93 58.93 0 0 1 -58.93-58.93v-58.67a43.41 43.41 0 0 0 -43.4-43.41 75 75 0 0 1 -75.05-75v-12.52a75.08 75.08 0 0 1 52.15-71.49c.63-.2 1.26-.4 1.9-.58a75 75 0 0 1 21-3h73.25a43.41 43.41 0 1 0 0-86.81h-56.89a91.42 91.42 0 0 1 0-182.83h117.68a43.42 43.42 0 0 0 43.41-43.41v-6.17a43.41 43.41 0 0 0 -43.41-43.4h-19.17a43.41 43.41 0 0 1 -43.41-43.41v-6.29a43.4 43.4 0 0 1 43.41-43.4h251.41a43.41 43.41 0 0 1 43.41 43.4v6.24a43.41 43.41 0 0 0 43.41 43.41h12.93a49.64 49.64 0 0 1 49.65 49.64 43.41 43.41 0 0 0 43.4 43.41h49.27a91.42 91.42 0 1 1 0 182.83h-21.21a43.41 43.41 0 1 0 0 86.81c1.53 0 3.06 0 4.58.1a101.56 101.56 0 0 1 97 101.45v16.06a43.4 43.4 0 0 0 43.41 43.4h21.49a81.31 81.31 0 0 1 80.67 71.27 82.82 82.82 0 0 1 .58 10.02z" fill="#f0f4ff"/><rect fill="#d2d6fa" height="14.72" rx="7.36" width="61.92" x="779.66" y="907.25"/><rect fill="#d2d6fa" height="14.72" rx="7.36" width="677.13" x="96.53" y="907.25"/><rect fill="#bcbff6" height="801.79" rx="33.08" transform="matrix(-1 0 0 -1 748.33 1012.77)" width="388.38" x="179.98" y="105.49"/><rect fill="#c7cfff" height="801.79" rx="33.08" transform="matrix(-1 0 0 -1 803.43 1012.77)" width="388.38" x="207.53" y="105.49"/><rect fill="#f3f4fe" height="660.15" rx="11.89" transform="matrix(-1 0 0 -1 803.43 992.48)" width="330.87" x="236.28" y="166.17"/><path d="m336.1 105.49h149.34a32 32 0 0 1 32 32 0 0 0 0 1 0 0h-213.32a0 0 0 0 1 0 0 32 32 0 0 1 31.98-32z" fill="#bcbff6" transform="matrix(-1 0 0 -1 821.54 242.96)"/><path d="m351.82 165.21h112.81a28.54 28.54 0 0 1 28.54 28.54v3.44a0 0 0 0 1 0 0h-169.89a0 0 0 0 1 0 0v-3.44a28.54 28.54 0 0 1 28.54-28.54z" fill="#c7cfff" transform="matrix(-1 0 0 -1 816.45 362.4)"/><circle cx="399.2" cy="866.34" fill="#97a1ef" r="28.8"/><circle cx="404.24" cy="866.34" fill="#afb5f2" r="28.8"/><g fill="#c7cfff"><rect height="19.31" rx="2.22" transform="matrix(-1 0 0 -1 540.09 379.01)" width="10.4" x="264.84" y="179.85"/><rect height="5.41" rx=".81" transform="matrix(-1 0 0 -1 540.09 362.4)" width="4.95" x="267.57" y="178.49"/><path d="m299.94 198.16h-16.23v-13.76z"/><circle cx="406.61" cy="743.04" r="11.04"/></g><circle cx="442.98" cy="743.04" fill="#afb5f2" r="11.04"/><circle cx="376.99" cy="743.04" fill="#c7cfff" r="11.04"/><circle cx="504.56" cy="331.01" fill="#c7cfff" r="37.02"/><circle cx="504.56" cy="331.01" fill="#f3f4fe" r="28.44"/><g fill="#c7cfff"><rect height="11.84" rx="5.92" transform="matrix(-1 0 0 -1 764.67 634.98)" width="134.64" x="315.02" y="311.57"/><rect height="11.84" rx="5.92" transform="matrix(-1 0 0 -1 805.9 679.04)" width="93.41" x="356.24" y="333.6"/><rect height="8.58" rx="4.29" transform="matrix(-1 0 0 -1 1057.34 379.01)" width="48.22" x="504.56" y="185.22"/></g><path d="m736.49 900.24a21.64 21.64 0 0 0 -2-27l-56.92-61a17.7 17.7 0 0 0 -27.57 2.04l-13.52 19.72a33.07 33.07 0 0 0 15.65 49.68l58.18 24.32a21.65 21.65 0 0 0 26.18-7.76z" fill="#ef927f"/><path d="m648.12 856.55-100.92-107.4c-13.71-14.6-14.29-38.86-.31-53.49 14.16-14.8 36.45-12.68 48.86 3.89l90.76 121.18c6.72 9 3.57 23.66-6.69 33.12-10.17 9.37-24.19 10.69-31.7 2.7z" fill="#ef927f"/><path d="m611 859.83h130.8a5.57 5.57 0 0 1 5.57 5.57v1.52a21.73 21.73 0 0 1 -21.73 21.73h-98.49a21.73 21.73 0 0 1 -21.73-21.73v-1.52a5.57 5.57 0 0 1 5.57-5.57z" fill="#9689e4" transform="matrix(-.9268566 -.37541557 .37541557 -.9268566 975.2 1938.43)"/><path d="m653.25 869.61 87.28 35.39a47.08 47.08 0 0 0 -87.28-35.34z" fill="#8474d4"/><path d="m707.1 841.32a47.11 47.11 0 0 1 19.07 57.82l14.35 5.86a47.16 47.16 0 0 0 -33.42-63.64z" fill="#9689e4"/><path d="m418.47 403.53a8.44 8.44 0 0 1 -2.3 6c-.19.2-.39.39-.59.57a8.39 8.39 0 0 1 -5.3 2.07h-.34a8.44 8.44 0 0 1 -8.62-7.49c0-.23 0-.47-.05-.7a1.65 1.65 0 0 1 .45-1.17 1.6 1.6 0 0 1 1.14-.51l13.93-.39a1.63 1.63 0 0 1 1.68 1.62z" fill="#962f4a"/><path d="m410.07 410.91a7 7 0 0 1 -.09 1.3h-.05a8.43 8.43 0 0 1 -8.61-7.49 6.7 6.7 0 0 1 8.75 6.19z" fill="#e1617f"/><path d="m416.47 402c0 1.66-2.52 3.06-5.66 3.15s-5.72-1.17-5.83-2.82z" fill="#fff"/><path d="m333.39 391.76a0 0 0 0 1 0 0v121.79a67.71 67.71 0 0 1 -67.71 67.71 0 0 0 0 1 0 0v-121.79a67.71 67.71 0 0 1 67.71-67.71z" fill="#441c19" transform="matrix(-1 0 0 -1 599.06 973.02)"/><g fill="#5c2d27"><path d="m265.68 459.47v121.79a66.81 66.81 0 0 0 14.72-1.62v-120.17a67.73 67.73 0 0 1 53-66.09v-1.61a67.69 67.69 0 0 0 -67.71 67.7z"/><circle cx="336.73" cy="416.81" r="35.57"/><circle cx="382.8" cy="458.05" r="44.47"/></g><path d="m385.81 495v46.9a18.85 18.85 0 1 1 -37.7 0v-46.9a18.85 18.85 0 1 1 37.7 0z" fill="#f5a491"/><path d="m385.81 495v31q-2.25.21-4.56.21a49.84 49.84 0 0 1 -33.14-12.54v-18.67a18.85 18.85 0 1 1 37.7 0z" fill="#ef927f"/><circle cx="370.8" cy="468.4" fill="#f5a491" r="50.06"/><path d="m428.94 428.54a31.83 31.83 0 0 1 -1.06 8.22 32.27 32.27 0 1 1 -34.62-40.31l.84-.08c.85-.07 1.71-.11 2.57-.11.64 0 1.28 0 1.91.06h.57l.82.07.81.1c.88.11 1.75.26 2.62.44.2 0 .38.08.55.12l.79.19a31.54 31.54 0 0 1 3.49 1.12l.71.28c.2.08.39.16.57.25s.56.24.83.37l.69.33.68.35c.22.11.45.24.67.37l.66.37.64.39.65.41c.21.14.42.28.62.43s.42.28.62.43l.61.46c.2.14.4.3.59.46s.4.31.59.48c.39.32.76.65 1.14 1l.55.51.54.53c.18.17.35.36.52.54.35.37.68.74 1 1.12a34.26 34.26 0 0 1 3.14 4.32c.25.42.5.84.73 1.27a31.58 31.58 0 0 1 1.7 3.63c.17.42.33.84.47 1.27.05.12.09.25.13.38s.13.4.19.59.15.51.22.76.15.52.21.77a30.44 30.44 0 0 1 .76 4c0 .23.06.46.08.7.08.68.13 1.38.16 2.08.03.45.04.88.04 1.33z" fill="#5c2d27"/><circle cx="354.41" cy="422.78" fill="#5c2d27" r="38.43"/><path d="m388.76 422.12a39.09 39.09 0 0 1 -39.09 39.09c-1.1 0-2.18 0-3.25-.13a39.09 39.09 0 0 0 0-77.92c1.07-.09 2.15-.14 3.25-.14a39.1 39.1 0 0 1 39.09 39.1z" fill="#723d39"/><path d="m352 452.38a28.1 28.1 0 0 1 -50.35 17.16.31.31 0 0 1 -.07-.09c-.2-.26-.4-.52-.6-.8-.39-.55-.76-1.12-1.11-1.7a2.77 2.77 0 0 1 -.22-.37c-.16-.26-.31-.53-.46-.81-.17-.3-.33-.6-.48-.91a2.59 2.59 0 0 1 -.14-.29c-.13-.25-.24-.51-.35-.77s-.32-.73-.48-1.11-.27-.72-.39-1.08c-.07-.18-.13-.36-.19-.54l-.17-.55a27.43 27.43 0 0 1 -.75-3.16c0-.14-.05-.27-.08-.42-.05-.32-.1-.65-.13-1-.11-.84-.18-1.68-.21-2.54 0-.15 0-.29 0-.44v-.6a28.1 28.1 0 0 1 28.1-28.1h.94.51l.79.05.57.05.95.11c.39.05.78.12 1.17.19a28.09 28.09 0 0 1 23.15 27.72z" fill="#5c2d27"/><circle cx="324.85" cy="484.94" fill="#f5a491" r="12.36"/><ellipse cx="349.98" cy="418.35" fill="#723d39" rx="17.61" ry="25.62"/><path d="m319.74 485a6.45 6.45 0 0 0 4.09 5.84 1.84 1.84 0 0 0 2.45-1.81l-.21-8.38a1.87 1.87 0 0 0 -2.71-1.61 6.43 6.43 0 0 0 -3.62 5.96z" fill="#ef927f"/><circle cx="392.33" cy="472.58" fill="#441c19" r="3.56"/><circle cx="362.51" cy="472.58" fill="#441c19" r="3.56"/><path d="m386.25 487.45a8.47 8.47 0 0 1 -2.3 6c-.19.19-.38.38-.59.56a8.4 8.4 0 0 1 -5.3 2.08h-.34a8.44 8.44 0 0 1 -8.62-7.5c0-.23 0-.46-.05-.69a1.61 1.61 0 0 1 .45-1.17 1.58 1.58 0 0 1 1.14-.51l13.93-.4a1.63 1.63 0 0 1 1.68 1.63z" fill="#962f4a"/><path d="m377.85 494.82a7.09 7.09 0 0 1 -.09 1.31 8.44 8.44 0 0 1 -8.62-7.5 6.7 6.7 0 0 1 8.75 6.19z" fill="#e1617f"/><path d="m384.25 485.87c0 1.65-2.52 3.05-5.66 3.14s-5.72-1.16-5.83-2.81z" fill="#fff"/><rect fill="#f5a491" height="146.68" rx="28.2" transform="matrix(-.59 .81 -.81 -.59 1172 585.73)" width="56.4" x="408.84" y="517.58"/><rect fill="#ef948c" height="66.3" rx="23.06" transform="matrix(.42103581 .90704401 -.90704401 .42103581 784.35 -177.49)" width="46.13" x="508.15" y="492.54"/><rect fill="#f5a491" height="146.68" rx="23.28" transform="matrix(-.89609944 -.44385335 .44385335 -.89609944 688.3 1316.47)" width="46.57" x="474.93" y="504.35"/><rect fill="#f5a491" height="66.3" rx="23.06" transform="matrix(.42103581 .90704401 -.90704401 .42103581 784.35 -177.49)" width="46.13" x="508.15" y="492.54"/><path d="m375.34 576.93a27.84 27.84 0 0 0 8.66 10.19l73 53.17a28 28 0 0 0 16.57 5.41 23.29 23.29 0 0 0 22.24-10.84c8.84-12.83 43.38-87.39 43.38-87.39l10.91-5.07a23.06 23.06 0 0 0 7.81-35.91.79.79 0 0 1 0 .09 22.79 22.79 0 0 1 2.15 9.7 23.06 23.06 0 0 1 -13.35 20.92l-3.83 1.8-7.06 3.28-4.34 8.72s-38.66 78-39 78.59a28.13 28.13 0 0 1 -22.28 10.88 28.08 28.08 0 0 1 -11.62-2.47 28.48 28.48 0 0 1 -5-2.91l-73-53.17a27.48 27.48 0 0 1 -5.24-4.99z" fill="#ef927f"/><g fill="#f5a491"><rect height="63.4" rx="8.34" transform="matrix(.42103581 .90704401 -.90704401 .42103581 771.18 -198.5)" width="16.69" x="532.75" y="473.18"/><rect height="42.66" rx="8.34" transform="matrix(.84675073 .53198985 -.53198985 .84675073 348.65 -199.31)" width="16.69" x="511.88" y="484.07"/><circle cx="518.45" cy="521.78" r="16.44"/></g><rect fill="#ef927f" height="73.91" rx="36.96" transform="matrix(-.99751511 .07045289 -.07045289 -.99751511 1073.43 1414.77)" width="185.1" x="419.19" y="689.38"/><g fill="#f5a491"><rect height="73.91" rx="36.96" transform="matrix(-.99807032 .06209375 -.06209375 -.99807032 1021.08 1534.82)" width="174.49" x="399.45" y="746.32"/><path d="m638.86 883.67-119.4-76c-16.12-10.14-20.37-32.28-8.66-48.94 11.71-16.65 34-20.13 49-8.39l111.91 86.66c9.47 7.41 9.77 23.24 1.06 35.64-8.72 12.36-23.77 17.43-33.91 11.03z"/><path d="m738.51 918.57a21.65 21.65 0 0 0 -4.56-26.7l-66.76-58.42a17.72 17.72 0 0 0 -27.19 4.64l-11.65 20.91a33.08 33.08 0 0 0 20.27 48l64.55 21.76a21.65 21.65 0 0 0 25.34-10.19z"/></g><path d="m399.54 786.39c0 .75 0 1.54.07 2.31a37 37 0 0 0 39.19 34.59l95.87-6 89.52 57a33.05 33.05 0 0 0 24.43 32.71l64.55 21.77a21.64 21.64 0 0 0 27.37-26.08 21.64 21.64 0 0 1 -27.37 15.26l-64.55-21.77c-10.92-3-16.86-11-20-20.72-.91-2.83 1.31-9.07 1.31-9.07l-81.51-51.09-13.76-8.75-15.47 1-80.4 5a37 37 0 0 1 -38.86-31.55 39 39 0 0 0 -.39 5.39z" fill="#ef927f"/><rect fill="#f5a491" height="147.35" rx="28.33" transform="matrix(-.43507396 -.90039472 .90039472 -.43507396 -102.57 1109.78)" width="56.65" x="268.56" y="513.39"/><path d="m231 593.55a28.33 28.33 0 0 0 -2 21.54 24.8 24.8 0 0 1 1.78-16.73c.26-.54.54-1.07.83-1.58a24.79 24.79 0 0 1 11.72-10.45 28.54 28.54 0 0 1 8.09-5.85l81.64-39.48a28.18 28.18 0 0 1 5.54-2 27.93 27.93 0 0 0 -13.2 2.82l-81.67 39.44a28.3 28.3 0 0 0 -12.73 12.29z" fill="#ffc4af"/><rect fill="#ffc4af" height="55.44" rx="9.66" transform="matrix(-.57529081 .81794895 -.81794895 -.57529081 1595.06 774.25)" width="19.32" x="586.86" y="773.51"/><path d="m329.67 595.03h85.99v134.34h-85.99z" fill="#9689e4" transform="matrix(.99815605 -.06070012 .06070012 .99815605 -39.47 23.82)"/><path d="m323.85 597.87 87.65-5.33 2.06 33.94-88.19-3.52z" fill="#8474d4"/><path d="m368.82 527.94h7.67a54.41 54.41 0 0 1 54.41 54.41v1.16a0 0 0 0 1 0 0h-116.49a0 0 0 0 1 0 0v-1.16a54.41 54.41 0 0 1 54.41-54.41z" fill="#f5a491" transform="matrix(.99815605 -.06070012 .06070012 .99815605 -33.02 23.62)"/><rect fill="#9689e4" height="59.01" rx="29.5" transform="matrix(.99815605 -.06070012 .06070012 .99815605 -34.68 23.83)" width="132.66" x="308.91" y="553.71"/><path d="m309 587.24a29.5 29.5 0 0 0 29.44 27.76c.61 0 1.22 0 1.83-.05l7.51-.47a32.55 32.55 0 0 1 2.79-59.28l-13.88.85a29.51 29.51 0 0 0 -27.69 31.19z" fill="#8474d4"/><path d="m335 685.41h101.4a69.8 69.8 0 0 1 69.8 69.8v19.34a50.46 50.46 0 0 1 -50.42 50.45h-107.78a13.66 13.66 0 0 1 -13.66-13.66v-125.24a.69.69 0 0 1 .69-.69z" fill="#ffd21b" transform="matrix(-.99807032 .06209375 -.06209375 -.99807032 886.66 1482.86)"/><path d="m331.06 662.51h87.18v82.54h-87.18z" fill="#ffd21b" transform="matrix(-.99807032 .06209375 -.06209375 -.99807032 792.28 1382.94)"/><path d="m328.59 665.3 4.72 76 .4 6.42.81 12.87a69.79 69.79 0 0 0 74 65.34l101.21-6.3a.69.69 0 0 0 .65-.73l-.59-9.52-83.73 5.2a69.79 69.79 0 0 1 -74-65.32l-.17-2.67-.63-10.21-.39-6.43-1.78-28.53-2.32-37.2z" fill="#ffe05f"/><rect fill="#e1617f" height="42.86" rx="8.38" transform="matrix(-.52398591 .85172693 -.85172693 -.52398591 1119.08 681.05)" width="16.76" x="360.85" y="631.81"/><circle cx="352.76" cy="651.62" fill="#e1617f" r="16.51"/><rect fill="#ef948c" height="66.61" rx="23.17" transform="matrix(-.90296063 .42972328 -.42972328 -.90296063 949.56 1114.55)" width="46.34" x="325.78" y="631.18"/><rect fill="#ef948c" height="63.69" rx="8.38" transform="matrix(-.90296063 .42972328 -.42972328 -.90296063 993.71 1124.03)" width="16.76" x="361.57" y="642.36"/><g fill="#f5a491"><rect height="42.86" rx="8.38" transform="matrix(-.52398591 .85172693 -.85172693 -.52398591 1119.08 681.05)" width="16.76" x="360.85" y="631.81"/><circle cx="352.76" cy="651.62" r="16.51"/><path d="m231.58 596.78c-.29.51-.57 1-.83 1.58a24.8 24.8 0 0 0 -1.75 16.73s0 0 0 0c.09.41.2.81.32 1.2s.2.65.32 1a25.68 25.68 0 0 0 2.07 4.53l.51.82a.86.86 0 0 0 .13.2c.2.31.4.61.62.9s.4.56.61.82l.14.19c.21.26.43.52.65.77l.06.07c.25.28.5.56.76.83s.53.54.81.8v.06c.28.26.55.51.84.75s.6.52.91.76l1 .71a26.34 26.34 0 0 0 3.61 2.13l87.76 42.42a24.94 24.94 0 0 0 21.71-44.9l-87.76-42.43a24.86 24.86 0 0 0 -20.75-.44 24.79 24.79 0 0 0 -11.74 10.5z"/><rect height="66.61" rx="23.17" transform="matrix(-.90296063 .42972328 -.42972328 -.90296063 949.56 1114.55)" width="46.34" x="325.78" y="631.18"/></g><path d="m231.58 596.78c-.29.51-.57 1-.83 1.58a24.8 24.8 0 0 0 -1.75 16.73s0 0 0 0c.09.41.2.81.32 1.2s.2.65.32 1a25.68 25.68 0 0 0 2.07 4.53l.51.82a.86.86 0 0 0 .13.2c.2.31.4.61.62.9s.4.56.61.82l.14.19c.21.26.43.52.65.77l.06.07c.25.28.5.56.76.83s.53.54.81.8v.06c.28.26.55.51.84.75s.6.52.91.76l1 .71a24.35 24.35 0 0 0 3.61 2.14l84.84 41 5.19 10.9a23.16 23.16 0 0 0 27.14 12.35 23.13 23.13 0 0 1 -19.47-13.17l-3.09-6.5-2.1-4.38-10.46-5.06-65.78-31.78-8.63-4.15a24.85 24.85 0 0 1 -13.37-16.56s0 0 0 0a28.29 28.29 0 0 1 2-21.54 28.59 28.59 0 0 1 4.63-6.4 24.79 24.79 0 0 0 -11.68 10.43z" fill="#ffc4af"/><rect fill="#f5a491" height="63.69" rx="8.38" transform="matrix(-.90296063 .42972328 -.42972328 -.90296063 993.71 1124.03)" width="16.76" x="361.57" y="642.36"/><rect fill="#ffc4af" height="28.26" rx="7.32" transform="matrix(-.90296063 .42972328 -.42972328 -.90296063 946.76 1120.5)" width="14.64" x="339.56" y="653.01"/><g fill="#7e7d9e"><path d="m446 678.95h4.29a4.11 4.11 0 0 1 4.11 4.11v2.39a0 0 0 0 1 0 0h-12.47a0 0 0 0 1 0 0v-2.39a4.11 4.11 0 0 1 4.07-4.11z"/><path d="m433.53 678.95h4.29a4.11 4.11 0 0 1 4.11 4.11v2.39a0 0 0 0 1 0 0h-12.51a0 0 0 0 1 0 0v-2.39a4.11 4.11 0 0 1 4.11-4.11z"/><path d="m421 678.95h4.29a4.11 4.11 0 0 1 4.11 4.11v2.39a0 0 0 0 1 0 0h-12.48a0 0 0 0 1 0 0v-2.39a4.11 4.11 0 0 1 4.08-4.11z"/></g><rect fill="#4f4e6d" height="10.19" rx="5.09" width="142.73" x="403.71" y="681.92"/><path d="m453.68 692.11h119.09a10.9 10.9 0 0 0 10.57-8.23l23.21-92.22a10.89 10.89 0 0 0 -10.55-13.55h-105.13a10.9 10.9 0 0 0 -10.57 8.23z" fill="#64617f"/><path d="m606.55 591.66-23.21 92.22a10.91 10.91 0 0 1 -10.57 8.24h-120.93l2.56-10.2h95.94a10.9 10.9 0 0 0 10.57-8.23l23.2-92.22a10.8 10.8 0 0 0 .32-3.36h11.57a10.9 10.9 0 0 1 10.55 13.55z" fill="#4f4e6d"/><path d="m525.23 633.62a10.59 10.59 0 0 0 19.9 5 10.6 10.6 0 0 1 -14.85-9.7 10.7 10.7 0 0 1 1.27-5 10.56 10.56 0 0 0 -6.32 9.7z" fill="#7e7d9e"/><path d="m424.21 790.35c1.57.08 3.15.08 4.74 0l47.7-1.81a5.13 5.13 0 1 0 -.39-10.26l-47.7 1.81a46.8 46.8 0 0 1 -47.16-35.75l-6.53-27.24a5.13 5.13 0 0 0 -10 2.4l6.53 27.23a57.11 57.11 0 0 0 52.81 43.62z" fill="#ffe05f"/><path d="m619.57 897.27h125.65a4.86 4.86 0 0 1 4.86 4.86 19 19 0 0 1 -19 19h-97.42a19 19 0 0 1 -19-19 4.86 4.86 0 0 1 4.86-4.86z" fill="#9689e4" transform="matrix(-.93 -.38 .38 -.93 973.64 2008.01)"/><path d="m657.14 901 87.28 35.35a47.08 47.08 0 0 0 -87.28-35.35z" fill="#9689e4"/><path d="m711 872.7a47.1 47.1 0 0 1 19.08 57.82l14.35 5.81a47.07 47.07 0 0 0 -26-61.3 46 46 0 0 0 -7.43-2.33z" fill="#b2aaf9"/></svg>