<svg viewBox="0 0 1000 1000" xmlns="http://www.w3.org/2000/svg"><path d="m683.44 453.45a36 36 0 0 0 -.2 3.76v1.1s0 .59 0 .88 0 .59.06.88 0 .52.06.78.07.63.11.95.11.76.17 1.14c0 .21.07.43.11.64s.09.51.15.77c.11.56.24 1.12.38 1.67 0 .17.08.33.13.49s.16.58.24.86.17.57.27.86c.28.88.6 1.74.94 2.58.18.43.36.85.55 1.26a1.76 1.76 0 0 0 .09.2c.08.18.16.36.25.53s.16.34.25.5l.33.64.31.57c.22.41.45.81.7 1.2.11.19.22.37.34.55.24.39.49.77.75 1.15s.62.88.94 1.31l.09.12c.29.38.59.76.89 1.12l.25.3c.27.32.54.63.82.94a.86.86 0 0 0 .13.14c.36.4.72.78 1.1 1.16s.65.63 1 .94l.48.43c.31.28.63.56 1 .82l.67.55.18.14 1 .74a4.44 4.44 0 0 0 .38.27.61.61 0 0 0 .14.1c.23.17.47.33.71.49l1 .64c.21.14.43.27.65.39s.42.25.63.36.45.26.68.38l.19.1c.35.19.71.37 1.07.55l.23.1c.37.19.75.36 1.13.52.16.08.33.15.51.22l1.07.43.65.23.53.19c.55.19 1.12.37 1.68.52.28.09.57.16.85.23q1.29.35 2.61.57l.74.13c.36 0 .73.11 1.1.15.7.09 1.41.16 2.12.2h.11c.75.05 1.5.07 2.26.07h105.98c1.35 0 2.71 0 4.05.06h1.13q3.09.1 6.13.36l.94.08.67.06 1.42.14c.54.05 1.07.11 1.61.18s1 .11 1.49.18c1.15.14 2.29.3 3.43.48l1.61.25h.21l1.47.25c1.26.22 2.52.46 3.78.73l2.43.52 2.42.56c1.5.37 3 .76 4.47 1.18l.33.09c.59.16 1.18.33 1.76.51 1 .3 2 .62 3 .94l1.59.53c.93.31 1.86.63 2.78 1s1.77.64 2.64 1h.1c.92.35 1.82.71 2.72 1.08s1.8.75 2.69 1.14c.74.32 1.46.64 2.19 1 .34.14.66.3 1 .45h.06c.69.32 1.37.64 2.06 1 1.74.84 3.46 1.73 5.16 2.65q2 1.1 4 2.26l1.72 1c.51.3 1 .61 1.51.92q5.5 3.42 10.64 7.33l1.35 1q3.39 2.64 6.61 5.49l1.18 1.06c.2.17.39.35.57.52.43.39.84.77 1.25 1.17s.73.68 1.09 1q3.66 3.5 7 7.26c.49.54 1 1.09 1.46 1.64l.9 1 1.37 1.62c.59.72 1.18 1.44 1.76 2.18q2.67 3.35 5.1 6.85c.43.61.85 1.22 1.27 1.84.24.35.47.71.71 1.07.39.59.78 1.18 1.16 1.78a137 137 0 0 1 21.56 74v3.31s-.06 2.19-.12 3.29-.11 2.18-.19 3.26-.16 2.17-.27 3.25c-.08.9-.18 1.8-.28 2.69 0 .37-.08.73-.13 1.1-.11.88-.22 1.76-.35 2.64q-.22 1.56-.48 3.12a.29.29 0 0 1 0 .09c-.17 1-.35 2.09-.55 3.12-.12.62-.24 1.24-.37 1.86s-.23 1.12-.35 1.68c-.2.9-.4 1.8-.62 2.7s-.48 2-.74 3-.59 2.19-.9 3.27-.58 2-.88 2.91-.62 1.93-.94 2.88a.36.36 0 0 1 0 .11c-.33 1-.68 2-1 2.93a.58.58 0 0 1 -.05.14c-.35 1-.7 1.89-1.07 2.82s-.74 1.86-1.12 2.78a1.34 1.34 0 0 0 -.07.18c-.4.94-.8 1.88-1.22 2.8s-.85 1.89-1.3 2.83c-.36.76-.73 1.53-1.1 2.28l-.4.8-1 1.87c-.22.44-.46.88-.7 1.31s-.45.85-.68 1.26-.49.9-.75 1.34-.62 1.09-.93 1.63c-.21.38-.44.76-.67 1.13-.34.54-.69 1.08-1 1.63-.15.27-.32.53-.5.8-.44.73-.9 1.45-1.37 2.16s-1.13 1.72-1.71 2.57-1.12 1.63-1.7 2.43q-2.7 3.81-5.69 7.42c-.65.79-1.31 1.57-2 2.35s-1.34 1.55-2 2.31-1.63 1.8-2.47 2.68-1.78 1.85-2.68 2.75c-2.75 2.74-5.6 5.37-8.57 7.86-1.24 1-2.5 2.07-3.77 3.06-.32.26-.65.51-1 .75l-.2.16q-1.92 1.49-3.9 2.88c-.54.39-1.09.78-1.65 1.16l-1.15.79q-2.26 1.53-4.59 3c-.65.41-1.31.81-2 1.2h-.06c-.8.47-1.6.94-2.42 1.4s-1.66.93-2.5 1.38-1.66.89-2.5 1.32l-.11.06-2.54 1.27q-2 1-4.12 1.92c-.59.27-1.19.53-1.8.79-1.4.6-2.81 1.18-4.23 1.73-.64.26-1.29.5-1.93.74l-1.93.71-2.23.97c-1.57.53-3.16 1-4.77 1.51l-2.06.59c-.7.2-1.4.39-2.11.57s-1.41.37-2.12.54l-1.88.45a136.8 136.8 0 0 1 -19.45 3l-1.68.13-1.86.12c-1.24.08-2.49.13-3.74.17-1.42 0-2.84.06-4.27.06h-90.36a27.08 27.08 0 0 0 -10 1.89c-.32.12-.63.25-.94.39l-.64.29c-.29.13-.58.27-.86.42s-.41.21-.62.33a22.53 22.53 0 0 0 -2.31 1.4c-.28.18-.55.38-.83.58-.61.45-1.21.93-1.79 1.43l-.14.13-.72.66-.17.16c-.2.19-.4.39-.59.59-.39.4-.76.81-1.12 1.22s-.51.61-.76.92c-.27.33-.52.67-.76 1a26 26 0 0 0 -2 3.22.41.41 0 0 0 -.06.11c-.15.29-.3.59-.44.89-.23.47-.44.95-.63 1.43s-.3.77-.44 1.17-.26.77-.38 1.16a.94.94 0 0 0 0 .16c-.12.39-.23.78-.32 1.18s-.2.84-.29 1.27c-.08.42-.15.85-.22 1.28a.34.34 0 0 0 0 .1c-.06.41-.11.84-.15 1.26s-.07.74-.09 1.11 0 1 0 1.52v102h-456.81v-101.91c0-.74 0-1.46-.1-2.18a27.3 27.3 0 0 0 -27.22-25.14h-53.69c-2 0-4 0-5.93-.13-1 0-1.93-.1-2.89-.16s-1.68-.12-2.51-.19c-1.11-.09-2.21-.2-3.31-.32-.86-.09-1.71-.2-2.56-.31l-.87-.11-1.87-.27-.59-.09c-.88-.14-1.76-.28-2.64-.44a132.35 132.35 0 0 1 -109.23-130.38v-10.41a150.36 150.36 0 0 1 1-17.75 127.6 127.6 0 0 1 4.72-22.62 113.22 113.22 0 0 1 13.12-28.4 117.53 117.53 0 0 1 22.77-25.86c19.26-16.44 41.76-25.86 59.55-31.18a43.94 43.94 0 0 0 31.24-42.1v-43a63 63 0 0 1 56.64-62.69q1.84-.19 3.72-.27c.88 0 1.77-.06 2.66-.06a48.57 48.57 0 0 0 48.43-44.55c.1-1.33.16-2.68.16-4a48.6 48.6 0 0 0 -48.59-48.59h-28a83.61 83.61 0 1 1 0-167.21h526a97.92 97.92 0 0 1 97.95 97.91 69.31 69.31 0 0 0 64 69.09c1.74.13 3.5.2 5.27.2a83.52 83.52 0 0 1 83.6 83.61c0 1.77-.06 3.54-.17 5.28a83.28 83.28 0 0 1 -24.28 53.82c-.53.53-1.06 1-1.6 1.56s-1.07 1-1.61 1.48-1.1 1-1.66 1.45-1 .85-1.51 1.26c-.67.56-1.35 1.1-2.05 1.62-.49.38-1 .75-1.5 1.12-.69.51-1.4 1-2.12 1.5-.49.34-1 .67-1.5 1l-.22.15c-.48.31-1 .61-1.46.91-.75.47-1.51.93-2.29 1.37s-1.29.73-1.94 1.08-1.31.7-2 1-1.33.67-2 1-1.33.62-2 .91a.08.08 0 0 1 -.07 0c-.65.3-1.32.58-2 .85a.19.19 0 0 1 -.09 0c-.67.27-1.35.54-2 .8-2.05.77-4.14 1.47-6.26 2.08l-1.1.31-1.44.38c-.62.17-1.25.31-1.88.46-1.19.27-2.39.52-3.59.74l-1.87.32-1.47.22-.74.1-1.76.22c-1.1.12-2.22.23-3.35.3-.67.05-1.34.09-2 .12l-1.83.07h-2.16-178.93c-.73 0-1.46 0-2.18.07l-.94.07-1.44.15c-.43.06-.86.11-1.29.19s-.88.15-1.31.24l-.42.09c-.28.06-.57.12-.85.2s-.56.13-.84.21-.57.15-.85.24l-.66.2q-.5.15-1 .33l-.65.23c-.85.31-1.69.65-2.51 1l-1.16.56a35.6 35.6 0 0 0 -6.58 4.29c-.4.32-.78.65-1.16 1s-.76.68-1.12 1-.72.71-1.06 1.08c-.33.35-.65.71-1 1.07l-.06.06s-.05.05-.06.08c-.26.28-.5.57-.74.87s-.55.69-.81 1a35.43 35.43 0 0 0 -6.87 17.84z" fill="#fffaf4"/><g fill="#f8efe6"><path d="m692.43 414.06a108.92 108.92 0 0 1 -1.72 19.33c-.11.67-.24 1.34-.37 2a35.43 35.43 0 0 0 -6.9 17.61 36 36 0 0 0 -.2 3.76v1.1q-2 4.65-4.5 9.06-1.85 3.31-3.9 6.48c-1.94 3-4 5.87-6.24 8.64a108.78 108.78 0 0 1 -76.07 40.58c-3 .24-6 .37-9 .37a108.64 108.64 0 0 1 -54.84-14.8q-4.29-2.49-8.3-5.36a109.27 109.27 0 0 1 -38-48.35 107.6 107.6 0 0 1 -3.54-10.34 109.58 109.58 0 0 1 -2.74-48 67.71 67.71 0 0 1 4.32-115.39 67.18 67.18 0 0 1 28.35-8.47c1.57-.11 3.16-.17 4.76-.17a67.59 67.59 0 0 1 58.46 33.63 110.25 110.25 0 0 1 11.55-.61 108.84 108.84 0 0 1 108.88 108.93z"/><circle cx="848.75" cy="305.13" r="67.67"/><path d="m653.67 257.59a67.68 67.68 0 1 1 -37.65-102 80.29 80.29 0 1 1 37.65 102z"/><path d="m509.83 583.62a80.26 80.26 0 0 1 -129.09 63.72 51.77 51.77 0 0 1 -46.58 31.12 80.29 80.29 0 1 1 -145.16 68.54 79.76 79.76 0 0 1 -16.18-10.82 134.54 134.54 0 0 1 -26.33 29.54 132.35 132.35 0 0 1 -109.28-130.39v-10.41a150.36 150.36 0 0 1 1-17.75 127.6 127.6 0 0 1 4.7-22.64 113.22 113.22 0 0 1 13.12-28.38 117.53 117.53 0 0 1 22.77-25.86 133.93 133.93 0 0 1 103.71 77 80.26 80.26 0 0 1 99.53 11.47 51.81 51.81 0 0 1 67.46-41.22 80.27 80.27 0 0 1 80-74.19c1.93 0 3.84.07 5.74.2a80.3 80.3 0 0 1 74.59 80.07z"/></g><path d="m683.44 453a36 36 0 0 0 -.2 3.76v1.1s0 .59 0 .88 0 .59.06.88 0 .52.06.78.07.63.11 1 .11.76.17 1.14c0 .21.07.43.11.64s.09.51.15.77c.11.56.24 1.12.38 1.67 0 .17.08.33.13.49s.16.58.24.86.17.57.27.86c.28.88.6 1.74.94 2.58.18.43.36.85.55 1.26a1.76 1.76 0 0 0 .09.2c.08.18.16.36.25.53s.16.34.25.5l.33.64.31.57c.22.41.45.81.7 1.2a5.46 5.46 0 0 0 .34.55c.24.39.49.77.75 1.15s.62.88.94 1.31l.09.12c.29.38.59.76.89 1.12l.25.3c.27.32.54.63.82.94a.86.86 0 0 0 .13.14c.36.4.72.78 1.1 1.16s.65.63 1 .94l.48.43c.31.28.63.56 1 .82l.67.55.18.14 1 .74a4.44 4.44 0 0 0 .38.27.61.61 0 0 0 .14.1 8.17 8.17 0 0 0 .71.49l1 .64c.21.14.43.27.65.39s.42.25.63.36.45.26.68.38l.19.1c.35.2.71.38 1.07.55l.23.1c.37.19.75.36 1.13.52.16.08.33.15.51.22l1.07.43.65.23.53.19c.55.19 1.12.37 1.68.52.28.09.57.16.85.23q1.29.35 2.61.57l.74.13c.36.05.73.11 1.1.15.7.09 1.41.16 2.12.2h.11c.75.05 1.5.07 2.26.07h105.98c1.35 0 2.71 0 4.05.06h1.13q3.09.11 6.13.36l.94.08.67.06 1.42.14c.54.05 1.07.11 1.61.18s1 .11 1.49.18c1.15.14 2.29.3 3.43.48l1.61.25h.21l1.47.25c1.26.22 2.52.46 3.78.73l2.43.52 2.42.56c1.5.37 3 .76 4.47 1.18l.33.09c.59.16 1.18.33 1.76.51 1 .3 2 .62 3 .94l1.59.53c.93.31 1.86.63 2.78 1s1.77.64 2.64 1h.1c.92.35 1.82.71 2.72 1.08s1.8.75 2.69 1.14c.74.32 1.46.64 2.19 1 .34.14.66.3 1 .45h.06c.69.32 1.37.64 2.06 1 1.74.84 3.46 1.73 5.16 2.65q2 1.1 4 2.26l1.72 1c.51.3 1 .61 1.51.92q5.5 3.42 10.64 7.33l1.35 1.05q3.39 2.64 6.61 5.49l1.18 1.06c.2.17.39.35.57.52.43.39.84.77 1.25 1.17s.73.68 1.09 1q3.66 3.5 7 7.26c.49.54 1 1.09 1.46 1.64l.9 1 1.37 1.62c.59.72 1.18 1.44 1.76 2.18q2.67 3.35 5.1 6.85c.43.61.85 1.22 1.27 1.84.24.35.47.71.71 1.07.39.59.78 1.18 1.16 1.78a137 137 0 0 1 21.56 74v3.31s-.06 2.19-.12 3.29-.11 2.18-.19 3.26-.16 2.17-.27 3.25c-.08.9-.18 1.8-.28 2.69 0 .37-.08.73-.13 1.1-.11.88-.22 1.76-.35 2.64q-.22 1.56-.48 3.12a.29.29 0 0 1 0 .09c-.17 1-.35 2.09-.55 3.12-.12.62-.24 1.24-.37 1.86s-.23 1.12-.35 1.68c-.2.9-.4 1.8-.62 2.7s-.48 2-.74 3-.59 2.19-.9 3.27-.58 1.95-.88 2.91-.62 1.93-.94 2.88a.36.36 0 0 1 0 .11c-.33 1-.68 2-1 2.93a.58.58 0 0 1 -.05.14c-.35.95-.7 1.89-1.07 2.82s-.74 1.86-1.12 2.78a1.34 1.34 0 0 0 -.07.18c-.4.94-.8 1.88-1.22 2.8s-.85 1.89-1.3 2.83c-.36.76-.73 1.53-1.1 2.28l-.4.8-1 1.87c-.22.44-.46.88-.7 1.31s-.45.85-.68 1.26-.49.9-.75 1.34-.62 1.09-.93 1.63-.47.81-.72 1.21-.64 1.07-1 1.6c-.14.25-.3.5-.47.75-.44.73-.9 1.45-1.37 2.16-.56.86-1.13 1.72-1.71 2.57s-1.12 1.63-1.7 2.43q-2.7 3.81-5.69 7.42c-.65.79-1.31 1.57-2 2.35s-1.34 1.55-2 2.31-1.63 1.8-2.47 2.68-1.68 1.75-2.54 2.61q-4.19 4.19-8.71 8c-1.24 1-2.5 2.07-3.77 3.06-.32.26-.65.51-1 .75l-.2.16q-1.92 1.49-3.9 2.88c-.54.39-1.09.78-1.65 1.16l-1.15.79q-2.26 1.53-4.59 3c-.65.41-1.31.81-2 1.2h-.06c-.8.47-1.6.94-2.42 1.4s-1.66.93-2.5 1.38-1.66.89-2.5 1.32l-.11.06-2.54 1.27q-2 1-4.12 1.92c-.59.27-1.19.53-1.8.79-1.4.6-2.81 1.18-4.23 1.73-.64.26-1.29.5-1.93.74l-1.93.71-2.23.77c-1.57.53-3.16 1-4.77 1.51l-2.06.59c-.7.2-1.4.39-2.11.57s-1.41.37-2.12.54l-1.88.45a136.8 136.8 0 0 1 -19.45 3l-1.68.13-1.86.12c-1.24.08-2.49.13-3.74.17-1.42 0-2.84.06-4.27.06h-90.34a27.08 27.08 0 0 0 -10 1.89c-.32.12-.63.25-.94.39l-.64.29c-.29.13-.58.27-.86.42s-.41.21-.62.33a22.53 22.53 0 0 0 -2.31 1.4c-.28.19-.56.38-.83.58-.61.45-1.21.93-1.79 1.43l-.14.13q-.36.31-.72.66l-.17.16c-.2.19-.4.39-.59.59-.39.4-.76.81-1.12 1.22s-.52.61-.76.92c-.27.33-.52.67-.76 1a26 26 0 0 0 -2 3.22.41.41 0 0 0 -.06.11c-.16.29-.31.59-.44.89-.23.47-.44 1-.63 1.43s-.3.77-.44 1.17-.26.77-.38 1.16a.94.94 0 0 0 0 .16c-.12.39-.23.78-.32 1.18s-.21.85-.29 1.27c-.09.42-.16.85-.22 1.28a.34.34 0 0 0 0 .1c-.06.41-.11.84-.15 1.26s-.07.74-.09 1.11 0 1 0 1.52v43.67h-456.81v-43.48c0-.74 0-1.46-.1-2.18a80 80 0 0 1 -47.73-25.14h-33.18c-2 0-4 0-5.93-.13-1 0-1.93-.1-2.89-.16s-1.68-.12-2.51-.19c-1.11-.09-2.21-.2-3.31-.32-.86-.09-1.71-.2-2.56-.31l-.87-.11-1.87-.27-.59-.09c-.88-.14-1.76-.28-2.64-.44a132.35 132.35 0 0 1 -109.23-130.38v-10.41a150.36 150.36 0 0 1 1-17.75 82.51 82.51 0 0 1 59.64 79.28 82.29 82.29 0 0 1 -3.62 24.24h.24a46 46 0 0 1 43.53 31.31 62.25 62.25 0 0 1 119-6.71 94.2 94.2 0 0 1 116.65-81.58 69.5 69.5 0 0 1 -.57-8.82 73.3 73.3 0 0 1 .43-7.88 70.77 70.77 0 0 1 22.09-44 70.67 70.67 0 0 1 37-18.19 122.46 122.46 0 0 1 -3.82-25.82c-.09-1.8-.13-3.62-.13-5.44 0-2.69.09-5.36.25-8a123.48 123.48 0 0 1 49.89-91.46c1.16-.86 2.34-1.71 3.54-2.53a123.1 123.1 0 0 1 38-17.55q4.1-1.1 8.3-1.91a121.35 121.35 0 0 1 17.85-2.11 71.56 71.56 0 0 1 -.76-7.37c0-.81-.06-1.62-.06-2.44a65.06 65.06 0 0 1 2.39-17.19c-1.2-.46-2.36-.93-3.54-1.43a104.94 104.94 0 0 1 -15.82-8.32 101 101 0 0 1 -8.3-5.88 105.86 105.86 0 0 1 -40.78-83.6c0-.69 0-1.37 0-2.05a105.89 105.89 0 0 1 .77-10.9 106.12 106.12 0 0 1 51.52-78.53 106.14 106.14 0 0 1 88.47-8.83 105.28 105.28 0 0 1 169.26 75.84c.61-.06 1.22-.11 1.83-.14 1-.07 2.07-.1 3.12-.1a48.35 48.35 0 0 1 30 10.41 48.93 48.93 0 0 1 15 19.93 132.66 132.66 0 0 1 70.62-22.48c1.18 0 2.36-.05 3.55-.05a132.86 132.86 0 0 1 50.61 9.95 83.24 83.24 0 0 1 17.07 50.63c0 1.77-.06 3.54-.17 5.28a83.28 83.28 0 0 1 -24.26 53.79c-.53.53-1.06 1.05-1.6 1.56s-1.07 1-1.61 1.48-1.1 1-1.66 1.45-1 .85-1.51 1.26c-.67.56-1.35 1.1-2.05 1.62-.49.38-1 .75-1.5 1.12-.69.51-1.4 1-2.12 1.5-.49.34-1 .67-1.5 1l-.22.15c-.48.31-1 .61-1.46.91-.75.47-1.51.93-2.29 1.37s-1.29.73-1.94 1.08-1.31.7-2 1-1.33.67-2 1-1.33.62-2 .91a.08.08 0 0 1 -.07 0c-.65.3-1.32.58-2 .85a.19.19 0 0 1 -.09 0c-.67.27-1.35.54-2 .8-2.05.77-4.14 1.47-6.26 2.08l-1.1.31-1.44.38c-.6.16-1.21.3-1.81.44-1.22.28-2.44.54-3.67.76l-1.86.32-1.47.22-.74.1-1.76.22c-1.1.12-2.22.23-3.35.3-.67 0-1.34.09-2 .12l-1.92.17h-2.16-178.84c-.76 0-1.51 0-2.26.08l-.86.06-1.38.14c-.45.06-.9.12-1.35.2s-.88.15-1.31.24l-.42.09c-.28.06-.57.12-.85.2s-.56.13-.84.21-.57.15-.85.24l-.66.2q-.5.15-1 .33l-.65.23c-.86.32-1.71.67-2.54 1l-1.13.55a35.6 35.6 0 0 0 -6.58 4.29c-.4.32-.78.65-1.16 1s-.76.68-1.12 1-.72.71-1.06 1.08c-.33.35-.66.7-1 1.07l-.06.06s-.05.05-.06.08c-.26.28-.5.57-.74.87s-.55.69-.81 1.05a35.43 35.43 0 0 0 -6.87 17.73z" fill="#fff7f0"/><path d="m511.16 328.81a84.62 84.62 0 0 0 56.21 50.06 84.79 84.79 0 0 1 66.63-154.15 84.8 84.8 0 0 0 -122.84 104.09z" fill="#fff" opacity=".36"/><path d="m981.48 337.4c0 1.77-.06 3.54-.17 5.28-1.16-1.36-2.38-2.7-3.64-4a86.46 86.46 0 0 0 -147.52 46.18 87 87 0 0 1 -.48-14.79 86.5 86.5 0 0 1 148.54-55.51l.16.17a83.57 83.57 0 0 1 3.11 22.67z" fill="#fff" opacity=".36"/><rect fill="#d5cdc3" height="17.61" rx="8.8" transform="matrix(-1 0 0 -1 220.04 1811.52)" width="74.06" x="72.99" y="896.96"/><rect fill="#d5cdc3" height="17.61" rx="8.8" transform="matrix(-1 0 0 -1 1118.38 1811.52)" width="809.94" x="154.22" y="896.96"/><path d="m674 376.07a32.85 32.85 0 0 1 -52.24 26.48l-22.2-16.25-.08-.07-4-2.92-62.06-45.37a32.81 32.81 0 0 1 6.63-56.75 27.31 27.31 0 0 1 2.56-1 32.69 32.69 0 0 1 29.59 4.69l88.37 64.61a32.82 32.82 0 0 1 13.43 26.58z" fill="#f9a0b4"/><path d="m674 376.07a32.71 32.71 0 0 1 -6.34 19.36 31.26 31.26 0 0 1 -3.43 4 32.86 32.86 0 0 0 -10-41.28l-88.38-64.63a32.84 32.84 0 0 0 -42.44 3.14 34.2 34.2 0 0 1 2.89-4.66 32.84 32.84 0 0 1 45.9-7.12l88.37 64.61a32.82 32.82 0 0 1 13.43 26.58z" fill="#ffb2bf"/><path d="m320.82 376.07a32.84 32.84 0 0 0 52.23 26.48l22.23-16.25.09-.07 4-2.92 62.05-45.37a32.81 32.81 0 0 0 -6.63-56.75c-.84-.36-1.7-.69-2.55-1a32.71 32.71 0 0 0 -29.6 4.69l-88.37 64.61a32.84 32.84 0 0 0 -13.45 26.58z" fill="#f9a0b4"/><path d="m320.82 376.07a32.77 32.77 0 0 0 6.33 19.36 31.26 31.26 0 0 0 3.43 4 32.86 32.86 0 0 1 10-41.28l88.39-64.63a32.83 32.83 0 0 1 42.43 3.14 34.2 34.2 0 0 0 -2.82-4.58 32.84 32.84 0 0 0 -45.9-7.12l-88.37 64.61a32.84 32.84 0 0 0 -13.49 26.5z" fill="#ffb2bf"/><circle cx="496.45" cy="118.88" fill="#ffc535" r="61.37"/><circle cx="497.79" cy="134.09" fill="#f63e4a" r="31.01"/><path d="m477.3 233.94v57.45a20.5 20.5 0 0 0 41 0v-57.45a20.5 20.5 0 1 0 -41 0z" fill="#ffb2bf"/><path d="m439.82 393.26v88.09a59.67 59.67 0 1 0 119.34 0v-88.09z" fill="#f63e4a"/><path d="m439.82 372.54v88.13l119.34-25.85v-62.28z" fill="#e1303e"/><path d="m595 386.14v3.26a43.35 43.35 0 0 1 -1 9.53l-.09-.07-4-2.92-62-45.37a32.69 32.69 0 0 1 -10.3-12.49 32.76 32.76 0 0 1 19.54-36.2c.61.22 1.21.46 1.82.7a88.26 88.26 0 0 1 13 6.59c1.5.91 2.94 1.87 4.36 2.87a88.07 88.07 0 0 1 7.88 6.14 89.83 89.83 0 0 1 30.92 68z" fill="#f9a0b4"/><path d="m588.06 378.1v3.26a43.55 43.55 0 0 1 -43.54 43.55h-93.45a43.55 43.55 0 0 1 -43.54-43.55v-3.26a89.67 89.67 0 0 1 13.47-47.45c.85-1.42 1.78-2.81 2.73-4.17a85.75 85.75 0 0 1 10.27-12.2c1.42-1.45 2.92-2.84 4.46-4.19a84.22 84.22 0 0 1 10.3-7.74c.65-.43 1.31-.85 2-1.24a88.29 88.29 0 0 1 14.71-7.28 90.37 90.37 0 0 1 66.5.71 87.5 87.5 0 0 1 13 6.59c1.48.91 2.94 1.85 4.36 2.86a87.78 87.78 0 0 1 7.88 6.15 89.12 89.12 0 0 1 16.1 18.42q.68 1 1.32 2.07a89.52 89.52 0 0 1 13.43 47.47z" fill="#f63e4a"/><path d="m588.06 378.09v3.26a43.55 43.55 0 0 1 -43.55 43.55h-29.06a97.23 97.23 0 0 0 32.3-121.9c.52.34 1 .68 1.51 1a88.07 88.07 0 0 1 7.88 6.14 89.83 89.83 0 0 1 30.92 68z" fill="#ff6473"/><path d="m477.3 233.94v44.34a49.89 49.89 0 0 0 41 1.07v-45.41a20.5 20.5 0 1 0 -41 0z" fill="#f9a0b4"/><circle cx="446.51" cy="210.82" fill="#ffb2bf" r="20.94"/><ellipse cx="499.01" cy="205.61" fill="#ffb2bf" rx="59.19" ry="71.52"/><path d="m434.16 210.13a9.09 9.09 0 0 1 5.56-8.37 2.6 2.6 0 0 1 3.52 2.47v11.77a2.64 2.64 0 0 1 -3.76 2.37 9.1 9.1 0 0 1 -5.32-8.24z" fill="#f9a0b4"/><circle cx="476.89" cy="213.44" fill="#604646" r="4.5"/><circle cx="521.12" cy="213.44" fill="#604646" r="4.5"/><path d="m514.21 230.34a14.76 14.76 0 0 1 -4.29 10.57c-.35.35-.7.67-1.07 1a15.14 15.14 0 0 1 -9.57 3.51h-.61a15.13 15.13 0 0 1 -8.93-2.75 14.81 14.81 0 0 1 -6.28-10.67 10.19 10.19 0 0 1 -.07-1.24 2.84 2.84 0 0 1 .83-2 2.93 2.93 0 0 1 2.06-.87l25-.3a2.9 2.9 0 0 1 2.93 2.75z" fill="#962f4a"/><path d="m499 243.12a11.55 11.55 0 0 1 -.2 2.29h-.08a15 15 0 0 1 -15.26-13.41 12 12 0 0 1 15.54 11.12z" fill="#e1617f"/><path d="m509.31 227.5c-.08 2.92-4.62 5.32-10.24 5.38s-10.21-2.21-10.37-5.13z" fill="#fff"/><path d="m493.47 244.56a15.37 15.37 0 0 0 5.2.85h.61a15.32 15.32 0 0 0 5.14-1 12.75 12.75 0 0 0 -10.95.11z" fill="#fff"/><circle cx="552.86" cy="210.82" fill="#ffb2bf" r="20.94"/><path d="m562.73 210.09a9.07 9.07 0 0 1 -5.55 8.36 2.59 2.59 0 0 1 -3.52-2.46v-11.8a2.64 2.64 0 0 1 3.76-2.37 9.09 9.09 0 0 1 5.31 8.27z" fill="#f9a0b4"/><g fill="#ffc535"><circle cx="521.58" cy="145.78" r="35.02"/><circle cx="477.3" cy="159.56" r="30.22"/><circle cx="450.53" cy="178.55" r="23.03"/><circle cx="552.19" cy="175.79" r="20.27"/></g><path d="m556.6 145.78a34.39 34.39 0 0 1 -.75 7.21 35 35 0 0 0 -66.85-9.15 23.14 23.14 0 0 0 -2.32-.89 29.53 29.53 0 0 0 -9.81-1.65 30.16 30.16 0 0 0 -25.65 14.25 29.54 29.54 0 0 0 -3.76 9 28.18 28.18 0 0 0 -.58 3.2 23 23 0 0 0 -18.82 16 24.16 24.16 0 0 1 -.58-5.2 23 23 0 0 1 19.81-22.8 30.23 30.23 0 0 1 42.12-23.88 35 35 0 0 1 67.17 13.91z" fill="#f4ad18"/><path d="m572.46 175.78a20 20 0 0 1 -1.13 6.68 20.21 20.21 0 0 0 -16.62-14.74 33.94 33.94 0 0 0 1.46-10c0-.61 0-1.23 0-1.83a20.26 20.26 0 0 1 16.29 19.89z" fill="#f4ad18"/><path d="m574.57 330.63c-18.71 13.58-46.17 22.13-76.76 22.13s-58.07-8.55-76.78-22.11c.85-1.42 1.78-2.81 2.73-4.17a85.75 85.75 0 0 1 10.24-12.2c1.42-1.45 2.92-2.84 4.46-4.19a84.22 84.22 0 0 1 10.3-7.74c.65-.43 1.31-.85 2-1.24a88.29 88.29 0 0 1 14.71-7.28 90.37 90.37 0 0 1 66.5.71 87.5 87.5 0 0 1 13 6.59c1.48.91 2.94 1.85 4.36 2.86a87.78 87.78 0 0 1 7.88 6.15 89.12 89.12 0 0 1 16.1 18.42q.62 1.02 1.26 2.07z" fill="#ffb2bf"/><rect fill="#9acfe2" height="11.96" rx="5.98" width="48.96" x="473.32" y="281"/><path d="m477.58 439.4a51.59 51.59 0 0 1 .31 38.37 43.29 43.29 0 0 1 -21.39 23.23 4.39 4.39 0 0 1 -.44.21c-.69.33-1.39.63-2.11.92l-81.13 32.44a33.16 33.16 0 0 1 -26.88-1.21 39 39 0 0 1 -15-12.91 41 41 0 0 1 -4.19-7.67c-8.14-19.55.51-41.68 18.49-48.87l122.53-49z" fill="#9b7d63"/><path d="m639.47 823a25.07 25.07 0 0 1 -4.56.29 24.61 24.61 0 0 1 -23.22-19.14l-16.4-72.08 58.37 1.75 6.48 62.34a24.61 24.61 0 0 1 -20.67 26.84z" fill="#ffb2bf"/><path d="m653.66 733.84-58.37-1.75-33.29-190.49a34.1 34.1 0 1 1 67.27-10.53z" fill="#9b7d63"/><path d="m653.66 733.84-10.77-.32-24-202.66a34.11 34.11 0 0 0 -27.49-30.09 34.11 34.11 0 0 1 38.27 30.41z" fill="#c9a788"/><path d="m649.38 896.48a18.93 18.93 0 0 0 14.41-18.81l-2.27-77.6a15.5 15.5 0 0 0 -19.2-14.7l-20.29 5a28.93 28.93 0 0 0 -18.71 41.56l24.46 54.36a19 19 0 0 0 21.6 10.19z" fill="#ffb2bf"/><path d="m649.38 896.48a18.72 18.72 0 0 1 -9.81-.21 2.33 2.33 0 0 0 .36-.08 18.92 18.92 0 0 0 14.4-18.81l-1.78-60.78-.49-16.82a15.55 15.55 0 0 0 -1.67-6.68l-.81-7.78-5.37-51.76 9.45.28 6.18 59.57a15.19 15.19 0 0 1 1.68 6.66l2.27 77.6a18.94 18.94 0 0 1 -14.41 18.81z" fill="#f9e0e5" opacity=".38"/><path d="m661.08 718.94-4.56 20.17-12.34 1.35-51.36 5.64-8.83-18.69 57.61-6.32z" fill="#59442a"/><path d="m407 671.85a24.55 24.55 0 0 0 17.25-28.8l-15.52-72.27-52.15 26.22 20.42 59.23a24.59 24.59 0 0 0 30 15.62z" fill="#ffb2bf"/><path d="m356.58 597 52.19-26.19-17.72-82.5a34.1 34.1 0 1 0 -65.44 18.81z" fill="#9b7d63"/><path d="m356.58 597 9.63-4.83-31-89.88a34.11 34.11 0 0 1 12.24-38.88 34.12 34.12 0 0 0 -21.88 43.72z" fill="#c9a788"/><path d="m429 742.64a18.93 18.93 0 0 1 -21-11l-30.66-71.32a15.5 15.5 0 0 1 11.2-21.43l20.51-4a28.94 28.94 0 0 1 34.49 29.8l.73 59.6a18.93 18.93 0 0 1 -15.27 18.35z" fill="#ffb2bf"/><path d="m429 742.64a18.67 18.67 0 0 0 8.8-4.33 3.58 3.58 0 0 1 -.35.09 18.94 18.94 0 0 1 -21-11l-24-55.87-6.65-15.45a15.55 15.55 0 0 1 -1.3-6.77l-2.5-7.38-17-49.2-8.42 4.27 19.51 56.62a15.09 15.09 0 0 0 1.28 6.74l30.63 71.3a18.94 18.94 0 0 0 21 10.98z" fill="#f9e0e5" opacity=".38"/><path d="m343.57 586.59 12.63 16.37 11.76-3.98 48.96-16.55.12-20.67-54.9 18.56z" fill="#59442a"/><path d="m353.35 375.69h78.4a10.59 10.59 0 0 1 10.59 10.59 10.59 10.59 0 0 1 -10.59 10.59h-78.4a0 0 0 0 1 0 0v-21.18a0 0 0 0 1 0 0z" fill="#59442a" transform="matrix(-1 0 0 -1 795.69 772.56)"/><circle cx="545.27" cy="807.82" fill="#9b7d63" r="15.89"/><circle cx="449.93" cy="807.82" fill="#9b7d63" r="15.89"/><g fill="#59442a"><rect height="96.57" rx="19.97" width="39.95" x="505.32" y="754.94"/><rect height="96.57" rx="19.97" width="39.95" x="449.93" y="754.94"/><path d="m550.58 375.69h78.42a10.59 10.59 0 0 1 10.59 10.59 10.59 10.59 0 0 1 -10.59 10.59h-78.4a0 0 0 0 1 0 0v-21.18a0 0 0 0 1 0 0z"/></g><path d="m550.58 375.69h41.33v21.18h-41.33z" fill="#3e2e19"/><path d="m401.99 375.69h41.33v21.18h-41.33z" fill="#3e2e19"/><g fill="#362714"><path d="m496.45 370.5v31.56h-83.59a5.38 5.38 0 0 1 -5.39-5.39v-20.78a5.39 5.39 0 0 1 5.39-5.39z"/><rect height="141.91" rx="30.26" width="60.52" x="469.91" y="754.94"/><path d="m530.42 785.2v81.39a29.4 29.4 0 0 1 -.46 5.26 30.25 30.25 0 0 1 -59.59 0 29.4 29.4 0 0 1 -.46-5.26v-81.39a30.26 30.26 0 1 1 60.51 0z"/></g><path d="m573.64 797.35h-146.95a28.55 28.55 0 0 1 -28.46-26.13l-19.73-231.49a122.11 122.11 0 0 1 121.67-132.47 122.1 122.1 0 0 1 121.66 132.47l-19.73 231.49a28.55 28.55 0 0 1 -28.46 26.13z" fill="#9b7d63"/><path d="m622.28 529.19c0 3.48-.15 7-.45 10.54l-19.73 231.49a28.56 28.56 0 0 1 -28.46 26.14h-43.17l14.34-168.36c.31-3.55.45-7.07.45-10.56a122.2 122.2 0 0 0 -164.59-114.3 122.12 122.12 0 0 1 241.61 25.05z" fill="#89684e"/><path d="m494.6 606.22a27.38 27.38 0 0 1 27.4 27.38v150.73a0 0 0 0 1 0 0h-54.78a0 0 0 0 1 0 0v-150.73a27.38 27.38 0 0 1 27.38-27.38z" fill="#59442a"/><path d="m549.14 797.36h-122.45a28.46 28.46 0 0 1 -18.78-7.05 70.79 70.79 0 0 1 141.23 7.05z" fill="#59442a"/><path d="m500.17 620.65a21.82 21.82 0 0 1 21.83 21.81v120.1a0 0 0 0 1 0 0h-43.65a0 0 0 0 1 0 0v-120.1a21.82 21.82 0 0 1 21.82-21.81z" fill="#4c361e"/><path d="m561.16 797.36h-122a61 61 0 1 1 122 0z" fill="#4c361e"/><path d="m585.45 375.27v22a4.77 4.77 0 0 1 -4.78 4.77h-84.22v-31.54h84.22a4.78 4.78 0 0 1 4.78 4.77z" fill="#362714"/><circle cx="496.45" cy="541.6" fill="#89684e" r="58.26"/><circle cx="500.16" cy="538.34" fill="#c9a788" r="50.41"/><path d="m529.69 566.35a40.21 40.21 0 0 1 -33.34 11.51 40.32 40.32 0 0 0 -11.11-77.08 40.33 40.33 0 0 1 44.45 65.57z" fill="#c1946f"/><path d="m564.26 386.28a63.52 63.52 0 0 1 -2 15.78h-124.26a64.5 64.5 0 0 1 0-31.56h124.29a63.58 63.58 0 0 1 1.97 15.78z" fill="#1c1206"/><circle cx="500.16" cy="386.28" fill="#59442a" r="50.41"/><path d="m550.58 386.28a50.48 50.48 0 0 1 -61.86 49.11 50.43 50.43 0 0 0 0-98.22 51.39 51.39 0 0 1 11.45-1.29 50.41 50.41 0 0 1 50.41 50.4z" fill="#362714"/><circle cx="500.16" cy="386.28" fill="#fff3e4" r="35.65"/><path d="m532 386.28a30.7 30.7 0 0 1 -30.7 30.7 31.78 31.78 0 0 1 -4.82-.38 30.7 30.7 0 0 0 0-60.64 31.78 31.78 0 0 1 4.82-.37 30.69 30.69 0 0 1 30.7 30.69z" fill="#fff" opacity=".42"/><path d="m470.61 386.28a22.32 22.32 0 0 1 25.84-22.06 22.34 22.34 0 0 0 0 44.13 23.62 23.62 0 0 1 -3.5.27 22.34 22.34 0 0 1 -22.34-22.34z" fill="#f9ebdc"/><g fill="#1c1206"><path d="m530.42 861.68v4.91a29.4 29.4 0 0 1 -.46 5.26h-59.59a29.4 29.4 0 0 1 -.46-5.26v-4.91z"/><path d="m469.91 836.06h60.52v10.17h-60.52z"/><path d="m469.91 810.44h60.52v10.17h-60.52z"/></g><g fill="#9b7d63"><path d="m663.8 877.5a19.28 19.28 0 0 1 -5 13.34 19.62 19.62 0 0 1 -32.14-4.45l-3.35-7.4-21.75-48c-9-17 .57-37.86 19.41-42.5l20.94-5.14a15.87 15.87 0 0 1 19.76 15z"/><path d="m656.89 777.43-48.39-2.18a4.49 4.49 0 0 0 -4.64 5.16l3.61 23.94 54.18-2.66.94-18a6 6 0 0 0 -5.7-6.26z"/><path d="m661.57 818-8.85-4.79 5.85-21c2.1-7.52 10-11.77 15.87-8.57 5.91 3.2 6.65 12.1 1.5 18z"/></g><g fill="#c9a788"><rect height="5.33" rx="2.67" width="21.59" x="649.48" y="823.71"/><rect height="5.33" rx="2.67" width="21.59" x="649.48" y="833.49"/><rect height="5.33" rx="2.67" width="21.59" x="649.48" y="843.27"/><path d="m658.8 890.84a19.62 19.62 0 0 1 -32.14-4.45l-3.35-7.4a22 22 0 0 1 35.49 11.85z"/></g><g fill="#ffb2bf"><rect height="47.67" rx="23.83" width="56.67" x="341.18" y="356.37"/><rect height="47.67" rx="23.83" width="56.67" x="597" y="356.37"/></g></svg>