<svg viewBox="0 0 1000 1000" xmlns="http://www.w3.org/2000/svg"><path d="m967.85 820.51a65.94 65.94 0 0 1 15.43 68.83 65 65 0 0 1 -2.94 6.92 66 66 0 0 1 -41.94 34.42 63 63 0 0 1 -8 1.63 66.07 66.07 0 0 1 -9.06.62h-824.52a65.57 65.57 0 0 1 -42-15.16q-2.37-1.95-4.54-4.13c-.81-.81-1.61-1.64-2.38-2.5-1-1.09-1.93-2.21-2.83-3.37a64.78 64.78 0 0 1 -7.27-11.51c-.27-.54-.53-1.08-.78-1.63q-1.2-2.6-2.16-5.29a65.74 65.74 0 0 1 10.14-62.94c.9-1.16 1.85-2.28 2.83-3.37a65.67 65.67 0 0 1 48.95-21.81h85.86q1.62 0 3.21-.12a42.58 42.58 0 0 0 8.05-1.36 41.77 41.77 0 0 0 6.7-2.42 43.57 43.57 0 0 0 12.62-8.77 43.07 43.07 0 0 0 12.71-30.55 41.74 41.74 0 0 0 -.28-4.9 43.29 43.29 0 0 0 -31.71-36.87 42.85 42.85 0 0 0 -8.05-1.36q-1.59-.12-3.21-.12h-13.48a100 100 0 0 1 -22.31-2.5h-.07l-.51-.12c-.56-.12-1.11-.26-1.66-.4l-.82-.21c-.72-.19-1.44-.38-2.15-.59s-1.2-.35-1.79-.54a97.43 97.43 0 0 1 -13.12-5.05c-.94-.44-1.88-.89-2.8-1.37-1.52-.77-3-1.57-4.48-2.42q-4.15-2.37-8-5.14c-2.16-1.53-4.25-3.15-6.28-4.84q-3.48-2.89-6.68-6.1a99.62 99.62 0 0 1 -29.2-65.27q-.06-1.11-.09-2.22c0-1.09-.06-2.19-.06-3.28 0-.48 0-1 0-1.43a100.82 100.82 0 0 1 .88-12 99.82 99.82 0 0 1 41.36-68.22q3.68-2.62 7.59-4.89c.15-.09.3-.18.46-.26a98.3 98.3 0 0 1 14-6.66c2.1-.81 4.23-1.54 6.39-2.21s4.59-1.31 6.93-1.84a100 100 0 0 1 22.38-2.52h73.66a44.2 44.2 0 0 0 25.52-8.13 44.66 44.66 0 0 0 5.66-4.79 44 44 0 0 0 12.84-28.61c.05-.85.08-1.71.08-2.58a44.13 44.13 0 0 0 -16.53-34.42c-.67-.54-1.35-1-2.05-1.54a42.68 42.68 0 0 0 -8.05-4.53c-.69-.31-1.39-.59-2.1-.85a43.74 43.74 0 0 0 -15.37-2.76h-134.55a104.49 104.49 0 0 1 -36.43-6.46 101.51 101.51 0 0 1 -12-5.35q-2.58-1.35-5.07-2.83-3.55-2.11-6.92-4.5c-1-.68-1.9-1.37-2.83-2.08a100.32 100.32 0 0 1 -8-6.79c-.9-.83-1.78-1.68-2.65-2.55a104.34 104.34 0 0 1 -28.29-51.77q-.18-.79-.33-1.59c-.36-1.76-.67-3.53-.93-5.33a105.67 105.67 0 0 1 -1.11-15.3c0-.4 0-.8 0-1.2a104.1 104.1 0 0 1 23.8-65.23c.94-1.14 1.91-2.27 2.9-3.37 1.26-1.42 2.57-2.8 3.91-4.14.87-.87 1.75-1.72 2.65-2.55l.26-.24c.75-.7 1.5-1.38 2.27-2.05q2.68-2.35 5.52-4.5c.93-.71 1.87-1.4 2.83-2.08s1.74-1.21 2.62-1.8c1.41-.94 2.84-1.85 4.3-2.71l.71-.42c1.43-.84 2.89-1.65 4.36-2.41a99.85 99.85 0 0 1 12-5.34 104 104 0 0 1 36.43-6.53 30 30 0 0 0 3.16-.17 28.55 28.55 0 0 0 8-2.07 29.17 29.17 0 0 0 15.56-15.23 28.83 28.83 0 0 0 2.26-8.51 25.28 25.28 0 0 0 .16-2.77c0-.13 0-.26 0-.39v-20.81a49.82 49.82 0 0 1 2.06-14.23c.13-.43.26-.86.4-1.28a49.89 49.89 0 0 1 43-34.24c1-.09 2-.15 3-.18h1.49 293c1.11 0 2.2 0 3.29.11a48.51 48.51 0 0 1 8.05 1.18 49.86 49.86 0 0 1 23.19 12.57c.27.25.53.51.79.77a49.77 49.77 0 0 1 14.59 33.65v1.67s0 1 0 1.42a49.39 49.39 0 0 0 .7 7c.08.49.18 1 .27 1.47.19.93.41 1.86.64 2.77a49.61 49.61 0 0 0 3.09 8.51c.44.94.91 1.87 1.4 2.77.23.43.47.85.72 1.27a49.27 49.27 0 0 0 5.16 7.24 48.6 48.6 0 0 0 4.6 4.7c.73.66 1.48 1.29 2.24 1.91a49.82 49.82 0 0 0 9 5.68c.63.32 1.27.62 1.92.91a49.71 49.71 0 0 0 20.24 4.27h146.15c2.87 0 5.7.15 8.5.43a82.59 82.59 0 0 1 29 8.51 83.61 83.61 0 0 1 17.51 11.91c.48.43.95.85 1.42 1.29s.79.73 1.17 1.11c.87.83 1.71 1.67 2.51 2.54.32.31.61.63.9 1a.31.31 0 0 1 .1.1c.31.33.61.66.89 1s.72.8 1.06 1.21c.5.57 1 1.15 1.46 1.74.36.43.71.87 1 1.32s.67.86 1 1.3.68.9 1 1.36q.22.28.42.57c.65.92 1.28 1.85 1.89 2.8.4.63.8 1.26 1.19 1.9.68 1.12 1.33 2.26 2 3.41q1.35 2.5 2.54 5.1 1.07 2.31 2 4.7a79.49 79.49 0 0 1 2.75 8.5c.42 1.55.79 3.12 1.11 4.7a79.66 79.66 0 0 1 1.27 8.51 81.31 81.31 0 0 1 .4 8.15v68.31a54.46 54.46 0 0 0 54.5 54.48h83.13a49 49 0 0 1 23.47 6 49.71 49.71 0 0 1 9.7 6.92c.55.5 1.09 1 1.61 1.54a50.65 50.65 0 0 1 3.47 3.85 49.21 49.21 0 0 1 0 61.87 50.65 50.65 0 0 1 -3.47 3.85 49 49 0 0 1 -28.37 14 48.49 48.49 0 0 1 -6.41.42 31.14 31.14 0 0 0 -8.69 1.24 30.35 30.35 0 0 0 -8 3.69c-.77.49-1.51 1-2.23 1.57a30.85 30.85 0 0 0 -11.91 24.38v98.73a63.12 63.12 0 0 1 -14.4 40.24 60.91 60.91 0 0 1 -4.18 4.62 62.63 62.63 0 0 1 -9.47 7.78c-.69.48-1.39.93-2.1 1.37-1 .62-2 1.21-3.07 1.77l-1.46.77a3.37 3.37 0 0 1 -.38.19c-.49.25-1 .49-1.48.72a.48.48 0 0 1 -.18.08c-.55.26-1.1.51-1.65.74s-1.18.5-1.77.73a57.45 57.45 0 0 1 -5.63 1.93 63 63 0 0 1 -6.48 1.52 64.56 64.56 0 0 1 -8.05.9c-1 .05-2.09.08-3.14.08a43.26 43.26 0 0 0 -43 38.35 41.74 41.74 0 0 0 -.28 4.9 43.24 43.24 0 0 0 43.26 43.25h68.52a64.52 64.52 0 0 1 9.06.63 63 63 0 0 1 8 1.62c.89.24 1.77.5 2.65.77a65.78 65.78 0 0 1 26.78 16.21z" fill="#f3f4fe"/><g fill="#ebedfc"><path d="m45 238.63v166.56a100.32 100.32 0 0 1 -8-6.79v-153l.26-.24c.75-.7 1.5-1.38 2.27-2.05q2.68-2.33 5.47-4.48z"/><path d="m37 839.54a65.47 65.47 0 0 1 8-13.14v81.37a64.78 64.78 0 0 1 -7.27-11.51c-.27-.54-.53-1.08-.78-1.63z"/><path d="m119.49 215.1v211.37h-8v-209.3a28.55 28.55 0 0 0 8-2.07z"/><path d="m119 528.17c.15-.09.3-.18.46-.26v173.59q-4.15-2.37-8-5.14v-163.3q3.66-2.63 7.54-4.89z"/><path d="m111.44 801.22h8.05v131.71h-8.05z"/><path d="m193.94 117.44v309h-8.05v-309h1.49z"/><path d="m185.89 514.68h8.05v201.52a42.85 42.85 0 0 0 -8.05-1.36z"/><path d="m185.89 801.1a42.58 42.58 0 0 0 8.05-1.36v133.19h-8.05z"/><path d="m268.38 117.44v317.17a42.68 42.68 0 0 0 -8.05-4.53v-312.64z"/><path d="m260.33 511.07a43.77 43.77 0 0 0 8.05-4.52v426.38h-8.05z"/><path d="m334.78 117.44h8.05v815.49h-8.05z"/><path d="m409.23 117.44h8.05v815.49h-8.05z"/><path d="m491.72 118.73v814.2h-8.05v-815.38a48.51 48.51 0 0 1 8.05 1.18z"/><path d="m566.17 215.32v717.61h-8v-720.77c.63.32 1.27.62 1.92.91a49.26 49.26 0 0 0 6.08 2.25z"/><path d="m632.57 217.34h8.05v715.59h-8.05z"/><path d="m707.01 217.34h8.05v715.59h-8.05z"/><path d="m789.51 246.39v686.54h-8v-694.74c.48.43.95.85 1.42 1.29s.79.73 1.17 1.11c.87.83 1.71 1.67 2.51 2.54.32.31.61.63.9 1a.31.31 0 0 1 .1.1c.31.33.61.66.89 1s.67.77 1.01 1.16z"/><path d="m864 423.28v290.46a64.56 64.56 0 0 1 -8.05.9v-292a54.77 54.77 0 0 0 8.05.64z"/><path d="m855.91 801.22h8.05v131.71h-8.05z"/><path d="m938.4 423.28v99.63a30.35 30.35 0 0 0 -8 3.69v-103.32z"/><path d="m938.4 803.47v127.21a63 63 0 0 1 -8 1.63v-130.46a63 63 0 0 1 8 1.62z"/></g><rect fill="#34629b" height="17.61" rx="8.8" width="74.06" x="78.43" y="933.33"/><rect fill="#34629b" height="17.61" rx="8.8" width="809.94" x="159.67" y="933.33"/><path d="m292.73 681.76v251.63h-196.14a65.58 65.58 0 0 1 -42.28-16.08v-99.52a65.7 65.7 0 0 1 43.13-16.1h85.86a43.23 43.23 0 0 0 43.25-43.25c0-1 0-1.88-.09-2.81 0-.3 0-.61-.07-.92a43.26 43.26 0 0 0 -43.09-39.52h-13.48q-4.11 0-8.13-.33c-2.95-.23-5.86-.6-8.73-1.09a99.71 99.71 0 0 1 -36.42-13.95 99.88 99.88 0 0 1 -17.44-13.93q-2-2-3.9-4.13z" fill="#d2d6fa"/><path d="m292.73 681.76v33.1h-131c-2.95-.23-5.86-.6-8.73-1.09a99.71 99.71 0 0 1 -36.42-13.95 99.88 99.88 0 0 1 -17.48-13.93q-2-2-3.9-4.13z" fill="#7986bf"/><path d="m263.23 755.63v154.37h-179.42v-106.89a65.79 65.79 0 0 1 13.63-1.42h85.86a43.23 43.23 0 0 0 43.25-43.25c0-1 0-1.88-.09-2.81z" fill="#7986bf"/><path d="m305.84 689.35v11.51a7.58 7.58 0 0 1 -7.58 7.59h-164.57a98.34 98.34 0 0 1 -17.15-8.63 99.88 99.88 0 0 1 -17.44-13.93q-2-2-3.9-4.13h203.06a7.58 7.58 0 0 1 7.58 7.59z" fill="#d2d6fa"/><circle cx="107.03" cy="832.05" fill="#d2d6fa" r="10.83"/><path d="m174.23 563a31.05 31.05 0 0 1 31.05 31v17a0 0 0 0 1 0 0 31.05 31.05 0 0 1 -31.05-31.05v-16.95a0 0 0 0 1 0 0z" fill="#969ecc" transform="matrix(.38107038 .92454603 -.92454603 .38107038 660.13 187.86)"/><path d="m155.78 537.3a31.05 31.05 0 0 1 31.05 31.05v16.94a0 0 0 0 1 0 0 31.05 31.05 0 0 1 -31.05-31.05v-16.94a0 0 0 0 1 0 0z" fill="#7986bf" transform="matrix(.92454603 .38107038 -.38107038 .92454603 226.82 -22.93)"/><path d="m172.82 563a0 0 0 0 1 0 0v16.94a31.05 31.05 0 0 1 -31.06 31.06 0 0 0 0 1 0 0v-17a31.05 31.05 0 0 1 31.06-31z" fill="#969ecc" transform="matrix(-.38107038 .92454603 -.92454603 -.38107038 759.91 665.22)"/><path d="m227.83 625.15a55.6 55.6 0 0 1 -111.19 0 52.18 52.18 0 0 1 .37-6.41 52.93 52.93 0 0 1 1.33-7.27h107.79a56.13 56.13 0 0 1 1.33 7.27 54.23 54.23 0 0 1 .37 6.41z" fill="#969ecc"/><rect fill="#7986bf" height="14.55" rx="7.27" width="127.43" x="109.81" y="596.91"/><path d="m227.46 618.74h-110.46a52.93 52.93 0 0 1 1.33-7.27h107.8a56.13 56.13 0 0 1 1.33 7.27z" fill="#7986bf"/><path d="m237.24 167.1h162.09v182.03h-162.09z" fill="#d2d6fa"/><path d="m251.42 183.02h133.73v150.17h-133.73z" fill="#f3f4fe"/><g fill="#d2d6fa"><circle cx="294.98" cy="268.13" r="28.51"/><circle cx="346.64" cy="219.97" r="15.78"/><circle cx="350.07" cy="269.76" r="9.33"/><path d="m586.19 312.84h114.11v128.14h-114.11z"/></g><path d="m596.18 324.05h94.14v105.71h-94.14z" fill="#f3f4fe"/><g fill="#d2d6fa"><path d="m624.09 358.57 25.25 46.6-44.98 2.99z"/><path d="m679.24 336.29-17.6 31.87-18.4-24.92z"/><path d="m676.48 383.37-3.69 22-15.7-10.66z"/></g><circle cx="400.74" cy="766.26" fill="#3d49df" r="56.12"/><path d="m377 401.85h70.31a16.3 16.3 0 0 1 16.3 16.3v80a38.58 38.58 0 0 1 -38.61 38.6h-10.26a54 54 0 0 1 -54-54v-64.59a16.3 16.3 0 0 1 16.3-16.3z" fill="#ff577e" transform="matrix(-1 0 0 -1 824.32 938.6)"/><g fill="#ffb2bf"><rect height="57.99" rx="10.6" transform="matrix(.98166047 .19063767 -.19063767 .98166047 146.87 -29.97)" width="21.2" x="218.52" y="719.05"/><path d="m190.45 719.36a29.49 29.49 0 0 0 49.93 22.76l116-112.06 37.82-36.53a29.48 29.48 0 0 0 -41-42.41l-153.79 148.58a29.4 29.4 0 0 0 -8.96 19.66z"/><path d="m198.69 741.38a29.47 29.47 0 0 0 41.69.73l.91-.88 15.15-14.63-9-11.48-27.61-35.12-20.42 19.72a29.48 29.48 0 0 0 -.72 41.69z"/><ellipse cx="207.18" cy="732.43" rx="39.57" ry="33.34" transform="matrix(.78 -.63 .63 .78 -412.77 290.8)"/></g><path d="m247.44 715.12 9 11.48 137.78-133.07c.43-.4.83-.82 1.22-1.25l.15-.15c.33-.37.65-.75 1-1.11l.2-.27c.28-.35.57-.72.83-1.08l.2-.27c.27-.38.54-.78.8-1.18l.12-.18a31.08 31.08 0 0 0 2.3-4.43c0-.07.05-.13.06-.2.19-.43.35-.87.5-1.31 0-.1.07-.19.1-.29.15-.43.28-.86.4-1.29l.08-.26c.14-.49.25-1 .37-1.48 0 0 0 0 0-.06a29.47 29.47 0 0 0 -7.55-26.88 1.66 1.66 0 0 1 -.26-.27c-6.29-6.17-16.34.77-13.18 9a29.46 29.46 0 0 1 -7 31.82z" fill="#f9a0b4"/><path d="m176.32 757.19a29.11 29.11 0 0 0 13 9.17l.22.07a32.09 32.09 0 0 0 4.14 1.16l.52.1c.58.1 1.18.2 1.78.28a1.76 1.76 0 0 0 .41.07c.72.1 1.45.17 2.18.22h.43c.63 0 1.24.05 1.88.05h.55a40.62 40.62 0 0 0 4.51-.29c.18 0 .36-.06.55-.09.63-.08 1.26-.18 1.89-.31l.42-.07c.76-.15 1.53-.33 2.3-.53l.36-.1c.65-.17 1.3-.37 2-.57l.51-.17a46.14 46.14 0 0 0 4.55-1.79l.45-.22c.66-.32 1.31-.65 2-1a1.91 1.91 0 0 0 .28-.15c.75-.4 1.52-.83 2.25-1.3l.2-.13c.68-.42 1.35-.86 2-1.33l.32-.23c.73-.52 1.45-1 2.15-1.62a45.6 45.6 0 0 0 10.68-12.41s.05-.08.08-.13 0-.09.07-.14a41.06 41.06 0 0 0 2.29-4.54l15.15-14.63-9-11.48-3.9 3.76-22 21.25a17.38 17.38 0 0 1 -4.81 10.09c-9.15 9.85-29 13.08-40-2.48a32.18 32.18 0 0 1 -6.23-15.5c-1.6 9 .2 17.98 5.82 24.99z" fill="#f9a0b4"/><path d="m374 857.9-19.43-.78a26.85 26.85 0 0 1 -14.48-5l-47.74 66.68 77.35 3.92z" fill="#feb6c3"/><path d="m356.18 922.05 13.5.7 4.29-64.85-13.49-.55z" fill="#e78597"/><path d="m414.84 836.9h254.16a5.77 5.77 0 0 1 5.77 5.77v84.83a5.77 5.77 0 0 1 -5.77 5.77h-254.16a48.19 48.19 0 0 1 -48.19-48.19 48.19 48.19 0 0 1 48.19-48.18z" fill="#161616" transform="matrix(-1 0 0 -1 1041.42 1770.17)"/><path d="m366.66 836.9h28.2a5.88 5.88 0 0 1 5.88 5.88v84.61a5.88 5.88 0 0 1 -5.88 5.88h-28.2a0 0 0 0 1 0 0v-96.37a0 0 0 0 1 0 0z" fill="#ff5780" transform="matrix(-1 0 0 -1 767.39 1770.17)"/><path d="m400.74 836.9h7.91v96.37h-7.91z" fill="#161616"/><path d="m426.66 722.88 222.87 121.24a47.57 47.57 0 0 1 18.47 65.58 47.57 47.57 0 0 1 -65 17.41l-219.72-126.86a44.35 44.35 0 0 1 -15.61-61.63 44.35 44.35 0 0 1 58.99-15.74z" fill="#161616"/><path d="m253.62 874h121.84a0 0 0 0 1 0 0 14.69 14.69 0 0 1 -14.69 14.69h-92.45a14.69 14.69 0 0 1 -14.7-14.69 0 0 0 0 1 0 0z" fill="#ea4775" transform="matrix(.54829323 -.83628616 .83628616 .54829323 -595.03 661.25)"/><path d="m305.76 881.39-30.76 46.87a28 28 0 0 0 30.73-46.87z" fill="#ea4775"/><path d="m275 928.27c.44.3.9.57 1.36.83a28 28 0 0 0 37.44-8.93 27.7 27.7 0 0 0 2.08-3.76 28 28 0 0 1 -31.78 7.19l61.4-93.67a14.46 14.46 0 0 0 -3.73-3.53l-62.14 94.81z" fill="#bc2a57"/><path d="m343.88 857.9-19.43-.78a26.88 26.88 0 0 1 -14.49-5l-47.74 66.68 77.36 3.92z" fill="#feb6c3"/><path d="m326.08 922.05 13.5.7 4.3-64.85-13.5-.55z" fill="#e78597"/><path d="m384.75 836.9h254.15a5.77 5.77 0 0 1 5.77 5.77v84.83a5.77 5.77 0 0 1 -5.77 5.77h-254.15a48.19 48.19 0 0 1 -48.19-48.19 48.19 48.19 0 0 1 48.19-48.19z" fill="#3d49df" transform="matrix(-1 0 0 -1 981.23 1770.17)"/><path d="m596.48 933.27h-83.32l-106.5-96.37h189.82a48.19 48.19 0 0 1 48.19 48.18 48.2 48.2 0 0 1 -48.19 48.19z" fill="#3042c6"/><path d="m336.56 836.9h28.2a5.88 5.88 0 0 1 5.88 5.88v84.61a5.88 5.88 0 0 1 -5.88 5.88h-28.2a0 0 0 0 1 0 0v-96.37a0 0 0 0 1 0 0z" fill="#ff5780" transform="matrix(-1 0 0 -1 707.2 1770.17)"/><path d="m370.64 836.9h7.91v96.37h-7.91z" fill="#161616"/><rect fill="#3d49df" height="96.37" rx="48.19" transform="matrix(.87 .5 -.5 .87 483.7 -140.91)" width="308.1" x="350.74" y="783.96"/><path d="m223.53 874h121.84a0 0 0 0 1 0 0 14.69 14.69 0 0 1 -14.69 14.69h-92.46a14.69 14.69 0 0 1 -14.69-14.69 0 0 0 0 1 0 0z" fill="#ff5780" transform="matrix(.54829323 -.83628616 .83628616 .54829323 -608.62 636.08)"/><path d="m275.66 881.39-30.73 46.87a28 28 0 0 0 30.73-46.87z" fill="#ff5780"/><path d="m358.23 729.68h55.77a55.8 55.8 0 0 1 55.8 55.8v40.52a0 0 0 0 1 0 0h-111.57a0 0 0 0 1 0 0v-96.32a0 0 0 0 1 0 0z" fill="#3d49df" transform="matrix(-1 0 0 -1 827.98 1555.73)"/><path d="m344.61 766.26a56.16 56.16 0 0 0 45 55l182.77 105.55a48.29 48.29 0 0 0 68.47-22.93 48.16 48.16 0 0 1 -58.32 7.79l-182.8-105.53c-14.22-2.88-33.52-5.61-46.13-33.63-5.79-12.86 2.4-34.77 4.63-40.85v-2h.77c.25-.61.5-1.21.79-1.81a55.85 55.85 0 0 0 -15.18 38.41z" fill="#495dea"/><path d="m358.23 729.68v2c.25-.66.51-1.33.79-2z" fill="#352e30"/><path d="m358.23 729.68v2c.25-.66.51-1.33.79-2z" fill="#352e30"/><path d="m244.94 928.27c.44.3.89.57 1.35.83a28 28 0 0 0 37.44-8.93 25.69 25.69 0 0 0 2.08-3.76 28 28 0 0 1 -31.81 7.19l61.4-93.67a14.58 14.58 0 0 0 -3.72-3.53l-62.15 94.81z" fill="#ea4775"/><path d="m244.91 928.3a12 12 0 0 0 1.38.8c-.46-.26-.91-.53-1.35-.83z" fill="#ea4775"/><path d="m428.93 592.3 56.7 38.47 24.83 16.85a29.56 29.56 0 1 0 33.19-48.93l-28.3-19.19-3.35-2.25-49.92-33.87a29.56 29.56 0 0 0 -33.18 48.92z" fill="#ffb2bf"/><path d="m498.72 630.29a29.57 29.57 0 0 0 47.82 14.92l.86-.78c.28-.25.54-.51.8-.78a3.22 3.22 0 0 0 .32-.32c.18-.18.34-.36.52-.55.41-.45.82-.91 1.2-1.38l.8-1a29.08 29.08 0 0 0 2.18-3.41c.18-.32.35-.64.51-1s.34-.69.5-1c.34-.76.66-1.54.94-2.34l29.52-83.65 3.3-9.33a33.38 33.38 0 0 0 1-3.3 29.56 29.56 0 0 0 -56.73-16.37l-32.83 92.9a29.26 29.26 0 0 0 -.71 17.39z" fill="#f9cabd"/><g fill="#ffb2bf"><path d="m521.55 550.26 50.81 21.35 3.8 1.6 8.47-24 .06-.18 1.37-3.86 1.93-5.46c.38-1.1.7-2.2 1-3.31a29.59 29.59 0 0 0 -18.99-34.4 29.23 29.23 0 0 0 -8.82-1.69 29.62 29.62 0 0 0 -27.8 17c-.4.87-.76 1.77-1.1 2.68z"/><path d="m498.72 630.29a29.54 29.54 0 0 0 47.81 14.91c.29-.25.59-.5.87-.76s.55-.52.8-.78a3.14 3.14 0 0 0 .31-.32c.19-.18.35-.37.54-.55.4-.45.81-.91 1.2-1.4.26-.33.53-.68.79-1a28.83 28.83 0 0 0 2.18-3.39c.19-.34.35-.65.5-1a10.9 10.9 0 0 0 .5-1c.35-.75.67-1.54.95-2.33l21-59.4-54.61-23-22.13 62.66a29.3 29.3 0 0 0 -.71 17.36z"/><ellipse cx="570.62" cy="521.19" rx="39.66" ry="31.27" transform="matrix(.93642747 -.35086122 .35086122 .93642747 -146.58 233.31)"/></g><path d="m516.34 650.21 1.1.42a29.62 29.62 0 0 0 29.09-5.41l.87-.78c.28-.25.55-.52.8-.78a3.14 3.14 0 0 0 .31-.32c.19-.18.35-.37.54-.55.4-.45.81-.91 1.2-1.38s.53-.68.79-1a30.85 30.85 0 0 0 2.18-3.41 9.18 9.18 0 0 0 .5-1 7.66 7.66 0 0 0 .5-1c.35-.75.67-1.54.95-2.33l21-59.4-3.8-1.6-21.08 59.75c-.29.78-.6 1.56-.95 2.33-.15.35-.32.7-.5 1s-.32.66-.5 1a31.11 31.11 0 0 1 -2.18 3.39c-.27.35-.53.7-.82 1s-.78.93-1.19 1.38c-.17.2-.34.36-.52.55a3.14 3.14 0 0 1 -.32.31 8.43 8.43 0 0 1 -.8.78l-.86.79a29.68 29.68 0 0 1 -26.31 6.26z" fill="#f9a0b4"/><path d="m572.36 571.61 3.8 1.6 8.47-24c1.41-.63 2.78-1.33 4.09-2.08.27-.15.53-.3.8-.47s.6-.33.88-.51c.45-.29.9-.57 1.33-.87s.89-.6 1.3-.9.85-.61 1.25-.93.48-.36.72-.56.66-.52 1-.8l.76-.67c.35-.3.7-.61 1-.95s.73-.68 1.08-1.05c.71-.71 1.38-1.44 2-2.18.34-.36.64-.74.94-1.11s.66-.85 1-1.28a22.66 22.66 0 0 0 1.53-2.23 34.21 34.21 0 0 0 3.58-7.49c.13-.4.27-.82.38-1.23s.24-.85.34-1.28.15-.65.21-1a25.74 25.74 0 0 0 -1-14.38c-.18-.5-.4-1-.61-1.5a2 2 0 0 1 -.1-.21c-.4-.83-.84-1.65-1.3-2.43-.14-.22-.25-.44-.4-.64-.27-.41-.53-.81-.83-1.21-.31-.43-.65-.87-1-1.28s-.73-.85-1.13-1.27-.58-.6-.88-.88l-.38-.35c-.4-.38-.82-.73-1.23-1.08s-.9-.72-1.37-1.05-.93-.66-1.43-1l-.15-.1c-.38-.25-.8-.5-1.21-.73a34 34 0 0 0 -6.83-2.95c-.55-.18-1.11-.33-1.68-.48 7.77 3 13.88 8.47 16.68 15.94 5.17 13.8-2.63 29.94-17.81 39.15a47.17 47.17 0 0 1 -5.33 2.79l-1.14 3.21z" fill="#f9a0b4"/><path d="m358.23 610.45h111.52v119.08h-111.52z" fill="#fff2ee"/><path d="m358.23 610.45h111.52v35.64l-111.52-9.29z" fill="#ffd9cd"/><path d="m391.35 515.4 1.63 9.45 3.52 20.38a16.66 16.66 0 1 0 32.84-5.65l-.37-2.14-4.78-27.7a16.66 16.66 0 0 0 -13.19-13.51 16.37 16.37 0 0 0 -3.31-.33 16.67 16.67 0 0 0 -16.34 19.5z" fill="#ffb2bf"/><path d="m342 597.88v1a30.44 30.44 0 0 0 17.51 27.56l35.87-38.44a29.3 29.3 0 0 0 7.9-20.53h-30.85a30.42 30.42 0 0 0 -30.43 30.41z" fill="#f9a0b4"/><path d="m417.65 539h10.88a58.26 58.26 0 0 1 58.26 58.26 0 0 0 0 1 0 0h-127.4a0 0 0 0 1 0 0 58.26 58.26 0 0 1 58.26-58.26z" fill="#ffb2bf"/><rect fill="#fff2ee" height="61.86" rx="30.43" width="155.9" x="347.34" y="567.45"/><path d="m355.11 619.19a30.35 30.35 0 0 0 22.65 10.12h95.05a30.42 30.42 0 0 0 30.44-30.42v-1a30.32 30.32 0 0 0 -13.32-25.13 30.23 30.23 0 0 1 7.23 19.67v1a30.42 30.42 0 0 1 -30.43 30.42h-95a30.43 30.43 0 0 1 -16.18-4.64 2.75 2.75 0 0 1 -.44-.02z" fill="#ffd9cd"/><path d="m391.35 515.4 1.63 9.45a55.85 55.85 0 0 0 36 12.59l-4.78-27.7a16.66 16.66 0 0 0 -13.2-13.51 16.37 16.37 0 0 0 -3.31-.33 16.67 16.67 0 0 0 -16.34 19.5z" fill="#f9a0b4"/><path d="m364.81 442.2 1.88 36.36a56 56 0 0 0 58.84 53.07 43.23 43.23 0 0 0 40.94-45.4l-1.57-30.52c0-.19 0-.37 0-.56 0-.84-.11-1.66-.21-2.49a58 58 0 0 0 -59.92-52h-.79l-1.82.09a39 39 0 0 0 -7.39 1.09 39.39 39.39 0 0 0 -29.96 40.36z" fill="#ffb2bf"/><path d="m356.91 468.09 10.78-22.48a20.93 20.93 0 0 1 4.13-5.82l-1.25-.28c-.45-.13-1.58-6.15-1.58-6.6a.87.87 0 0 1 .05-.31 51 51 0 0 1 25.69-30.68 39 39 0 0 1 7.39-1.09l1.82-.09h.79a58 58 0 0 1 59.92 52 50.84 50.84 0 0 1 -31.44.54l-17-3.71a26 26 0 0 0 -29 14.17 21.26 21.26 0 0 1 -28.37 10 4.17 4.17 0 0 1 -1.93-5.65z" fill="#f9a0b4"/><path d="m383.5 422.88a5.29 5.29 0 0 1 5.29 5.29v21.39a27 27 0 0 1 -27 27h-5.29a0 0 0 0 1 0 0v-26.68a27 27 0 0 1 27-27z" fill="#ff577e" transform="matrix(-1 0 0 -1 745.3 899.43)"/><circle cx="368.25" cy="467.92" fill="#ffb2bf" r="17.55"/><path d="m362.27 467.87a7.49 7.49 0 0 1 4.2-7.15 2.14 2.14 0 0 1 3 1.87l.53 9.73a2.17 2.17 0 0 1 -3 2.12 7.49 7.49 0 0 1 -4.73-6.57z" fill="#f9a0b4"/><circle cx="445.55" cy="467.92" fill="#2b2137" r="4.18"/><circle cx="409.94" cy="467.56" fill="#2b2137" r="4.18"/><g fill="#ff577e"><ellipse cx="390.56" cy="394.52" rx="21.04" ry="28.2" transform="matrix(.7510337 -.66026387 .66026387 .7510337 -163.25 356.05)"/><path d="m407.66 410.91a14.59 14.59 0 0 1 -2.46 1.77 16.53 16.53 0 0 0 7.68-3.75c8.72-7.67 7.46-23.38-2.82-35.08-9.37-10.66-23-14.31-32-9.07 8.5-1.74 19.06 2.29 26.75 11.06 10.32 11.69 11.57 27.4 2.85 35.07z"/><path d="m362.61 443.44a3.56 3.56 0 0 0 2.78 3.31c18.72 4.07 36.31 7.32 52.2 8.78a3.68 3.68 0 0 0 3.71-2.21l5.59-12.83a1.2 1.2 0 0 1 2.29.27l2.4 13.69a2.38 2.38 0 0 0 2.31 1.95c2.45 0 4.85 0 7.2-.14a2.34 2.34 0 0 0 2.21-2.26l.58-14.3a1.2 1.2 0 0 1 2.25-.55l7.54 13.17a3.69 3.69 0 0 0 4.05 1.75c2-.47 4.67-1.13 6.28-1.66a5.85 5.85 0 0 0 3.71-7.47c-8.9-25.55-34.89-46.69-62.63-45.66-.28 0-.56 0-.85 0l-1.92.11a41.89 41.89 0 0 0 -39.7 44z"/></g><path d="m464 452.42c-1.62.51-4.29 1.17-6.29 1.66a3.74 3.74 0 0 1 -3.15-.72c1.25-.32 2.48-.65 3.38-.94a5.87 5.87 0 0 0 3.72-7.48c-8.39-24.06-31.93-44.21-57.8-45.61h.36.85c27.74-1 53.73 20.1 62.64 45.65a5.88 5.88 0 0 1 -3.71 7.44z" fill="#fc7a9c"/><path d="m749.44 485.6-6.37-11.33-91.39 40.73 15.46 27.51z" fill="#7986bf"/><path d="m617.95 474.22h67.67a7.81 7.81 0 0 1 7.81 7.81v66.07a17.74 17.74 0 0 1 -17.74 17.74h-15.63a49.92 49.92 0 0 1 -49.92-49.92v-33.92a7.81 7.81 0 0 1 7.81-7.78z" fill="#969ecc" transform="matrix(-.96288043 -.26992829 .26992829 -.96288043 1139.05 1196.66)"/><path d="m690.77 535.23-9.15 32.63a7.79 7.79 0 0 1 -9.62 5.41l-11.25-3.15a7.78 7.78 0 0 0 1-2.26l9.14-32.63a49.93 49.93 0 0 0 -34.6-61.55l-8.87-2.49a17.7 17.7 0 0 1 13.67-1.72l15 4.21a49.93 49.93 0 0 1 34.68 61.55z" fill="#7986bf"/><path d="m603.72 538.45 19.12 5.36 1.92-6.89-19.11-5.35a23.56 23.56 0 0 1 12.71-45.37l14 3.92 1.93-6.88-14-3.92a30.7 30.7 0 1 0 -16.57 59.13z" fill="#969ecc"/><g fill="#ffb2bf"><rect height="16.98" rx="8.49" transform="matrix(-.99382615 .11094858 -.11094858 -.99382615 1239.92 917.4)" width="31.82" x="578.53" y="484.71"/><rect height="16.98" rx="8.49" transform="matrix(-.93642747 .35086122 -.35086122 -.93642747 1292.93 752.65)" width="44.48" x="556.05" y="484.95"/><rect height="16.98" rx="8.49" transform="matrix(-.5 .8660254 -.8660254 -.5 1259.97 273.14)" width="44.48" x="528.9" y="491.8"/><rect height="16.98" rx="8.49" transform="matrix(-.99382615 .11094858 -.11094858 -.99382615 1249.08 938.32)" width="31.82" x="582.52" y="495.42"/></g><rect fill="#d2d6fa" height="53.56" rx="7.37" transform="matrix(.96288043 .26992829 -.26992829 .96288043 164.33 -150.31)" width="14.74" x="621.46" y="495.73"/><ellipse cx="394.34" cy="385.34" fill="#fc7a9c" rx="5.87" ry="11.07" transform="matrix(.64545769 -.76379603 .76379603 .64545769 -154.52 437.78)"/><path d="m439.41 483.07a12.75 12.75 0 0 1 -3.78 9.05c-.3.29-.6.57-.92.83a12.74 12.74 0 0 1 -8.15 2.91h-.56a12.84 12.84 0 0 1 -12.74-11.8 9.3 9.3 0 0 1 0-1.06 2.44 2.44 0 0 1 .73-1.75 2.47 2.47 0 0 1 1.75-.73l21.19.06a2.49 2.49 0 0 1 2.48 2.49z" fill="#962f4a"/><path d="m426.3 493.88a9.92 9.92 0 0 1 -.2 2h-.1a12.81 12.81 0 0 1 -12.73-11.8 10.18 10.18 0 0 1 13 9.82z" fill="#e1617f"/><path d="m436.46 480.58c-.11 2.51-4 4.52-8.76 4.5s-8.63-2-8.73-4.55z" fill="#fff"/><path d="m852.17 825.4-7.57 30.71-19.08 77.37h-88.22l-19.07-77.37-7.57-30.71z" fill="#969ecc"/><path d="m852.17 825.4-7.57 30.71-124.1 9.19-9.84-39.9z" fill="#7986bf"/><path d="m691.19 818.5h176.38v30.72h-176.38z" fill="#d2d6fa"/><g fill="#7986bf"><path d="m762.24 818.5-35.09-281.33h8.77l52.01 281.33z"/><path d="m760.36 690.68 49.41-79.54 2.91 1.25-46.88 96.01z"/><path d="m754.14 753.57-85.39-95.37 3.45-5.46 83.6 80.44z"/><path d="m722.19 711.34-53.44 1.15 1.73 3.3 63.39 6.29z"/><path d="m769.3 732.32 41.08-33.9 2.3 1.43-38.48 44.37z"/></g><g fill="#969ecc"><path d="m797.73 633a17.87 17.87 0 0 1 17.87 17.87v9.75a0 0 0 0 1 0 0 17.87 17.87 0 0 1 -17.87-17.87v-9.75a0 0 0 0 1 0 0z" transform="matrix(-.38107038 .92454603 -.92454603 -.38107038 1712.09 147.51)"/><path d="m684.23 646a17.87 17.87 0 0 1 17.87 17.87v9.75a0 0 0 0 1 0 0 17.87 17.87 0 0 1 -17.87-17.87v-9.75a0 0 0 0 1 0 0z" transform="matrix(.78531693 .61909395 -.61909395 .78531693 557.31 -287.5)"/><path d="m715.86 681.38a12.71 12.71 0 0 1 12.71 12.71v6.91a0 0 0 0 1 0 0 12.71 12.71 0 0 1 -12.71-12.71v-6.93a0 0 0 0 1 0 .02z" transform="matrix(.78531693 .61909395 -.61909395 .78531693 583.01 -298.74)"/><path d="m767.15 646.38a13 13 0 0 1 13 13v7.11a0 0 0 0 1 0 0 13 13 0 0 1 -13-13v-7.11a0 0 0 0 1 0 0z" transform="matrix(.70710678 -.70710678 .70710678 .70710678 -237.58 739.33)"/><path d="m791 693.88a11.61 11.61 0 0 1 11.61 11.61v6.33a0 0 0 0 1 0 0 11.61 11.61 0 0 1 -11.61-11.61v-6.33a0 0 0 0 1 0 0z" transform="matrix(.8660254 .5 -.5 .8660254 458.18 -304.24)"/><path d="m783.74 728.86a11.61 11.61 0 0 1 11.61 11.61v6.33a0 0 0 0 1 0 0 11.61 11.61 0 0 1 -11.61-11.61v-6.33a0 0 0 0 1 0 0z" transform="matrix(.9376465 .34759034 -.34759034 .9376465 305.74 -228.46)"/><path d="m690.65 696.71a11.61 11.61 0 0 1 11.61 11.61v6.33a0 0 0 0 1 0 0 11.61 11.61 0 0 1 -11.61-11.65v-6.33a0 0 0 0 1 0 .04z" transform="matrix(.95408362 -.29954039 .29954039 .95408362 -179.43 241.08)"/><path d="m672 713.11a11.61 11.61 0 0 1 11.61 11.61v6.28a0 0 0 0 1 0 0 11.61 11.61 0 0 1 -11.61-11.56v-6.33a0 0 0 0 1 0 0z" transform="matrix(.29954039 .95408362 -.95408362 .29954039 1163.64 -140.94)"/><path d="m802.31 606.08a0 0 0 0 1 0 0v8.74a16 16 0 0 1 -16 16 0 0 0 0 1 0 0v-8.72a16 16 0 0 1 16-16.02z" transform="matrix(.38107038 -.92454603 .92454603 .38107038 -80.17 1117.15)"/></g></svg>