<svg viewBox="0 0 1000 1000" xmlns="http://www.w3.org/2000/svg"><path d="m988 661.19v10.41a132.51 132.51 0 0 1 -63.93 113.34 127.76 127.76 0 0 1 -11.83 6.35c-.7.34-1.41.67-2.12 1a128.46 128.46 0 0 1 -15 5.71l-1.39.42a132.46 132.46 0 0 1 -38.15 5.58h-53.69a27.32 27.32 0 0 0 -27.31 27.32v101.91h-456.76v-101.91a27.26 27.26 0 0 0 -17.36-25.43c-.77-.3-1.55-.57-2.35-.81a27.18 27.18 0 0 0 -3-.68 26 26 0 0 0 -4.61-.4h-90.35c-1.43 0-2.84 0-4.26-.06a137.23 137.23 0 0 1 -32.13-4.81c-1.13-.31-2.26-.63-3.38-1a135.75 135.75 0 0 1 -20.43-8 137.24 137.24 0 0 1 -28.38-18.46q-4.53-3.81-8.71-8a137.67 137.67 0 0 1 57.52-229.07c1.12-.34 2.25-.66 3.38-1a137.34 137.34 0 0 1 36.39-4.87h106a35.7 35.7 0 0 0 7.29-.75l.29-.06a35.66 35.66 0 0 0 17.71-9.66 33.77 33.77 0 0 0 2.75-3.11v-.05a34.47 34.47 0 0 0 2.74-4v-.05a35.75 35.75 0 0 0 -30.85-53.83h-178.76a83.6 83.6 0 0 1 -59.11-142.67l.62-.61.26-.25a83.42 83.42 0 0 1 58.23-23.63 69.19 69.19 0 0 0 46.51-17.93c1.07-1 2.1-2 3.11-3a69 69 0 0 0 19.53-43.82c.1-1.5.15-3 .15-4.54a97.92 97.92 0 0 1 97.92-97.92h566a83.62 83.62 0 0 1 80.09 59.56 84.59 84.59 0 0 1 3.52 24.05c0 2.9-.15 5.76-.43 8.58a84.6 84.6 0 0 1 -1.7 10.27 83.64 83.64 0 0 1 -81.48 64.75h-68a48.26 48.26 0 0 0 -17.39 3.21 47 47 0 0 0 -5.89 2.72 49 49 0 0 0 -18.56 17.95c-.6 1-1.17 2.07-1.7 3.14a48.22 48.22 0 0 0 -5 21.57v.29c0 1.5.09 3 .23 4.44a48.09 48.09 0 0 0 5 17.13 48.61 48.61 0 0 0 43.41 26.73c.82 0 1.62 0 2.43.05h.22a62.55 62.55 0 0 1 26.12 6.88 63.2 63.2 0 0 1 29.47 32c0 .11.09.21.13.32a61.62 61.62 0 0 1 3.82 13.62 62.82 62.82 0 0 1 .82 10.15v43a41.35 41.35 0 0 0 .28 4.87 43.94 43.94 0 0 0 31 37.23l.27.08a190 190 0 0 1 23 8.54l2.12 1c3.92 1.82 7.88 3.84 11.83 6.08 16.62 9.4 33 22.68 45.08 41.37a112.89 112.89 0 0 1 13.13 28.38 137.49 137.49 0 0 1 5.64 40.38z" fill="#f3f4fe"/><g opacity=".6"><path d="m589.25 376.94v556.31h-251.33-20.1v-101.93a27.26 27.26 0 0 0 -17.36-25.43c-.77-.3-1.55-.57-2.35-.81a27.18 27.18 0 0 0 -3-.68 26 26 0 0 0 -4.61-.4h-90.35c-1.43 0-2.84 0-4.26-.06a137.23 137.23 0 0 1 -32.13-4.81c-1.13-.31-2.26-.63-3.38-1v-263.5c1.12-.34 2.25-.66 3.38-1a137.34 137.34 0 0 1 36.39-4.87h100.4v-.76h13.23a35.66 35.66 0 0 0 17.71-9.66 33.77 33.77 0 0 0 2.75-3.11v-.05l2.74-4v-.05a35.75 35.75 0 0 0 -30.85-53.83h-145.75v-156.43h51.44v-36.48l52.5-52.5v130.89h23.76v-55.11l45.8-10.33 44.61 23.88 19.19 10.27 4.58 2.45 8.23 4.41 18.09 9.65h88.48l48.26 32.7 16 10.87z" fill="#ebecfd"/><g fill="#d9dcfb"><path d="m260.14 407.98v49.3h-99.76v-85.78h33.01z"/><path d="m260.14 528.79v275.21h-60c-1.43 0-2.84 0-4.26-.06a137.23 137.23 0 0 1 -32.13-4.81c-1.13-.31-2.26-.63-3.38-1v-263.5c1.12-.34 2.25-.66 3.38-1a137.34 137.34 0 0 1 36.39-4.87z"/><path d="m479.03 328.03h38.03v605.22h-38.03z"/></g><path d="m924.06 551.05v233.89a127.76 127.76 0 0 1 -11.83 6.35c-.7.34-1.41.67-2.12 1a128.46 128.46 0 0 1 -15 5.71l-1.39.42a132.46 132.46 0 0 1 -38.14 5.58h-34.24v-409.81a63.2 63.2 0 0 1 29.47 32c0 .11.09.21.13.32a61.62 61.62 0 0 1 3.82 13.62 62.82 62.82 0 0 1 .82 10.15v43a41.35 41.35 0 0 0 .28 4.87 43.94 43.94 0 0 0 31 37.23l.27.08a190 190 0 0 1 23 8.54l2.12 1c3.9 1.79 7.86 3.81 11.81 6.05z" fill="#ebecfd"/><path d="m821.34 394.19v409.81h-19.45a27.32 27.32 0 0 0 -27.31 27.32v101.91h-3.7v-531.46l24.12-14.47h.22a62.55 62.55 0 0 1 26.12 6.89z" fill="#d9dcfb"/><path d="m713.44 332.69-48.12 20.18v580.38h48.12z" fill="#ebecfd"/><path d="m749.15 360.52v572.73h-35.71v-600.56l28.11 9.78 2.64.91a48.09 48.09 0 0 0 4.96 17.14z" fill="#d9dcfb"/><g fill="#f1f2fd"><path d="m300.55 352.08h125.6v13.44h-125.6z"/><path d="m578.98 429.11-53.62-1.74v-68.57l53.62 36.06z"/><path d="m300.55 396.05h125.6v13.44h-125.6z"/><path d="m300.55 440.03h125.6v13.44h-125.6z"/><path d="m426.15 484v13.44h-84.46a35.86 35.86 0 0 0 -.89-13.44z"/><path d="m300.55 527.98h125.6v13.43h-125.6z"/><path d="m300.55 571.95h125.6v13.44h-125.6z"/><path d="m300.55 615.93h125.6v13.44h-125.6z"/><path d="m300.55 659.9h125.6v13.44h-125.6z"/><path d="m300.55 703.87h125.6v13.44h-125.6z"/><path d="m300.55 747.85h125.6v13.44h-125.6z"/><path d="m300.55 791.82h125.6v13.44h-125.6z"/><path d="m317.82 835.8h108.33v13.43h-108.33z"/><path d="m317.82 879.77h108.33v13.44h-108.33z"/><path d="m525.36 448.99h53.61v108.71h-53.61z"/><path d="m525.36 582.72h53.61v108.71h-53.61z"/><path d="m525.36 716.46h53.61v108.71h-53.61z"/><path d="m525.36 842.51h53.61v66.22h-53.61z"/><path d="m671.56 385.65h34.96v-39.86l-34.96 16.41z"/><path d="m854.76 440.12h-14.18v-13.62h10.36a61.62 61.62 0 0 1 3.82 13.62z"/><path d="m840.58 462.32h15v13.63h-15z"/><path d="m859.66 511.78h-19.08v-13.63h15.28a43.31 43.31 0 0 0 3.8 13.63z"/><path d="m840.58 533.98h25.13v13.62h-25.13z"/><path d="m912.23 545v2.64h-25.13v-12.18a190 190 0 0 1 23 8.54z"/><path d="m840.58 569.81h25.13v13.62h-25.13z"/><path d="m887.1 569.81h25.13v13.62h-25.13z"/><path d="m840.58 605.64h25.13v13.62h-25.13z"/><path d="m887.1 605.64h25.13v13.62h-25.13z"/><path d="m840.58 641.47h25.13v13.62h-25.13z"/><path d="m887.1 641.47h25.13v13.62h-25.13z"/><path d="m840.58 677.3h25.13v13.62h-25.13z"/><path d="m887.1 677.3h25.13v13.62h-25.13z"/><path d="m840.58 713.13h25.13v13.62h-25.13z"/><path d="m887.1 713.13h25.13v13.62h-25.13z"/><path d="m840.58 748.96h25.13v13.62h-25.13z"/><path d="m887.1 748.96h25.13v13.62h-25.13z"/><path d="m840.58 784.78h25.13v13.62h-25.13z"/><path d="m912.23 784.78v6.51c-.7.34-1.41.67-2.12 1a128.46 128.46 0 0 1 -15 5.71l-1.39.42h-6.62v-13.64z"/><path d="m671.56 397.48h34.96v19.6h-34.96z"/><path d="m671.56 431.01h12.85v19.6h-12.85z"/><path d="m693.68 431.01h12.85v19.6h-12.85z"/><path d="m671.56 469.74h34.96v19.6h-34.96z"/><path d="m671.56 503.27h12.85v19.6h-12.85z"/><path d="m693.68 503.27h12.85v19.6h-12.85z"/><path d="m671.56 542.01h34.96v19.6h-34.96z"/><path d="m671.56 575.54h12.85v19.6h-12.85z"/><path d="m693.68 575.54h12.85v19.6h-12.85z"/><path d="m671.56 613.7h34.96v19.6h-34.96z"/><path d="m671.56 647.23h12.85v19.6h-12.85z"/><path d="m693.68 647.23h12.85v19.6h-12.85z"/><path d="m671.56 685.39h34.96v19.6h-34.96z"/><path d="m671.56 718.92h12.85v19.6h-12.85z"/><path d="m693.68 718.92h12.85v19.6h-12.85z"/><path d="m671.56 757.08h34.96v19.6h-34.96z"/><path d="m671.56 790.61h12.85v19.6h-12.85z"/><path d="m693.68 790.61h12.85v19.6h-12.85z"/><path d="m671.56 828.77h34.96v19.6h-34.96z"/><path d="m671.56 862.3h12.85v19.6h-12.85z"/><path d="m693.68 862.3h12.85v19.6h-12.85z"/></g><g fill="#fff"><path d="m727.38 122.85-52.94 78.35-12.82 18.8-55.62 81.22-8.7 12.72-32 46.79-11.69 17.08-28.27 41.34-8.3 12.13-38 55.6-58.2 85.12-9.19 13.44-1.16 1.69-12.81 18.73-6.92 10.12-9.19 13.43-20.89 30.49-9.19 13.44-20.89 30.53-9.19 13.44-59.3 86.69h-62c-1.43 0-2.84 0-4.26-.06a137.23 137.23 0 0 1 -32.13-4.81c-1.13-.31-2.26-.63-3.38-1v-28.74l99.76-145.84 56.18-82.14 9.23-13.41 8.73-12.77v-.05l2.74-4v-.05l9.35-13.67 9.26-13.46 20.89-30.53 9.19-13.47 12-17.56 8.88-13 3.93-5.75 5.26-7.69 46.53-68 9.64-14.09 8.7-12.72 121.39-178.34z" opacity=".51"/><path d="m810.89 122.85-121.35 178.37-8.7 12.72-6.4 9.35-12.82 18.71-72.37 105.8-10.28 15-53.61 78.37-8.3 12.14-38.06 55.69-64.92 94.9-3.62 5.3-5.57 8.14-7.24 10.58-13.65 20-9.19 13.43-20.81 30.47-9.19 13.44-20.94 30.54-6.05 8.84v-13.32a27.26 27.26 0 0 0 -17.36-25.43c-.77-.3-1.55-.57-2.35-.81a27.18 27.18 0 0 0 -3-.68 26 26 0 0 0 -4.61-.4h-4.91l29.22-42.72 9.19-13.43 20.89-30.54 9.19-13.44 20.92-30.53 9.19-13.44 13.52-19.77 7.37-10.77 5.44-8 3.75-5.48 64.73-94.67 38-55.6 8.3-12.14 3.07-4.48 14.4-21.05 26.89-39.31 11.65-17 39.44-57.66 8.7-12.72 32.11-47 12.82-18.74 76.42-112.68z" opacity=".51"/><path d="m888.36 127.6-113.19 165.67a47 47 0 0 0 -5.89 2.72 49 49 0 0 0 -18.56 17.95c-.6 1-1.17 2.07-1.7 3.14a48.22 48.22 0 0 0 -5 21.57v.29l-2.41 3.53-28.11 41.15-9.5 13.86-13.39 19.6-9.55 13.92-6.62 9.69-2.88 4.21-6.24 9.14-3.7 5.41-72.37 105.94-11.84 17.33-52 76.18-8.3 12.15-38 55.66-52.88 77.4-.78 1.15-14.96 21.74-6 8.77-6.82 10-2.36 3.45-20.86 30.54-9.18 13.44-27.35 40h-20.1v-24.8l10.38-15.19 9.18-13.44 20.86-30.54 9.18-13.43 20.87-30.54 9.18-13.44.21-.31 12.81-18.75 7.84-11.48 7.82-11.44 52.85-77.4 38-55.66 8.3-12.15 15-21.91 17.1-25 21.6-31.56 10.28-15 72.37-105.93 3.7-5.42 9.12-13.34.53-.78 25.2-36.88 10.04-14.81 13.76-20.06 8.69-12.72 121.83-178.37h6a83.34 83.34 0 0 1 27.84 4.75z" opacity=".51"/></g><g fill="#969ecc"><path d="m761.58 301.22a48.62 48.62 0 0 0 -10.87 12.72h-681.88l.26-.25a83.05 83.05 0 0 1 16.49-12.47z"/><path d="m661.62 122.85h12.82v810.4h-12.82z"/><path d="m397.68 122.85h12.82v810.4h-12.82z"/></g></g><rect fill="#d2d6fa" height="17.61" rx="8.8" transform="matrix(-1 0 0 -1 253.45 1884.07)" width="74.06" x="89.7" y="933.23"/><rect fill="#d2d6fa" height="17.61" rx="8.8" transform="matrix(-1 0 0 -1 1151.79 1884.07)" width="809.94" x="170.93" y="933.23"/><path d="m304.4 723.64h391.19v28.04h-391.19z" fill="#7986bf" transform="matrix(0 1 -1 0 1237.66 237.66)"/><path d="m476.36 551.67h47.27v28.04h-47.27z" fill="#57669b" transform="matrix(0 1 -1 0 1065.69 65.69)"/><path d="m741.07 542.06a14 14 0 0 1 -14 14h-609.17a136.8 136.8 0 0 1 42.48-21.45c1.12-.34 2.25-.66 3.38-1a137.34 137.34 0 0 1 36.39-4.87h106a35.7 35.7 0 0 0 7.29-.75h413.61a14 14 0 0 1 14 14z" fill="#7986bf"/><path d="m854.07 780.86a40.74 40.74 0 0 1 40.74 40.74v22.22a0 0 0 0 1 0 0 40.74 40.74 0 0 1 -40.74-40.74v-22.22a0 0 0 0 1 0 0z" fill="#969ecc" transform="matrix(.38107038 .92454603 -.92454603 .38107038 1292.27 -305.68)"/><path d="m829.87 747.18a40.74 40.74 0 0 1 40.74 40.74v22.22a0 0 0 0 1 0 0 40.74 40.74 0 0 1 -40.74-40.74v-22.22a0 0 0 0 1 0 0z" fill="#7986bf" transform="matrix(.92454603 .38107038 -.38107038 .92454603 360.87 -265.24)"/><path d="m852.22 780.86a0 0 0 0 1 0 0v22.22a40.74 40.74 0 0 1 -40.74 40.74 0 0 0 0 1 0 0v-22.22a40.74 40.74 0 0 1 40.74-40.74z" fill="#969ecc" transform="matrix(-.38107038 .92454603 -.92454603 -.38107038 1899.88 352.81)"/><path d="m924.38 862.42a72.93 72.93 0 1 1 -145.86 0 70.75 70.75 0 0 1 .48-8.42 72.21 72.21 0 0 1 1.75-9.54h141.41a73.86 73.86 0 0 1 1.74 9.54 70.75 70.75 0 0 1 .48 8.42z" fill="#969ecc"/><rect fill="#7986bf" height="19.09" rx="9.54" width="167.18" x="769.55" y="825.38"/><path d="m923.9 854h-144.9a72.21 72.21 0 0 1 1.75-9.54h141.41a73.86 73.86 0 0 1 1.74 9.54z" fill="#7986bf"/><path d="m560.87 229.7a37.64 37.64 0 0 0 -14.94 73.21c-.68 0-1.36-.12-2-.21a37.63 37.63 0 1 1 17-73z" fill="#01162d"/><path d="m562.54 291.2a37.63 37.63 0 1 1 -49.43-56.48 38.11 38.11 0 0 1 4.77-3.06 37.64 37.64 0 0 0 44.66 59.54z" fill="#01162d"/><path d="m604.37 397.32h8a57.82 57.82 0 0 1 57.82 57.82 26.41 26.41 0 0 1 -26.41 26.41h-70.78a26.41 26.41 0 0 1 -26.41-26.41 57.82 57.82 0 0 1 57.82-57.82z" fill="#ffb2bf"/><path d="m554.72 503.92h99.1v69.15h-99.1z" fill="#fdc3cd"/><path d="m554.72 503.92h90.45v69.15h-90.45z" fill="#ffb2bf"/><path d="m554.72 503.92h99.1v28.63h-99.1z" fill="#f9a0b4"/><g fill="#ffb2bf"><path d="m645.17 503.92h8.64v28.63h-8.64z"/><path d="m867.43 919a18.11 18.11 0 0 0 -10-20.32l-75.12-32.68c-8.6-4-11.11 2.8-13.15 12.06l-4.31 19.51a27.67 27.67 0 0 0 27.72 33.64l57 2a18.11 18.11 0 0 0 17.86-14.21z"/><path d="m764.18 839.35h51.84v63.7h-51.84z"/></g><path d="m867.44 919a18.12 18.12 0 0 1 -17.16 14.19 18.09 18.09 0 0 0 -2.42-31.44l-31.86-13.84-9.54-4.16v-41.34h-42.27v-3.06h51.81v41.33l41.38 18a18.12 18.12 0 0 1 10.06 20.32z" fill="#fdc3cd"/><rect fill="#017aaf" height="78.98" rx="39.32" transform="matrix(.97663479 .21490579 -.21490579 .97663479 158.24 -132.81)" width="267.17" x="556.48" y="622.01"/><path d="m748.5 856.24v-171.56a39.48 39.48 0 0 1 40.57-39.46 39.48 39.48 0 0 1 38.38 39.46v172.41a11.23 11.23 0 0 1 -11.39 11.22l-56.51-.85a11.22 11.22 0 0 1 -11.05-11.22z" fill="#017aaf"/><path d="m827.45 684.69v172.4a11.22 11.22 0 0 1 -11.38 11.22l-11.43-.18a11.5 11.5 0 0 0 9.43-11.44l.16-178.05a41.12 41.12 0 0 0 -14.65-31.65 39.49 39.49 0 0 1 27.87 37.75z" fill="#0a94c4"/><path d="m874.48 406.22a28.5 28.5 0 0 1 -18.48 49.69l-155.87 2.93-50.8 1a28.5 28.5 0 0 1 -1.07-57l206.67-3.88a28.36 28.36 0 0 1 19.55 7.26z" fill="#ffb2bf"/><ellipse cx="872.01" cy="426.58" fill="#ffb2bf" rx="38.24" ry="32.22" transform="matrix(.9938841 -.1104282 .1104282 .9938841 -41.76 98.85)"/><path d="m907.41 437.52c0 .07-.07.13-.09.2a32.11 32.11 0 0 1 -2 3.61l-.28.43c-.32.47-.67.95-1 1.41-.08.12-.17.22-.25.33q-.65.84-1.35 1.65l-.25.27q-.6.68-1.23 1.32l-.38.38a42 42 0 0 1 -3.3 2.88l-.42.32c-.49.37-1 .73-1.51 1.09-.12.07-.22.15-.34.23-.62.42-1.26.82-1.92 1.21l-.32.18c-.56.33-1.14.64-1.72 1l-.46.23a41.9 41.9 0 0 1 -4.33 1.88 4.19 4.19 0 0 1 -.46.16c-.66.24-1.34.46-2 .68l-.28.08c-.81.24-1.61.46-2.43.65h-.23c-.74.18-1.51.33-2.27.46l-.38.07c-.85.15-1.71.28-2.57.37a44.33 44.33 0 0 1 -15.86-1.07h-.13-.14a37.7 37.7 0 0 1 -4.68-1.54l-187.89 3.53v-14l171.06-3.2 29.56-.56c12.31 10.17 39.83-2 35.8-25.48a31.12 31.12 0 0 0 -6.35-14.84c7.2 5 12.12 12.41 13.08 21a28.11 28.11 0 0 1 -2.68 15.07z" fill="#f9a0b4"/><path d="m342.24 406.22a28.5 28.5 0 0 0 18.5 49.69l155.87 2.93 50.81 1a28.49 28.49 0 1 0 1.06-57l-206.67-3.88a28.38 28.38 0 0 0 -19.57 7.26z" fill="#ffb2bf"/><ellipse cx="344.72" cy="426.58" fill="#ffb2bf" rx="32.22" ry="38.24" transform="matrix(.1104282 -.9938841 .9938841 .1104282 -117.31 722.11)"/><path d="m549.8 445.41v14l-187.8-3.48a37.7 37.7 0 0 1 -4.68 1.54h-.14-.13a44.28 44.28 0 0 1 -15.86 1.07c-.86-.09-1.72-.22-2.57-.37l-.37-.07c-.77-.13-1.53-.28-2.28-.46h-.22c-.83-.19-1.63-.41-2.44-.65l-.28-.08c-.69-.22-1.37-.44-2-.68a3.43 3.43 0 0 1 -.45-.16 41.9 41.9 0 0 1 -4.33-1.88l-.47-.23c-.58-.31-1.16-.62-1.72-1l-.32-.18c-.65-.39-1.29-.79-1.92-1.21-.12-.08-.22-.16-.34-.23-.51-.36-1-.72-1.51-1.09l-.42-.32a42 42 0 0 1 -3.3-2.88c-.12-.14-.25-.25-.37-.38-.42-.43-.84-.87-1.24-1.32l-.25-.27q-.69-.81-1.35-1.65l-.24-.33c-.35-.46-.68-.94-1-1.41-.09-.14-.19-.29-.27-.43a29.27 29.27 0 0 1 -2-3.61 1.63 1.63 0 0 1 -.09-.19 28.16 28.16 0 0 1 -2.61-15.17c1-8.62 5.88-16 13.08-21a31.32 31.32 0 0 0 -6.35 14.84c-4 23.51 23.49 35.65 35.8 25.48l29.56.56z" fill="#f9a0b4"/><path d="m653.82 563.84v27.16a93.47 93.47 0 0 1 -39.55 76.4c-7.54 5.32-23.17 9.51-37.11 12.36-33.4 6.84-66-17.12-67.49-51.18q-.06-1.42-.06-2.88c0-27.11 17-50.12 40.63-58.46a58 58 0 0 1 19.57-3.35z" fill="#017aaf"/><path d="m548.3 498.28h111.94a0 0 0 0 1 0 0v16.26a7.47 7.47 0 0 1 -7.47 7.47h-97a7.47 7.47 0 0 1 -7.47-7.47v-16.26a0 0 0 0 1 0 0z" fill="#4af9f9"/><rect fill="#4af9f9" height="75.58" rx="37.79" width="163.78" x="526.47" y="431.56"/><path d="m690.25 469.35a37.77 37.77 0 0 1 -30 37v8.23a7.49 7.49 0 0 1 -7.48 7.47h-18.31a7.48 7.48 0 0 0 7.47-7.47v-8.23a37.79 37.79 0 0 0 -7.78-74.77h18.32a37.8 37.8 0 0 1 37.78 37.8z" fill="#8dfffc"/><path d="m115.47 918.94a18.21 18.21 0 0 1 10.1-20.44l75.55-32.93c8.65-4 11.18 2.82 13.24 12.13l4.34 19.64a27.85 27.85 0 0 1 -27.9 33.85l-57.33 2a18.22 18.22 0 0 1 -18-14.25z" fill="#ffb2bf"/><path d="m310 849.63-53.08-32.93-35.39 28.85-78.77 55.71 68.38 10.88z" fill="#ffb2bf"/><path d="m310 849.63-2.39 1.51-41.67-25.85-35.39 28.85-19.45 13.75-21.53 15.23-43 18.75-12 5.21a18.25 18.25 0 0 0 -8.57 24.63 18.24 18.24 0 0 1 -.38-33.22l55-24 41-29 35.39-28.85z" fill="#fdc3cd"/><path d="m577.2 669.13-324.31 240.16a14.2 14.2 0 0 1 -19.89-3.16l-35.47-48a14.25 14.25 0 0 1 2.57-19.76l318.68-246.7c20.15-15.6 49.19-12.26 65.91 7.58 18.08 21.44 14.64 53.49-7.49 69.88z" fill="#017aaf"/><circle cx="553.85" cy="278.98" fill="#017cb0" r="37.63"/><circle cx="553.85" cy="278.98" fill="#017cb0" r="37.63"/><path d="m589.29 291.6a37.62 37.62 0 0 0 -72.29-20.12 37.62 37.62 0 1 1 72.31 20.12z" fill="#099fd3"/><path d="m602.84 259.93h3.58a48.13 48.13 0 0 1 48.13 48.13v41a36.7 36.7 0 0 1 -36.7 36.7h-11.74a51.41 51.41 0 0 1 -51.41-51.41v-26.28a48.13 48.13 0 0 1 48.14-48.14z" fill="#017cb0" transform="matrix(-.99647824 .08385176 -.08385176 -.99647824 1234.2 593.82)"/><path d="m588.33 373.74.92 9 2 19.47a15.76 15.76 0 1 0 31.35-3.21l-.2-2-2.72-26.45a15.75 15.75 0 0 0 -11.54-13.6 15.39 15.39 0 0 0 -3.09-.53 15.77 15.77 0 0 0 -16.72 17.32z" fill="#ffb2bf"/><path d="m588.33 373.74.92 9a52.78 52.78 0 0 0 33.15 14.26l-2.72-26.45a15.75 15.75 0 0 0 -11.54-13.6 15.39 15.39 0 0 0 -3.09-.53 15.77 15.77 0 0 0 -16.72 17.32z" fill="#f9a0b4"/><path d="m555.45 305.62 4.65 34.13a53 53 0 0 0 59.68 45.35 40.88 40.88 0 0 0 35-46l-3.9-28.64c0-.18-.05-.35-.08-.52-.11-.79-.24-1.56-.4-2.34a54.9 54.9 0 0 0 -60.6-44.22l-.74.1-1.71.23a37.88 37.88 0 0 0 -6.88 1.61 37.26 37.26 0 0 0 -25.02 40.3z" fill="#ffb2bf"/><path d="m624.93 384.05a40.9 40.9 0 0 0 21.28-41.61l-3.91-28.65c0-.17 0-.34-.07-.52-.12-.78-.24-1.56-.41-2.33a54.89 54.89 0 0 0 -60.6-44.21l-.74.09-1.7.24a32.84 32.84 0 0 0 -4.33.86 36.53 36.53 0 0 1 6-2.64 37.17 37.17 0 0 1 6.89-1.61l1.7-.23.74-.1a54.91 54.91 0 0 1 60.6 44.23c.16.77.29 1.54.41 2.33 0 .18.05.34.07.52l3.91 28.64a40.89 40.89 0 0 1 -29.84 44.99z" fill="#fdc3cd"/><path d="m550.06 330.65 8.37-22a20.18 20.18 0 0 1 3.43-5.81l-1.2-.16c-.43-.09-2-5.68-2-6.1a1 1 0 0 1 0-.29 48.29 48.29 0 0 1 21.78-31 37.88 37.88 0 0 1 6.88-1.61l1.71-.23.74-.1a54.9 54.9 0 0 1 60.6 44.22 48.08 48.08 0 0 1 -29.59 3l-16.3-2.15a24.6 24.6 0 0 0 -26.2 15.65 20.12 20.12 0 0 1 -25.95 11.67 4 4 0 0 1 -2.27-5.09z" fill="#f9a0b4"/><path d="m573.06 286.87a5.65 5.65 0 0 1 5.65 5.65v16.29a28.83 28.83 0 0 1 -28.83 28.83h-5.65a0 0 0 0 1 0 0v-21.94a28.83 28.83 0 0 1 28.83-28.83z" fill="#017cb0" transform="matrix(-.99647824 .08385176 -.08385176 -.99647824 1147.15 576.31)"/><circle cx="560.73" cy="329.6" fill="#ffb2bf" r="16.6"/><path d="m555.06 329.22a7.1 7.1 0 0 1 4.9-6.12 2 2 0 0 1 2.57 2.16l-.82 9.18a2.06 2.06 0 0 1 -3.09 1.58 7.12 7.12 0 0 1 -3.56-6.8z" fill="#f9a0b4"/><circle cx="635.39" cy="318.61" fill="#230d30" r="3.95"/><circle cx="599.52" cy="321.63" fill="#230d30" r="3.95"/><g fill="#e1160c"><ellipse cx="624.56" cy="334.06" rx="5.34" ry="4.46" transform="matrix(.99583681 -.09115401 .09115401 .99583681 -27.86 58.35)"/><ellipse cx="616.45" cy="334.81" rx="5.34" ry="4.46" transform="matrix(.99583681 -.09115401 .09115401 .99583681 -27.96 57.61)"/><path d="m629.87 333.58-18.74 1.71c.36 4 4.85 6.85 10 6.37s9.11-4.09 8.74-8.08z"/></g><path d="m616.55 335.92c.13 1.38 2.14 2.33 4.49 2.11s4.16-1.51 4-2.89" fill="#ed3a3a"/><path d="m599.61 248.32h46.54a13 13 0 0 1 13 13 47.78 47.78 0 0 1 -47.78 47.78h-59.5a0 0 0 0 1 0 0v-13a47.78 47.78 0 0 1 47.78-47.78z" fill="#017cb0" transform="matrix(.99065285 .13640721 -.13640721 .99065285 43.66 -79.97)"/><path d="m599.61 248.32h46.54a13 13 0 0 1 13 13 47.78 47.78 0 0 1 -47.78 47.78h-59.5a0 0 0 0 1 0 0v-13a47.78 47.78 0 0 1 47.78-47.78z" fill="#017cb0" transform="matrix(.99065285 .13640721 -.13640721 .99065285 43.66 -79.97)"/><path d="m582 268.4h34.92a6 6 0 0 1 6 6 22.07 22.07 0 0 1 -22.07 22.07h-34.98a6 6 0 0 1 -6-6 22.07 22.07 0 0 1 22.13-22.07z" fill="#099fd3" transform="matrix(.99065285 .13640721 -.13640721 .99065285 44.04 -78.01)"/><path d="m661 268.74a47.82 47.82 0 0 1 -42.31 41 47.74 47.74 0 0 0 24.43-35.41 13 13 0 0 0 -11.12-14.58l-46.1-6.36a48.12 48.12 0 0 0 -11.55-.18 47.42 47.42 0 0 1 29.43-5.41l46.1 6.35a13 13 0 0 1 11.12 14.59z" fill="#099fd3"/><g fill="#fdc3cd"><rect height="9.61" rx="4.8" transform="matrix(1 -.02 .02 1 -6.91 13.11)" width="141.3" x="696.58" y="408.08"/><rect height="9.61" rx="4.8" transform="matrix(-.9998567 -.01692889 .01692889 -.9998567 884.07 833.29)" width="141.3" x="374.93" y="408.08"/></g></svg>