<svg viewBox="0 0 1000 1000" xmlns="http://www.w3.org/2000/svg"><path d="m972.14 628.07v10.41a132 132 0 0 1 -16.14 63.35c-.5.91-1 1.81-1.52 2.7a133 133 0 0 1 -25.46 31.69c-.46.43-.93.85-1.4 1.27l-.14.12-1.58 1.39a131.59 131.59 0 0 1 -24.37 16.59c-2.38 1.26-4.81 2.45-7.27 3.56a128.46 128.46 0 0 1 -15 5.71c-1.21.38-2.43.74-3.65 1.08a132.49 132.49 0 0 1 -35.9 4.93h-53.71a27.32 27.32 0 0 0 -27.31 27.32v101.92h-456.69v-101.91a27.26 27.26 0 0 0 -17.36-25.43 27 27 0 0 0 -10-1.89h-90.34c-1.43 0-2.84 0-4.26-.06a137.1 137.1 0 0 1 -55.94-13.82c-1-.47-1.91-.94-2.86-1.44a137 137 0 0 1 -25-16.59l-.52-.43c-.38-.32-.76-.64-1.13-1l-1.59-1.32c-2.06-1.81-4.06-3.7-6-5.64a138.1 138.1 0 0 1 -20.44-26.05 136.47 136.47 0 0 1 -16.93-42.9 138.76 138.76 0 0 1 0-56.73c.23-1.15.49-2.29.76-3.43q1.07-4.5 2.43-8.9.77-2.46 1.62-4.89a136.31 136.31 0 0 1 13.83-28.38 138.47 138.47 0 0 1 31.94-34.94q4.42-3.43 9.16-6.5a136.79 136.79 0 0 1 38.54-17.32q5.91-1.62 12-2.71 4.53-.82 9.16-1.33a138.87 138.87 0 0 1 15.21-.83h106.07a35.75 35.75 0 0 0 35.75-34.84c0-.3 0-.61 0-.92 0-.14 0-.28 0-.41a35.74 35.74 0 0 0 -29.9-34.86 35.34 35.34 0 0 0 -5.85-.48h-178.88-2.1a83.19 83.19 0 0 1 -57-24.46c-.93-.93-1.84-1.88-2.72-2.85a83.55 83.55 0 0 1 0-112.54c.88-1 1.79-1.92 2.72-2.85a83.19 83.19 0 0 1 57-24.46q1 0 2.1 0a69 69 0 0 0 36.44-10.35 69.94 69.94 0 0 0 12-9.42 69.24 69.24 0 0 0 20.84-49.52v-70.6a27.31 27.31 0 0 1 27.31-27.32h636.61a83.61 83.61 0 0 1 33.68 160.14 81.56 81.56 0 0 1 -9.16 3.41 83.43 83.43 0 0 1 -24.52 3.66h-68a48.57 48.57 0 0 0 -23.29 5.93c-1.26.69-2.49 1.44-3.68 2.24a48.57 48.57 0 0 0 -21.63 40.42 48.54 48.54 0 0 0 21.67 40.41 47.8 47.8 0 0 0 9.16 4.8 48.34 48.34 0 0 0 17.81 3.37c.89 0 1.77 0 2.65.06a62.43 62.43 0 0 1 30.1 9.12c1.08.65 2.13 1.33 3.16 2.05a61.91 61.91 0 0 1 6 4.73 62.85 62.85 0 0 1 21.11 47.06v43a43.93 43.93 0 0 0 29.46 41.52c.59.21 1.19.4 1.79.58 2.38.71 4.84 1.49 7.37 2.37 5.09 1.73 10.44 3.8 15.91 6.25a152 152 0 0 1 34.65 21.21 123.15 123.15 0 0 1 9.16 8.34 115.25 115.25 0 0 1 15.22 18.87 112.89 112.89 0 0 1 13.13 28.38q.74 2.4 1.38 4.89c.75 2.88 1.42 5.85 2 8.9a146 146 0 0 1 2.34 26.57z" fill="#f3f4fe"/><path d="m875.63 766a132.49 132.49 0 0 1 -35.9 4.93h-53.73a27.32 27.32 0 0 0 -27.31 27.32v101.86h-456.69s57-264.11 155-267.22 122.05 103.33 122.05 103.33 17.16-188.88 153.65-202.3c70.45-6.92 115.67 113.69 142.93 232.08z" fill="#ebecfd"/><g fill="#d2d6fa"><rect height="17.61" rx="8.8" transform="matrix(-1 0 0 -1 221.75 1817.82)" width="74.06" x="73.85" y="900.1"/><rect height="17.61" rx="8.8" transform="matrix(-1 0 0 -1 1120.09 1817.82)" width="809.94" x="155.08" y="900.1"/><path d="m972.14 628.07v10.41a132 132 0 0 1 -16.14 63.35c-.5.91-1 1.81-1.52 2.7a133 133 0 0 1 -25.46 31.69c-.46.43-.93.85-1.4 1.27l-.14.12-1.58 1.39a131.59 131.59 0 0 1 -24.37 16.59c-2.38 1.26-4.81 2.45-7.27 3.56a128.46 128.46 0 0 1 -15 5.71 132.52 132.52 0 0 1 -39.55 6h-53.71a27.32 27.32 0 0 0 -27.31 27.32v101.93h-75.89v-810.38h161.87a83.61 83.61 0 0 1 33.68 160.14 81.56 81.56 0 0 1 -9.16 3.41 83.43 83.43 0 0 1 -24.52 3.66h-68a48.57 48.57 0 0 0 -23.29 5.93c-1.26.69-2.49 1.44-3.68 2.24a48.57 48.57 0 0 0 -21.63 40.42 48.54 48.54 0 0 0 21.67 40.47 47.8 47.8 0 0 0 9.16 4.8 48.34 48.34 0 0 0 17.81 3.37c.89 0 1.77 0 2.65.06a62.43 62.43 0 0 1 30.1 9.12c1.08.65 2.13 1.33 3.16 2.05a61.91 61.91 0 0 1 6 4.73 62.85 62.85 0 0 1 21.11 47.06v43a43.93 43.93 0 0 0 29.46 41.52c.59.21 1.19.4 1.79.58 2.38.71 4.84 1.49 7.37 2.37 5.09 1.73 10.44 3.8 15.91 6.25a152 152 0 0 1 34.65 21.21 123.15 123.15 0 0 1 9.16 8.34 115.25 115.25 0 0 1 15.22 18.87 112.89 112.89 0 0 1 13.13 28.38q.74 2.4 1.38 4.89c.75 2.88 1.42 5.85 2 8.9a146 146 0 0 1 2.34 26.57z"/></g><path d="m972.14 628.07v10.41a132 132 0 0 1 -16.14 63.35c-.5.91-1 1.81-1.52 2.7h-242.3v-576.74h202.6a83.61 83.61 0 0 1 -36.43 122.08 81.56 81.56 0 0 1 -9.16 3.41 83.43 83.43 0 0 1 -24.52 3.66h-68a48.57 48.57 0 0 0 -23.29 5.93c-1.26.69-2.49 1.44-3.68 2.24a48.57 48.57 0 0 0 -21.63 40.42 48.54 48.54 0 0 0 21.67 40.47 47.8 47.8 0 0 0 9.16 4.8 48.34 48.34 0 0 0 17.81 3.37c.89 0 1.77 0 2.65.06a62.43 62.43 0 0 1 30.1 9.12c1.08.65 2.13 1.33 3.16 2.05a61.91 61.91 0 0 1 6 4.73 62.85 62.85 0 0 1 21.11 47.06v43a43.93 43.93 0 0 0 29.46 41.52c.59.21 1.19.4 1.79.58 2.38.71 4.84 1.49 7.37 2.37 5.09 1.73 10.44 3.8 15.91 6.25a152 152 0 0 1 34.65 21.21 123.15 123.15 0 0 1 9.16 8.34 115.25 115.25 0 0 1 15.22 18.87 112.89 112.89 0 0 1 13.13 28.38q.74 2.4 1.38 4.89c.75 2.88 1.42 5.85 2 8.9a146 146 0 0 1 2.34 26.57z" fill="#f1f2fd"/><g fill="#d2d6fa"><path d="m967.8 592.57c.75 2.88 1.42 5.85 2 8.9h-257.62v-8.9z"/><path d="m758.9 127.79v132.52a48 48 0 0 0 -5.48 2.56c-1.26.69-2.49 1.44-3.68 2.24v-137.32z"/><path d="m749.74 346a47.8 47.8 0 0 0 9.16 4.8v353.73h-9.16z"/><path d="m809.47 127.79h9.15v129.15h-9.15z"/><path d="m812.63 365.36a61.91 61.91 0 0 1 6 4.73v334.44h-9.15v-341.22c1.07.69 2.12 1.33 3.15 2.05z"/><path d="m878.35 127.79v122.08a81.56 81.56 0 0 1 -9.16 3.41v-125.49z"/><path d="m871 502.26c2.38.71 4.84 1.49 7.37 2.37v199.9h-9.16v-202.85c.57.21 1.17.4 1.79.58z"/><path d="m938.07 540.43v164.1h-9.16v-172.44a123.15 123.15 0 0 1 9.16 8.34z"/><path d="m355.47 89.73v810.38h-53.47v-101.91a27.26 27.26 0 0 0 -17.36-25.43 27 27 0 0 0 -10-1.89h-90.34c-1.43 0-2.84 0-4.26-.06a137.1 137.1 0 0 1 -55.94-13.82c-1-.47-1.91-.94-2.86-1.44a137 137 0 0 1 -25-16.59l-.52-.43c-.38-.32-.76-.64-1.13-1l-1.59-1.32c-2.06-1.81-4.06-3.7-6-5.64a138.1 138.1 0 0 1 -20.44-26.05 136.47 136.47 0 0 1 -16.93-42.9 138.76 138.76 0 0 1 0-56.73c.23-1.15.49-2.29.76-3.43q1.07-4.5 2.43-8.9.77-2.46 1.62-4.89a136.31 136.31 0 0 1 13.83-28.38 138.47 138.47 0 0 1 31.94-34.94q4.42-3.43 9.16-6.5a136.79 136.79 0 0 1 38.54-17.32q5.91-1.62 12-2.71 4.53-.82 9.16-1.33a138.87 138.87 0 0 1 15.21-.83h106.07a35.75 35.75 0 0 0 35.75-34.84v-1.33a35.74 35.74 0 0 0 -29.9-34.86 35.34 35.34 0 0 0 -5.85-.48h-178.88-2.1a83.19 83.19 0 0 1 -57-24.46c-.93-.93-1.84-1.88-2.72-2.85a83.55 83.55 0 0 1 0-112.54c.88-1 1.79-1.92 2.72-2.85a83.19 83.19 0 0 1 57-24.46q1 0 2.1 0a69 69 0 0 0 36.44-10.35 69.94 69.94 0 0 0 12-9.42 69.24 69.24 0 0 0 20.84-49.52v-70.6a27.31 27.31 0 0 1 27.31-27.32z"/></g><path d="m326.1 127.79v331.71a35.74 35.74 0 0 0 -29.9-34.86 35.34 35.34 0 0 0 -5.85-.48h-178.88-2.1a83.19 83.19 0 0 1 -57-24.46c-.93-.93-1.84-1.88-2.72-2.85a83.55 83.55 0 0 1 0-112.54c.88-1 1.79-1.92 2.72-2.85a83.19 83.19 0 0 1 57-24.46q1 0 2.1 0a69 69 0 0 0 36.44-10.35 69.94 69.94 0 0 0 12-9.42 69.24 69.24 0 0 0 20.84-49.52v-59.92z" fill="#f1f2fd"/><path d="m326.1 460.83v243.7h-259.53a136.47 136.47 0 0 1 -16.93-42.9 138.76 138.76 0 0 1 0-56.73c.23-1.15.49-2.29.76-3.43q1.07-4.5 2.43-8.9.77-2.46 1.62-4.89a136.31 136.31 0 0 1 13.82-28.38 138.47 138.47 0 0 1 31.94-34.94q4.42-3.43 9.16-6.5a136.79 136.79 0 0 1 38.54-17.32q5.91-1.62 12-2.71 4.53-.82 9.16-1.33a138.87 138.87 0 0 1 15.21-.83h106.07a35.75 35.75 0 0 0 35.75-34.84z" fill="#f1f2fd"/><g fill="#d2d6fa"><path d="m326.1 592.57v8.9h-275.7q1.07-4.5 2.43-8.9z"/><path d="m279.37 127.79h9.16v296.37h-9.16z"/><path d="m279.37 495.67h9.16v208.86h-9.16z"/><path d="m219.65 127.79h9.16v296.37h-9.16z"/><path d="m219.65 495.67h9.16v208.86h-9.16z"/><path d="m169.09 226.14v198h-9.16v-187a68.71 68.71 0 0 0 9.16-11z"/><path d="m159.93 497.83q4.53-.82 9.16-1.33v208h-9.16z"/><path d="m109.37 257v167.13a83.61 83.61 0 0 1 -9.16-.72v-165.72a83.61 83.61 0 0 1 9.16-.69z"/><path d="m100.21 524.36q4.42-3.43 9.16-6.5v186.67h-9.16z"/><path d="m49.64 284.28v112.54a83.07 83.07 0 0 1 -9.16-12.1v-88.34a83.07 83.07 0 0 1 9.16-12.1z"/><path d="m49.64 604.9v56.73a138.76 138.76 0 0 1 0-56.73z"/></g><g fill="#ebecfd"><path d="m643.27 347h-37a18.48 18.48 0 0 1 37 0z"/><path d="m622.48 347h-53.08a26.54 26.54 0 1 1 53.08 0z"/><path d="m599.13 347h-64.8a32.4 32.4 0 0 1 64.8 0z"/></g><g fill="#d2d6fa"><path d="m363.63 291.43h301.62v6.95h-301.62z"/><path d="m363.63 291.43h301.62v6.95h-301.62z"/><path d="m524.46 189.84h207.16v6.95h-207.16z" transform="matrix(0 1 -1 0 821.35 -434.73)"/><path d="m410.85 189.84h207.16v6.95h-207.16z" transform="matrix(0 1 -1 0 707.75 -321.13)"/><path d="m297.25 189.84h207.16v6.95h-207.16z" transform="matrix(0 1 -1 0 594.14 -207.52)"/><path d="m363.63 261.67h301.62v6.95h-301.62z"/><path d="m363.63 276.79h301.62v6.95h-301.62z"/><path d="m363.63 231.9h301.62v6.95h-301.62z"/><path d="m363.63 202.14h301.62v6.95h-301.62z"/><path d="m363.63 172.37h301.62v6.95h-301.62z"/><path d="m363.63 142.61h301.62v6.95h-301.62z"/><path d="m363.63 112.84h301.62v6.95h-301.62z"/><path d="m363.63 246.79h301.62v6.95h-301.62z"/><path d="m363.63 217.02h301.62v6.95h-301.62z"/><path d="m363.63 187.26h301.62v6.95h-301.62z"/><path d="m363.63 157.49h301.62v6.95h-301.62z"/><path d="m363.63 127.73h301.62v6.95h-301.62z"/><path d="m363.63 97.96h301.62v6.95h-301.62z"/></g><path d="m390 860.4a258.87 258.87 0 0 0 3 39.77h453.3a258.87 258.87 0 0 0 3-39.77c0-92.61-48.13-173.22-119.15-214.9a217.42 217.42 0 0 0 -110.54-30.2c-73.82 0-139.61 37.23-181.61 95.06-30.09 41.45-48 93.52-48 150.04z" fill="#7986bf"/><path d="m285.77 900.18h293.45c0-85.61-58.32-159-141.19-189.81a239.14 239.14 0 0 0 -23.78-7.5c-69.25 47.93-116.94 117.82-128.48 197.31z" fill="#7986bf"/><path d="m468.84 900.18h377.48a259 259 0 0 0 3-36.38c0-1.13 0-2.26 0-3.4 0-61-20.89-116.81-55.44-159.7a236.26 236.26 0 0 0 -49-45.77q-7.19-5-14.74-9.43c-138.09 30.65-243.34 131.07-261.3 254.68z" fill="#d2d6fa"/><path d="m591.47 900.18h255.82c1.25-11.85 1.94-24 2.05-36.38 0-1.13 0-2.26 0-3.4 0-61-20.89-116.81-55.44-159.7-133.16 42.8-194.18 115.7-202.43 199.48z" fill="#7986bf"/><path d="m793.61 542.07a0 0 0 0 1 0 0v16.82a12.57 12.57 0 0 1 -12.61 12.57 0 0 0 0 1 0 0v-16.82a12.57 12.57 0 0 1 12.61-12.57z" fill="#153e63" transform="matrix(.15177837 -.98841455 .98841455 .15177837 117.57 1250.51)"/><path d="m800.9 565.14a12.54 12.54 0 0 0 -10.52-10.53l-16.63-2.55a12.34 12.34 0 0 1 0-3.74l16.63 2.55a12.57 12.57 0 0 1 10.52 14.27z" fill="#0c314c"/><circle cx="595.12" cy="403.55" fill="#153e63" r="50.55"/><path d="m551.16 405.73a50.49 50.49 0 0 0 23.84 44.19 50.56 50.56 0 1 1 46.8-89.33 50.58 50.58 0 0 0 -70.62 45.14z" fill="#396e96"/><rect fill="#153e63" height="87.15" rx="43.57" transform="matrix(.99968419 .0251301 -.0251301 .99968419 11.21 -16.72)" width="96.65" x="622.33" y="393.84"/><rect fill="#153e63" height="87.15" rx="43.57" transform="matrix(.99968419 .0251301 -.0251301 .99968419 10.99 -17.6)" width="96.65" x="656.97" y="384.49"/><path d="m590.61 420.43-.87 34.45a18.91 18.91 0 0 0 37.81.95l.87-34.45a18.91 18.91 0 1 0 -37.81-.95z" fill="#f5a491"/><path d="m590.61 420.43-.67 26.5a89.64 89.64 0 0 0 37.82.71l.66-26.26a18.91 18.91 0 1 0 -37.81-.95z" fill="#ef927f"/><path d="m565.34 342.91-.09 10-.06 6.87-.38 40.7a39.41 39.41 0 0 0 39 39.76 65.52 65.52 0 0 0 66.19-64.87l.26-28.65a35.67 35.67 0 0 0 -35.33-36l-29.32-.26-7.11-.07a32.81 32.81 0 0 0 -33.16 32.52z" fill="#f5a491"/><path d="m607.44 440.19c-1.19.07-2.39.09-3.59.08a39.41 39.41 0 0 1 -39-39.77l.37-40.68.06-6.88.08-10a32.82 32.82 0 0 1 33.13-32.51h3.74a32.81 32.81 0 0 0 -31.14 32.47l-.09 10-.07 6.88-.37 40.68a39.41 39.41 0 0 0 36.88 39.73z" fill="#ffc4af"/><path d="m565.34 342.91-.09 10-.06 6.87a32.38 32.38 0 0 0 40.38-49.33l-7.11-.07a32.81 32.81 0 0 0 -33.12 32.53z" fill="#ef927f"/><ellipse cx="581.2" cy="384.52" fill="#230d30" rx="4.37" ry="3.74" transform="matrix(.0251301 -.99968419 .99968419 .0251301 182.19 955.87)"/><ellipse cx="611.02" cy="385.27" fill="#230d30" rx="4.37" ry="3.74" transform="matrix(.0251301 -.99968419 .99968419 .0251301 210.51 986.41)"/><circle cx="681.66" cy="375.38" fill="#153e63" r="34.35"/><path d="m753.61 428.16v1.12a43.52 43.52 0 0 1 -21.32 36.38 43.53 43.53 0 0 0 16.47-33.05c0-.38 0-.75 0-1.12a43.56 43.56 0 0 0 -35.43-42.78c-1.15-.22-2.32-.39-3.5-.51a32.81 32.81 0 0 0 .82-3.59 33.36 33.36 0 0 0 .5-5 34.33 34.33 0 0 0 -51.28-30.74 34.34 34.34 0 0 1 54.81 36 43.58 43.58 0 0 1 38.93 43.29z" fill="#0c314c"/><g fill="#153e63"><circle cx="718.34" cy="463.52" r="31.03"/><circle cx="734.65" cy="494.97" r="24.97"/><circle cx="744.57" cy="516.64" r="20.26"/><circle cx="764.35" cy="536.11" r="17.62"/></g><path d="m776.2 549.13a17.35 17.35 0 0 0 2-7.66 17.66 17.66 0 0 0 -14.6-17.82 18.33 18.33 0 0 0 -2.58-.24h-.02a11.9 11.9 0 0 0 .09-1.34 19.92 19.92 0 0 0 -5.14-14 14.54 14.54 0 0 0 -1.09-1.13 24.34 24.34 0 0 0 1-6.43c0-.23 0-.48 0-.71a24.94 24.94 0 0 0 -10.86-20.47c-.38-.26-.76-.51-1.16-.75a29.52 29.52 0 0 0 1.44-6.19 30.11 30.11 0 0 0 .25-3.17 31 31 0 0 0 -53.53-22.06 31 31 0 0 1 55.7 26.51 25 25 0 0 1 10.91 28.33 20.26 20.26 0 0 1 6.23 15.13c0 .45 0 .91-.08 1.34a17.61 17.61 0 0 1 11.4 30.64z" fill="#0c314c"/><circle cx="666.97" cy="386.77" fill="#f5a491" r="16.66"/><path d="m672 387.07a7.21 7.21 0 0 1 -4.57 6.52 2.05 2.05 0 0 1 -2.74-2l.23-9.36a2.09 2.09 0 0 1 3-1.8 7.21 7.21 0 0 1 4.08 6.64z" fill="#ef927f"/><rect fill="#e1160c" height="20.08" rx="3.68" transform="matrix(.59355936 .80479021 -.80479021 .59355936 758.55 -401.66)" width="7.37" x="773.21" y="540.06"/><circle cx="659.43" cy="329.71" fill="#153e63" r="36.19"/><path d="m692 345.59a35.75 35.75 0 0 0 1-7.51 36.19 36.19 0 0 0 -68.7-16.78 36.19 36.19 0 1 1 67.7 24.29z" fill="#0c314c"/><circle cx="604.54" cy="309.97" fill="#153e63" r="36.19"/><circle cx="565.49" cy="336.51" fill="#153e63" r="36.19"/><path d="m636.29 292.61a36.2 36.2 0 0 0 -55.62 11 35.09 35.09 0 0 0 -2.75 7.13c-1-.12-2.11-.2-3.2-.23a36.93 36.93 0 0 0 -6.34.39 36.22 36.22 0 0 0 -26.33 53.15 36.19 36.19 0 0 1 24.35-63.75 30.3 30.3 0 0 1 3.2.23 36.18 36.18 0 0 1 66.69-8z" fill="#396e96"/><circle cx="609.99" cy="314.9" fill="#396e96" r="19.34"/><rect fill="#f5a491" height="163.83" rx="31.49" transform="matrix(.58891428 .8081955 -.8081955 .58891428 642.81 -218.18)" width="62.99" x="504.39" y="440.89"/><rect fill="#ef948c" height="74.06" rx="25.76" transform="matrix(-.42103581 .90704401 -.90704401 -.42103581 1020.18 248.78)" width="51.52" x="404.94" y="412.93"/><rect fill="#f5a491" height="163.83" rx="26.01" transform="matrix(.89609944 -.44385335 .44385335 .89609944 -176.89 260.27)" width="52.01" x="441.56" y="426.11"/><rect fill="#f5a491" height="74.06" rx="25.76" transform="matrix(-.42103581 .90704401 -.90704401 -.42103581 1020.18 248.78)" width="51.52" x="404.94" y="412.93"/><path d="m604.8 507.18a31.06 31.06 0 0 1 -9.62 11.39l-81.49 59.43a31.3 31.3 0 0 1 -18.51 6 26 26 0 0 1 -24.84-12.1v-.06c-9.88-14.32-48.46-97.59-48.46-97.59l-12.18-5.67a25.75 25.75 0 0 1 -8.72-40.11.93.93 0 0 0 -.05.1 25.74 25.74 0 0 0 12.51 34.2l4.3 2 7.89 3.66 4.85 9.8s43.1 87.07 43.52 87.77a31.43 31.43 0 0 0 24.88 12.16 31.39 31.39 0 0 0 12.91-2.78 32.27 32.27 0 0 0 5.6-3.26l81.51-59.39a31.14 31.14 0 0 0 5.9-5.55z" fill="#ef927f"/><g fill="#f5a491"><rect height="70.81" rx="9.32" transform="matrix(-.42103581 .90704401 -.90704401 -.42103581 983.41 225.75)" width="18.64" x="410.34" y="391.3"/><rect height="47.65" rx="9.32" transform="matrix(-.84675073 .53198985 -.53198985 -.84675073 1045.4 553.39)" width="18.64" x="433.66" y="403.47"/><circle cx="444.96" cy="445.59" r="18.36"/></g><g fill="#ef927f"><rect height="82.55" rx="41.28" transform="matrix(.99751511 .07045289 -.07045289 .99751511 48.65 -30.22)" width="206.74" x="349.08" y="632.77"/><path d="m201.43 868.29a24.17 24.17 0 0 1 2.25-30.16l63.58-68.13a19.77 19.77 0 0 1 30.77 2.3l15.1 22a36.94 36.94 0 0 1 -17.48 55.49l-65 27.15a24.17 24.17 0 0 1 -29.22-8.65z"/><path d="m300.13 819.49 112.71-120c15.32-16.31 16-43.41.35-59.74-15.81-16.54-40.71-14.17-54.56 4.34l-101.38 135.39c-7.51 10-4 26.44 7.47 37 11.36 10.46 27.02 11.94 35.41 3.01z"/></g><g fill="#f5a491"><rect height="82.55" rx="41.28" transform="matrix(.99807032 .06209375 -.06209375 .99807032 46.72 -28.4)" width="194.89" x="382.98" y="696.37"/><path d="m310.47 849.78 133.36-84.93c18-11.32 22.76-36.05 9.67-54.65-13.08-18.61-38-22.5-54.7-9.38l-125 96.8c-10.57 8.28-10.92 26-1.18 39.81 9.72 13.85 26.48 19.5 37.85 12.35z"/><path d="m199.17 888.76a24.17 24.17 0 0 1 5.09-29.76l74.57-65.26a19.78 19.78 0 0 1 30.42 5.19l12.95 23.27a36.93 36.93 0 0 1 -22.63 53.59l-72.1 24.31a24.17 24.17 0 0 1 -28.3-11.34z"/></g><path d="m577.77 741.13c0 .84 0 1.72-.08 2.58a41.3 41.3 0 0 1 -43.77 38.63l-107.08-6.67-100 63.66a36.94 36.94 0 0 1 -27.29 36.46l-72.07 24.31a24.18 24.18 0 0 1 -30.58-29.1 24.16 24.16 0 0 0 30.58 17l72.09-24.31c12.2-3.31 18.83-12.27 22.33-23.15 1-3.15-1.47-10.12-1.47-10.12l91.05-57.06 15.36-9.78 17.28 1.07 89.8 5.6a41.31 41.31 0 0 0 43.41-35.21 42 42 0 0 1 .44 6.09z" fill="#ef927f"/><rect fill="#f5a491" height="164.58" rx="31.64" transform="matrix(.43507396 -.90039472 .90039472 .43507396 -75.67 916.42)" width="63.28" x="660.79" y="436.22"/><path d="m766 525.75a31.57 31.57 0 0 1 2.27 24.06 27.72 27.72 0 0 0 -2-18.69c-.29-.61-.6-1.2-.92-1.77a27.62 27.62 0 0 0 -13.1-11.66 31.61 31.61 0 0 0 -9-6.52l-91.25-44.09a31.1 31.1 0 0 0 -6.19-2.24 31.34 31.34 0 0 1 14.77 3.16l91.21 44a31.55 31.55 0 0 1 14.21 13.75z" fill="#ffc4af"/><rect fill="#ffc4af" height="61.92" rx="10.79" transform="matrix(.58 .82 -.82 .58 771.7 29.17)" width="21.58" x="346.97" y="726.74"/><path d="m559.77 527.46h98.09v150.05h-98.09z" fill="#fff" transform="matrix(-.99815605 -.06070012 .06070012 -.99815605 1179.96 1240.78)"/><path d="m662.31 530.57-97.9-5.95-2.3 37.9 98.5-3.93z" fill="#efd6d8"/><path d="m542.75 452.46h130.11a0 0 0 0 1 0 0v1.3a60.77 60.77 0 0 1 -60.77 60.77h-8.56a60.77 60.77 0 0 1 -60.77-60.77v-1.3a0 0 0 0 1 -.01 0z" fill="#f5a491" transform="matrix(-.99815605 -.06070012 .06070012 -.99815605 1185.16 1002.97)"/><rect fill="#fff" height="65.91" rx="32.95" transform="matrix(-.99815605 -.06070012 .06070012 -.99815605 1177.53 1064.15)" width="148.17" x="530.83" y="481.25"/><path d="m678.86 518.7a32.94 32.94 0 0 1 -32.86 30.94c-.68 0-1.36 0-2 0l-8.38-.52a36.36 36.36 0 0 0 -3.13-66.21l15.51.94a33 33 0 0 1 30.86 34.85z" fill="#efd6d8"/><path d="m473.85 628.34h120.37a56.36 56.36 0 0 1 56.36 56.36v21.6a78 78 0 0 1 -78 78h-113.21a.77.77 0 0 1 -.77-.77v-139.93a15.26 15.26 0 0 1 15.26-15.26z" fill="#58a0eb" transform="matrix(.99807032 .06209375 -.06209375 .99807032 44.92 -33.07)"/><path d="m556.88 602.77h97.37v92.19h-97.37z" fill="#58a0eb" transform="matrix(.99807032 .06209375 -.06209375 .99807032 41.45 -36.34)"/><path d="m658.14 605.88-5.3 84.83-.45 7.17-.91 14.38c-2.68 43-39.88 75.64-83.1 73l-113.67-7a.78.78 0 0 1 -.73-.82l.66-10.62 94 5.8c43.21 2.68 80.42-30 83.11-73l.19-3 .71-11.4.44-7.18 2-31.87 2.61-41.55z" fill="#2d639e"/><rect fill="#e1617f" height="47.87" rx="9.36" transform="matrix(.52398591 .85172693 -.85172693 .52398591 795.72 -238.94)" width="18.72" x="602.26" y="568.48"/><circle cx="630.02" cy="590.61" fill="#e1617f" r="18.44"/><rect fill="#ef948c" height="74.4" rx="25.88" transform="matrix(.90296063 .42972328 -.42972328 .90296063 321.49 -213.85)" width="51.76" x="608.4" y="567.77"/><rect fill="#ef948c" height="71.13" rx="9.36" transform="matrix(.90296063 .42972328 -.42972328 .90296063 323.88 -202.71)" width="18.72" x="601.45" y="580.26"/><g fill="#f5a491"><rect height="47.87" rx="9.36" transform="matrix(.52398591 .85172693 -.85172693 .52398591 795.72 -238.94)" width="18.72" x="602.26" y="568.48"/><circle cx="630.02" cy="590.61" r="18.44"/><path d="m765.37 529.35c.32.57.63 1.16.92 1.77a27.72 27.72 0 0 1 2 18.69s0 0 0 0c-.1.46-.22.9-.36 1.34s-.23.73-.35 1.09a29.23 29.23 0 0 1 -2.32 5.06c-.19.31-.37.62-.56.92a1.7 1.7 0 0 1 -.15.22c-.22.35-.45.68-.7 1s-.44.62-.68.92c0 .07-.1.13-.15.2-.24.3-.48.58-.73.87l-.06.08c-.28.3-.56.62-.85.92s-.6.61-.91.9c0 0 0 .05-.05.06-.31.29-.62.57-.94.84s-.67.58-1 .85-.7.53-1.06.79a28.28 28.28 0 0 1 -4 2.38l-98 47.38a27.76 27.76 0 0 1 -37.2-13 27.85 27.85 0 0 1 13-37.2l98-47.39a27.78 27.78 0 0 1 23.17-.5 27.62 27.62 0 0 1 12.98 11.81z"/><rect height="74.4" rx="25.88" transform="matrix(.90296063 .42972328 -.42972328 .90296063 321.49 -213.85)" width="51.76" x="608.4" y="567.77"/></g><path d="m765.37 529.35c.32.57.63 1.16.92 1.77a27.72 27.72 0 0 1 2 18.69s0 0 0 0c-.1.46-.22.9-.36 1.34s-.23.73-.35 1.09a29.23 29.23 0 0 1 -2.32 5.06c-.19.31-.37.62-.56.92a1.7 1.7 0 0 1 -.15.22c-.22.35-.45.68-.7 1s-.44.62-.68.92c0 .07-.1.13-.15.2-.24.3-.48.58-.73.87l-.06.08c-.28.3-.56.62-.85.92s-.6.61-.91.9c0 0 0 .05-.05.06-.31.29-.62.57-.94.84s-.67.58-1 .85-.7.53-1.06.79a26.91 26.91 0 0 1 -4 2.39l-94.76 45.81-5.8 12.17a25.88 25.88 0 0 1 -30.31 13.8 25.93 25.93 0 0 0 21.75-14.71l3.45-7.26 2.34-4.9 11.69-5.65 73.46-35.51 9.62-4.65a27.78 27.78 0 0 0 14.93-18.51 31.53 31.53 0 0 0 -7.45-31.2 27.62 27.62 0 0 1 13.03 11.7z" fill="#ffc4af"/><rect fill="#f5a491" height="71.13" rx="9.36" transform="matrix(.90296063 .42972328 -.42972328 .90296063 323.88 -202.71)" width="18.72" x="601.45" y="580.26"/><rect fill="#ffc4af" height="31.56" rx="8.17" transform="matrix(.90296063 .42972328 -.42972328 .90296063 322.99 -214.55)" width="16.35" x="628.42" y="592.16"/><rect fill="#6f7d96" height="73.83" rx="3.68" transform="matrix(-.89594445 .44416612 -.44416612 -.89594445 1522.19 814.47)" width="7.35" x="662.02" y="548.61"/><rect fill="#4e4a65" height="68.62" rx="3.68" transform="matrix(-.89594445 .44416612 -.44416612 -.89594445 1543.31 797.03)" width="7.35" x="674.62" y="544.97"/><g fill="#a7bbd8"><path d="m516.46 621.13h14a0 0 0 0 1 0 0v2.67a4.59 4.59 0 0 1 -4.59 4.59h-4.87a4.59 4.59 0 0 1 -4.59-4.59v-2.67a0 0 0 0 1 0 0z" transform="matrix(-1 0 0 -1 1046.89 1249.51)"/><path d="m530.43 621.13h14a0 0 0 0 1 0 0v2.67a4.59 4.59 0 0 1 -4.59 4.59h-4.84a4.59 4.59 0 0 1 -4.59-4.59v-2.67a0 0 0 0 1 0 0z" transform="matrix(-1 0 0 -1 1074.83 1249.51)"/><path d="m544.4 621.13h14a0 0 0 0 1 0 0v2.67a4.59 4.59 0 0 1 -4.59 4.59h-4.81a4.59 4.59 0 0 1 -4.59-4.59v-2.67a0 0 0 0 1 0 0z" transform="matrix(-1 0 0 -1 1102.76 1249.51)"/></g><rect fill="#6f7d96" height="11.38" rx="5.69" transform="matrix(-1 0 0 -1 986.81 1260.28)" width="159.42" x="413.7" y="624.45"/><path d="m517.3 635.83h-133a12.18 12.18 0 0 1 -11.8-9.2l-25.92-103a12.18 12.18 0 0 1 11.8-15.14h117.4a12.16 12.16 0 0 1 11.8 9.2z" fill="#8797b1"/><path d="m346.56 523.63 25.92 103a12.18 12.18 0 0 0 11.8 9.2h135.08l-2.87-11.38h-107.15a12.18 12.18 0 0 1 -11.81-9.2l-25.91-103a12.12 12.12 0 0 1 -.35-3.76h-12.9a12.18 12.18 0 0 0 -11.81 15.14z" fill="#6f7d96"/><path d="m437.39 570.5a11.83 11.83 0 0 1 -22.23 5.64 11.84 11.84 0 0 0 15.17-16.46 11.81 11.81 0 0 1 7.06 10.82z" fill="#a7bbd8"/><path d="m550.21 745.56c-1.75.08-3.51.08-5.29 0l-53.28-2a5.73 5.73 0 1 1 .44-11.46l53.27 2a52.29 52.29 0 0 0 52.65-39.92l7.29-30.42a5.74 5.74 0 0 1 11.16 2.68l-7.3 30.42a63.81 63.81 0 0 1 -58.94 48.7z" fill="#6ab0ef"/><path d="m587.91 398.91a8.85 8.85 0 0 0 2.39 6.37c.2.21.4.41.61.6a8.84 8.84 0 0 0 5.59 2.22h.36a8.75 8.75 0 0 0 5.29-1.53 8.9 8.9 0 0 0 3.84-6.32c0-.25 0-.49 0-.74a1.71 1.71 0 0 0 -1.66-1.78l-14.69-.49a1.71 1.71 0 0 0 -1.73 1.67z" fill="#962f4a"/><path d="m596.72 406.74a7.7 7.7 0 0 0 .09 1.37h.05a8.89 8.89 0 0 0 9.13-7.86 7.09 7.09 0 0 0 -9.27 6.49z" fill="#e1617f"/><path d="m590 397.26c0 1.74 2.65 3.23 6 3.34s6-1.19 6.17-2.94z" fill="#fff"/></svg>