<svg viewBox="0 0 1000 1000" xmlns="http://www.w3.org/2000/svg"><path d="m972.17 641.73v10.41a132.57 132.57 0 0 1 -63.08 112.86q-4.64 2.85-9.52 5.32a131.74 131.74 0 0 1 -59.81 14.26h-53.69a27.33 27.33 0 0 0 -27.32 27.32v101.87h-456.75v-101.91a27.34 27.34 0 0 0 -27.32-27.32h-90.35c-.89 0-1.78 0-2.66 0-.54 0-1.07 0-1.61 0-2.66-.08-5.29-.24-7.91-.47a137 137 0 0 1 -63.22-22q-4.91-3.21-9.52-6.84-1.86-1.46-3.67-3-4.53-3.81-8.71-8a137.17 137.17 0 0 1 -40.3-97.3 138.55 138.55 0 0 1 1.53-20.6 135 135 0 0 1 5.82-23.84c.12-.39.25-.78.39-1.16a136.74 136.74 0 0 1 10.76-23.33q1.48-2.55 3.06-5a138.46 138.46 0 0 1 23.43-27.8q3.72-3.39 7.69-6.51 4.61-3.61 9.52-6.84a136.63 136.63 0 0 1 55.16-21c1.23-.18 2.46-.35 3.7-.5 1.44-.17 2.9-.32 4.36-.45.62-.05 1.25-.11 1.88-.15l2.88-.18c1.58-.08 3.17-.14 4.76-.17h2.66 106a35.68 35.68 0 0 0 25.29-10.47c.7-.7 1.36-1.43 2-2.18a35.69 35.69 0 0 0 0-46.23 35.71 35.71 0 0 0 -21.42-12.15 35.26 35.26 0 0 0 -5.85-.48h-178.86c-.86 0-1.71 0-2.56 0a82.74 82.74 0 0 1 -9.52-.84c-2.6-.37-5.17-.87-7.69-1.48a81.2 81.2 0 0 1 -10.28-3.21 83.58 83.58 0 0 1 -53.31-71.57c-.16-2.14-.24-4.29-.24-6.47a83.43 83.43 0 0 1 24.49-59.12 85.7 85.7 0 0 1 9.11-7.9 83.2 83.2 0 0 1 19.95-11 81.2 81.2 0 0 1 10.28-3.3c2.52-.61 5.09-1.11 7.69-1.48a82.74 82.74 0 0 1 9.52-.84h2.56a69.14 69.14 0 0 0 52.6-24.18c1.3-1.51 2.54-3.09 3.7-4.71a66.64 66.64 0 0 0 4.36-6.89c.72-1.3 1.4-2.62 2-4a64.59 64.59 0 0 0 2.73-6.66 69.82 69.82 0 0 0 3.88-22.89v-70.6a27.53 27.53 0 0 1 .88-6.9 27.92 27.92 0 0 1 1.37-4 26.76 26.76 0 0 1 3.84-6.34 27.25 27.25 0 0 1 21.22-10.13h636.62a83.61 83.61 0 1 1 0 167.21h-68a48.56 48.56 0 0 0 -48.58 48.59 48.52 48.52 0 0 0 48.58 48.59c.89 0 1.78 0 2.66.06a63 63 0 0 1 60.36 63v43a43.91 43.91 0 0 0 31.29 42.09 185.86 185.86 0 0 1 28.57 11.08c3.16 1.54 6.35 3.22 9.52 5.06 16.33 9.36 32.4 22.5 44.23 40.87a113.22 113.22 0 0 1 13.12 28.38 137.14 137.14 0 0 1 5.73 40.42z" fill="#f0f3f9"/><g fill="#34629b" opacity=".38"><path d="m108.93 270.64v167.14a82.74 82.74 0 0 1 -9.52-.84v-165.46a82.74 82.74 0 0 1 9.52-.84z" opacity=".11"/><path d="m99.41 538.65q4.61-3.61 9.52-6.84v230.25q-4.91-3.21-9.52-6.84z" opacity=".11"/><path d="m181.67 123.81v314h-9.52v-203c.72-1.3 1.4-2.62 2-4a64.59 64.59 0 0 0 2.73-6.66 69.82 69.82 0 0 0 3.88-22.89v-70.6a27.53 27.53 0 0 1 .91-6.85z" opacity=".11"/><path d="m176.91 509.53c1.58-.08 3.17-.14 4.76-.17v275.15c-.54 0-1.07 0-1.61 0-2.66-.08-5.29-.24-7.91-.47v-274.18c.62-.05 1.25-.11 1.88-.15z" opacity=".11"/><path d="m244.89 103.39h9.52v334.43h-9.52z" opacity=".11"/><path d="m244.89 509.33h9.52v275.21h-9.52z" opacity=".11"/><path d="m317.64 103.39h9.51v811.1h-9.51z" opacity=".11"/><path d="m390.38 103.39h9.52v811.1h-9.52z" opacity=".11"/><path d="m463.12 103.39h9.52v811.1h-9.52z" opacity=".11"/><path d="m535.86 103.39h9.52v811.1h-9.52z" opacity=".11"/><path d="m608.6 103.39h9.52v811.1h-9.52z" opacity=".11"/><path d="m681.35 103.39h9.51v811.1h-9.51z" opacity=".11"/><path d="m763.61 103.39v169a48.38 48.38 0 0 0 -9.52 3.8v-172.8z" opacity=".11"/><path d="m754.09 362.2a48.38 48.38 0 0 0 9.52 3.8v548.49h-9.52z" opacity=".11"/><path d="m826.83 103.39h9.52v167.21h-9.52z" opacity=".11"/><path d="m836.35 410.33v374.21h-9.52v-392a62.36 62.36 0 0 1 9.52 17.79z" opacity=".11"/><path d="m909.09 133.68v106.63a82.82 82.82 0 0 1 -9.52 9.76v-126.15a83.59 83.59 0 0 1 9.52 9.76z" opacity=".11"/><path d="m909.09 532.09v232.91q-4.64 2.85-9.52 5.32v-243.32c3.16 1.57 6.35 3.25 9.52 5.09z" opacity=".11"/></g><g fill="#6e8ec8"><rect height="17.61" rx="8.8" width="74.06" x="861.8" y="913.77"/><rect height="17.61" rx="8.8" width="809.94" x="44.69" y="913.77"/><path d="m657.1 396.84h52.77a90.46 90.46 0 0 1 90.46 90.46v30.15a0 0 0 0 1 0 0h-233.69a0 0 0 0 1 0 0v-30.15a90.46 90.46 0 0 1 90.46-90.46z"/><path d="m800.34 466.29v51.14c-77.16 21.06-155.14 19.2-233.72 0v-51.14a116.47 116.47 0 0 1 39.62-87.64c12.19-10.73 19.64-25.82 19.64-42a54.92 54.92 0 0 0 -4.9-22.68l-44.11-97.18c-14.36-31.62 8.75-67.53 43.5-67.53a29.2 29.2 0 0 0 29.2-29.2v-9h67.82v9a29.2 29.2 0 0 0 29.2 29.2c34.76 0 57.91 35.91 43.5 67.53l-44.09 97.1a54.92 54.92 0 0 0 -4.9 22.68c0 16.22 7.44 31.31 19.62 42a116.44 116.44 0 0 1 39.62 87.72z"/></g><path d="m566.62 466.28v51.16a432.67 432.67 0 0 0 132.29 14.72 427.27 427.27 0 0 1 -95.22-14.72v-51.16a116.5 116.5 0 0 1 39.64-87.67 59.1 59.1 0 0 0 14.38-19 53.87 53.87 0 0 0 5.29-23.04 55.08 55.08 0 0 0 -4.9-22.68l-44.12-97.18a47.64 47.64 0 0 1 43.51-67.53 29.2 29.2 0 0 0 29.15-29.18v-9h-37.07v9a29.2 29.2 0 0 1 -29.19 29.21 47.64 47.64 0 0 0 -43.52 67.53l44.14 97.15a55.08 55.08 0 0 1 4.9 22.68 53.73 53.73 0 0 1 -5.24 23.08 59.1 59.1 0 0 1 -14.38 19 116.5 116.5 0 0 0 -39.66 87.63z" fill="#5a80b7"/><g fill="#6e8ec8"><path d="m673.25 527.14h25.85v295.07h-25.85z"/><path d="m685.56 813.75a104.55 104.55 0 0 0 -77.56 34.45l-32 35.41 18.66 16.87 32-35.39a79.41 79.41 0 0 1 58.9-26.15 79.4 79.4 0 0 1 58.92 26.17l31.94 35.37 18.71-16.87-32-35.41a104.55 104.55 0 0 0 -77.57-34.45z"/><path d="m673.25 813.77h25.85a0 0 0 0 1 0 0v41.23a12.92 12.92 0 0 1 -12.92 13 12.92 12.92 0 0 1 -12.93-13v-41.23a0 0 0 0 1 0 0z"/><circle cx="584.97" cy="892.35" r="21.15"/><circle cx="784.72" cy="892.35" r="21.15"/></g><path d="m452.43 103.39v523h-404.17a135 135 0 0 1 5.82-23.84c.12-.39.25-.78.39-1.16a136.74 136.74 0 0 1 10.76-23.39q1.48-2.55 3.06-5a138.46 138.46 0 0 1 23.43-27.8 137 137 0 0 1 72.37-34.35c1.23-.18 2.46-.35 3.7-.5 2.06-.24 4.14-.45 6.24-.6l2.88-.18q3.69-.19 7.42-.2h106a35.76 35.76 0 0 0 5.85-71 35.26 35.26 0 0 0 -5.85-.48h-178.84a83.67 83.67 0 0 1 -19.77-2.36 81.2 81.2 0 0 1 -10.28-3.21 83.58 83.58 0 0 1 -53.31-71.57h-.3v-25.55l3.61-5.14a83.43 83.43 0 0 1 20.94-35 85.7 85.7 0 0 1 9.11-7.9 83.2 83.2 0 0 1 19.95-11 81.2 81.2 0 0 1 10.28-3.16 83.67 83.67 0 0 1 19.77-2.36 69.14 69.14 0 0 0 52.6-24.18c1.3-1.51 2.54-3.09 3.7-4.71a68.5 68.5 0 0 0 6.39-10.85 64.59 64.59 0 0 0 2.73-6.66 69.82 69.82 0 0 0 3.88-22.89v-70.6a27 27 0 0 1 2.21-10.89 26.76 26.76 0 0 1 3.84-6.34 27.25 27.25 0 0 1 21.22-10.13z" fill="#a5b8dd"/><path d="m426.52 103.39v499.11h-372.44c.12-.39.25-.78.39-1.16a136.74 136.74 0 0 1 10.76-23.34q1.48-2.55 3.06-5a138.46 138.46 0 0 1 23.43-27.8 137 137 0 0 1 72.37-34.35c1.23-.18 2.46-.35 3.7-.5 2.06-.24 4.14-.45 6.24-.6l2.88-.18q3.69-.19 7.42-.2h106a35.76 35.76 0 0 0 5.85-71 35.26 35.26 0 0 0 -5.85-.48h-178.84a83.67 83.67 0 0 1 -19.77-2.36 81.2 81.2 0 0 1 -10.28-3.21 83.58 83.58 0 0 1 -53.31-71.57h-.3v-25.55l3.61-5.14a83.43 83.43 0 0 1 20.94-35 85.7 85.7 0 0 1 9.11-7.9 83.2 83.2 0 0 1 19.95-11 81.2 81.2 0 0 1 10.28-3.16 83.67 83.67 0 0 1 19.77-2.36 69.14 69.14 0 0 0 52.6-24.18c1.3-1.51 2.54-3.09 3.7-4.71a68.5 68.5 0 0 0 6.39-10.85 64.59 64.59 0 0 0 2.73-6.66 69.82 69.82 0 0 0 3.88-22.89v-70.6a27 27 0 0 1 2.21-10.89 26.76 26.76 0 0 1 3.84-6.34 27.25 27.25 0 0 1 21.22-10.13z" fill="#ecf2fc"/><g fill="#cddbf1"><path d="m91.72 273v162.5a81.2 81.2 0 0 1 -10.28-3.21 83.58 83.58 0 0 1 -53.31-71.57h-.3v-25.52l3.61-5.14a83.43 83.43 0 0 1 20.94-35 85.7 85.7 0 0 1 9.11-7.9 83.2 83.2 0 0 1 19.95-11 81.2 81.2 0 0 1 10.28-3.16z"/><path d="m91.72 545.16v57.34h-37.64c.12-.39.25-.78.39-1.16a136.74 136.74 0 0 1 10.76-23.34q1.48-2.55 3.06-5a138.46 138.46 0 0 1 23.43-27.8z"/><path d="m426.53 103.39v499.11h-102.72v-116.24a35.84 35.84 0 0 0 0-25.37v-357.5z"/></g><path d="m323.81 103.39v357.5a35.79 35.79 0 0 0 -27.59-22.59 35.26 35.26 0 0 0 -5.85-.48h-17v-334.43z" fill="#b4c6e2"/><path d="m315.66 498.86a35.88 35.88 0 0 0 8.15-12.6v116.24h-50.46v-93.17h17a35.68 35.68 0 0 0 25.31-10.47z" fill="#b4c6e2"/><path d="m215.91 509.33v93.17h-48.12v-92.19c2.06-.24 4.14-.45 6.24-.6l2.88-.18q3.69-.19 7.42-.2z" fill="#cddbf1"/><path d="m215.91 103.39v334.43h-48.12v-196.11a68.5 68.5 0 0 0 6.39-10.85 64.59 64.59 0 0 0 2.73-6.66 69.82 69.82 0 0 0 3.88-22.89v-70.6a27 27 0 0 1 2.21-10.85 26.76 26.76 0 0 1 3.84-6.34 27.25 27.25 0 0 1 21.22-10.13z" fill="#cddbf1"/><path d="m215.91 103.39h35.71v334.43h-35.71z" fill="#b0c2df"/><path d="m215.91 509.33h35.71v93.17h-35.71z" fill="#b0c2df"/><g fill="#dee7f7"><path d="m81.44 276.17v84.51h-53.61v-25.48l3.61-5.14a83.43 83.43 0 0 1 20.94-35 85.7 85.7 0 0 1 9.11-7.9 83.2 83.2 0 0 1 19.95-10.99z"/><path d="m81.44 385.71v46.54a83.86 83.86 0 0 1 -47.44-46.54z"/><path d="m81.44 555.57v22.43h-16.21q1.48-2.55 3.06-5a138.7 138.7 0 0 1 13.15-17.43z"/><path d="m343.05 103.39h25.13v5.98h-25.13z"/><path d="m389.57 103.39h25.13v5.98h-25.13z"/><path d="m343.05 131.57h25.13v13.62h-25.13z"/><path d="m389.57 131.57h25.13v13.62h-25.13z"/><path d="m343.05 167.4h25.13v13.62h-25.13z"/><path d="m389.57 167.4h25.13v13.62h-25.13z"/><path d="m343.05 203.23h25.13v13.62h-25.13z"/><path d="m389.57 203.23h25.13v13.62h-25.13z"/><path d="m343.05 239.05h25.13v13.62h-25.13z"/><path d="m389.57 239.05h25.13v13.62h-25.13z"/><path d="m343.05 274.88h25.13v13.62h-25.13z"/><path d="m389.57 274.88h25.13v13.62h-25.13z"/><path d="m343.05 310.71h25.13v13.62h-25.13z"/><path d="m389.57 310.71h25.13v13.62h-25.13z"/><path d="m343.05 346.54h25.13v13.62h-25.13z"/><path d="m389.57 346.54h25.13v13.62h-25.13z"/><path d="m343.05 382.37h25.13v13.62h-25.13z"/><path d="m389.57 382.37h25.13v13.62h-25.13z"/><path d="m343.05 418.2h25.13v13.62h-25.13z"/><path d="m389.57 418.2h25.13v13.62h-25.13z"/><path d="m343.05 454.03h25.13v13.62h-25.13z"/><path d="m389.57 454.03h25.13v13.62h-25.13z"/><path d="m343.05 489.86h25.13v13.62h-25.13z"/><path d="m389.57 489.86h25.13v13.62h-25.13z"/><path d="m343.05 525.69h25.13v13.62h-25.13z"/><path d="m389.57 525.69h25.13v13.62h-25.13z"/><path d="m343.05 561.51h25.13v13.62h-25.13z"/><path d="m389.57 561.51h25.13v13.62h-25.13z"/><path d="m186.88 113.52v6.34h-3.88a26.76 26.76 0 0 1 3.88-6.34z"/><path d="m209 103.39v16.47h-12.85v-13.72a27.18 27.18 0 0 1 11.95-2.75z"/><path d="m180.79 138.99h28.2v19.6h-28.2z"/><path d="m180.79 172.52h6.09v19.6h-6.09z"/><path d="m196.15 172.52h12.85v19.6h-12.85z"/><path d="m209 211.25v19.61h-34.82a64.59 64.59 0 0 0 2.73-6.66 67.3 67.3 0 0 0 3.16-12.95z"/><path d="m174.03 244.78h12.85v19.6h-12.85z"/><path d="m196.15 244.78h12.85v19.6h-12.85z"/><path d="m174.03 282.94h34.96v19.6h-34.96z"/><path d="m174.03 316.47h12.85v19.6h-12.85z"/><path d="m196.15 316.47h12.85v19.6h-12.85z"/><path d="m174.03 354.63h34.96v19.6h-34.96z"/><path d="m174.03 388.16h12.85v19.6h-12.85z"/><path d="m196.15 388.16h12.85v19.6h-12.85z"/><path d="m174.03 426.33h34.96v11.49h-34.96z"/><path d="m209 509.33v8.29h-35v-7.91l2.88-.18q3.69-.19 7.42-.2z"/><path d="m174.03 531.55h12.85v19.6h-12.85z"/><path d="m196.15 531.55h12.85v19.6h-12.85z"/></g><path d="m176.91 224.2v213.62h-12.82v-191.4c1.3-1.51 2.54-3.09 3.7-4.71a68.5 68.5 0 0 0 6.39-10.85 64.59 64.59 0 0 0 2.73-6.66z" fill="#a5b8dd"/><path d="m176.91 509.53v93h-12.82v-91.72c1.23-.18 2.46-.35 3.7-.5 2.06-.24 4.14-.45 6.24-.6z" fill="#a5b8dd"/><path d="m270.79 159.66h95.62v177.12h-95.62z" fill="#4e3636"/><path d="m454.07 339a26.36 26.36 0 0 1 -41.91 21.25l-17.83-13-.07-.06-3.2-2.34-49.78-36.39a26.31 26.31 0 0 1 5.31-45.52c.68-.29 1.37-.55 2.05-.78a26.24 26.24 0 0 1 23.74 3.76l70.89 51.83a26.36 26.36 0 0 1 10.8 21.25z" fill="#ef948c"/><path d="m454.07 339a26.22 26.22 0 0 1 -5.07 15.56 24.16 24.16 0 0 1 -2.75 3.18 26.35 26.35 0 0 0 -8-33.11l-70.9-51.85a26.32 26.32 0 0 0 -34 2.52 27 27 0 0 1 2.25-3.67 26.35 26.35 0 0 1 36.82-5.72l70.89 51.83a26.36 26.36 0 0 1 10.76 21.26z" fill="#f79f9a"/><rect fill="#ef948c" height="139.65" rx="22.17" transform="matrix(-.66013278 -.75114893 .75114893 -.66013278 536.27 872.24)" width="44.33" x="443.27" y="244.99"/><rect fill="#ef948c" height="63.13" rx="21.96" transform="matrix(.04466556 .999002 -.999002 .04466556 771.04 -244.4)" width="43.92" x="491.36" y="249.41"/><path d="m544.88 280.56a22 22 0 0 1 -21 21.92l-11.43.51-68.19 59.94c-18.55 20-49.94-15.69-49.94-15.69l-.07-.05-3.21-2.34-49.78-36.4a26.38 26.38 0 0 1 -7.58-33.87 26.39 26.39 0 0 0 10.72 19.57l53.06 38.79s31.86 32.15 49.94 15.68l6.33-5.58 45.66-40.04 16.22-14.26 7.21-.33 4.22-.19a21.89 21.89 0 0 0 17.66-10.34c.07.58.13 1.16.15 1.73.02.28.03.62.03.95z" fill="#e87a74"/><g fill="#ef948c"><rect height="60.36" rx="7.94" transform="matrix(.04466556 .999002 -.999002 .04466556 771.81 -274.72)" width="15.89" x="521.61" y="236.04"/><rect height="40.62" rx="7.94" transform="matrix(.5809871 .81391277 -.81391277 .5809871 425.05 -307.32)" width="15.89" x="503.04" y="238.81"/><path d="m328.98 616.06h50.99v286.43h-50.99z"/><path d="m256.3 616.06h50.99v286.43h-50.99z" transform="matrix(-1 0 0 -1 563.58 1518.54)"/></g><path d="m328.98 616.06h50.99v33.72h-50.99z" fill="#e87a74"/><path d="m256.3 616.06h50.99v33.72h-50.99z" fill="#e87a74" transform="matrix(-1 0 0 -1 563.58 1265.83)"/><path d="m329.71 910.7h51.42a25.71 25.71 0 1 0 -51.42 0z" fill="#b0dff3"/><path d="m382.4 914.49h-55.17a8.72 8.72 0 0 1 -8.72-8.73 8.72 8.72 0 0 1 9.56-8.68l54.93 5.33a6 6 0 0 1 5.47 6 6.05 6.05 0 0 1 -6.07 6.08z"/><path d="m256.65 910.7h51.42a25.71 25.71 0 1 0 -51.42 0z" fill="#b0dff3"/><path d="m309.34 914.49h-55.17a8.72 8.72 0 0 1 -8.72-8.73 8.72 8.72 0 0 1 9.56-8.68l54.91 5.33a6.06 6.06 0 0 1 5.47 6 6.05 6.05 0 0 1 -6.05 6.08z"/><path d="m246.1 471h144.68v157.84h-144.68z"/><path d="m390.83 471v2.27 155.58h-8.91v-155.57c0-.76 0-1.52 0-2.27a63.13 63.13 0 0 0 -63.12-63.13h8.91a63.13 63.13 0 0 1 63.12 63.12z" fill="#191d1e"/><circle cx="317.17" cy="106.4" fill="#4e3636" r="37.77"/><circle cx="317.17" cy="106.4" fill="#4e3636" r="37.77"/><path d="m355 106.4a36.62 36.62 0 0 1 -.32 4.83 37.77 37.77 0 0 0 -74.91 0 36.62 36.62 0 0 1 -.32-4.83 37.78 37.78 0 0 1 75.55 0z" fill="#604646"/><circle cx="317.17" cy="134.79" fill="#f9be78" r="24.87"/><rect fill="#ef948c" height="140.51" rx="26.35" transform="matrix(.63607822 .77162458 -.77162458 .63607822 332.98 -66.07)" width="52.69" x="210.19" y="249.72"/><path d="m300.73 214.89v46.11a16.45 16.45 0 0 0 32.89 0v-46.11a16.45 16.45 0 1 0 -32.89 0z" fill="#ef948c"/><rect height="126.23" rx="63.12" transform="matrix(-1 0 0 -1 636.27 942.01)" width="145.37" x="245.45" y="407.89"/><path d="m270.67 342.69v70.67a47.87 47.87 0 1 0 95.73 0v-70.67z" fill="#b0dff3"/><path d="m270.67 326.07v70.7l95.73-20.74v-49.96z" fill="#9acfe2"/><path d="m395.17 337v2.62a35 35 0 0 1 -.84 7.64l-.07-.06-3.2-2.34-49.78-36.39a26.12 26.12 0 0 1 -8.26-10 26.3 26.3 0 0 1 15.67-29c.49.18 1 .38 1.46.57a70.2 70.2 0 0 1 10.41 5.29c1.19.73 2.35 1.5 3.49 2.3a67.89 67.89 0 0 1 6.32 4.93 72 72 0 0 1 24.8 54.44z" fill="#e87a74"/><path d="m389.59 330.53v2.61a35 35 0 0 1 -34.94 34.94h-75a34.94 34.94 0 0 1 -34.92-34.94v-2.61a72 72 0 0 1 10.82-38.06c.69-1.15 1.44-2.26 2.19-3.35a69.86 69.86 0 0 1 8.2-9.79c1.14-1.16 2.34-2.27 3.58-3.36a68.55 68.55 0 0 1 8.26-6.21c.52-.34 1.05-.67 1.58-1a70.39 70.39 0 0 1 11.8-5.84 72.57 72.57 0 0 1 53.35.57 71.23 71.23 0 0 1 10.49 5.29c1.18.73 2.36 1.49 3.5 2.3a72.77 72.77 0 0 1 19.23 19.71c.36.55.72 1.1 1.06 1.66a71.79 71.79 0 0 1 10.8 38.08z" fill="#b0dff3"/><path d="m389.58 330.52v2.62a34.93 34.93 0 0 1 -34.93 34.93h-23.31a78 78 0 0 0 25.91-97.82l1.21.83a67.89 67.89 0 0 1 6.32 4.93 72 72 0 0 1 24.8 54.51z" fill="#caf1ff"/><path d="m300.73 214.89v35.56a40 40 0 0 0 32.89.86v-36.42a16.45 16.45 0 1 0 -32.89 0z" fill="#e87a74"/><circle cx="276.04" cy="196.34" fill="#ef948c" r="16.8"/><ellipse cx="318.15" cy="192.16" fill="#ef948c" rx="47.48" ry="57.37"/><path d="m266.13 195.79a7.28 7.28 0 0 1 4.46-6.71 2.08 2.08 0 0 1 2.82 2v9.47a2.12 2.12 0 0 1 -3 1.9 7.3 7.3 0 0 1 -4.28-6.66z" fill="#e87a74"/><circle cx="340.3" cy="198.44" fill="#4e3636" r="3.61"/><circle cx="303.34" cy="198.44" fill="#4e3636" r="3.61"/><path d="m331 215.88a11.81 11.81 0 0 1 -3.86 8.3c-.3.26-.59.5-.9.74a12.13 12.13 0 0 1 -7.8 2.42h-.49a12.21 12.21 0 0 1 -7.05-2.57 11.88 11.88 0 0 1 -4.6-8.83 8.18 8.18 0 0 1 0-1 2.26 2.26 0 0 1 .74-1.61 2.35 2.35 0 0 1 1.69-.61l20 .76a2.33 2.33 0 0 1 2.27 2.4z" fill="#962f4a"/><path d="m318.23 225.5a9.17 9.17 0 0 1 -.25 1.83h-.07a12.06 12.06 0 0 1 -11.64-11.41 10 10 0 0 1 2.7-.27 9.56 9.56 0 0 1 9.26 9.85z" fill="#e1617f"/><path d="m328.27 213.47c-.19 2.33-3.92 4.07-8.42 3.89s-8.1-2.18-8.1-4.53z" fill="#fff"/><path d="m326.21 224.92a12.2 12.2 0 0 1 -7.8 2.43h-.5a12.2 12.2 0 0 1 -7-2.57c1.28-2.41 4.38-4 7.94-3.91a8.69 8.69 0 0 1 7.36 4.05z" fill="#fff"/><rect fill="#ef948c" height="139.65" rx="22.17" transform="matrix(.75631038 -.65421297 .65421297 .75631038 -194.91 244.23)" width="44.33" x="208.19" y="313.91"/><rect fill="#ef948c" height="63.13" rx="21.96" transform="matrix(-.99932198 .03681812 -.03681812 -.99932198 543.37 853.75)" width="43.92" x="241.86" y="400.32"/><path d="m265 463.43a22.66 22.66 0 0 0 5.81-1 21.72 21.72 0 0 1 -6.26-1.43 22 22 0 0 1 -13.95-19.65l-.09-2.35-.34-9.09-8.53-9.86-50.86-58.8a22.18 22.18 0 0 1 10.14-35.66 22.17 22.17 0 0 0 -18.48 36.61l59.39 68.65.42 11.44a22 22 0 0 0 22.75 21.14z" fill="#e87a74"/><path d="m381.92 471v2.27z"/><path d="m381.92 471v2.27z"/><path d="m381.92 471v2.27z"/><circle cx="361.35" cy="196.34" fill="#ef948c" r="16.8"/><path d="m369.27 195.75a7.28 7.28 0 0 1 -4.46 6.71 2.08 2.08 0 0 1 -2.82-2v-9.46a2.12 2.12 0 0 1 3-1.9 7.3 7.3 0 0 1 4.28 6.65z" fill="#e87a74"/><g fill="#4e3636"><circle cx="336.26" cy="144.16" r="28.09"/><circle cx="300.73" cy="155.22" r="24.24"/><circle cx="279.26" cy="170.45" r="18.47"/><circle cx="360.81" cy="168.24" r="16.26"/><circle cx="336.26" cy="144.16" r="28.09"/><circle cx="300.73" cy="155.22" r="24.24"/><circle cx="279.26" cy="170.45" r="18.47"/><circle cx="360.81" cy="168.24" r="16.26"/></g><path d="m364.35 144.17a27.58 27.58 0 0 1 -.61 5.78 28.08 28.08 0 0 0 -49.07-14.55 27.76 27.76 0 0 0 -4.53 7.21c-.61-.26-1.23-.51-1.86-.71a23.66 23.66 0 0 0 -7.88-1.33 24.19 24.19 0 0 0 -20.57 11.43 23.39 23.39 0 0 0 -3 7.2 22.17 22.17 0 0 0 -.47 2.56 18.5 18.5 0 0 0 -15.09 12.87 18.5 18.5 0 0 1 15.42-22.46 24.27 24.27 0 0 1 33.78-19.17 28.1 28.1 0 0 1 53.88 11.16z" fill="#604646"/><path d="m377.07 168.24a15.86 15.86 0 0 1 -.91 5.35 16.22 16.22 0 0 0 -13.32-11.83 27.4 27.4 0 0 0 1.17-8c0-.49 0-1-.05-1.47a16.26 16.26 0 0 1 13.11 15.95z" fill="#604646"/><path d="m378.76 292.45c-15 10.9-37 17.75-61.57 17.75s-46.59-6.85-61.6-17.73c.69-1.15 1.44-2.26 2.19-3.35a69.86 69.86 0 0 1 8.2-9.79c1.14-1.16 2.34-2.27 3.58-3.36a68.55 68.55 0 0 1 8.26-6.21c.52-.34 1.05-.67 1.58-1a70.39 70.39 0 0 1 11.8-5.84 72.57 72.57 0 0 1 53.35.57 71.23 71.23 0 0 1 10.45 5.29c1.18.73 2.36 1.49 3.5 2.3a72.77 72.77 0 0 1 19.23 19.71c.33.55.69 1.1 1.03 1.66z" fill="#ef948c"/><rect fill="#9acfe2" height="9.59" rx="4.8" width="39.27" x="297.54" y="252.64"/><rect fill="#f79f9a" height="148.41" rx="7.33" width="14.66" x="355.42" y="694.08"/></svg>