<svg viewBox="0 0 1000 1000" xmlns="http://www.w3.org/2000/svg"><path d="m967.85 795.32a65.84 65.84 0 0 1 -46.56 112.42h-824.47a65.57 65.57 0 0 1 -42-15.16 61 61 0 0 1 -4.54-4.13c-.81-.81-1.61-1.64-2.38-2.5a65.18 65.18 0 0 1 -10.1-14.88 61.76 61.76 0 0 1 -2.94-6.91 65.83 65.83 0 0 1 62-88.13h85.86a43.09 43.09 0 0 0 18-3.89 43.8 43.8 0 0 0 12.62-8.78 43.25 43.25 0 0 0 -30.58-73.83h-13.56a99.46 99.46 0 0 1 -22.31-2.5h-.07a4.7 4.7 0 0 1 -.51-.12c-.56-.12-1.11-.25-1.66-.4-.28-.06-.55-.14-.82-.21-.72-.19-1.44-.37-2.15-.58l-1.79-.54a100.12 100.12 0 0 1 -70.56-90.18c-.1-1.81-.15-3.66-.15-5.5 0-.48 0-1 0-1.43a99.89 99.89 0 0 1 49.82-85.07 98.12 98.12 0 0 1 14.47-6.92q3.15-1.2 6.39-2.21 3.42-1 6.93-1.84a100 100 0 0 1 22.38-2.52h73.66a44.1 44.1 0 0 0 44-41.52c.05-.86.08-1.71.08-2.58a44.12 44.12 0 0 0 -44.1-44.11h-134.53a104.49 104.49 0 0 1 -36.43-6.52 99.91 99.91 0 0 1 -12-5.35q-2.58-1.35-5.07-2.83-3.55-2.1-6.92-4.5a104.74 104.74 0 0 1 -41.77-63.1c-.5-2.29-.92-4.59-1.26-6.93a105.56 105.56 0 0 1 -1.11-15.3 104.14 104.14 0 0 1 26.71-69.79c1.26-1.42 2.57-2.81 3.91-4.15.95-.95 1.92-1.89 2.91-2.79a105 105 0 0 1 10.62-8.63c.86-.62 1.74-1.2 2.62-1.8q2.11-1.41 4.3-2.71c.24-.13.47-.28.71-.42 1.43-.84 2.89-1.65 4.36-2.41a99.85 99.85 0 0 1 12-5.34 104 104 0 0 1 36.43-6.52 29.16 29.16 0 0 0 26.71-17.53 28.76 28.76 0 0 0 2.26-8.5 25.58 25.58 0 0 0 .16-2.77c0-.14 0-.27 0-.4v-20.81a50 50 0 0 1 2.07-14.2c.13-.42.26-.86.4-1.27a49.89 49.89 0 0 1 43-34.25c1.49-.13 3-.19 4.51-.19h293a49.76 49.76 0 0 1 34.53 13.85c.27.25.53.51.79.78a49.78 49.78 0 0 1 14.59 33.64v1.67s0 1 0 1.42a49.67 49.67 0 0 0 .7 7c.08.48.18 1 .27 1.46.19.93.41 1.86.64 2.77a49.71 49.71 0 0 0 3.09 8.52c.44.93.91 1.86 1.4 2.77.23.42.47.84.72 1.27a49.71 49.71 0 0 0 5.16 7.23 48.71 48.71 0 0 0 4.6 4.71c.73.66 1.48 1.29 2.24 1.91a49.81 49.81 0 0 0 31.11 10.86h146.17q4.3 0 8.5.42a82.18 82.18 0 0 1 37.09 13.23 81.81 81.81 0 0 1 10.84 8.5c.39.36.79.72 1.17 1.11 1.18 1.12 2.32 2.29 3.41 3.48l.1.1c.31.33.61.67.89 1 .87 1 1.71 1.94 2.52 3 .36.42.71.86 1 1.31s.67.86 1 1.3.68.91 1 1.37c.15.18.29.37.42.56 1.08 1.53 2.1 3.1 3.08 4.71.68 1.11 1.33 2.25 2 3.4q1.35 2.51 2.54 5.1 1.07 2.31 2 4.71a79.49 79.49 0 0 1 2.75 8.5c.42 1.54.79 3.11 1.11 4.69a79.66 79.66 0 0 1 1.27 8.51 81.46 81.46 0 0 1 .4 8.15v68.31a54.52 54.52 0 0 0 54.5 54.48h83.06a49.08 49.08 0 0 1 33.2 12.91c.55.5 1.09 1 1.61 1.54a49.19 49.19 0 0 1 -28.37 83.55 48.49 48.49 0 0 1 -6.41.42 30.85 30.85 0 0 0 -30.88 30.88v98.73a63.47 63.47 0 0 1 -30.15 54c-1 .62-2 1.21-3.07 1.77-.48.27-1 .52-1.46.77a2.25 2.25 0 0 1 -.38.19c-.49.25-1 .49-1.48.72a.76.76 0 0 1 -.18.09c-.55.25-1.1.5-1.65.73s-1.18.5-1.77.73a57.45 57.45 0 0 1 -5.63 1.93 63.24 63.24 0 0 1 -17.67 2.5 43.25 43.25 0 1 0 0 86.5h68.52a65.65 65.65 0 0 1 46.56 19.29z" fill="#f3f4fe"/><g fill="#bcbff6"><path d="m698.95 226.93h85.1v85.1h-85.1z"/><path d="m784.05 215.41v4.59h-85.05v-27.84h27.46q4.3 0 8.5.42a82.18 82.18 0 0 1 37.04 13.22 81.81 81.81 0 0 1 10.84 8.5c.43.36.83.7 1.21 1.11z"/><path d="m698.95 318.95h85.1v85.1h-85.1z"/><path d="m698.95 410.97h85.1v85.1h-85.1z"/><path d="m698.95 502.99h85.1v85.1h-85.1z"/><path d="m698.95 595.01h85.1v85.1h-85.1z"/><path d="m698.95 687.03h85.1v85.1h-85.1z"/><path d="m698.95 779.05h85.1v85.1h-85.1z"/><path d="m698.95 871.07h85.1v36.68h-85.1z"/><path d="m146.82 226.93h85.1v85.1h-85.1z"/><path d="m146.82 134.91h85.1v85.1h-85.1z"/><path d="m231.92 92.26v35.74h-85.1v-14.95a49.82 49.82 0 0 1 36-20.6c1.49-.13 3-.19 4.51-.19z"/><path d="m146.82 318.95h85.1v82.34h-85.1z"/><path d="m231.91 489.49h.01v6.57h-.01z"/><path d="m146.82 502.99h85.1v85.1h-85.1z"/><path d="m146.82 595.01h85.1v85.1h-85.1z"/><path d="m231.92 687v85.1z"/><path d="m146.82 779.05h85.1v85.1h-85.1z"/><path d="m146.82 871.07h85.1v36.68h-85.1z"/></g><g fill="#edeefe"><path d="m883 398.09v283.78a58 58 0 0 1 -6.92 3.23v-287z"/><path d="m876.07 776.03h6.92v131.71h-6.92z"/><path d="m791 223v684.74h-6.92v-692.33c1.18 1.12 2.32 2.29 3.41 3.48l.1.1c.31.33.61.67.89 1 .84 1.01 1.68 1.94 2.52 3.01z"/><path d="m692.03 192.16h6.92v715.59h-6.92z"/><path d="m600 192.16h6.93v715.59h-6.93z"/><path d="m514.91 106.11v801.63h-6.91v-807.18a49.44 49.44 0 0 1 6.91 5.55z"/><path d="m415.96 92.26h6.92v815.49h-6.92z"/><path d="m323.94 92.26h6.92v815.49h-6.92z"/><path d="m231.91 92.26h6.93v309.03h-6.93z"/><path d="m231.91 489.49h6.93v418.25h-6.93z"/><path d="m146.82 113.05v288.23h-6.93v-274.58a49.76 49.76 0 0 1 6.93-13.65z"/><path d="m146.82 492v195a4.7 4.7 0 0 1 -.51-.12c-.56-.12-1.11-.25-1.66-.4-.28-.06-.55-.14-.82-.21-.72-.19-1.44-.37-2.15-.58l-1.79-.54v-191.3q3.42-1.03 6.93-1.85z"/><path d="m139.89 776.03h6.93v131.71h-6.93z"/><path d="m54.79 206.85v179.73q-3.55-2.1-6.92-4.5v-170.72c.86-.62 1.74-1.2 2.62-1.8q2.12-1.41 4.3-2.71z"/><path d="m54.79 791.2v101.38a61 61 0 0 1 -4.54-4.13c-.81-.81-1.61-1.64-2.38-2.5v-88.11a65.8 65.8 0 0 1 6.92-6.64z"/><path d="m983.28 864.16a65.73 65.73 0 0 1 -2.94 6.91h-942.57a61.76 61.76 0 0 1 -2.94-6.91z"/><path d="m941.05 779.05h-864a65.85 65.85 0 0 1 19.76-3h85.86a43.09 43.09 0 0 0 18-3.89h634.13a43.13 43.13 0 0 0 18 3.89h68.52a65.85 65.85 0 0 1 19.73 3z"/><path d="m886.06 680.1c-1 .62-2 1.21-3.07 1.77-.48.27-1 .52-1.46.77a2.25 2.25 0 0 1 -.38.19c-.49.25-1 .49-1.48.72a.76.76 0 0 1 -.18.09c-.55.25-1.1.5-1.65.73s-1.18.5-1.77.73a57.45 57.45 0 0 1 -5.63 1.93h-723.62a4.7 4.7 0 0 1 -.51-.12c-.56-.12-1.11-.25-1.66-.4-.28-.06-.55-.14-.82-.21-.72-.19-1.44-.37-2.15-.58l-1.79-.54a98.83 98.83 0 0 1 -13.12-5.06z"/><path d="m916.21 588.08v6.92h-846.88c-.1-1.81-.15-3.66-.15-5.5 0-.48 0-1 0-1.43z"/><path d="m953.5 496.06a48.49 48.49 0 0 1 -6.41.42 30.82 30.82 0 0 0 -19 6.5h-809.09a98.12 98.12 0 0 1 14.47-6.92z"/><path d="m980.26 411h-709.83a43.87 43.87 0 0 0 -12.2-6.92h712.33a49.29 49.29 0 0 1 9.7 6.92z"/><path d="m809.51 312v7h-803.42c-.5-2.29-.92-4.59-1.26-6.93z"/><path d="m794 226.93h-763.57c1.26-1.42 2.57-2.81 3.91-4.15.95-.95 1.92-1.89 2.91-2.79h751.2a75.31 75.31 0 0 1 5.55 6.94z"/><path d="m529.79 134.91h-391.79a49.51 49.51 0 0 1 1.53-6.94h388.74a49.49 49.49 0 0 1 1.52 6.94z"/></g><g fill="#fff"><circle cx="318.03" cy="223.46" opacity=".51" r="28.71"/><circle cx="710.33" cy="835.43" opacity=".51" r="22.34"/><circle cx="732.51" cy="822.07" opacity=".51" r="13.36"/><circle cx="293.04" cy="837.23" opacity=".51" r="18.35"/><circle cx="311.25" cy="826.26" opacity=".51" r="10.97"/><circle cx="624.92" cy="325.76" opacity=".51" r="44.37"/><circle cx="668.96" cy="299.24" opacity=".51" r="26.53"/><circle cx="685.63" cy="324.61" opacity=".51" r="26.53"/><circle cx="289.32" cy="240.77" opacity=".51" r="28.71"/></g><rect fill="#bcbff6" height="680.67" opacity=".4" rx="34.89" width="352.1" x="309.59" y="226.46"/><rect fill="#c7edef" height="723.51" rx="37.08" width="374.27" x="264.05" y="153.39"/><g fill="#bee8ea"><path d="m539.53 153.39h12.8v723.51h-12.8z"/><path d="m444.78 153.39h12.8v723.51h-12.8z"/><path d="m350.04 153.39h12.8v723.51h-12.8z"/></g><path d="m601.17 353.7c.15-.22.28-.45.42-.68q.42-.66.81-1.35l.44-.85c.22-.45.43-.9.63-1.36q.21-.46.39-.93c.19-.48.36-1 .52-1.45.11-.32.21-.63.31-.95.16-.55.3-1.11.43-1.67.06-.28.14-.56.2-.84.17-.86.32-1.73.42-2.63 1.48-13.11-5.7-24.68-16-25.85-.13 0-.27 0-.4 0a12.41 12.41 0 0 0 -1.35-.06c-.23 0-.45 0-.68 0h-.78c-8.26.81-15.5 8.35-17.72 18.59l-34.36 26.13-42.78-28.78a51.56 51.56 0 0 0 11.25-8.58 51.36 51.36 0 0 0 -6.38-77.84c.06-.31.12-.62.17-.94 0-.1 0-.2.05-.3.17-1.07.29-2.15.38-3.24 0-.21 0-.43.05-.64.08-1.11.14-2.23.14-3.36a46.48 46.48 0 0 0 -46.48-46.48c-1 0-2 0-3 .11h-.44c-.85.06-1.68.15-2.51.25l-.48.06a46.44 46.44 0 0 0 -5.68 1.15l-.28.08q-1.24.35-2.46.75l-.4.14a47.14 47.14 0 0 0 -5.29 2.2l-.08.05c-.81.4-1.6.82-2.38 1.27l-.33.19c-.78.45-1.56.93-2.31 1.43a47 47 0 0 0 -4.52 3.42l-.31.27c-.63.55-1.25 1.11-1.85 1.7a1.8 1.8 0 0 0 -.2.19 46.75 46.75 0 0 0 -3.72 4.11l-.34.43c-.47.59-.92 1.2-1.35 1.81-.08.12-.17.23-.25.34a46.5 46.5 0 0 0 -35.3 60.41 46.63 46.63 0 0 0 -20.74 23.12h-.16l-.47-.12c-.88-.25-1.78-.48-2.68-.68l-.24-.05q-1.5-.31-3-.54h-.32c-.9-.13-1.81-.22-2.73-.29h-.55c-1-.07-2.05-.12-3.09-.12a46.49 46.49 0 0 0 -40.5 23.69q-.42.75-.81 1.5c-10 1.57-16.85 12.91-15.4 25.74.1.89.25 1.77.42 2.62.06.29.13.57.2.85.13.56.27 1.12.43 1.67.09.32.2.63.31.95.16.49.33 1 .52 1.45.12.31.25.62.38.93s.42.91.64 1.35c.14.29.29.58.44.86.25.46.53.91.8 1.35.15.23.28.46.43.68.4.59.81 1.16 1.25 1.7a1.83 1.83 0 0 0 .13.16 19.58 19.58 0 0 0 1.55 1.71l.34.32c.44.41.88.81 1.34 1.17l.15.14c.08.13.18.26.27.39s.34.52.53.77.38.49.58.73.34.43.52.63.55.58.83.86l.43.42q.67.63 1.41 1.2l35.32 26.85 14.8 11.26a18.39 18.39 0 0 0 1.78 1.19c.2.12.4.22.6.33.42.23.83.45 1.26.64l.71.3c.41.17.83.32 1.25.46l.71.22c.45.13.9.23 1.36.32.21.05.41.1.62.13.59.1 1.17.17 1.77.22h.22a18.39 18.39 0 0 0 2.1 0h.13a17.11 17.11 0 0 0 1.77-.18 22.57 22.57 0 0 0 12.4-3.87l2.1-1.4a46.57 46.57 0 0 0 31.25 4.37v36a59.18 59.18 0 0 0 -21.34 45.56v58a6.44 6.44 0 0 0 6.44 6.45h1.94v221.99a28.5 28.5 0 0 0 -1.81 2.44l-.21.3q-.81 1.21-1.5 2.49l-.18.33a33.71 33.71 0 0 0 -2.28 5.41l-.12.38c-.28.89-.51 1.79-.71 2.69 0 .17-.07.33-.11.5-.19.91-.35 1.83-.46 2.75v.27c-.1.87-.16 1.75-.2 2.62v.48 2.68.63c.07.89.16 1.78.3 2.66l.09.49c.14.81.3 1.62.5 2.42 0 .16.07.31.12.47.22.86.49 1.71.79 2.56.07.22.15.43.23.65.31.83.66 1.66 1 2.47.08.18.18.36.26.54.38.76.78 1.51 1.21 2.24l.2.35c.48.79 1 1.56 1.55 2.31.14.2.28.39.43.58.55.73 1.14 1.44 1.77 2.14.15.17.32.34.48.51.63.67 1.28 1.33 2 2l.15.16 16.29 14.48 21.9 19.61c.5.45 1 .87 1.56 1.27h.07q.75.54 1.53 1c.11.07.22.12.32.19.45.26.9.5 1.35.73l.45.21c.42.2.85.38 1.28.55l.53.19c.41.15.83.29 1.25.41l.58.16c.41.11.82.21 1.24.29l.61.12c.42.07.84.12 1.26.17l.59.06c.46 0 .93.06 1.39.07h.45a21 21 0 0 0 2.38-.15l.45-.06a18.19 18.19 0 0 0 2.16-.4l.24-.05a23.78 23.78 0 0 0 2.31-.73l.41-.17a20.35 20.35 0 0 0 2.13-1h.09a20.67 20.67 0 0 0 1.81-1.09 21.56 21.56 0 0 0 8-25.82l-18.71-47.56c-.2-.51-.42-1-.65-1.51v-109.28l34.51 71.06a33.5 33.5 0 0 0 -.21 10.36l6.8 50.68a21.56 21.56 0 0 0 18.9 18.57 21.41 21.41 0 0 0 8.87-.83l.15-.06c.68-.22 1.34-.46 2-.74l.65-.31c.47-.22.93-.46 1.39-.71l.65-.37c.61-.38 1.21-.77 1.79-1.2l.22-.18c.52-.4 1-.83 1.49-1.27l.49-.48c.42-.41.83-.85 1.22-1.31l.32-.36c.47-.59.92-1.2 1.34-1.84l.24-.4c.34-.54.64-1.08.93-1.65l.27-.54a23.2 23.2 0 0 0 .9-2.18l6-17.29 10.7-31.06a.19.19 0 0 0 0-.08c.28-.79.51-1.59.72-2.39.06-.22.11-.44.16-.67.18-.73.34-1.47.47-2.21 0-.09 0-.18 0-.28.13-.83.23-1.66.3-2.48 0-.2 0-.39 0-.58q.07-1.07.09-2.13v-.4c0-.82 0-1.64-.11-2.45 0-.16 0-.32 0-.48-.07-.69-.15-1.38-.26-2.05 0-.16 0-.33-.08-.49-.13-.79-.3-1.58-.49-2.36 0-.12-.07-.24-.1-.36-.18-.68-.37-1.35-.59-2-.06-.17-.11-.34-.17-.5-.26-.77-.55-1.52-.86-2.26l-.07-.15c-.3-.69-.63-1.37-1-2l-.24-.45a33.52 33.52 0 0 0 -2.61-4.14 3.55 3.55 0 0 0 -.23-.31 33.49 33.49 0 0 0 -3.34-3.81l-.09-.09a33 33 0 0 0 -4.07-3.38l-52.1-107.37 7-62.23h5.07a6.44 6.44 0 0 0 6.44-6.45v-58a59.19 59.19 0 0 0 -21.79-45.93v-45.13a26.74 26.74 0 0 0 10.07-7.28l18.72 12.59a22.78 22.78 0 0 0 12.4 3.87c.59.08 1.18.14 1.78.18h.12a18.39 18.39 0 0 0 2.1 0h.23c.59-.05 1.18-.12 1.77-.22.21 0 .41-.08.62-.12.45-.1.9-.2 1.35-.33l.72-.22c.42-.14.83-.29 1.24-.46l.72-.3c.42-.19.84-.41 1.26-.64l.6-.33a18.26 18.26 0 0 0 1.77-1.19l16.15-12.28 34-25.83a18.35 18.35 0 0 0 1.42-1.2c.15-.13.28-.28.43-.42s.56-.56.82-.86.35-.42.53-.63.39-.48.58-.73.36-.51.53-.77l.27-.39.15-.13c.46-.37.9-.77 1.34-1.18l.33-.31q.81-.81 1.56-1.71l.12-.17c.44-.57.86-1.14 1.26-1.73z" fill="#2b2a41" opacity=".1"/><path d="m407.12 771.9a35.47 35.47 0 0 1 52.79 16.44l19.74 50.09a22.73 22.73 0 0 1 -8.46 27.19 22.74 22.74 0 0 1 -27.84-1.93l-40.1-35.92a35.47 35.47 0 0 1 3.87-55.87z" fill="#f9a0b4"/><path d="m534.58 717.48a35.48 35.48 0 0 1 29.42 46.79l-17.54 50.9a22.72 22.72 0 0 1 -24.1 15.17 22.73 22.73 0 0 1 -19.9-19.55l-7.16-53.36a35.47 35.47 0 0 1 39.28-39.95z" fill="#ffb2bf"/><path d="m459.24 468.42v330.36a29.89 29.89 0 0 1 -59.77 0v-330.36a29.89 29.89 0 0 1 58.44-8.85 30.09 30.09 0 0 1 1.33 8.85z" fill="#f9a0b4"/><path d="m469.29 866.76a22.72 22.72 0 0 1 -25.94-3.08l-40.11-35.91a35.49 35.49 0 0 1 -3.77-48.93v-310.42a29.87 29.87 0 0 1 29.87-29.89h.14a29.92 29.92 0 0 0 -17.48 27.23v310.42a35.47 35.47 0 0 0 3.79 48.93l.69.62 39.35 35.27a22.8 22.8 0 0 0 13.46 5.76z" fill="#fdc3cd"/><path d="m459.24 468.42v240.68l-29.59-60.93a29.78 29.78 0 0 1 -5.65-21.12l16.18-143.45a29.94 29.94 0 0 1 17.73-24 30.09 30.09 0 0 1 1.33 8.82z" fill="#f291ab"/><path d="m399.47 438.53h59.76a0 0 0 0 1 0 0v60.41a59.76 59.76 0 0 1 -59.76 59.76 0 0 0 0 1 0 0v-120.17a0 0 0 0 1 0 0z" fill="#f291ab" transform="matrix(-1 0 0 -1 858.7 997.23)"/><rect fill="#ffb2bf" height="204.11" rx="29.88" transform="matrix(-.99367027 -.11233612 .11233612 -.99367027 882.48 1140.05)" width="59.76" x="443.47" y="443.11"/><path d="m446.1 481.71h59.76v80.55h-59.76z" fill="#f9a0b4" transform="matrix(-.99367027 -.11233612 .11233612 -.99367027 890.31 1094.12)"/><rect fill="#ffb2bf" height="204.11" rx="29.88" transform="matrix(-.89955778 .43680179 -.43680179 -.89955778 1245.18 1081.12)" width="59.76" x="468.4" y="581.67"/><path d="m564 764.28-17.5 50.89a22.77 22.77 0 0 1 -14.78 14.32 22.58 22.58 0 0 0 6.71-9.87l17.57-50.91a35 35 0 0 0 1.92-9.83 35.59 35.59 0 0 0 -15-30.74l-5-10.14-44.4-91.45-5.52-11.44 1.75-15.45 13.38-118.41a29.89 29.89 0 0 0 -39.89-31.44 29.75 29.75 0 0 1 18.24-6.24 32.32 32.32 0 0 1 3.38.18 29.89 29.89 0 0 1 26.34 33.05l-15.2 133.89 54.88 113a35.47 35.47 0 0 1 13.12 40.59z" fill="#fdc3cd"/><path d="m453.1 414.81a62.45 62.45 0 0 1 62.45 62.45v61.11a6.78 6.78 0 0 1 -6.78 6.78h-111.34a6.78 6.78 0 0 1 -6.78-6.78v-61.1a62.45 62.45 0 0 1 62.45-62.46z" fill="#db5a9a"/><circle cx="424.42" cy="232.89" fill="#2b2a41" r="48.93"/><circle cx="471.77" cy="265.49" fill="#2b2a41" r="54.08"/><path d="m510.14 303.6a54.09 54.09 0 0 0 -81.85-70.28 54.08 54.08 0 1 1 81.85 70.28z" fill="#3d3d5e"/><g fill="#2b2a41"><circle cx="403.04" cy="343.53" r="48.93"/><circle cx="455.32" cy="212.73" r="48.93"/><circle cx="455.32" cy="212.73" r="48.93"/></g><path d="m501.34 217.41a49.37 49.37 0 0 0 -1.06-10.18 49.46 49.46 0 0 1 1 9.87 48.62 48.62 0 0 1 -8.88 28.11 48.94 48.94 0 0 0 -83-51.56 50.92 50.92 0 0 1 4.08-6.26 48.94 48.94 0 1 1 81.92 53.46 48.78 48.78 0 0 0 5.94-23.44z" fill="#3d3d5e"/><circle cx="401.4" cy="291.3" fill="#2b2a41" r="48.93"/><circle cx="342.19" cy="319.57" fill="#2b2a41" r="48.93"/><path d="m385.58 297a49 49 0 0 0 -78.82 56.39 48.94 48.94 0 1 1 78.82-56.39z" fill="#1f1f35"/><ellipse cx="452.59" cy="225.56" fill="#2b2a41" rx="46.53" ry="54.84"/><g fill="#ffb2bf"><path d="m503.1 280.69a24 24 0 0 1 24 24v80.11a24 24 0 0 1 -24 24 24 24 0 0 1 -24-24v-80.08a24 24 0 0 1 24-24z" transform="matrix(-.5580348 .82981754 -.82981754 -.5580348 1069.95 119.7)"/><rect height="106.24" rx="19.97" transform="matrix(-.60529399 -.796002 .796002 -.60529399 627.83 1013.92)" width="39.95" x="545.32" y="298.19"/><ellipse cx="598.7" cy="320.8" rx="25.15" ry="19.83" transform="matrix(.11233612 -.99367027 .99367027 .11233612 212.68 879.68)"/></g><path d="m611.84 322.31a31 31 0 0 1 -.75 4.17 26.9 26.9 0 0 1 -9.09 14.69c-12.68 12-57.57 45.38-57.57 45.38a19.76 19.76 0 0 1 -11 4 19.88 19.88 0 0 0 17.57-3.28l52.77-40.13a19.8 19.8 0 0 0 4.81-5.26c5.14-4.05 8.92-10.84 9.82-18.85 1.56-13.8-6-26-16.88-27.21a16.62 16.62 0 0 0 -3.38 0c9.14 2.98 15.11 14.08 13.7 26.49z" fill="#f9a0b4"/><g fill="#ffb2bf"><path d="m397.79 281.92a24 24 0 0 1 24 24v80.08a24 24 0 0 1 -24 24 24 24 0 0 1 -24-24v-80.05a24 24 0 0 1 24-24z" transform="matrix(.5580348 .82981754 -.82981754 .5580348 462.89 -177.18)"/><path d="m436.63 249.63v42a15 15 0 0 0 30 0v-42a15 15 0 0 0 -30 0z"/><path d="m413.11 366.18v63.68a7.39 7.39 0 0 0 7.39 7.39h64.72a7.39 7.39 0 0 0 7.39-7.39v-63.68z"/></g><path d="m492.61 351.02v56.67l-79.5-16.35v-40.32z" fill="#f9a0b4"/><path d="m510.08 353.26v2.11a28.2 28.2 0 0 1 -28.2 28.2h-60.53a28.21 28.21 0 0 1 -28.2-28.2v-2.11a58.12 58.12 0 0 1 10.52-33.43 4.84 4.84 0 0 1 .33-.46 125.55 125.55 0 0 0 43.91 9.81c.61 0 1.24 0 1.86.05q1.65.06 3.33.06h1.95 1.87a125 125 0 0 0 43-8.94c.22.3.41.59.61.88a58.16 58.16 0 0 1 9.55 32.03z" fill="#db5a9a"/><path d="m499.89 320.29q-5 2-10.23 3.59a126.37 126.37 0 0 1 -85.66-4.51 54.42 54.42 0 0 1 6.29-7.44c.91-.93 1.88-1.83 2.89-2.71a55 55 0 0 1 6.66-5c.42-.28.85-.54 1.27-.8a58.45 58.45 0 0 1 52.62-4.26 56.65 56.65 0 0 1 8.4 4.27c.63.39 1.24.78 1.85 1.19l1 .67c.89.61 1.76 1.25 2.61 1.91.43.33.85.67 1.26 1l1.24 1.06c.46.4.93.82 1.38 1.24s.64.59.95.91.62.58.9.89.64.64.93 1 .74.78 1.1 1.19.82.93 1.21 1.4.79.95 1.16 1.44.76 1 1.13 1.48.69.97 1.04 1.48z" fill="#ffb2bf"/><path d="m436.63 249.63v32.44a36.46 36.46 0 0 0 30 .78v-33.22a15 15 0 0 0 -30 0z" fill="#f9a0b4"/><g fill="#ffb2bf"><circle cx="414.1" cy="232.72" r="15.32"/><ellipse cx="452.51" cy="228.91" rx="43.3" ry="52.32"/><circle cx="491.9" cy="232.72" r="15.32"/></g><path d="m405.08 232.22a6.63 6.63 0 0 1 4.06-6.12 1.9 1.9 0 0 1 2.57 1.8v8.63a1.92 1.92 0 0 1 -2.75 1.73 6.63 6.63 0 0 1 -3.88-6.04z" fill="#f9a0b4"/><path d="m499.12 232.19a6.64 6.64 0 0 1 -4.06 6.12 1.91 1.91 0 0 1 -2.58-1.8v-8.64a1.93 1.93 0 0 1 2.75-1.73 6.64 6.64 0 0 1 3.89 6.05z" fill="#f9a0b4"/><rect fill="#ffb2bf" height="106.24" rx="19.97" transform="matrix(.60529399 -.796002 .796002 .60529399 -148.16 406.28)" width="39.95" x="315.62" y="299.42"/><ellipse cx="302.19" cy="322.03" fill="#ffb2bf" rx="19.83" ry="25.15" transform="matrix(.99367027 -.11233612 .11233612 .99367027 -34.26 35.98)"/><path d="m289.05 323.54a31 31 0 0 0 .75 4.17 26.9 26.9 0 0 0 9.08 14.69c12.68 12 57.57 45.38 57.57 45.38a19.76 19.76 0 0 0 11 4 19.9 19.9 0 0 1 -17.52-3.31l-52.77-40.13a19.8 19.8 0 0 1 -4.81-5.26c-5.14-4.05-8.92-10.84-9.82-18.85-1.56-13.8 6-26 16.88-27.21a16.62 16.62 0 0 1 3.38 0c-9.17 2.98-15.14 14.11-13.74 26.52z" fill="#f9a0b4"/><path d="m510.08 353.26v2.11a28.21 28.21 0 0 1 -28.2 28.21h-18.83a63 63 0 0 0 26.61-59.7q5.22-1.56 10.23-3.59c.22.3.41.59.61.88a58.16 58.16 0 0 1 9.58 32.09z" fill="#cc488e"/><path d="m455.05 329.28h-1.95q-1.68 0-3.33-.06l1.65-5.61a1 1 0 0 1 2 0z" fill="#f9a0b4"/><path d="m497.52 217.41h-58a4.09 4.09 0 0 1 -4-3.12l-1.39-5.77a1.07 1.07 0 0 0 -1.87-.4l-6 7.71a4.1 4.1 0 0 1 -3.24 1.58h-14.15c4.55-24.23 22.67-42.33 44.33-42.33s39.8 18.1 44.32 42.33z" fill="#2b2a41"/><circle cx="452.86" cy="414.81" fill="#f9a0b4" r="4.04"/><path d="m463.31 243.8s-11.63 5.73-21.39 0c0 0 4.21 5.4 10.59 5.42 7.85.03 10.8-5.42 10.8-5.42z" fill="#db5a9a"/><path d="m480.09 231a6 6 0 1 1 -12 0 5.92 5.92 0 0 1 .18-1.47 6 6 0 0 0 11.61 0 5.49 5.49 0 0 1 .21 1.47z" fill="#202c47"/><path d="m474.1 210a19.82 19.82 0 1 0 19.82 19.82 19.82 19.82 0 0 0 -19.82-19.82zm0 36.89a17.08 17.08 0 1 1 17.07-17.07 17.07 17.07 0 0 1 -17.07 17.06z" fill="#db5a9a"/><path d="m491.17 229.8a17.07 17.07 0 0 1 -17.07 17.07 16.83 16.83 0 0 1 -3.5-.36 17.52 17.52 0 0 1 -4.8-1.79 17.15 17.15 0 0 1 -5.84-5.36 17.06 17.06 0 0 1 12.27-26.52 16.75 16.75 0 0 1 7.86 1 15.12 15.12 0 0 1 1.6.69 18 18 0 0 1 2.87 1.8 17.08 17.08 0 0 1 6.61 13.47z" fill="#fedd4f" opacity=".24"/><path d="m480.09 213.82-14.29 30.9a17.15 17.15 0 0 1 -5.84-5.36l12.27-26.52a16.75 16.75 0 0 1 7.86 1z" fill="#fff" opacity=".3"/><path d="m484.56 216.31-14 30.2a16.55 16.55 0 0 1 -3.22-1l14.31-31a18 18 0 0 1 2.91 1.8z" fill="#fff" opacity=".3"/><path d="m438.28 231a6 6 0 1 1 -12 0 5.92 5.92 0 0 1 .18-1.47 6 6 0 0 0 11.62 0 5.92 5.92 0 0 1 .2 1.47z" fill="#202c47"/><path d="m432.29 210a19.82 19.82 0 1 0 19.82 19.82 19.81 19.81 0 0 0 -19.82-19.82zm0 36.89a17.08 17.08 0 1 1 17.07-17.07 17.08 17.08 0 0 1 -17.07 17.06z" fill="#db5a9a"/><path d="m449.36 229.8a17.07 17.07 0 0 1 -17.07 17.07 16.9 16.9 0 0 1 -3.5-.36 16.67 16.67 0 0 1 -3.21-1 15.36 15.36 0 0 1 -1.58-.77 17.06 17.06 0 0 1 6.42-31.88 16.75 16.75 0 0 1 7.86 1 15.28 15.28 0 0 1 1.61.69 17.47 17.47 0 0 1 2.86 1.8 17.05 17.05 0 0 1 6.61 13.45z" fill="#fedd4f" opacity=".24"/><path d="m438.28 213.82-14.28 30.9a17 17 0 0 1 -5.84-5.36l12.26-26.52a16.75 16.75 0 0 1 7.86 1z" fill="#fff" opacity=".3"/><path d="m442.75 216.31-14 30.2a16.67 16.67 0 0 1 -3.21-1l14.31-31a17.47 17.47 0 0 1 2.9 1.8z" fill="#fff" opacity=".3"/><path d="m450.53 226.23h5.63v3.57h-5.63z" fill="#db5a9a"/></svg>