<svg viewBox="0 0 1000 1000" xmlns="http://www.w3.org/2000/svg"><path d="m945.55 584.46a137.73 137.73 0 0 1 -32.55 142.9q-4.18 4.18-8.72 8a137.15 137.15 0 0 1 -84.28 32.24c-1.42 0-2.84.06-4.27.06h-90.38a27 27 0 0 0 -10 1.89 27.3 27.3 0 0 0 -17.35 25.45v63.47a38.44 38.44 0 0 1 -38.44 38.44h-418.28v-101.91a27.32 27.32 0 0 0 -27.28-27.34h-53.7a132.35 132.35 0 0 1 -132.4-132.4v-10.41a137.49 137.49 0 0 1 5.72-40.39 112.89 112.89 0 0 1 13.13-28.38 115.86 115.86 0 0 1 18.47-22q4.3-4 8.87-7.57a139.72 139.72 0 0 1 14.69-10q2.58-1.54 5.17-3c.18-.11.39-.22.58-.32a183.7 183.7 0 0 1 33.81-14l.66-.19a43.54 43.54 0 0 0 14.25-7.34 44 44 0 0 0 16.65-29.32 42.61 42.61 0 0 0 .33-5.44v-43c0-1.11 0-2.21.09-3.3a63 63 0 0 1 29.59-50.16 56.76 56.76 0 0 1 6-3.29 59.12 59.12 0 0 1 8.46-3.36 62.9 62.9 0 0 1 16-2.83h.27c.88 0 1.77-.06 2.65-.06.93 0 1.86 0 2.77-.08s1.57-.1 2.33-.19a48.63 48.63 0 0 0 38.66-27.21c.57-1.14 1.07-2.3 1.52-3.48a48.35 48.35 0 0 0 3.3-17.61 48.57 48.57 0 0 0 -38.71-47.58c-1.58-.32-3.17-.57-4.78-.74-.77-.08-1.55-.15-2.33-.18s-1.84-.09-2.77-.09h-68a83.42 83.42 0 0 1 -27-4.47 81.18 81.18 0 0 1 -12.03-5.27q-2.75-1.46-5.36-3.1l-.13-.08a84.07 84.07 0 0 1 -18.76-16.11c-1.73-2-3.38-4.12-4.93-6.3a83.24 83.24 0 0 1 -8-13.92 79.1 79.1 0 0 1 -3.29-8.53 81.44 81.44 0 0 1 -3.21-13.96 82.6 82.6 0 0 1 -.77-8.54c0-1.11-.07-2.23-.07-3.36a85.5 85.5 0 0 1 .66-10.55 83.32 83.32 0 0 1 1.53-8.55c.38-1.68.84-3.33 1.33-5a85.28 85.28 0 0 1 4.86-12.49 79.87 79.87 0 0 1 4.59-8.19 81.57 81.57 0 0 1 5.73-8c.52-.64 1-1.27 1.58-1.9s1.09-1.25 1.66-1.85a83.32 83.32 0 0 1 61.05-27.15h566.6a97.93 97.93 0 0 1 97.92 97.92c0 38.2 30.92 69.36 69.12 69.29a83.61 83.61 0 1 1 .17 167.22h-178.87a35.77 35.77 0 0 0 -35.76 35.75c0 .65 0 1.3.06 1.94a35.71 35.71 0 0 0 35.7 33.82h106a137 137 0 0 1 87 31 138.58 138.58 0 0 1 21.84 22.4c2.55 3.31 5 6.73 7.24 10.27a136.78 136.78 0 0 1 13.81 28.43z" fill="#f0f3f9"/><rect fill="#34629b" height="17.61" rx="8.8" width="860.98" x="63.64" y="895.88"/><path d="m558.76 86.51v439.21a8.34 8.34 0 0 1 -8.34 8.35h-485.24q4.3-4 8.87-7.57a139.72 139.72 0 0 1 14.69-10q2.58-1.54 5.17-3c.18-.11.39-.22.58-.32a183.7 183.7 0 0 1 33.81-14l.7-.18a43.54 43.54 0 0 0 14.25-7.34 44 44 0 0 0 16.65-29.32 42.61 42.61 0 0 0 .33-5.44v-43c0-1.11 0-2.21.09-3.3a63 63 0 0 1 29.59-50.16 56.76 56.76 0 0 1 6-3.29 59.12 59.12 0 0 1 8.46-3.36 62.9 62.9 0 0 1 16-2.83h.27c.88 0 1.77-.06 2.65-.06.93 0 1.86 0 2.77-.08s1.57-.1 2.33-.19a48.63 48.63 0 0 0 38.66-27.21c.57-1.14 1.07-2.3 1.52-3.48a48.35 48.35 0 0 0 3.3-17.61 48.57 48.57 0 0 0 -38.71-47.58c-1.58-.32-3.17-.57-4.78-.74-.77-.08-1.55-.15-2.33-.18s-1.84-.09-2.77-.09h-68a83.42 83.42 0 0 1 -27-4.47 81.18 81.18 0 0 1 -12.03-5.27q-2.75-1.46-5.36-3.1l-.13-.08a84.07 84.07 0 0 1 -18.76-16.11c-1.73-2-3.38-4.12-4.93-6.3a83.24 83.24 0 0 1 -8-13.92 79.1 79.1 0 0 1 -3.29-8.53 81.44 81.44 0 0 1 -3.21-13.96 82.6 82.6 0 0 1 -.77-8.54c0-1.11-.07-2.23-.07-3.36a85.5 85.5 0 0 1 .66-10.55 83.32 83.32 0 0 1 1.53-8.55c.38-1.68.84-3.33 1.33-5a85.28 85.28 0 0 1 4.86-12.49 79.87 79.87 0 0 1 4.59-8.19 81.57 81.57 0 0 1 5.73-8c.52-.64 1-1.27 1.58-1.9s1.09-1.25 1.66-1.85a83.32 83.32 0 0 1 61.05-27.15h404z" fill="#6e8ec8"/><path d="m542.53 86.51v418.67.85a5.75 5.75 0 0 1 -.14.83c0 .21-.09.41-.14.61s-.13.39-.18.58a4.83 4.83 0 0 1 -.23.52 6.28 6.28 0 0 1 -.27.59 6.12 6.12 0 0 1 -.43.69 7 7 0 0 1 -.47.64 6.1 6.1 0 0 1 -.55.59 6 6 0 0 1 -.58.54c-.22.17-.43.33-.65.48a6.5 6.5 0 0 1 -.68.42 7 7 0 0 1 -.73.35c-.25.1-.51.2-.77.28s-.53.15-.81.21a8.37 8.37 0 0 1 -1.67.17h-440.32c.18-.11.39-.22.58-.32a183.7 183.7 0 0 1 33.81-14l.7-.21a43.54 43.54 0 0 0 14.25-7.34 44 44 0 0 0 16.65-29.32 42.61 42.61 0 0 0 .33-5.44v-43c0-1.11 0-2.21.09-3.3a63 63 0 0 1 29.59-50.16 56.76 56.76 0 0 1 6-3.29 59.12 59.12 0 0 1 8.46-3.36 62.9 62.9 0 0 1 16-2.83h.27c.88 0 1.77-.06 2.65-.06.93 0 1.86 0 2.77-.08s1.57-.1 2.33-.19a48.63 48.63 0 0 0 38.66-27.21c.57-1.14 1.07-2.3 1.52-3.48a48.35 48.35 0 0 0 3.3-17.61 48.57 48.57 0 0 0 -38.71-47.58c-1.58-.32-3.17-.57-4.78-.74-.77-.08-1.55-.15-2.33-.18s-1.84-.09-2.77-.09h-68a83.42 83.42 0 0 1 -27-4.47 81.18 81.18 0 0 1 -12.03-5.27q-2.75-1.46-5.36-3.1l-.13-.08a84.07 84.07 0 0 1 -18.76-16.11c-1.73-2-3.38-4.12-4.93-6.3a83.24 83.24 0 0 1 -8-13.92 79.1 79.1 0 0 1 -3.29-8.53 81.44 81.44 0 0 1 -3.21-13.96 82.6 82.6 0 0 1 -.77-8.54c0-1.11-.07-2.23-.07-3.36a85.5 85.5 0 0 1 .66-10.55 83.32 83.32 0 0 1 1.53-8.55c.38-1.68.84-3.33 1.33-5a85.28 85.28 0 0 1 4.86-12.49 79.87 79.87 0 0 1 4.59-8.19 81.57 81.57 0 0 1 5.73-8c.52-.64 1-1.27 1.58-1.9s1.09-1.25 1.66-1.85a83.32 83.32 0 0 1 61.05-27.15h387.81z" fill="#e9f1ff"/><path d="m542.53 117.2v388a8.36 8.36 0 0 1 -8.34 8.35h-260.43v-348.67l.63-.43 10-6.76 34.61-23.46h55.45l11.33-6.07 5.18-2.77 2.85-1.53 12-6.44 28-15 28.7 6.47v34.54h14.89v-57h25.08l7.83 7.83v22.94z" fill="#b3c9eb"/><path d="m480 184.33v329.19h54.17a8.34 8.34 0 0 0 8.35-8.34v-343.71h-20.67z" fill="#819fcc"/><path d="m318.99 134.23h23.84v379.3h-23.84z" fill="#819fcc"/><path d="m128.3 115.74v133.51a81.18 81.18 0 0 1 -12.05-5.25q-2.75-1.46-5.36-3.1l-.13-.08a84.07 84.07 0 0 1 -18.76-16.11c-1.73-2-3.38-4.12-4.93-6.3a83.24 83.24 0 0 1 -8-13.92 79.1 79.1 0 0 1 -3.29-8.53 81.44 81.44 0 0 1 -3.21-13.96 82.6 82.6 0 0 1 -.77-8.54c0-1.11-.07-2.23-.07-3.36a85.5 85.5 0 0 1 .66-10.55 83.32 83.32 0 0 1 1.53-8.55c.38-1.68.84-3.33 1.33-5a85.28 85.28 0 0 1 4.86-12.49l22.14-8.19 21.51-8z" fill="#b3c9eb"/><path d="m94.49 513.21a183.7 183.7 0 0 1 33.81-14v14.27h-34.39c.18-.06.39-.17.58-.27z" fill="#b3c9eb"/><path d="m159.93 180.44v73.28h-4.6a83.42 83.42 0 0 1 -27-4.47v-87.78z" fill="#88a5d2"/><path d="m159.93 462.38v51.15h-31.63v-14.27l.7-.26a43.54 43.54 0 0 0 14.25-7.34 44 44 0 0 0 16.68-29.28z" fill="#88a5d2"/><path d="m226.07 149.8v104c-.91-.06-1.84-.09-2.77-.09h-27.38v-116.56l24.44 10.26z" fill="#b3c9eb"/><path d="m223.3 350.91c.93 0 1.86 0 2.77-.08v162.7h-30.15v-156.36a59.12 59.12 0 0 1 8.46-3.36 62.9 62.9 0 0 1 16-2.83h.27c.88 0 1.77-.06 2.65-.06z" fill="#b3c9eb"/><path d="m195.91 137.15v116.57h-22.37v-108.79l17.84-6.2z" fill="#819fcc"/><path d="m189.94 360.46a56.76 56.76 0 0 1 6-3.29v156.36h-22.39v-138.3a63.17 63.17 0 0 1 16.39-14.77z" fill="#819fcc"/><g fill="#d1def5"><path d="m375.97 149.3h78.71v8.42h-78.71z" transform="matrix(-1 0 0 -1 830.65 307.02)"/><path d="m280.19 197.57 33.6-1.09v-42.97l-33.6 22.59z"/><path d="m375.97 176.86h78.71v8.42h-78.71z" transform="matrix(-1 0 0 -1 830.65 362.14)"/><path d="m375.97 204.42h78.71v8.42h-78.71z" transform="matrix(-1 0 0 -1 830.65 417.25)"/><path d="m375.97 231.98h78.71v8.42h-78.71z" transform="matrix(-1 0 0 -1 830.65 472.37)"/><path d="m375.97 259.53h78.71v8.42h-78.71z" transform="matrix(-1 0 0 -1 830.65 527.49)"/><path d="m375.97 287.09h78.71v8.42h-78.71z" transform="matrix(-1 0 0 -1 830.65 582.61)"/><path d="m375.97 314.65h78.71v8.42h-78.71z" transform="matrix(-1 0 0 -1 830.65 637.73)"/><path d="m375.97 342.21h78.71v8.42h-78.71z" transform="matrix(-1 0 0 -1 830.65 692.84)"/><path d="m375.97 369.77h78.71v8.42h-78.71z" transform="matrix(-1 0 0 -1 830.65 747.96)"/><path d="m375.97 397.33h78.71v8.42h-78.71z" transform="matrix(-1 0 0 -1 830.65 803.08)"/><path d="m375.97 424.89h78.71v8.42h-78.71z" transform="matrix(-1 0 0 -1 830.65 858.2)"/><path d="m375.97 452.45h78.71v8.42h-78.71z" transform="matrix(-1 0 0 -1 830.65 913.32)"/><path d="m375.97 480.01h78.71v8.42h-78.71z" transform="matrix(-1 0 0 -1 830.65 968.44)"/><path d="m280.19 210.03h33.6v68.13h-33.6z" transform="matrix(-1 0 0 -1 593.99 488.19)"/><path d="m280.19 293.85h33.6v68.13h-33.6z" transform="matrix(-1 0 0 -1 593.99 655.82)"/><path d="m280.19 377.66h33.6v68.13h-33.6z" transform="matrix(-1 0 0 -1 593.99 823.44)"/><path d="m280.19 456.66h33.6v41.5h-33.6z" transform="matrix(-1 0 0 -1 593.99 954.82)"/><path d="m100.49 151.03h15.75v8.54h-15.75z" transform="matrix(-1 0 0 -1 216.73 310.59)"/><path d="m222.17 170.34h-21.91v-24.98l21.91 10.28z"/><path d="m87.08 151v8.54h-14.69a83.32 83.32 0 0 1 1.53-8.54z"/><path d="m100.49 173.48h15.75v8.54h-15.75z" transform="matrix(-1 0 0 -1 216.73 355.5)"/><path d="m87.08 173.48v8.52h-14.51a82.6 82.6 0 0 1 -.77-8.54z"/><path d="m100.49 195.93h15.75v8.54h-15.75z" transform="matrix(-1 0 0 -1 216.73 400.41)"/><path d="m87.08 195.94v8.53h-8a79.1 79.1 0 0 1 -3.29-8.53z"/><path d="m100.49 218.39h15.75v8.54h-15.75z" transform="matrix(-1 0 0 -1 216.73 445.32)"/><path d="m87.08 218.39s0 0 0 0z"/><path d="m116.25 240.85v3.15q-2.75-1.46-5.36-3.1l-.13-.08z"/><path d="m200.26 177.75h21.91v12.29h-21.91z" transform="matrix(-1 0 0 -1 422.42 367.78)"/><path d="m214.12 198.76h8.05v12.29h-8.05z" transform="matrix(-1 0 0 -1 436.29 409.81)"/><path d="m200.26 198.76h8.05v12.29h-8.05z" transform="matrix(-1 0 0 -1 408.56 409.81)"/><path d="m200.26 223.04h21.91v12.29h-21.91z" transform="matrix(-1 0 0 -1 422.42 458.36)"/><path d="m214.11 244.05h8.05v9.67h-8.05z"/><path d="m200.26 244.05h8.05v9.67h-8.05z"/><path d="m200.26 358.19h21.91v12.29h-21.91z" transform="matrix(-1 0 0 -1 422.42 728.66)"/><path d="m214.12 379.2h8.05v12.29h-8.05z" transform="matrix(-1 0 0 -1 436.29 770.69)"/><path d="m200.26 379.2h8.05v12.29h-8.05z" transform="matrix(-1 0 0 -1 408.56 770.69)"/><path d="m200.26 403.12h21.91v12.29h-21.91z" transform="matrix(-1 0 0 -1 422.42 818.52)"/><path d="m214.12 424.13h8.05v12.29h-8.05z" transform="matrix(-1 0 0 -1 436.29 860.55)"/><path d="m200.26 424.13h8.05v12.29h-8.05z" transform="matrix(-1 0 0 -1 408.56 860.55)"/><path d="m200.26 448.05h21.91v12.29h-21.91z" transform="matrix(-1 0 0 -1 422.42 908.38)"/><path d="m214.12 469.06h8.05v12.29h-8.05z" transform="matrix(-1 0 0 -1 436.29 950.41)"/><path d="m200.26 469.06h8.05v12.29h-8.05z" transform="matrix(-1 0 0 -1 408.56 950.41)"/></g><g fill="#fff"><path d="m542.53 413.47v91.71a8.36 8.36 0 0 1 -8.34 8.35l-54.19-77.17-25.32-36.07-2.09-3-13.43-19.14-5.91-8.42-13.45-19.14-5.9-8.42-13.43-19.13-5.93-8.43-.74-1.06-8-11.43-4.65-6.64-5.15-7.31-33.18-47.17-23.82-34-7.35-10.47-19.85-28.23-7.44-10.61-22.67-32.3-5.61-8-21.69-30.88h78.61l21.7 30.91 5.59 8 6.21 8.84 29.93 42.63 5.9 8.42 3.46 4.93 8 11.44 1.95 2.77 5.92 8.42 13.45 19.13 5.89 8.4 13.43 19.14 5.92 8.42 13.45 19.14.89 1.25 25.31 36.07z" opacity=".51"/><path d="m519.47 513.53h-37.62l-1.85-2.62-35.12-50.04-5.92-8.42-13.44-19.14-5.9-8.42-13.44-19.14-5.92-8.42-6.45-9.19-6.99-9.95-1.03-1.48-4.87-6.94-38.1-54.25-23.82-33.95-5.2-7.4-33.61-47.86-6.44-9.17-45.35-64.61-8.03-11.44-11.03-15.7-5.59-7.97-21.71-30.91h37.62l.71 1 8.03 11.43 12.97 18.48 5.6 7.97 27.41 39.06 7.43 10.57 15.44 22 9.13 13.01 7.42 10.55 5.2 7.41 23.82 33.94 37.01 52.72 5.92 8.43.04.04 8.02 11.44 5.38 7.65 5.91 8.42 13.44 19.14 5.9 8.42 13.44 19.14 5.92 8.42 36.2 51.58z" opacity=".51"/><path d="m454.51 513.53h-23.25l-17.61-25.1-5.91-8.43-13.44-19.13-.49-.68-5.42-7.74-2.61-3.7-43-61.19-23.78-33.94-5.2-7.41-33.6-47.85-6.44-9.18-45.36-64.6-2.33-3.31-5.71-8.13-1.46-2.09-4.79-6.81-10-14.2-3.89-5.54-4.34-6.19-22.37-31.86-14.79-21.06-5.59-8-19.68-28a83.47 83.47 0 0 1 21.23-2.88l21.7 30.9 5.59 8 9.37 13.34 4.54 6.47 4.34 6.18 13.3 19 5.2 7.41 1.6 2.28 1.81 2.56 3.9 5.57 2.33 3.3 45.36 64.61 6.44 9.18 9.06 12.91 11 15.69 13.52 19.26 5.2 7.4 23.82 33.95 33.24 47.14 2.86 4.09 6.95 9.9 6.5 9.24 1.53 2.19 4.38 6.23 13.44 19.14 5.9 8.42 13.44 19.13 5.91 8.42z" opacity=".51"/></g><g fill="#6e8ec8"><path d="m548.13 117.42v8h-463.43a81.57 81.57 0 0 1 5.73-8z"/><path d="m226.07 350.83c.78 0 1.57-.1 2.33-.19v162.89h-8v-162.53h.27c.88 0 1.77-.06 2.65-.06.91-.03 1.84-.06 2.75-.11z"/><path d="m228.4 86.66v167.34c-.77-.08-1.55-.15-2.33-.18s-1.84-.09-2.77-.09h-2.94v-167.19z"/><path d="m385.78 86.51h8.03v427.02h-8.03z"/><path d="m897.77 895.54h-554.92c0-82.17 70.8-152.63 171.41-182.2q14.06-4.15 28.87-7.2a384.56 384.56 0 0 1 77.16-7.71c153.25 0 277.48 88.25 277.48 197.11z"/></g><path d="m842.47 586.91h13.63v104.95h-13.63z" fill="#92b0e7"/><g fill="#6e8ec8"><path d="m842.47 683.25h13.63v8.61h-13.63z"/><path d="m856.09 586.91v19.92a28 28 0 0 1 -13.62 8.34v-28.26z"/><path d="m912.88 880.86h-127.08c-3.67 0-6.43-4.45-5.73-9.23l23.93-162.75c.95-6.5 5.25-11.19 10.24-11.19h70.24c5 0 9.28 4.69 10.24 11.19l23.9 162.75c.69 4.78-2.07 9.23-5.74 9.23z"/></g><path d="m912.88 880.86h-35.27l-26.9-183.17h33.75c5 0 9.28 4.69 10.23 11.19l23.91 162.75c.7 4.78-2.05 9.23-5.72 9.23z" fill="#547dba"/><path d="m908.79 880.86-.55 4.31-1.53 11.68h-20.81l-1.52-11.68-.56-4.31z" fill="#547dba"/><path d="m822.89 880.86-.57 4.31-1.52 11.68h-20.8l-1.53-11.68-.56-4.31z" fill="#6e8ec8"/><rect fill="#e9f1ff" height="264.23" rx="13.99" transform="matrix(.99769613 .06784116 -.06784116 .99769613 37.06 -54.27)" width="27.97" x="803.85" y="386.58"/><path d="m863.26 455.08v127.24a28 28 0 0 1 -28 28h-17.43l17.47-183.21a28 28 0 0 1 28 28z" fill="#92b0e7"/><path d="m846.61 429.5-12.28 180.79h-16.5l17.47-183.18a27.72 27.72 0 0 1 11.31 2.39z" fill="#6e8ec8"/><rect fill="#92b0e7" height="286.22" rx="13.99" transform="matrix(.99769613 .06784116 -.06784116 .99769613 37.08 -54.69)" width="27.97" x="809.91" y="375.59"/><path d="m818 689.55h62.47a8.13 8.13 0 0 1 8.13 8.13 0 0 0 0 1 0 0h-78.69a0 0 0 0 1 0 0 8.13 8.13 0 0 1 8.09-8.13z" fill="#92b0e7"/><path d="m822.89 880.86-.57 4.31h-23.85l-.56-4.31z" fill="#547dba"/><path d="m908.79 880.86-.55 4.31h-23.86l-.56-4.31z" fill="#416fa5"/><circle cx="305.75" cy="621.96" fill="#6feaf7" r="35.71"/><rect fill="#8c285c" height="132.89" rx="26.33" transform="matrix(-.70710678 .70710678 -.70710678 -.70710678 1036.01 881.36)" width="52.65" x="309.16" y="588.78"/><path d="m281.15 631.2a26.34 26.34 0 0 1 43.72-10.66l56.74 56.74a26.18 26.18 0 0 1 7.39 14.26 26.3 26.3 0 0 0 -6.53-26.54l-56.74-56.74a26.33 26.33 0 0 0 -44.58 23z" fill="#72194c"/><path d="m473 682.21c15.62-6.49 22.51-25.66 15.38-42.82-5.38-13.1-17.38-21.24-29.74-21.49a28.06 28.06 0 0 0 -11.4 2.15l-86.24 35.78c-15.62 6.49-22.51 25.67-15.38 42.83 7.12 17.17 25.57 25.82 41.19 19.33z" fill="#ea7d7d"/><path d="m442.94 684.63c-21.49-15.06-25.55-37.85-17.77-55.43l46.47-18.13a20.67 20.67 0 0 1 21.57 4.1 42.39 42.39 0 0 1 10.71 15.77c11.8 30.22-13.23 65.74-53.36 57a21.11 21.11 0 0 1 -7.62-3.31z" fill="#ea7d7d"/><circle cx="313.58" cy="514.16" fill="#54285b" r="17.51"/><path d="m524.51 857.36a248.43 248.43 0 0 1 -2.92 38.18h-435.14a248.43 248.43 0 0 1 -2.92-38.18c0-88.9 46.2-166.28 114.38-206.29a208.69 208.69 0 0 1 106.11-29c70.92 0 134 35.74 174.37 91.25 28.91 39.8 46.12 89.78 46.12 144.04z" fill="#6e8ec8"/><path d="m624.54 895.54h-281.69c0-82.17 56-152.63 135.53-182.2a232.24 232.24 0 0 1 22.83-7.2c66.52 46.01 112.25 113.1 123.33 189.4z" fill="#5a7daf"/><path d="m566.09 632.21h69.77a0 0 0 0 1 0 0v357.25a33.62 33.62 0 0 1 -33.62 33.62h-36.15a0 0 0 0 1 0 0v-390.87a0 0 0 0 1 0 0z" fill="#2b234c" transform="matrix(-.12827634 .99173846 -.99173846 -.12827634 1498.9 337.84)"/><path d="m589.7 659.07h15.6v390.87h-15.6z" fill="#1d183a" transform="matrix(-.12827634 .99173846 -.99173846 -.12827634 1521.62 371.59)"/><path d="m781.44 841.62h51.99v25.48h-51.99z" fill="#f0a284" transform="matrix(-.13 .99 -.99 -.13 1758.34 163.23)"/><path d="m772.87 849.15h51.99v8.21h-51.99z" fill="#ea7d7d" transform="matrix(-.12827634 .99173846 -.99173846 -.12827634 1747.57 170.48)"/><path d="m800.76 880.5 10.11-25.82a29.74 29.74 0 0 1 38.38-42.19l-25.91 53.51-12.92 26.71-6-2.91a7.38 7.38 0 0 1 -3.66-9.3z" fill="#2b234c"/><path d="m808.34 829.13a29.74 29.74 0 0 1 38.24-11.13l2.67-5.53a29.74 29.74 0 0 0 -39.73 13.82 28.55 28.55 0 0 0 -1.18 2.84z" fill="#3d325d"/><path d="m811.92 899.64a4.58 4.58 0 0 0 5.84-1.62 3 3 0 0 0 .31-.52l38.63-79.83a5.72 5.72 0 0 0 .3-.67 7 7 0 0 0 -3.53-8.64 7 7 0 0 0 -9 2.59 6.55 6.55 0 0 0 -.5 1l-1.33 3.15-3.76 9-1.75 4.19-3.76 9-1.76 4.18-3.76 9-1.75 4.18-3.77 9-1.75 4.19-3.77 9-1.75 4.18-3.77 9-1.61 3.86a2 2 0 0 0 -.12.34 4.56 4.56 0 0 0 2.35 5.58z" fill="#3d325d"/><g fill="#2b234c"><path d="m842.65 815.08 12.4 6 2-4.07-12.54-6.07a6.55 6.55 0 0 0 -.5 1z"/><path d="m837.14 828.25 11.7 5.66 1.97-4.08-11.92-5.77z"/><path d="m831.62 841.4 11.01 5.33 1.98-4.08-11.23-5.43z"/><path d="m826.11 854.56 10.32 5 1.97-4.07-10.54-5.11z"/><path d="m820.59 867.73 9.63 4.66 1.97-4.08-9.85-4.77z"/><path d="m815.07 880.88 8.94 4.33 1.98-4.08-9.17-4.43z"/><path d="m809.87 894.2 7.93 3.8 2-4.08-8.48-4.1-1.61 3.86z"/></g><path d="m410.39 734h16.35a53.2 53.2 0 0 1 53.2 53.2v33.8a16.8 16.8 0 0 1 -16.8 16.8h-52.75a0 0 0 0 1 0 0v-103.8a0 0 0 0 1 0 0z" fill="#3d325d" transform="matrix(.7349146 .67815967 -.67815967 .7349146 650.95 -93.57)"/><path d="m355.98 685.53h73.36v103.76h-73.36z" fill="#3cc3da" transform="matrix(-.7349146 -.67815967 .67815967 -.7349146 181.14 1545.64)"/><path d="m342 606.58h73.11a0 0 0 0 1 0 0v40.07a63.7 63.7 0 0 1 -63.7 63.7h-91.51a10.82 10.82 0 0 1 -10.82-10.82 93 93 0 0 1 93-93z" fill="#3cc3da" transform="matrix(.5 .8660254 -.8660254 .5 736.3 41.61)"/><path d="m297.54 561.93v38.07a23.7 23.7 0 0 1 -.21 3.06 22.1 22.1 0 0 1 -44-3.06v-38.07a22.1 22.1 0 0 1 44.2 0z" fill="#f0a284"/><path d="m297.54 561.93v38.07a23.7 23.7 0 0 1 -.21 3.06 54.12 54.12 0 0 1 -44-21.65v-19.48a22.1 22.1 0 0 1 44.2 0z" fill="#ea7d7d"/><path d="m330.52 750.67-37.75-56.59 51.82-39.47 79.45 80.45z" fill="#3cc3da"/><path d="m297.54 598v2c0 1-.23 2.06-.21 3.06.21 12.11-11.14 21.59-22.65 21.21-12-.4-21.34-12.77-21.34-24.77v-1.5z" fill="#3cc3da"/><rect fill="#3d325d" height="211.76" rx="34.89" transform="matrix(.70710678 .70710678 -.70710678 .70710678 673.42 -114.79)" width="69.77" x="440.38" y="649.61"/><path d="m448.81 895.54h-362.36a247.34 247.34 0 0 1 -2.9-34.92c0-1.08 0-2.17 0-3.26 0-58.57 20-112.13 53.22-153.3a226.24 226.24 0 0 1 47-43.93q6.9-4.82 14.14-9.06c132.62 29.42 233.66 125.82 250.9 244.47z" fill="#92b0e7"/><path d="m331.09 895.54h-245.58q-1.8-17.06-2-34.92c0-1.08 0-2.17 0-3.26 0-58.57 20-112.13 53.22-153.3 127.86 41.08 186.44 111.06 194.36 191.48z" fill="#6e8ec8"/><g fill="#3d325d"><rect height="7.42" rx="3.71" transform="matrix(.79589635 -.60543291 .60543291 .79589635 -297.04 370.5)" width="90.9" x="355.48" y="622.05"/><rect height="5.7" rx="2.24" transform="matrix(.79589635 -.60543291 .60543291 .79589635 -278.12 381.11)" width="11.27" x="420.49" y="600.15"/><rect height="5.7" rx="2.24" transform="matrix(.79589635 -.60543291 .60543291 .79589635 -284.76 376.62)" width="11.27" x="410.51" y="607.75"/><rect height="5.7" rx="2.24" transform="matrix(.79589635 -.60543291 .60543291 .79589635 -291.39 372.12)" width="11.27" x="400.53" y="615.34"/><rect height="5.7" rx="2.24" transform="matrix(.79589635 -.60543291 .60543291 .79589635 -298.03 367.63)" width="11.27" x="390.55" y="622.93"/><rect height="5.7" rx="2.85" transform="matrix(.79589635 -.60543291 .60543291 .79589635 -307.53 361.2)" width="22.1" x="370.84" y="633.81"/></g><circle cx="253.34" cy="641.27" fill="#6feaf7" r="35.71"/><rect fill="#3cc3da" height="132.89" rx="26.33" transform="matrix(-.87915002 .47654511 -.47654511 -.87915002 836.66 1151.07)" width="52.65" x="246.05" y="615.17"/><path d="m227.13 643.13a26.32 26.32 0 0 1 44.94 2.22l38.24 70.54a26.1 26.1 0 0 1 3 15.76 26.3 26.3 0 0 0 1.35-27.3l-38.26-70.54a26.32 26.32 0 0 0 -49.27 9.32z" fill="#6feaf7"/><path d="m395.32 701c14.27-9.09 17.75-29.17 7.77-44.84-7.61-12-20.84-17.89-33-16a28.08 28.08 0 0 0 -10.87 4.08l-78.71 50.12c-14.27 9.09-17.74 29.16-7.76 44.84 10 15.68 29.64 21 43.91 11.93z" fill="#f0a284"/><rect fill="#fcb798" height="58.44" rx="8.25" transform="matrix(-.52220091 -.8528225 .8528225 -.52220091 -114.74 1373.58)" width="16.51" x="319.16" y="689.71"/><g fill="#f0a284"><path d="m366.11 708.52c-23.78-11.12-31.7-32.87-27.11-51.52l42.65-25.88a20.68 20.68 0 0 1 21.95.32 42.48 42.48 0 0 1 13.27 13.68c16.84 27.74-1.69 67-42.72 65.37a20.9 20.9 0 0 1 -8.04-1.97z"/><rect height="50.35" rx="9.5" transform="matrix(.87981454 .47531712 -.47531712 .87981454 350.7 -102.97)" width="18.99" x="369.48" y="616.84"/><rect height="50.35" rx="9.5" transform="matrix(.5 .8660254 -.8660254 .5 755.09 -38.42)" width="18.99" x="401.32" y="609.53"/><rect height="50.35" rx="9.5" transform="matrix(.5 .8660254 -.8660254 .5 772.97 -29.6)" width="18.99" x="402.62" y="629.43"/><rect height="50.35" rx="9.5" transform="matrix(.5 .8660254 -.8660254 .5 786.36 -18.01)" width="18.99" x="399.28" y="646.82"/></g><ellipse cx="391.56" cy="676.12" fill="#fcb798" rx="11.12" ry="13.17"/><path d="m290.71 593.57a54.18 54.18 0 0 1 -57.28-50.91l-1.43-23.66a29.43 29.43 0 0 1 12.81-26.07 29.48 29.48 0 0 1 14.91-5.09l16-.94 8.19-.48 2.33-.14 3.53-.21a27.1 27.1 0 0 1 28.7 25.49l.35 6.2.1 1.57v.5l.24 3.91.1 1.77 2 33.61a32.59 32.59 0 0 1 -30.55 34.45z" fill="#f0a284"/><path d="m318.87 517.76.1 1.57c-9.11 3.32-52.38 2.23-66.12-5.17-1.92-1-9-12.25-8-21.23.37-3.1.82-5.43 1.29-6.12l16.83-.43 12.06-.31c3.84-.1 7.61 0 11.27.21a112.15 112.15 0 0 1 16.54 2.24 27.18 27.18 0 0 1 15.69 23z" fill="#ea7d7d"/><path d="m234.64 507h10.86a0 0 0 0 1 0 0v27a15.53 15.53 0 0 1 -15.5 15.57h-1.17a0 0 0 0 1 0 0v-36.71a5.85 5.85 0 0 1 5.81-5.86z" fill="#64356a"/><circle cx="239.29" cy="499.49" fill="#64356a" r="19.97"/><path d="m225.52 501.31a19.79 19.79 0 0 0 3.3 11 20.15 20.15 0 0 0 6.17 6v30.44a15.49 15.49 0 0 1 -5 .84h-1.16v-33.11a20 20 0 0 1 19.11-35 19.36 19.36 0 0 0 -2.41-.14 20 20 0 0 0 -20.01 19.97z" fill="#54285b"/><circle cx="270.8" cy="535.24" fill="#151d3a" r="3.57"/><circle cx="303.54" cy="535.24" fill="#151d3a" r="3.57"/><path d="m659.49 841.17h51.99v25.48h-51.99z" fill="#f0a284" transform="matrix(-.67571888 .73715941 -.73715941 -.67571888 1778.16 925.53)"/><path d="m653.12 843.97h51.99v8.21h-51.99z" fill="#ea7d7d" transform="matrix(-.67571888 .73715941 -.73715941 -.67571888 1763.19 920.44)"/><path d="m665 871.45 23.13-15.3a29.73 29.73 0 0 1 55.66-12.41l-52 28.88-25.94 14.38-3.24-5.83a7.38 7.38 0 0 1 2.39-9.72z" fill="#2b234c"/><path d="m700.74 833.8a29.75 29.75 0 0 1 37.67 12.92l5.37-3a29.78 29.78 0 0 0 -43-9.94z" fill="#3d325d"/><path d="m663.1 893.53a4.59 4.59 0 0 0 5.71 2 4.34 4.34 0 0 0 .54-.25l77.54-43.06a4.38 4.38 0 0 0 .62-.4 7 7 0 0 0 -6.73-12.13 5.86 5.86 0 0 0 -1 .52l-2.89 1.81-8.25 5.18-3.84 2.41-8.24 5.18-3.84 2.41-8.25 5.18-3.84 2.41-8.24 5.21-3.84 2.41-8.24 5.18-3.84 2.41-8.25 5.18-3.54 2.22a3.06 3.06 0 0 0 -.29.21 4.59 4.59 0 0 0 -1.29 5.92z" fill="#3d325d"/><g fill="#2b234c"><path d="m736.9 842.06 6.68 12 4-2.2-6.76-12.17a5.86 5.86 0 0 0 -1 .52z"/><path d="m724.81 849.65 6.31 11.37 3.96-2.2-6.43-11.58z"/><path d="m712.73 857.24 5.93 10.69 3.97-2.2-6.06-10.9z"/><path d="m700.64 864.83 5.57 10.02 3.95-2.2-5.68-10.24z"/><path d="m688.55 872.41 5.2 9.36 3.96-2.2-5.32-9.57z"/><path d="m676.47 880 4.82 8.69 3.96-2.2-4.94-8.9z"/><path d="m664.55 887.9 4.28 7.71 4-2.2-4.57-8.23-3.54 2.22z"/></g><path d="m554.1 643.58h69.77a0 0 0 0 1 0 0v210.13a34.89 34.89 0 0 1 -34.87 34.88 34.89 34.89 0 0 1 -34.89-34.89v-210.12a0 0 0 0 1 -.01 0z" fill="#3d325d" transform="matrix(-.69641397 .71764028 -.71764028 -.69641397 1548.94 876.95)"/><path d="m270.31 463h60.78a0 0 0 0 1 0 0v14a37.15 37.15 0 0 1 -37.15 37.15h-60.78a0 0 0 0 1 0 0v-14a37.15 37.15 0 0 1 37.15-37.15z" fill="#64356a"/><path d="m331.08 463v14a37.14 37.14 0 0 1 -37.14 37.14h-9.64a37.14 37.14 0 0 0 37.14-37.14v-14z" fill="#7d5384"/><path d="m267.34 475.13h19.91a6 6 0 0 1 6 6 15.82 15.82 0 0 1 -15.82 15.82h-19.93a6 6 0 0 1 -6-6 15.82 15.82 0 0 1 15.82-15.82z" fill="#7d5384"/><circle cx="237.37" cy="547.13" fill="#f0a284" r="13.78"/><path d="m233.2 546.31a6 6 0 0 0 4.27 5 1.7 1.7 0 0 0 2.1-1.88l-.92-7.68a1.73 1.73 0 0 0 -2.64-1.25 6 6 0 0 0 -2.81 5.81z" fill="#ea7d7d"/><path d="m296.4 549.79a8.82 8.82 0 0 1 -2.37 6.34c-.2.2-.4.4-.61.59a8.82 8.82 0 0 1 -5.55 2.21h-.36a8.85 8.85 0 0 1 -9.08-7.81c0-.24-.05-.49-.06-.73a1.72 1.72 0 0 1 .46-1.23 1.68 1.68 0 0 1 1.2-.54l14.6-.49a1.7 1.7 0 0 1 1.77 1.66z" fill="#962f4a"/><path d="m287.64 557.57a6.19 6.19 0 0 1 -.09 1.37h-.05a8.83 8.83 0 0 1 -9.07-7.81 7.31 7.31 0 0 1 1.95-.35 7 7 0 0 1 7.26 6.79z" fill="#e1617f"/><path d="m294.31 548.15c0 1.73-2.64 3.21-5.93 3.32s-6-1.19-6.13-2.92z" fill="#fff"/></svg>