<svg viewBox="0 0 1000 1000" xmlns="http://www.w3.org/2000/svg"><path d="m972.14 624.35v10.41a132.24 132.24 0 0 1 -3.19 29 129.47 129.47 0 0 1 -3.72 13.34 132.57 132.57 0 0 1 -9.2 21c-.5.91-1 1.81-1.52 2.7a132 132 0 0 1 -16.82 23c-2.74 3-5.63 5.92-8.64 8.67-.46.43-.93.85-1.4 1.27l-.14.12-1.61 1.4c-.75.64-1.5 1.27-2.26 1.89a131.7 131.7 0 0 1 -22.11 14.7c-2.38 1.26-4.81 2.45-7.27 3.56a128.46 128.46 0 0 1 -15 5.71c-1.21.38-2.43.74-3.65 1.08a132.49 132.49 0 0 1 -35.9 4.93h-53.71a27.3 27.3 0 0 0 -27.31 27.32v101.94h-456.69v-101.91a27.37 27.37 0 0 0 -1.55-9.09c-.17-.49-.36-1-.56-1.45a27.36 27.36 0 0 0 -15.25-14.89 27 27 0 0 0 -10-1.89h-90.34c-1.43 0-2.84 0-4.26-.06a137.1 137.1 0 0 1 -55.94-13.78c-1-.47-1.91-.94-2.86-1.44a137.36 137.36 0 0 1 -22.68-14.7c-.78-.62-1.55-1.25-2.32-1.89l-.52-.43c-.38-.32-.76-.64-1.13-1l-1.59-1.36c-2.06-1.81-4.06-3.7-6-5.64q-1.49-1.49-2.94-3a138.47 138.47 0 0 1 -17.5-23 137.2 137.2 0 0 1 -15.56-37.13q-.74-2.88-1.35-5.82a137.91 137.91 0 0 1 -2.93-28.35c0-4.24.19-8.45.57-12.59a133.16 133.16 0 0 1 1.87-13.35c.15-.82.32-1.63.49-2.44.23-1.15.49-2.29.76-3.43q1.07-4.5 2.43-8.9.77-2.46 1.62-4.89a136.1 136.1 0 0 1 12.08-25.58c.31-.51.62-1 .94-1.52s.53-.85.8-1.28a138.93 138.93 0 0 1 23.59-27.93q3.49-3.18 7.21-6.1c.38-.32.76-.61 1.14-.91l.62-.47q4.14-3.18 8.54-6a136.11 136.11 0 0 1 34.26-16.06c1.41-.44 2.84-.86 4.27-1.25l.27-.07c3.85-1.05 7.77-1.94 11.75-2.64q4.53-.83 9.16-1.33a138.87 138.87 0 0 1 15.21-.82h106.05a35.74 35.74 0 0 0 20.71-6.61c.86-.61 1.7-1.26 2.5-1.94s1.42-1.26 2.08-1.92a35.67 35.67 0 0 0 10.46-24.37c0-.3 0-.61 0-.92 0-.14 0-.28 0-.41a35.82 35.82 0 0 0 -21.74-32.49 36.26 36.26 0 0 0 -6.82-2.12c-.44-.09-.89-.18-1.34-.25a35.34 35.34 0 0 0 -5.85-.48h-178.88-2.1a82.66 82.66 0 0 1 -8.54-.65l-.62-.07-.72-.1-.42-.06a83.2 83.2 0 0 1 -46.71-23.61c-.93-.93-1.84-1.88-2.72-2.85a83.07 83.07 0 0 1 -9.16-12.15q-1.36-2.19-2.6-4.47a82.12 82.12 0 0 1 -5.77-13.35 83.56 83.56 0 0 1 2.89-60.11 84.08 84.08 0 0 1 5.52-10.41 83.07 83.07 0 0 1 9.16-12.1c.88-1 1.79-1.92 2.72-2.85a83.3 83.3 0 0 1 47.81-23.71l.61-.07a82.66 82.66 0 0 1 8.54-.65q1 0 2.1 0a69 69 0 0 0 36.3-10.28l.15-.09a69 69 0 0 0 8.9-6.56c1.07-.92 2.11-1.87 3.12-2.86a68.71 68.71 0 0 0 9.16-11q1.57-2.35 3-4.85a69.15 69.15 0 0 0 5.73-13.49 67 67 0 0 0 1.88-7.88 69.26 69.26 0 0 0 1.09-10.85c0-.47 0-.94 0-1.42v-70.6a27.31 27.31 0 0 1 27.29-27.4h636.59a83.45 83.45 0 0 1 69.22 36.74c.31.44.6.88.89 1.32a82.72 82.72 0 0 1 6.49 12 81.3 81.3 0 0 1 3.49 9.48 83.9 83.9 0 0 1 2.47 37.28 81.08 81.08 0 0 1 -3.23 13.38 83.74 83.74 0 0 1 -39.19 46.8q-3.15 1.74-6.46 3.19a81.56 81.56 0 0 1 -9.16 3.41 83.43 83.43 0 0 1 -24.52 3.66h-68a48.41 48.41 0 0 0 -17.08 3.09l-.73.28a48 48 0 0 0 -5.48 2.56c-1.26.69-2.49 1.44-3.68 2.24a48.57 48.57 0 0 0 -21.63 40.42v1.25a47.91 47.91 0 0 0 2.22 13.35 48.67 48.67 0 0 0 19.39 25.82 47.8 47.8 0 0 0 9.16 4.8 48.34 48.34 0 0 0 17.81 3.37c.89 0 1.77 0 2.65.06a62.43 62.43 0 0 1 30.1 9.12c1.08.65 2.13 1.33 3.16 2.05.72.5 1.42 1 2.11 1.54q2 1.51 3.88 3.19a62 62 0 0 1 9.18 10.16 62.74 62.74 0 0 1 11.93 36.9v43a43.92 43.92 0 0 0 26.37 40.31c1 .44 2 .85 3.09 1.21.59.21 1.19.4 1.79.58 2.38.71 4.84 1.49 7.37 2.37 5.09 1.73 10.44 3.8 15.91 6.25a152 152 0 0 1 34.65 21.21 123.15 123.15 0 0 1 9.16 8.34q3.23 3.24 6.25 6.8a113.79 113.79 0 0 1 9 12.07l.82 1.28a112.84 112.84 0 0 1 12.35 27.12q.74 2.4 1.38 4.89c.75 2.88 1.42 5.85 2 8.9.36 1.92.67 3.88 1 5.87.6 4.28 1 8.73 1.23 13.35q.11 3.58.11 7.34z" fill="#f3f4fe"/><g fill="#edeefe"><path d="m760.84 783.94a27.24 27.24 0 0 0 -2.11 10.54v2.81h-456.73v-2.81a27.37 27.37 0 0 0 -1.55-9.09c-.17-.49-.36-1-.56-1.45z"/><path d="m969 663.73a129.47 129.47 0 0 1 -3.72 13.34h-910.14a136.6 136.6 0 0 1 -4.14-13.34z"/><path d="m954.11 556.86h-886.64c.26-.43.53-.85.8-1.28a136 136 0 0 1 8.67-12.07h867.38a113.79 113.79 0 0 1 9 12.07z"/><path d="m839.73 423.29v13.35h-519.44a36 36 0 0 0 -15.93-13.35z"/><path d="m730.35 316.42h-700a82.76 82.76 0 0 1 4.65-13.35h693.13a47.91 47.91 0 0 0 2.22 13.35z"/><path d="m884.81 243q-3.15 1.74-6.46 3.19a81.56 81.56 0 0 1 -9.16 3.41 83.43 83.43 0 0 1 -24.52 3.66h-68a48.41 48.41 0 0 0 -17.08 3.09h-670.71a83 83 0 0 1 11.33-2.35l.61-.07a82.66 82.66 0 0 1 8.54-.65q1 0 2.1 0a69 69 0 0 0 36.3-10.28z"/><path d="m921.27 136.09h-740.5v-13.34h733.12c.31.44.6.88.89 1.32a82.72 82.72 0 0 1 6.49 12.02z"/></g><path d="m496.88 146.75v380.9h-405q3.49-3.18 7.21-6.1c.38-.32.76-.61 1.14-.91l.62-.47q4.14-3.18 8.54-6a136.11 136.11 0 0 1 34.26-16.06c0-.26 0-.52 0-.78l.06.77c1.41-.44 2.84-.86 4.27-1.25q5.91-1.62 12-2.71 4.53-.83 9.16-1.33a138.87 138.87 0 0 1 15.16-.81h106.05a35.75 35.75 0 0 0 35.75-34.84c0-.3 0-.61 0-.92 0-.14 0-.28 0-.41a35.76 35.76 0 0 0 -28.56-34.61c-.44-.09-.89-.18-1.34-.25a35.34 35.34 0 0 0 -5.85-.48h-178.88-2.1a82.66 82.66 0 0 1 -8.54-.65l-.62-.07-.72-.1-.42-.06a83.37 83.37 0 0 1 -19-5.19v-155a83.19 83.19 0 0 1 20.14-5.42l.61-.07a82.66 82.66 0 0 1 8.54-.65q1 0 2.1 0a69 69 0 0 0 45.34-16.91c1.07-.92 2.11-1.87 3.12-2.86a68.71 68.71 0 0 0 9.16-11q1.57-2.35 3-4.85a69 69 0 0 0 8.7-32.22c0-.47 0-.94 0-1.42v-53.5h299.3a16.56 16.56 0 0 1 16.8 16.23z" fill="#c7ccf9"/><path d="m476.1 152.38v375.27h-375.27v-7.48q4.14-3.18 8.54-6a136.11 136.11 0 0 1 34.26-16.06c0-.26 0-.52 0-.78l.06.77c1.41-.44 2.84-.86 4.27-1.25q5.91-1.62 12-2.71 4.53-.83 9.16-1.33a138.87 138.87 0 0 1 15.18-.81h106.05a35.75 35.75 0 0 0 35.75-34.84c0-.3 0-.61 0-.92 0-.14 0-.28 0-.41a35.76 35.76 0 0 0 -28.56-34.61c-.44-.09-.89-.18-1.34-.25a35.34 35.34 0 0 0 -5.85-.48h-178.88-2.1a82.66 82.66 0 0 1 -8.54-.65v-165.94a82.66 82.66 0 0 1 8.54-.65q1 0 2.1 0a69 69 0 0 0 45.34-16.91c1.07-.92 2.11-1.87 3.12-2.86a68.71 68.71 0 0 0 9.16-11q1.57-2.35 3-4.85a69 69 0 0 0 8.7-32.22c0-.47 0-.94 0-1.42v-31.61z" fill="#f0f1fc"/><path d="m476.1 204.08v323.57h-165v-42.31a35.18 35.18 0 0 0 4.58-3.86 35.67 35.67 0 0 0 10.46-24.37c0-.3 0-.61 0-.92 0-.14 0-.28 0-.41a35.65 35.65 0 0 0 -15-28.73v-35.44c0-11.33 8.85-20.52 19.77-20.52s19.76-9.18 19.76-20.51v-122.79a24.44 24.44 0 0 1 2.22-10.22 22.8 22.8 0 0 1 20.62-13.49z" fill="#e5e7fd"/><path d="m215.76 420.44h-104.29-2.1a82.66 82.66 0 0 1 -8.54-.65l-.62-.07-.72-.1a55.24 55.24 0 0 1 1.11-6.34c.07-.32.15-.65.23-1a58 58 0 0 1 4.81-12.67 58.66 58.66 0 0 1 21.63-23.08 58.09 58.09 0 0 1 12.86-5.81l.22-.06q.93-.28 1.86-.54c.7-.19 1.41-.37 2.12-.53 1.68-.39 3.4-.71 5.14-.94l.76-.11 1-.11.7-.07c.86-.08 1.73-.15 2.61-.19.5 0 1 0 1.49-.06h1.52a58.27 58.27 0 0 1 32.71 10c1.16.79 2.3 1.61 3.4 2.49.38.29.74.59 1.1.88a59.42 59.42 0 0 1 7.93 7.93l.88 1.1c.88 1.1 1.7 2.24 2.49 3.4a58.28 58.28 0 0 1 9.7 26.53z" fill="#bac3f7"/><path d="m540.85 543c0 8.49-7.64 15.37-17.07 15.37h-457.25c.57-.94 1.15-1.87 1.74-2.8a138.18 138.18 0 0 1 23.59-27.93h431.92c9.43.01 17.07 6.89 17.07 15.36z" fill="#c7ccf9"/><path d="m340.25 527.65v-66.23a2.36 2.36 0 0 1 2.36-2.35h53.75a2.36 2.36 0 0 0 2.35-2.36v-44a2.36 2.36 0 0 1 2.36-2.36h11a2.36 2.36 0 0 0 2.35-2.36v-14.77a2.36 2.36 0 0 1 2.36-2.36h15.52a2.36 2.36 0 0 0 2.36-2.35v-29a2.35 2.35 0 0 1 2.36-2.35h10.27a2.36 2.36 0 0 0 2.36-2.36v-9.53a2.35 2.35 0 0 1 2.35-2.37h10.28a2.36 2.36 0 0 1 2.36 2.35v9.53a2.36 2.36 0 0 0 2.35 2.36h6.72a2.36 2.36 0 0 1 2.36 2.35v168.16z" fill="#dbdffc"/><path d="m184.85 420.44h-73.38-2.1a82.66 82.66 0 0 1 -8.54-.65v-66a127.2 127.2 0 0 1 15.53 4.85l2.51 1q2.37 1 4.7 2c.72.32 1.42.66 2.13 1q3 1.44 6 3.06c.55.29 1.11.6 1.65.91.78.43 1.55.88 2.31 1.33s1.49.89 2.23 1.35l.26.17c.68.42 1.36.85 2 1.29a127 127 0 0 1 14.1 10.6 128.57 128.57 0 0 1 30.6 39.09z" fill="#bac3f7"/><path d="m215.76 420.44h-2.93a58.52 58.52 0 0 0 -55.25-39.23c-1.12 0-2.23 0-3.33.1a58.23 58.23 0 0 0 -14.1 2.54 126.2 126.2 0 0 0 -12.86-7.33 126.64 126.64 0 0 0 -26.45-9.66v-13.14a127.2 127.2 0 0 1 15.53 4.85l2.51 1q2.37 1 4.7 2c.72.32 1.42.66 2.13 1q3 1.44 6 3.06c.55.29 1.11.6 1.65.91.78.43 1.55.88 2.31 1.33s1.49.89 2.23 1.35l.26.17c.68.42 1.36.85 2 1.29l.22-.06q.93-.28 1.86-.54c.7-.19 1.41-.37 2.12-.53 1.68-.39 3.4-.71 5.14-.94l.76-.11 1-.11.7-.07c.86-.08 1.73-.15 2.61-.19.5 0 1 0 1.49-.06h1.52a58.27 58.27 0 0 1 32.71 10c1.16.8 2.3 1.63 3.4 2.49.38.29.74.59 1.1.88a59.42 59.42 0 0 1 7.93 7.93l.88 1.1c.86 1.1 1.69 2.24 2.49 3.4a58.28 58.28 0 0 1 9.67 26.57z" fill="#a8b7f4"/><path d="m260.48 493.77v1.37s0 1.08-.06 1.62c0 .37 0 .75-.07 1.12v.52a2.11 2.11 0 0 1 0 .26v.59.27.3.35s0 .32-.05.48 0 .2 0 .3c0 .37-.09.74-.15 1.1s-.08.6-.13.9l-.06.34c-.06.37-.12.73-.19 1.09-.1.58-.22 1.15-.35 1.72a1.7 1.7 0 0 1 0 .22c0 .21-.09.41-.14.62s-.05.21-.08.32-.1.45-.16.67l-.15.59c0 .1-.05.2-.08.3-.14.52-.28 1-.44 1.55l-.21.72c-.07.23-.14.45-.22.68-.22.68-.45 1.36-.7 2-.07.17-.13.35-.2.52a2.18 2.18 0 0 1 -.09.23l-.22.58a5.49 5.49 0 0 1 -.21.51l-.12.31-.09.2a1.88 1.88 0 0 1 -.12.3c-.17.42-.35.83-.54 1.24l-.14.3c-.31.67-.63 1.34-1 2-.14.29-.29.57-.44.85l-.5.94-.28.51-1.19 1.74-.18.3-.66 1c-.08.13-.16.26-.25.39s-.15.24-.23.35l-.25.37c-.27.41-.56.82-.84 1.23-1 1.44-2.12 2.84-3.27 4.18l-.79.9a58.51 58.51 0 0 1 -91.36-5.08c-.42-.6-.84-1.21-1.24-1.82q-1.22-1.85-2.28-3.78a55.08 55.08 0 0 1 -2.88-6 50.57 50.57 0 0 1 -1.88-5.26c-.34-1.08-.63-2.17-.89-3.27a55.87 55.87 0 0 1 -1.21-6.76c-.11-.88-.2-1.78-.26-2.68 0-.26 0-.52 0-.78l.06.77c1.41-.44 2.84-.86 4.27-1.25q5.91-1.62 12-2.71 4.53-.83 9.16-1.33a138.87 138.87 0 0 1 15.18-.77h76.15c.02.55.03 1.16.03 1.77z" fill="#c7ccf9"/><g fill="#ecedfc"><path d="m100.82 314.26h375.28v18.74h-375.28z"/><path d="m100.82 282.03h375.28v18.74h-375.28z"/><path d="m476.1 249.8v18.74h-375.28v-14.64a82.66 82.66 0 0 1 8.54-.65q1 0 2.1 0a69.1 69.1 0 0 0 21.54-3.45z"/><path d="m476.1 217.57v18.74h-319.29c1.07-.92 2.11-1.87 3.12-2.86a68.71 68.71 0 0 0 9.16-11q1.57-2.35 3-4.85z"/><path d="m476.1 185.35v18.73h-298.31a69.78 69.78 0 0 0 3-18.73z"/><path d="m180.77 153.12h295.33v18.74h-295.33z"/></g><g fill="#c7ccf9"><path d="m297.54 148.55v272.62c-.44-.09-.89-.18-1.34-.25a35.34 35.34 0 0 0 -5.85-.48h-16.87v-271.89z"/><path d="m290.35 492a35.5 35.5 0 0 0 7.19-.73v36.43h-24.06v-35.7z"/><path d="m169.4 420.44h-57.93-2.1a82.66 82.66 0 0 1 -8.54-.65l-.62-.07-.72-.1-.42-.06v-20.12h1.76c1.61 0 3.21.07 4.81.16q3.26.17 6.48.48h.06q6.46.66 12.73 1.94.78.15 1.56.33 3.1.69 6.17 1.51.77.19 1.53.42c1 .27 1.9.56 2.84.84l.18.06c1.94.61 3.85 1.25 5.75 1.94l.21.08c.91.33 1.81.68 2.71 1 .56.22 1.12.44 1.67.68.88.35 1.75.71 2.61 1.1a3.43 3.43 0 0 1 .44.19c.9.39 1.78.8 2.66 1.21l1.41.66c.54.26 1.09.52 1.62.8l1.16.59c.57.28 1.14.57 1.7.89s1.37.73 2.05 1.11c.21.1.41.22.61.34.37.2.73.41 1.09.62 1.43.81 2.83 1.65 4.22 2.53l1.07.68c.41.3.83.56 1.23.84z"/><path d="m227.26 527.65h-128.19v-6.1c.38-.32.76-.61 1.14-.91l.62-.47q4.14-3.18 8.54-6a136.11 136.11 0 0 1 34.26-16.06c0-.26 0-.52 0-.78l.06.77c1.41-.44 2.84-.86 4.27-1.25q5.91-1.62 12-2.71 4.53-.83 9.16-1.33a138.87 138.87 0 0 1 15.18-.81h37.93a128.58 128.58 0 0 1 5.03 35.65z"/></g><g fill="#bac3f7"><path d="m260.48 493.77v1.37s0 1.08-.06 1.62c0 .37 0 .75-.07 1.12v.52a2.11 2.11 0 0 1 0 .26v.59.26.3.35s0 .32-.05.48 0 .2 0 .3c0 .37-.09.74-.15 1.1s-.08.6-.13.9l-.06.34c-.06.37-.12.73-.19 1.09-.1.58-.22 1.15-.35 1.72a1.7 1.7 0 0 1 0 .22c0 .21-.09.41-.14.62l-.24 1-.15.59c0 .1-.05.2-.08.3-.14.52-.28 1-.44 1.55l-.21.72s0 0 0 0c-.06.21-.13.43-.2.64s-.07.21-.11.31q-.19.62-.42 1.23a2.3 2.3 0 0 1 -.12.34s0 .1-.05.16-.13.35-.2.52a2.18 2.18 0 0 1 -.09.23c-.14.37-.28.73-.43 1.09l-.12.31-.09.2c-.25.62-.52 1.23-.8 1.84s-.63 1.34-1 2c-.14.29-.29.57-.44.85s-.33.63-.5.94l-.28.51c-.3.53-.6 1.05-.92 1.57l-.18.3c-.21.36-.43.7-.66 1-.08.13-.16.26-.25.39s-.15.23-.23.35l-.25.37q-.41.62-.84 1.23h-95.71c-.42-.6-.84-1.21-1.24-1.82q-1.22-1.85-2.28-3.78a59 59 0 0 1 -2.88-6c-.71-1.71-1.33-3.47-1.88-5.26-.32-1.08-.62-2.17-.89-3.27a60.06 60.06 0 0 1 -1.21-6.76c-.1-.89-.19-1.79-.25-2.69 1.41-.44 2.84-.86 4.27-1.25q5.91-1.62 12-2.71 4.53-.83 9.16-1.33a138.87 138.87 0 0 1 15.23-.6h76.15c.02.55.03 1.16.03 1.77z"/><path d="m169.4 420.44h-57.93-2.1a82.66 82.66 0 0 1 -8.54-.65l-.62-.07-.72-.1-.42-.06v-20.12h1.76c1.61 0 3.21.07 4.81.16q3.26.17 6.48.48h.06q6.46.66 12.73 1.94.78.15 1.56.33 3.1.69 6.17 1.51.77.19 1.53.42c1 .27 1.9.56 2.84.84l.18.06c1.94.61 3.85 1.25 5.75 1.94l.21.08c.91.33 1.81.68 2.71 1 .56.22 1.12.44 1.67.68.88.35 1.75.71 2.61 1.1a3.43 3.43 0 0 1 .44.19c.9.39 1.78.8 2.66 1.21l1.41.66c.54.26 1.09.52 1.62.8l1.16.59c.57.28 1.14.57 1.7.89s1.37.73 2.05 1.11c.21.1.41.22.61.34.37.2.73.41 1.09.62 1.43.81 2.83 1.65 4.22 2.53l1.07.68c.41.3.83.56 1.23.84z"/><path d="m227.26 527.65h-128.19v-6.1c.38-.32.76-.61 1.14-.91l.62-.47q4.14-3.18 8.54-6a136.11 136.11 0 0 1 34.26-16.06c0-.26 0-.52 0-.78l.06.77c1.41-.44 2.84-.86 4.27-1.25q5.91-1.62 12-2.71 4.53-.83 9.16-1.33a138.87 138.87 0 0 1 15.18-.81h37.93a128.58 128.58 0 0 1 5.03 35.65z"/></g><path d="m168.17 419.64c.41.26.82.52 1.23.8h-35.68a127.34 127.34 0 0 0 -32.89-7.17h-.23l-1.53-.12v-13.7h1.76c1.61 0 3.22.07 4.82.16q3.25.16 6.47.49h.06a124.38 124.38 0 0 1 12.73 1.9q.78.15 1.56.33 3.12.67 6.17 1.51.77.19 1.53.42c1 .27 1.9.56 2.84.84l.18.06c1.94.6 3.86 1.24 5.75 1.94l.21.08c.91.33 1.81.68 2.71 1 .56.22 1.12.44 1.67.68.88.35 1.75.71 2.61 1.1a3.43 3.43 0 0 1 .44.19c.9.39 1.78.8 2.66 1.21l1.41.66c.54.26 1.09.52 1.62.8l1.16.59c.57.28 1.14.57 1.7.89s1.37.73 2.05 1.11c.21.1.41.22.61.34.37.2.73.41 1.09.62 1.43.81 2.83 1.65 4.22 2.53z" fill="#c7ccf9"/><path d="m260.48 493.77v1.37s0 1.08-.06 1.62c0 .37 0 .75-.07 1.12v.52a2.11 2.11 0 0 1 0 .26v.59.23.3.35s0 .32-.05.48 0 .2 0 .3c0 .37-.09.74-.15 1.1s-.12.83-.19 1.24-.12.73-.19 1.09c-.1.58-.22 1.15-.35 1.72a1.7 1.7 0 0 1 0 .22c-.07.31-.14.63-.22.94s-.1.45-.16.67l-.15.59c0 .1-.05.2-.08.3-.14.52-.28 1-.44 1.55-.07.26-.15.51-.23.76s-.13.43-.2.64-.07.21-.11.31q-.19.62-.42 1.23a2.3 2.3 0 0 1 -.12.34c-.08.23-.16.45-.25.68a2.18 2.18 0 0 1 -.09.23l-.22.58-.33.82-.21.5c-.17.42-.35.83-.54 1.24l-.14.3c-.31.67-.63 1.34-1 2-.14.29-.29.57-.44.85l-.5.94-.28.51-1.19 1.74-.18.3-.66 1c-.08.13-.16.26-.25.39s-.15.23-.23.35l-.25.37c-.27.41-.56.82-.84 1.23-1 1.44-2.12 2.84-3.27 4.18l-.79.9c.8-1.65 1.53-3.35 2.17-5.08a58.69 58.69 0 0 0 1.7-35.7h10.95c.02.61.03 1.22.03 1.83z" fill="#c7ccf9"/><g fill="#e5e7fd"><path d="m445.48 369.05h8.95v5.97h-8.95z"/><path d="m445.48 391.14h8.95v5.97h-8.95z"/><path d="m423.7 402.18h8.95v5.97h-8.95z"/><path d="m423.7 445.75h8.95v5.97h-8.95z"/><path d="m384.63 467.53h8.95v5.97h-8.95z"/><path d="m384.63 489.32h8.95v5.97h-8.95z"/><path d="m357.15 476.49h8.95v5.97h-8.95z"/><path d="m357.15 501.55h8.95v5.97h-8.95z"/><path d="m384.63 511.1h8.95v5.97h-8.95z"/><path d="m423.7 489.32h8.95v5.97h-8.95z"/><path d="m423.7 511.1h8.95v5.97h-8.95z"/><path d="m445.48 435.3h8.95v5.97h-8.95z"/><path d="m445.48 457.39h8.95v5.97h-8.95z"/><path d="m445.48 501.55h8.95v5.97h-8.95z"/></g><rect fill="#d2d6fa" height="17.61" rx="8.8" transform="matrix(-1 0 0 -1 221.75 1810.37)" width="74.06" x="73.85" y="896.38"/><rect fill="#d2d6fa" height="17.61" rx="8.8" transform="matrix(-1 0 0 -1 1120.09 1810.37)" width="809.94" x="155.08" y="896.38"/><rect fill="#bcbff6" height="11.65" rx="5.82" width="188.35" x="521.47" y="322.58"/><path d="m570 276.31a12.2 12.2 0 0 1 12.2 12.2v6.65a0 0 0 0 1 0 0 12.2 12.2 0 0 1 -12.2-12.16v-6.65a0 0 0 0 1 0-.04z" fill="#d2d6fa" transform="matrix(.38107038 .92454603 -.92454603 .38107038 620.73 -355.75)"/><path d="m562.72 266.22a12.2 12.2 0 0 1 12.2 12.2v6.65a0 0 0 0 1 0 0 12.2 12.2 0 0 1 -12.2-12.2v-6.65a0 0 0 0 1 0 0z" fill="#bcbff6" transform="matrix(.92454603 .38107038 -.38107038 .92454603 147.96 -195.96)"/><path d="m569.41 276.31a0 0 0 0 1 0 0v6.69a12.2 12.2 0 0 1 -12.2 12.2 0 0 0 0 1 0 0v-6.65a12.2 12.2 0 0 1 12.2-12.24z" fill="#d2d6fa" transform="matrix(-.38107038 .92454603 -.92454603 -.38107038 1042.15 -126.19)"/><path d="m591 300.74a21.85 21.85 0 0 1 -43.69 0 22.57 22.57 0 0 1 .67-5.38h42.35a22.57 22.57 0 0 1 .67 5.38z" fill="#d2d6fa"/><rect fill="#bcbff6" height="5.72" rx="2.86" width="50.07" x="544.66" y="289.65"/><path d="m590.88 298.22h-43.39a20.88 20.88 0 0 1 .52-2.86h42.35a20.88 20.88 0 0 1 .52 2.86z" fill="#b5bbf4"/><path d="m677.27 286.38a9.54 9.54 0 0 1 9.54 9.54v5.21a0 0 0 0 1 0 0 9.54 9.54 0 0 1 -9.54-9.54v-5.21a0 0 0 0 1 0 0z" fill="#d2d6fa" transform="matrix(.38107038 .92454603 -.92454603 .38107038 693.74 -448.77)"/><path d="m671.6 278.49a9.54 9.54 0 0 1 9.54 9.54v5.21a0 0 0 0 1 0 0 9.54 9.54 0 0 1 -9.54-9.54v-5.21a0 0 0 0 1 0 0z" fill="#bcbff6" transform="matrix(.92454603 .38107038 -.38107038 .92454603 159.97 -236.17)"/><path d="m676.84 286.38a0 0 0 0 1 0 0v5.21a9.54 9.54 0 0 1 -9.54 9.54 0 0 0 0 1 0 0v-5.21a9.54 9.54 0 0 1 9.54-9.54z" fill="#d2d6fa" transform="matrix(-.38107038 .92454603 -.92454603 -.38107038 1199.76 -215.66)"/><path d="m693.75 305.49a17.09 17.09 0 0 1 -34.18 0 16.15 16.15 0 0 1 .12-2 16.53 16.53 0 0 1 .41-2.23h33.12a16.53 16.53 0 0 1 .41 2.23 16.15 16.15 0 0 1 .12 2z" fill="#d2d6fa"/><rect fill="#bcbff6" height="4.47" rx="2.24" width="39.17" x="657.47" y="296.82"/><path d="m693.63 303.52h-33.94a16.53 16.53 0 0 1 .41-2.23h33.12a16.53 16.53 0 0 1 .41 2.23z" fill="#b5bbf4"/><path d="m613.62 242.23h10.38a5.81 5.81 0 0 1 5.81 5.81v74.54a0 0 0 0 1 0 0h-22a0 0 0 0 1 0 0v-74.58a5.81 5.81 0 0 1 5.81-5.77z" fill="#d2d6fa"/><circle cx="618.8" cy="282.41" fill="#b5bbf4" r="7.09"/><path d="m618.8 287.52a4.29 4.29 0 0 1 -.81.06 5.18 5.18 0 1 1 0-10.35 5.32 5.32 0 0 1 .81.06 5.18 5.18 0 0 0 0 10.23z" fill="#d2d6fa"/><path d="m634.12 262.67h7.73a4.33 4.33 0 0 1 4.33 4.33v55.58a0 0 0 0 1 0 0h-16.39a0 0 0 0 1 0 0v-55.58a4.33 4.33 0 0 1 4.33-4.33z" fill="#bcbff6"/><circle cx="637.98" cy="292.62" fill="#d2d6fa" r="5.29"/><path d="m638 296.44a3.94 3.94 0 0 1 -.6 0 3.86 3.86 0 0 1 0-7.72 3.94 3.94 0 0 1 .6.05 3.86 3.86 0 0 0 0 7.63z" fill="#f0f1fc"/><path d="m218.42 473.72h587.42a41.15 41.15 0 0 1 41.16 41.15v194.31a0 0 0 0 1 0 0h-669.74a0 0 0 0 1 0 0v-194.31a41.15 41.15 0 0 1 41.16-41.15z" fill="#a17c74"/><path d="m177.26 698.17h669.73v11.01h-669.73z" fill="#7b5649"/><rect fill="#a17c74" height="121.48" rx="16.88" width="782.09" x="121.08" y="709.18"/><path d="m121.08 792.78h782.09v13.06h-782.09z" fill="#936e62"/><g fill="#7b5649"><path d="m213.75 896.36h-19.61l28.33-65.7h30.96z"/><path d="m810.5 896.36h19.61l-28.32-65.7h-30.96z"/><circle cx="778.96" cy="541.14" r="6.75"/><rect height="21.09" rx="1.85" transform="matrix(.70710678 .70710678 -.70710678 .70710678 604.04 -408.63)" width="3.7" x="793.42" y="514.28"/><rect height="21.09" rx="1.85" transform="matrix(.70710678 .70710678 -.70710678 .70710678 618.44 -373.85)" width="3.7" x="758.65" y="549.05"/><rect height="21.09" rx="1.85" transform="matrix(-.70710678 .70710678 -.70710678 -.70710678 1753.31 392.95)" width="3.7" x="793.42" y="549.05"/><rect height="21.09" rx="1.85" transform="matrix(-.70710678 .70710678 -.70710678 -.70710678 1669.36 358.17)" width="3.7" x="758.65" y="514.28"/><circle cx="778.96" cy="648.66" r="6.75"/><rect height="21.09" rx="1.85" transform="matrix(.70710678 .70710678 -.70710678 .70710678 680.07 -377.13)" width="3.7" x="793.42" y="621.81"/><rect height="21.09" rx="1.85" transform="matrix(.70710678 .70710678 -.70710678 .70710678 694.47 -342.36)" width="3.7" x="758.65" y="656.58"/><rect height="21.09" rx="1.85" transform="matrix(-.70710678 .70710678 -.70710678 -.70710678 1829.34 576.5)" width="3.7" x="793.42" y="656.58"/><rect height="21.09" rx="1.85" transform="matrix(-.70710678 .70710678 -.70710678 -.70710678 1745.39 541.73)" width="3.7" x="758.65" y="621.81"/><circle cx="646.08" cy="541.14" r="6.75"/><rect height="21.09" rx="1.85" transform="matrix(.70710678 .70710678 -.70710678 .70710678 565.12 -314.67)" width="3.7" x="660.54" y="514.28"/><rect height="21.09" rx="1.85" transform="matrix(.70710678 .70710678 -.70710678 .70710678 579.52 -279.89)" width="3.7" x="625.77" y="549.05"/><rect height="21.09" rx="1.85" transform="matrix(-.70710678 .70710678 -.70710678 -.70710678 1526.47 486.91)" width="3.7" x="660.54" y="549.05"/><rect height="21.09" rx="1.85" transform="matrix(-.70710678 .70710678 -.70710678 -.70710678 1442.52 452.13)" width="3.7" x="625.77" y="514.28"/><circle cx="646.08" cy="648.66" r="6.75"/><rect height="21.09" rx="1.85" transform="matrix(.70710678 .70710678 -.70710678 .70710678 641.15 -283.17)" width="3.7" x="660.54" y="621.81"/><rect height="21.09" rx="1.85" transform="matrix(.70710678 .70710678 -.70710678 .70710678 655.55 -248.4)" width="3.7" x="625.77" y="656.58"/><rect height="21.09" rx="1.85" transform="matrix(-.70710678 .70710678 -.70710678 -.70710678 1602.5 670.46)" width="3.7" x="660.54" y="656.58"/><rect height="21.09" rx="1.85" transform="matrix(-.70710678 .70710678 -.70710678 -.70710678 1518.55 635.69)" width="3.7" x="625.77" y="621.81"/><circle cx="513.2" cy="541.14" r="6.75"/><rect height="21.09" rx="1.85" transform="matrix(.70710678 .70710678 -.70710678 .70710678 526.2 -220.71)" width="3.7" x="527.66" y="514.28"/><rect height="21.09" rx="1.85" transform="matrix(.70710678 .70710678 -.70710678 .70710678 540.6 -185.93)" width="3.7" x="492.89" y="549.05"/><rect height="21.09" rx="1.85" transform="matrix(-.70710678 .70710678 -.70710678 -.70710678 1299.63 580.87)" width="3.7" x="527.66" y="549.05"/><rect height="21.09" rx="1.85" transform="matrix(-.70710678 .70710678 -.70710678 -.70710678 1215.68 546.09)" width="3.7" x="492.89" y="514.28"/><circle cx="513.2" cy="648.66" r="6.75"/><rect height="21.09" rx="1.85" transform="matrix(.70710678 .70710678 -.70710678 .70710678 602.23 -189.21)" width="3.7" x="527.66" y="621.81"/><rect height="21.09" rx="1.85" transform="matrix(.70710678 .70710678 -.70710678 .70710678 616.63 -154.44)" width="3.7" x="492.89" y="656.58"/><rect height="21.09" rx="1.85" transform="matrix(-.70710678 .70710678 -.70710678 -.70710678 1375.66 764.42)" width="3.7" x="527.66" y="656.58"/><rect height="21.09" rx="1.85" transform="matrix(-.70710678 .70710678 -.70710678 -.70710678 1291.72 729.65)" width="3.7" x="492.89" y="621.81"/><circle cx="380.32" cy="541.14" r="6.75"/><rect height="21.09" rx="1.85" transform="matrix(.70710678 .70710678 -.70710678 .70710678 487.28 -126.75)" width="3.7" x="394.78" y="514.28"/><rect height="21.09" rx="1.85" transform="matrix(.70710678 .70710678 -.70710678 .70710678 501.68 -91.97)" width="3.7" x="360.01" y="549.05"/><rect height="21.09" rx="1.85" transform="matrix(-.70710678 .70710678 -.70710678 -.70710678 1072.79 674.83)" width="3.7" x="394.78" y="549.05"/><rect height="21.09" rx="1.85" transform="matrix(-.70710678 .70710678 -.70710678 -.70710678 988.85 640.05)" width="3.7" x="360.01" y="514.28"/><circle cx="380.32" cy="648.66" r="6.75"/><rect height="21.09" rx="1.85" transform="matrix(.70710678 .70710678 -.70710678 .70710678 563.31 -95.25)" width="3.7" x="394.78" y="621.81"/><rect height="21.09" rx="1.85" transform="matrix(.70710678 .70710678 -.70710678 .70710678 577.71 -60.48)" width="3.7" x="360.01" y="656.58"/><rect height="21.09" rx="1.85" transform="matrix(-.70710678 .70710678 -.70710678 -.70710678 1148.83 858.38)" width="3.7" x="394.78" y="656.58"/><rect height="21.09" rx="1.85" transform="matrix(-.70710678 .70710678 -.70710678 -.70710678 1064.88 823.61)" width="3.7" x="360.01" y="621.81"/><circle cx="247.44" cy="541.14" r="6.75"/><rect height="21.09" rx="1.85" transform="matrix(.70710678 .70710678 -.70710678 .70710678 448.36 -32.79)" width="3.7" x="261.9" y="514.28"/><rect height="21.09" rx="1.85" transform="matrix(.70710678 .70710678 -.70710678 .70710678 462.76 1.99)" width="3.7" x="227.13" y="549.05"/><rect height="21.09" rx="1.85" transform="matrix(-.70710678 .70710678 -.70710678 -.70710678 845.95 768.79)" width="3.7" x="261.9" y="549.05"/><rect height="21.09" rx="1.85" transform="matrix(-.70710678 .70710678 -.70710678 -.70710678 762.01 734.01)" width="3.7" x="227.13" y="514.28"/><circle cx="247.44" cy="648.66" r="6.75"/><rect height="21.09" rx="1.85" transform="matrix(.70710678 .70710678 -.70710678 .70710678 524.39 -1.29)" width="3.7" x="261.9" y="621.81"/><rect height="21.09" rx="1.85" transform="matrix(.70710678 .70710678 -.70710678 .70710678 538.79 33.48)" width="3.7" x="227.13" y="656.58"/><rect height="21.09" rx="1.85" transform="matrix(-.70710678 .70710678 -.70710678 -.70710678 921.99 952.35)" width="3.7" x="261.9" y="656.58"/><rect height="21.09" rx="1.85" transform="matrix(-.70710678 .70710678 -.70710678 -.70710678 838.04 917.57)" width="3.7" x="227.13" y="621.81"/></g><circle cx="784.2" cy="411.41" fill="#673315" r="84.26"/><rect fill="#ef927f" height="52.67" rx="9.63" transform="matrix(.56985335 .82174641 -.82174641 .56985335 609.84 -217.9)" width="19.26" x="503.43" y="447.23"/><rect fill="#ef927f" height="52.67" rx="9.63" transform="matrix(0 1 -1 0 942.03 -13.85)" width="19.26" x="468.31" y="437.75"/><g fill="#f5a491"><path d="m506.09 430.39a26.79 26.79 0 0 0 18.05 46.46l199.3.68 47.76.21a26.79 26.79 0 0 0 .25-53.57l-247.07-.89a26.69 26.69 0 0 0 -18.29 7.11z"/><path d="m497.49 449.94a26.77 26.77 0 0 0 26.65 26.91h1.15l19.13.08 1.42-13.18 4.33-40.36-25.79-.12a26.79 26.79 0 0 0 -26.89 26.66z"/><ellipse cx="508.68" cy="449.5" rx="30.28" ry="35.94" transform="matrix(.09619321 -.99536268 .99536268 .09619321 12.3 912.55)"/></g><path d="m545.84 463.76-1.42 13.18 226.78.8c.54 0 1.06 0 1.58-.05h.22c.45 0 .9-.07 1.34-.11l.3-.05c.4 0 .82-.1 1.23-.17l.29-.05 1.27-.26.2-.05a28.13 28.13 0 0 0 4.3-1.42l.17-.09c.39-.16.77-.34 1.15-.54l.25-.12c.37-.19.73-.38 1.08-.59.08 0 .14-.08.21-.11.41-.24.79-.48 1.18-.73a26.75 26.75 0 0 0 12.12-22.29c0-.12 0-.22 0-.34-.17-8-11.11-9.86-14.28-2.5a26.75 26.75 0 0 1 -24.74 16.25z" fill="#ef927f"/><path d="m472.91 446a26.45 26.45 0 0 0 2.64 14.21 1 1 0 0 0 .1.18 29.48 29.48 0 0 0 2 3.39l.27.39c.32.43.64.88 1 1.31a2.06 2.06 0 0 0 .23.31c.4.52.83 1 1.28 1.52l.24.25c.39.43.78.83 1.19 1.23l.36.35a36.42 36.42 0 0 0 3.12 2.66l.41.3c.46.34.94.68 1.43 1 .1.08.22.15.32.22q.88.58 1.83 1.11l.3.17c.53.3 1.08.59 1.63.87.14.07.3.14.44.22 1.32.63 2.68 1.2 4.09 1.71l.43.14c.63.22 1.27.41 1.91.6a2.29 2.29 0 0 0 .28.08c.74.21 1.51.42 2.29.58h.21c.71.16 1.43.29 2.15.41l.36.05c.8.13 1.6.24 2.42.31a41.28 41.28 0 0 0 14.87-1.21h.14.13a39.44 39.44 0 0 0 4.37-1.5l19.13.08 1.42-13.18h-4.91l-27.79-.12a15.81 15.81 0 0 1 -9.52 3.51c-12.2.6-27.15-9.87-24.47-27a29.26 29.26 0 0 1 5.78-14c-6.77 4.79-11.3 11.77-12.08 19.85z" fill="#ef927f"/><path d="m422.17 641.91-48.6 41.08 42.13 4.55 45.46-32.13z" fill="#f5a491"/><path d="m331.39 697.75c-.77-5.89 3.3-11.61 9.79-13.76l63.15-19.39c7.25-2.4 8.69 2.48 9.55 9.07l1.82 13.87c1.64 12.46-10.7 23.46-25.14 22.26l-46-1.26c-6.88-.33-12.39-4.84-13.17-10.79z" fill="#f5a491"/><path d="m539 546.44h250a0 0 0 0 1 0 0v58.93a25.2 25.2 0 0 1 -25.2 25.2h-224.8a42.07 42.07 0 0 1 -42-42.07 42.07 42.07 0 0 1 42-42.06z" fill="#fcb922" transform="matrix(.8660254 .5 -.5 .8660254 380.39 -242.64)"/><path d="m521.71 507.38-118.65 145.56a3.73 3.73 0 0 0 .11 4.85l21.61 24.21a3.74 3.74 0 0 0 5.18.38l145.65-121.76a38 38 0 0 0 -.29-58.63 38.05 38.05 0 0 0 -53.61 5.39z" fill="#fcb922"/><path d="m825.75 488.22a70.63 70.63 0 0 1 -1.87 9.9l-37.1 141.09a61.65 61.65 0 0 1 -75.3 43.94l-49.68-13.07 59.56-226.46a43.18 43.18 0 0 1 52.76-30.78 69.72 69.72 0 0 1 51.63 75.38z" fill="#ff4539"/><rect fill="#ff4539" height="52.51" rx="26.26" transform="matrix(.97429148 .22529116 -.22529116 .97429148 129.26 -155.55)" width="134.79" x="678.73" y="462.25"/><path d="m560.44 625h230a0 0 0 0 1 0 0v43.88a40.26 40.26 0 0 1 -40.26 40.26h-189.74a40.49 40.49 0 0 1 -40.44-40.45v-3.16a40.49 40.49 0 0 1 40.44-40.53z" fill="#ffc839"/><circle cx="729.53" cy="375.78" fill="#673315" r="44.29"/><path d="m693.76 390.2a44.25 44.25 0 0 0 32.4 29.8 44.29 44.29 0 1 1 13.12-87.38 44.34 44.34 0 0 0 -45.52 57.63z" fill="#ad8e88"/><rect fill="#673315" height="76.35" rx="38.18" transform="matrix(.95282054 -.30353421 .30353421 .95282054 -71.58 268.46)" width="84.68" x="785.43" y="326.3"/><path d="m730.64 391.06 9.16 28.76a16.57 16.57 0 1 0 31.57-10.06l-9.16-28.76a16.57 16.57 0 1 0 -31.57 10.06z" fill="#f5a491"/><path d="m730.64 391.06 7.05 22.13a78.75 78.75 0 0 0 15.83-3.3 77.86 77.86 0 0 0 15.68-7l-7-21.92a16.57 16.57 0 1 0 -31.57 10.06z" fill="#ef927f"/><path d="m687.48 334.13 2.81 8.33 1.92 5.71 11.36 33.83a34.53 34.53 0 0 0 43.72 21.72 57.39 57.39 0 0 0 36.11-72.72l-8-23.79a31.23 31.23 0 0 0 -39.57-19.65l-24.34 8.19-5.91 2a28.75 28.75 0 0 0 -18.1 36.38z" fill="#f5a491"/><path d="m750.24 402.59c-1 .39-2 .76-3 1.09a34.53 34.53 0 0 1 -43.67-21.68l-11.36-33.79-1.92-5.71-2.81-8.32a28.77 28.77 0 0 1 18.1-36.42l3.11-1a28.75 28.75 0 0 0 -16.47 35.81l2.8 8.33 1.92 5.71 11.36 33.79a34.53 34.53 0 0 0 41.94 22.19z" fill="#ffc4af"/><path d="m687.48 334.13 2.81 8.33 1.92 5.71a28.37 28.37 0 0 0 19.28-52.43l-5.91 2a28.75 28.75 0 0 0 -18.1 36.39z" fill="#ef927f"/><ellipse cx="712.4" cy="362.25" fill="#230d30" rx="3.28" ry="2.95" transform="matrix(.95282054 -.30353421 .30353421 .95282054 -76.35 233.34)"/><ellipse cx="736.07" cy="354.71" fill="#230d30" rx="3.28" ry="2.95" transform="matrix(.95282054 -.30353421 .30353421 .95282054 -72.94 240.17)"/><circle cx="793.1" cy="327.64" fill="#673315" r="30.09"/><path d="m867.8 350.69c.11.31.21.62.31.94a38.1 38.1 0 0 1 -7.22 36.23 38.15 38.15 0 0 0 4.16-32.09c-.1-.31-.2-.62-.31-.93a38.17 38.17 0 0 0 -41.61-25.25c-1 .15-2 .35-3 .58a27 27 0 0 0 -.35-3.2 29 29 0 0 0 -1-4.31 30.09 30.09 0 0 0 -37.81-19.54 29.76 29.76 0 0 0 -13.46 8.8 30.1 30.1 0 0 1 55.64 14.08 38.19 38.19 0 0 1 44.65 24.69z" fill="#441a07"/><circle cx="784.2" cy="341.28" fill="#f5a491" r="14.6"/><path d="m788.41 340.1a6.3 6.3 0 0 1 -1.91 6.71 1.8 1.8 0 0 1 -2.85-.89l-2.49-7.81a1.83 1.83 0 0 1 2-2.36 6.31 6.31 0 0 1 5.25 4.35z" fill="#ef927f"/><circle cx="761.59" cy="296.21" fill="#673315" r="31.71"/><path d="m793.07 300a31.71 31.71 0 0 0 -63-.68 31.71 31.71 0 1 1 63 .68z" fill="#441a07"/><circle cx="710.49" cy="295.62" fill="#673315" r="31.71"/><circle cx="685.78" cy="328.79" fill="#673315" r="31.71"/><path d="m731.79 272.13a31.72 31.72 0 0 0 -42.88 25.1 31.07 31.07 0 0 0 -.23 6.69c-.9.2-1.81.44-2.71.73a31.72 31.72 0 0 0 -11.69 53.69 31.71 31.71 0 0 1 1.87-59.76c.9-.29 1.81-.53 2.72-.73a31.7 31.7 0 0 1 52.92-25.72z" fill="#ad8e88"/><circle cx="716.41" cy="298.13" fill="#ad8e88" r="16.95"/><path d="m720.8 374.14a9.92 9.92 0 0 0 5.31 5.43c.3.12.6.24.9.33a9.84 9.84 0 0 0 6.71-.25l.37-.15a9.75 9.75 0 0 0 4.72-3.95 9.89 9.89 0 0 0 1.07-8.19 8.11 8.11 0 0 0 -.28-.78 1.84 1.84 0 0 0 -1-1.05 1.87 1.87 0 0 0 -1.47 0l-15.23 6.12a1.93 1.93 0 0 0 -1.1 2.49z" fill="#962f4a"/><path d="m733.34 378.16a7 7 0 0 0 .71 1.36h.05a9.93 9.93 0 0 0 5.78-12.14 7.86 7.86 0 0 0 -6.54 10.8z" fill="#e1617f"/><path d="m722.21 371.5c.8 1.78 4.16 2.1 7.59.73s5.64-4 5-5.79z" fill="#fff"/><rect fill="#f5a491" height="175.07" rx="30.47" transform="matrix(.82560621 .56424674 -.56424674 .82560621 420.57 -336.16)" width="60.94" x="723.57" y="424.68"/><rect fill="#f5a491" height="44.85" rx="8.76" transform="matrix(-.91503009 .4033856 -.4033856 -.91503009 1446.87 625.15)" width="17.53" x="648.84" y="442.52"/><rect fill="#ad8e88" height="82.32" rx="6.67" transform="matrix(.99963881 .02687483 -.02687483 .99963881 12.12 -16.98)" width="44.38" x="613.57" y="399.92"/><rect fill="#441a07" height="82.32" rx="6.67" transform="matrix(.99963881 .02687483 -.02687483 .99963881 12.18 -16.89)" width="44.38" x="610.27" y="402.16"/><path d="m609.35 477.2a6.68 6.68 0 0 0 6.49 6.85l31 .83a6 6 0 0 0 1.34-.11l-27-.72a6.67 6.67 0 0 1 -6.49-6.85l1.86-68.95a6.64 6.64 0 0 1 5.51-6.38l-4.06-.11a6.67 6.67 0 0 0 -6.85 6.49z" fill="#673315"/><circle cx="637.86" cy="417.03" fill="#ad8e88" r="4.86"/><circle cx="626.15" cy="416.71" fill="#ad8e88" r="2.53"/><g fill="#f5a491"><rect height="168.7" rx="30.56" transform="matrix(-.68696069 .72669458 -.72669458 -.68696069 1530.21 387.46)" width="61.13" x="651.08" y="439.01"/><ellipse cx="633.73" cy="479.26" rx="31.54" ry="38.97" transform="matrix(.53036323 -.84777051 .84777051 .53036323 -108.7 762.27)"/><rect height="44.85" rx="8.76" transform="matrix(-.55324617 .83301781 -.83301781 -.55324617 1344.43 234.2)" width="17.53" x="600.65" y="455.2"/></g><path d="m590.73 465.22a8.72 8.72 0 0 1 3.64-3.12c-.15.19-.3.4-.43.6a8.76 8.76 0 0 0 2.44 12.15l.4.27 4 2.67a34.61 34.61 0 0 0 2 6 43.33 43.33 0 0 0 12.25 16 45.6 45.6 0 0 0 5.14 3.72c1.43.89 2.9 1.71 4.38 2.44a1.53 1.53 0 0 0 .18.18l6.1 5.76 72.11 68.11a30.54 30.54 0 0 0 38.19 3 30.54 30.54 0 0 1 -41.4-.52l-78.17-73.9-.18-.18c-1.47-.73-2.94-1.55-4.38-2.44-10.28-6.44-17.07-16-19.4-25.7l-4.42-2.93a8.77 8.77 0 0 1 -2.45-12.11z" fill="#ffc4af"/><rect fill="#f5a491" height="44.85" rx="8.76" transform="matrix(-.55324617 .83301781 -.83301781 -.55324617 1335.32 205.16)" width="17.53" x="603.88" y="438.23"/><rect fill="#f5a491" height="46.62" rx="8.76" transform="matrix(-.55324617 .83301781 -.83301781 -.55324617 1345.3 177.46)" width="17.53" x="616.3" y="426.18"/><g fill="#ffc4af"><path d="m596.42 460.41a8.77 8.77 0 0 1 8.58-15.23 9.7 9.7 0 0 1 1.08.62l2.58 1.71a8.18 8.18 0 0 0 -2.7-.74 8.76 8.76 0 0 0 -5.82 16"/><path d="m617.79 434.13 2.58 1.71a8.77 8.77 0 0 0 -11.59 11.72l-.09-.05a8.18 8.18 0 0 0 -2.7-.74 8 8 0 0 1 -1-1.59 8.76 8.76 0 0 1 12.76-11.05z"/><rect height="65.33" rx="10.96" transform="matrix(-.68696069 .72669458 -.72669458 -.68696069 1533.5 395.1)" width="21.92" x="670.68" y="495.21"/></g></svg>