<svg viewBox="0 0 1000 1000" xmlns="http://www.w3.org/2000/svg"><path d="m973 505.48a110.09 110.09 0 0 1 -8.9 43.44q-1.56 3.65-3.38 7.14a110.37 110.37 0 0 1 -63.47 54.1 106.37 106.37 0 0 1 -14.94 3.76l-.54.1q-2.76.48-5.57.82a109.21 109.21 0 0 1 -13.37.81h-89.83a19.48 19.48 0 1 0 0 39h26.83a66.66 66.66 0 0 1 21.76 3.61c2.06.7 4.06 1.5 6 2.39a66.59 66.59 0 0 1 16 10.26q1.9 1.64 3.67 3.41c.24.24.48.48.7.72.71.72 1.4 1.46 2 2.21 1.3 1.44 2.51 2.94 3.67 4.49a66.54 66.54 0 0 1 9.89 19c.25.73.47 1.46.69 2.2a67.13 67.13 0 0 1 2.67 18.82c0 1.58 0 3.15-.17 4.7 0 .74-.11 1.48-.19 2.21a66.19 66.19 0 0 1 -6.31 22.3c-.2.41-.4.82-.61 1.22-.38.75-.77 1.48-1.18 2.21a67.38 67.38 0 0 1 -21.88 23.52c-1.17.77-2.36 1.51-3.58 2.2a66 66 0 0 1 -8.47 4.07 66.75 66.75 0 0 1 -24.75 4.72 54.69 54.69 0 0 0 -37.43 14.74c-.47.43-.93.88-1.38 1.33l-.85.87c-.78.82-1.54 1.66-2.26 2.52-.36.43-.72.86-1.07 1.3s-.58.73-.85 1.11l-.34.45-.31.42-.52.74c-.29.4-.56.81-.84 1.22s-.69 1.07-1 1.62-.51.84-.76 1.27c-.6 1-1.17 2.12-1.7 3.21-.2.4-.4.81-.58 1.22-.3.64-.58 1.29-.85 1.94-.19.46-.37.93-.55 1.4 0 .06-.05.13-.07.2-.2.52-.39 1-.57 1.58-.32.93-.61 1.88-.88 2.83-.05.16-.1.33-.14.49-.2.73-.38 1.47-.55 2.21a55.19 55.19 0 0 0 -1.36 12.21v32.49h-520.32v-59.86c0-.41 0-.81 0-1.22s0-.74-.07-1.1c0-.05 0-.09 0-.14 0-.31-.06-.61-.1-.91 0-.12 0-.23 0-.34a10.09 10.09 0 0 0 -.17-1.08 14.74 14.74 0 0 0 -.3-1.5c-.05-.25-.11-.49-.18-.74s-.2-.73-.31-1.09-.26-.83-.41-1.23-.31-.83-.48-1.24c-.32-.75-.66-1.49-1-2.2a23.79 23.79 0 0 0 -1.21-2.07 26.94 26.94 0 0 0 -3.51-4.39 25.4 25.4 0 0 0 -2.08-1.93 27.44 27.44 0 0 0 -17.74-6.35 66.6 66.6 0 0 1 -33.21-8.79c-1.22-.69-2.42-1.42-3.59-2.2a67.24 67.24 0 0 1 -10.39-8.4l-.29-.28a67.3 67.3 0 0 1 -11.2-14.84c-.41-.73-.8-1.46-1.18-2.21-.62-1.21-1.2-2.45-1.74-3.7a66.15 66.15 0 0 1 -5.19-19.82c-.07-.74-.14-1.47-.18-2.21-.12-1.55-.17-3.12-.17-4.7a67.19 67.19 0 0 1 2.67-18.82c.21-.74.44-1.47.68-2.2a68 68 0 0 1 5-11.45 66.44 66.44 0 0 1 8.56-12.07c.65-.75 1.33-1.49 2.05-2.21.28-.31.58-.61.88-.91 1.14-1.13 2.31-2.21 3.53-3.26a66.93 66.93 0 0 1 42.46-16.21h70.54a19.46 19.46 0 0 0 19.47-19.67c-.11-10.76-9.21-19.28-20-19.28h-148.06a110.18 110.18 0 0 1 -110.17-109.32 107.42 107.42 0 0 1 8.77-43.42 112.29 112.29 0 0 1 102.7-67.61h121a18 18 0 0 0 18-18.14c-.07-10-8.5-17.9-18.48-17.9h-42.46a67.14 67.14 0 0 1 -57.8-33 65.31 65.31 0 0 1 -3.61-7 67.17 67.17 0 0 1 10.68-71.14c.49-.57 1-1.14 1.52-1.69a66.94 66.94 0 0 1 49.21-21.44h210.46a37 37 0 0 0 14.19-2.85 36.51 36.51 0 0 0 8.49-5 35.82 35.82 0 0 0 6.94-7.24 36.31 36.31 0 0 0 6.92-21.15 37.22 37.22 0 0 1 22.46-34.08 36 36 0 0 1 14-2.83h254.99a35.92 35.92 0 0 1 10.32 1.49 33.4 33.4 0 0 1 3.79 1.34 36.66 36.66 0 0 1 18.54 17.26 36.72 36.72 0 0 1 3.9 16.48v7.24a29.14 29.14 0 0 0 3.3 13.51 28.75 28.75 0 0 0 3.61 5.38c.53.64 1.09 1.25 1.68 1.84a29.21 29.21 0 0 0 13.93 7.79 28.1 28.1 0 0 0 5 .74q.9.06 1.83.06a67.34 67.34 0 0 1 27.23 5.75 65.17 65.17 0 0 1 8.49 4.54 67.16 67.16 0 0 1 20.58 20.27 66.31 66.31 0 0 1 7.35 15.2l.06.16a66 66 0 0 1 2.89 12.68 67.11 67.11 0 0 1 -66.6 75.69h-52.95a18 18 0 0 0 -3.65 35.67 18.29 18.29 0 0 0 3.65.37h114.39a110 110 0 0 1 55.5 15 110.74 110.74 0 0 1 46.16 52.63c.37.9.74 1.8 1.09 2.71v.09a110.06 110.06 0 0 1 7.46 39.74z" fill="#f3f4fe"/><path d="m93.7 462.92s140.76-49.19 247.69-38.26a523.05 523.05 0 0 1 65.84 10.59 179.41 179.41 0 0 0 131-19.29c33.69-19.49 76.12-36.13 115.82-29.09 83.95 14.89 147.47 78.13 147.47 78.13s106.31-42.58 154-19.09c5.37 2.65 9 17 9 17-62.87 38.64-506.52 131.72-573.41 132.68-75.43 1.08-273-35.23-282.52-46s-14.89-86.67-14.89-86.67z" fill="#dee1fc"/><path d="m973 505.48a110.09 110.09 0 0 1 -8.9 43.44q-1.56 3.65-3.38 7.14a110.37 110.37 0 0 1 -63.47 54.1 106.37 106.37 0 0 1 -14.94 3.76l-.54.1q-2.76.48-5.57.82a109.21 109.21 0 0 1 -13.37.81h-89.83a19.48 19.48 0 1 0 0 39h26.83a66.66 66.66 0 0 1 21.76 3.61c2.06.7 4.06 1.5 6 2.39a66.59 66.59 0 0 1 16 10.26q1.9 1.64 3.67 3.41c.24.24.48.48.7.72.71.72 1.4 1.46 2 2.21 1.3 1.44 2.51 2.94 3.67 4.49a66.54 66.54 0 0 1 9.89 19c.25.73.47 1.46.69 2.2a67.13 67.13 0 0 1 2.67 18.82c0 1.58 0 3.15-.17 4.7 0 .74-.11 1.48-.19 2.21a66.19 66.19 0 0 1 -6.31 22.3c-.2.41-.4.82-.61 1.22-.38.75-.77 1.48-1.18 2.21a67.38 67.38 0 0 1 -21.88 23.52c-1.17.77-2.36 1.51-3.58 2.2a66 66 0 0 1 -8.47 4.07 66.75 66.75 0 0 1 -24.75 4.72 54.69 54.69 0 0 0 -37.43 14.74c-.47.43-.93.88-1.38 1.33l-.85.87c-.78.82-1.54 1.66-2.26 2.52-.37.43-.73.86-1.07 1.3s-.58.73-.85 1.11l-.34.45-.31.42-.52.74c-.29.4-.56.81-.84 1.22s-.69 1.07-1 1.62-.51.84-.76 1.27c-.6 1-1.17 2.12-1.7 3.21-.2.4-.39.81-.58 1.22-.3.64-.58 1.29-.85 1.94-.19.46-.37.93-.55 1.4 0 .06-.05.13-.07.2-.2.52-.39 1-.57 1.58-.32.93-.61 1.88-.88 2.83-.05.16-.1.33-.14.49-.2.73-.38 1.47-.55 2.21a55.19 55.19 0 0 0 -1.36 12.21v19.82h-520.32v-47.19c0-.41 0-.81 0-1.22s0-.74-.07-1.1c0-.05 0-.09 0-.14 0-.31-.06-.61-.1-.91 0-.12 0-.23 0-.34a10.09 10.09 0 0 0 -.17-1.08q-.12-.75-.3-1.5c-.05-.25-.11-.49-.18-.74s-.2-.73-.31-1.09-.26-.83-.41-1.23-.31-.83-.48-1.24c-.32-.75-.66-1.49-1-2.2a23.79 23.79 0 0 0 -1.21-2.07 26.94 26.94 0 0 0 -3.51-4.39 25.4 25.4 0 0 0 -2.08-1.93 27.44 27.44 0 0 0 -17.74-6.35 66.6 66.6 0 0 1 -33.21-8.79c-1.22-.69-2.42-1.42-3.59-2.2a67.24 67.24 0 0 1 -10.39-8.4l-.29-.28a67.3 67.3 0 0 1 -11.2-14.84c-.41-.73-.8-1.46-1.18-2.21-.62-1.21-1.2-2.45-1.74-3.7a66.15 66.15 0 0 1 -5.19-19.82c-.07-.74-.14-1.47-.18-2.21-.12-1.55-.17-3.12-.17-4.7a67.19 67.19 0 0 1 2.67-18.82c.21-.74.44-1.47.68-2.2a68 68 0 0 1 5-11.45 66.44 66.44 0 0 1 8.56-12.07c.65-.75 1.33-1.49 2.05-2.21.28-.31.58-.61.88-.91 1.14-1.13 2.31-2.21 3.53-3.26a66.93 66.93 0 0 1 42.46-16.21h70.54a19.46 19.46 0 0 0 19.47-19.67c-.11-10.76-9.21-19.28-20-19.28h-148.06a110.18 110.18 0 0 1 -110.17-109.32 107.42 107.42 0 0 1 8.77-43.42h948.21c.37.9.74 1.8 1.09 2.71v.09a110.06 110.06 0 0 1 7.46 39.76z" fill="#edeefe"/><rect fill="#d2d6fa" height="17.61" rx="8.8" width="809.94" x="101.36" y="863.22"/><g fill="#bcbff6"><rect height="26.16" rx="12.82" width="932.03" x="21.82" y="486.5"/><path d="m864.25 702.92a67.13 67.13 0 0 1 2.67 18.82c0 1.58 0 3.15-.17 4.7 0 .74-.11 1.48-.19 2.21a66.19 66.19 0 0 1 -6.31 22.3c-.2.41-.4.82-.61 1.22-.38.75-.77 1.48-1.18 2.21a67.38 67.38 0 0 1 -21.88 23.52c-1.17.77-2.36 1.51-3.58 2.2a66 66 0 0 1 -8.47 4.07 50.7 50.7 0 0 1 7.83-47.17 26.38 26.38 0 0 0 5.23-12.81c2.22-17.74 4.33-35.48 6-53.27v-.1q1.9 1.64 3.67 3.41c.24.24.48.48.7.72.71.72 1.4 1.46 2 2.21 1.3 1.44 2.51 2.94 3.67 4.49a66.54 66.54 0 0 1 9.89 19c.29.8.48 1.53.73 2.27z"/><path d="m897.21 610.16a106.37 106.37 0 0 1 -14.94 3.76l-.54.1q-2.76.48-5.57.82a109.21 109.21 0 0 1 -13.37.81h-14.07l5.95-64 .74-8h35.59l.74 8z"/><path d="m834 522.86h78.46a6.63 6.63 0 0 0 6.63-6.63v-7.83h-91.73v7.83a6.63 6.63 0 0 0 6.64 6.63z"/><path d="m842.54 522.86h61.37v15.67a5.1 5.1 0 0 1 -5.1 5.1h-51.18a5.1 5.1 0 0 1 -5.09-5.1z"/></g><path d="m842.54 522.86h61.37v8.02h-61.37z" fill="#abb1ef"/><path d="m897.21 610.16a106.37 106.37 0 0 1 -14.94 3.76c-1.46-15.61-2.77-29.73-3.78-40.57a23.93 23.93 0 0 0 -23.82-21.71l.74-8h35.59l.74 8z" fill="#abb1ef"/><g fill="#bcbff6"><path d="m693.17 767.93a50.5 50.5 0 0 1 -9.27 29.24 51.08 51.08 0 0 1 -15.7 14.46h-51.47a50.71 50.71 0 0 1 -14.47-74.63 26.44 26.44 0 0 0 5.23-12.81c2.22-17.73 4.33-35.48 6-53.27l11.1-119.32.74-8h35.61l.74 8s10.78 115.82 16 172.15a26.89 26.89 0 0 0 5.32 13.72 50.46 50.46 0 0 1 10.17 30.46z"/><path d="m603.89 522.86h78.46a6.63 6.63 0 0 0 6.63-6.63v-7.83h-91.72v7.83a6.63 6.63 0 0 0 6.63 6.63z"/><path d="m612.43 522.86h61.37v15.67a5.1 5.1 0 0 1 -5.1 5.1h-51.17a5.1 5.1 0 0 1 -5.1-5.1z"/></g><path d="m612.43 522.86h61.37v8.02h-61.37z" fill="#abb1ef"/><path d="m701.09 804.51v7.12h-115.94v-7.12a7.34 7.34 0 0 1 7.33-7.34h101.28a7.34 7.34 0 0 1 7.33 7.34z" fill="#bcbff6"/><path d="m585.25 803.35c.4.62.81 1.24 1.24 1.84h-1.34v-.69a6.23 6.23 0 0 1 .1-1.15z" fill="#abb1ef"/><path d="m701.09 804.5v7.13h-37.16a51.32 51.32 0 0 0 5.42-6.44 50.71 50.71 0 0 0 -1.35-60.19 24 24 0 0 1 -4.85-12.46v-.09c-.32-3.52-.67-7.28-1-11.24-4-42.8-10.48-112.64-13.75-147.82a23.93 23.93 0 0 0 -23.82-21.71l.74-8h35.61l.74 8s10.78 115.82 16 172.15a26.89 26.89 0 0 0 5.33 13.64 50.72 50.72 0 0 1 .9 59.7h9.86a7.33 7.33 0 0 1 7.33 7.33z" fill="#abb1ef"/><g fill="#bcbff6"><path d="m463.07 767.93a50.5 50.5 0 0 1 -9.27 29.24 51.08 51.08 0 0 1 -15.7 14.46h-51.47a50.73 50.73 0 0 1 -14.48-74.63 26.24 26.24 0 0 0 5.23-12.81c2.23-17.73 4.33-35.48 6-53.27l11.1-119.32.74-8h35.61l.74 8s10.77 115.82 16 172.15a26.89 26.89 0 0 0 5.32 13.68 50.47 50.47 0 0 1 10.18 30.5z"/><path d="m373.78 522.86h78.46a6.63 6.63 0 0 0 6.63-6.63v-7.83h-91.72v7.83a6.63 6.63 0 0 0 6.63 6.63z"/><path d="m382.33 522.86h61.37v15.67a5.1 5.1 0 0 1 -5.1 5.1h-51.18a5.1 5.1 0 0 1 -5.09-5.1z"/></g><path d="m382.33 522.86h61.37v8.02h-61.37z" fill="#abb1ef"/><path d="m471 804.51v7.12h-115.95v-7.12a7.34 7.34 0 0 1 7.33-7.34h101.27a7.34 7.34 0 0 1 7.35 7.34z" fill="#bcbff6"/><path d="m355.15 803.35c.4.62.81 1.24 1.24 1.84h-1.34v-.69a6.23 6.23 0 0 1 .1-1.15z" fill="#abb1ef"/><path d="m471 804.5v7.13h-37.17a51.32 51.32 0 0 0 5.42-6.44 50.71 50.71 0 0 0 -1.31-60.19 24.1 24.1 0 0 1 -4.86-12.46v-.09c-.32-3.52-.67-7.28-1-11.24-4-42.8-10.49-112.64-13.76-147.82a23.92 23.92 0 0 0 -23.81-21.71l.74-8h35.61l.74 8s10.77 115.82 16 172.15a26.89 26.89 0 0 0 5.32 13.68 50.7 50.7 0 0 1 .91 59.7h9.86a7.34 7.34 0 0 1 7.31 7.29z" fill="#abb1ef"/><g fill="#bcbff6"><path d="m158.41 615.65 6-64 .74-8h35.61l.74 8s2.64 28.45 6 64z"/><path d="m233 767.93a50.43 50.43 0 0 1 -12.76 33.63 26.94 26.94 0 0 0 -3.51-4.39h-2.92c.29-.63.57-1.28.84-1.93a27.44 27.44 0 0 0 -17.65-6.35 66.6 66.6 0 0 1 -33.21-8.79c-1.22-.69-2.42-1.42-3.59-2.2a67.24 67.24 0 0 1 -10.39-8.4l-.29-.28a67.3 67.3 0 0 1 -11.2-14.84c-.41-.73-.8-1.46-1.18-2.21-.62-1.21-1.2-2.45-1.74-3.7a49.73 49.73 0 0 1 6.6-11.47 26.39 26.39 0 0 0 5.24-12.81c2.22-17.74 4.32-35.48 6-53.27v-.14a66.93 66.93 0 0 1 42.46-16.21h15.3c2.35 25.34 4.69 50.53 6.43 69.19a26.87 26.87 0 0 0 5.33 13.67 50.49 50.49 0 0 1 10.24 30.5z"/><path d="m143.68 522.86h78.46a6.63 6.63 0 0 0 6.63-6.63v-7.83h-91.72v7.83a6.63 6.63 0 0 0 6.63 6.63z"/><path d="m152.22 522.86h61.37v15.67a5.1 5.1 0 0 1 -5.1 5.1h-51.17a5.1 5.1 0 0 1 -5.1-5.1z"/></g><path d="m152.22 522.86h61.37v8.02h-61.37z" fill="#abb1ef"/><path d="m240.88 804.5v7.13h-16.75q-.12-.75-.3-1.5c-.05-.25-.11-.49-.18-.74s-.2-.73-.31-1.09-.26-.83-.41-1.23-.31-.83-.48-1.24c-.32-.75-.66-1.49-1-2.2a23.79 23.79 0 0 0 -1.21-2.07 26.94 26.94 0 0 0 -3.51-4.39h16.86a7.33 7.33 0 0 1 7.29 7.33z" fill="#bcbff6"/><g fill="#abb1ef"><path d="m207.4 615.65h-15.29c-1.52-16.3-2.89-31.06-3.94-42.3a23.92 23.92 0 0 0 -23.81-21.71l.74-8h35.61l.74 8s2.64 28.45 5.95 64.01z"/><path d="m240.88 804.5v7.13h-16.75q-.12-.75-.3-1.5c-.05-.25-.11-.49-.18-.74s-.2-.73-.31-1.09-.26-.83-.41-1.23-.31-.83-.48-1.24c-.32-.75-.66-1.49-1-2.2a23.79 23.79 0 0 0 -1.21-2.07 26.94 26.94 0 0 0 -3.51-4.39h-2.92c.29-.63.57-1.28.84-1.93a50.76 50.76 0 0 0 -6.82-50.24 24 24 0 0 1 -4.83-12.51v-.08c-.32-3.52-.67-7.28-1-11.24-1.75-18.73-4-42.64-6.2-66.56h15.2c2.35 25.34 4.69 50.53 6.43 69.19a26.87 26.87 0 0 0 5.33 13.67 50.74 50.74 0 0 1 .9 59.71h9.86a7.33 7.33 0 0 1 7.36 7.32z"/><path d="m875.6 347.42a37.52 37.52 0 0 1 37.52 37.52v20.47a0 0 0 0 1 0 0 37.52 37.52 0 0 1 -37.52-37.52v-20.47a0 0 0 0 1 0 0z" transform="matrix(.29187094 .95645771 -.95645771 .29187094 993.28 -588.88)"/></g><path d="m918.26 361a37.52 37.52 0 0 1 -18.93 32.56 37.48 37.48 0 0 0 7.41-35.39l-19.58 6a36.84 36.84 0 0 0 -7.62 3.29 37.29 37.29 0 0 1 17.46-11.46l19.58-6a37.66 37.66 0 0 1 1.68 11z" fill="#bcbff6"/><path d="m854.46 318a37.52 37.52 0 0 1 37.54 37.51v20.49a0 0 0 0 1 0 0 37.52 37.52 0 0 1 -37.52-37.52v-20.48a0 0 0 0 1 -.02 0z" fill="#bcbff6" transform="matrix(.88433665 .46684974 -.46684974 .88433665 262.93 -367.48)"/><path d="m890.18 345.8a37.16 37.16 0 0 1 -3.94 16.68c-.56-12.88-3.58-32.14-15.8-38.59-6.24 4.11-10.44 13.44-13.74 25.11-.14.27-.28.53-.4.8a37.43 37.43 0 0 1 4.31-19.13l9.56-18.1a37.52 37.52 0 0 1 20.01 33.23z" fill="#abb1ef"/><path d="m874.07 343.71a0 0 0 0 1 0 0v20.47a37.52 37.52 0 0 1 -37.52 37.52 0 0 0 0 1 0 0v-20.47a37.52 37.52 0 0 1 37.52-37.52z" fill="#abb1ef" transform="matrix(-.46684974 .88433665 -.88433665 -.46684974 1584.15 -209.74)"/><path d="m875.49 376.49a37.4 37.4 0 0 0 -14.6-13.75l-18.1-9.55a37.3 37.3 0 0 0 -3.29 26.31 37.5 37.5 0 0 1 -1.08-36.93l18.11 9.56a37.45 37.45 0 0 1 18.96 24.36z" fill="#bcbff6"/><path d="m837 472.16h72.41a6.47 6.47 0 0 1 6.47 6.47v8.27a0 0 0 0 1 0 0h-85.34a0 0 0 0 1 0 0v-8.27a6.47 6.47 0 0 1 6.46-6.47z" fill="#bcbff6"/><path d="m861.96 440.6h22.52v14.75h-22.52z" fill="#abb1ef"/><rect fill="#bcbff6" height="15.79" rx="7.9" width="85.35" x="830.54" y="429.6"/><path d="m930.19 398.58-9.61 14.49a15.79 15.79 0 0 1 -13.16 7.06h-1.42a15.79 15.79 0 0 0 -15.8 15.79h-31.58a15.79 15.79 0 0 0 -15.79-15.79h-3.83a15.8 15.8 0 0 1 -13.16-7.06l-9.61-14.49a8.1 8.1 0 0 1 6.77-12.58h100.44a8.1 8.1 0 0 1 6.75 12.58z" fill="#bcbff6"/><path d="m930.2 398.58-9.62 14.48a15.78 15.78 0 0 1 -13.16 7.07h-1.42a15.79 15.79 0 0 0 -14.47 9.47h16.2a8.08 8.08 0 0 1 8.15 7.29 7.89 7.89 0 0 1 -7.86 8.5h-24.08a7.9 7.9 0 0 0 7.9-7.9 1.52 1.52 0 0 0 -1.64-1.57h-18.55a4.54 4.54 0 0 1 -4.23-6.26v-.06a15.79 15.79 0 0 1 14.47-9.47h1.44a15.81 15.81 0 0 0 13.16-7.07l9.61-14.48a8.1 8.1 0 0 0 -6.72-12.58h24.07a8.1 8.1 0 0 1 6.75 12.58z" fill="#abb1ef"/><g fill="#bcbff6"><path d="m833.24 429.6h5.2a7.82 7.82 0 0 0 -4.63 1.51 13.75 13.75 0 0 0 -.57-1.51z"/><path d="m833.24 429.6h5.2a7.82 7.82 0 0 0 -4.63 1.51 13.75 13.75 0 0 0 -.57-1.51z"/><path d="m866.19 450.67h14.07a21.49 21.49 0 0 1 21.49 21.49 0 0 0 0 1 0 0h-57a0 0 0 0 1 0 0 21.49 21.49 0 0 1 21.44-21.49z"/><path d="m837 472.16h72.41a6.47 6.47 0 0 1 6.47 6.47v8.27a0 0 0 0 1 0 0h-85.34a0 0 0 0 1 0 0v-8.27a6.47 6.47 0 0 1 6.46-6.47z"/><path d="m866.19 450.67h14.07a21.49 21.49 0 0 1 21.49 21.49 0 0 0 0 1 0 0h-57a0 0 0 0 1 0 0 21.49 21.49 0 0 1 21.44-21.49z"/></g><path d="m915.9 478.63v8.27h-14.15v-8.27a6.48 6.48 0 0 0 -6.48-6.48h-7.68a21.48 21.48 0 0 0 -21.4-21.48h14.07a21.48 21.48 0 0 1 21.49 21.48h7.68a6.48 6.48 0 0 1 6.47 6.48z" fill="#abb1ef"/><path d="m185.28 347.42a37.52 37.52 0 0 1 37.52 37.52v20.47a0 0 0 0 1 0 0 37.52 37.52 0 0 1 -37.52-37.52v-20.47a0 0 0 0 1 0 0z" fill="#abb1ef" transform="matrix(.29187094 .95645771 -.95645771 .29187094 504.49 71.37)"/><path d="m227.94 361a37.52 37.52 0 0 1 -18.94 32.53 37.48 37.48 0 0 0 7.41-35.39l-19.58 6a36.84 36.84 0 0 0 -7.62 3.29 37.29 37.29 0 0 1 17.51-11.43l19.58-6a37.66 37.66 0 0 1 1.64 11z" fill="#bcbff6"/><path d="m164.14 318a37.52 37.52 0 0 1 37.52 37.52v20.48a0 0 0 0 1 0 0 37.52 37.52 0 0 1 -37.52-37.52v-20.48a0 0 0 0 1 0 0z" fill="#bcbff6" transform="matrix(.88433665 .46684974 -.46684974 .88433665 183.11 -45.26)"/><path d="m199.86 345.8a37.16 37.16 0 0 1 -3.94 16.68c-.56-12.88-3.58-32.14-15.8-38.59-6.23 4.06-10.43 13.44-13.74 25.12-.14.27-.28.53-.4.8a37.43 37.43 0 0 1 4.31-19.13l9.56-18.1a37.52 37.52 0 0 1 20.01 33.22z" fill="#abb1ef"/><path d="m183.75 343.71a0 0 0 0 1 0 0v20.47a37.52 37.52 0 0 1 -37.52 37.52 0 0 0 0 1 0 0v-20.47a37.52 37.52 0 0 1 37.52-37.52z" fill="#abb1ef" transform="matrix(-.46684974 .88433665 -.88433665 -.46684974 571.62 400.76)"/><path d="m185.17 376.49a37.4 37.4 0 0 0 -14.6-13.75l-18.1-9.55a37.3 37.3 0 0 0 -3.29 26.31 37.5 37.5 0 0 1 -1.08-36.93l18.11 9.56a37.45 37.45 0 0 1 18.96 24.36z" fill="#bcbff6"/><path d="m146.7 472.16h72.41a6.47 6.47 0 0 1 6.47 6.47v8.27a0 0 0 0 1 0 0h-85.35a0 0 0 0 1 0 0v-8.27a6.47 6.47 0 0 1 6.47-6.47z" fill="#bcbff6"/><path d="m171.65 440.6h22.52v14.75h-22.52z" fill="#abb1ef"/><rect fill="#bcbff6" height="15.79" rx="7.9" width="85.35" x="140.23" y="429.6"/><path d="m239.88 398.58-9.61 14.49a15.8 15.8 0 0 1 -13.16 7.06h-1.44a15.79 15.79 0 0 0 -15.79 15.79h-31.57a15.79 15.79 0 0 0 -15.8-15.79h-3.8a15.77 15.77 0 0 1 -13.16-7.06l-9.62-14.49a8.1 8.1 0 0 1 6.75-12.58h100.45a8.1 8.1 0 0 1 6.75 12.58z" fill="#bcbff6"/><path d="m239.88 398.58-9.62 14.48a15.78 15.78 0 0 1 -13.16 7.07h-1.43a15.79 15.79 0 0 0 -14.47 9.47h16.21a8.08 8.08 0 0 1 8.15 7.29 7.91 7.91 0 0 1 -7.87 8.5h-24.07a7.9 7.9 0 0 0 7.9-7.9 1.52 1.52 0 0 0 -1.64-1.57h-18.55a4.53 4.53 0 0 1 -4.22-6.26v-.06a15.79 15.79 0 0 1 14.47-9.47h1.42a15.81 15.81 0 0 0 13.16-7.07l9.61-14.48a8.1 8.1 0 0 0 -6.71-12.58h24.07a8.1 8.1 0 0 1 6.75 12.58z" fill="#abb1ef"/><g fill="#bcbff6"><path d="m142.92 429.6h5.2a7.82 7.82 0 0 0 -4.63 1.51 13.75 13.75 0 0 0 -.57-1.51z"/><path d="m142.92 429.6h5.2a7.82 7.82 0 0 0 -4.63 1.51 13.75 13.75 0 0 0 -.57-1.51z"/><path d="m175.87 450.67h14.07a21.49 21.49 0 0 1 21.49 21.49 0 0 0 0 1 0 0h-57a0 0 0 0 1 0 0 21.49 21.49 0 0 1 21.44-21.49z"/><path d="m146.7 472.16h72.41a6.47 6.47 0 0 1 6.47 6.47v8.27a0 0 0 0 1 0 0h-85.35a0 0 0 0 1 0 0v-8.27a6.47 6.47 0 0 1 6.47-6.47z"/><path d="m175.87 450.67h14.07a21.49 21.49 0 0 1 21.49 21.49 0 0 0 0 1 0 0h-57a0 0 0 0 1 0 0 21.49 21.49 0 0 1 21.44-21.49z"/></g><path d="m225.58 478.63v8.27h-14.15v-8.27a6.48 6.48 0 0 0 -6.48-6.48h-7.68a21.48 21.48 0 0 0 -21.4-21.48h14.07a21.48 21.48 0 0 1 21.49 21.48h7.68a6.48 6.48 0 0 1 6.47 6.48z" fill="#abb1ef"/><path d="m755.29 811.63a54.34 54.34 0 0 0 -8.29 17.23c-.05.16-.1.33-.14.49-.2.73-.38 1.47-.55 2.21a55.19 55.19 0 0 0 -1.36 12.21v19.82h-520.39v-47.17a26.18 26.18 0 0 0 -.43-4.79z" fill="#abb1ef"/><path d="m501 204a118.64 118.64 0 0 1 -235.42 21h141.88a37 37 0 0 0 14.19-2.85 36.51 36.51 0 0 0 8.49-5 35.82 35.82 0 0 0 6.94-7.24 36.31 36.31 0 0 0 6.92-21.15 37.22 37.22 0 0 1 22.46-34.08 36 36 0 0 1 14-2.83h8.35a118.06 118.06 0 0 1 12.19 52.15z" fill="#f8faff"/><path d="m368.75 678.63-26.26 174.35h46l26.26-174.35z" fill="#f9a0b4"/><path d="m368.75 678.63-8.14 54.1h45.99l8.15-54.1z" fill="#f490aa"/><path d="m367 836h34.69a19.09 19.09 0 0 1 19.09 19.09 0 0 0 0 1 0 0h-53.78a0 0 0 0 1 0 0v-19.09a0 0 0 0 1 0 0z" fill="#f9a0b4"/><g fill="#104799"><path d="m430.85 855.84a9.4 9.4 0 0 1 -9.44 9.36l-23.74-.1-54-.24a6.37 6.37 0 0 1 -5.54-3.24 6.47 6.47 0 0 1 -.83-3.18 6.4 6.4 0 0 1 5.93-6.35l52.95-3.87 24.57-1.79a9.39 9.39 0 0 1 10.1 9.41z"/><rect height="23.95" rx="4.21" width="8.42" x="394.78" y="831.85"/><path d="m361.7 856.81h-19.51l5.63-39.43a14.72 14.72 0 0 1 14.71 15.22z"/><rect height="11.15" rx="5.57" width="47.67" x="348.66" y="821.98"/><path d="m455.67 434.1-43.13 250.32-3.78 22h-66a5.31 5.31 0 0 1 -5.23-6.21l2.7-15.76 42.52-250.35z"/></g><g fill="#f9a0b4"><rect height="32.8" rx="7.81" transform="matrix(-.13294836 .99112297 -.99112297 -.13294836 895.68 -42.68)" width="15.62" x="458.7" y="354.06"/><rect height="40.79" rx="7.81" transform="matrix(-.92757563 .37363544 -.37363544 -.92757563 1071.42 594.77)" width="15.62" x="470.25" y="380.85"/><path d="m379.9 370.34a22.78 22.78 0 0 1 -12.9-37.71l15.53-17.12 1.36-1.5 34.11-37.58a22.76 22.76 0 0 1 33.73 30.57l-4.52 5-26.69 29.43-2.08 2.29-17.7 19.51a22.7 22.7 0 0 1 -20.84 7.11z"/><path d="m381.5 325.54a22.77 22.77 0 0 0 -16.5 34.86l.5.74c.17.25.33.47.51.7a1.78 1.78 0 0 0 .21.27l.36.46c.3.36.61.73.93 1.06s.46.49.7.73a23.1 23.1 0 0 0 2.36 2c.22.17.45.34.69.49s.49.34.74.5c.54.34 1.11.67 1.68 1l60.55 31.53 6.77 3.52a25.86 25.86 0 0 0 2.41 1.09 22.76 22.76 0 0 0 18.59-41.49l-67.32-35a22.69 22.69 0 0 0 -13.18-2.46z"/><ellipse cx="456.94" cy="392.15" rx="24.09" ry="30.55" transform="matrix(.9763715 -.21609881 .21609881 .9763715 -73.95 108.02)"/></g><path d="m441.54 233.46-.12 7.39-.27 15.93a12.83 12.83 0 0 0 25.66.44v-1.67l.36-21.65a12.8 12.8 0 0 0 -8-12.11 12.66 12.66 0 0 0 -2.45-.73 12.85 12.85 0 0 0 -15.18 12.4z" fill="#ffb2bf"/><path d="m422.75 175.17-2.53 25.18c-2.16 21.39 14.78 40.76 37.78 43.26 17.75 1.93 33.49-9.9 35.16-26.41l2.13-21.13v-.39c.06-.58.1-1.15.12-1.73.94-21.13-15.92-39.87-38.69-42.63l-.59-.07-1.36-.14a31.66 31.66 0 0 0 -5.58-.12c-13.76.94-25.1 10.89-26.44 24.18z" fill="#ffb2bf"/><path d="m455 149.41a36.16 36.16 0 0 1 36.16 36.16v26.85a37 37 0 0 1 -37 37 35.37 35.37 0 0 1 -35.3-35.42v-28.43a36.16 36.16 0 0 1 36.14-36.16z" fill="#fed4be" transform="matrix(-.99938472 -.03507392 .03507392 -.99938472 902.77 414.6)"/><path d="m501.06 238.48a18.17 18.17 0 0 1 -18.18 18.18 18 18 0 0 1 -9.65-2.78 18.18 18.18 0 0 0 14-33 18.18 18.18 0 0 1 13.83 17.6z" fill="#51aff4"/><path d="m428.03 684.42-14.53 168.56h46l14.52-168.56z" fill="#ffb2bf"/><path d="m428.03 684.42-4.17 48.31h46l4.16-48.31z" fill="#f9a0b4"/><path d="m437.8 836h34.7a19.09 19.09 0 0 1 19.09 19.09 0 0 0 0 1 0 0h-53.79a0 0 0 0 1 0 0v-19.09a0 0 0 0 1 0 0z" fill="#ffb2bf"/><g fill="#1455af"><path d="m501.67 855.84a9.41 9.41 0 0 1 -9.45 9.36l-23.73-.1-54-.24a6.35 6.35 0 0 1 -5.53-3.24 6.26 6.26 0 0 1 -.83-3.18 6.38 6.38 0 0 1 5.93-6.35l52.94-3.87 24.56-1.79a9.38 9.38 0 0 1 10.11 9.41z"/><rect height="23.95" rx="4.21" width="8.42" x="465.6" y="831.85"/><path d="m432.53 856.81h-19.53l3.44-39.43h1.05a15.82 15.82 0 0 1 15.8 16.36z"/><rect height="11.15" rx="5.57" width="47.67" x="419.49" y="821.98"/></g><g fill="#104799"><path d="m508.09 704.12-106.23 2.28 18.29-209.25.31-6 4.31-81.79h72.33c1.71 27.33 16.63 237 20 284.83a9.26 9.26 0 0 1 -9.01 9.93z"/><path d="m414.61 324.12v60.11c0 22.5 18.45 40.72 41.19 40.72a41.27 41.27 0 0 0 29.13-11.95 40.39 40.39 0 0 0 12.07-28.77v-60.11z"/><path d="m511.89 314-.09 2.1c-.59 15.51-13 27.73-27.6 27.31l-56.92-1.62c-14.66-.4-26-13.31-25.46-28.81l.09-2.12a60.55 60.55 0 0 1 11.15-33 56.91 56.91 0 0 1 6.53-7.69c.9-.91 1.84-1.78 2.81-2.62a53.48 53.48 0 0 1 6.46-4.83l.41-.25c.22-.16.48-.3.72-.45 0 0 .07-.05.1-.06.81-.49 1.62-.94 2.44-1.41a56.13 56.13 0 0 1 6.71-3 52.25 52.25 0 0 1 37.76.45c.92.36 1.81.75 2.7 1.17h.05a51.15 51.15 0 0 1 7 4c.23.18.48.33.69.49.91.61 1.77 1.26 2.61 1.92a58 58 0 0 1 4.64 4.11 56.29 56.29 0 0 1 9.37 12.13 60.23 60.23 0 0 1 7.83 32.18z"/><path d="m511.89 314-.09 2.1c-.59 15.51-13 27.73-27.6 27.31l-56.92-1.62c-14.66-.4-26-13.31-25.46-28.81l.09-2.12a60.55 60.55 0 0 1 11.15-33 56.91 56.91 0 0 1 6.53-7.69c.9-.91 1.84-1.78 2.81-2.62a53.48 53.48 0 0 1 6.46-4.83l.41-.25c.22-.16.48-.3.72-.45 0 0 .07-.05.1-.06.81-.49 1.62-.94 2.44-1.41a56.13 56.13 0 0 1 6.71-3 52.25 52.25 0 0 1 37.76.45c.92.36 1.81.75 2.7 1.17h.05a51.15 51.15 0 0 1 7 4c.23.18.48.33.69.49.91.61 1.77 1.26 2.61 1.92a58 58 0 0 1 4.64 4.11 56.29 56.29 0 0 1 9.37 12.13 60.23 60.23 0 0 1 7.83 32.18z"/><path d="m497.1 379v35.56a82.69 82.69 0 0 1 -76.6 82.63l.3-6a41.87 41.87 0 0 1 -6.19-1.68v-110.51z"/><path d="m478.06 444a48.16 48.16 0 0 1 -48.16 48.16 47.37 47.37 0 0 1 -9.44-.94 42.25 42.25 0 0 1 -6.22-1.68 48.15 48.15 0 1 1 63.82-45.54z"/></g><path d="m413 398.87a48.11 48.11 0 0 0 -18 28.42l-.58 3.43a.31.31 0 0 0 0 .09c-.16 1.09-.26 2.18-.32 3.28h-.25l-5.74 33.82-35.62 209.7-6.16 28.77h-3.6a5.31 5.31 0 0 1 -5.24-6.21l2.71-15.76 41.86-246.33a.41.41 0 0 0 0-.11 48.21 48.21 0 0 1 30.94-39.1z" fill="#1455af"/><g fill="#104799"><path d="m459.22 482.15c-.28.21-.54.42-.82.62l.05-.34c.26-.08.55-.18.77-.28z"/><path d="m393.87 434.1.57-3.28c-.16 1.09-.26 2.18-.32 3.28z"/><path d="m395 427.3-.58 3.43c.18-1.16.36-2.3.58-3.43z"/></g><rect fill="#ffb2bf" height="35.22" rx="7.81" transform="matrix(.74860867 .66301211 -.66301211 .74860867 339.34 -297.93)" width="15.62" x="554.69" y="280.85"/><path d="m560.79 242.56h34.46a1.76 1.76 0 0 1 1.76 1.76v11.68a19 19 0 0 1 -19 19 19 19 0 0 1 -19-19v-11.7a1.76 1.76 0 0 1 1.78-1.74z" fill="#c4c8f2"/><path d="m593.51 245.56v11a15.49 15.49 0 0 1 -15.51 15.44 15.49 15.49 0 0 1 -15.48-15.49v-2.19c5.62 11.12 17.69 8.9 19.81 0 2.06-8.69 10.71-8.79 11.16-8.79z" fill="#e03f41"/><path d="m577.52 272a2.5 2.5 0 0 1 2.5 2.5v40.5a0 0 0 0 1 0 0h-5a0 0 0 0 1 0 0v-40.47a2.5 2.5 0 0 1 2.5-2.53z" fill="#c4c8f2"/><rect fill="#c4c8f2" height="4.26" rx="2.13" width="30.74" x="562.15" y="315.05"/><g fill="#ffb2bf"><rect height="36.32" rx="7.81" transform="matrix(.25 .97 -.97 .25 723.36 -343.37)" width="15.62" x="576.2" y="278.51"/><path d="m516.19 372.73a22.78 22.78 0 0 1 -39-8.27l-6.74-22.1-.59-1.94-14.81-48.54a22.76 22.76 0 0 1 43.54-13.29l2 6.43 11.59 38 .9 3 7.69 25.2a22.74 22.74 0 0 1 -4.58 21.51z"/><path d="m478.55 348.39a22.77 22.77 0 0 0 21.45 32.07h.89c.3 0 .58 0 .86-.08a2.09 2.09 0 0 0 .35 0l.58-.07c.46-.07.93-.15 1.38-.26s.66-.14 1-.23a22.79 22.79 0 0 0 3-1c.26-.11.52-.22.78-.35a8.34 8.34 0 0 0 .8-.38c.57-.29 1.14-.6 1.69-.94l58.11-35.84 6.49-4a26.12 26.12 0 0 0 2.17-1.51 22.77 22.77 0 0 0 -26.1-37.31l-64.6 39.83a22.56 22.56 0 0 0 -8.85 10.07z"/><ellipse cx="576.2" cy="316.55" rx="30.55" ry="25.31" transform="matrix(.99591597 -.09028495 .09028495 .99591597 -26.25 53.37)"/></g><ellipse cx="576.32" cy="317.77" fill="#fdc3cd" rx="12.04" ry="9.49" transform="matrix(.99591597 -.09028495 .09028495 .99591597 -26.36 53.38)"/><path d="m498.27 377.82.89-.05c.3 0 .58 0 .86-.07h.35l.58-.08c.46-.07.93-.15 1.39-.25l1-.23a22.85 22.85 0 0 0 3-1c.26-.1.52-.21.78-.34l.8-.38c.57-.29 1.14-.61 1.69-.95l55.75-34.38 2.24-1.38a35.22 35.22 0 0 0 4.53.9c13.55 1.83 26.84-7.88 30.41-18.66 1.93-5.83.33-15.78-2.89-21.33 7.45 7.43 8.3 16.05 6 22.83-4 12-21.16 22.88-36.38 18.9l-58 35.76c-.55.34-1.12.66-1.69.94-.27.14-.53.27-.8.39s-.52.24-.79.34a22.71 22.71 0 0 1 -2.95 1l-1 .23c-.45.1-.92.18-1.39.25l-.58.08h-.34c-.28 0-.56.06-.86.07h-.89a22.77 22.77 0 0 1 -20.06-10.82c-.15-.25-.31-.51-.45-.78a22.78 22.78 0 0 0 18.8 9.01z" fill="#f9a0b4"/><circle cx="484.58" cy="175.81" fill="#fed4be" r="18.79"/><circle cx="472.97" cy="167.37" fill="#fed4be" r="18.79"/><path d="m503.37 175.81a18.77 18.77 0 0 0 -14.37-18.26 18.8 18.8 0 0 0 -34.12 4.73 18.8 18.8 0 0 1 28.27-5.2 19.25 19.25 0 0 1 4.1 4.7 17.74 17.74 0 0 1 4 1.49 18.74 18.74 0 0 1 9.61 21.85 18.6 18.6 0 0 0 2.51-9.31z" fill="#ffe5d6"/><ellipse cx="451.72" cy="214.35" fill="#fed4be" rx="36.46" ry="40.24" transform="matrix(.65855813 -.75252986 .75252986 .65855813 -7.07 413.12)"/><path d="m409.37 159.29h30.78a47 47 0 0 1 47 47v66a60.3 60.3 0 0 1 -60.3 60.3 17.48 17.48 0 0 1 -17.48-17.48v-155.82a0 0 0 0 1 0 0z" fill="#fed4be"/><circle cx="447.41" cy="173.34" fill="#51aff4" r="22.05"/><circle cx="427.09" cy="159.29" fill="#24364f" r="40.12"/><circle cx="427.09" cy="159.29" fill="#fed4be" r="40.12"/><path d="m460.59 137.23a40.11 40.11 0 0 0 -60 52.17 40.11 40.11 0 1 1 60-52.17z" fill="#f7c4ad"/><rect fill="#d2d6fa" height="17.61" rx="8.8" width="74.06" x="918.47" y="863.22"/></svg>