<svg viewBox="0 0 1000 1000" xmlns="http://www.w3.org/2000/svg"><path d="m972.14 608.62v10.38a132.51 132.51 0 0 1 -63.93 113.34 127.76 127.76 0 0 1 -11.83 6.35c-.7.34-1.41.67-2.12 1a128.46 128.46 0 0 1 -15 5.71l-1.39.42a132.46 132.46 0 0 1 -38.16 5.59h-53.71a27.32 27.32 0 0 0 -27.31 27.32 101.91 101.91 0 0 1 -101.87 101.93h-252.94a101.91 101.91 0 0 1 -101.88-101.91 27.26 27.26 0 0 0 -17.36-25.43c-.77-.3-1.55-.57-2.35-.81a27.18 27.18 0 0 0 -3-.68 24.8 24.8 0 0 0 -3.68-.38h-.93-90.38c-1.43 0-2.84 0-4.26-.06q-4.95-.15-9.79-.65a136.15 136.15 0 0 1 -22.34-4.16c-1.13-.31-2.26-.63-3.38-1a135.2 135.2 0 0 1 -19.4-7.51l-1-.49a137.24 137.24 0 0 1 -28.38-18.46q-4.53-3.81-8.71-8a137.85 137.85 0 0 1 -37.15-126.7 133.5 133.5 0 0 1 4.59-16.2 136.31 136.31 0 0 1 13.82-28.38 138.24 138.24 0 0 1 33.78-36.34 136.8 136.8 0 0 1 42.48-21.45c1.12-.34 2.25-.66 3.38-1a137.34 137.34 0 0 1 36.39-4.87h106.02a35.7 35.7 0 0 0 7.29-.75l.29-.06a35.66 35.66 0 0 0 17.71-9.66 33.77 33.77 0 0 0 2.75-3.11v-.05a34.47 34.47 0 0 0 2.74-4 35.75 35.75 0 0 0 -30.85-53.83h-178.81a83.6 83.6 0 0 1 -59.11-142.72l.62-.61.26-.25a83.42 83.42 0 0 1 58.23-23.63 69.19 69.19 0 0 0 46.53-17.95c1.07-1 2.1-2 3.11-3a69 69 0 0 0 19.53-43.82c.1-1.5.15-3 .15-4.54a97.92 97.92 0 0 1 97.92-97.92h516a83.62 83.62 0 0 1 80.09 59.56 84.59 84.59 0 0 1 3.52 24c0 2.9-.15 5.76-.43 8.58a84.6 84.6 0 0 1 -1.7 10.27 83.64 83.64 0 0 1 -81.48 64.75h-18a48.26 48.26 0 0 0 -17.39 3.21 47 47 0 0 0 -5.89 2.72 49 49 0 0 0 -18.56 18c-.6 1-1.17 2.07-1.7 3.14a48.22 48.22 0 0 0 -5 21.57v.29c0 1.5.09 3 .23 4.44a48.09 48.09 0 0 0 5 17.13c.39.77.8 1.53 1.23 2.27.55.95 1.13 1.89 1.74 2.8a48.49 48.49 0 0 0 40.44 21.66c.82 0 1.62 0 2.43.05h.22a63.28 63.28 0 0 1 26.12 6.88q.93.48 1.83 1a60.3 60.3 0 0 1 5.31 3.3 63.53 63.53 0 0 1 22.28 27.71c0 .11.09.21.13.32a61.62 61.62 0 0 1 3.82 13.62 62.82 62.82 0 0 1 .82 10.15v43a41.35 41.35 0 0 0 .28 4.87 43.94 43.94 0 0 0 31 37.23l.27.08a190 190 0 0 1 23 8.54l2.12 1c3.92 1.82 7.88 3.84 11.83 6.08a136.11 136.11 0 0 1 31 23.69 115.24 115.24 0 0 1 11.6 14.05c.84 1.19 1.65 2.4 2.45 3.63a112.89 112.89 0 0 1 13.13 28.38 137.49 137.49 0 0 1 5.69 40.37z" fill="#f3f4fe"/><g fill="#d9dcfb"><path d="m408.19 457.4a110 110 0 0 1 1.47-17.9 67.66 67.66 0 1 1 95.9-90.42 110.44 110.44 0 0 1 11.56-.61 108.93 108.93 0 1 1 -108.93 108.93z"/><path d="m587.29 300.93a67.68 67.68 0 1 1 -37.65-102 80.29 80.29 0 1 1 37.65 102z"/><path d="m443.45 627a80.27 80.27 0 0 1 -129.09 63.73 51.78 51.78 0 0 1 -46.58 31.11 79.61 79.61 0 0 1 7.8 29.65h-.93-90.35c-1.43 0-2.84 0-4.26-.06q-4.95-.15-9.79-.65a136.15 136.15 0 0 1 -22.34-4.16c-1.13-.31-2.26-.63-3.38-1a135.2 135.2 0 0 1 -19.4-7.51l-1-.49a137.24 137.24 0 0 1 -28.38-18.46q-4.53-3.81-8.71-8a137.85 137.85 0 0 1 -37.15-126.7 134.38 134.38 0 0 1 66.29 66.19 80.21 80.21 0 0 1 99.52 11.47 51.82 51.82 0 0 1 67.47-41.23 80.26 80.26 0 0 1 80-74.18c1.93 0 3.84.07 5.74.2a80.28 80.28 0 0 1 74.54 80.09z"/></g><path d="m972.14 608.62v10.38a132.51 132.51 0 0 1 -63.93 113.34 127.76 127.76 0 0 1 -11.83 6.35c-.7.34-1.41.67-2.12 1a128.46 128.46 0 0 1 -15 5.71l-1.39.42a132.46 132.46 0 0 1 -38.16 5.59h-53.71a27.32 27.32 0 0 0 -27.31 27.32 101.91 101.91 0 0 1 -101.87 101.93h-252.94a101.91 101.91 0 0 1 -101.88-101.91 27.26 27.26 0 0 0 -17.36-25.43c-.77-.3-1.55-.57-2.35-.81a27.18 27.18 0 0 0 -3-.68 24.8 24.8 0 0 0 -3.68-.38h-.93-77a94.27 94.27 0 0 1 109.61-54.45 70.9 70.9 0 0 1 59-78.87 123.76 123.76 0 0 1 113.8-154.78 66 66 0 0 1 -.81-9.81 64.65 64.65 0 0 1 2.39-17.24 106.13 106.13 0 0 1 -16.16-190.71 106.2 106.2 0 0 1 88.49-8.84 105.28 105.28 0 0 1 169.26 75.84q2.44-.24 5-.24a48.49 48.49 0 0 1 40.37 21.65 47.73 47.73 0 0 1 4.61 8.68 133.15 133.15 0 0 1 12.4-7.37 62.22 62.22 0 0 1 19.85 6.3q.93.48 1.83 1a60.3 60.3 0 0 1 5.31 3.3 63.53 63.53 0 0 1 22.37 27.7c0 .11.09.21.13.32a61.62 61.62 0 0 1 3.82 13.62 62.82 62.82 0 0 1 .82 10.15v43a41.35 41.35 0 0 0 .28 4.87 43.94 43.94 0 0 0 31 37.23l.27.08a190 190 0 0 1 23 8.54l2.12 1c3.92 1.82 7.88 3.84 11.83 6.08a136.11 136.11 0 0 1 31 23.69 115.24 115.24 0 0 1 11.6 14.05c.84 1.19 1.65 2.4 2.45 3.63a112.89 112.89 0 0 1 13.13 28.38 137.49 137.49 0 0 1 5.69 40.37z" fill="#edeefe"/><path d="m444.78 372.14a84.63 84.63 0 0 0 56.22 50.07 84.8 84.8 0 0 1 66.6-154.16 84.79 84.79 0 0 0 -122.82 104.09z" fill="#fff" opacity=".36"/><path d="m826.24 358.75a86.47 86.47 0 0 0 -62.47 69.46 86.55 86.55 0 0 1 43.55-85.6 60.3 60.3 0 0 1 5.31 3.3 62.85 62.85 0 0 1 13.61 12.84z" fill="#fff" opacity=".36"/><path d="m631.29 599.17-96.36 6.23v-23.07l96.36-6.24z" fill="#adb6e0"/><path d="m631.29 576.09-153-45.9-76.21 11.13 132.85 41.01z" fill="#b4c1ef"/><path d="m534.93 605.4-128.99-38.65-3.86-25.43 132.85 41.01z" fill="#9eacdd"/><rect fill="#f5a491" height="16" rx="8" transform="matrix(.92367903 .38316712 -.38316712 .92367903 154.83 -129.73)" width="45.37" x="380.41" y="315.84"/><path d="m527.71 411.47-49.61 31.21-21.73 13.67a25.29 25.29 0 1 1 -26.92-42.82l71.35-44.87a25.28 25.28 0 1 1 26.91 42.81z" fill="#f5a491"/><path d="m533.15 406.87c.06-.08.14-.15.2-.23.46-.52.88-1.06 1.28-1.61l.21-.28c.39-.55.76-1.11 1.1-1.68l.19-.33c.33-.57.64-1.15.92-1.75a3.78 3.78 0 0 0 .17-.35c.27-.59.52-1.2.75-1.81l.13-.36c.22-.62.41-1.25.58-1.89l.09-.34c.16-.65.3-1.31.42-2 0-.1 0-.2 0-.3.11-.68.19-1.36.24-2.05 0-.08 0-.15 0-.23 0-.72.06-1.43 0-2.15 0 0 0-.08 0-.13a25.28 25.28 0 0 0 -15.31-22.58 59.76 59.76 0 0 0 -38.83 22.06c-.06.06-.1.13-.16.2a59.35 59.35 0 0 0 -12.56 31.78l-.18 2.16a28.74 28.74 0 0 0 0 4.73 21.2 21.2 0 0 1 -9.75 19.67l-8.05 5.06a25.3 25.3 0 0 1 -34.88-7.95c-.29-.46-.57-.93-.82-1.42a24.52 24.52 0 0 0 2.52 5.28 25.31 25.31 0 0 0 34.87 8l21.73-13.67 49.61-31.21c.68-.43 1.33-.89 2-1.37l.11-.08c.6-.46 1.16-.95 1.71-1.45l.18-.17c.56-.51 1.06-1.02 1.53-1.55z" fill="#ea8681"/><path d="m466.92 441.87a25.3 25.3 0 0 1 -41.33 11.34c-.24-.22-.47-.45-.71-.69s-.45-.45-.67-.69a3.45 3.45 0 0 1 -.26-.28l-.43-.49c-.34-.39-.68-.8-1-1.22s-.44-.6-.66-.9a25.1 25.1 0 0 1 -1.76-3c-.15-.28-.28-.56-.41-.85s-.27-.6-.39-.91c-.27-.65-.52-1.33-.74-2l-22.75-72.34-2.55-8.07q-.43-1.42-.72-2.85a25.29 25.29 0 0 1 49-12.33l25.29 80.41a25.14 25.14 0 0 1 .09 14.87z" fill="#f5a491"/><ellipse cx="408.69" cy="346.46" fill="#f5a491" rx="26.75" ry="33.93" transform="matrix(.38316712 -.92367903 .92367903 .38316712 -67.91 591.22)"/><path d="m429 452.25c-.24-.22-.47-.45-.71-.69s-.45-.45-.67-.68-.18-.19-.26-.29l-.43-.48c-.34-.4-.68-.81-1-1.22s-.44-.6-.66-.91a25.79 25.79 0 0 1 -1.76-3c-.15-.28-.28-.57-.41-.86s-.27-.6-.39-.9c-.27-.66-.52-1.34-.74-2l-21.83-69.39-.88-2.79a38.74 38.74 0 0 1 -4.46-2.54c-12.71-8.32-18.9-22.35-14.07-34 2.62-6.3 8-10.81 14.73-13.13-8.29 1.86-15.05 6.76-18.09 14.09-5.38 13 2.86 28.83 18.52 36.55l22.71 72.17c.22.69.47 1.37.74 2 .12.3.25.61.39.9s.26.58.41.86a25.79 25.79 0 0 0 1.76 3c.22.31.43.61.66.91s.64.82 1 1.22l.43.48a2.43 2.43 0 0 0 .26.29c.22.23.43.46.67.69l.71.69a25.31 25.31 0 0 0 24.71 5.49c.32-.1.64-.2.95-.33a25.32 25.32 0 0 1 -22.29-6.13z" fill="#ffc4af"/><path d="m400.99 526.66v-455.16" fill="none" stroke="#adb6e0" stroke-miterlimit="10" stroke-width="8"/><rect fill="#f5a491" height="22.06" rx="11.03" transform="matrix(.99250355 .1222158 -.1222158 .99250355 43.45 -45.17)" width="40.53" x="369.55" y="320.51"/><rect fill="#f5a491" height="22.06" rx="11.03" transform="matrix(.99250355 .1222158 -.1222158 .99250355 45.43 -44.8)" width="40.53" x="367.54" y="336.81"/><path d="m406.7 897.91a23.06 23.06 0 0 1 -20.47-20.33l-10-88.33a18.86 18.86 0 0 1 20.77-20.88l25.3 2.68a35.23 35.23 0 0 1 29.39 47.07l-20.59 63.94a23.05 23.05 0 0 1 -24.4 15.85z" fill="#ea8681"/><path d="m454.76 818.67-20.6 63.92a23 23 0 0 1 -24.37 15.86 22.71 22.71 0 0 1 -2.79-.45 23.05 23.05 0 0 0 16.69-15.39l20.6-63.92a35.24 35.24 0 0 0 -29.39-47.07l-21.32-2.27a18.82 18.82 0 0 1 6.48-.42l25.29 2.69a35.23 35.23 0 0 1 29.41 47.05z" fill="#efd6d8"/><path d="m462.16 818.87-20.6 64.18a23 23 0 0 1 -24.37 15.95 21 21 0 0 1 -2.78-.48 23.06 23.06 0 0 0 16.69-15.44l20.6-64.18a35.38 35.38 0 0 0 -29.39-47.26l-21.31-2.3a18.58 18.58 0 0 1 6.48-.43l25.29 2.7a35.37 35.37 0 0 1 29.39 47.26z" fill="#580b39"/><rect fill="#efd6d8" height="13.2" rx="6.6" width="65.41" x="370.15" y="851.84"/><rect fill="#ea8681" height="78.74" rx="39.37" transform="matrix(.95062412 -.31034462 .31034462 .95062412 -148.88 161.14)" width="185.89" x="339.06" y="509.12"/><path d="m432.5 787.87-17.09-208.5c-2.32-28.37-21.57-51.37-43.09-49.81-21.79 1.63-35.5 27.7-30.68 56.45l35.28 210.27c2.62 15.57 16.7 25.74 31.45 23.39 14.63-2.33 25.41-16.27 24.13-31.8z" fill="#ea8681"/><path d="m366.68 735.22-17.12-151.94a68.58 68.58 0 0 1 -1-11.47 63.22 63.22 0 0 1 1.12-12 39.38 39.38 0 0 1 15.44-28.75 38.58 38.58 0 0 1 8.5-4.92l-4.79 1.56a39.38 39.38 0 0 0 -27.08 34.92 64.31 64.31 0 0 0 -1.1 11.93 68.32 68.32 0 0 0 1 11.45z" fill="#fff"/><circle cx="496.91" cy="540.44" fill="#ea8681" r="52.32"/><rect fill="#efd6d8" height="13.2" rx="6.6" transform="matrix(.99914462 -.04135251 .04135251 .99914462 -31.31 17.12)" width="77.03" x="360.08" y="759.79"/><rect fill="#efd6d8" height="13.2" rx="6.6" transform="matrix(.99914462 -.04135251 .04135251 .99914462 -30.24 17.27)" width="79.51" x="363.1" y="733.96"/><rect fill="#f5a491" height="78.74" rx="39.37" transform="matrix(.82373056 -.56698145 .56698145 .82373056 -239.8 373.59)" width="185.89" x="388.04" y="533.13"/><path d="m464.86 820.93 6.92-201.26c1.05-27.07-15.64-50.15-37.33-50.15s-38.38 23.08-37.33 50.15l6.88 201.26c.66 17.1 14.26 30.42 30.41 30.42 16.19 0 29.79-13.35 30.45-30.42z" fill="#f5a491"/><circle cx="540.95" cy="546.39" fill="#580b39" r="52.32"/><path d="m483 490-108.49 35.85s79.13 1.43 99.21 99.44c0 0 122.17-8.76 119.55-76.8 0 0-5.36-71.63-110.27-58.49z" fill="#65194b"/><path d="m473.72 625.3a168.78 168.78 0 0 0 -7-24.76c33.48-5.28 104.53-22.64 102.53-74.7 0 0-.92-12.18-9.35-25.59 31 17.52 33.35 48.25 33.35 48.25 2.64 68.03-119.53 76.8-119.53 76.8z" fill="#580b39"/><path d="m551.09 496c-15.48-5.31-36-7.64-63.34-4.23l-105.59 34.9a62.42 62.42 0 0 0 -7.65-.82l108.49-35.85c30.22-3.79 52.16-.54 68.09 6z" fill="#74265d"/><ellipse cx="540" cy="301.18" fill="#580b39" rx="56.31" ry="62.15"/><rect fill="#f5a491" height="134.86" rx="25.29" transform="matrix(.95387427 -.30020639 .30020639 .95387427 -103.28 194.3)" width="50.57" x="555.33" y="365.81"/><rect fill="#f5a491" height="134.86" rx="25.29" transform="matrix(.65050914 -.75949842 .75949842 .65050914 -165.19 653.99)" width="50.57" x="602.66" y="439.04"/><path d="m650.08 549.19-59.08-50.57-5-4.25a25.14 25.14 0 0 1 -7.56-11.27 25.27 25.27 0 0 1 -2.78-6l-2.73-8.7-22.57-71.69a25.27 25.27 0 0 1 8.09-27.15 25.3 25.3 0 0 0 -14.67 31l25.36 80.44a25.63 25.63 0 0 0 2.78 6 25.3 25.3 0 0 0 7.57 11.25l64 54.83a25.31 25.31 0 0 0 32.48.35 25.26 25.26 0 0 1 -25.89-4.24z" fill="#ea8681"/><path d="m574 439.25-5 58a39.45 39.45 0 1 1 -78.61-6.74l5-58z" fill="#f8f3f4"/><path d="m559.4 321.57-3 35.37-2.12 24.7a13.93 13.93 0 0 1 -15.07 12.69l-1.89-.16a13.94 13.94 0 0 1 -12.71-15.08l1.39-16.21 3.74-43.88a13.93 13.93 0 0 1 15.09-12.7l1.89.17a13.92 13.92 0 0 1 12.68 15.1z" fill="#f5a491"/><path d="m495.35 432.51-1.82 21.25a160.12 160.12 0 0 0 76.62 30l3.85-44.51z" fill="#efd6d8"/><path d="m596.09 431.07-.19 2.16a28.8 28.8 0 0 1 -31.13 26.23l-61.55-5.28a28.81 28.81 0 0 1 -26.22-31.18l.18-2.16a59.35 59.35 0 0 1 12.56-31.78c.06-.07.1-.14.16-.2a59.69 59.69 0 0 1 92.39-1.34 58.93 58.93 0 0 1 6 8.47 1.1 1.1 0 0 0 .09.14 59.36 59.36 0 0 1 7.71 34.94z" fill="#f8f3f4"/><path d="m477.18 420.86-.18 2.14a28.78 28.78 0 0 0 26.22 31.14l25.78 2.23a70.53 70.53 0 0 1 -27.13-78.92c-1.28.9-2.51 1.86-3.71 2.87a59.63 59.63 0 0 0 -21 40.54z" fill="#fbfbfa"/><path d="m588.24 396a68.59 68.59 0 0 1 -47.35 17.46c-1.4 0-2.82-.1-4.25-.22-.86-.07-1.71-.16-2.57-.29a68.4 68.4 0 0 1 -44.18-24.08 59.69 59.69 0 0 1 92.39-1.34 58.93 58.93 0 0 1 5.96 8.47z" fill="#f5a491"/><path d="m559.4 321.57-3 35.37a49.58 49.58 0 0 1 -25 6.38 36.61 36.61 0 0 1 -5.38-.44l3.72-43.88a13.93 13.93 0 0 1 15.09-12.7l1.89.17a13.92 13.92 0 0 1 12.68 15.1z" fill="#ea8681"/><path d="m540.81 413.67c-1.4 0-2.81-.11-4.23-.23-.85-.07-1.71-.16-2.56-.28l1.14-4.27a2.64 2.64 0 0 1 5.17.4z" fill="#ea8681"/><path d="m545.22 239.83h1.63a35.12 35.12 0 0 1 35.15 35.11v32.46a50 50 0 0 1 -50 50 38.53 38.53 0 0 1 -38.53-38.53v-27.3a51.74 51.74 0 0 1 51.75-51.74z" fill="#f5a491" transform="matrix(.99993762 .01116987 -.01116987 .99993762 3.38 -6.01)"/><path d="m488.22 849.29-20.6 63.92a23 23 0 0 1 -24.37 15.86 22.71 22.71 0 0 1 -2.78-.47 23 23 0 0 0 16.69-15.39l20.6-63.92a35.24 35.24 0 0 0 -29.39-47.07l-21.32-2.22a18.6 18.6 0 0 1 6.48-.43l25.3 2.69a35.23 35.23 0 0 1 29.39 47.03z" fill="#fff"/><path d="m495.62 849.49-20.62 64.18a23 23 0 0 1 -24.37 15.92 22.71 22.71 0 0 1 -2.78-.47 23.08 23.08 0 0 0 16.69-15.45l20.6-64.18a35.38 35.38 0 0 0 -29.39-47.26l-21.3-2.23a18.6 18.6 0 0 1 6.48-.43l25.3 2.7a35.37 35.37 0 0 1 29.39 47.22z" fill="#580b39"/><ellipse cx="536.6" cy="269.79" fill="#580b39" rx="35.19" ry="55.97" transform="matrix(.20347087 -.979081 .979081 .20347087 163.27 740.28)"/><ellipse cx="519.05" cy="253.98" fill="#65194b" rx="16.39" ry="26.07" transform="matrix(.08506913 -.99637505 .99637505 .08506913 221.85 749.54)"/><circle cx="579.92" cy="251.09" fill="#f8f3f4" r="19.38"/><ellipse cx="604.53" cy="216.12" fill="#580b39" rx="57.33" ry="54.52" transform="matrix(.68569132 -.72789244 .72789244 .68569132 32.72 508.01)"/><path d="m639.44 249c-18.63 19.77-49 21.44-67.76 3.74a44.88 44.88 0 0 1 -3.78-4c18.89 15.7 47.7 13.45 65.64-5.59 17.27-18.34 18.39-45.81 3.45-63.82.73.6 1.43 1.22 2.12 1.87 18.79 17.7 18.94 48.08.33 67.8z" fill="#65194b"/><path d="m632.08 212.94c-2.47 19.24-19.3 32.92-37.59 30.58a30.93 30.93 0 0 1 -3.88-.75c17.5 1.15 33.21-12.23 35.59-30.76 2.28-17.85-8.59-34.2-24.78-38.33.67 0 1.34.1 2 .19 18.3 2.34 31.12 19.84 28.66 39.07z" fill="#65194b"/><path d="m561.89 196.28c-7.47 21.24 2.84 44.21 23 51.32a35.43 35.43 0 0 0 4.41 1.25c-18.75-7.93-28.05-30-20.86-50.47 6.94-19.69 26.75-31 45.69-26.82-.71-.31-1.44-.59-2.18-.85-20.16-7.11-42.59 4.35-50.06 25.57z" fill="#fff"/><ellipse cx="578.03" cy="301.18" fill="#580b39" rx="19.42" ry="19"/><circle cx="581.97" cy="307.95" fill="#f5a491" r="17.14"/><path d="m576.9 307.47a6 6 0 0 1 1.42-1.21c-.11.11-.21.22-.31.34a6.11 6.11 0 0 0 7.81 9.2 6.11 6.11 0 0 1 -8.92-8.33z" fill="#ea8681"/><ellipse cx="599.97" cy="211.05" fill="#65194b" rx="16.25" ry="18.54"/><path d="m434.21 929.07a23 23 0 0 1 -20.47-20.33l-10-94a18.86 18.86 0 0 1 20.74-20.88l25.3 2.68a35.23 35.23 0 0 1 29.39 47.07l-20.59 69.59a23 23 0 0 1 -24.37 15.87z" fill="#f5a491"/><g fill="#fff"><rect height="13.2" rx="6.6" width="65.41" x="403.62" y="882.46"/><rect height="13.2" rx="6.6" transform="matrix(.99914462 -.04135251 .04135251 .99914462 -32.55 18.52)" width="77.03" x="393.54" y="790.42"/><rect height="13.2" rx="6.6" transform="matrix(.99914462 -.04135251 .04135251 .99914462 -31.48 18.68)" width="79.51" x="396.56" y="764.58"/></g><rect fill="#ffc4af" height="59.06" rx="10.29" width="20.58" x="408.69" y="630.68"/><ellipse cx="667.91" cy="530.86" fill="#f5a491" rx="33.93" ry="26.75" transform="matrix(.86914988 -.49454877 .49454877 .86914988 -175.13 399.71)"/><path d="m681.13 554.1c-16.29 9.27-35.41 6.38-42.72-6.46a22 22 0 0 1 -2.83-10.64 21.32 21.32 0 0 0 1.64 3.62c7.3 12.84 26.42 15.74 42.71 6.47 12.11-6.89 19.24-18.56 19.11-29.37 4.26 12.4-3.1 27.97-17.91 36.38z" fill="#ea8681"/><g fill="#580b39"><path d="m541.62 304.66a5 5 0 0 1 -10-.68 4.52 4.52 0 0 1 .13-.82 5 5 0 0 0 9.89.68 5.62 5.62 0 0 1 -.02.82z"/><path d="m511.87 305.42a5 5 0 0 1 -10-.69 4.4 4.4 0 0 1 .12-.81 5 5 0 0 0 9.89.68 4.47 4.47 0 0 1 -.01.82z"/><ellipse cx="519.56" cy="321.81" rx="4.25" ry="3.55"/><ellipse cx="526.04" cy="321.81" rx="4.25" ry="3.55"/><path d="m515.31 321.81h15c0 3.19-3.35 5.78-7.49 5.78s-7.51-2.59-7.51-5.78z"/></g><ellipse cx="522.63" cy="322.7" fill="#fff" rx="3.41" ry="2"/><rect fill="#f8f3f4" height="10.13" rx="5.06" transform="matrix(.65050914 -.75949842 .75949842 .65050914 -167.58 662.37)" width="67.96" x="601.88" y="508.19"/><rect fill="#f8f3f4" height="10.13" rx="5.06" transform="matrix(.65050914 -.75949842 .75949842 .65050914 -165.52 651.02)" width="59.99" x="594.56" y="500.27"/><path d="m598.97 580.11v-509.83" fill="none" stroke="#adb6e0" stroke-miterlimit="10" stroke-width="8"/><g fill="#d2d6fa"><path d="m250.41 310.62h-42.41a22.14 22.14 0 0 1 44.2-2 1.82 1.82 0 0 1 -1.79 2z"/><path d="m227.41 310.62h-63.6a31.8 31.8 0 0 1 63.6 0z"/><path d="m199.44 310.62h-73.06a4.28 4.28 0 0 1 -4.29-4.74 38.82 38.82 0 0 1 77.35 4.74z"/><path d="m378.23 173.08h-27.82a14.54 14.54 0 0 1 29-1.29 1.2 1.2 0 0 1 -1.18 1.29z"/><path d="m363.13 173.08h-41.75a20.88 20.88 0 1 1 41.75 0z"/><path d="m344.76 173.08h-48a2.82 2.82 0 0 1 -2.76-3.08 25.49 25.49 0 0 1 50.78 3.12z"/></g></svg>