<svg viewBox="0 0 1000 1000" xmlns="http://www.w3.org/2000/svg"><path d="m954.22 584a137.78 137.78 0 0 1 -32.56 142.9q-4.18 4.18-8.71 8a137.22 137.22 0 0 1 -84.32 32.24c-1.42 0-2.84.06-4.27.06h-90.36a27.34 27.34 0 0 0 -27.32 27.32v101.87h-456.74v-101.91a27.32 27.32 0 0 0 -27.32-27.32h-53.69a132.33 132.33 0 0 1 -132.4-132.4v-10.41a137.16 137.16 0 0 1 5.72-40.35 113.22 113.22 0 0 1 13.12-28.38 119.64 119.64 0 0 1 27.34-29.62 140.76 140.76 0 0 1 14.69-10q2.86-1.72 5.75-3.28a184 184 0 0 1 34.54-14.17 43.49 43.49 0 0 0 14.31-7.35 44 44 0 0 0 17-34.76v-43q0-1.67.09-3.3a63 63 0 0 1 29.51-50.14 61.93 61.93 0 0 1 14.4-6.69 62.74 62.74 0 0 1 16.25-2.84c.88 0 1.77-.06 2.66-.06a48.67 48.67 0 0 0 43.77-27.48c.56-1.14 1.06-2.3 1.52-3.48a48.56 48.56 0 0 0 3.29-17.61 48.56 48.56 0 0 0 -48.49-48.62h-68a83.59 83.59 0 0 1 -63.32-138.22c.54-.63 1.09-1.25 1.65-1.85a83.33 83.33 0 0 1 61.67-27.15h416a97.92 97.92 0 0 1 97.92 97.92 69.19 69.19 0 0 0 69.08 69.3 83.61 83.61 0 1 1 .17 167.22h-28.85a35.26 35.26 0 0 0 -5.85.48 35.77 35.77 0 0 0 -29.91 35.27c0 .65 0 1.3.06 1.94a35.73 35.73 0 0 0 35.7 33.87h106a137.59 137.59 0 0 1 108.8 53.36q3.84 5 7.24 10.27a136.81 136.81 0 0 1 13.86 28.37z" fill="#fffaf4"/><rect fill="#a66633" height="17.61" rx="8.8" width="74.06" x="72.3" y="896.38"/><rect fill="#a66633" height="17.61" rx="8.8" width="809.94" x="153.54" y="896.38"/><path d="m577.57 299.19 16.77-10.94v-19.64h-16.77z" fill="#eacfb5"/><path d="m397.88 299.19-16.77-10.94v-19.64h16.77z" fill="#eacfb5"/><path d="m343.35 255.96h288.9v14.12h-288.9z" fill="#ffecd7"/><path d="m477.88 166.39a23.76 23.76 0 0 1 23.76 23.76v13a0 0 0 0 1 0 0 23.76 23.76 0 0 1 -23.76-23.76v-13a0 0 0 0 1 0 0z" fill="#dbb595" transform="matrix(.38107038 .92454603 -.92454603 .38107038 473.94 -338.45)"/><path d="m463.76 146.75a23.76 23.76 0 0 1 23.76 23.76v13a0 0 0 0 1 0 0 23.76 23.76 0 0 1 -23.76-23.76v-13a0 0 0 0 1 0 0z" fill="#c19c80" transform="matrix(.92454603 .38107038 -.38107038 .92454603 98.81 -168.79)"/><path d="m476.8 166.39a0 0 0 0 1 0 0v13a23.76 23.76 0 0 1 -23.8 23.72 0 0 0 0 1 0 0v-13a23.76 23.76 0 0 1 23.8-23.72z" fill="#dbb595" transform="matrix(-.38107038 .92454603 -.92454603 -.38107038 812.89 -174.69)"/><path d="m518.88 214a42.53 42.53 0 1 1 -85.06 0 41.91 41.91 0 0 1 .28-4.91 41.25 41.25 0 0 1 1-5.56h82.46a42.88 42.88 0 0 1 1 5.56 41.91 41.91 0 0 1 .32 4.91z" fill="#dbb595"/><rect fill="#c19c80" height="11.13" rx="5.56" width="97.49" x="428.59" y="192.36"/><path d="m518.6 209.05h-84.5a41.25 41.25 0 0 1 1-5.56h82.46a42.88 42.88 0 0 1 1.04 5.56z" fill="#c19c80"/><g opacity=".63"><path d="m933.16 545.31v142.69a10.65 10.65 0 0 1 -10.65 10.65h-433.34a10.65 10.65 0 0 1 -10.65-10.65v-237.56a10.65 10.65 0 0 1 10.65-10.65h197.38a35.46 35.46 0 0 0 -4 16.4c0 .65 0 1.3.06 1.94a35.73 35.73 0 0 0 35.71 33.87h106a137.59 137.59 0 0 1 108.8 53.36z" fill="#e8ceb8"/><path d="m911.32 522.91v148.67a8.69 8.69 0 0 1 -8.69 8.69h-393.58a8.68 8.68 0 0 1 -8.69-8.69v-204.76a8.69 8.69 0 0 1 8.69-8.69h173.57a35.73 35.73 0 0 0 35.7 33.87h106a137 137 0 0 1 87 30.91z" fill="#fffaf4"/><path d="m643.26 698.61h125.14v22.26h-125.14z" fill="#d8bfab"/><rect fill="#e8ceb8" height="22.26" rx="11.13" width="208.79" x="601.44" y="720.87"/><path d="m726.32 492-133 188.32h-84.27a8.64 8.64 0 0 1 -5.34-1.83l155.59-220.36h23.32a35.73 35.73 0 0 0 35.7 33.87z" fill="#fffdfb"/><path d="m790.27 491.95-133 188.32h-35.55l133-188.32z" fill="#fffdfb"/><path d="m902.09 743.12a137.1 137.1 0 0 1 -73.46 24c-1.42 0-2.84.06-4.27.06h-90.36a27.34 27.34 0 0 0 -27.32 27.32v101.89h-240.86v-139.25a14 14 0 0 1 14-14z" fill="#f2dfcc"/><rect fill="#fff1e2" height="111.58" rx="8.81" width="205.33" x="492.14" y="766.33"/><rect fill="#f2dfcc" height="14.41" rx="7.21" width="108.08" x="540.93" y="812.69"/></g><ellipse cx="214.84" cy="230.88" fill="#503b60" rx="59.25" ry="62.3" transform="matrix(.5952436 -.8035453 .8035453 .5952436 -98.56 266.08)"/><path d="m183.83 272.8c23.72 17.56 56.48 13.52 73.19-9a47.21 47.21 0 0 0 3.27-5c-17.18 20.42-48.43 23.55-71.28 6.63-22-16.3-28.48-45.47-16-67.59-.66.77-1.29 1.57-1.9 2.4-16.66 22.47-10.98 54.99 12.72 72.56z" fill="#655475"/><path d="m184.77 232.77c6.34 20.1 27 31.5 46.08 25.48a33.09 33.09 0 0 0 4-1.54c-18.49 4.59-37.86-6.71-44-26.07-5.85-18.64 2.64-38.22 19.15-45.76-.71.17-1.4.37-2.1.59-19.11 6.02-29.46 27.2-23.13 47.3z" fill="#655475"/><path d="m256.64 201.47c12.07 21.28 5.46 47.83-14.77 59.31a38.59 38.59 0 0 1 -4.48 2.19c18.53-12.09 24.24-37.49 12.61-58-11.2-19.73-34.55-28-54-19.91.71-.47 1.42-.91 2.17-1.33 20.2-11.47 46.4-3.53 58.47 17.74z" fill="#362644"/><ellipse cx="218.74" cy="224.58" fill="#655475" rx="17.66" ry="20.15" transform="matrix(.98425736 -.17674118 .17674118 .98425736 -36.26 42.21)"/><circle cx="253.51" cy="268.91" fill="#ffda9a" r="24.69"/><path d="m250.53 475.34h94.45v125.19h-94.45z" fill="#f8f3f4" transform="matrix(-.99999925 .00122173 -.00122173 -.99999925 596.22 1075.48)"/><path d="m312.1 454.06c-.17.26-.34.52-.52.76 2.66.06 5.29 0 7.88-.13-2.46-.13-4.89-.34-7.36-.63z" fill="#fdfae4"/><path d="m294.25 414.23a30.3 30.3 0 0 0 10.75 23.23l34 28.78 24.92 21.08 37.58 31.83a30.4 30.4 0 0 0 39.28-46.41l-96.51-81.69a30.4 30.4 0 0 0 -50 23.18z" fill="#ffb2bf"/><path d="m339 466.24 24.92 21.08a34.46 34.46 0 0 0 8.68-22.91v-2.59a71.62 71.62 0 0 0 -21-50.71c-1.33-1.33-2.7-2.61-4.14-3.82a84.44 84.44 0 0 1 -4.81 51.44c-1.1 2.59-2.33 5.09-3.65 7.51z" fill="#f9a0b4"/><path d="m294.24 414.25a28.35 28.35 0 0 0 .22 3.56 30.4 30.4 0 0 1 49.81-19.53l96.52 81.72a30.15 30.15 0 0 1 10.54 19.65 30.4 30.4 0 0 0 -10.54-26.88l-96.52-81.69a30.4 30.4 0 0 0 -50 23.2z" fill="#f9e0e5"/><path d="m250.14 466.45v70a47.42 47.42 0 0 0 47.42 47.42 47.42 47.42 0 0 0 47.44-47.41v-70z" fill="#f8f3f4"/><path d="m250.13 466.45v70a47.43 47.43 0 0 0 94.85 0v-70z" fill="#f8f3f4"/><path d="m250.13 466.45v25.64a192.56 192.56 0 0 0 94.85 28v-53.64z" fill="#efd6d8"/><path d="m301.44 394.62a29.57 29.57 0 0 1 4-3.91 30.38 30.38 0 0 0 3.88 42.42l96.51 81.69a30.37 30.37 0 0 0 38.83.35c-.11.14-.2.28-.32.42a30.39 30.39 0 0 1 -42.83 3.56l-96.51-81.7a30.39 30.39 0 0 1 -3.56-42.83z" fill="#f9a0b4"/><rect fill="#ffb2bf" height="174.19" rx="30.39" transform="matrix(.98450318 .17536673 -.17536673 .98450318 83.81 -68.82)" width="60.79" x="400.86" y="352.62"/><rect fill="#f9e0e5" height="57.96" opacity=".38" rx="6.24" transform="matrix(.98450318 .17536673 -.17536673 .98450318 84.71 -69.76)" width="12.47" x="430.79" y="415.35"/><g fill="#ffb2bf"><rect height="162.1" rx="30.39" transform="matrix(.80062681 .59916334 -.59916334 .80062681 319.49 -46.3)" width="60.79" x="198.93" y="375.93"/><rect height="162.1" rx="30.39" transform="matrix(.95716803 -.28953301 .28953301 .95716803 -148.77 85.23)" width="60.79" x="183.36" y="464.49"/><ellipse cx="225.1" cy="607.75" rx="40.79" ry="32.16" transform="matrix(.5472711 -.8369554 .8369554 .5472711 -406.76 463.59)"/></g><path d="m240.39 625.34a53.72 53.72 0 0 0 2.74-4.71c5.72-11.15 6.75-23.21 3.41-32.87a25.38 25.38 0 0 0 -.65-2.53l-4.38-14.47-17.08-56.49-3.34-11.07 8.26-11.06 43-57.51a30.4 30.4 0 0 0 -2.64-39.49 17.25 17.25 0 0 1 -4.66-8.34l-.07-.31a30.42 30.42 0 0 1 19 48.14l-51.31 68.58 24.81 82a24.38 24.38 0 0 1 .64 2.55c3.88 11.07 1.96 25.24-6.12 37.58-10 15.29-26.36 23-40.13 20.26 10.59-1.98 21.25-9.13 28.52-20.26z" fill="#f9a0b4"/><rect fill="#f8f3f4" height="9.11" rx="4.55" transform="matrix(.95716803 -.28953301 .28953301 .95716803 -155.04 88.19)" width="80.69" x="180.27" y="563.66"/><rect fill="#f8f3f4" height="9.11" rx="4.55" transform="matrix(.95716803 -.28953301 .28953301 .95716803 -152 86.88)" width="70.83" x="182.29" y="552.73"/><path d="m415.74 525.4.24.05c.82.15 1.63.25 2.44.33a30.41 30.41 0 0 0 32.82-24.91l19.88-111.64a30.4 30.4 0 0 0 -29.7-35.73 30.38 30.38 0 0 1 24.36 35.21l-19.88 111.64a30.41 30.41 0 0 1 -30.16 25.05z" fill="#f9e0e5"/><path d="m367.94 454.39v2.61a34.62 34.62 0 0 1 -34.61 34.61h-74.26a34.61 34.61 0 0 1 -34.59-34.61v-2.6a71.37 71.37 0 0 1 12.88-41 67.55 67.55 0 0 1 4.61-5.92l.27-.32c1-1.18 2.13-2.34 3.25-3.47a71.76 71.76 0 0 1 109.56 9.68c.38.56.76 1.11 1.12 1.67a71.24 71.24 0 0 1 11.77 39.35z" fill="#f8f3f4"/><path d="m367.94 454.4v2.6a34.51 34.51 0 0 1 -34.4 34.61h-31a85 85 0 0 0 40.38-91.74c1.43 1.21 2.79 2.49 4.12 3.82a71.82 71.82 0 0 1 20.89 50.71z" fill="#fbfbfa"/><rect fill="#f8f3f4" height="99.8" rx="8.09" transform="matrix(-.92990493 -.36779998 .36779998 -.92990493 685.47 831.05)" width="53.81" x="395.01" y="300.32"/><rect fill="#cac4ce" height="99.8" rx="8.09" transform="matrix(-.92990493 -.36779998 .36779998 -.92990493 687.6 838.29)" width="53.81" x="396.76" y="303.74"/><circle cx="430.16" cy="321.75" fill="#503b60" r="5.89"/><circle cx="443.38" cy="326.98" fill="#503b60" r="3.07"/><ellipse cx="435.44" cy="377.11" fill="#ffb2bf" rx="40.79" ry="32.16" transform="matrix(.80364918 -.59510335 .59510335 .80364918 -138.92 333.17)"/><path d="m401.89 368a50.71 50.71 0 0 1 10.39-10.29c18.11-13.4 41.34-12.71 51.92 1.57 6.85 9.27 6.69 22 .76 33.42 9.63-12.85 11.43-28.78 3.26-39.82-10.58-14.27-33.81-15-51.92-1.58a48.75 48.75 0 0 0 -14.41 16.7z" fill="#f9e0e5"/><path d="m355.05 413.36a82.39 82.39 0 0 1 -54.55 25.24c-1.67.11-3.37.17-5.08.17-1 0-2.06 0-3.1-.07a82.44 82.44 0 0 1 -55.52-24.28 72.33 72.33 0 0 1 5.17-6.95l.27-.32c1-1.18 2.13-2.34 3.25-3.47a71.76 71.76 0 0 1 109.56 9.68z" fill="#ffb2bf"/><path d="m300.5 438.6c-1.67.11-3.37.16-5.08.16-1 0-2.06 0-3.1-.07l.93-5.23a3.17 3.17 0 0 1 6.24 0z" fill="#f9a0b4"/><path d="m379.55 799.71a27.9 27.9 0 0 1 -4.49-2.74 28.31 28.31 0 0 1 -9.31-33.38l32-78.86 54 40.14-35 63.13a28.33 28.33 0 0 1 -37.2 11.71z" fill="#f9a0b4"/><path d="m451.75 724.87-54-40.14 36.58-90a39.27 39.27 0 1 1 70.46 34.41z" fill="#5b4a91"/><path d="m340.46 875.6a21.82 21.82 0 0 0 26-8.26l49-74.76a17.84 17.84 0 0 0 -8.39-26.58l-22.45-8.67a33.32 33.32 0 0 0 -45.07 26.9l-12.75 67.49a21.82 21.82 0 0 0 13.66 23.88z" fill="#f9a0b4"/><path d="m379.55 799.71a27.9 27.9 0 0 1 -4.49-2.74 28.31 28.31 0 0 1 -9.31-33.38l32-78.86 54 40.14-35 63.13a28.33 28.33 0 0 1 -37.2 11.71z" fill="#f9a0b4"/><path d="m415.5 792.57-49 74.76a21.81 21.81 0 0 1 -33.17 3.74 21.76 21.76 0 0 0 15.41-9.55l49-74.75a18 18 0 0 0 2.84-7.43l7.2-13a17.84 17.84 0 0 1 7.72 26.23z" fill="#f28ba6"/><path d="m386.22 696.33 64.76 35.39 17.59-16.03-78.35-42.83z" fill="#a695cd"/><rect fill="#ea9e5a" height="28.95" rx="14.48" width="198.33" x="213.54" y="651.88"/><path d="m254.62 836.54h125.68v8.24h-125.68z" fill="#a66633"/><path d="m387.35 680.83-.67 15.71-8.64 200.66h-13.34l-8.63-200.66-.67-15.71z" fill="#ea9e5a"/><path d="m270.59 680.83-.67 15.71-8.63 200.66h-13.35l-8.62-200.66-.67-15.71z" fill="#ea9e5a"/><path d="m270.59 680.83-.67 25.39h-30.6l-.67-25.39z" fill="#a66633"/><path d="m387.35 680.83h-31.95l.67 25.39h30.61z" fill="#a66633"/><path d="m466 651.32h-110a57 57 0 0 1 -57-57v-13.9a16.44 16.44 0 0 1 16.44-16.42h150.56a43.67 43.67 0 0 1 43.67 43.66 43.67 43.67 0 0 1 -43.67 43.66z" fill="#5b4a91"/><path d="m504.83 629.12-53.08 95.76-9.1-6.78 38.52-69.48 14.53-26.21a39.3 39.3 0 0 0 -34.26-58.41h4.56a43.66 43.66 0 0 1 43.65 42.67 39.06 39.06 0 0 1 -4.82 22.45z" fill="#4b407c"/><path d="m250.46 594.33a59.45 59.45 0 0 0 16.08 41.16 49.77 49.77 0 0 0 32.82 15.71h.56c.88 0 1.75.08 2.64.08h100.62a38.17 38.17 0 0 0 28.23-12.79 44.79 44.79 0 0 0 10.48-20.2 46.77 46.77 0 0 0 1.21-10c.34-24.29-18.37-44.29-40.67-44.29h-152z" fill="#8a89d9"/><path d="m443.34 809.81a28.35 28.35 0 0 1 -32.63-20.74l-21.37-82.4h67.25l9.6 71.53a28.32 28.32 0 0 1 -22.85 31.61z" fill="#ffb2bf"/><path d="m456.59 706.67h-67.25l-24.34-94.06a39.27 39.27 0 1 1 77-14.45z" fill="#8a89d9"/><path d="m456.59 706.67h-12.41l-14.56-108.5a39.3 39.3 0 0 0 -32.68-33.69 39.29 39.29 0 0 1 45.06 33.69z" fill="#afafe8"/><path d="m457.27 894a21.8 21.8 0 0 0 15.94-22.15l-5.29-89.24a17.85 17.85 0 0 0 -22.6-16.26l-23.19 6.44a33.33 33.33 0 0 0 -20.13 48.51l30 61.72a21.79 21.79 0 0 0 25.27 10.98z" fill="#ffb2bf"/><path d="m457.27 894a21.53 21.53 0 0 1 -11.29.1l.4-.1a21.79 21.79 0 0 0 15.93-22.15l-4.14-69.85-1.17-19.37a17.79 17.79 0 0 0 -2.16-7.64l-1.19-8.93-8-59.39h10.89l9.22 68.33a17.52 17.52 0 0 1 2.16 7.61l5.29 89.24a21.8 21.8 0 0 1 -15.94 22.15z" fill="#f9e0e5" opacity=".38"/><path d="m464.62 689.26-4.55 23.37-14.16 1.99-58.93 8.26-10.8-21.21 66.09-9.27z" fill="#edd2f2"/><ellipse cx="288.09" cy="308.42" fill="#503b60" rx="59.27" ry="67.54"/><path d="m268.93 330.57 3.3 38.44 2.29 26.84a15.17 15.17 0 0 0 16.39 13.8l2-.18a15.15 15.15 0 0 0 13.81-16.38l-1.51-17.62-4.09-47.67a15.14 15.14 0 0 0 -16.35-13.8l-2 .18a15.14 15.14 0 0 0 -13.84 16.39z" fill="#ffb2bf"/><path d="m268.93 330.57 3.3 38.44a54 54 0 0 0 27.18 6.99 40.15 40.15 0 0 0 5.85-.48l-4.09-47.67a15.14 15.14 0 0 0 -16.4-13.85l-2 .18a15.14 15.14 0 0 0 -13.84 16.39z" fill="#f9a0b4"/><path d="m286.29 241.74a54.28 54.28 0 0 1 54.28 54.26v35.3a38.16 38.16 0 0 1 -38.16 38.16h-1.77a56.23 56.23 0 0 1 -56.23-56.23v-29.61a41.88 41.88 0 0 1 41.88-41.88z" fill="#ffb2bf" transform="matrix(-.99993762 .01116987 -.01116987 -.99993762 588.39 607.9)"/><path d="m340.82 327.05a41.88 41.88 0 0 1 -41.4 42.34c-1.54 0-3.05 0-4.54-.14a41.85 41.85 0 0 0 38.61-42.2l-.33-29.61a56.22 56.22 0 0 0 -53-55.52c.59 0 1.16-.06 1.74-.06h1.77a56.21 56.21 0 0 1 56.85 55.6z" fill="#f9e0e5"/><ellipse cx="293.71" cy="274.31" fill="#503b60" rx="60.82" ry="38.24" transform="matrix(.979081 -.20347087 .20347087 .979081 -49.67 65.5)"/><ellipse cx="312.78" cy="257.12" fill="#655475" rx="28.33" ry="17.81" transform="matrix(.99637505 -.08506913 .08506913 .99637505 -20.73 27.53)"/><ellipse cx="248.68" cy="308.42" fill="#503b60" rx="21.1" ry="20.65"/><circle cx="245.93" cy="317.29" fill="#ffb2bf" r="17.11"/><circle cx="327.58" cy="315.77" fill="#503b60" r="3.51"/><circle cx="295.92" cy="313.93" fill="#503b60" r="3.51"/><path d="m241 318.78a6.81 6.81 0 0 0 4.33 6.18 2 2 0 0 0 2.59-1.92l-.22-8.86a2 2 0 0 0 -2.87-1.71 6.81 6.81 0 0 0 -3.83 6.31z" fill="#f9a0b4"/><path d="m464.62 689.26-4.55 23.37-14.16 1.99-3.64-22.22z" fill="#efdcf4"/><path d="m319.24 332a10.92 10.92 0 0 1 -4 7.3c-.28.22-.56.42-.85.62a10.84 10.84 0 0 1 -7.14 1.72h-.44a10.87 10.87 0 0 1 -9.7-11.08q0-.45.06-.9a2.15 2.15 0 0 1 .78-1.42 2.12 2.12 0 0 1 1.54-.45l17.87 1.94a2.1 2.1 0 0 1 1.88 2.27z" fill="#962f4a"/><path d="m307.22 339.9a8.94 8.94 0 0 1 -.34 1.65h-.06a10.86 10.86 0 0 1 -9.69-11.08 8.54 8.54 0 0 1 2.43-.08 8.65 8.65 0 0 1 7.66 9.51z" fill="#e1617f"/><path d="m317 329.58c-.31 2.12-3.77 3.46-7.79 3s-7.1-2.49-6.95-4.62z" fill="#fff"/></svg>