<svg viewBox="0 0 1000 1000" xmlns="http://www.w3.org/2000/svg"><path d="m955 773.22a81.28 81.28 0 0 1 -81.28 81.28h-651.3a58.93 58.93 0 0 1 -58.93-58.93v-58.67a43.41 43.41 0 0 0 -43.4-43.41 75 75 0 0 1 -75.05-75v-12.49a75.08 75.08 0 0 1 52.15-71.49c.63-.2 1.26-.4 1.9-.58a75 75 0 0 1 21-3h73.25a43.41 43.41 0 1 0 0-86.81h-56.89a91.42 91.42 0 0 1 0-182.83h117.68a43.42 43.42 0 0 0 43.41-43.41v-6.24a43.41 43.41 0 0 0 -43.41-43.4h-19.13a43.41 43.41 0 0 1 -43.41-43.41v-6.24a43.4 43.4 0 0 1 43.41-43.41h251.37a43.41 43.41 0 0 1 43.41 43.4v6.24a43.41 43.41 0 0 0 43.41 43.41h12.93a49.64 49.64 0 0 1 49.65 49.64 43.41 43.41 0 0 0 43.4 43.41h49.27a91.42 91.42 0 1 1 0 182.83h-21.21a43.41 43.41 0 1 0 0 86.81c1.53 0 3.06 0 4.58.1a101.56 101.56 0 0 1 97 101.45v16.06a43.4 43.4 0 0 0 43.41 43.4h21.49a81.31 81.31 0 0 1 80.67 71.27 82.82 82.82 0 0 1 .62 10.02z" fill="#f0f4ff"/><rect fill="#d2d6fa" height="14.72" rx="7.36" width="61.92" x="779.55" y="887.93"/><rect fill="#d2d6fa" height="14.72" rx="7.36" width="677.13" x="96.42" y="887.93"/><rect fill="#bcbff6" height="801.79" rx="33.08" transform="matrix(-1 0 0 -1 748.11 974.13)" width="388.38" x="179.86" y="86.17"/><rect fill="#c7cfff" height="801.79" rx="33.08" transform="matrix(-1 0 0 -1 803.21 974.13)" width="388.38" x="207.42" y="86.17"/><rect fill="#f3f4fe" height="660.15" rx="11.89" transform="matrix(-1 0 0 -1 803.21 953.84)" width="330.87" x="236.17" y="146.85"/><path d="m336 86.17h149.33a32 32 0 0 1 32 32 0 0 0 0 1 0 0h-213.33a0 0 0 0 1 0 0 32 32 0 0 1 32-32z" fill="#bcbff6" transform="matrix(-1 0 0 -1 821.32 204.32)"/><path d="m351.71 145.89h112.81a28.54 28.54 0 0 1 28.54 28.54v3.44a0 0 0 0 1 0 0h-169.89a0 0 0 0 1 0 0v-3.44a28.54 28.54 0 0 1 28.54-28.54z" fill="#c7cfff" transform="matrix(-1 0 0 -1 816.22 323.75)"/><circle cx="399.08" cy="847.02" fill="#97a1ef" r="28.8"/><circle cx="404.12" cy="847.02" fill="#afb5f2" r="28.8"/><g fill="#c7cfff"><rect height="19.31" rx="2.22" transform="matrix(-1 0 0 -1 539.87 340.37)" width="10.4" x="264.73" y="160.53"/><rect height="5.41" rx=".81" transform="matrix(-1 0 0 -1 539.87 323.75)" width="4.95" x="267.46" y="159.17"/><path d="m299.83 178.84h-16.23v-13.76z"/><circle cx="406.49" cy="723.72" r="11.04"/></g><circle cx="442.87" cy="723.72" fill="#afb5f2" r="11.04"/><circle cx="376.87" cy="723.72" fill="#c7cfff" r="11.04"/><circle cx="504.45" cy="311.69" fill="#c7cfff" r="37.02"/><circle cx="504.45" cy="311.69" fill="#f3f4fe" r="28.44"/><g fill="#c7cfff"><rect height="11.84" rx="5.92" transform="matrix(-1 0 0 -1 764.45 596.34)" width="134.64" x="314.9" y="292.25"/><rect height="11.84" rx="5.92" transform="matrix(-1 0 0 -1 805.68 640.4)" width="93.41" x="356.13" y="314.28"/><rect height="8.58" rx="4.29" transform="matrix(-1 0 0 -1 1057.12 340.37)" width="48.22" x="504.45" y="165.9"/></g><path d="m736.37 880.92a21.64 21.64 0 0 0 -2-27l-56.92-61a17.72 17.72 0 0 0 -27.57 2.08l-13.51 19.7a33.07 33.07 0 0 0 15.63 49.63l58.18 24.31a21.64 21.64 0 0 0 26.19-7.72z" fill="#ef927f"/><path d="m648 837.23-100.91-107.4c-13.72-14.6-14.3-38.87-.31-53.49 14.16-14.8 36.45-12.68 48.85 3.89l90.77 121.18c6.72 9 3.56 23.66-6.69 33.11-10.17 9.38-24.19 10.7-31.71 2.71z" fill="#ef927f"/><path d="m610.88 840.5h130.81a5.57 5.57 0 0 1 5.57 5.57v1.52a21.73 21.73 0 0 1 -21.73 21.73h-98.53a21.73 21.73 0 0 1 -21.73-21.73v-1.52a5.57 5.57 0 0 1 5.61-5.57z" fill="#9689e4" transform="matrix(-.9268566 -.37541557 .37541557 -.9268566 982.24 1901.16)"/><path d="m653.14 850.29 87.28 35.34a47.08 47.08 0 0 0 -87.28-35.34z" fill="#8474d4"/><path d="m707 822a47.11 47.11 0 0 1 19.07 57.82l14.35 5.82a47.16 47.16 0 0 0 -33.42-63.64z" fill="#9689e4"/><path d="m418.35 384.21a8.39 8.39 0 0 1 -2.29 6c-.19.2-.39.39-.59.57a8.41 8.41 0 0 1 -5.3 2.07h-.35a8.44 8.44 0 0 1 -8.61-7.49c0-.23 0-.47 0-.7a1.67 1.67 0 0 1 .44-1.17 1.64 1.64 0 0 1 1.14-.51l13.93-.4a1.63 1.63 0 0 1 1.63 1.63z" fill="#962f4a"/><path d="m410 391.59a7 7 0 0 1 -.09 1.3h-.05a8.42 8.42 0 0 1 -8.61-7.49 6.7 6.7 0 0 1 8.75 6.19z" fill="#e1617f"/><path d="m416.36 382.63c0 1.66-2.53 3.06-5.66 3.14s-5.72-1.16-5.83-2.81z" fill="#fff"/><path d="m333.28 372.44a0 0 0 0 1 0 0v121.79a67.71 67.71 0 0 1 -67.71 67.71 0 0 0 0 1 0 0v-121.79a67.71 67.71 0 0 1 67.71-67.71z" fill="#441c19" transform="matrix(-1 0 0 -1 598.84 934.38)"/><g fill="#5c2d27"><path d="m265.56 440.15v121.79a66.83 66.83 0 0 0 14.73-1.62v-120.17a67.7 67.7 0 0 1 53-66.09v-1.61a67.7 67.7 0 0 0 -67.72 67.7z"/><circle cx="336.61" cy="397.49" r="35.57"/><circle cx="382.69" cy="438.73" r="44.47"/></g><path d="m385.7 475.69v46.9a18.85 18.85 0 1 1 -37.7 0v-46.9a18.85 18.85 0 1 1 37.7 0z" fill="#f5a491"/><path d="m385.7 475.69v31c-1.5.14-3 .21-4.57.21a49.86 49.86 0 0 1 -33.13-12.55v-18.66a18.85 18.85 0 1 1 37.7 0z" fill="#ef927f"/><circle cx="370.69" cy="449.08" fill="#f5a491" r="50.06"/><path d="m428.83 409.22a32.27 32.27 0 1 1 -35.69-32.09c.28 0 .57-.07.85-.08.85-.07 1.7-.11 2.57-.11.64 0 1.28 0 1.91.06h.57l.81.07.81.09c.89.12 1.76.27 2.63.45.19 0 .38.08.55.12l.78.19a30.87 30.87 0 0 1 3.49 1.12l.72.28c.2.08.39.16.57.25s.56.24.83.37l.69.33.68.35a7.44 7.44 0 0 1 .67.37l.66.37.64.39.65.41.62.43c.21.14.42.28.62.43l.61.45.59.47c.2.15.39.31.58.47.4.33.77.66 1.15 1 .18.16.37.33.54.51s.37.35.54.53.36.36.53.54c.34.36.68.74 1 1.12a34.34 34.34 0 0 1 3.15 4.32c.25.42.5.84.73 1.27a31.58 31.58 0 0 1 1.7 3.63c.17.42.32.84.46 1.27a1.71 1.71 0 0 1 .13.38c.07.19.14.39.2.59l.22.76c.08.25.15.52.21.77a32.21 32.21 0 0 1 .76 4c0 .22.06.46.08.69.08.69.13 1.39.15 2.09.03.46.04.89.04 1.34z" fill="#5c2d27"/><circle cx="354.3" cy="403.46" fill="#5c2d27" r="38.43"/><path d="m388.65 402.8a39.09 39.09 0 0 1 -39.09 39.09c-1.1 0-2.18-.05-3.25-.13a39.09 39.09 0 0 0 0-77.92c1.07-.09 2.15-.14 3.25-.14a39.1 39.1 0 0 1 39.09 39.1z" fill="#723d39"/><path d="m351.9 433.06a28.1 28.1 0 0 1 -46.08 21.59 27.48 27.48 0 0 1 -4.26-4.43l-.07-.09c-.21-.26-.4-.53-.6-.8-.39-.55-.76-1.12-1.12-1.7-.07-.12-.15-.24-.22-.37s-.31-.53-.46-.81c-.16-.3-.32-.6-.47-.92a1.83 1.83 0 0 1 -.14-.28c-.13-.25-.24-.51-.36-.77s-.32-.73-.47-1.11-.27-.72-.39-1.08c-.07-.18-.13-.36-.19-.54l-.17-.55a27.43 27.43 0 0 1 -.75-3.16c0-.14 0-.27-.08-.42-.05-.32-.1-.65-.14-1-.1-.84-.17-1.68-.2-2.54 0-.15 0-.29 0-.44v-.6a28.1 28.1 0 0 1 28.1-28.1h.94a4.18 4.18 0 0 1 .5 0l.8.05.57.05.95.11 1.17.18a28.1 28.1 0 0 1 23.14 27.73z" fill="#5c2d27"/><circle cx="324.74" cy="465.62" fill="#f5a491" r="12.36"/><ellipse cx="349.87" cy="399.02" fill="#723d39" rx="17.61" ry="25.62"/><path d="m319.63 465.72a6.41 6.41 0 0 0 4.09 5.83 1.83 1.83 0 0 0 2.45-1.8l-.21-8.38a1.87 1.87 0 0 0 -2.71-1.61 6.43 6.43 0 0 0 -3.62 5.96z" fill="#ef927f"/><circle cx="392.21" cy="453.26" fill="#441c19" r="3.56"/><circle cx="362.4" cy="453.26" fill="#441c19" r="3.56"/><path d="m386.13 468.13a8.42 8.42 0 0 1 -2.29 6l-.59.56a8.42 8.42 0 0 1 -5.3 2.08h-.35a8.42 8.42 0 0 1 -8.61-7.49c0-.23 0-.46-.05-.7a1.64 1.64 0 0 1 .44-1.16 1.6 1.6 0 0 1 1.14-.51l13.94-.4a1.62 1.62 0 0 1 1.67 1.62z" fill="#962f4a"/><path d="m377.74 475.5a6.93 6.93 0 0 1 -.09 1.3 8.44 8.44 0 0 1 -8.61-7.5 6.7 6.7 0 0 1 8.75 6.19z" fill="#e1617f"/><path d="m384.14 466.55c0 1.65-2.53 3.05-5.66 3.14s-5.72-1.16-5.83-2.81z" fill="#fff"/><rect fill="#f5a491" height="146.68" rx="28.2" transform="matrix(-.58891428 .8081955 -.8081955 -.58891428 1156.21 555.12)" width="56.4" x="408.73" y="498.26"/><rect fill="#ef948c" height="66.3" rx="23.06" transform="matrix(.42103581 .90704401 -.90704401 .42103581 766.76 -188.58)" width="46.13" x="508.04" y="473.22"/><rect fill="#f5a491" height="146.68" rx="23.28" transform="matrix(-.89609944 -.44385335 .44385335 -.89609944 696.66 1279.79)" width="46.57" x="474.82" y="485.03"/><rect fill="#f5a491" height="66.3" rx="23.06" transform="matrix(.42103581 .90704401 -.90704401 .42103581 766.76 -188.58)" width="46.13" x="508.04" y="473.22"/><path d="m375.22 557.61a28 28 0 0 0 8.62 10.19l73 53.17a28.07 28.07 0 0 0 16.58 5.41 23.29 23.29 0 0 0 22.24-10.84c8.85-12.82 43.39-87.38 43.39-87.38l10.95-5.16a23 23 0 0 0 7.8-35.91.26.26 0 0 1 .05.09 23 23 0 0 1 -11.2 30.62l-3.85 1.79-7.07 3.28-4.33 8.77s-38.66 78-39 78.59a28.15 28.15 0 0 1 -22.4 10.94 28.08 28.08 0 0 1 -11.56-2.49 29.11 29.11 0 0 1 -5-2.91l-73-53.17a28.48 28.48 0 0 1 -5.22-4.99z" fill="#ef927f"/><g fill="#f5a491"><rect height="63.4" rx="8.34" transform="matrix(.42103581 .90704401 -.90704401 .42103581 753.59 -209.59)" width="16.69" x="532.64" y="453.86"/><rect height="42.66" rx="8.34" transform="matrix(.84675073 .53198985 -.53198985 .84675073 338.35 -202.22)" width="16.69" x="511.77" y="464.75"/><circle cx="518.34" cy="502.46" r="16.44"/></g><rect fill="#ef927f" height="73.91" rx="36.96" transform="matrix(-1 .07 -.07 -1 1071.84 1376.19)" width="185.1" x="419.08" y="670.06"/><g fill="#f5a491"><rect height="73.91" rx="36.96" transform="matrix(-.99807032 .06209375 -.06209375 -.99807032 1019.66 1496.23)" width="174.49" x="399.34" y="727"/><path d="m638.75 864.35-119.4-76c-16.12-10.18-20.35-32.35-8.66-48.98 11.71-16.65 34-20.13 49-8.39l111.91 86.67c9.46 7.41 9.77 23.24 1 35.64-8.67 12.4-23.67 17.46-33.85 11.06z"/><path d="m738.39 899.25a21.63 21.63 0 0 0 -4.55-26.7l-66.76-58.42a17.72 17.72 0 0 0 -27.24 4.64l-11.6 20.88a33.07 33.07 0 0 0 20.27 48l64.55 21.77a21.64 21.64 0 0 0 25.33-10.17z"/></g><path d="m399.42 767.07c0 .75 0 1.54.08 2.31a37 37 0 0 0 39.18 34.62l95.88-6 89.51 57a33.07 33.07 0 0 0 24.44 32.64l64.54 21.77a21.64 21.64 0 0 0 27.38-26.08 21.64 21.64 0 0 1 -27.38 15.26l-64.54-21.77c-10.92-3-16.86-11-20-20.73-.91-2.82 1.31-9.06 1.31-9.06l-81.52-51.09-13.75-8.75-15.47 1-80.41 5a37 37 0 0 1 -38.86-31.53 37.8 37.8 0 0 0 -.39 5.41z" fill="#ef927f"/><rect fill="#f5a491" height="147.35" rx="28.33" transform="matrix(-.43507396 -.90039472 .90039472 -.43507396 -85.33 1081.95)" width="56.65" x="268.45" y="494.07"/><path d="m230.89 574.23a28.33 28.33 0 0 0 -2 21.54 24.8 24.8 0 0 1 1.75-16.77c.26-.54.54-1.07.83-1.58a24.74 24.74 0 0 1 11.72-10.42 28.66 28.66 0 0 1 8.08-5.84l81.73-39.46a28.14 28.14 0 0 1 5.54-2 27.93 27.93 0 0 0 -13.2 2.82l-81.72 39.48a28.3 28.3 0 0 0 -12.73 12.23z" fill="#ffc4af"/><rect fill="#ffc4af" height="55.44" rx="9.66" transform="matrix(-.57529081 .81794895 -.81794895 -.57529081 1579.08 743.9)" width="19.32" x="586.75" y="754.19"/><path d="m329.56 575.71h85.99v134.34h-85.99z" fill="#9689e4" transform="matrix(.99815605 -.06070012 .06070012 .99815605 -38.3 23.78)"/><path d="m323.74 578.55 87.65-5.33 2.06 33.94-88.19-3.52z" fill="#8474d4"/><path d="m368.71 508.62h7.67a54.41 54.41 0 0 1 54.4 54.38v1.16a0 0 0 0 1 0 0h-116.49a0 0 0 0 1 0 0v-1.16a54.41 54.41 0 0 1 54.41-54.41z" fill="#f5a491" transform="matrix(.99815605 -.06070012 .06070012 .99815605 -31.85 23.58)"/><rect fill="#9689e4" height="59.01" rx="29.5" transform="matrix(.99815605 -.06070012 .06070012 .99815605 -33.51 23.79)" width="132.66" x="308.79" y="534.39"/><path d="m308.92 567.92a29.5 29.5 0 0 0 29.41 27.71h1.83l7.5-.47a32.55 32.55 0 0 1 2.8-59.28l-13.89.85a29.5 29.5 0 0 0 -27.65 31.19z" fill="#8474d4"/><path d="m334.92 666.09h101.4a69.8 69.8 0 0 1 69.8 69.8v19.34a50.46 50.46 0 0 1 -50.46 50.46h-107.77a13.66 13.66 0 0 1 -13.66-13.69v-125.22a.69.69 0 0 1 .69-.69z" fill="#ffd21b" transform="matrix(-.99807032 .06209375 -.06209375 -.99807032 885.24 1444.27)"/><path d="m330.95 643.19h87.18v82.54h-87.18z" fill="#ffd21b" transform="matrix(-.99807032 .06209375 -.06209375 -.99807032 790.85 1344.34)"/><path d="m328.48 646 4.72 75.95.4 6.42.81 12.87a69.79 69.79 0 0 0 74 65.34l101.22-6.3a.69.69 0 0 0 .65-.73l-.59-9.52-83.73 5.2a69.79 69.79 0 0 1 -74-65.32l-.17-2.67-.65-10.24-.4-6.43-1.74-28.52-2.32-37.2z" fill="#ffe05f"/><rect fill="#e1617f" height="42.86" rx="8.38" transform="matrix(-.52398591 .85172693 -.85172693 -.52398591 1102.46 651.7)" width="16.76" x="360.73" y="612.49"/><circle cx="352.64" cy="632.3" fill="#e1617f" r="16.51"/><rect fill="#ef948c" height="66.61" rx="23.17" transform="matrix(-.90296063 .42972328 -.42972328 -.90296063 941.05 1077.83)" width="46.34" x="325.67" y="611.86"/><rect fill="#ef948c" height="63.69" rx="8.38" transform="matrix(-.90296063 .42972328 -.42972328 -.90296063 985.2 1087.32)" width="16.76" x="361.46" y="623.04"/><g fill="#f5a491"><rect height="42.86" rx="8.38" transform="matrix(-.52398591 .85172693 -.85172693 -.52398591 1102.46 651.7)" width="16.76" x="360.73" y="612.49"/><circle cx="352.64" cy="632.3" r="16.51"/><path d="m231.47 577.46c-.29.51-.57 1-.83 1.58a24.8 24.8 0 0 0 -1.78 16.73s0 0 0 0c.09.41.2.81.32 1.2s.2.65.31 1a25.79 25.79 0 0 0 2.08 4.53c.17.28.33.56.5.83l.13.2q.3.47.63.9c.19.28.4.56.61.82l.14.19c.21.26.43.52.65.77a.19.19 0 0 0 .06.07c.24.28.5.56.76.83s.53.54.81.8a.15.15 0 0 0 .05.06q.4.39.84.75c.29.26.6.52.91.76l.95.71a26.34 26.34 0 0 0 3.61 2.13l87.78 42.45a25.23 25.23 0 0 0 6.86 2.18 24.95 24.95 0 0 0 14.85-47.08l-87.71-42.43a24.9 24.9 0 0 0 -20.8-.44 24.74 24.74 0 0 0 -11.73 10.46z"/><rect height="66.61" rx="23.17" transform="matrix(-.90296063 .42972328 -.42972328 -.90296063 941.05 1077.83)" width="46.34" x="325.67" y="611.86"/></g><path d="m231.47 577.46c-.29.51-.57 1-.83 1.58a24.8 24.8 0 0 0 -1.78 16.73s0 0 0 0c.09.41.2.81.32 1.2s.2.65.31 1a25.79 25.79 0 0 0 2.08 4.53c.17.28.33.56.5.83l.13.2q.3.47.63.9c.19.28.4.56.61.82l.14.19c.21.26.43.52.65.77a.19.19 0 0 0 .06.07c.24.28.5.56.76.83s.53.54.81.8a.15.15 0 0 0 .05.06q.4.39.84.75c.29.26.6.52.91.76l.95.71a23.85 23.85 0 0 0 3.6 2.13l84.85 41 5.19 10.9a23.16 23.16 0 0 0 27.14 12.35 23.13 23.13 0 0 1 -19.47-13.17l-3.09-6.5-2.09-4.38-10.47-5.06-65.76-31.76-8.61-4.17a24.85 24.85 0 0 1 -13.37-16.53s0 0 0 0a28.3 28.3 0 0 1 6.66-28 24.74 24.74 0 0 0 -11.72 10.46z" fill="#ffc4af"/><rect fill="#f5a491" height="63.69" rx="8.38" transform="matrix(-.90296063 .42972328 -.42972328 -.90296063 985.2 1087.32)" width="16.76" x="361.46" y="623.04"/><rect fill="#ffc4af" height="28.26" rx="7.32" transform="matrix(-.90296063 .42972328 -.42972328 -.90296063 938.24 1083.78)" width="14.64" x="339.45" y="633.69"/><g fill="#7e7d9e"><path d="m445.92 659.63h4.29a4.11 4.11 0 0 1 4.11 4.11v2.39a0 0 0 0 1 0 0h-12.51a0 0 0 0 1 0 0v-2.39a4.11 4.11 0 0 1 4.11-4.11z"/><path d="m433.42 659.63h4.29a4.11 4.11 0 0 1 4.11 4.11v2.39a0 0 0 0 1 0 0h-12.51a0 0 0 0 1 0 0v-2.39a4.11 4.11 0 0 1 4.11-4.11z"/><path d="m420.91 659.63h4.29a4.11 4.11 0 0 1 4.11 4.11v2.39a0 0 0 0 1 0 0h-12.51a0 0 0 0 1 0 0v-2.39a4.11 4.11 0 0 1 4.11-4.11z"/></g><rect fill="#4f4e6d" height="10.19" rx="5.09" width="142.73" x="403.6" y="662.6"/><path d="m453.57 672.79h119.09a10.9 10.9 0 0 0 10.57-8.23l23.2-92.22a10.89 10.89 0 0 0 -10.56-13.56h-105.11a10.9 10.9 0 0 0 -10.57 8.22z" fill="#64617f"/><path d="m606.44 572.34-23.21 92.22a10.91 10.91 0 0 1 -10.57 8.23h-120.94l2.57-10.19h95.94a10.9 10.9 0 0 0 10.57-8.23l23.2-92.22a10.53 10.53 0 0 0 .31-3.37h11.56a10.91 10.91 0 0 1 10.57 13.56z" fill="#4f4e6d"/><path d="m525.12 614.3a10.59 10.59 0 0 0 19.9 5.05 10.62 10.62 0 0 1 -14.85-9.7 10.7 10.7 0 0 1 1.27-5 10.56 10.56 0 0 0 -6.32 9.65z" fill="#7e7d9e"/><path d="m424.1 771c1.57.07 3.15.08 4.74 0l47.7-1.81a5.13 5.13 0 1 0 -.39-10.26l-47.7 1.81a46.8 46.8 0 0 1 -47.16-35.74l-6.53-27.24a5.14 5.14 0 0 0 -10 2.39l6.54 27.24a57.11 57.11 0 0 0 52.8 43.61z" fill="#ffe05f"/><path d="m619.45 878h125.66a4.86 4.86 0 0 1 4.86 4.86 19 19 0 0 1 -19 19h-97.42a19 19 0 0 1 -19-19 4.86 4.86 0 0 1 4.86-4.86z" fill="#9689e4" transform="matrix(-.9268566 -.37541557 .37541557 -.9268566 980.68 1970.74)"/><path d="m657 881.66 87.31 35.34a47.08 47.08 0 0 0 -87.31-35.34z" fill="#9689e4"/><path d="m710.87 853.38a47.11 47.11 0 0 1 19.07 57.82l14.36 5.8a47.12 47.12 0 0 0 -33.43-63.63z" fill="#b2aaf9"/></svg>