<svg viewBox="0 0 1000 1000" xmlns="http://www.w3.org/2000/svg"><path d="m972.14 640.48v10.41a132.51 132.51 0 0 1 -63.93 113.34 127.76 127.76 0 0 1 -11.83 6.35c-.7.34-1.41.67-2.12 1a128.46 128.46 0 0 1 -15 5.71l-1.39.42a132.46 132.46 0 0 1 -38.16 5.59h-53.71a27.32 27.32 0 0 0 -27.31 27.32v101.9h-456.69v-101.91a27.26 27.26 0 0 0 -17.36-25.43c-.77-.3-1.55-.57-2.35-.81a27.18 27.18 0 0 0 -3-.68 26 26 0 0 0 -4.61-.4h-90.38c-1.43 0-2.84 0-4.26-.06a137.23 137.23 0 0 1 -32.13-4.81c-1.13-.31-2.26-.63-3.38-1a135.75 135.75 0 0 1 -20.43-8 137.24 137.24 0 0 1 -28.38-18.42q-4.53-3.81-8.71-8a137.67 137.67 0 0 1 57.52-229.07c1.12-.34 2.25-.66 3.38-1a136.81 136.81 0 0 1 35.8-4.86h106.64a35.7 35.7 0 0 0 7.29-.75l.29-.06a35.66 35.66 0 0 0 17.71-9.66 33.77 33.77 0 0 0 2.75-3.11v-.05a34.47 34.47 0 0 0 2.74-4v-.05q.58-1 1.11-2a35.55 35.55 0 0 0 3.79-15.23c0-.27 0-.54 0-.81a35.75 35.75 0 0 0 -35.76-35.75h-178.8a83.6 83.6 0 0 1 -59.11-142.76l.62-.61.26-.25a83.42 83.42 0 0 1 58.23-23.63 69.19 69.19 0 0 0 46.53-17.93c1.07-1 2.1-2 3.11-3a69 69 0 0 0 19.53-43.82c.1-1.5.15-3 .15-4.54v-70.6a27.31 27.31 0 0 1 27.31-27.32h636.57a83.62 83.62 0 0 1 80.09 59.56 84.59 84.59 0 0 1 3.52 24.05c0 2.9-.15 5.76-.43 8.58a84.6 84.6 0 0 1 -1.7 10.27 83.64 83.64 0 0 1 -81.48 64.75h-68a48.26 48.26 0 0 0 -17.39 3.21 47 47 0 0 0 -5.89 2.72 49 49 0 0 0 -18.56 18c-.6 1-1.17 2.07-1.7 3.14a48.22 48.22 0 0 0 -5 21.57v.29c0 1.5.09 3 .23 4.44a48.09 48.09 0 0 0 5 17.13c.39.77.8 1.53 1.23 2.27a48.63 48.63 0 0 0 42.18 24.46h2.43.22a62.55 62.55 0 0 1 26.12 6.88 63.2 63.2 0 0 1 29.47 32c0 .11.09.21.13.32a61.62 61.62 0 0 1 3.82 13.62 62.82 62.82 0 0 1 .82 10.15v43a41.35 41.35 0 0 0 .28 4.87 43.94 43.94 0 0 0 31 37.23l.27.08q3 .9 6.19 2c5.36 1.8 11 4 16.82 6.57l2.12 1c3.92 1.82 7.88 3.84 11.83 6.08a136.11 136.11 0 0 1 31 23.69 115.24 115.24 0 0 1 11.6 14.05c.84 1.19 1.65 2.4 2.45 3.63a112.89 112.89 0 0 1 13.13 28.38 137.49 137.49 0 0 1 5.67 40.35z" fill="#fffaf4"/><path d="m877.44 516.72c-17.89 175.58-166.17 312.57-346.44 312.57-181.88 0-331.21-139.43-346.92-317.22-.12-1.32-.23-2.63-.34-3.95h106.61a35.7 35.7 0 0 0 7.29-.75l.29-.06a35.66 35.66 0 0 0 17.71-9.66 33.77 33.77 0 0 0 2.75-3.11v-.05a34.47 34.47 0 0 0 2.74-4v-.05q.58-1 1.11-2c15.5-1.74 25-4.1 24.54-7.39-.46-3.53-8.45-6.06-20.75-7.84 0-.27 0-.54 0-.81a35.75 35.75 0 0 0 -35.76-35.75h-104.8q1.07-8.44 2.54-16.76 1.17-6.53 2.56-13c31.26.27 61 .34 61-5.16 0-7.29-32.6-11.14-56.59-13a346.86 346.86 0 0 1 11.02-33.29q3.87-10 8.32-19.7c35.84-1 73.44-1.83 104.21-3.15 39.16-1.68 67.25-4.16 66.58-8.84-.78-5.45-22.63-9.31-50.3-12-36.57-3.58-83.32-5.15-105-5.74a349.55 349.55 0 0 1 38.61-53.81 2 2 0 0 1 .19-.24c4.62-5.33 9.44-10.49 14.4-15.52 45.13-1.12 93.62-2.34 92-11.54-2.89-16.54-65-12.74-65.44-12.72q10.59-8.73 21.8-16.62 12.58-8.83 26-16.52c57.2.32 135.24 1.78 133.86-7.52-1.22-8.12-42.94-14.18-79.17-17.93a349.43 349.43 0 0 1 260.12 9c-40.53.87-89.11 3.43-93.81 10.51-5.45 8.15 73 6.69 128.21 7.15h.05q7.7 4.46 15.13 9.34c-5.4.61-9.1 1.73-8.9 3.95.34 4.08 13.74 6.3 26.66 8.51 5.26 3.95 10.32 8 15.3 12.17-20.41 4-69.92 3.89-66.58 12.77 2.19 5.87 47 6.81 88.38 7.15q7.33 7.33 14.23 15 8.76 9.79 16.76 20.25h-30.9a48.26 48.26 0 0 0 -17.39 3.21 47 47 0 0 0 -5.89 2.72 49 49 0 0 0 -18.56 18c-.6 1-1.17 2.07-1.7 3.14a48.22 48.22 0 0 0 -5 21.57v.29c0 1.5.09 3 .23 4.44a48.09 48.09 0 0 0 5 17.13c.39.77.8 1.53 1.23 2.27a48.63 48.63 0 0 0 42.18 24.46h2.43.22a62.55 62.55 0 0 1 26.12 6.88 63.2 63.2 0 0 1 29.47 32c0 .11.09.21.13.32a61.62 61.62 0 0 1 3.82 13.62 62.82 62.82 0 0 1 .82 10.15v43a41.35 41.35 0 0 0 .28 4.87 43.94 43.94 0 0 0 31 37.23l.27.08q2.9.88 6.07 1.95z" fill="#f2e1d3"/><path d="m767.46 473.52c0 136.19-110.4 246.59-246.59 246.59-124.46 0-227.38-92.2-244.19-212h13.67a35.7 35.7 0 0 0 7.29-.75l.29-.06a35.66 35.66 0 0 0 17.71-9.66 33.77 33.77 0 0 0 2.75-3.11v-.05a34.47 34.47 0 0 0 2.74-4v-.05q.58-1 1.11-2c15.5-1.74 25-4.1 24.54-7.39-.46-3.53-8.45-6.06-20.75-7.84 0-.27 0-.54 0-.81a35.75 35.75 0 0 0 -35.76-35.75h-13.27a245.16 245.16 0 0 1 41.49-104c39.16-1.68 67.25-4.16 66.58-8.84-.78-5.45-22.63-9.31-50.3-12a246 246 0 0 1 186.07-84.76c136.22-.11 246.62 110.29 246.62 246.48z" fill="#e8d1c1"/><g fill="#d6af99"><circle cx="520.87" cy="473.52" r="68.99"/><path d="m520.87 645.33c-94.73 0-171.81-77.08-171.81-171.81s77.08-171.81 171.81-171.81 171.81 77.07 171.81 171.81-77.07 171.81-171.81 171.81zm0-337.62c-91.42 0-165.81 74.38-165.81 165.81s74.39 165.81 165.81 165.81 165.81-74.39 165.81-165.81-74.38-165.81-165.81-165.81z"/><path d="m520.87 623c-82.42 0-149.47-67-149.47-149.47s67.05-149.47 149.47-149.47 149.47 67.04 149.47 149.46-67.05 149.48-149.47 149.48zm0-293.72c-79.54 0-144.25 64.71-144.25 144.25s64.71 144.25 144.25 144.25 144.25-64.71 144.25-144.25-64.71-144.26-144.25-144.26z"/></g><rect fill="#a66633" height="17.61" rx="8.8" transform="matrix(-1 0 0 -1 220.39 1842.64)" width="74.06" x="73.17" y="912.52"/><rect fill="#a66633" height="17.61" rx="8.8" transform="matrix(-1 0 0 -1 1118.73 1842.64)" width="809.94" x="154.4" y="912.52"/><rect fill="#f5a491" height="71.4" rx="35.7" transform="matrix(.70710678 -.70710678 .70710678 .70710678 -214.7 417.44)" width="204.22" x="294.43" y="432.18"/><path d="m450.52 385.92a35.5 35.5 0 0 0 -18.25 9.75l-83.88 83.9a35.7 35.7 0 0 0 -25.32 11.37c.41-.46.84-.9 1.27-1.34l93.92-93.93a35.79 35.79 0 0 1 32.26-9.75z" fill="#ffc4af"/><rect fill="#f5a491" height="71.4" rx="35.7" transform="matrix(-.55193699 -.83388582 .83388582 -.55193699 592.37 1268.06)" width="194.55" x="539.62" y="439.16"/><path d="m706.52 528.25a35.7 35.7 0 0 1 -65.42 17.66l-68-102.69a35.73 35.73 0 0 1 1.27-41.2 35.45 35.45 0 0 0 5.86 21.76l68 102.69a35.67 35.67 0 0 0 49.47 10.07 35.3 35.3 0 0 0 8.82-8.29z" fill="#ef927f"/><path d="m485.61 262.57a0 0 0 0 1 0 0v39.58a26.11 26.11 0 0 1 -26.11 26.11 0 0 0 0 1 0 0v-39.58a26.11 26.11 0 0 1 26.11-26.11z" fill="#61280b" transform="matrix(-1 0 0 -1 945.1 590.83)"/><path d="m555.41 262.57a23.61 23.61 0 0 1 23.59 23.61v42.07a0 0 0 0 1 0 0 23.61 23.61 0 0 1 -23.61-23.61v-42.07a0 0 0 0 1 .02 0z" fill="#61280b"/><path d="m262.37 715.48h531.41v196.3h-531.41z" fill="#7b5649"/><path d="m639.35 911.77-222.55-196.29h222.55z" fill="#a17c74"/><path d="m610.82 850.34h-165.49l-12.84-85.63h191.17z" fill="#936e62"/><path d="m445.33 776.92h165.49v73.42h-165.49z" fill="#c9a6a1"/><path d="m465.08 809.35h125.99v8.56h-125.99z" fill="#936e62"/><rect fill="#c9a6a1" height="25.62" rx="12.81" width="183.69" x="436.23" y="869.25"/><path d="m650.31 676.75h132.5a11 11 0 0 1 11 11v224.03a0 0 0 0 1 0 0h-154.46a0 0 0 0 1 0 0v-224.07a11 11 0 0 1 10.96-10.96z" fill="#a17c74"/><path d="m272.93 676.75h132.5a11 11 0 0 1 11 11v224.03a0 0 0 0 1 0 0h-154.43a0 0 0 0 1 0 0v-224.07a11 11 0 0 1 10.93-10.96z" fill="#a17c74"/><g fill="#936e62"><path d="m416.39 856.87v54.9h-154.39v-224.06a11 11 0 0 1 11-11h26.23v62.89a117.24 117.24 0 0 0 117.16 117.27z"/><path d="m793.78 856.87v54.9h-154.42v-224.06a11 11 0 0 1 11-11h26.23v62.89a117.23 117.23 0 0 0 117.19 117.27z"/><circle cx="721.72" cy="786.83" r="64.21"/></g><circle cx="716.57" cy="791.98" fill="#a17c74" r="59.05"/><path d="m721.72 839.55a48.49 48.49 0 1 1 0-95.13 48.49 48.49 0 0 0 0 95.13z" fill="#c9a6a1"/><circle cx="716.57" cy="791.98" fill="#7b5649" r="11.28"/><circle cx="344.33" cy="786.83" fill="#936e62" r="64.21"/><circle cx="339.18" cy="791.98" fill="#a17c74" r="59.05"/><circle cx="339.18" cy="791.98" fill="#7b5649" r="11.28"/><path d="m344.33 839.55a48.49 48.49 0 1 1 0-95.13 48.49 48.49 0 0 0 0 95.13z" fill="#c9a6a1"/><circle cx="280.93" cy="690.45" fill="#d8ba9f" r="7.62"/><circle cx="282.59" cy="690.94" fill="#a17c74" r="9.28"/><circle cx="280.93" cy="690.45" fill="#c9a6a1" r="7.62"/><path d="m288.54 690.45a7.62 7.62 0 0 1 -7.62 7.61 7.14 7.14 0 0 1 -.8 0 7.62 7.62 0 0 0 0-15.15 7.14 7.14 0 0 1 .8 0 7.62 7.62 0 0 1 7.62 7.54z" fill="#936e62"/><path d="m280.93 694.62a4.28 4.28 0 0 1 -1.19.17 4.35 4.35 0 1 1 0-8.69 4.28 4.28 0 0 1 1.19.17 4.34 4.34 0 0 0 0 8.35z" fill="#a17c74"/><circle cx="397.6" cy="690.45" fill="#d8ba9f" r="7.62"/><circle cx="399.27" cy="690.94" fill="#a17c74" r="9.28"/><circle cx="397.6" cy="690.45" fill="#c9a6a1" r="7.62"/><path d="m405.21 690.45a7.61 7.61 0 0 1 -7.61 7.61 6.91 6.91 0 0 1 -.8 0 7.62 7.62 0 0 0 0-15.15 6.91 6.91 0 0 1 .8 0 7.62 7.62 0 0 1 7.61 7.54z" fill="#936e62"/><path d="m397.6 694.62a4.23 4.23 0 0 1 -1.19.17 4.35 4.35 0 0 1 0-8.69 4.23 4.23 0 0 1 1.19.17 4.34 4.34 0 0 0 0 8.35z" fill="#a17c74"/><circle cx="280.93" cy="893.48" fill="#d8ba9f" r="7.62"/><circle cx="282.59" cy="893.97" fill="#a17c74" r="9.28"/><circle cx="280.93" cy="893.48" fill="#c9a6a1" r="7.62"/><path d="m288.54 893.48a7.62 7.62 0 0 1 -7.62 7.61 7.14 7.14 0 0 1 -.8 0 7.62 7.62 0 0 0 0-15.15 7.14 7.14 0 0 1 .8 0 7.62 7.62 0 0 1 7.62 7.54z" fill="#936e62"/><path d="m280.93 897.65a4.28 4.28 0 0 1 -1.19.17 4.35 4.35 0 1 1 0-8.69 4.28 4.28 0 0 1 1.19.17 4.34 4.34 0 0 0 0 8.35z" fill="#a17c74"/><circle cx="397.6" cy="893.48" fill="#d8ba9f" r="7.62"/><circle cx="399.27" cy="893.97" fill="#a17c74" r="9.28"/><circle cx="397.6" cy="893.48" fill="#c9a6a1" r="7.62"/><path d="m405.21 893.48a7.61 7.61 0 0 1 -7.61 7.61 6.91 6.91 0 0 1 -.8 0 7.62 7.62 0 0 0 0-15.15 6.91 6.91 0 0 1 .8 0 7.62 7.62 0 0 1 7.61 7.54z" fill="#936e62"/><path d="m397.6 897.65a4.23 4.23 0 0 1 -1.19.17 4.35 4.35 0 0 1 0-8.69 4.23 4.23 0 0 1 1.19.17 4.34 4.34 0 0 0 0 8.35z" fill="#a17c74"/><circle cx="656.57" cy="690.45" fill="#d8ba9f" r="7.62"/><circle cx="658.23" cy="690.94" fill="#a17c74" r="9.28"/><circle cx="656.57" cy="690.45" fill="#c9a6a1" r="7.62"/><path d="m664.18 690.45a7.62 7.62 0 0 1 -7.62 7.61 6.91 6.91 0 0 1 -.8 0 7.62 7.62 0 0 0 0-15.15 6.91 6.91 0 0 1 .8 0 7.62 7.62 0 0 1 7.62 7.54z" fill="#936e62"/><path d="m656.57 694.62a4.3 4.3 0 0 1 -1.2.17 4.35 4.35 0 0 1 0-8.69 4.3 4.3 0 0 1 1.2.17 4.34 4.34 0 0 0 0 8.35z" fill="#a17c74"/><circle cx="773.24" cy="690.45" fill="#d8ba9f" r="7.62"/><circle cx="774.9" cy="690.94" fill="#a17c74" r="9.28"/><circle cx="773.24" cy="690.45" fill="#c9a6a1" r="7.62"/><path d="m780.85 690.45a7.62 7.62 0 0 1 -7.62 7.61 6.85 6.85 0 0 1 -.79 0 7.62 7.62 0 0 0 0-15.15 6.85 6.85 0 0 1 .79 0 7.62 7.62 0 0 1 7.62 7.54z" fill="#936e62"/><path d="m773.24 694.62a4.23 4.23 0 0 1 -1.19.17 4.35 4.35 0 1 1 0-8.69 4.23 4.23 0 0 1 1.19.17 4.34 4.34 0 0 0 0 8.35z" fill="#a17c74"/><circle cx="656.57" cy="893.48" fill="#d8ba9f" r="7.62"/><circle cx="658.23" cy="893.97" fill="#a17c74" r="9.28"/><circle cx="656.57" cy="893.48" fill="#c9a6a1" r="7.62"/><path d="m664.18 893.48a7.62 7.62 0 0 1 -7.62 7.61 6.91 6.91 0 0 1 -.8 0 7.62 7.62 0 0 0 0-15.15 6.91 6.91 0 0 1 .8 0 7.62 7.62 0 0 1 7.62 7.54z" fill="#936e62"/><path d="m656.57 897.65a4.3 4.3 0 0 1 -1.2.17 4.35 4.35 0 0 1 0-8.69 4.3 4.3 0 0 1 1.2.17 4.34 4.34 0 0 0 0 8.35z" fill="#a17c74"/><circle cx="773.24" cy="893.48" fill="#d8ba9f" r="7.62"/><circle cx="774.9" cy="893.97" fill="#a17c74" r="9.28"/><circle cx="773.24" cy="893.48" fill="#c9a6a1" r="7.62"/><path d="m780.85 893.48a7.62 7.62 0 0 1 -7.62 7.61 6.85 6.85 0 0 1 -.79 0 7.62 7.62 0 0 0 0-15.15 6.85 6.85 0 0 1 .79 0 7.62 7.62 0 0 1 7.62 7.54z" fill="#936e62"/><path d="m773.24 897.65a4.23 4.23 0 0 1 -1.19.17 4.35 4.35 0 1 1 0-8.69 4.23 4.23 0 0 1 1.19.17 4.34 4.34 0 0 0 0 8.35z" fill="#a17c74"/><path d="m422.59 455.43h196.97v148.66h-196.97z" fill="#ffdd37"/><path d="m454.26 381.31h133.63a56.14 56.14 0 0 1 56.11 56.13 78.19 78.19 0 0 1 -78.19 78.19h-89.49a78.19 78.19 0 0 1 -78.19-78.19 56.14 56.14 0 0 1 56.13-56.13z" fill="#ffdd37"/><path d="m619.56 455.42v148.67h-88.56v-109.85c.53-.49 1-1 1.56-1.51a78 78 0 0 0 20.83-37.31z" fill="#ffc63a"/><path d="m644 437.45a77.91 77.91 0 0 1 -22.9 55.28c-.52.52-1 1-1.56 1.51a77.85 77.85 0 0 1 -53.73 21.4h-34.81v-21.4c.53-.49 1-1 1.56-1.51a77.84 77.84 0 0 0 22.9-55.28 56.14 56.14 0 0 0 -56.16-56.15h88.59a56.14 56.14 0 0 1 56.11 56.15z" fill="#ffc63a"/><path d="m546.68 324v75.15a25.61 25.61 0 0 1 -51.21 0v-75.15a25.61 25.61 0 0 1 51.21 0z" fill="#f5a491"/><rect fill="#673315" height="117.94" rx="58.97" width="271.33" x="385.41" y="599.5"/><path d="m516.85 701.18h218.15a0 0 0 0 1 0 0v98a0 0 0 0 1 0 0h-218.15a49 49 0 0 1 -49-49 49 49 0 0 1 49-49z" fill="#865234" transform="matrix(-.00698126 .99997563 -.99997563 -.00698126 1355.84 154.1)"/><path d="m650.92 662.31c.08 1.21.12 2.44.11 3.67l-1.54 218.16-20.32-.14 1.31-185.09c0-1.23 0-2.46-.1-3.67a49 49 0 0 0 -76.85-37 49 49 0 0 1 97.39 4.06z" fill="#7a4023"/><path d="m353.22 699.24h218.16a0 0 0 0 1 0 0v98a0 0 0 0 1 0 0h-218.16a49 49 0 0 1 -49-49 49 49 0 0 1 49-49z" fill="#865234" transform="matrix(.00872654 .99996192 -.99996192 .00872654 1182.19 303.94)"/><rect fill="#935c41" height="30.04" rx="15.02" transform="matrix(.00872654 .99996192 -.99996192 .00872654 1140.07 307.98)" width="132.17" x="348.6" y="714.03"/><rect fill="#935c41" height="30.04" rx="15.02" transform="matrix(-.00698126 .99997563 -.99997563 -.00698126 1338.85 165.44)" width="132.17" x="521.2" y="732.42"/><path d="m488 881.42-24.77.22-1.68-190.59a49 49 0 0 0 -70.78-43.51 49 49 0 0 1 95.32 15.73z" fill="#673315"/><g fill="#f5a491"><path d="m414.56 870.47h49.22v71.98h-49.22z" transform="matrix(-.00872654 -.99996192 .99996192 -.00872654 -463.4 1353.56)"/><path d="m578.65 872.42h49.22v71.98h-49.22z" transform="matrix(-.00698126 .99997563 -.99997563 -.00698126 1515.9 311.57)"/><path d="m487.62 583.24a35.69 35.69 0 0 1 -28.72 35l-.87.17a25.74 25.74 0 0 1 -2.62.35l-.88.07-.83.06h-.15-.79a36.75 36.75 0 0 1 -4.57-.17c-.52-.05-1-.12-1.56-.2-.79-.11-1.57-.26-2.34-.43s-1.68-.39-2.51-.64a33.7 33.7 0 0 1 -3.68-1.32 35.25 35.25 0 0 1 -5.89-3.15l-102.69-67.98a35.78 35.78 0 0 1 -15.64-34.88c.12-.85.27-1.69.46-2.52s.4-1.68.64-2.51a35.93 35.93 0 0 1 1.32-3.68c.17-.41.35-.82.53-1.21.37-.8.78-1.59 1.21-2.37s.91-1.54 1.41-2.31c.24-.34.46-.69.71-1a33 33 0 0 1 2.31-2.9c.2-.24.4-.46.6-.68a35.7 35.7 0 0 1 25.32-11.37 35.34 35.34 0 0 1 20.54 5.91l102.69 68a35.65 35.65 0 0 1 16 29.76z"/></g><path d="m458.9 618.22-.87.17c-.86.15-1.74.27-2.62.35l-.88.07-.83.06h-.15-.79a36.75 36.75 0 0 1 -4.57-.17c-.52-.05-1-.12-1.56-.2-.78-.12-1.57-.26-2.34-.43s-1.68-.39-2.51-.64a33.7 33.7 0 0 1 -3.68-1.32 35.25 35.25 0 0 1 -5.89-3.15l-102.69-67.96a35.78 35.78 0 0 1 -15.64-34.88c.12-.84.28-1.69.46-2.52s.4-1.68.64-2.51a35.93 35.93 0 0 1 1.32-3.68c.17-.41.35-.82.53-1.21.38-.8.78-1.59 1.21-2.37s.91-1.54 1.41-2.31c.24-.34.46-.69.71-1a33 33 0 0 1 2.31-2.9c.2-.24.4-.46.6-.68a35.7 35.7 0 0 1 25.32-11.37l-10 10c-.44.44-.87.88-1.27 1.34-.2.22-.41.44-.61.68a35.71 35.71 0 0 0 7.03 53.41l8.24 5.45 94.46 62.55a35.33 35.33 0 0 0 12.66 5.22z" fill="#ffc4af"/><path d="m546.68 324v67.9a54.54 54.54 0 0 1 -51.21 1.26v-69.16a25.61 25.61 0 0 1 51.21 0z" fill="#ef927f"/><path d="m489.54 950.48-91.31-4.35a45.71 45.71 0 1 1 91.31 4.35z" fill="#935c41"/><path d="m395.66 952.75 98 4.67a15.52 15.52 0 0 0 16.23-14.76 15.51 15.51 0 0 0 -16.25-16.22l-98 4.81a10.77 10.77 0 0 0 -10.22 10.24 10.77 10.77 0 0 0 10.24 11.26z" fill="#865234"/><path d="m489.54 950.48h-.32l.35-.6z" fill="#adc0fb"/><g fill="#673315"><path d="m493.63 957.42-12-.57a15.57 15.57 0 0 0 7.58-6.38h.32v-.61a15.54 15.54 0 0 0 -3.51-19.22 15.44 15.44 0 0 0 -7.26-3.49l5.47-.26 9.33-.46a15.33 15.33 0 0 1 2.72.1 15.51 15.51 0 0 1 -2.69 30.88z"/><path d="m489.54 950.48h-.32l.35-.6z"/><path d="m484.27 926.9-5.47.26-12.71.63-.22-.4a45.69 45.69 0 0 0 -32.37-23.6 45.06 45.06 0 0 1 12.56-1.14 45.64 45.64 0 0 1 38.21 24.25z"/></g><path d="m647.18 947-91.32-4.22a45.71 45.71 0 0 1 91.32 4.22z" fill="#935c41"/><path d="m553.3 949.41 98 4.53a15.51 15.51 0 0 0 16.21-14.77 15.52 15.52 0 0 0 -16.3-16.17l-98 5a10.76 10.76 0 0 0 -10.2 10.25 10.76 10.76 0 0 0 10.29 11.16z" fill="#865234"/><path d="m647.18 947h-.32c.12-.2.24-.4.35-.6z" fill="#adc0fb"/><g fill="#673315"><path d="m651.28 954-12-.55a15.64 15.64 0 0 0 7.57-6.4h.32v-.61a15.53 15.53 0 0 0 -10.8-22.69l5.47-.27 9.33-.48a16.22 16.22 0 0 1 2.71.1 15.51 15.51 0 0 1 -2.6 30.9z"/><path d="m647.18 947h-.32c.12-.2.24-.4.35-.6z"/><path d="m641.88 923.44-5.47.27-12.71.65-.22-.41a45.69 45.69 0 0 0 -32.4-23.55 45.71 45.71 0 0 1 50.8 23z"/></g><rect fill="#f5a491" height="144.75" rx="54.49" transform="matrix(.99993762 .01116987 -.01116987 .99993762 3.57 -5.81)" width="108.98" x="465.61" y="243.14"/><path d="m550.46 309.42a8 8 0 1 1 -16.08 0 8.7 8.7 0 0 1 .18-1.71 8 8 0 0 0 15.72 0 8.7 8.7 0 0 1 .18 1.71z" fill="#374453"/><path d="m505.82 309.42a8 8 0 1 1 -15.89-1.71 8 8 0 0 0 15.71 0 8 8 0 0 1 .18 1.71z" fill="#374453"/><path d="m589.31 322.81a21.13 21.13 0 0 1 -17.4 17.5 2.94 2.94 0 0 1 -3.45-2.89v-35.89a2.91 2.91 0 0 1 3.31-2.91 21.11 21.11 0 0 1 17.54 24.19z" fill="#f5a491"/><path d="m500.28 226.28h83.35a8.26 8.26 0 0 1 8.26 8.26v1.46a52.14 52.14 0 0 1 -52.14 52.14h-83.35a8.26 8.26 0 0 1 -8.26-8.26v-1.42a52.14 52.14 0 0 1 52.14-52.14z" fill="#61280b"/><path d="m489.14 238.5h63.31a6.5 6.5 0 0 1 6.5 6.5v2.1a41 41 0 0 1 -41 41h-63.31a6.5 6.5 0 0 1 -6.5-6.5v-2.1a41 41 0 0 1 41-41z" fill="#673315"/><ellipse cx="462.47" cy="584.42" fill="#f5a491" rx="39.16" ry="49.91" transform="matrix(.22069744 -.97534232 .97534232 .22069744 -209.6 906.51)"/><ellipse cx="448.14" cy="593.29" fill="#ffc4af" rx="19.58" ry="24.96" transform="matrix(.22069744 -.97534232 .97534232 .22069744 -229.42 899.46)"/><rect fill="#f5a491" height="71.4" rx="35.7" transform="matrix(.40322589 -.91510048 .91510048 .40322589 -9.46 916.37)" width="204.22" x="595.79" y="429.73"/><ellipse cx="728.86" cy="383.82" fill="#f5a491" rx="39.16" ry="49.91" transform="matrix(.99994333 -.01064631 .01064631 .99994333 -4.02 7.74)"/><path d="m763.63 361.09a61.63 61.63 0 0 1 .57 7.87 60.33 60.33 0 0 1 -5.26 25.65 51.72 51.72 0 0 1 -4.63 8.12c-.24.63-.49 1.26-.77 1.89l-11.61 26.38-41.93 95.17a35.71 35.71 0 0 1 -64.53 1.72 35.7 35.7 0 0 0 68.34 12.71l53.56-121.53c.28-.63.54-1.25.76-1.89 6.28-8.94 10-20.8 9.9-33.78a61.14 61.14 0 0 0 -4.4-22.31z" fill="#ffc4af"/><rect fill="#f5a491" height="71.61" rx="13.6" transform="matrix(.99789303 -.06488064 .06488064 .99789303 -19.87 47.56)" width="27.21" x="707.9" y="293.58"/><rect fill="#f5a491" height="71.61" rx="13.6" transform="matrix(.84572782 .53361452 -.53361452 .84572782 302.25 -351.95)" width="27.21" x="746.16" y="310.91"/><path d="m531.87 330a11.74 11.74 0 0 1 -3.58 8.3c-.27.27-.56.52-.85.76a11.8 11.8 0 0 1 -7.55 2.58h-.48a11.66 11.66 0 0 1 -6.93-2.37 11.8 11.8 0 0 1 -4.68-8.64 8 8 0 0 1 0-1 2.27 2.27 0 0 1 2.32-2.25l19.53.29a2.27 2.27 0 0 1 2.22 2.33z" fill="#962f4a"/><path d="m519.67 339.86a9.94 9.94 0 0 1 -.2 1.82h-.07a11.81 11.81 0 0 1 -11.6-11 9.05 9.05 0 0 1 2.62-.33 9.38 9.38 0 0 1 9.25 9.51z" fill="#e1617f"/><path d="m529.18 327.71c-.12 2.32-3.72 4.12-8.12 4.05s-7.94-2-8-4.29z" fill="#fff"/><path d="m527.43 339.1a11.77 11.77 0 0 1 -7.55 2.58h-.48a11.73 11.73 0 0 1 -6.92-2.38c1.19-2.42 4.18-4.11 7.65-4.05a8.38 8.38 0 0 1 7.3 3.85z" fill="#fff"/><circle cx="467.11" cy="319.47" fill="#f5a491" r="21.11"/><g fill="#936e62"><circle cx="842.39" cy="597.03" r="10.66"/><rect height="49.7" rx="4.55" transform="matrix(.95340153 .30170436 -.30170436 .95340153 213.39 -227.2)" width="9.1" x="837.7" y="552.39"/><circle cx="807.47" cy="581.11" r="10.66"/><rect height="38.76" rx="4.01" transform="matrix(.95340153 .30170436 -.30170436 .95340153 207.68 -216.87)" width="8.02" x="801.93" y="544.54"/><rect height="52.35" rx="5.23" transform="matrix(-.16212052 .98677097 -.98677097 -.16212052 1508.76 -177.31)" width="10.45" x="824.44" y="525.78"/><circle cx="432.26" cy="113.25" r="6.88"/><rect height="32.1" rx="2.94" transform="matrix(.95340153 .30170436 -.30170436 .95340153 50.45 -125.7)" width="5.88" x="429.23" y="84.42"/><circle cx="409.71" cy="102.97" r="6.88"/><rect height="25.03" rx="2.59" transform="matrix(.95340153 .30170436 -.30170436 .95340153 46.76 -119.02)" width="5.18" x="406.13" y="79.35"/><rect height="33.81" rx="3.38" transform="matrix(-.16212052 .98677097 -.98677097 -.16212052 575.78 -320.67)" width="6.75" x="420.67" y="67.23"/><circle cx="766.79" cy="88.44" r="9.11"/><rect height="42.46" rx="3.89" transform="matrix(.95340153 .30170436 -.30170436 .95340153 57.3 -227.96)" width="7.78" x="762.78" y="50.3"/><circle cx="736.95" cy="74.84" r="9.11"/><rect height="33.11" rx="3.42" transform="matrix(.95340153 .30170436 -.30170436 .95340153 52.42 -219.13)" width="6.85" x="732.22" y="43.6"/><rect height="44.72" rx="4.47" transform="matrix(-.16212052 .98677097 -.98677097 -.16212052 927.67 -687.91)" width="8.93" x="751.45" y="27.57"/><circle cx="221.44" cy="561.37" r="13.33"/><rect height="62.13" rx="5.69" transform="matrix(-.95340153 .30170436 -.30170436 -.95340153 594.8 981.38)" width="11.38" x="215.93" y="505.56"/><circle cx="265.1" cy="541.47" r="13.33"/><rect height="48.45" rx="5.01" transform="matrix(-.95340153 .30170436 -.30170436 -.95340153 678.47 935.16)" width="10.02" x="262.01" y="495.75"/><rect height="65.45" rx="6.53" transform="matrix(.16212052 .98677097 -.98677097 .16212052 697.23 188.96)" width="13.07" x="230.82" y="472.29"/></g><g fill="#ef927f"><path d="m456.35 319.62a9.41 9.41 0 0 0 6 8.52 2.69 2.69 0 0 0 3.58-2.64l-.31-12.22a2.73 2.73 0 0 0 -3.95-2.36 9.43 9.43 0 0 0 -5.32 8.7z"/><path d="m582.63 319.62a9.4 9.4 0 0 1 -6 8.52 2.69 2.69 0 0 1 -3.58-2.64l.31-12.22a2.74 2.74 0 0 1 4-2.36 9.42 9.42 0 0 1 5.27 8.7z"/></g></svg>