<svg viewBox="0 0 1000 1000" xmlns="http://www.w3.org/2000/svg"><path d="m972.14 624.35v10.41a132.51 132.51 0 0 1 -63.93 113.34 127.76 127.76 0 0 1 -11.83 6.35c-.7.34-1.41.67-2.12 1a128.46 128.46 0 0 1 -15 5.71l-1.39.42a132.46 132.46 0 0 1 -38.16 5.59h-53.71a27.32 27.32 0 0 0 -27.31 27.32v101.9h-456.69v-101.91a27.26 27.26 0 0 0 -17.36-25.43c-.77-.3-1.55-.57-2.35-.81a27.18 27.18 0 0 0 -3-.68 26 26 0 0 0 -4.61-.4h-90.38c-1.43 0-2.84 0-4.26-.06a137.23 137.23 0 0 1 -32.13-4.81c-1.13-.31-2.26-.63-3.38-1a135.75 135.75 0 0 1 -20.43-8 137.24 137.24 0 0 1 -28.38-18.46q-4.53-3.81-8.71-8a137.67 137.67 0 0 1 57.52-229.07c1.12-.34 2.25-.66 3.38-1a137.34 137.34 0 0 1 36.39-4.76h106.05a35.7 35.7 0 0 0 7.29-.75l.29-.06a35.66 35.66 0 0 0 17.71-9.66 33.77 33.77 0 0 0 2.75-3.11v-.05a34.47 34.47 0 0 0 2.74-4v-.05a35.75 35.75 0 0 0 -30.85-53.83h-178.81a83.6 83.6 0 0 1 -59.11-142.78l.62-.61.26-.25a83.42 83.42 0 0 1 58.23-23.63 69.19 69.19 0 0 0 46.53-17.93c1.07-1 2.1-2 3.11-3a69 69 0 0 0 19.53-43.82c.1-1.5.15-3 .15-4.54a97.92 97.92 0 0 1 97.9-97.93h566a83.62 83.62 0 0 1 80.09 59.56 84.59 84.59 0 0 1 3.52 24.05c0 2.9-.15 5.76-.43 8.58a84.6 84.6 0 0 1 -1.7 10.27 83.64 83.64 0 0 1 -81.48 64.75h-68a48.26 48.26 0 0 0 -17.39 3.21 47 47 0 0 0 -5.89 2.72 49 49 0 0 0 -18.56 18c-.6 1-1.17 2.07-1.7 3.14a48.22 48.22 0 0 0 -5 21.57v.29c0 1.5.09 3 .23 4.44a48.09 48.09 0 0 0 5 17.13 48.61 48.61 0 0 0 43.41 26.73h2.43.22a62.55 62.55 0 0 1 26.12 6.88 63.2 63.2 0 0 1 29.47 32c0 .11.09.21.13.32a61.62 61.62 0 0 1 3.82 13.62 62.82 62.82 0 0 1 .82 10.15v43a41.35 41.35 0 0 0 .28 4.87 43.94 43.94 0 0 0 31 37.23l.27.08a190 190 0 0 1 23 8.54l2.12 1c3.92 1.82 7.88 3.84 11.83 6.08 16.62 9.4 33 22.68 45.08 41.37a112.89 112.89 0 0 1 13.04 28.42 137.49 137.49 0 0 1 5.72 40.35z" fill="#f3f4fe"/><g opacity=".6"><path d="m573.4 340.1v556.31h-251.33-20.07v-101.93a27.26 27.26 0 0 0 -17.36-25.43c-.77-.3-1.55-.57-2.35-.81a27.18 27.18 0 0 0 -3-.68 26 26 0 0 0 -4.61-.4h-90.38c-1.43 0-2.84 0-4.26-.06a137.23 137.23 0 0 1 -32.13-4.81c-1.13-.31-2.26-.63-3.38-1v-263.5c1.12-.34 2.25-.66 3.38-1a137.34 137.34 0 0 1 36.39-4.79h100.4v-.81h13.23a35.66 35.66 0 0 0 17.71-9.66 33.77 33.77 0 0 0 2.75-3.11v-.05l2.74-4v-.05a35.75 35.75 0 0 0 -30.85-53.83h-145.75v-156.49h51.47v-36.45l52.5-52.5v130.89h23.76v-55.11l45.74-10.33 44.61 23.88 19.19 10.27 4.58 2.45 8.23 4.41 18.09 9.68h88.48l48.26 32.7 16 10.87z" fill="#ebecfd"/><g fill="#d9dcfb"><path d="m244.29 371.14v49.3h-99.76v-85.78h33.01z"/><path d="m244.29 492v275.16h-60c-1.43 0-2.84 0-4.26-.06a137.23 137.23 0 0 1 -32.13-4.81c-1.13-.31-2.26-.63-3.38-1v-263.5c1.12-.34 2.25-.66 3.38-1a137.34 137.34 0 0 1 36.4-4.79z"/><path d="m463.18 291.19h38.03v605.22h-38.03z"/></g><path d="m908.21 514.21v233.89a127.76 127.76 0 0 1 -11.83 6.35c-.7.34-1.41.67-2.12 1a128.46 128.46 0 0 1 -15 5.71l-1.39.42a132.46 132.46 0 0 1 -38.16 5.59h-34.22v-409.82a63.2 63.2 0 0 1 29.47 32c0 .11.09.21.13.32a61.62 61.62 0 0 1 3.82 13.62 62.82 62.82 0 0 1 .82 10.15v43a41.35 41.35 0 0 0 .28 4.87 43.94 43.94 0 0 0 31 37.23l.27.08a190 190 0 0 1 23 8.54l2.12 1c3.9 1.84 7.86 3.84 11.81 6.05z" fill="#ebecfd"/><path d="m805.49 357.35v409.81h-19.49a27.32 27.32 0 0 0 -27.31 27.32v101.91h-3.69v-531.46l24.12-14.47h.22a62.55 62.55 0 0 1 26.15 6.89z" fill="#d9dcfb"/><path d="m697.59 295.85-48.12 20.18v580.38h48.12z" fill="#ebecfd"/><path d="m733.3 323.68v572.73h-35.71v-600.56l28.11 9.78 2.64.91a48.09 48.09 0 0 0 4.96 17.14z" fill="#d9dcfb"/><g fill="#f1f2fd"><path d="m284.7 315.24h125.6v13.44h-125.6z"/><path d="m563.13 392.26-53.62-1.73v-68.58l53.62 36.06z"/><path d="m284.7 359.21h125.6v13.44h-125.6z"/><path d="m284.7 403.19h125.6v13.44h-125.6z"/><path d="m410.3 447.16v13.44h-84.46a35.86 35.86 0 0 0 -.89-13.44z"/><path d="m284.7 491.14h125.6v13.43h-125.6z"/><path d="m284.7 535.11h125.6v13.44h-125.6z"/><path d="m284.7 579.08h125.6v13.44h-125.6z"/><path d="m284.7 623.06h125.6v13.44h-125.6z"/><path d="m284.7 667.03h125.6v13.44h-125.6z"/><path d="m284.7 711h125.6v13.44h-125.6z"/><path d="m284.7 754.98h125.6v13.44h-125.6z"/><path d="m301.97 798.96h108.33v13.43h-108.33z"/><path d="m301.97 842.93h108.33v13.44h-108.33z"/><path d="m509.51 412.15h53.61v108.71h-53.61z"/><path d="m509.51 545.88h53.61v108.71h-53.61z"/><path d="m509.51 679.62h53.61v108.71h-53.61z"/><path d="m509.51 805.67h53.61v66.22h-53.61z"/><path d="m655.71 348.81h34.96v-39.86l-34.96 16.41z"/><path d="m838.91 403.28h-14.18v-13.62h10.36a61.62 61.62 0 0 1 3.82 13.62z"/><path d="m824.73 425.48h15v13.63h-15z"/><path d="m843.81 474.94h-19.08v-13.63h15.27a43.31 43.31 0 0 0 3.81 13.63z"/><path d="m824.73 497.14h25.13v13.62h-25.13z"/><path d="m896.38 508.13v2.64h-25.13v-12.15a190 190 0 0 1 23 8.54z"/><path d="m824.73 532.97h25.13v13.62h-25.13z"/><path d="m871.25 532.97h25.13v13.62h-25.13z"/><path d="m824.73 568.8h25.13v13.62h-25.13z"/><path d="m871.25 568.8h25.13v13.62h-25.13z"/><path d="m824.73 604.63h25.13v13.62h-25.13z"/><path d="m871.25 604.63h25.13v13.62h-25.13z"/><path d="m824.73 640.45h25.13v13.62h-25.13z"/><path d="m871.25 640.45h25.13v13.62h-25.13z"/><path d="m824.73 676.28h25.13v13.62h-25.13z"/><path d="m871.25 676.28h25.13v13.62h-25.13z"/><path d="m824.73 712.11h25.13v13.62h-25.13z"/><path d="m871.25 712.11h25.13v13.62h-25.13z"/><path d="m824.73 747.94h25.13v13.62h-25.13z"/><path d="m896.38 747.94v6.51c-.7.34-1.41.67-2.12 1a128.46 128.46 0 0 1 -15 5.71l-1.39.42h-6.64v-13.64z"/><path d="m655.71 360.63h34.96v19.6h-34.96z"/><path d="m655.71 394.17h12.85v19.6h-12.85z"/><path d="m677.83 394.17h12.85v19.6h-12.85z"/><path d="m655.71 432.9h34.96v19.6h-34.96z"/><path d="m655.71 466.43h12.85v19.6h-12.85z"/><path d="m677.83 466.43h12.85v19.6h-12.85z"/><path d="m655.71 505.16h34.96v19.6h-34.96z"/><path d="m655.71 538.69h12.85v19.6h-12.85z"/><path d="m677.83 538.69h12.85v19.6h-12.85z"/><path d="m655.71 576.85h34.96v19.6h-34.96z"/><path d="m655.71 610.39h12.85v19.6h-12.85z"/><path d="m677.83 610.39h12.85v19.6h-12.85z"/><path d="m655.71 648.55h34.96v19.6h-34.96z"/><path d="m655.71 682.08h12.85v19.6h-12.85z"/><path d="m677.83 682.08h12.85v19.6h-12.85z"/><path d="m655.71 720.24h34.96v19.6h-34.96z"/><path d="m655.71 753.77h12.85v19.6h-12.85z"/><path d="m677.83 753.77h12.85v19.6h-12.85z"/><path d="m655.71 791.93h34.96v19.6h-34.96z"/><path d="m655.71 825.46h12.85v19.6h-12.85z"/><path d="m677.83 825.46h12.85v19.6h-12.85z"/></g><g fill="#fff"><path d="m711.53 86-52.94 78.35-12.82 18.75-55.59 81.27-8.7 12.72-32 46.79-11.7 17.12-28.27 41.34-8.3 12.13-38 55.6-58.21 85.04-9.19 13.44-1.16 1.69-12.82 18.76-6.92 10.12-9.19 13.43-20.89 30.54-9.19 13.44-20.89 30.47-9.19 13.44-59.3 86.69h-62c-1.43 0-2.84 0-4.26-.06a137.23 137.23 0 0 1 -32.13-4.81c-1.13-.31-2.26-.63-3.38-1v-28.71l99.76-145.84 56.18-82.14 9.19-13.43 8.73-12.77v-.05l2.74-4v-.05l9.35-13.67 9.19-13.44 20.89-30.53 9.19-13.44 12-17.56 8.88-13 3.93-5.75 5.26-7.69 46.53-68 9.64-14.09 8.7-12.72 121.47-178.38z" opacity=".51"/><path d="m795 86-121.31 178.38-8.69 12.72-6.4 9.35-12.82 18.74-72.38 105.81-10.28 15-53.61 78.37-8.3 12.14-38 55.6-64.95 94.89-3.62 5.3-5.57 8.14-7.24 10.58-13.65 20-9.18 13.42-20.9 30.56-9.19 13.44-20.91 30.56-6 8.84v-13.36a27.26 27.26 0 0 0 -17.36-25.43c-.77-.3-1.55-.57-2.35-.81a27.18 27.18 0 0 0 -3-.68 26 26 0 0 0 -4.61-.4h-4.91l29.23-42.72 9.15-13.44 20.85-30.53 9.23-13.47 20.89-30.53 9.19-13.44 13.52-19.77 7.37-10.77 5.44-7.95 3.75-5.48 64.79-94.72 38-55.6 8.3-12.14 3.07-4.48 14.4-21 26.89-39.31 11.65-17 39.51-57.71 8.7-12.72 32.11-46.95 12.82-18.74 76.37-112.69z" opacity=".51"/><path d="m872.51 90.76-113.19 165.67a47 47 0 0 0 -5.89 2.72 49 49 0 0 0 -18.56 18c-.6 1-1.17 2.07-1.7 3.14a48.22 48.22 0 0 0 -5 21.57v.29l-2.41 3.53-28.11 41.15-9.47 13.86-13.39 19.6-9.52 13.93-6.62 9.69-2.88 4.21-6.24 9.14-3.7 5.41-72.43 105.88-11.84 17.33-52 76.18-8.3 12.15-38 55.66-52.88 77.4-.78 1.15-14.88 21.77-6 8.77-6.82 10-2.36 3.45-20.86 30.54-9.18 13.44-27.35 40h-20.15v-24.83l10.38-15.19 9.18-13.44 20.86-30.54 9.15-13.39 20.87-30.54 9.18-13.46.21-.31 12.81-18.75 7.84-11.48 7.82-11.46 52.88-77.4 38-55.66 8.3-12.15 15-21.91 17.1-25 21.54-31.53 10.28-15 72.37-105.93 3.7-5.42 9.12-13.34.53-.78 25.2-36.88 10.07-14.74 13.72-20.09 8.69-12.72 121.87-178.45h6a83.34 83.34 0 0 1 27.84 4.76z" opacity=".51"/></g><g fill="#969ecc"><path d="m745.73 264.38a48.62 48.62 0 0 0 -10.87 12.72h-681.86l.26-.25a83.05 83.05 0 0 1 16.49-12.47z"/><path d="m645.77 86.01h12.82v810.4h-12.82z"/><path d="m381.83 86.01h12.82v810.4h-12.82z"/></g></g><rect fill="#d2d6fa" height="17.61" rx="8.8" transform="matrix(-1 0 0 -1 221.75 1810.38)" width="74.06" x="73.85" y="896.39"/><rect fill="#d2d6fa" height="17.61" rx="8.8" transform="matrix(-1 0 0 -1 1120.09 1810.38)" width="809.94" x="155.08" y="896.39"/><path d="m288.55 686.79h391.19v28.04h-391.19z" fill="#7986bf" transform="matrix(0 1 -1 0 1184.96 216.66)"/><path d="m460.51 514.83h47.27v28.04h-47.27z" fill="#57669b" transform="matrix(0 1 -1 0 1013 44.7)"/><path d="m725.22 505.22a14 14 0 0 1 -14 14h-609.17a136.8 136.8 0 0 1 42.48-21.45c1.12-.34 2.25-.66 3.38-1a137.34 137.34 0 0 1 36.39-4.77h106.05a35.7 35.7 0 0 0 7.29-.75h413.56a14 14 0 0 1 14 14z" fill="#7986bf"/><path d="m838.22 744a40.74 40.74 0 0 1 40.78 40.75v22.25a0 0 0 0 1 0 0 40.74 40.74 0 0 1 -40.74-40.74v-22.26a0 0 0 0 1 -.04 0z" fill="#969ecc" transform="matrix(.38107038 .92454603 -.92454603 .38107038 1248.39 -313.83)"/><path d="m814 710.33a40.74 40.74 0 0 1 40.74 40.74v22.23a0 0 0 0 1 0 0 40.74 40.74 0 0 1 -40.74-40.74v-22.23a0 0 0 0 1 0 0z" fill="#7986bf" transform="matrix(.92454603 .38107038 -.38107038 .92454603 345.63 -261.98)"/><path d="m836.37 744a0 0 0 0 1 0 0v22.22a40.74 40.74 0 0 1 -40.74 40.78 0 0 0 0 1 0 0v-22.25a40.74 40.74 0 0 1 40.74-40.75z" fill="#969ecc" transform="matrix(-.38107038 .92454603 -.92454603 -.38107038 1843.93 316.58)"/><path d="m908.53 825.58a72.93 72.93 0 1 1 -145.86 0 70.75 70.75 0 0 1 .48-8.41 71.61 71.61 0 0 1 1.75-9.54h141.41a73.24 73.24 0 0 1 1.74 9.54 70.75 70.75 0 0 1 .48 8.41z" fill="#969ecc"/><rect fill="#7986bf" height="19.09" rx="9.54" width="167.18" x="753.7" y="788.54"/><path d="m908.05 817.17h-144.9a71.61 71.61 0 0 1 1.75-9.54h141.41a73.24 73.24 0 0 1 1.74 9.54z" fill="#7986bf"/><path d="m545 192.86a37.64 37.64 0 0 0 -14.94 73.21c-.68 0-1.36-.12-2.05-.22a37.63 37.63 0 1 1 17-73z" fill="#01162d"/><path d="m546.69 254.36a38.41 38.41 0 0 1 -4.27 3.73 37.64 37.64 0 0 1 -45.16-60.22 39.2 39.2 0 0 1 4.77-3.05 37.64 37.64 0 0 0 44.66 59.54z" fill="#01162d"/><path d="m588.52 360.47h8a57.82 57.82 0 0 1 57.82 57.82 26.41 26.41 0 0 1 -26.41 26.41h-70.82a26.41 26.41 0 0 1 -26.41-26.41 57.82 57.82 0 0 1 57.82-57.82z" fill="#ffb2bf"/><path d="m538.87 467.07h99.1v69.15h-99.1z" fill="#fdc3cd"/><path d="m538.87 467.07h90.45v69.15h-90.45z" fill="#ffb2bf"/><path d="m538.87 467.07h99.1v28.63h-99.1z" fill="#f9a0b4"/><g fill="#ffb2bf"><path d="m629.32 467.07h8.64v28.63h-8.64z"/><path d="m851.58 882.19a18.11 18.11 0 0 0 -10-20.32l-75.09-32.72c-8.6-4-11.11 2.8-13.15 12.06l-4.34 19.51a27.67 27.67 0 0 0 27.72 33.64l57 2a18.11 18.11 0 0 0 17.86-14.17z"/><path d="m748.33 802.5h51.84v63.7h-51.84z"/></g><path d="m851.59 882.19a18.11 18.11 0 0 1 -17.16 14.18 18.09 18.09 0 0 0 -2.43-31.44l-31.84-13.86-9.54-4.17v-41.34h-42.28v-3h51.83v41.32l41.38 18a18.13 18.13 0 0 1 10.04 20.31z" fill="#fdc3cd"/><rect fill="#017aaf" height="78.98" rx="39.32" transform="matrix(.97663479 .21490579 -.21490579 .97663479 149.95 -130.27)" width="267.17" x="540.63" y="585.17"/><path d="m732.65 819.4v-171.56a39.47 39.47 0 0 1 40.57-39.46 39.47 39.47 0 0 1 38.38 39.46v172.41a11.21 11.21 0 0 1 -11.39 11.21l-56.51-.84a11.22 11.22 0 0 1 -11.05-11.22z" fill="#017aaf"/><path d="m811.6 647.84v172.4a11.23 11.23 0 0 1 -11.38 11.23l-11.43-.18a11.51 11.51 0 0 0 9.43-11.44l.16-178.05a41.1 41.1 0 0 0 -14.65-31.65 39.46 39.46 0 0 1 27.87 37.74z" fill="#0a94c4"/><path d="m858.63 369.37a28.5 28.5 0 0 1 -18.5 49.7l-155.87 2.93-50.8.95a28.5 28.5 0 0 1 -1.07-57l206.67-3.88a28.45 28.45 0 0 1 19.57 7.3z" fill="#ffb2bf"/><ellipse cx="856.16" cy="389.74" fill="#ffb2bf" rx="38.24" ry="32.22" transform="matrix(.9938841 -.1104282 .1104282 .9938841 -37.79 96.88)"/><path d="m891.56 400.67c0 .07-.07.13-.09.2a31.39 31.39 0 0 1 -2 3.62c-.09.14-.19.28-.28.43-.32.47-.67.94-1 1.41l-.25.33c-.43.55-.88 1.11-1.35 1.64-.08.1-.17.18-.25.28-.4.45-.81.89-1.23 1.31l-.38.38a38.23 38.23 0 0 1 -3.3 2.88l-.42.32c-.49.38-1 .74-1.51 1.09-.12.07-.22.16-.34.24-.62.41-1.26.82-1.92 1.21l-.32.18c-.56.33-1.14.64-1.72.94l-.46.24a39.79 39.79 0 0 1 -4.33 1.87l-.46.17c-.66.24-1.34.46-2 .68l-.28.08c-.81.23-1.61.46-2.43.65l-.23.05c-.74.17-1.51.33-2.27.46l-.38.07c-.85.14-1.71.27-2.57.37a44.56 44.56 0 0 1 -15.86-1.07h-.13-.14a41.34 41.34 0 0 1 -4.68-1.54l-187.98 3.46v-14.05l171.06-3.2 29.56-.56c12.31 10.17 39.83-2 35.8-25.48a31.12 31.12 0 0 0 -6.35-14.84c7.2 5 12.12 12.41 13.08 21a28.1 28.1 0 0 1 -2.59 15.18z" fill="#f9a0b4"/><path d="m326.39 369.37a28.5 28.5 0 0 0 18.5 49.7l155.87 2.93 50.81.95a28.5 28.5 0 0 0 1.06-57l-206.63-3.87a28.47 28.47 0 0 0 -19.61 7.29z" fill="#ffb2bf"/><ellipse cx="328.87" cy="389.74" fill="#ffb2bf" rx="32.22" ry="38.24" transform="matrix(.1104282 -.9938841 .9938841 .1104282 -94.79 673.58)"/><path d="m534 408.57v14.05l-187.83-3.53a41.34 41.34 0 0 1 -4.68 1.54h-.14-.13a44.51 44.51 0 0 1 -15.86 1.07c-.86-.1-1.72-.23-2.57-.37l-.37-.07c-.77-.13-1.53-.29-2.28-.46l-.22-.05c-.83-.19-1.63-.42-2.44-.65l-.28-.08c-.69-.22-1.37-.44-2-.68l-.45-.17a39.79 39.79 0 0 1 -4.33-1.87l-.47-.24c-.58-.3-1.16-.61-1.72-.94l-.32-.18c-.65-.39-1.29-.8-1.92-1.21-.12-.08-.22-.17-.34-.24-.51-.35-1-.71-1.51-1.09l-.42-.32a38.23 38.23 0 0 1 -3.3-2.88l-.37-.38c-.42-.42-.84-.86-1.24-1.31-.08-.1-.17-.18-.25-.28-.46-.53-.91-1.09-1.35-1.64-.08-.11-.15-.22-.24-.33-.35-.47-.68-.94-1-1.41-.09-.15-.19-.29-.27-.43a30 30 0 0 1 -2-3.62 1.11 1.11 0 0 1 -.09-.19 28.14 28.14 0 0 1 -2.61-15.17c1-8.61 5.88-16 13.08-21a31.32 31.32 0 0 0 -6.35 14.84c-4 23.51 23.49 35.65 35.8 25.48l29.56.56z" fill="#f9a0b4"/><path d="m638 527v27.1a93.44 93.44 0 0 1 -39.55 76.4c-7.54 5.33-23.17 9.52-37.11 12.37-33.4 6.84-66-17.12-67.49-51.18q-.06-1.44-.06-2.88c0-27.12 17-50.12 40.63-58.46a58.05 58.05 0 0 1 19.58-3.35z" fill="#017aaf"/><path d="m532.45 461.44h111.94a0 0 0 0 1 0 0v16.26a7.47 7.47 0 0 1 -7.47 7.47h-97a7.47 7.47 0 0 1 -7.47-7.47v-16.26a0 0 0 0 1 0 0z" fill="#4af9f9"/><rect fill="#4af9f9" height="75.58" rx="37.79" width="163.78" x="510.62" y="394.72"/><path d="m674.4 432.51a37.78 37.78 0 0 1 -30 37v8.23a7.48 7.48 0 0 1 -7.48 7.46h-18.31a7.47 7.47 0 0 0 7.47-7.46v-8.23a37.79 37.79 0 0 0 -7.78-74.77h18.32a37.8 37.8 0 0 1 37.78 37.8z" fill="#8dfffc"/><path d="m99.62 882.1a18.23 18.23 0 0 1 10.1-20.45l75.55-32.92c8.65-4 11.18 2.82 13.24 12.13l4.34 19.64a27.85 27.85 0 0 1 -27.85 33.85l-57.33 2a18.23 18.23 0 0 1 -18.05-14.25z" fill="#ffb2bf"/><path d="m294.15 812.79-53.08-32.93-35.39 28.85-78.77 55.7 68.38 10.89z" fill="#ffb2bf"/><path d="m294.14 812.79-2.39 1.5-41.67-25.84-35.39 28.85-19.45 13.75-21.53 15.22-43 18.76-12 5.21a18.23 18.23 0 0 0 -8.63 24.62 18.23 18.23 0 0 1 -.38-33.21l55-24 41-29 35.39-28.85z" fill="#fdc3cd"/><path d="m561.35 632.29-324.35 240.16a14.2 14.2 0 0 1 -19.85-3.16l-35.47-48a14.26 14.26 0 0 1 2.57-19.76l318.68-246.7c20.15-15.6 49.19-12.26 65.91 7.58 18.08 21.44 14.64 53.49-7.49 69.88z" fill="#017aaf"/><circle cx="538" cy="242.13" fill="#017cb0" r="37.63"/><circle cx="538" cy="242.13" fill="#017cb0" r="37.63"/><path d="m573.44 254.76a37.62 37.62 0 0 0 -72.31-20.12 37.62 37.62 0 1 1 72.31 20.12z" fill="#099fd3"/><path d="m587 223.09h3.58a48.13 48.13 0 0 1 48.13 48.13v41a36.7 36.7 0 0 1 -36.7 36.7h-11.75a51.41 51.41 0 0 1 -51.41-51.41v-26.29a48.13 48.13 0 0 1 48.15-48.13z" fill="#017cb0" transform="matrix(-.99647824 .08385176 -.08385176 -.99647824 1199.47 521.6)"/><path d="m572.48 336.9.92 9 2 19.47a15.76 15.76 0 1 0 31.35-3.21l-.2-2-2.72-26.45a15.77 15.77 0 0 0 -11.54-13.61 16.1 16.1 0 0 0 -3.09-.52 15.77 15.77 0 0 0 -16.72 17.32z" fill="#ffb2bf"/><path d="m572.48 336.9.92 9a52.83 52.83 0 0 0 33.15 14.22l-2.72-26.45a15.77 15.77 0 0 0 -11.54-13.61 16.1 16.1 0 0 0 -3.09-.52 15.77 15.77 0 0 0 -16.72 17.36z" fill="#f9a0b4"/><path d="m539.6 268.78 4.65 34.13a53 53 0 0 0 59.68 45.35 40.88 40.88 0 0 0 35-46l-3.93-28.69c0-.17 0-.34-.08-.52-.11-.78-.24-1.56-.4-2.33a54.9 54.9 0 0 0 -60.6-44.22l-.74.1-1.71.23a37.23 37.23 0 0 0 -31.88 41.95z" fill="#ffb2bf"/><path d="m609.08 347.21a40.91 40.91 0 0 0 21.28-41.62l-3.91-28.59c0-.18-.05-.34-.07-.52-.12-.79-.24-1.56-.41-2.33a54.89 54.89 0 0 0 -60.6-44.22c-.24 0-.49.07-.74.09l-1.7.24a32.86 32.86 0 0 0 -4.33.87 34.91 34.91 0 0 1 6-2.64 37.17 37.17 0 0 1 6.89-1.61l1.7-.23.74-.1a54.9 54.9 0 0 1 60.6 44.22c.16.78.29 1.55.41 2.34 0 .17 0 .34.07.52l3.91 28.64a40.89 40.89 0 0 1 -29.84 44.94z" fill="#fdc3cd"/><path d="m534.21 293.81 8.37-22a20.1 20.1 0 0 1 3.42-5.81l-1.2-.15c-.43-.09-2-5.68-2-6.1a1 1 0 0 1 0-.3 48.24 48.24 0 0 1 21.78-31 37.07 37.07 0 0 1 6.88-1.61l1.71-.23.74-.1a54.9 54.9 0 0 1 60.6 44.22 48.15 48.15 0 0 1 -29.59 3l-16.3-2.15a24.6 24.6 0 0 0 -26.2 15.65 20.11 20.11 0 0 1 -26 11.66 3.94 3.94 0 0 1 -2.21-5.08z" fill="#f9a0b4"/><path d="m557.21 250a5.65 5.65 0 0 1 5.65 5.65v16.35a28.83 28.83 0 0 1 -28.86 28.8h-5.65a0 0 0 0 1 0 0v-21.95a28.83 28.83 0 0 1 28.86-28.85z" fill="#017cb0" transform="matrix(-.99647824 .08385176 -.08385176 -.99647824 1112.42 504.08)"/><circle cx="544.88" cy="292.75" fill="#ffb2bf" r="16.6"/><path d="m539.21 292.37a7.11 7.11 0 0 1 4.9-6.12 2 2 0 0 1 2.57 2.16l-.82 9.18a2.06 2.06 0 0 1 -3.09 1.58 7.1 7.1 0 0 1 -3.56-6.8z" fill="#f9a0b4"/><circle cx="619.54" cy="281.77" fill="#230d30" r="3.95"/><circle cx="583.67" cy="284.79" fill="#230d30" r="3.95"/><g fill="#e1160c"><ellipse cx="608.71" cy="297.22" rx="5.34" ry="4.46" transform="matrix(.99583681 -.09115401 .09115401 .99583681 -24.57 56.75)"/><ellipse cx="600.6" cy="297.96" rx="5.34" ry="4.46" transform="matrix(.99583681 -.09115401 .09115401 .99583681 -24.67 56.01)"/><path d="m614 296.73-18.74 1.72c.36 4 4.85 6.85 10 6.37s9.13-4.1 8.74-8.09z"/></g><path d="m600.7 299.08c.13 1.38 2.14 2.32 4.49 2.11s4.16-1.51 4-2.89" fill="#ed3a3a"/><path d="m583.76 211.47h46.54a13 13 0 0 1 13 13 47.78 47.78 0 0 1 -47.78 47.78h-59.52a0 0 0 0 1 0 0v-13a47.78 47.78 0 0 1 47.78-47.78z" fill="#017cb0" transform="matrix(.99065285 .13640721 -.13640721 .99065285 38.49 -78.15)"/><path d="m583.76 211.47h46.54a13 13 0 0 1 13 13 47.78 47.78 0 0 1 -47.78 47.78h-59.52a0 0 0 0 1 0 0v-13a47.78 47.78 0 0 1 47.78-47.78z" fill="#017cb0" transform="matrix(.99065285 .13640721 -.13640721 .99065285 38.49 -78.15)"/><path d="m566.11 231.55h34.89a6 6 0 0 1 6 6 22.07 22.07 0 0 1 -22.07 22.07h-34.93a6 6 0 0 1 -6-6 22.07 22.07 0 0 1 22.11-22.07z" fill="#099fd3" transform="matrix(.99065285 .13640721 -.13640721 .99065285 38.87 -76.19)"/><path d="m645.13 231.9a47.82 47.82 0 0 1 -42.31 41 47.74 47.74 0 0 0 24.43-35.42 13 13 0 0 0 -11.07-14.6l-46.1-6.35a48.65 48.65 0 0 0 -11.55-.19 47.48 47.48 0 0 1 29.47-5.34l46.1 6.35a13 13 0 0 1 11.03 14.55z" fill="#099fd3"/><g fill="#fdc3cd"><rect height="9.61" rx="4.8" transform="matrix(.9998567 -.01692889 .01692889 .9998567 -6.29 12.84)" width="141.3" x="680.73" y="371.24"/><rect height="9.61" rx="4.8" transform="matrix(-.9998567 -.01692889 .01692889 -.9998567 853 759.34)" width="141.3" x="359.08" y="371.24"/></g></svg>