<svg viewBox="0 0 1000 1000" xmlns="http://www.w3.org/2000/svg"><path d="m980 636.62v13.15a79.23 79.23 0 0 1 -71.22 78.8c-2.49.24-5 .37-7.53.38h-.43a45.65 45.65 0 0 0 -32.38 13.43c-.39.38-.76.76-1.12 1.17a45.64 45.64 0 0 0 -12.32 31.21v68.62a62.13 62.13 0 0 1 -40.36 58.22 59.62 59.62 0 0 1 -7.53 2.3c-1.54.36-3.11.67-4.69.91a62 62 0 0 1 -9.59.74h-687.07c-47.37 0-85.76-30.93-85.76-92.47a87.72 87.72 0 0 1 .64-10.57 85.81 85.81 0 0 1 85.12-75.2h22.66a45.77 45.77 0 0 0 45.8-45.79v-16.94a107.26 107.26 0 0 1 68.28-99.86c2.46-1 5-1.85 7.52-2.6a106 106 0 0 1 26.51-4.57c1.6-.08 3.22-.11 4.83-.11a45.79 45.79 0 1 0 0-91.58h-117.36q-4.11 0-8.13-.35c-2.55-.21-5-.51-7.52-.92a95.56 95.56 0 0 1 -27.06-8.69 96.47 96.47 0 0 1 27.06-181.67c2.48-.41 5-.72 7.52-.92s5.38-.35 8.13-.35h147a45.8 45.8 0 0 0 45.79-45.8 52.38 52.38 0 0 1 47.42-52.16c1.62-.16 3.27-.24 4.93-.24h13.64a46.24 46.24 0 0 0 7.94-.68 44.82 44.82 0 0 0 7.51-2 42.67 42.67 0 0 0 6.24-2.79 45.72 45.72 0 0 0 24.06-38.17c0-.72.05-1.44.05-2.17v-6.58a45.81 45.81 0 0 1 45.8-45.79h265.25a45.6 45.6 0 0 1 27.51 9.17 46.23 46.23 0 0 1 7.53 7.13l.06.07a45.74 45.74 0 0 1 10.7 29.42v6.63 2.17a45.63 45.63 0 0 1 -3.71 16 45.87 45.87 0 0 1 -14.53 18.45 44.36 44.36 0 0 1 -5.83 3.73 45.45 45.45 0 0 1 -21.68 5.45h-20.28a45.94 45.94 0 0 0 -38.84 21.55 44.78 44.78 0 0 0 -5.06 11.17 45.91 45.91 0 0 0 -1.9 13.08v6.58a45.77 45.77 0 0 0 7 24.25 45.72 45.72 0 0 0 38.8 21.57h124.16a96.28 96.28 0 0 1 17.69 1.63c2.55.46 5 1 7.53 1.71a96.48 96.48 0 0 1 0 186.22c-2.48.68-5 1.24-7.53 1.7a96.36 96.36 0 0 1 -17.69 1.64h-60a44.77 44.77 0 0 0 -8.87.86 43.35 43.35 0 0 0 -7.53 2.15 49.1 49.1 0 0 0 -4.79 2.17 46.2 46.2 0 0 0 -7.85 5.19 45.66 45.66 0 0 0 -16.75 35.41v1a45.87 45.87 0 0 0 29.39 41.79 47.17 47.17 0 0 0 7.53 2.15 46.24 46.24 0 0 0 8.87.86h77.71a74.85 74.85 0 0 1 7.53.4 78.21 78.21 0 0 1 14.2 2.75c.67.18 1.33.39 2 .6a79.23 79.23 0 0 1 55 75.39z" fill="#f3f4fe"/><rect fill="#d2d6fa" height="18.58" rx="9.29" width="78.14" x="892.98" y="904.81"/><rect fill="#d2d6fa" height="18.58" rx="9.29" width="854.51" x="30.9" y="904.81"/><path d="m867.32 743.55a45.64 45.64 0 0 0 -12.32 31.21v68.62a62.13 62.13 0 0 1 -40.36 58.22 59.62 59.62 0 0 1 -7.53 2.3c-1.54.36-3.11.67-4.69.91h-681.09v-512.94a14 14 0 0 1 14-14h88.15a20.28 20.28 0 0 1 20.29 19.17 367 367 0 0 0 5.23 45.58c.54 3 1.1 6 1.72 9s1.25 5.94 1.93 8.89c.42 1.8.84 3.59 1.28 5.39a364.75 364.75 0 0 0 67.34 137.79q4.06 5.16 8.32 10.2 5.65 6.71 11.65 13.13 3 3.21 6.05 6.35c1 1 2.05 2.08 3.09 3.12q6.19 6.21 12.7 12.1 3.24 3 6.56 5.83a366.87 366.87 0 0 0 65 45q3.88 2.12 7.83 4.12 5.91 3 11.95 5.85c2.69 1.26 5.38 2.48 8.09 3.67a364.38 364.38 0 0 0 55 19c2.92.74 5.86 1.46 8.8 2.15s5.92 1.32 8.89 1.93 6 1.18 9 1.71a367 367 0 0 0 64.72 5.72z" fill="#7986bf"/><path d="m867.32 743.55a45.64 45.64 0 0 0 -12.32 31.21v68.62a61.93 61.93 0 0 1 -5.23 25 69.12 69.12 0 0 0 -58.65-32.61h-219.3a365.91 365.91 0 0 1 -350.18-260.14q-4.54-15-7.78-30.55a94.42 94.42 0 0 0 -92.53-75v-78.64a13.55 13.55 0 0 1 13.55-13.55h90.12a18.72 18.72 0 0 1 18.68 17.88 364.71 364.71 0 0 0 5.32 46.85c.54 3 1.1 6 1.72 9s1.25 5.94 1.93 8.89c.42 1.8.84 3.59 1.29 5.39a364.75 364.75 0 0 0 67.34 137.79q4.06 5.18 8.32 10.2 5.65 6.71 11.65 13.13 3 3.21 6.05 6.35c1 1 2.05 2.08 3.09 3.12q6.19 6.21 12.7 12.1 3.24 3 6.56 5.83a366.87 366.87 0 0 0 65 45q3.88 2.12 7.83 4.12 5.91 3 11.95 5.85c2.69 1.26 5.38 2.48 8.09 3.67a364.38 364.38 0 0 0 55 19c2.92.74 5.86 1.46 8.8 2.15s5.92 1.32 8.89 1.93 6 1.18 9 1.71a367 367 0 0 0 64.72 5.72z" fill="#adb6e0"/><g fill="#d2d6fa"><path d="m180.67 905.55h-76.67a38.33 38.33 0 0 1 76.66 0z"/><path d="m201.76 905.55h-59.42a29.71 29.71 0 0 1 59.42 0z"/><path d="m164.31 855.08a15.48 15.48 0 0 1 15.48 15.48v7.28a0 0 0 0 1 0 0 15.48 15.48 0 0 1 -15.48-15.48v-7.28a0 0 0 0 1 0 0z" transform="matrix(.66301211 .74860867 -.74860867 .66301211 706.66 163.22)"/><path d="m152 855.83a15.48 15.48 0 0 1 15.48 15.48v7.28a0 0 0 0 1 0 0 15.48 15.48 0 0 1 -15.48-15.47v-7.28a0 0 0 0 1 0-.01z" transform="matrix(.9981348 -.06104854 .06104854 .9981348 -52.71 11.39)"/><path d="m849.26 905.55h-92.61a46.31 46.31 0 1 1 92.61 0z"/><path d="m874.73 905.55h-71.73a35.89 35.89 0 1 1 71.77 0z"/><path d="m829.5 844.59a18.7 18.7 0 0 1 18.7 18.7v8.8a0 0 0 0 1 0 0 18.7 18.7 0 0 1 -18.7-18.7v-8.8a0 0 0 0 1 0 0z" transform="matrix(.66301211 .74860867 -.74860867 .66301211 925.31 -338.71)"/><path d="m814.68 845.5a18.7 18.7 0 0 1 18.7 18.7v8.8a0 0 0 0 1 0 0 18.7 18.7 0 0 1 -18.7-18.7v-8.8a0 0 0 0 1 0 0z" transform="matrix(.9981348 -.06104854 .06104854 .9981348 -50.98 51.97)"/><path d="m457.36 905.55h-44.7a22.35 22.35 0 1 1 44.7 0z"/><path d="m469.66 905.55h-34.66a17.33 17.33 0 1 1 34.65 0z"/><path d="m447.82 876.12a9 9 0 0 1 9 9v4.25a0 0 0 0 1 0 0 9 9 0 0 1 -9-9v-4.25a0 0 0 0 1 0 0z" transform="matrix(.66301211 .74860867 -.74860867 .66301211 813.32 -41.13)"/><path d="m440.67 876.55a9 9 0 0 1 9 9v4.25a0 0 0 0 1 0 0 9 9 0 0 1 -9-9v-4.25a0 0 0 0 1 0 0z" transform="matrix(.9981348 -.06104854 .06104854 .9981348 -53.15 28.86)"/><path d="m700.92 180h-42.51a21.26 21.26 0 1 1 42.51 0z"/><path d="m677 180h-61a30.53 30.53 0 1 1 61 0z"/><path d="m650.15 180h-74.53a37.27 37.27 0 1 1 74.53 0z"/><path d="m467 281.58h-26.38a13.21 13.21 0 0 1 26.41 0z"/><path d="m452.17 281.58h-37.92a19 19 0 0 1 37.92 0z"/><path d="m435.49 281.58h-46.29a23.15 23.15 0 1 1 46.29 0z"/></g><path d="m506.91 128.54a34.06 34.06 0 0 1 34.09 34.06v178.78a0 0 0 0 1 0 0h-68.15a0 0 0 0 1 0 0v-178.78a34.06 34.06 0 0 1 34.06-34.06z" fill="#2f5176" transform="matrix(.11857727 .99294483 -.99294483 .11857727 680.07 -296.25)"/><path d="m358.36 230.57h47.42v38.62h-47.42z" fill="#f9a0b4" transform="matrix(.11857727 .99294483 -.99294483 .11857727 584.85 -159.14)"/><path d="m372.12 242.78h47.42v10.91h-47.42z" fill="#f291ab" transform="matrix(.11857727 .99294483 -.99294483 .11857727 595.35 -174.25)"/><circle cx="633.61" cy="148.45" fill="#622139" r="29.85"/><path d="m609.29 151.74a29.8 29.8 0 0 0 12 23.89 29.85 29.85 0 1 1 30.22-51.1 29.9 29.9 0 0 0 -42.18 27.21z" fill="#4f182e"/><circle cx="345.01" cy="329.83" fill="#2f5176" r="19.93"/><circle cx="344.17" cy="328.35" fill="#7dcacc" r="19.29"/><path d="m344.17 343.68a16.37 16.37 0 0 1 -1.72.1 15.43 15.43 0 0 1 0-30.86 16.37 16.37 0 0 1 1.72.1 15.43 15.43 0 0 0 0 30.66z" fill="#baf4f4"/><path d="m344.63 311.16a13.93 13.93 0 0 1 1.72-.11c8.52 0 15.42 7.75 15.42 17.3s-6.9 17.3-15.42 17.3a13.93 13.93 0 0 1 -1.72-.11c7.71-1 13.71-8.29 13.71-17.19s-6-16.24-13.71-17.19z" fill="#53a2a9"/><circle cx="344.17" cy="328.35" fill="#53a2a9" r="9.91"/><circle cx="344.17" cy="328.35" fill="#baf4f4" r="4.99"/><circle cx="440.6" cy="452.97" fill="#2f5176" r="19.93"/><circle cx="439.76" cy="451.5" fill="#7dcacc" r="19.29"/><path d="m439.76 466.82a13.83 13.83 0 0 1 -1.72.1 15.43 15.43 0 0 1 0-30.85 13.83 13.83 0 0 1 1.72.1 15.42 15.42 0 0 0 0 30.65z" fill="#baf4f4"/><path d="m440.22 434.31a12.32 12.32 0 0 1 1.72-.11c8.52 0 15.43 7.74 15.43 17.3s-6.91 17.3-15.43 17.3a14.06 14.06 0 0 1 -1.72-.11c7.71-1 13.71-8.29 13.71-17.19s-6-16.24-13.71-17.19z" fill="#53a2a9"/><circle cx="439.76" cy="451.5" fill="#53a2a9" r="9.91"/><circle cx="439.76" cy="451.5" fill="#baf4f4" r="4.99"/><rect fill="#2f5176" height="278.99" rx="38.13" transform="matrix(.79197006 -.61055992 .61055992 .79197006 -181.51 312.82)" width="76.26" x="330.2" y="283.3"/><rect fill="#f9a0b4" height="240.28" rx="24.82" transform="matrix(.60306877 -.7976892 .7976892 .60306877 70.14 705.05)" width="49.65" x="718.76" y="161.9"/><circle cx="672.09" cy="230.7" fill="#f35b32" r="38.49"/><path d="m612.83 182.36a34.06 34.06 0 0 1 34.06 34.06v173a0 0 0 0 1 0 0h-68.13a0 0 0 0 1 0 0v-173a34.06 34.06 0 0 1 34.07-34.06z" fill="#2f5176" transform="matrix(.87 -.5 .5 .87 -60.84 344.71)"/><path d="m674.81 369.63-20.45 11.81-75.86-137.25a12.64 12.64 0 0 0 -12.58-6.44l-163.52 19.54-2.31-19.41 174-20.79a18.1 18.1 0 0 1 17.81 8.91z" fill="#4d3251"/><path d="m515.45 281.35h3.85a32.14 32.14 0 0 1 32.14 32.14v184.32a0 0 0 0 1 0 0h-68.13a0 0 0 0 1 0 0v-184.32a32.14 32.14 0 0 1 32.14-32.14z" fill="#53a2a9" transform="matrix(.97452687 -.22427076 .22427076 .97452687 -74.19 125.96)"/><path d="m519.83 494.65h50.83v32.17h-50.83z" fill="#ffb2bf" transform="matrix(.97452687 -.22427076 .22427076 .97452687 -100.65 135.29)"/><path d="m517.13 494.95h50.83v8.04h-50.83z" fill="#f9a0b4" transform="matrix(.97452687 -.22427076 .22427076 .97452687 -98.08 134.39)"/><path d="m572.17 239.38h144.28a66.25 66.25 0 0 1 66.25 66.25 50.65 50.65 0 0 1 -50.65 50.65h-101.7a68.46 68.46 0 0 1 -68.46-68.46v-38.16a10.28 10.28 0 0 1 10.28-10.28z" fill="#fea642" transform="matrix(.34234814 -.93957318 .93957318 .34234814 162.35 827.57)"/><path d="m562.48 301.37h103.58a28.07 28.07 0 0 1 28.07 28.07 21.46 21.46 0 0 1 -21.46 21.46h-85.54a29 29 0 0 1 -29-29v-16.17a4.36 4.36 0 0 1 4.36-4.36z" fill="#fcc48b" transform="matrix(.34234814 -.93957318 .93957318 .34234814 105.38 802.82)"/><path d="m691 225.06c-.47 0-.93.06-1.39.06a16.58 16.58 0 0 1 -16.5-15.2l-.41-4.95-3.7-44.23 33-2.74 1.89 22.61 2.21 26.57a16.57 16.57 0 0 1 -15.1 17.88z" fill="#ffb2bf"/><path d="m703.91 180.6a47.69 47.69 0 0 1 -31.23 24.4l-3.68-44.26 33-2.74z" fill="#f9a0b4"/><rect fill="#7dcacc" height="278.99" rx="38.13" transform="matrix(.79197006 -.61055992 .61055992 .79197006 -186.04 310.81)" width="76.26" x="324.98" y="288.93"/><rect fill="#baf4f4" height="124.96" rx="7.57" transform="matrix(.79197006 -.61055992 .61055992 .79197006 -196.79 303.67)" width="15.15" x="339.69" y="378.16"/><path d="m458.1 527.65a40.92 40.92 0 0 0 -2.54-3.73l-123.78-160.56a38.15 38.15 0 0 0 -63.3 4.34 38.13 38.13 0 0 1 62.94-42.83l123.78 160.56a38.15 38.15 0 0 1 2.9 42.22z" fill="#53a2a9"/><path d="m584.6 223.87a34.06 34.06 0 0 1 34.06 34.06v212.46a0 0 0 0 1 0 0h-8.53a59.6 59.6 0 0 1 -59.6-59.6v-152.86a34.06 34.06 0 0 1 34.07-34.06z" fill="#53a2a9" transform="matrix(.34234814 -.93957318 .93957318 .34234814 58.34 777.6)"/><path d="m703.05 377.53a59.35 59.35 0 0 1 -19.23 18.47l-150.71-54.9a8.14 8.14 0 0 0 -10.72 9.48l2.54 11 30 130.35-26.56 6.11-34-147.58-2.25-9.76a24.39 24.39 0 0 1 32.11-28.38z" fill="#33557a"/><circle cx="726.97" cy="236.83" fill="#f35b32" r="38.49"/><circle cx="734.68" cy="233.03" fill="#fea642" r="33.18"/><g fill="#ffb2bf"><rect height="153.84" rx="24.82" transform="matrix(-.28334589 -.95901778 .95901778 -.28334589 794.02 1030.16)" width="49.65" x="757.09" y="141.49"/><rect height="153.84" rx="24.82" transform="matrix(.66314276 -.74849294 .74849294 .66314276 116.08 734.83)" width="49.65" x="849.58" y="161.53"/><circle cx="668.57" cy="148.45" r="47.63"/></g><path d="m673.83 195.79a48.24 48.24 0 0 1 -5.26.29 47.63 47.63 0 1 1 0-95.26 50.88 50.88 0 0 1 5.26.29 47.63 47.63 0 0 0 0 94.68z" fill="#f9a0b4"/><ellipse cx="918.61" cy="281.8" fill="#ffb2bf" rx="25.03" ry="31.42" transform="matrix(.9826128 -.18566662 .18566662 .9826128 -36.36 175.52)"/><ellipse cx="821.76" cy="345.32" fill="#f9a0b4" rx="25.03" ry="31.42" transform="matrix(.9826128 -.18566662 .18566662 .9826128 -49.84 158.63)"/><path d="m927.28 311.93c10.39-5.44 16.05-19.61 13-34.36-.17-.81-.37-1.6-.59-2.4a39.82 39.82 0 0 0 -1.53-4.47 33 33 0 0 0 -11.64-14.79 23.47 23.47 0 0 0 -10.18-4l-60.14-53.19-5.28-4.72a32.72 32.72 0 0 0 -27-5.49l-10 2.95-89.92 26.61a24.81 24.81 0 0 0 -16.78 16.81c-.05-.57-.07-1.15-.07-1.72a24.84 24.84 0 0 1 17.8-23.8l99.93-29.52a32.73 32.73 0 0 1 27 5.49l78 69.09a24.35 24.35 0 0 1 2.93 3.09 33.56 33.56 0 0 1 7.19 9.86 38.41 38.41 0 0 1 3.07 9c3.35 16.03-3.64 31.36-15.79 35.56z" fill="#f9e0e5" opacity=".38"/><ellipse cx="925.16" cy="286.57" fill="#f9e0e5" opacity=".38" rx="6.55" ry="11.26"/><circle cx="706.22" cy="128.79" fill="#622139" r="25.25"/><circle cx="680.73" cy="107.84" fill="#622139" r="29.85"/><path d="m731.47 128.79a25.24 25.24 0 0 0 -21.15-24.91 29.86 29.86 0 0 0 -56.32-9.25 29.85 29.85 0 0 1 51.65 16.14 26.08 26.08 0 0 1 4.69 1.24 25.28 25.28 0 0 1 14.14 34.27 25.21 25.21 0 0 0 6.99-17.49z" fill="#995370"/><circle cx="710.58" cy="144.55" fill="#ffb2bf" r="16.39"/><circle cx="642.68" cy="113.42" fill="#622139" r="34.39"/><path d="m647.38 138.54a26.65 26.65 0 1 1 -11.48-51.63 26.65 26.65 0 0 0 8.91 51.76 24.44 24.44 0 0 0 2.57-.13z" fill="#4f182e"/><circle cx="666.67" cy="153.08" fill="#48282b" r="3.19"/><circle cx="645.11" cy="158.95" fill="#48282b" r="3.19"/><path d="m561.9 523.58-42 9.73a21.57 21.57 0 1 1 42-9.73z" fill="#f35b32"/><path d="m516.49 539.24-1.21-6.49a5.41 5.41 0 0 1 4-6.25l55-13.85a6.78 6.78 0 0 1 8.31 5.33l2.24 12z" fill="#fea642"/><path d="m584.19 526.42 1.57 8.4-64.7 12a7.48 7.48 0 0 1 -8.73-6 7.49 7.49 0 0 1 6-8.73l16.85-3.09a6.41 6.41 0 0 1 7.48 5.14z" fill="#ef5938"/><path d="m358.35 261-7.35-42.45a21.56 21.56 0 1 1 7.4 42.49z" fill="#dd472f"/><path d="m345.22 214.84 6.55-.85a5.42 5.42 0 0 1 6 4.35l10.8 55.66a6.77 6.77 0 0 1 -5.78 8l-12.13 1.58z" fill="#ef5938"/><path d="m354.27 283.15-8.47 1.1-8.46-65.25a7.49 7.49 0 0 1 6.47-8.38 7.48 7.48 0 0 1 8.38 6.46l2.2 17a6.43 6.43 0 0 1 -5.54 7.2z" fill="#dd472f"/><circle cx="647.38" cy="239.3" fill="#13b6a1" r="10.25"/><path d="m654.22 242.92a7.44 7.44 0 0 1 -10.22 2.58 7.58 7.58 0 0 1 -1.23-.92 7.45 7.45 0 0 0 7.46-12.52 7.09 7.09 0 0 1 1.4.65 7.44 7.44 0 0 1 2.59 10.21z" fill="#138a77"/><circle cx="645.11" cy="237.31" fill="#fff" r="5.13"/><ellipse cx="680.73" cy="107.84" fill="#995370" rx="14.03" ry="17.38" transform="matrix(.60306877 -.7976892 .7976892 .60306877 184.14 585.78)"/><path d="m712 149.83-6.07-8.51a1.67 1.67 0 0 1 .86-2.55 7.15 7.15 0 0 1 7.9 11.09 1.67 1.67 0 0 1 -2.69-.03z" fill="#f9a0b4"/><path d="m651.21 170.37a11 11 0 0 0 5.34 6.55c.32.16.64.32 1 .46a11 11 0 0 0 7.45.39l.43-.13a10.92 10.92 0 0 0 5.62-3.9 11 11 0 0 0 2-9c-.06-.29-.13-.59-.22-.89a2.17 2.17 0 0 0 -1-1.27 2.13 2.13 0 0 0 -1.63-.16l-17.49 5.25a2.14 2.14 0 0 0 -1.5 2.7z" fill="#962f4a"/><path d="m664.69 176.08a8.88 8.88 0 0 0 .65 1.58h.06a11 11 0 0 0 7.6-12.89 9 9 0 0 0 -2.44.37 8.79 8.79 0 0 0 -5.87 10.94z" fill="#e1617f"/><path d="m653 167.58c.7 2 4.4 2.76 8.33 1.58s6.64-3.81 6.1-5.91z" fill="#fff"/></svg>