<svg viewBox="0 0 1000 1000" xmlns="http://www.w3.org/2000/svg"><path d="m982.75 502.38a110.13 110.13 0 0 1 -110.17 110.17h-89.84a15.44 15.44 0 0 0 -1.67.08 19.47 19.47 0 0 0 0 38.79 15.44 15.44 0 0 0 1.67.08h26.83a67.15 67.15 0 0 1 0 134.29h-38.78a51.06 51.06 0 0 0 -51.11 51.11v18.79h-491.6v-48.64a21.27 21.27 0 0 0 -21.26-21.26 66.94 66.94 0 0 1 -20.34-3.14c-1.91-.6-3.77-1.29-5.6-2.06l-1.71-.75a67.28 67.28 0 0 1 -19.54-13.44l-.29-.28c-.94-.94-1.86-1.91-2.74-2.91-.74-.83-1.46-1.69-2.16-2.56a67.08 67.08 0 0 1 -9.44-15.87c-.68-1.61-1.31-3.26-1.86-4.94a66.65 66.65 0 0 1 -3.39-19.32c0-.62 0-1.25 0-1.88a66.79 66.79 0 0 1 8.25-32.47 67.46 67.46 0 0 1 23.72-24.8l.1-.06a66.57 66.57 0 0 1 6.88-3.67l.15-.07a64.6 64.6 0 0 1 8.46-3.2 66.94 66.94 0 0 1 19.47-2.87h84.22a19.46 19.46 0 0 0 19.42-19.5c0-.58 0-1.15-.08-1.71a19.45 19.45 0 0 0 -19.34-17.74h-163.57a110.07 110.07 0 0 1 -18.72-1.55c-.89-.15-1.77-.31-2.65-.49q-2.34-.45-4.65-1c-2.94-.71-5.84-1.54-8.68-2.49-1.08-.35-2.15-.72-3.21-1.12a110.51 110.51 0 0 1 -56.28-46.3c-.27-.43-.54-.87-.79-1.31q-2.28-3.86-4.23-7.9-1.39-2.85-2.6-5.8-1.78-4.29-3.2-8.76a108.37 108.37 0 0 1 -4.64-22.69q-.48-4.86-.52-9.84a107.36 107.36 0 0 1 8.36-42.43q1.21-2.93 2.6-5.76a109.76 109.76 0 0 1 10.18-16.9 112.7 112.7 0 0 1 37.09-32.41c.72-.4 1.45-.79 2.18-1.16a111.45 111.45 0 0 1 28.39-10.1c.88-.18 1.76-.35 2.65-.51a110.35 110.35 0 0 1 20-1.82h121a18 18 0 0 0 18-18.14c-.07-10-8.5-17.9-18.48-17.9h-42.41a67 67 0 0 1 -47.48-19.67 68 68 0 0 1 -5.56-6.3q-1.4-1.8-2.67-3.69a66.56 66.56 0 0 1 -7.57-15c-.43-1.2-.82-2.41-1.18-3.65-.14-.47-.27-.94-.4-1.41a67.08 67.08 0 0 1 -2.28-17.45c0-.21 0-.42 0-.63a66.86 66.86 0 0 1 16.41-43.37c.49-.57 1-1.14 1.52-1.69q1-1.09 2.07-2.13a66.9 66.9 0 0 1 47.14-19.34h210.43a36.39 36.39 0 0 0 25.75-10.53l.15-.14a35.43 35.43 0 0 0 3.77-4.43 36.26 36.26 0 0 0 6.94-21.08c.18-20.3 16.21-36.91 36.51-36.91h254.87a36.53 36.53 0 0 1 36.56 36.57v7.24 1.16a29.31 29.31 0 0 0 29.29 28.16 67.66 67.66 0 0 1 8.71.56 67.16 67.16 0 0 1 8.43 131.56h-.09a66.28 66.28 0 0 1 -6.81 1.42l-1.44.2a66.82 66.82 0 0 1 -8.77.57h-112.92a18.07 18.07 0 0 0 -12.74 5.28 18 18 0 0 0 12.74 30.76h174.38a110.06 110.06 0 0 1 110.17 110.15z" fill="#f3f4fe"/><g fill="#ebecfd"><path d="m715.7 219.57h-37a18.48 18.48 0 0 1 37 0z"/><path d="m694.91 219.57h-53.08a26.54 26.54 0 1 1 53.08 0z"/><path d="m671.56 219.57h-64.79a32.4 32.4 0 1 1 64.79 0z"/><path d="m563.25 279.89h-23.25a11.64 11.64 0 0 1 23.27 0z"/><path d="m550.16 279.89h-33.41a16.71 16.71 0 0 1 33.41 0z"/><path d="m535.46 279.89h-40.78a20.39 20.39 0 1 1 40.78 0z"/></g><path d="m89.52 399.36v160.18h-56.28c-.27-.43-.54-.87-.79-1.31q-2.28-3.86-4.23-7.9-1.39-2.85-2.6-5.8-1.78-4.29-3.2-8.76a108.37 108.37 0 0 1 -4.64-22.69q-.48-4.86-.52-9.84a107.36 107.36 0 0 1 8.36-42.43q1.21-2.93 2.6-5.76a109.76 109.76 0 0 1 10.18-16.84 112.7 112.7 0 0 1 37.09-32.41c.72-.4 1.45-.79 2.18-1.16a111.26 111.26 0 0 1 11.85-5.28z" fill="#e5e7fd"/><path d="m89.52 558.23v47.61a110.51 110.51 0 0 1 -56.28-46.3c-.27-.43-.54-.87-.79-1.31z" fill="#e5e7fd"/><path d="m89.52 399.36v72.55l-71.74 41.17q-.48-4.86-.52-9.84a107.36 107.36 0 0 1 8.36-42.43q1.21-2.93 2.6-5.76a109.76 109.76 0 0 1 10.18-16.84 112.7 112.7 0 0 1 37.09-32.41c.72-.4 1.45-.79 2.18-1.16a111.26 111.26 0 0 1 11.85-5.28z" fill="#f3f4fe"/><path d="m352.07 306.43v456.78h-195.47c-.74-.83-1.46-1.69-2.16-2.56a67.08 67.08 0 0 1 -9.44-15.87c-.68-1.61-1.31-3.26-1.86-4.94a66.65 66.65 0 0 1 -3.39-19.32c0-.62 0-1.25 0-1.88a66.79 66.79 0 0 1 8.25-32.47 67.46 67.46 0 0 1 23.72-24.8l.1-.06a66.57 66.57 0 0 1 6.88-3.67l.15-.07a64.6 64.6 0 0 1 8.46-3.2 66.94 66.94 0 0 1 19.47-2.87h84.22a19.46 19.46 0 0 0 19.42-19.5c0-.58 0-1.15-.08-1.71a19.45 19.45 0 0 0 -19.34-17.74h-163.57a110.07 110.07 0 0 1 -18.72-1.55c-.89-.15-1.77-.31-2.65-.49v-215.97c.88-.18 1.76-.35 2.65-.51a110.35 110.35 0 0 1 20-1.82h121a18 18 0 0 0 18-18.14c-.07-10-8.5-17.9-18.48-17.9h-42.41a67 67 0 0 1 -47.48-19.67 68 68 0 0 1 -5.56-6.3q-1.4-1.8-2.67-3.69a66.56 66.56 0 0 1 -7.57-15c-.43-1.2-.82-2.41-1.18-3.65-.14-.47-.27-.94-.4-1.41z" fill="#e5e7fd"/><g fill="#f3f4fe"><path d="m169.52 392.21-60.81 36.64-2.65 1.6v-35.91c.88-.18 1.76-.35 2.65-.51a110.35 110.35 0 0 1 20-1.82z"/><path d="m311.86 306.43-2.34 1.41-80.2 48.33h-22.5a67 67 0 0 1 -47.48-19.67 68 68 0 0 1 -5.56-6.3l41.4-22.36 2.61-1.41z"/><path d="m109.21 606.96-.5.28-2.66 1.48v-1.76z"/><path d="m106.05 559.54v-41.55l2.66-1.54 243.36-141.59v97.05l-244.44 128.9z"/><path d="m171.86 661.31a66.57 66.57 0 0 1 6.88-3.67z"/><path d="m352.07 498.83v66.41l-88.74 47.31h-124.39l10.47-5.59 48.33-25.78z"/></g><path d="m368.82 306.43h237.67v456.77h-237.67z" fill="#e5e7fd"/><g fill="#f3f4fe"><path d="m567.65 306.43h-110.21l-88.62 49.54v74.48z"/><path d="m606.49 374.86-237.67 143.14v90.72l237.67-136.8z"/><path d="m606.49 498.83-237.67 131.26v8.69 57.61l237.67-131.15z"/></g><g fill="#7986bf"><path d="m106.06 394.54a111.43 111.43 0 0 0 -16.54 4.82v206.48c1.06.4 2.13.77 3.21 1.12 2.84.95 5.74 1.78 8.68 2.49q2.31.57 4.65 1c.88.18 1.76.34 2.65.49v-216.94c-.89.19-1.77.36-2.65.54zm265.2-86.7h246.62v-19.45h-478.19v.63a67.08 67.08 0 0 0 2.31 17.41c.13.47.26.94.4 1.41h209.67v455.37h-195.47c.88 1 1.8 2 2.74 2.91l.29.28a67.28 67.28 0 0 0 19.54 13.44l1.71.75c1.83.77 3.69 1.46 5.6 2.06h431.4v-19.44h-246.62z"/><path d="m629.27 822.13v-583.13h-22.78v583.13a7.89 7.89 0 0 1 -7.89 7.87 7.89 7.89 0 0 0 -7.89 7.89v17.94h54.29v-17.92a7.88 7.88 0 0 0 -7.88-7.89 7.89 7.89 0 0 1 -7.85-7.89z"/><path d="m658.74 215.91v2.43a22.88 22.88 0 0 1 -22.89 22.88h-476.17a66.9 66.9 0 0 1 47.14-19.34h210.43a36.39 36.39 0 0 0 25.75-10.57l.15-.14a35.43 35.43 0 0 0 3.77-4.43 36.24 36.24 0 0 0 6.08-13.74h182.85a22.88 22.88 0 0 1 22.89 22.91z"/></g><path d="m644.62 225.52v1.48a14.19 14.19 0 0 1 -14.2 14.19h-470.74a66.9 66.9 0 0 1 47.14-19.34h210.43a36.39 36.39 0 0 0 25.75-10.54h187.42a14.21 14.21 0 0 1 14.2 14.21z" fill="#969ecc"/><path d="m770.81 816.38v-500.38h-24.14v500.38a8.37 8.37 0 0 1 -8.37 8.36 8.36 8.36 0 0 0 -8.36 8.36v22.45h57.6v-22.45a8.36 8.36 0 0 0 -8.36-8.36 8.37 8.37 0 0 1 -8.37-8.36z" fill="#7986bf"/><rect fill="#7986bf" height="169.34" rx="10.48" width="138.98" x="689.25" y="193.72"/><rect fill="#fff" height="149.6" rx="2.38" width="122.18" x="697.65" y="203.59"/><path d="m806.85 253h-5.61c-.11-2-.23-3.82-.37-5.54-.12-1.42-.25-2.73-.4-3.87a13 13 0 0 0 -9.27-12.14c-8.09-3.48-19.13-4.82-27.81-5.61a72.64 72.64 0 0 0 -19.39 1.26c-5.85 1.06-14.1 2.4-19.48 5.13a13.07 13.07 0 0 0 -7.5 11c-.11 1.06-.21 2.5-.32 4.15s-.21 3.54-.31 5.54h-5.79a2.27 2.27 0 0 0 -2.27 2.26v19.42a2.27 2.27 0 0 0 2.27 2.27h5c0 4.79-.06 9.6-.06 14.39v25.12a1.47 1.47 0 0 0 1.47 1.48h5.73v6.44c.11 4.94 3.78 7.85 8.23 6.55a6 6 0 0 0 4.43-5.85c.06-2.32 0-4.65 0-7.05h46.76c0 2.64-.07 5.15 0 7.65a5.93 5.93 0 0 0 5.2 5.55 6.07 6.07 0 0 0 6.83-4 12.72 12.72 0 0 0 .37-3.27c0-1.95 0-3.91 0-6h5.79a1.47 1.47 0 0 0 1.47-1.47v-39.5h5a2.26 2.26 0 0 0 2.27-2.27v-19.42a2.26 2.26 0 0 0 -2.24-2.22zm-77.74 51.46a6.48 6.48 0 1 1 6.47-6.51 6.49 6.49 0 0 1 -6.47 6.47zm-1.49-27.63c-3.35 0-4.59-1.53-4.14-4.8 0 0-.41-15.21.61-22.8.07-.58.16-1.15.24-1.71 0 0 0 0 0-.06a3.41 3.41 0 0 1 3.27-3h1.11 60.13c2.75 0 3.84.66 4.34 3 0 .24.1.51.14.79 1.08 7.77.66 23.29.66 23.29.54 4.24-.48 5.29-4.76 5.29zm60.75 27.62a6.48 6.48 0 1 1 6.4-6.43 6.44 6.44 0 0 1 -6.4 6.39z" fill="#7986bf"/><path d="m503.14 751.91v104.44h-19.31v-104.44a12.08 12.08 0 0 0 -12.07-12.07h-328.66a66.65 66.65 0 0 1 -3.39-19.32h332a31.42 31.42 0 0 1 31.43 31.39z" fill="#969ecc"/><rect fill="#d2d6fa" height="17.61" rx="8.8" width="74.06" x="898.05" y="855.69"/><rect fill="#d2d6fa" height="17.61" rx="8.8" width="809.94" x="80.94" y="855.69"/><rect fill="#98a4ea" height="28.14" rx="9.85" width="78.52" x="808.82" y="781.19"/><path d="m821.35 729.44h53.47v125.41h-53.47z" fill="#b0b7f7"/><g fill="#98a4ea"><path d="m826.88 757.58h5.53v97.27h-5.53z"/><path d="m839.17 757.58h5.53v97.27h-5.53z"/><path d="m851.47 757.58h5.53v97.27h-5.53z"/><path d="m863.76 757.58h5.53v97.27h-5.53z"/></g><path d="m821.35 729.44h53.47v38.14h-53.47z" fill="#899be5"/><rect fill="#b0b7f7" height="28.14" rx="9.97" width="100.1" x="798.03" y="729.44"/><path d="m845.65 697.62h4.86a20.87 20.87 0 0 1 20.87 20.87v10.94a0 0 0 0 1 0 0h-46.6a0 0 0 0 1 0 0v-10.93a20.87 20.87 0 0 1 20.87-20.88z" fill="#98a4ea"/><path d="m231.76 341.82a10.08 10.08 0 0 1 10.08 10.08v13.48a0 0 0 0 1 0 0 10.08 10.08 0 0 1 -10.08-10.08v-13.48a0 0 0 0 1 0 0z" fill="#153e63" transform="matrix(-.15177837 -.98841455 .98841455 -.15177837 -76.79 641.31)"/><path d="m225.91 360.32a10.08 10.08 0 0 1 8.44-8.44l13.34-2.05a10 10 0 0 0 0-3l-13.34 2a10.09 10.09 0 0 0 -8.44 11.49z" fill="#0c314c"/><circle cx="390.91" cy="230.76" fill="#153e63" r="40.53"/><path d="m426.17 232.5a40.5 40.5 0 0 1 -19.11 35.44 40.54 40.54 0 1 0 -37.52-71.63 40.57 40.57 0 0 1 56.63 36.19z" fill="#396e96"/><rect fill="#153e63" height="69.88" rx="34.94" transform="matrix(-.99968419 .0251301 -.0251301 -.99968419 667.08 507.43)" width="77.49" x="291.6" y="222.97"/><rect fill="#153e63" height="69.88" rx="34.94" transform="matrix(-.99968419 .0251301 -.0251301 -.99968419 611.35 493.14)" width="77.49" x="263.83" y="215.48"/><path d="m394.53 244.29.7 27.62a15.16 15.16 0 0 1 -30.32.77l-.69-27.62a15.16 15.16 0 0 1 30.31-.77z" fill="#f5a491"/><path d="m394.53 244.29.54 21.25a72 72 0 0 1 -30.32.57l-.53-21.05a15.16 15.16 0 0 1 30.31-.77z" fill="#ef927f"/><path d="m414.79 182.14.07 8 .05 5.51.31 32.63a31.61 31.61 0 0 1 -31.3 31.88 52.53 52.53 0 0 1 -53-52l-.21-23a28.61 28.61 0 0 1 28.29-28.82l23.5-.21h5.71a26.3 26.3 0 0 1 26.58 26.01z" fill="#f5a491"/><path d="m381 260.14c.95.05 1.91.07 2.87.06a31.6 31.6 0 0 0 31.3-31.89l-.3-32.62-.05-5.51-.06-8a26.32 26.32 0 0 0 -26.56-26.06h-3a26.32 26.32 0 0 1 25 26l.07 8 .05 5.51.3 32.62a31.6 31.6 0 0 1 -29.62 31.89z" fill="#ffc4af"/><path d="m414.79 182.14.07 8 .05 5.51a26 26 0 0 1 -32.38-39.56h5.71a26.3 26.3 0 0 1 26.55 26.05z" fill="#ef927f"/><ellipse cx="401.69" cy="214.47" fill="#230d30" rx="3" ry="3.24" transform="matrix(.99968419 -.0251301 .0251301 .99968419 -5.27 10.17)"/><ellipse cx="374.59" cy="215.04" fill="#230d30" rx="3" ry="3.24" transform="matrix(.99968419 -.0251301 .0251301 .99968419 -5.29 9.49)"/><circle cx="321.52" cy="208.17" fill="#153e63" r="27.54"/><path d="m263.83 250.49v.9a34.9 34.9 0 0 0 17.1 29.17 34.91 34.91 0 0 1 -13.21-26.5c0-.3 0-.6 0-.9a34.92 34.92 0 0 1 28.41-34.3c.92-.17 1.87-.31 2.81-.41a27.74 27.74 0 0 1 -1.06-6.91 27.55 27.55 0 0 1 26.84-28.23 27.27 27.27 0 0 1 14.28 3.58 27.54 27.54 0 0 0 -43.94 28.88 34.93 34.93 0 0 0 -31.23 34.72z" fill="#0c314c"/><g fill="#153e63"><circle cx="292.12" cy="278.85" r="24.88"/><circle cx="279.04" cy="304.06" r="20.02"/><circle cx="271.08" cy="321.44" r="16.25"/><circle cx="255.22" cy="337.05" r="14.13"/></g><path d="m245.72 347.49a13.82 13.82 0 0 1 -1.59-6.15 14.15 14.15 0 0 1 11.71-14.28 15.45 15.45 0 0 1 2.07-.2c0-.35-.07-.71-.08-1.07a17 17 0 0 1 .14-2.59 16.12 16.12 0 0 1 4-8.64 12.46 12.46 0 0 1 .87-.91 19.39 19.39 0 0 1 -.81-5.15c0-.18 0-.38 0-.56a20 20 0 0 1 8.66-16.42q.45-.31.93-.6a23.42 23.42 0 0 1 -1.16-5 23.91 23.91 0 0 1 -.19-2.55 24.87 24.87 0 0 1 43-17.68 24.88 24.88 0 0 0 -46 13.74 24.53 24.53 0 0 0 1.33 7.57 20 20 0 0 0 -9.6 17.56 19.39 19.39 0 0 0 .81 5.15 16.26 16.26 0 0 0 -5 12.14c0 .36 0 .72.07 1.07a14.12 14.12 0 0 0 -9.14 24.57z" fill="#0c314c"/><circle cx="333.3" cy="217.3" fill="#f5a491" r="13.36"/><path d="m329.31 217.55a5.75 5.75 0 0 0 3.66 5.22 1.65 1.65 0 0 0 2.2-1.62l-.19-7.5a1.67 1.67 0 0 0 -2.43-1.44 5.76 5.76 0 0 0 -3.24 5.34z" fill="#ef927f"/><rect fill="#ceb2a5" height="16.1" rx="2.95" transform="matrix(-.59355936 .80479021 -.80479021 -.59355936 670.96 357.63)" width="5.91" x="242.21" y="340.21"/><circle cx="339.35" cy="171.56" fill="#153e63" r="29.02"/><path d="m313.27 184.28a29 29 0 0 1 54.3-19.47 29 29 0 1 0 -54.3 19.47z" fill="#0c314c"/><circle cx="383.36" cy="155.73" fill="#153e63" r="29.02"/><circle cx="414.67" cy="177.01" fill="#153e63" r="29.02"/><path d="m357.9 141.81a29 29 0 0 1 44.6 8.85 27.42 27.42 0 0 1 2.2 5.72 24.09 24.09 0 0 1 2.57-.19 29.56 29.56 0 0 1 5.09.31 29 29 0 0 1 21.11 42.62 29 29 0 0 0 -19.53-51.12 23.71 23.71 0 0 0 -2.56.19 29 29 0 0 0 -53.48-6.38z" fill="#396e96"/><circle cx="378.99" cy="159.68" fill="#396e96" r="15.51"/><rect fill="#f5a491" height="43.36" rx="7.93" transform="matrix(.98166047 .19063767 -.19063767 .98166047 86.1 -38.01)" width="15.85" x="232.61" y="406.63"/><path d="m265.41 456.24v3.24c-3.45 0-11.53 0-11.53-7.11v-8.25a1.82 1.82 0 0 0 -1.82-1.83h-27.4a1.84 1.84 0 0 0 -1.83 1.83v8.25c0 7.11-8.08 7.11-11.53 7.11v-3.24c6.93 0 8.29-1.42 8.29-3.87v-8.25a5.08 5.08 0 0 1 5.07-5.07h27.4a5.07 5.07 0 0 1 5.06 5.07v8.25c0 2.45 1.36 3.87 8.29 3.87z" fill="#fff2ee"/><path d="m257.12 437.69v5.31h-37.53v-5.27a3.44 3.44 0 0 1 3.44-3.44h30.67a3.44 3.44 0 0 1 3.42 3.4z" fill="#ceb2a5"/><path d="m219.59 439.8h37.53v3.16h-37.53z" fill="#fff2ee"/><path d="m243.51 515.25h-10.31a32.43 32.43 0 0 1 -32.08-37.15l1.53-10.32a21.65 21.65 0 0 1 21.42-18.5h28.57a21.65 21.65 0 0 1 21.42 18.5l1.53 10.32a32.43 32.43 0 0 1 -32.08 37.15z" fill="#e5d0c7"/><path d="m212.93 472.66h50.86a0 0 0 0 1 0 0v18.84a8.36 8.36 0 0 1 -8.36 8.36h-34.14a8.36 8.36 0 0 1 -8.36-8.36v-18.84a0 0 0 0 1 0 0z" fill="#fff2ee"/><path d="m212.93 470.65h50.86a0 0 0 0 1 0 0v18.84a8.36 8.36 0 0 1 -8.36 8.36h-34.14a8.36 8.36 0 0 1 -8.36-8.36v-18.84a0 0 0 0 1 0 0z" fill="#ceb2a5"/><path d="m212.91 469.08h50.86v1.58h-50.86z" fill="#fff2ee"/><path d="m214.75 478.94h-1.36a1.78 1.78 0 0 1 -1.76-2.07l1.28-7.79h2.32l1.28 7.79a1.79 1.79 0 0 1 -1.76 2.07z" fill="#fff2ee"/><path d="m347.55 775.61h44.65v68.21h-44.65z" fill="#f5a491"/><path d="m347.55 775.61h44.65v45.2h-44.65z" fill="#ef927f"/><path d="m423.13 845.87-53.25-.23a26.63 26.63 0 0 1 53.25.23z" fill="#fff2ee"/><path d="m428.11 846.6a9.13 9.13 0 0 1 -9.16 9.09l-23-.11-52.41-.22a6.21 6.21 0 0 1 -.42-12.41l51.4-3.75 23.84-1.74a9.11 9.11 0 0 1 9.75 9.14z" fill="#ceb2a5"/><circle cx="399.18" cy="820.25" fill="#ceb2a5" r="7.09"/><path d="m389.94 311.87 42.39 28.76 18.56 12.59a22.1 22.1 0 1 0 24.82-36.57l-21.16-14.36-2.48-1.68-37.32-25.32a22.1 22.1 0 0 0 -24.81 36.58z" fill="#ef927f"/><path d="m442.12 340.27a22.1 22.1 0 0 0 35.75 11.15l.64-.58c.22-.19.41-.38.61-.58a2.61 2.61 0 0 0 .23-.24c.14-.13.26-.27.39-.41.31-.34.62-.68.9-1l.6-.77a22.89 22.89 0 0 0 1.63-2.54c.14-.24.26-.48.38-.74a7 7 0 0 0 .37-.78c.26-.56.5-1.14.71-1.74l22.07-62.49 2.46-7a23 23 0 0 0 .72-2.47 22.1 22.1 0 0 0 -42.39-12.26l-24.54 69.47a21.83 21.83 0 0 0 -.53 12.98z" fill="#f5a491"/><ellipse cx="495.88" cy="258.69" fill="#f5a491" rx="29.65" ry="23.38" transform="matrix(.93642747 -.35086122 .35086122 .93642747 -59.24 190.4)"/><path d="m452.07 300.61 2.48 1.68 12.74-36.05.81-2.31a18.33 18.33 0 0 1 .83-2c2.57-7.89 9.59-15.14 19.28-18.89l.37-.14c15.34-5.75 31.45-.6 36 11.49.1.26.19.51.27.77a18.84 18.84 0 0 0 -1.19-6.89c-4.53-12.1-20.63-17.24-36-11.5-9.91 3.72-17.07 11.07-19.68 19.08-.29.63-.56 1.28-.79 1.94z" fill="#ffc4af"/><path d="m475 350.49.64-.59c.21-.19.41-.38.6-.58a1.81 1.81 0 0 0 .24-.24c.13-.13.26-.26.39-.41.31-.33.62-.68.89-1s.41-.51.6-.77a20.93 20.93 0 0 0 1.64-2.55c.13-.24.26-.48.38-.74s.25-.51.37-.77c.26-.57.49-1.15.7-1.75l21.17-59.95.86-2.4a34.89 34.89 0 0 0 4-2.09c11.35-6.88 17.18-18.94 13.31-29.27-2.09-5.58-6.65-9.68-12.47-11.91 7.2 1.87 13 6.36 15.38 12.85 4.31 11.48-3.37 25.09-17.29 31.36l-22 62.35c-.21.6-.45 1.18-.71 1.75-.12.26-.23.52-.37.78s-.24.49-.38.73a22.13 22.13 0 0 1 -1.63 2.55l-.6.77c-.28.35-.59.7-.9 1-.13.15-.25.28-.39.42l-.23.23c-.2.21-.39.4-.61.59l-.64.58a22.11 22.11 0 0 1 -21.75 4.05c-.27-.1-.55-.2-.82-.32a22.14 22.14 0 0 0 19.62-4.67z" fill="#ef927f"/><rect fill="#d7c2b7" height="8.5" rx="4.25" transform="matrix(-.92822634 -.37201595 .37201595 -.92822634 808.62 743.56)" width="57" x="447.54" y="289.53"/><rect fill="#d7c2b7" height="8.5" rx="4.25" transform="matrix(-.92822634 -.37201595 .37201595 -.92822634 822.72 725.74)" width="50.32" x="456.21" y="279.26"/><path d="m261.21 775.61h44.65v68.21h-44.65z" fill="#f5a491"/><path d="m261.21 775.61h44.65v45.2h-44.65z" fill="#ef927f"/><path d="m255.57 850.1h53.25a26.63 26.63 0 0 0 -53.25 0z" fill="#fff"/><path d="m310.14 854h-57.14a9 9 0 0 1 -9-9 9 9 0 0 1 9.91-9l56.86 5.52a6.27 6.27 0 0 1 5.66 6.24 6.26 6.26 0 0 1 -6.29 6.24z" fill="#d7c2b7"/><path d="m244 845a9 9 0 0 0 9 9h9.4a9 9 0 0 1 -3.14-17.5l-5.38-.52a8.85 8.85 0 0 0 -.89 0 9 9 0 0 0 -8.99 9.02z" fill="#e5d0c7"/><circle cx="282.2" cy="827.33" fill="#d7c2b7" r="7.09"/><path d="m328.98 811.31h70.21l1.14-21.33 20.13-376.79h-70.21l-20.13 376.79z" fill="#ceb2a5"/><path d="m244.88 816.74h70.2l3.66-21.33 61.5-358.23h-70.79l-60.91 358.23z" fill="#d7c2b7"/><path d="m340 383.66h80.44a0 0 0 0 1 0 0v34.51a80.44 80.44 0 0 1 -80.44 80.44 0 0 0 0 1 0 0v-114.95a0 0 0 0 1 0 0z" fill="#d7c2b7"/><path d="m340.02 383.66h80.44v12.9h-80.44z" fill="#ceb2a5"/><path d="m340.02 325.43h80.44v58.23h-80.44z" fill="#fff"/><path d="m340.02 325.43h80.44v26.65l-80.44-6.95z" fill="#fff2ee"/><path d="m211.63 406.87a22 22 0 0 0 37.33 17l86.75-83.78 28.29-27.3a22 22 0 0 0 -30.63-31.72l-115 111.1a22 22 0 0 0 -6.74 14.7z" fill="#f5a491"/><ellipse cx="224.14" cy="416.64" fill="#f5a491" rx="29.58" ry="24.93" transform="matrix(.77999372 -.62578735 .62578735 .77999372 -211.42 231.93)"/><path d="m196.69 416.5a24.15 24.15 0 0 0 4.66 11.58c10.67 15.05 32.36 6.61 33.52-5.69l16.45-15.89 97.9-94.56a22 22 0 0 0 5.26-23.8c-2.37-6.15 5.15-11.35 9.85-6.72l.2.2a22 22 0 0 1 5.66 20.09v.05c-.08.37-.17.74-.27 1.1l-.06.2c-.09.32-.2.64-.3 1l-.08.21c-.11.34-.24.66-.37 1a1.21 1.21 0 0 0 -.05.14 22.61 22.61 0 0 1 -1.72 3.31l-.09.14c-.19.3-.39.6-.59.89l-.15.19c-.2.28-.41.55-.62.82-.05.06-.1.13-.16.19-.23.28-.47.56-.72.83l-.1.12c-.29.32-.59.63-.91.94l-114.35 110.38a33.87 33.87 0 0 1 -1.72 3.4l-.06.1-.06.09a34.16 34.16 0 0 1 -8.07 9.27c-.53.42-1.06.82-1.61 1.21l-.24.17c-.49.34-1 .68-1.5 1l-.15.1c-.55.34-1.11.67-1.68 1l-.21.1c-.48.27-1 .51-1.47.75l-.34.16a34.56 34.56 0 0 1 -3.39 1.34l-.39.13c-.48.15-1 .29-1.45.42l-.28.08q-.85.23-1.71.39l-.32.07c-.47.09-.94.17-1.41.23l-.41.06a29.83 29.83 0 0 1 -3.38.23h-.41c-.47 0-.94 0-1.4 0h-.29c-.54 0-1.09-.09-1.63-.15h-.32c-.44-.06-.88-.14-1.32-.22l-.39-.08a23.29 23.29 0 0 1 -3.1-.86l-.16-.05a21.78 21.78 0 0 1 -9.73-6.86 23 23 0 0 1 -4.36-18.8z" fill="#ef927f"/><path d="m321.41 316v.75a22.75 22.75 0 0 0 13.1 20.6l26.81-28.75a22 22 0 0 0 5.91-15.35h-23.07a22.74 22.74 0 0 0 -22.75 22.75z" fill="#ef927f"/><path d="m381.51 272h8.14a43.56 43.56 0 0 1 43.56 43.56 0 0 0 0 1 0 0h-95.27a0 0 0 0 1 0 0 43.56 43.56 0 0 1 43.57-43.56z" fill="#f5a491"/><rect fill="#fff" height="46.25" rx="22.75" width="116.56" x="328.93" y="293.28"/><path d="m334.75 332a22.69 22.69 0 0 0 16.93 7.56h71.07a22.76 22.76 0 0 0 22.75-22.75v-.81a22.74 22.74 0 0 0 -22.18-22.74 22.65 22.65 0 0 1 5.8 15.18v.76a22.76 22.76 0 0 1 -22.75 22.8z" fill="#fff2ee"/><g fill="#d7c2b7"><circle cx="355.23" cy="446.75" r="46.75"/><path d="m400.88 383.66h4.73v12.9h-4.73z" transform="matrix(-1 0 0 -1 806.49 780.22)"/><path d="m380.85 383.66h4.73v12.9h-4.73z" transform="matrix(-1 0 0 -1 766.42 780.22)"/><path d="m360.81 383.66h4.73v12.9h-4.73z" transform="matrix(-1 0 0 -1 726.35 780.22)"/></g><path d="m244.88 816.74h70.2l3.66-21.33h-70.2z" fill="#ceb2a5"/><path d="m328.98 811.31h70.21l1.14-21.33h-70.21z" fill="#bc988a"/><path d="m248.54 795.41h13.31l1.21-7.06 53.59-315.17 6.12-36h.29c.05-1.16.16-2.31.3-3.45v-.19l.58-3.42a46.75 46.75 0 0 1 18.37-28.32 46.82 46.82 0 0 0 -32.89 35.38c-.23 1.12-.42 2.25-.57 3.38z" fill="#e5d0c7"/><path d="m244.88 816.74h13.31l3.66-21.33h-13.31z" fill="#d7c2b7"/><path d="m516.05 218-1.19 10.37-3.75 32.47c-.33 2.89-2.21 5-4.42 5h-13.46c-2.22 0-4.09-2.13-4.42-5l-3.75-32.47-1.19-10.37z" fill="#d7c2b7"/><path d="m516.05 217.98-1.19 10.37h-29.8l-1.19-10.37z" fill="#ceb2a5"/><rect fill="#ceb2a5" height="10.37" rx="1.57" width="32.77" x="483.32" y="210.91"/><g fill="#d7c2b7"><path d="m492.92 209.3s-5.2-21.78 10.26-37.86c12.63-13.13-9.23-37.85-9.23-37.85s31.23 24.35 13 41.14c-18.05 16.6-14.03 34.57-14.03 34.57z"/><path d="m494.8 206.79s4.12-12.63 16.91-16c10.45-2.73 7.06-22 7.06-22s8.25 22-6.18 24.83c-14.26 2.83-17.79 13.17-17.79 13.17z"/><rect height="10.37" rx="1.79" width="42.82" x="478.3" y="213.8"/></g><circle cx="499.96" cy="241.12" fill="#fff" r="7.81"/><rect fill="#f5a491" height="41.51" rx="12.26" width="25.13" x="499.71" y="231.99"/><path d="m395.48 228a8.67 8.67 0 0 1 -2.55 6.12l-.62.56a8.66 8.66 0 0 1 -5.51 2h-.35a8.67 8.67 0 0 1 -8.6-8c0-.23 0-.47 0-.71a1.66 1.66 0 0 1 1.68-1.67h14.3a1.69 1.69 0 0 1 1.65 1.7z" fill="#962f4a"/><path d="m386.63 235.28a6.55 6.55 0 0 1 -.14 1.34 8.66 8.66 0 0 1 -8.6-8 6.75 6.75 0 0 1 1.92-.26 6.87 6.87 0 0 1 6.82 6.92z" fill="#e1617f"/><path d="m393.48 226.3c-.07 1.7-2.69 3-5.91 3s-5.83-1.37-5.89-3.07z" fill="#fff"/></svg>