<svg viewBox="0 0 1000 1000" xmlns="http://www.w3.org/2000/svg"><path d="m674.09 467.41c-.12 1.24-.19 2.49-.19 3.76v1.1s0 .59 0 .88 0 .59 0 .88l.06.78.12.95c0 .38.11.76.16 1.14l.12.64c0 .26.08.51.14.77.12.56.24 1.12.39 1.67a2.72 2.72 0 0 0 .13.49c.07.29.15.58.23.86s.17.57.28.86c.28.88.6 1.74.93 2.58.19.43.37.85.56 1.26a1.76 1.76 0 0 0 .09.2c.08.18.16.36.25.53s.16.34.25.5.22.43.33.64.21.38.3.57c.22.41.45.81.7 1.2l.35.55c.24.39.49.77.75 1.15s.61.88.93 1.31l.1.12c.29.38.58.76.88 1.12a3.31 3.31 0 0 1 .25.3c.27.32.54.63.83.94l.12.14c.37.4.73.78 1.1 1.16l1 .94c.17.14.33.29.48.43.32.28.64.56 1 .82l.67.55.18.14 1 .74a4.56 4.56 0 0 0 .39.27.45.45 0 0 0 .14.1c.22.17.46.33.7.49l1 .64c.21.14.44.27.66.39s.42.25.63.36a7.26 7.26 0 0 0 .67.38l.2.1c.34.19.71.37 1.06.55l.24.1c.37.19.75.36 1.13.52a4.88 4.88 0 0 0 .51.22c.34.15.71.29 1.07.43l.65.23c.16.07.35.13.53.19.55.19 1.11.37 1.67.52.29.09.58.16.86.23.85.23 1.73.42 2.6.57l.74.13c.37.05.74.11 1.11.15.69.09 1.4.16 2.11.2h.12c.75.05 1.5.07 2.26.07h106c1.35 0 2.71 0 4 .06h1.13q3.09.11 6.13.36l.94.08.66.06 1.42.14 1.62.18c.5 0 1 .11 1.49.18 1.14.14 2.29.3 3.42.48l1.62.25h.21l1.46.25c1.26.22 2.53.46 3.79.73l2.42.52 2.43.56c1.5.37 3 .76 4.47 1.18l.32.09q.9.24 1.77.51c1 .3 2 .62 3 .94l1.6.53c.92.31 1.86.63 2.78 1s1.77.64 2.63 1h.11c.91.35 1.82.71 2.72 1.08s1.8.75 2.68 1.14 1.46.64 2.19 1c.35.14.67.3 1 .45h.05c.7.32 1.38.64 2.07 1 1.74.84 3.45 1.73 5.15 2.65q2 1.1 4 2.26c.59.34 1.16.68 1.73 1l1.5.92q5.66 3.48 10.79 7.48c.45.34.89.69 1.35 1 2.25 1.76 4.47 3.59 6.61 5.49.39.35.79.7 1.17 1.06l.58.52c.42.39.84.77 1.25 1.17s.72.68 1.09 1q3.66 3.5 7 7.26c.49.54 1 1.09 1.46 1.64l.89 1.05 1.38 1.62c.58.72 1.18 1.44 1.76 2.18q2.67 3.35 5.09 6.85c.44.61.86 1.22 1.27 1.84.24.35.47.71.71 1.07.4.59.78 1.18 1.17 1.78a137.26 137.26 0 0 1 21.56 74v3.31s-.06 2.19-.12 3.29-.11 2.18-.19 3.26-.17 2.17-.27 3.25c-.09.9-.18 1.8-.28 2.69 0 .37-.09.73-.14 1.1-.1.88-.21 1.76-.34 2.64l-.48 3.12a.29.29 0 0 1 0 .09c-.17 1.05-.36 2.09-.56 3.12q-.17.93-.36 1.86c-.11.56-.24 1.12-.35 1.68-.2.9-.4 1.8-.62 2.7s-.48 2-.75 3-.58 2.19-.89 3.27-.59 2-.88 2.91-.62 1.93-1 2.88a.35.35 0 0 1 0 .11c-.33 1-.69 2-1 2.93a.58.58 0 0 1 0 .14c-.36.95-.7 1.89-1.07 2.82s-.74 1.86-1.12 2.78a1.34 1.34 0 0 0 -.07.18c-.41.94-.8 1.88-1.22 2.8s-.86 1.89-1.3 2.83c-.37.76-.73 1.53-1.11 2.28-.12.27-.26.53-.39.8-.33.63-.64 1.25-1 1.87-.22.44-.46.88-.7 1.31l-.69 1.26c-.24.45-.49.9-.75 1.34s-.61 1.09-.92 1.63-.44.76-.68 1.14c-.33.54-.68 1.07-1 1.63a8.48 8.48 0 0 1 -.49.79c-.44.73-.91 1.45-1.38 2.16s-1.12 1.72-1.7 2.57-1.13 1.63-1.7 2.43q-2.7 3.81-5.7 7.42c-.65.79-1.3 1.57-2 2.35s-1.33 1.55-2 2.31-1.63 1.8-2.48 2.68-1.77 1.85-2.68 2.76q-4.11 4.11-8.56 7.85c-1.24 1-2.5 2.07-3.78 3.06-.31.26-.65.51-1 .75l-.21.16q-1.92 1.49-3.89 2.88c-.54.39-1.1.78-1.65 1.16l-1.15.79c-1.51 1-3 2-4.6 3-.64.41-1.3.81-2 1.2h-.05c-.8.47-1.6.94-2.43 1.4s-1.65.93-2.5 1.38-1.65.89-2.5 1.32l-.1.06-2.54 1.27c-1.36.66-2.73 1.3-4.13 1.92-.58.27-1.19.53-1.79.79-1.41.6-2.81 1.18-4.23 1.73-.65.26-1.29.5-1.94.74l-1.92.71-2.23.77c-1.58.53-3.16 1-4.77 1.51-.68.2-1.36.4-2.06.59s-1.39.39-2.1.57-1.42.37-2.13.54l-1.87.45a137 137 0 0 1 -19.45 3l-1.69.13c-.61.05-1.24.09-1.85.12-1.24.08-2.49.13-3.74.17-1.42 0-2.84.06-4.27.06h-90.41a27 27 0 0 0 -10 1.89c-.33.12-.63.25-.94.39l-.65.29c-.29.13-.57.27-.85.42l-.63.33a24.91 24.91 0 0 0 -2.31 1.4c-.27.18-.54.38-.82.58-.62.45-1.21.93-1.79 1.43a.58.58 0 0 0 -.14.13c-.25.21-.48.43-.73.66a.88.88 0 0 1 -.17.16l-.58.59c-.39.4-.77.81-1.12 1.22s-.51.61-.76.92a0 0 0 0 0 0 0 11.59 11.59 0 0 0 -.76 1 26 26 0 0 0 -2 3.22.28.28 0 0 0 -.07.11c-.14.29-.3.59-.43.89-.23.47-.44 1-.64 1.43l-.44 1.17c-.12.38-.26.77-.37 1.16a.94.94 0 0 0 0 .16c-.13.39-.23.78-.33 1.18s-.19.84-.28 1.27c-.08.42-.15.85-.23 1.28a.34.34 0 0 0 0 .1c0 .41-.1.84-.14 1.26s-.08.74-.1 1.11 0 1 0 1.52v102h-456.79v-101.91c0-.74 0-1.46-.1-2.18a27.31 27.31 0 0 0 -27.18-25.14h-53.7q-3 0-5.93-.13c-1 0-1.92-.1-2.88-.16s-1.69-.12-2.51-.19c-1.12-.09-2.21-.2-3.31-.32-.87-.09-1.71-.2-2.57-.31l-.86-.11-1.88-.27-.58-.09c-.89-.14-1.76-.28-2.65-.44a132.38 132.38 0 0 1 -109.27-130.38v-10.41a150.31 150.31 0 0 1 1-17.75 127.61 127.61 0 0 1 4.69-22.64 112.89 112.89 0 0 1 13.13-28.38 117.28 117.28 0 0 1 22.8-25.86c19.26-16.44 41.76-25.86 59.55-31.18a43.95 43.95 0 0 0 31.23-42.1v-43a63 63 0 0 1 56.65-62.69q1.84-.2 3.72-.27c.88 0 1.77-.06 2.65-.06a48.61 48.61 0 0 0 48.43-44.55c.09-1.33.16-2.68.16-4a48.6 48.6 0 0 0 -48.57-48.65h-28a83.61 83.61 0 1 1 0-167.21h526a97.93 97.93 0 0 1 97.92 97.92 69.31 69.31 0 0 0 64 69.09c1.75.13 3.5.2 5.27.2a83.31 83.31 0 0 1 59.12 24.49 84.36 84.36 0 0 1 7.41 8.49 83.17 83.17 0 0 1 17.08 50.63c0 1.77-.07 3.54-.17 5.28a83.33 83.33 0 0 1 -24.32 53.84l-1.6 1.56-1.57 1.51c-.54.49-1.11 1-1.66 1.45s-1 .85-1.52 1.26-1.34 1.1-2 1.62c-.49.38-1 .75-1.5 1.12-.69.51-1.41 1-2.13 1.5-.49.34-1 .67-1.5 1l-.21.15c-.48.31-1 .61-1.46.91-.75.47-1.51.93-2.29 1.37s-1.3.73-1.94 1.08-1.31.7-2 1-1.33.67-2 1-1.33.62-2 .91a.08.08 0 0 1 -.07 0c-.65.3-1.33.58-2 .85h-.09c-.67.27-1.35.54-2 .8-2 .77-4.15 1.47-6.26 2.08l-1.1.31-1.44.38c-.63.17-1.26.31-1.88.46-1.19.28-2.39.53-3.6.74l-1.87.32-1.46.22-.74.1-1.76.22c-1.1.12-2.22.23-3.35.3-.67.05-1.34.09-2 .12l-1.83.07c-.72 0-1.44 0-2.17 0h-178.95c-.73 0-1.46 0-2.19.08l-.93.06-1.44.15-1.3.19c-.44.07-.87.15-1.3.24l-.43.09c-.27.06-.56.12-.84.2l-.84.21c-.3.07-.58.15-.86.24l-.65.2-1 .33-.65.23c-.86.31-1.7.65-2.52 1l-1.16.56a35.86 35.86 0 0 0 -6.57 4.29c-.41.32-.78.65-1.17 1s-.76.68-1.11 1-.72.71-1.06 1.08c-.33.35-.65.71-1 1.07l-.07.06s-.05.05-.05.08c-.27.28-.5.57-.75.87s-.54.69-.8 1.05a35.53 35.53 0 0 0 -6.88 17.79z" fill="#fffaf4"/><g fill="#f8efe6"><path d="m683.08 428a108 108 0 0 1 -1.72 19.33c-.1.67-.23 1.34-.36 2a35.53 35.53 0 0 0 -6.91 17.67c-.12 1.24-.19 2.49-.19 3.76v1.1q-2.05 4.65-4.5 9.06-1.84 3.31-3.91 6.48-2.91 4.49-6.23 8.64a108.8 108.8 0 0 1 -76.07 40.58c-3 .24-6 .37-9.05.37a108.7 108.7 0 0 1 -54.85-14.8q-4.27-2.49-8.3-5.36a109.25 109.25 0 0 1 -38-48.35 107.6 107.6 0 0 1 -3.54-10.34 109.58 109.58 0 0 1 -2.74-48 67.69 67.69 0 0 1 4.29-115.4 67.18 67.18 0 0 1 28.35-8.47c1.57-.11 3.15-.17 4.76-.17a67.56 67.56 0 0 1 58.49 33.6 110.59 110.59 0 0 1 11.56-.61 108.8 108.8 0 0 1 108.92 108.91z"/><circle cx="839.41" cy="319.09" r="67.67"/><path d="m644.33 271.55a67.66 67.66 0 1 1 -37.65-102 80.31 80.31 0 1 1 37.65 102z"/><path d="m500.49 597.58a80.26 80.26 0 0 1 -129.09 63.72 51.79 51.79 0 0 1 -46.59 31.12 80.29 80.29 0 1 1 -145.21 68.58 79.41 79.41 0 0 1 -16.17-10.82 134.59 134.59 0 0 1 -26.34 29.54 132.38 132.38 0 0 1 -109.23-130.43v-10.41a150.31 150.31 0 0 1 1-17.75 127.61 127.61 0 0 1 4.69-22.64 112.89 112.89 0 0 1 13.13-28.38 117.28 117.28 0 0 1 22.77-25.86 133.93 133.93 0 0 1 103.71 77 80.26 80.26 0 0 1 99.53 11.47 51.81 51.81 0 0 1 67.46-41.22 80.27 80.27 0 0 1 80-74.19c1.93 0 3.84.07 5.74.2a80.31 80.31 0 0 1 74.6 80.07z"/></g><path d="m674.09 467c-.12 1.24-.19 2.49-.19 3.76v1.1s0 .59 0 .88 0 .59 0 .88l.06.78.12.95c0 .38.11.76.16 1.14l.12.64c0 .26.08.51.14.77.12.56.24 1.12.39 1.67a2.72 2.72 0 0 0 .13.49c.07.29.15.58.23.86s.17.57.28.86c.28.88.6 1.74.93 2.58.19.43.37.85.56 1.26a1.76 1.76 0 0 0 .09.2c.08.18.16.36.25.53s.16.34.25.5.22.43.33.64.21.38.3.57c.22.41.45.81.7 1.2a5.6 5.6 0 0 0 .35.55c.24.39.49.77.75 1.15s.61.88.93 1.31l.1.12c.29.38.58.76.88 1.12a3.31 3.31 0 0 1 .25.3c.27.32.54.63.83.94l.12.14c.37.4.73.78 1.1 1.16l1 .94c.17.14.33.29.48.43.32.28.64.56 1 .82l.67.55.18.14 1 .74a4.56 4.56 0 0 0 .39.27.45.45 0 0 0 .14.1 6.76 6.76 0 0 0 .7.49l1 .64c.21.14.44.27.66.39l.63.36a7.26 7.26 0 0 0 .67.38l.2.1c.34.2.71.38 1.06.55l.24.1c.37.19.75.36 1.13.52a4.88 4.88 0 0 0 .51.22c.34.15.71.29 1.07.43l.65.23c.16.07.35.13.53.19.55.19 1.11.37 1.67.52.29.09.58.16.86.23.85.23 1.73.42 2.6.57l.74.13c.37.05.74.11 1.11.15.69.09 1.4.16 2.11.2h.12c.75 0 1.5.07 2.26.07h106c1.35 0 2.71 0 4 .06h1.13q3.09.1 6.13.36l.94.08.66.06 1.42.14c.54 0 1.07.11 1.62.18s1 .11 1.49.18c1.14.14 2.29.3 3.42.48l1.62.25h.21l1.46.25c1.26.22 2.53.46 3.79.73l2.42.52 2.43.56c1.5.37 3 .76 4.47 1.18l.32.09q.9.24 1.77.51c1 .3 2 .62 3 .94l1.6.53c.92.31 1.86.63 2.78 1s1.77.64 2.63 1h.11c.91.35 1.82.71 2.72 1.08s1.8.75 2.68 1.14 1.46.64 2.19 1c.35.14.67.3 1 .45h.05c.7.32 1.38.64 2.07 1 1.74.84 3.45 1.73 5.15 2.65q2 1.1 4 2.26c.59.34 1.16.68 1.73 1l1.5.92q5.52 3.42 10.65 7.33l1.35 1c2.25 1.76 4.47 3.59 6.61 5.49.39.35.79.7 1.17 1.06l.58.52c.42.39.84.77 1.25 1.17s.72.68 1.09 1q3.66 3.49 7 7.26c.49.54 1 1.09 1.46 1.64l.89 1 1.38 1.62c.58.72 1.18 1.44 1.76 2.18q2.67 3.34 5.09 6.85c.44.61.86 1.22 1.27 1.84.24.35.47.71.71 1.07.4.59.78 1.18 1.17 1.78a137.26 137.26 0 0 1 21.56 74v3.31s-.06 2.19-.12 3.29-.01 2.35-.01 3.48-.17 2.17-.27 3.25c-.09.9-.18 1.8-.28 2.69 0 .37-.09.73-.14 1.1-.1.88-.21 1.76-.34 2.64l-.48 3.12a.29.29 0 0 1 0 .09c-.17 1-.36 2.09-.56 3.12q-.17.93-.36 1.86c-.11.56-.24 1.12-.35 1.68-.2.9-.4 1.8-.62 2.7s-.48 2-.75 3-.58 2.19-.89 3.27-.59 2-.88 2.91-.62 1.93-1 2.88a.35.35 0 0 1 0 .11c-.33 1-.69 2-1 2.93a.58.58 0 0 1 0 .14c-.36 1-.7 1.89-1.07 2.82s-.74 1.86-1.12 2.78a1.34 1.34 0 0 0 -.07.18c-.41.94-.8 1.88-1.22 2.8s-.86 1.89-1.3 2.83c-.37.76-.73 1.53-1.11 2.28-.12.27-.26.53-.39.8-.33.63-.64 1.25-1 1.87-.22.44-.46.88-.7 1.31l-.69 1.26c-.24.45-.49.9-.75 1.34s-.61 1.09-.92 1.63-.47.81-.72 1.21l-1 1.6c-.15.25-.3.5-.47.75-.44.73-.91 1.45-1.38 2.16s-1.12 1.72-1.7 2.57-1.13 1.63-1.7 2.43q-2.7 3.81-5.7 7.42c-.65.79-1.3 1.57-2 2.35s-1.33 1.55-2 2.31-1.63 1.8-2.48 2.68-1.68 1.75-2.53 2.61q-4.18 4.18-8.72 8c-1.23 1-2.5 2.07-3.77 3.06-.31.26-.65.51-1 .75l-.21.16q-1.92 1.49-3.89 2.88c-.54.39-1.1.78-1.65 1.16l-1.15.79c-1.51 1-3 2-4.6 3-.64.41-1.3.81-2 1.2h-.05c-.8.47-1.6.94-2.43 1.4s-1.65.93-2.5 1.38-1.65.89-2.5 1.32l-.1.06-2.54 1.27c-1.36.66-2.73 1.3-4.13 1.92-.58.27-1.19.53-1.79.79-1.41.6-2.81 1.18-4.23 1.73-.65.26-1.29.5-1.94.74l-1.92.71-2.23.77c-1.58.53-3.16 1-4.77 1.51-.68.2-1.36.4-2.06.59s-1.39.39-2.1.57-1.42.37-2.13.54l-1.87.45a137 137 0 0 1 -19.45 3l-1.69.13c-.61 0-1.24.09-1.85.12-1.24.08-2.49.13-3.74.17-1.42 0-2.84.06-4.27.06h-90.43a27 27 0 0 0 -10 1.89c-.33.12-.63.25-.94.39l-.65.29c-.29.13-.57.27-.85.42l-.63.33a24.91 24.91 0 0 0 -2.31 1.4l-.82.58c-.62.45-1.21.93-1.79 1.43a.58.58 0 0 0 -.14.13c-.25.21-.48.43-.73.66a.88.88 0 0 1 -.17.16l-.58.59c-.39.4-.77.81-1.12 1.22s-.52.61-.76.92a11.59 11.59 0 0 0 -.76 1 26 26 0 0 0 -2 3.22.28.28 0 0 0 -.07.11c-.15.29-.3.59-.43.89-.23.47-.44.95-.64 1.43s-.29.77-.44 1.17-.26.77-.37 1.16a.94.94 0 0 0 0 .16c-.13.39-.23.78-.33 1.18s-.2.85-.28 1.27c-.09.42-.16.85-.23 1.28a.34.34 0 0 0 0 .1c0 .41-.1.84-.14 1.26s-.08.74-.1 1.11 0 1 0 1.52v43.67h-456.79v-43.65c0-.74 0-1.46-.1-2.18a80 80 0 0 1 -47.73-25.14h-33.19q-3 0-5.93-.13c-1 0-1.92-.1-2.88-.16s-1.69-.12-2.51-.19c-1.12-.09-2.21-.2-3.31-.32-.87-.09-1.71-.2-2.57-.31l-.86-.11-1.88-.27-.58-.09c-.89-.14-1.76-.28-2.65-.44a132.38 132.38 0 0 1 -109.23-130.37v-10.41a150.31 150.31 0 0 1 1-17.75 82.52 82.52 0 0 1 59.64 79.28 82.62 82.62 0 0 1 -3.62 24.24h.24a46 46 0 0 1 43.55 31.31 62.25 62.25 0 0 1 119-6.71 94.19 94.19 0 0 1 116.64-81.58 71.4 71.4 0 0 1 -.57-8.82 73.3 73.3 0 0 1 .44-7.88 70.81 70.81 0 0 1 22.08-44 70.67 70.67 0 0 1 37-18.19 122.45 122.45 0 0 1 -3.82-25.78c-.1-1.8-.14-3.62-.14-5.44 0-2.69.1-5.36.25-8a123.56 123.56 0 0 1 49.9-91.46c1.15-.86 2.33-1.71 3.54-2.53a123.15 123.15 0 0 1 38.01-17.57c2.74-.73 5.5-1.37 8.3-1.91a121.32 121.32 0 0 1 17.84-2.09 71.56 71.56 0 0 1 -.76-7.37c0-.81-.07-1.62-.07-2.44a65.07 65.07 0 0 1 2.4-17.24c-1.2-.46-2.37-.93-3.54-1.43a104.57 104.57 0 0 1 -15.83-8.32c-2.86-1.82-5.63-3.79-8.3-5.88a105.88 105.88 0 0 1 -40.77-83.6c0-.69 0-1.37 0-2.05a100.56 100.56 0 0 1 .77-10.9 106.1 106.1 0 0 1 51.52-78.53 106.16 106.16 0 0 1 88.44-8.87 105.27 105.27 0 0 1 169.25 75.84c.62-.06 1.23-.11 1.83-.14 1-.07 2.08-.1 3.13-.1a48.35 48.35 0 0 1 30 10.41 48.93 48.93 0 0 1 15 19.93 132.72 132.72 0 0 1 70.63-22.48c1.17 0 2.35-.05 3.55-.05a132.77 132.77 0 0 1 50.6 10 83.17 83.17 0 0 1 17.08 50.63c0 1.77-.07 3.54-.17 5.28a83.33 83.33 0 0 1 -24.32 53.84l-1.6 1.56-1.61 1.48c-.54.49-1.11 1-1.66 1.45s-1 .85-1.52 1.26-1.34 1.1-2 1.62c-.49.38-1 .75-1.5 1.12-.69.51-1.41 1-2.13 1.5-.49.34-1 .67-1.5 1l-.21.15c-.48.31-1 .61-1.46.91-.75.47-1.51.93-2.29 1.37s-1.3.73-1.94 1.08-1.31.7-2 1-1.33.67-2 1-1.33.62-2 .91a.08.08 0 0 1 -.07 0c-.65.3-1.33.58-2 .85h-.09c-.67.27-1.35.54-2 .8-2 .77-4.15 1.47-6.26 2.08l-1.1.31-1.44.38c-.61.16-1.21.3-1.81.44-1.22.28-2.44.54-3.67.76l-1.87.32-1.46.22-.74.1-1.76.22c-1.1.12-2.22.23-3.35.3-.67.05-1.34.09-2 .12l-1.83.07c-.72 0-1.44 0-2.17 0h-178.88c-.76 0-1.51 0-2.26.08l-.87.06-1.37.14c-.45.06-.9.12-1.36.2s-.87.15-1.3.24l-.43.09c-.27.06-.56.12-.84.2l-.84.21c-.3.07-.58.15-.86.24l-.65.2-1 .33-.65.23c-.86.32-1.71.67-2.54 1.05l-1.14.55a35.86 35.86 0 0 0 -6.57 4.29c-.41.32-.78.65-1.17 1s-.76.68-1.11 1-.72.71-1.06 1.08c-.33.35-.66.7-1 1.07l-.07.06s-.05 0-.05.08c-.27.28-.5.57-.75.87s-.54.69-.8 1.05a35.53 35.53 0 0 0 -6.88 17.77z" fill="#fff7f0"/><path d="m501.82 342.77a84.66 84.66 0 0 0 56.18 50.07 84.79 84.79 0 0 1 66.61-154.16 84.79 84.79 0 0 0 -122.79 104.09z" fill="#fff" opacity=".36"/><path d="m972.14 351.36c0 1.77-.07 3.54-.17 5.28-1.17-1.36-2.39-2.7-3.65-4a86.49 86.49 0 0 0 -147.52 46.18 88.07 88.07 0 0 1 -.48-14.79 86.5 86.5 0 0 1 148.54-55.51c.06.06.12.11.17.17a84 84 0 0 1 3.11 22.67z" fill="#fff" opacity=".36"/><rect fill="#d5cdc3" height="17.61" rx="8.8" transform="matrix(-1 0 0 -1 201.35 1839.45)" width="74.06" x="63.64" y="910.92"/><rect fill="#d5cdc3" height="17.61" rx="8.8" transform="matrix(-1 0 0 -1 1099.69 1839.45)" width="809.94" x="144.87" y="910.92"/><path d="m664.68 390a32.84 32.84 0 0 1 -52.23 26.49l-22.23-16.26-.09-.07-4-2.92-62-45.37a32.79 32.79 0 0 1 6.62-56.74c.84-.36 1.7-.69 2.56-1a32.68 32.68 0 0 1 29.59 4.69l88.37 64.61a32.85 32.85 0 0 1 13.41 26.57z" fill="#f9a0b4"/><path d="m664.68 390a32.73 32.73 0 0 1 -6.33 19.36 30.64 30.64 0 0 1 -3.44 4 32.88 32.88 0 0 0 -9.91-41.29l-88.39-64.62a32.82 32.82 0 0 0 -42.43 3.14 34.23 34.23 0 0 1 2.82-4.59 32.85 32.85 0 0 1 45.9-7.12l88.37 64.61a32.85 32.85 0 0 1 13.41 26.51z" fill="#ffb2bf"/><path d="m311.47 390a32.86 32.86 0 0 0 52.24 26.49l22.23-16.26.08-.07 4-2.92 62.05-45.37a32.79 32.79 0 0 0 -6.62-56.74c-.84-.36-1.7-.69-2.56-1a32.68 32.68 0 0 0 -29.59 4.69l-88.37 64.61a32.85 32.85 0 0 0 -13.46 26.57z" fill="#f9a0b4"/><path d="m311.47 390a32.67 32.67 0 0 0 6.34 19.36 29.82 29.82 0 0 0 3.43 4 32.87 32.87 0 0 1 10-41.29l88.38-64.62a32.82 32.82 0 0 1 42.38 3.14 33.23 33.23 0 0 0 -2.8-4.59 32.84 32.84 0 0 0 -45.9-7.12l-88.37 64.61a32.85 32.85 0 0 0 -13.46 26.51z" fill="#ffb2bf"/><circle cx="487.11" cy="132.84" fill="#ffc535" r="61.37"/><circle cx="488.45" cy="148.06" fill="#f63e4a" r="31.01"/><path d="m468 247.9v57.45a20.51 20.51 0 0 0 41 0v-57.45a20.51 20.51 0 0 0 -41 0z" fill="#ffb2bf"/><path d="m430.47 407.23v88.09a59.68 59.68 0 1 0 119.35 0v-88.09z" fill="#f63e4a"/><path d="m430.47 386.5v88.14l119.35-25.85v-62.29z" fill="#e1303e"/><path d="m585.68 400.11v3.26a43.26 43.26 0 0 1 -1 9.52l-.08-.07-4-2.91-62-45.37a32.63 32.63 0 0 1 -10.4-12.54 32.77 32.77 0 0 1 19.53-36.2c.62.22 1.22.46 1.82.7a87.45 87.45 0 0 1 13 6.6c1.49.9 2.93 1.87 4.36 2.86a87.78 87.78 0 0 1 7.88 6.15 89.88 89.88 0 0 1 30.91 68z" fill="#f9a0b4"/><path d="m578.72 392.06v3.26a43.55 43.55 0 0 1 -43.55 43.55h-93.45a43.55 43.55 0 0 1 -43.53-43.55v-3.26a89.6 89.6 0 0 1 13.49-47.44c.86-1.43 1.79-2.82 2.73-4.18a87.68 87.68 0 0 1 10.21-12.2c1.43-1.44 2.92-2.83 4.47-4.19a84.73 84.73 0 0 1 10.3-7.74c.65-.43 1.3-.84 2-1.24a87.86 87.86 0 0 1 14.71-7.27 90.43 90.43 0 0 1 66.5.7 88 88 0 0 1 13 6.59c1.48.91 2.94 1.85 4.37 2.87a90.87 90.87 0 0 1 24 24.56c.45.69.9 1.37 1.33 2.08a89.6 89.6 0 0 1 13.42 47.46z" fill="#f63e4a"/><path d="m578.71 392.05v3.27a43.55 43.55 0 0 1 -43.55 43.54h-29.06a97.26 97.26 0 0 0 32.31-121.94l1.51 1a87.78 87.78 0 0 1 7.88 6.15 89.79 89.79 0 0 1 30.91 67.95z" fill="#ff6473"/><path d="m468 247.9v44.34a49.91 49.91 0 0 0 41 1.07v-45.41a20.51 20.51 0 0 0 -41 0z" fill="#f9a0b4"/><circle cx="437.16" cy="224.78" fill="#ffb2bf" r="20.94"/><ellipse cx="489.66" cy="219.57" fill="#ffb2bf" rx="59.19" ry="71.52"/><path d="m424.82 224.09a9.07 9.07 0 0 1 5.55-8.36 2.59 2.59 0 0 1 3.52 2.46v11.81a2.64 2.64 0 0 1 -3.76 2.37 9.08 9.08 0 0 1 -5.31-8.28z" fill="#f9a0b4"/><circle cx="467.55" cy="227.4" fill="#604646" r="4.5"/><circle cx="511.78" cy="227.4" fill="#604646" r="4.5"/><path d="m504.86 244.31a14.73 14.73 0 0 1 -4.29 10.57c-.35.34-.7.67-1.07 1a15.21 15.21 0 0 1 -9.56 3.51h-.61a15.11 15.11 0 0 1 -8.93-2.75 14.78 14.78 0 0 1 -6.29-10.71c0-.41-.06-.82-.07-1.23a2.83 2.83 0 0 1 .84-2.05 2.93 2.93 0 0 1 2.06-.87l25-.3a2.9 2.9 0 0 1 2.92 2.83z" fill="#962f4a"/><path d="m489.6 257.08a10.79 10.79 0 0 1 -.2 2.29h-.08a15 15 0 0 1 -15.21-13.46 12 12 0 0 1 15.49 11.17z" fill="#e1617f"/><path d="m500 241.47c-.08 2.92-4.62 5.31-10.24 5.38s-10.21-2.22-10.36-5.13z" fill="#fff"/><path d="m484.12 258.52a15.21 15.21 0 0 0 5.2.85h.62a15.51 15.51 0 0 0 5.13-.95 12.7 12.7 0 0 0 -10.95.1z" fill="#fff"/><circle cx="543.52" cy="224.78" fill="#ffb2bf" r="20.94"/><path d="m553.39 224.05a9.08 9.08 0 0 1 -5.56 8.37 2.6 2.6 0 0 1 -3.52-2.46v-11.81a2.63 2.63 0 0 1 3.76-2.36 9.07 9.07 0 0 1 5.32 8.26z" fill="#f9a0b4"/><g fill="#ffc535"><circle cx="512.24" cy="159.74" r="35.02"/><circle cx="467.95" cy="173.52" r="30.22"/><circle cx="441.18" cy="192.51" r="23.03"/><circle cx="542.85" cy="189.75" r="20.27"/></g><path d="m547.26 159.74a34.32 34.32 0 0 1 -.76 7.21 35 35 0 0 0 -66.82-9.15c-.76-.32-1.53-.63-2.32-.89a29.59 29.59 0 0 0 -9.82-1.65 30.15 30.15 0 0 0 -25.64 14.25 29.24 29.24 0 0 0 -3.76 9 28 28 0 0 0 -.59 3.19 23.05 23.05 0 0 0 -18.81 16 23.48 23.48 0 0 1 -.58-5.2 23 23 0 0 1 19.84-22.78 30.23 30.23 0 0 1 42.12-23.88 35 35 0 0 1 67.17 13.9z" fill="#f4ad18"/><path d="m563.12 189.75a20.32 20.32 0 0 1 -1.13 6.68 20.22 20.22 0 0 0 -16.62-14.75 34.25 34.25 0 0 0 1.46-10c0-.62 0-1.24-.05-1.84a20.29 20.29 0 0 1 16.34 19.91z" fill="#f4ad18"/><path d="m565.23 344.6c-18.71 13.58-46.18 22.12-76.77 22.12s-58.07-8.54-76.78-22.1c.86-1.43 1.79-2.82 2.73-4.18a87.68 87.68 0 0 1 10.21-12.2c1.43-1.44 2.92-2.83 4.47-4.19a84.73 84.73 0 0 1 10.3-7.74c.65-.43 1.3-.84 2-1.24a87.86 87.86 0 0 1 14.71-7.27 90.43 90.43 0 0 1 66.5.7 88 88 0 0 1 13 6.59c1.48.91 2.94 1.85 4.37 2.87a90.87 90.87 0 0 1 24 24.56c.38.69.83 1.37 1.26 2.08z" fill="#ffb2bf"/><rect fill="#9acfe2" height="11.96" rx="5.98" width="48.96" x="463.98" y="294.96"/><path d="m468.24 453.37a51.61 51.61 0 0 1 .31 38.36 43.2 43.2 0 0 1 -21.4 23.27l-.44.22c-.69.32-1.39.62-2.1.91l-81.13 32.44a33.14 33.14 0 0 1 -26.89-1.21 38.88 38.88 0 0 1 -15-12.91 41.24 41.24 0 0 1 -4.19-7.66c-8.14-19.56.51-41.69 18.49-48.88l122.53-49z" fill="#9b7d63"/><path d="m630.13 837a24.26 24.26 0 0 1 -4.56.29 24.59 24.59 0 0 1 -23.22-19.13l-16.35-72.1 58.37 1.75 6.47 62.34a24.58 24.58 0 0 1 -20.71 26.85z" fill="#ffb2bf"/><path d="m644.32 747.81-58.32-1.75-33.31-190.49a34.1 34.1 0 1 1 67.31-10.57z" fill="#9b7d63"/><path d="m644.32 747.81-10.77-.33-24-202.65a34.12 34.12 0 0 0 -27.55-30.09 34.11 34.11 0 0 1 38.27 30.41z" fill="#c9a788"/><path d="m640 910.44a18.92 18.92 0 0 0 14.41-18.81l-2.24-77.63a15.5 15.5 0 0 0 -19.17-14.67l-20.3 5a29 29 0 0 0 -18.7 41.56l24.47 54.35a18.93 18.93 0 0 0 21.53 10.2z" fill="#ffb2bf"/><path d="m640 910.44a18.68 18.68 0 0 1 -9.8-.21l.35-.07a18.92 18.92 0 0 0 14.45-18.81l-1.78-60.79-.48-16.81a15.57 15.57 0 0 0 -1.68-6.69l-.81-7.78-5.36-51.76 9.45.29 6.18 59.56a15.37 15.37 0 0 1 1.68 6.66l2.26 77.6a18.93 18.93 0 0 1 -14.46 18.81z" fill="#f9e0e5" opacity=".38"/><path d="m651.74 732.91-4.56 20.17-12.34 1.35-51.37 5.64-8.82-18.69 57.61-6.33z" fill="#59442a"/><path d="m397.7 685.82a24.63 24.63 0 0 0 17.24-28.82l-15.52-72.27-52.19 26.2 20.41 59.25a24.62 24.62 0 0 0 30.06 15.64z" fill="#ffb2bf"/><path d="m347.23 610.94 52.19-26.2-17.71-82.5a34.1 34.1 0 1 0 -65.45 18.81z" fill="#9b7d63"/><path d="m347.23 610.93 9.63-4.83-31-89.88a34.11 34.11 0 0 1 12.24-38.87 34.12 34.12 0 0 0 -21.88 43.71z" fill="#c9a788"/><path d="m419.69 756.6a18.92 18.92 0 0 1 -21-11l-30.69-71.3a15.49 15.49 0 0 1 11.21-21.42l20.5-4a28.94 28.94 0 0 1 34.49 29.81l.74 59.6a18.94 18.94 0 0 1 -15.25 18.31z" fill="#ffb2bf"/><path d="m419.69 756.6a18.75 18.75 0 0 0 8.8-4.32l-.36.08a18.92 18.92 0 0 1 -21-11l-24-55.88-6.64-15.45a15.36 15.36 0 0 1 -1.3-6.76l-2.55-7.4-17-49.2-8.45 4.24 19.51 56.62a15.26 15.26 0 0 0 1.3 6.77l30.66 71.32a18.92 18.92 0 0 0 21.03 10.98z" fill="#f9e0e5" opacity=".38"/><path d="m334.22 600.55 12.64 16.37 11.76-3.98 48.95-16.54.12-20.67-54.9 18.55z" fill="#59442a"/><path d="m344 389.66h78.4a10.59 10.59 0 0 1 10.6 10.59 10.59 10.59 0 0 1 -10.59 10.59h-78.41a0 0 0 0 1 0 0v-21.18a0 0 0 0 1 0 0z" fill="#59442a" transform="matrix(-1 0 0 -1 777 800.49)"/><circle cx="535.93" cy="821.78" fill="#9b7d63" r="15.89"/><circle cx="440.59" cy="821.78" fill="#9b7d63" r="15.89"/><g fill="#59442a"><rect height="96.57" rx="19.97" width="39.95" x="495.98" y="768.9"/><rect height="96.57" rx="19.97" width="39.95" x="440.59" y="768.9"/><path d="m541.23 389.66h78.4a10.59 10.59 0 0 1 10.59 10.59 10.59 10.59 0 0 1 -10.59 10.59h-78.4a0 0 0 0 1 0 0v-21.18a0 0 0 0 1 0 0z"/></g><path d="m541.23 389.66h41.33v21.18h-41.33z" fill="#3e2e19"/><path d="m392.64 389.66h41.33v21.18h-41.33z" fill="#3e2e19"/><g fill="#362714"><path d="m487.11 384.46v31.54h-83.59a5.38 5.38 0 0 1 -5.39-5.39v-20.76a5.38 5.38 0 0 1 5.39-5.39z"/><rect height="141.91" rx="30.26" width="60.52" x="460.56" y="768.9"/><path d="m521.08 799.16v81.4a29.4 29.4 0 0 1 -.47 5.26 30.25 30.25 0 0 1 -59.59 0 29.4 29.4 0 0 1 -.46-5.26v-81.4a30.26 30.26 0 0 1 60.52 0z"/></g><path d="m564.3 811.32h-147a28.57 28.57 0 0 1 -28.46-26.14l-19.68-231.49a122.1 122.1 0 0 1 121.66-132.47 122.1 122.1 0 0 1 121.66 132.47l-19.72 231.49a28.57 28.57 0 0 1 -28.46 26.14z" fill="#9b7d63"/><path d="m612.94 543.16c0 3.47-.16 7-.45 10.53l-19.73 231.49a28.56 28.56 0 0 1 -28.47 26.14h-43.16l14.34-168.32c.31-3.55.45-7.06.45-10.56a122.2 122.2 0 0 0 -164.6-114.34 122.13 122.13 0 0 1 241.62 25.06z" fill="#89684e"/><path d="m485.26 620.18a27.38 27.38 0 0 1 27.38 27.38v150.73a0 0 0 0 1 0 0h-54.77a0 0 0 0 1 0 0v-150.73a27.38 27.38 0 0 1 27.39-27.38z" fill="#59442a"/><path d="m539.79 811.32h-122.45a28.45 28.45 0 0 1 -18.77-7.05 70.79 70.79 0 0 1 141.22 7.05z" fill="#59442a"/><path d="m490.82 634.61a21.82 21.82 0 0 1 21.82 21.82v120.09a0 0 0 0 1 0 0h-43.64a0 0 0 0 1 0 0v-120.09a21.82 21.82 0 0 1 21.82-21.82z" fill="#4c361e"/><path d="m551.82 811.32h-122a61 61 0 0 1 122 0z" fill="#4c361e"/><path d="m576.1 389.24v22a4.77 4.77 0 0 1 -4.77 4.77h-84.22v-31.55h84.22a4.77 4.77 0 0 1 4.77 4.78z" fill="#362714"/><circle cx="487.11" cy="555.57" fill="#89684e" r="58.26"/><circle cx="490.82" cy="552.3" fill="#c9a788" r="50.41"/><path d="m520.35 580.31a40.26 40.26 0 0 1 -33.35 11.52 40.32 40.32 0 0 0 -11.11-77.08 40.33 40.33 0 0 1 44.45 65.56z" fill="#c1946f"/><path d="m554.92 400.25a63.58 63.58 0 0 1 -1.92 15.75h-124.31a64.23 64.23 0 0 1 0-31.57h124.31a63.66 63.66 0 0 1 1.92 15.82z" fill="#1c1206"/><circle cx="490.82" cy="400.25" fill="#59442a" r="50.41"/><path d="m541.23 400.25a50.47 50.47 0 0 1 -61.85 49.1 50.42 50.42 0 0 0 0-98.21 50.47 50.47 0 0 1 61.85 49.11z" fill="#362714"/><circle cx="490.82" cy="400.25" fill="#fff3e4" r="35.65"/><path d="m522.62 400.25a30.7 30.7 0 0 1 -35.51 30.31 30.7 30.7 0 0 0 0-60.63 31.78 31.78 0 0 1 4.82-.38 30.7 30.7 0 0 1 30.69 30.7z" fill="#fff" opacity=".42"/><path d="m461.26 400.25a22.34 22.34 0 0 1 22.34-22.34 22.57 22.57 0 0 1 3.51.27 22.34 22.34 0 0 0 0 44.13 22.57 22.57 0 0 1 -3.51.27 22.34 22.34 0 0 1 -22.34-22.33z" fill="#f9ebdc"/><g fill="#1c1206"><path d="m521.08 875.64v4.92a29.4 29.4 0 0 1 -.47 5.26h-59.61a29.4 29.4 0 0 1 -.46-5.26v-4.92z"/><path d="m460.56 850.03h60.52v10.17h-60.52z"/><path d="m460.56 824.41h60.52v10.17h-60.52z"/></g><g fill="#9b7d63"><path d="m654.46 891.46a19.25 19.25 0 0 1 -5 13.34 19.6 19.6 0 0 1 -32.14-4.45l-3.32-7.35-21.75-48c-9-17 .56-37.86 19.41-42.49l20.94-5.15a15.85 15.85 0 0 1 19.75 15z"/><path d="m647.55 791.4-48.39-2.18a4.49 4.49 0 0 0 -4.65 5.15l3.61 23.94 54.19-2.66.93-18a6 6 0 0 0 -5.69-6.25z"/><path d="m652.22 831.93-8.85-4.79 5.85-21c2.1-7.52 10-11.77 15.87-8.57 5.91 3.2 6.65 12.1 1.5 18z"/></g><g fill="#c9a788"><rect height="5.33" rx="2.67" width="21.59" x="640.13" y="837.68"/><rect height="5.33" rx="2.67" width="21.59" x="640.13" y="847.46"/><rect height="5.33" rx="2.67" width="21.59" x="640.13" y="857.23"/><path d="m649.45 904.8a19.6 19.6 0 0 1 -32.14-4.45l-3.31-7.35a22 22 0 0 1 35.48 11.85z"/></g><g fill="#ffb2bf"><rect height="47.67" rx="23.83" width="56.67" x="331.83" y="370.34"/><rect height="47.67" rx="23.83" width="56.67" x="587.65" y="370.34"/></g></svg>