<svg viewBox="0 0 1000 1000" xmlns="http://www.w3.org/2000/svg"><rect fill="#d2d6fa" height="17.61" rx="8.8" width="74.06" x="871.24" y="896.39"/><rect fill="#d2d6fa" height="17.61" rx="8.8" width="809.94" x="54.13" y="896.39"/><path d="m981.6 624.35v10.41a132.39 132.39 0 0 1 -132.4 132.4h-53.69a27.32 27.32 0 0 0 -27.32 27.32v101.91h-456.76v-101.91a27.34 27.34 0 0 0 -27.32-27.32h-90.34c-1.43 0-2.85 0-4.27-.06a137.22 137.22 0 0 1 -84.32-32.24q-4.53-3.81-8.71-8a137.6 137.6 0 0 1 97.3-234.86h106a35.76 35.76 0 0 0 5.85-71 35.26 35.26 0 0 0 -5.85-.48h-178.84a83.61 83.61 0 1 1 .17-167.22 69.19 69.19 0 0 0 69.13-69.29 97.92 97.92 0 0 1 97.92-98.01h526a83.61 83.61 0 1 1 0 167.21h-28a48.59 48.59 0 0 0 -48.59 48.59 48.58 48.58 0 0 0 48.59 48.59c.89 0 1.78 0 2.66.06a63 63 0 0 1 60.36 63v43a43.91 43.91 0 0 0 31.24 42.1c25.57 7.65 60.89 23.78 82.32 57a113.22 113.22 0 0 1 13.15 28.45 137.16 137.16 0 0 1 5.72 40.35z" fill="#f3f4fe"/><path d="m981.6 624.35v10.41a132.39 132.39 0 0 1 -132.4 132.4h-53.69a27.32 27.32 0 0 0 -27.32 27.32v101.91h-456.76v-101.91a27.34 27.34 0 0 0 -27.32-27.32h-90.34c-1.43 0-2.85 0-4.27-.06a137.22 137.22 0 0 1 -84.32-32.24q-4.53-3.81-8.71-8a137.6 137.6 0 0 1 97.3-234.86h106a35.76 35.76 0 0 0 5.85-71 35.26 35.26 0 0 0 -5.85-.48h-178.84a83.63 83.63 0 0 1 -82.42-97.63q3.5-2 7.14-3.67c145.94-67.29 292.08 105 485.4 54.36a866.09 866.09 0 0 1 233.18-28.32 48.26 48.26 0 0 0 21.94 5.23c.89 0 1.78 0 2.66.06a63 63 0 0 1 60.36 63v43a43.91 43.91 0 0 0 31.24 42.1c25.57 7.65 60.89 23.78 82.32 57a113.22 113.22 0 0 1 13.13 28.35 137.16 137.16 0 0 1 5.72 40.35z" fill="#edeefe"/><path d="m864.07 423.26s-226.2-81.54-468.45 58.33c0 0 206.87-110.4 468.45-58.33z" fill="#f8f9ff"/><path d="m966.32 698.11a132.5 132.5 0 0 1 -116.29 69h-53.69a27.32 27.32 0 0 0 -27.34 27.37v101.91h-456.74v-101.91a27.34 27.34 0 0 0 -27.32-27.32h-90.34c-1.43 0-2.85 0-4.27-.06a137.22 137.22 0 0 1 -84.33-32.24q-4.53-3.81-8.71-8a137.52 137.52 0 0 1 -36-63.13c141.39-84.78 385.14 44.72 595.55-.52 222.35-47.81 309.48 34.9 309.48 34.9z" fill="#d2d6fa"/><path d="m966.32 698.11a132.5 132.5 0 0 1 -116.29 69h-53.69a27.32 27.32 0 0 0 -27.34 27.37v101.91h-456.74v-101.91a27.34 27.34 0 0 0 -27.32-27.32h-90.34c-1.43 0-2.85 0-4.27-.06a137.22 137.22 0 0 1 -84.33-32.24q-4.53-3.81-8.71-8a137.52 137.52 0 0 1 -36-63.13c141.39-84.78 385.14 44.72 595.55-.52 222.35-47.81 309.48 34.9 309.48 34.9z" fill="#d2d6fa"/><path d="m966.32 698.11c-1 1.77-2 3.51-3 5.23-17.08-13.58-107.79-75.07-306.5-32.34-209.48 45-452-83.12-593.67-.59q-1-3.3-1.88-6.67c141.39-84.78 385.14 44.72 595.55-.52 222.37-47.82 309.5 34.89 309.5 34.89z" fill="#f8f9ff"/><path d="m599.64 356.47-13.28 13.27a2.06 2.06 0 0 1 -1.48.62h-31.26a2.06 2.06 0 0 1 -1.48-.62l-13.07-13.07a2.09 2.09 0 0 1 1.47-3.57l57.61-.2a2.09 2.09 0 0 1 1.49 3.57z" fill="#edeefe"/><path d="m563.92 300.85v41.54a1.4 1.4 0 0 0 1.4 1.4h29.8a1.4 1.4 0 0 0 1.14-2.22l-29.8-41.57a1.4 1.4 0 0 0 -2.54.85z" fill="#edeefe"/><g fill="#fff"><path d="m838.32 175.73h-55.32a27.69 27.69 0 0 1 55.37 0z"/><path d="m807.17 175.73h-79.53a39.77 39.77 0 0 1 79.53 0z"/><path d="m772.19 175.73h-97.08a48.54 48.54 0 0 1 97.08 0z"/><path d="m372.81 201.66h-35.35a17.68 17.68 0 1 1 35.35 0z"/><path d="m352.93 201.66h-50.78a25.39 25.39 0 1 1 50.78 0z"/><path d="m330.59 201.66h-62a31 31 0 1 1 62 0z"/></g><ellipse cx="366.58" cy="730.96" fill="#bdc9f9" rx="195.57" ry="18.08"/><path d="m729.18 651.18h-327.59v-31.36a9.33 9.33 0 0 1 9.31-9.33h309a9.32 9.32 0 0 1 9.32 9.33z" fill="#f3f4fe"/><path d="m719.86 737.29h-309a9.33 9.33 0 0 1 -9.31-9.31v-76.8h327.63v76.82a9.31 9.31 0 0 1 -9.32 9.29z" fill="#edeefe"/><g fill="#c7cfff"><path d="m401.59 641.37v-21.55a9.33 9.33 0 0 1 9.31-9.33h21.54a30.86 30.86 0 0 1 -30.85 30.88z"/><path d="m432.44 737.29h-21.54a9.33 9.33 0 0 1 -9.31-9.31v-21.55a30.84 30.84 0 0 1 30.85 30.86z"/><path d="m729.18 641.37a30.88 30.88 0 0 1 -30.86-30.88h21.54a9.32 9.32 0 0 1 9.32 9.33z"/><path d="m719.86 737.29h-21.54a30.86 30.86 0 0 1 30.86-30.86v21.57a9.31 9.31 0 0 1 -9.32 9.29z"/></g><path d="m587.18 666.19h126.8v15.4h-126.8z" fill="#bcbff6" transform="matrix(0 1 -1 0 1324.47 23.3)"/><path d="m416.78 666.19h126.8v15.4h-126.8z" fill="#bcbff6" transform="matrix(0 1 -1 0 1154.07 193.71)"/><path d="m562.11 490.65h6.54v327.59h-6.54z" fill="#adb3ea" transform="matrix(0 1 -1 0 1219.83 89.06)"/><rect fill="#adb3ea" height="9.41" rx="2" width="26.83" x="429.76" y="659.78"/><rect fill="#c7cfff" height="9.41" rx="2" width="26.83" x="429.76" y="657.71"/><rect fill="#adb3ea" height="23.09" rx="4.84" transform="matrix(-1 0 0 -1 886.34 1305.88)" width="10.99" x="437.68" y="641.39"/><rect fill="#c7cfff" height="23.09" rx="4.84" transform="matrix(-1 0 0 -1 886.34 1301.74)" width="10.99" x="437.68" y="639.32"/><rect fill="#adb3ea" height="9.41" rx="2" transform="matrix(-1 0 0 -1 1375.19 1328.98)" width="26.83" x="674.18" y="659.78"/><rect fill="#c7cfff" height="9.41" rx="2" transform="matrix(-1 0 0 -1 1375.19 1324.83)" width="26.83" x="674.18" y="657.71"/><rect fill="#adb3ea" height="23.09" rx="4.84" width="10.99" x="682.1" y="641.39"/><g fill="#c7cfff"><rect height="23.09" rx="4.84" width="10.99" x="682.1" y="639.32"/><path d="m518.14 680.06a6.21 6.21 0 0 1 12.36-.86c.53.86 5.65 7.5 34.51 7.5 29.47 0 34.78-7 35.31-7.8a6.2 6.2 0 0 1 6.46-5 6.28 6.28 0 0 1 5.84 6.55c-.25 4.39-4.44 18.7-47.61 18.7-43.49-.04-46.87-14.62-46.87-19.09z"/><path d="m748.23 389.63v45.9h-319.5v-45.9a4.36 4.36 0 0 1 4.34-4.37h310.81a4.37 4.37 0 0 1 4.35 4.37z"/></g><path d="m748.23 435.53v68.28a4.34 4.34 0 0 1 -4.35 4.34h-310.81a4.34 4.34 0 0 1 -4.34-4.34v-68.28z" fill="#91a1e5"/><g fill="#8390db"><path d="m501.52 472.8h21.71v10.11h-21.71z"/><path d="m653.71 472.8h21.71v10.11h-21.71z" transform="matrix(-1 0 0 -1 1329.14 955.7)"/><path d="m504.4 469.24 4-4.17a5.51 5.51 0 0 1 7.92 0l4 4.17v25.62l-4 4.17a5.49 5.49 0 0 1 -7.92 0l-4-4.17z"/><path d="m672.56 469.24-4-4.17a5.51 5.51 0 0 0 -7.92 0l-4 4.17v25.62l4 4.17a5.49 5.49 0 0 0 7.92 0l4-4.17z"/></g><path d="m428.73 435.53h319.5v6.2h-319.5z" fill="#9da8ed"/><g fill="#bcbff6"><path d="m461.94 385.26a33.22 33.22 0 0 1 -33.21 33.24v-28.87a4.36 4.36 0 0 1 4.34-4.37z"/><path d="m748.23 389.63v28.87a33.23 33.23 0 0 1 -33.23-33.24h28.87a4.37 4.37 0 0 1 4.36 4.37z"/><path d="m461.94 508.15h-28.87a4.34 4.34 0 0 1 -4.34-4.34v-28.87a33.21 33.21 0 0 1 33.21 33.21z"/><path d="m748.23 474.94v28.87a4.34 4.34 0 0 1 -4.35 4.34h-28.88a33.23 33.23 0 0 1 33.23-33.21z"/></g><path d="m504.4 385.27h15.97v86.56h-15.97z" fill="#f3f4fe"/><path d="m504.4 465.86 4-4.17a5.51 5.51 0 0 1 7.92 0l4 4.17v25.62l-4 4.17a5.51 5.51 0 0 1 -7.92 0l-4-4.17z" fill="#9da8ed"/><path d="m501.52 469.88h21.71v10.11h-21.71z" fill="#c7cfff"/><path d="m449.82 449.3h34.04v14.81h-34.04z" fill="#f3f4fe"/><path d="m656.59 385.27h15.97v86.56h-15.97z" fill="#f3f4fe" transform="matrix(-1 0 0 -1 1329.14 857.1)"/><path d="m672.56 465.86-4-4.17a5.51 5.51 0 0 0 -7.92 0l-4 4.17v25.62l4 4.17a5.51 5.51 0 0 0 7.92 0l4-4.17z" fill="#9da8ed"/><path d="m653.71 469.88h21.71v10.11h-21.71z" fill="#c7cfff" transform="matrix(-1 0 0 -1 1329.14 949.87)"/><path d="m693.1 449.3h34.04v14.81h-34.04z" fill="#f3f4fe" transform="matrix(-1 0 0 -1 1420.24 913.41)"/><path d="m547.84 454.25h81.27v18.28h-81.27z" fill="#f3f4fe"/><path d="m541.54 454.25h6.3v18.28h-6.3z" fill="#8390db"/><path d="m629.11 454.25h6.3v18.28h-6.3z" fill="#8390db" transform="matrix(-1 0 0 -1 1264.53 926.78)"/><g fill="#9da8ed"><circle cx="512.38" cy="453.14" r="1.92"/><circle cx="512.38" cy="442.97" r="1.92"/><circle cx="512.38" cy="432.81" r="1.92"/><circle cx="512.38" cy="422.65" r="1.92"/><circle cx="512.38" cy="412.48" r="1.92"/><circle cx="512.38" cy="402.32" r="1.92"/><circle cx="512.38" cy="392.16" r="1.92"/><path d="m662.65 453.14a1.92 1.92 0 1 1 1.92 1.92 1.92 1.92 0 0 1 -1.92-1.92z"/><path d="m662.65 443a1.92 1.92 0 1 1 1.92 1.93 1.92 1.92 0 0 1 -1.92-1.93z"/><path d="m662.65 432.81a1.92 1.92 0 1 1 1.92 1.92 1.92 1.92 0 0 1 -1.92-1.92z"/><path d="m662.65 422.65a1.92 1.92 0 1 1 1.92 1.92 1.92 1.92 0 0 1 -1.92-1.92z"/><path d="m662.65 412.48a1.92 1.92 0 1 1 1.92 1.93 1.92 1.92 0 0 1 -1.92-1.93z"/><path d="m662.65 402.32a1.92 1.92 0 1 1 1.92 1.92 1.92 1.92 0 0 1 -1.92-1.92z"/><path d="m662.65 392.16a1.92 1.92 0 1 1 1.92 1.92 1.93 1.93 0 0 1 -1.92-1.92z"/></g><path d="m218 467.54h152.79a15.56 15.56 0 0 1 15.56 15.56v223.47a8.77 8.77 0 0 1 -8.77 8.77h-166.4a8.77 8.77 0 0 1 -8.77-8.77v-223.47a15.56 15.56 0 0 1 15.59-15.56z" fill="#bcbff6"/><path d="m228.84 577.77h131.09a8.09 8.09 0 0 1 8.09 8.09v93.31a20.66 20.66 0 0 1 -20.66 20.66h-105.94a20.66 20.66 0 0 1 -20.66-20.66v-93.32a8.09 8.09 0 0 1 8.09-8.09z" fill="#91a1e5"/><rect fill="#91a1e5" height="67.45" rx="13.92" width="147.26" x="220.76" y="496.7"/><path d="m386.36 693.4v-96.85a14.55 14.55 0 0 1 14.55 14.56v67.73a14.55 14.55 0 0 1 -14.55 14.56z" fill="#bcbff6"/><path d="m202.42 693.4v-96.85a14.56 14.56 0 0 0 -14.56 14.56v67.73a14.56 14.56 0 0 0 14.56 14.56z" fill="#bcbff6"/><path d="m233.15 721.28h27a0 0 0 0 1 0 0v9.13a8.53 8.53 0 0 1 -8.53 8.53h-10a8.53 8.53 0 0 1 -8.53-8.53v-9.13a0 0 0 0 1 .06 0z" fill="#8390db"/><path d="m337.15 721.28h10a8.53 8.53 0 0 1 8.53 8.53v9.13a0 0 0 0 1 0 0h-27a0 0 0 0 1 0 0v-9.14a8.53 8.53 0 0 1 8.47-8.52z" fill="#8390db" transform="matrix(-1 0 0 -1 684.25 1460.22)"/><path d="m228.84 570.66h131.09a8.09 8.09 0 0 1 8.09 8.09v93.31a20.66 20.66 0 0 1 -20.66 20.66h-105.94a20.66 20.66 0 0 1 -20.66-20.66v-93.32a8.09 8.09 0 0 1 8.08-8.08z" fill="#f3f4fe"/><rect fill="#f3f4fe" height="67.45" rx="13.92" width="147.26" x="220.76" y="489.59"/><path d="m235.29 585.93h118.2v2.79h-118.2z" fill="#bcbff6"/><path d="m238.55 603.42h-2.42a3.16 3.16 0 0 1 -3.11-3.68l2.27-13.81h4.1l2.27 13.81a3.16 3.16 0 0 1 -3.11 3.68z" fill="#91a1e5"/><path d="m235.29 502.35h118.2v2.79h-118.2z" fill="#bcbff6"/><path d="m238.55 519.84h-2.42a3.16 3.16 0 0 1 -3.11-3.67l2.27-13.82h4.1l2.27 13.82a3.15 3.15 0 0 1 -3.11 3.67z" fill="#91a1e5"/><path d="m355.79 467.55h-122.79a17.67 17.67 0 0 1 1-6 18 18 0 0 1 17.06-12.13h86.66a18 18 0 0 1 17 12.13 17.2 17.2 0 0 1 1.07 6z" fill="#91a1e5"/><path d="m251.06 372.07h6.44v77.38h-6.44z" fill="#8390db"/><path d="m331.27 372.07h6.44v77.38h-6.44z" fill="#8390db" transform="matrix(-1 0 0 -1 668.98 821.52)"/><path d="m250 357.21h88.78a8.29 8.29 0 0 1 8.29 8.29v7.14a0 0 0 0 1 0 0h-105.36a0 0 0 0 1 0 0v-7.14a8.29 8.29 0 0 1 8.29-8.29z" fill="#91a1e5"/><path d="m362.07 721.28h-135.37a5.94 5.94 0 0 1 -5.94-5.94h147.24a6 6 0 0 1 -5.93 5.94z" fill="#91a1e5"/><path d="m355.79 467.55h-122.79a17.67 17.67 0 0 1 1-6h120.76a17.2 17.2 0 0 1 1.03 6z" fill="#8390db"/><path d="m328.62 721.28h27v4.9h-27z" fill="#6a7dcc"/><path d="m233.15 721.28h27v4.9h-27z" fill="#6a7dcc"/><path d="m536.09 311v4.13c-4.41 0-14.73 0-14.73-9.08v-10.53a2.33 2.33 0 0 0 -2.32-2.33h-35.04a2.35 2.35 0 0 0 -2.34 2.33v10.55c0 9.08-10.33 9.08-14.73 9.08v-4.15c8.85 0 10.59-1.83 10.59-4.95v-10.53a6.48 6.48 0 0 1 6.48-6.47h35a6.48 6.48 0 0 1 6.46 6.47v10.55c.04 3.12 1.78 4.93 10.63 4.93z" fill="#91a1e5"/><path d="m525.5 287.31v6.69h-47.95v-6.73a4.4 4.4 0 0 1 4.39-4.39h39.19a4.39 4.39 0 0 1 4.37 4.43z" fill="#bcbff6"/><path d="m477.55 290h47.94v4.04h-47.94z" fill="#c7cfff"/><path d="m508.11 386.4h-13.17a41.42 41.42 0 0 1 -41-47.46l1.94-13.19a27.67 27.67 0 0 1 27.37-23.63h36.51a27.67 27.67 0 0 1 27.37 23.63l1.94 13.19a41.42 41.42 0 0 1 -40.96 47.46z" fill="#bcbff6"/><path d="m469 332h65a0 0 0 0 1 0 0v24.07a10.68 10.68 0 0 1 -10.68 10.68h-43.6a10.68 10.68 0 0 1 -10.72-10.69v-24.06a0 0 0 0 1 0 0z" fill="#c7cfff"/><path d="m469 329.43h65a0 0 0 0 1 0 0v24.07a10.68 10.68 0 0 1 -10.68 10.68h-43.6a10.68 10.68 0 0 1 -10.72-10.69v-24.06a0 0 0 0 1 0 0z" fill="#bcbff6"/><path d="m469.02 327.41h64.98v2.01h-64.98z" fill="#c7cfff"/><path d="m471.36 340h-1.73a2.27 2.27 0 0 1 -2.25-2.64l1.64-10h3l1.64 10a2.27 2.27 0 0 1 -2.3 2.64z" fill="#91a1e5"/><path d="m413.08 513.32v92a5.15 5.15 0 0 0 5.15 5.14h294a5.14 5.14 0 0 0 5.13-5.14v-92a5.13 5.13 0 0 0 -5.13-5.13h-294a5.15 5.15 0 0 0 -5.15 5.13z" fill="#bcbff6"/><path d="m420.52 517.7h289.37v83.28h-289.37z" fill="#f3f4fe"/><g fill="#9da8ed"><path d="m413.08 592.44v12.91a5.15 5.15 0 0 0 5.15 5.14h12.9a18 18 0 0 0 -18.05-18.05z"/><path d="m697.32 610.49h14.88a5.14 5.14 0 0 0 5.13-5.14v-12.79a16 16 0 0 0 -2-.12 18 18 0 0 0 -18.01 18.05z"/><path d="m413.08 513.32v12.89a18 18 0 0 0 18.05-18h-12.9a5.15 5.15 0 0 0 -5.15 5.11z"/><path d="m699.28 508.19a18 18 0 0 0 18.05 18v-12.87a5.13 5.13 0 0 0 -5.13-5.13z"/></g><path d="m420.52 541.67h289.38v8.09h-289.38z" fill="#bcbff6" transform="matrix(-1 0 0 -1 1130.41 1091.43)"/><path d="m420.52 549.76h289.38v8.09h-289.38z" fill="#bcbff6" transform="matrix(-1 0 0 -1 1130.41 1107.61)"/><path d="m413.08 547.62h304.25v4.28h-304.25z" fill="#9da8ed" transform="matrix(-1 0 0 -1 1130.41 1099.52)"/><path d="m544.68 541.67h41.05v16.18h-41.05z" fill="#9da8ed" transform="matrix(-1 0 0 -1 1130.41 1099.52)"/><path d="m553.06 566.23h24.29a8.38 8.38 0 0 0 8.38-8.38h-41.05a8.38 8.38 0 0 0 8.38 8.38z" fill="#bcbff6"/><path d="m574.16 566.23c0-5-4-4.19-9-4.19s-9-.76-9 4.19a9 9 0 1 0 17.92 0z" fill="#bcbff6"/><g fill="#9da8ed"><path d="m523 568.89v10.43a15.26 15.26 0 0 0 15.24 15.25h54.26a15.27 15.27 0 0 0 15.25-15.25v-10.43h-8.28v10.43a7 7 0 0 1 -7 7h-54.22a7 7 0 0 1 -7-7v-10.43z"/><rect height="17.12" rx="2.46" transform="matrix(0 -1 1 0 35.08 1172.15)" width="8.47" x="599.38" y="559.97"/><rect height="17.12" rx="2.46" transform="matrix(0 -1 1 0 -41.74 1095.32)" width="8.47" x="522.55" y="559.97"/></g><path d="m18.4 363.62s74.05-45.71 171.84-11.62c0 0-89.24-23.37-171.84 11.62z" fill="#f8f9ff"/><path d="m779.92 596.57h-43.07v299.82h43.07a4.1 4.1 0 0 0 4.1-4.08v-291.66a4.1 4.1 0 0 0 -4.1-4.08z" fill="#33346a"/><path d="m736.85 596.57h-64.07a4.08 4.08 0 0 0 -4.08 4.08v291.66a4.08 4.08 0 0 0 4.08 4.08h64.07z" fill="#212460"/><g fill="#14194c"><path d="m686.95 813.15h20.38v9.48h-20.38z" transform="matrix(0 -1 1 0 -120.75 1515.03)"/><path d="m686.95 670.33h20.38v9.48h-20.38z" transform="matrix(0 1 -1 0 1372.21 -22.06)"/><path d="m705.21 825.38 3.92-3.78a5.17 5.17 0 0 0 0-7.43l-3.92-3.78h-24l-3.92 3.78a5.15 5.15 0 0 0 0 7.43l3.92 3.78z"/><path d="m705.21 667.58 3.92 3.78a5.17 5.17 0 0 1 0 7.43l-3.92 3.78h-24l-3.92-3.78a5.15 5.15 0 0 1 0-7.43l3.92-3.78z"/><path d="m584.03 743.57h299.81v5.82h-299.81z" transform="matrix(0 -1 1 0 -12.54 1480.42)"/></g><g fill="#ffd371"><path d="m784 865.22a31.17 31.17 0 0 0 -31.19 31.17h27.09a4.1 4.1 0 0 0 4.1-4.08z"/><path d="m779.92 596.57h-27.09a31.18 31.18 0 0 0 31.17 31.17v-27.09a4.1 4.1 0 0 0 -4.08-4.08z"/><path d="m668.7 865.22v27.09a4.08 4.08 0 0 0 4.08 4.08h27.09a31.16 31.16 0 0 0 -31.17-31.17z"/><path d="m699.87 596.57h-27.09a4.08 4.08 0 0 0 -4.08 4.08v27.09a31.18 31.18 0 0 0 31.17-31.17z"/></g><path d="m735.91 777.27h14.99v81.23h-14.99z" fill="#dbad52" transform="matrix(0 -1 1 0 -74.49 1561.28)"/><path d="m708.38 825.38 3.92-3.78a5.17 5.17 0 0 0 0-7.43l-3.92-3.78h-24l-3.92 3.78a5.17 5.17 0 0 0 0 7.43l3.92 3.78z" fill="#ffd371"/><path d="m689.68 813.15h20.38v9.48h-20.38z" fill="#fd9" transform="matrix(0 -1 1 0 -118.01 1517.76)"/><path d="m701.01 853.68h31.94v13.9h-31.94z" fill="#fd9" transform="matrix(0 -1 1 0 -143.65 1577.6)"/><path d="m735.9 634.46h14.99v81.23h-14.99z" fill="#dbad52" transform="matrix(0 1 -1 0 1418.47 -68.32)"/><path d="m708.38 667.58 3.92 3.78a5.17 5.17 0 0 1 0 7.43l-3.92 3.78h-24l-3.92-3.78a5.17 5.17 0 0 1 0-7.43l3.92-3.78z" fill="#ffd371"/><g fill="#fd9"><path d="m689.68 670.33h20.38v9.48h-20.38z" transform="matrix(0 1 -1 0 1374.95 -24.8)"/><path d="m701.01 625.38h31.94v13.9h-31.94z" transform="matrix(0 1 -1 0 1349.31 -84.64)"/><path d="m672.57 737.9h76.27v17.15h-76.27z" transform="matrix(0 -1 1 0 -35.77 1457.19)"/></g><g fill="#ffd371"><path d="m707.75 778.99h5.92v17.15h-5.92z" transform="matrix(0 -1 1 0 -76.87 1498.28)"/><path d="m707.75 696.81h5.92v17.15h-5.92z" transform="matrix(0 1 -1 0 1416.1 -5.32)"/><circle cx="720.33" cy="817.89" r="1.8"/><circle cx="729.86" cy="817.89" r="1.8"/><circle cx="739.4" cy="817.89" r="1.8"/><circle cx="748.94" cy="817.89" r="1.8"/><circle cx="758.47" cy="817.89" r="1.8"/><circle cx="768.01" cy="817.89" r="1.8"/><circle cx="777.55" cy="817.89" r="1.8"/><circle cx="720.33" cy="675.07" r="1.8"/><circle cx="729.86" cy="675.07" r="1.8"/><circle cx="739.4" cy="675.07" r="1.8"/><circle cx="748.94" cy="675.07" r="1.8"/><circle cx="758.47" cy="675.07" r="1.8"/><circle cx="768.01" cy="675.07" r="1.8"/><circle cx="777.55" cy="675.07" r="1.8"/></g><path d="m788.65 162.7a86.34 86.34 0 0 1 86.35 86.3v155.3a0 0 0 0 1 0 0 86.34 86.34 0 0 1 -86.35-86.3v-155.3a0 0 0 0 1 0 0z" fill="#7f5a41"/><path d="m788.65 162.7a86.34 86.34 0 0 1 86.35 86.3v155.3a0 0 0 0 1 0 0 86.34 86.34 0 0 1 -86.35-86.3v-155.3a0 0 0 0 1 0 0z" fill="#7f5a41"/><path d="m875 249v155.3a85.35 85.35 0 0 1 -18.77-2.06v-153.24a86.34 86.34 0 0 0 -67.57-84.27v-2.06a86.31 86.31 0 0 1 86.34 86.33z" fill="#8c684e"/><circle cx="784.39" cy="194.64" fill="#8c684e" r="45.36"/><path d="m740.49 372.05a33.62 33.62 0 0 1 -11.94 25.76l-37.7 31.91-27.64 23.39-41.68 35.29a33.71 33.71 0 1 1 -43.53-51.46l107-90.6a33.72 33.72 0 0 1 55.49 25.71z" fill="#ffb2bf"/><path d="m690.85 429.72-27.64 23.39a38.18 38.18 0 0 1 -9.63-25.41v-2.88a79.1 79.1 0 0 1 14.29-45.47 78 78 0 0 1 9-10.76c1.48-1.48 3-2.9 4.6-4.24a93.53 93.53 0 0 0 5.33 57c1.2 2.92 2.59 5.65 4.05 8.37z" fill="#f9a0b4"/><path d="m740.49 372.07a30.79 30.79 0 0 1 -.24 3.95 33.71 33.71 0 0 0 -55.25-21.66l-107 90.64a33.48 33.48 0 0 0 -11.69 21.79 33.71 33.71 0 0 1 11.69-29.85l107-90.59a33.7 33.7 0 0 1 55.48 25.72z" fill="#f9e0e5"/><path d="m732.51 350.3a33.71 33.71 0 0 0 -4.45-4.34 33.69 33.69 0 0 1 -4.3 47.05l-107 90.6a33.69 33.69 0 0 1 -43.06.38c.12.15.22.31.35.46a33.7 33.7 0 0 0 47.5 3.95l107-90.6a33.7 33.7 0 0 0 3.96-47.5z" fill="#f9a0b4"/><rect fill="#ffb2bf" height="193.18" rx="33.71" transform="matrix(-.98450318 .17536673 -.17536673 -.98450318 1238.18 691.19)" width="67.42" x="554.84" y="303.72"/><rect fill="#f9e0e5" height="64.28" opacity=".38" rx="6.92" transform="matrix(-.98450318 .17536673 -.17536673 -.98450318 1226.38 702.47)" width="13.83" x="575.23" y="373.29"/><path d="m605.75 495.34-.27.05c-.91.17-1.8.28-2.7.37a33.72 33.72 0 0 1 -36.4-27.63l-22-123.81a33.7 33.7 0 0 1 27.28-39.1 33.29 33.29 0 0 1 5.66-.52 33.69 33.69 0 0 0 -27 39l22 123.81a33.72 33.72 0 0 0 33.43 27.83z" fill="#f9e0e5"/><ellipse cx="583.9" cy="330.88" fill="#ffb2bf" rx="35.66" ry="45.23" transform="matrix(.59510335 -.80364918 .80364918 .59510335 -29.48 603.24)"/><path d="m621.11 320.74a55.77 55.77 0 0 0 -11.53-11.42c-20.07-14.86-45.84-14.09-57.57 1.75-7.6 10.27-7.42 24.37-.84 37.05-10.68-14.24-12.68-31.91-3.62-44.16 11.73-15.82 37.5-16.61 57.58-1.75a54.07 54.07 0 0 1 15.98 18.53z" fill="#f9e0e5"/><path d="m590.83 562.37 99.67 53.91a58.68 58.68 0 0 0 79.5-23.69l6.8-12.59a16.94 16.94 0 0 0 -6.83-23l-136.36-73.72a45 45 0 0 0 -60.93 18.15 45 45 0 0 0 18.15 60.94z" fill="#f9a0b4"/><path d="m776.83 580-6.83 12.59a58.66 58.66 0 0 1 -79.51 23.68l-99.68-53.91a44.76 44.76 0 0 1 -4.89-3.06 58.68 58.68 0 0 0 76.71-25.12l14.73-27.24 92.64 50.12a16.92 16.92 0 0 1 6.83 22.94z" fill="#33346a"/><ellipse cx="754" cy="248.71" fill="#8c684e" rx="73.27" ry="61.42" transform="matrix(.95960912 -.28133671 .28133671 .95960912 -39.52 222.19)"/><path d="m684.21 439.82h104.75v138.84h-104.75z" fill="#ffb2bf" transform="matrix(.99999925 .00122173 -.00122173 .99999925 .66 -.95)"/><path d="m720.69 416.22c.18.29.38.57.57.85-3 .06-5.86 0-8.74-.16 2.7-.13 5.48-.37 8.17-.69z" fill="#fdfae4"/><path d="m789.4 430v77.65a52.58 52.58 0 0 1 -52.59 52.58 52.58 52.58 0 0 1 -52.58-52.58v-77.65z" fill="#a2c845"/><path d="m789.41 430v77.6a52.6 52.6 0 0 1 -105.19 0v-77.6z" fill="#ffb2bf"/><path d="m789.41 430v28.4a213.43 213.43 0 0 1 -105.19 31.09v-59.49z" fill="#f9a0b4"/><path d="m866.33 491.44a33.69 33.69 0 0 1 -47.18-6.81l-1.24-1.63-9.18-12.26-56.9-76.06a33.7 33.7 0 0 1 6.8-47.18c.49-.36 1-.72 1.5-1.05a2.33 2.33 0 0 1 .35-.23c.35-.24.72-.47 1.08-.67a3.44 3.44 0 0 1 .58-.35l.25-.14c.44-.26.9-.49 1.34-.72s.79-.39 1.19-.56.59-.27.91-.4a32.35 32.35 0 0 1 3.54-1.25c.55-.16 1.1-.32 1.66-.44s1.16-.26 1.74-.37h.14a33.71 33.71 0 0 1 32.91 13l67.31 90a33.72 33.72 0 0 1 -6.8 47.12z" fill="#ffb2bf"/><path d="m821.62 470.71-3.71 12.29-9.18-12.26-56.9-76.06a33.7 33.7 0 0 1 6.8-47.18c.49-.36 1-.72 1.5-1.05a2.33 2.33 0 0 1 .35-.23c.35-.24.72-.47 1.08-.67a3.44 3.44 0 0 1 .58-.35l.25-.14c.44-.26.9-.49 1.34-.72s.79-.39 1.19-.56.59-.27.91-.4a32.35 32.35 0 0 1 3.54-1.25c.55-.16 1.1-.32 1.66-.44s1.16-.26 1.74-.37h.14l-.08.34a19.26 19.26 0 0 1 -5.18 9.26 33.71 33.71 0 0 0 -2.92 43.79l47.72 63.78z" fill="#f9a0b4"/><path d="m658.76 416.59v2.88a38.39 38.39 0 0 0 38.38 38.38h82.35a38.38 38.38 0 0 0 38.37-38.38v-2.88a79.16 79.16 0 0 0 -14.29-45.48 76.64 76.64 0 0 0 -5.1-6.55c-.09-.12-.2-.24-.31-.37q-1.74-2-3.6-3.84a79.58 79.58 0 0 0 -121.5 10.73l-1.25 1.85a79.06 79.06 0 0 0 -13.05 43.66z" fill="#fffc99"/><path d="m658.76 416.6v2.88a38.28 38.28 0 0 0 38.16 38.38h34.36a94.2 94.2 0 0 1 -44.78-101.74c-1.59 1.35-3.1 2.76-4.57 4.24a77.61 77.61 0 0 0 -9 10.76 79.44 79.44 0 0 0 -14.17 45.48z" fill="#fffcbd"/><path d="m673.06 371.08a91.29 91.29 0 0 0 60.49 28c1.85.12 3.74.18 5.63.18 1.15 0 2.29 0 3.44-.07a91.45 91.45 0 0 0 61.57-26.93 80.77 80.77 0 0 0 -5.72-7.7c-.09-.12-.2-.24-.31-.37q-1.74-2-3.6-3.84a79.58 79.58 0 0 0 -121.5 10.73z" fill="#ffb2bf"/><path d="m733.55 399.07c1.85.12 3.73.18 5.63.18 1.15 0 2.29 0 3.44-.07l-1-5.8a3.51 3.51 0 0 0 -6.91-.06z" fill="#f9a0b4"/><ellipse cx="747.31" cy="254.7" fill="#8c684e" rx="65.74" ry="74.9"/><path d="m768.56 279.27-3.65 42.63-2.55 29.77a16.8 16.8 0 0 1 -18.17 15.33l-2.28-.19a16.8 16.8 0 0 1 -15.31-18.21l1.67-19.54 4.54-52.87a16.8 16.8 0 0 1 18.19-15.31l2.27.2a16.79 16.79 0 0 1 15.29 18.19z" fill="#ffb2bf"/><path d="m768.56 279.27-3.65 42.63a59.83 59.83 0 0 1 -30.15 7.69 44.63 44.63 0 0 1 -6.49-.53l4.54-52.87a16.8 16.8 0 0 1 18.19-15.31l2.27.2a16.79 16.79 0 0 1 15.29 18.19z" fill="#f9a0b4"/><path d="m751.47 180.76h2a42.32 42.32 0 0 1 42.32 42.32v39.12a60.2 60.2 0 0 1 -60.2 60.2 46.44 46.44 0 0 1 -46.48-46.4v-32.88a62.36 62.36 0 0 1 62.36-62.36z" fill="#ffb2bf" transform="matrix(1 .01 -.01 1 2.87 -8.3)"/><path d="m688.84 275.36a46.44 46.44 0 0 0 45.91 47c1.71 0 3.38 0 5-.15a46.43 46.43 0 0 1 -42.75-46.85l.38-32.84a62.34 62.34 0 0 1 58.77-61.52c-.65 0-1.28-.06-1.93-.06h-2a62.36 62.36 0 0 0 -63 61.66z" fill="#f9e0e5"/><ellipse cx="742.62" cy="209.89" fill="#8c684e" rx="42.41" ry="67.45" transform="matrix(.10938735 -.9939992 .9939992 .10938735 452.78 925.11)"/><ellipse cx="742.62" cy="209.89" fill="#8c684e" rx="42.41" ry="67.45" transform="matrix(.10938735 -.9939992 .9939992 .10938735 452.78 925.11)"/><path d="m796.75 188.23c-10.92-7.23-25.33-12.46-41.47-14.23-37-4.07-69.13 11.5-71.69 34.79-1.14 10.38 3.8 20.57 12.9 29-14.1-9.36-22.37-22.14-20.92-35.27 2.56-23.29 34.65-38.86 71.69-34.78 20.48 2.26 38.19 10.05 49.49 20.49z" fill="#aa7c62"/><ellipse cx="726.54" cy="204.87" fill="#aa7c62" rx="31.42" ry="19.76" transform="matrix(.99994876 -.01012274 .01012274 .99994876 -2.05 7.4)"/><ellipse cx="791.02" cy="254.7" fill="#8c684e" rx="23.4" ry="22.9"/><circle cx="794.07" cy="264.54" fill="#ffb2bf" r="18.97"/><circle cx="703.52" cy="262.86" fill="#59442a" r="3.9"/><circle cx="739.97" cy="264.54" fill="#59442a" r="3.9"/><path d="m799.6 266.19a7.58 7.58 0 0 1 -4.81 6.86 2.17 2.17 0 0 1 -2.88-2.13l.25-9.83a2.2 2.2 0 0 1 3.18-1.9 7.58 7.58 0 0 1 4.26 7z" fill="#f9a0b4"/><path d="m788.57 575a61.23 61.23 0 0 1 -16.57 42.39 51.27 51.27 0 0 1 -33.79 16.17 5.46 5.46 0 0 1 -.58 0c-.9.06-1.8.08-2.72.08h-103.57a39.32 39.32 0 0 1 -29.07-13.16 46.17 46.17 0 0 1 -10.79-20.8 48.94 48.94 0 0 1 -1.24-10.29c-.35-25.11 18.91-45.66 41.87-45.66h156.46z" fill="#ffb2bf"/><path d="m788.57 543.77v31.23a61.15 61.15 0 0 1 -16.57 42.38 51.19 51.19 0 0 1 -33.79 16.18l-.58.05c-.9 0-1.8.08-2.71.08h-103.79l2.18-.08.58-.05a51.15 51.15 0 0 0 33.78-16.18 61.2 61.2 0 0 0 16.56-42.38v-31.23z" fill="#35649a"/><path d="m659.62 610-66.31 74.91-52 58.71a34.34 34.34 0 0 1 -13.2 40.54l-56.4 42.61a22.45 22.45 0 0 1 -32.54-29.45l46.54-79.42a18.15 18.15 0 0 1 5.51-5.95l40.36-58.45 64-92.75a40.43 40.43 0 1 1 64 49.25z" fill="#ffb2bf"/><path d="m644.76 546.38-.87 7.82a40.43 40.43 0 0 0 -43 16.41l-33.66 48.74-30.39 44-40.37 58.46a18.08 18.08 0 0 0 -5.5 5.94l-46.55 79.42a22.32 22.32 0 0 0 -2.36 16.49 22.41 22.41 0 0 1 -2.88-26.35l46.54-79.42a18.15 18.15 0 0 1 5.51-5.95l40.36-58.45 35.5-51.43 28.55-41.32a40.42 40.42 0 0 1 49.12-14.36z" fill="#f9e0e5" opacity=".38"/><path d="m595.8 737.87a29.13 29.13 0 0 0 30.26-25.87l9.84-87.09-68.55 9.74.57 74.31a29.17 29.17 0 0 0 27.88 28.91z" fill="#f9a0b4"/><path d="m647.13 525.5-2.37 20.88-.87 7.82-8 70.72-8.81 77.92a34.35 34.35 0 0 1 12.49 40.77l-21.69 67.27a22.45 22.45 0 0 1 -43.55-5.42l-7.54-91.73a18.31 18.31 0 0 1 1.09-8.06l-.54-71-.12-15.31-.14-17.28-.61-80.08a40.43 40.43 0 1 1 80.66 3.55z" fill="#f9a0b4"/><path d="m603.85 824.77a22.49 22.49 0 0 1 -29.51-19.31l-7.54-91.73a18.31 18.31 0 0 1 1.09-8.06l-.54-71-.88-112.67a40.44 40.44 0 0 1 42.21-40.84 38.68 38.68 0 0 1 5.31.6 40.44 40.44 0 0 0 -33.31 40.24l.89 112.71.53 71a18.17 18.17 0 0 0 -1.08 8.06l7.53 91.73a22.46 22.46 0 0 0 15.3 19.27z" fill="#ffb2bf"/><ellipse cx="741.76" cy="464.76" fill="#fffc99" rx="9.2" ry="19.14" transform="matrix(.8369554 -.5472711 .5472711 .8369554 -133.41 481.64)"/><ellipse cx="724.59" cy="464.76" fill="#fffc99" rx="19.14" ry="9.2" transform="matrix(.59510335 -.80364918 .80364918 .59510335 -80.11 770.51)"/><path d="m878.27 473.65-32.51 107.56a33.71 33.71 0 1 1 -64.54-19.52l27.51-91 3.72-12.28 1.3-4.3a33.7 33.7 0 0 1 64.52 19.52z" fill="#ffb2bf"/><ellipse cx="817.18" cy="586.66" fill="#ffb2bf" rx="35.66" ry="45.23" transform="matrix(.8369554 -.5472711 .5472711 .8369554 -187.82 542.78)"/><path d="m831.82 628.64c-15.27 3.09-33.41-5.52-44.5-22.46-8.94-13.68-11-29.41-6.82-41.67.19-.94.43-1.87.72-2.82l27.51-91 3.72-12.28 9.17 12.26-3.71 12.33-18.91 62.63-4.85 16.06c-.29.93-.53 1.86-.73 2.81-3.71 10.7-2.56 24.09 3.78 36.45.9 1.75 1.94 3.5 3.05 5.23 8.02 12.33 19.84 20.26 31.57 22.46z" fill="#f9a0b4"/><rect fill="#fffc99" height="10.1" rx="5.05" transform="matrix(-.95716803 -.28953301 .28953301 -.95716803 1451.96 1300.37)" width="89.49" x="777.4" y="537.76"/><rect fill="#35649a" height="10.1" rx="5.05" transform="matrix(-.95716803 -.28953301 .28953301 -.95716803 1461.79 1277.6)" width="78.55" x="786.1" y="525.65"/><g fill="#fffc99"><rect height="130.51" rx="8.39" transform="matrix(.95716803 .28953301 -.28953301 .95716803 251.56 -149.49)" width="16.78" x="622.74" y="710.41"/><rect height="70.94" rx="8.39" transform="matrix(.16797324 -.98579155 .98579155 .16797324 -284.39 1245.8)" width="16.78" x="587.44" y="755.9"/><rect height="70.94" rx="8.39" transform="matrix(-.0662739 -.99780147 .99780147 -.0662739 -59.85 1344.03)" width="16.78" x="590.49" y="664.55"/></g><g fill="#f4ee87"><rect height="130.51" rx="8.39" transform="matrix(.68556427 .72801211 -.72801211 .68556427 744.94 -116.9)" width="16.78" x="499.4" y="738.67"/><rect height="70.94" rx="8.39" transform="matrix(.63688591 -.77095806 .77095806 .63688591 -449.7 652.98)" width="16.78" x="460.03" y="768.46"/><rect height="70.94" rx="8.39" transform="matrix(.43978243 -.89810435 .89810435 .43978243 -362.84 870.84)" width="16.78" x="508.21" y="690.78"/></g><path d="m711.59 280a8.41 8.41 0 0 0 2.3 6c.19.19.38.38.58.56a8.43 8.43 0 0 0 5.31 2.08h.34a8.42 8.42 0 0 0 8.61-7.5 5.34 5.34 0 0 0 0-.69 1.57 1.57 0 0 0 -.44-1.17 1.6 1.6 0 0 0 -1.14-.51l-13.93-.4a1.62 1.62 0 0 0 -1.63 1.63z" fill="#962f4a"/><path d="m720 287.35a7.09 7.09 0 0 0 .09 1.31 8.43 8.43 0 0 0 8.61-7.5 6.7 6.7 0 0 0 -8.75 6.19z" fill="#e1617f"/><path d="m713.58 278.4c0 1.66 2.53 3.05 5.66 3.14s5.72-1.16 5.84-2.81z" fill="#fff"/></svg>