<svg viewBox="0 0 1000 1000" xmlns="http://www.w3.org/2000/svg"><path d="m989.05 482.66a50.86 50.86 0 0 1 -.54 7.35 49.2 49.2 0 0 1 -48.65 41.85 30.79 30.79 0 0 0 -25.19 13 30.43 30.43 0 0 0 -5.44 14 29.48 29.48 0 0 0 -.25 3.9v98.73a64.74 64.74 0 0 1 -.4 7.14 61.79 61.79 0 0 1 -1.28 7.4 63.33 63.33 0 0 1 -16.89 30.32c-1.11 1.1-2.26 2.17-3.45 3.19a63.36 63.36 0 0 1 -41.41 15.37 43.26 43.26 0 0 0 -43.09 39.52c-.12 1.23-.17 2.47-.17 3.73a43.23 43.23 0 0 0 43.26 43.25h68.52a65.77 65.77 0 0 1 46.56 19.29c.84.83 1.64 1.68 2.42 2.56a65.45 65.45 0 0 1 16.79 40.94c.07 1 .09 2 .09 3.07a65.88 65.88 0 0 1 -65.86 65.85h-837.27a65.75 65.75 0 0 1 -65.8-65.85c0-1 0-2 .07-3.07a65.81 65.81 0 0 1 65.73-62.79h85.87a43.23 43.23 0 0 0 43.25-43.25c0-1.26-.06-2.5-.17-3.73a43.2 43.2 0 0 0 -43.08-39.52h-13.48a99.67 99.67 0 0 1 -53.28-15.37 99.56 99.56 0 0 1 -17.41-13.91 100.59 100.59 0 0 1 -15.29-19.63c-1.44-2.4-2.76-4.87-4-7.4a97.57 97.57 0 0 1 -5.53-14 99.89 99.89 0 0 1 -4.51-29.77 103 103 0 0 1 .61-11.17 100 100 0 0 1 99.41-88.85h73.65a44.18 44.18 0 0 0 43.16-34.81 44.73 44.73 0 0 0 1-9.25 44.11 44.11 0 0 0 -44.11-44.1h-94.63a104.36 104.36 0 0 1 -84.12-42.47 104 104 0 0 1 -20.14-54.88c-.18-2.38-.25-4.78-.25-7.2s.06-4.52.23-6.75a104.06 104.06 0 0 1 19.85-54.88 104.34 104.34 0 0 1 84.47-42.94 29.07 29.07 0 0 0 11.7-2.44 26.35 26.35 0 0 0 2.95-1.5 28.79 28.79 0 0 0 5.77-4.4 29.82 29.82 0 0 0 3.12-3.61 29.25 29.25 0 0 0 2.48-4.05 28 28 0 0 0 2.83-9 28.59 28.59 0 0 0 .31-4.16v-20.79c0-1 0-2 .08-2.93a45.22 45.22 0 0 1 .54-5 48.87 48.87 0 0 1 2.3-9c.32-.88.66-1.74 1-2.59s.7-1.6 1.1-2.38a49.73 49.73 0 0 1 5.61-9 54 54 0 0 1 4.46-5c.71-.69 1.46-1.37 2.21-2a50 50 0 0 1 10.48-7 48.35 48.35 0 0 1 4.84-2.09 49.52 49.52 0 0 1 12.7-2.87h.1c1.49-.13 3-.2 4.51-.2h385.8a49.86 49.86 0 0 1 49.85 47v1.26s0 1.11 0 1.67a49.08 49.08 0 0 0 .72 8.45 50 50 0 0 0 16.8 29.55c.43.37.88.73 1.33 1.08a49.66 49.66 0 0 0 31.1 10.87h26.14a83 83 0 0 1 72.87 43.07 80.32 80.32 0 0 1 6.1 13.95 82.69 82.69 0 0 1 4.23 26.22v68.36 1.29a54.48 54.48 0 0 0 54.5 53.23h83.06a49.08 49.08 0 0 1 34.79 14.41c.38.39.78.79 1.14 1.19a49 49 0 0 1 13.23 33.54z" fill="#f3f4fe"/><path d="m907.3 676a63.33 63.33 0 0 1 -16.89 30.32c-1.11 1.1-2.26 2.17-3.45 3.19h-791.09a99.56 99.56 0 0 1 -17.41-13.91 100.59 100.59 0 0 1 -15.25-19.6z" fill="#d2d6fa"/><path d="m887 709.52a63.36 63.36 0 0 1 -41.41 15.37 43.11 43.11 0 0 0 -16.11 3.11h-650.75a43.19 43.19 0 0 0 -16.06-3.08h-13.48a99.67 99.67 0 0 1 -53.28-15.37z" fill="#c4cbf7"/><rect fill="#d2d6fa" height="17.61" rx="8.8" width="74.06" x="862.07" y="943.12"/><rect fill="#d2d6fa" height="17.61" rx="8.8" width="822.72" x="32.18" y="943.12"/><path d="m662 216.66h-167.27a59.46 59.46 0 0 1 -59.45-59.46v-29.57h157.88a49.86 49.86 0 0 1 49.85 47v1.26s0 1.11 0 1.67a49.08 49.08 0 0 0 .72 8.45 50 50 0 0 0 16.8 29.55c.52.44.97.75 1.47 1.1z" fill="#c4cbf7"/><rect fill="#d2d6fa" height="300.78" rx="106.58" width="213.16" x="393.44" y="246.78"/><rect fill="#f3f4fe" height="253.09" rx="89.68" width="179.37" x="410.34" y="270.63"/><rect fill="#d2d6fa" height="17.64" rx="8.82" width="121.11" x="423.57" y="581.41"/><rect fill="#d2d6fa" height="17.64" rx="8.82" width="196.96" x="423.57" y="619.04"/><circle cx="303.78" cy="435.4" fill="#63e4e4" r="44.04"/><path d="m443.75 469.86a35.55 35.55 0 0 1 -1.5 4.92 37.49 37.49 0 0 1 -43.45 23.27l-97-22.25a37.52 37.52 0 1 1 16.78-73.13l97 22.24a37.52 37.52 0 0 1 28.17 44.95z" fill="#def9ff"/><path d="m442.25 474.78a37.49 37.49 0 0 1 -43.45 23.27l-97-22.25a37.47 37.47 0 0 1 -26.27-22.22 43.78 43.78 0 0 0 21.32 10.6l66.91 13.12 15.31 3c1 .2 1.92.34 2.9.48 1 .33 2 .66 3 .95a60.17 60.17 0 0 0 38.8-2.38 59 59 0 0 0 18.48-4.57z" fill="#e9fffe"/><g fill="#f5b5a9"><rect height="44.73" rx="22.36" transform="matrix(.83752804 -.54639435 .54639435 .83752804 -115.89 360.38)" width="68.42" x="513.82" y="352.69"/><rect height="35.41" rx="17.71" transform="matrix(.2556145 -.96677879 .96677879 .2556145 24.98 718.74)" width="68.42" x="445.02" y="325.44"/><rect height="62.59" rx="31.3" transform="matrix(.83752804 -.54639435 .54639435 .83752804 -103.32 345.58)" width="87.35" x="485.74" y="315.23"/><rect height="208.77" rx="46.71" transform="matrix(-.68199836 -.7313537 .7313537 -.68199836 481.84 1034.68)" width="93.41" x="419.14" y="308.21"/><rect height="44.73" rx="22.36" transform="matrix(.83752804 -.54639435 .54639435 .83752804 -115.89 360.38)" width="68.42" x="513.82" y="352.69"/></g><path d="m389.51 483.79a46.48 46.48 0 0 1 -12-24.68 46.77 46.77 0 0 0 75.72 18.09l79.36-74 5-4.68a47.13 47.13 0 0 0 4.07-4.31 22 22 0 0 0 6.38-2.84l4.05-2.65 15.77-10.29a22.21 22.21 0 0 0 7.73-8.59 22.45 22.45 0 0 0 2.41-11.09 22.33 22.33 0 0 1 -7.84 28.56l-19.85 12.95a23 23 0 0 1 -6.4 2.88 48.94 48.94 0 0 1 -4 4.26l-84.36 78.68a46.7 46.7 0 0 1 -66.04-2.29z" fill="#f8cdc5"/><path d="m254.89 332.54h49.46v57.69h-49.46z" fill="#f5b5a9" transform="matrix(.99424483 -.10713175 .10713175 .99424483 -37.11 32.03)"/><ellipse cx="325.86" cy="265.65" fill="#030303" rx="15.14" ry="30.39" transform="matrix(.99424483 -.10713175 .10713175 .99424483 -26.58 36.44)"/><path d="m251.94 335.36 1.85 17.16a70.11 70.11 0 0 0 40.37 20.58 67.24 67.24 0 0 0 11.67.67l-4.71-43.71z" fill="#f29495"/><path d="m219 274.29 5 30.25a70.11 70.11 0 0 0 80.75 57.56 42.19 42.19 0 0 0 34.62-48.57l-7.2-43-1.17-7.22-.45-2.67-1.32-7.92a35.12 35.12 0 0 0 -40.46-28.82l-7.5 1.26-31 5.18a38.18 38.18 0 0 0 -31.33 44z" fill="#f5b5a9"/><path d="m228.58 274.79c9.76 18.95 44 20.77 76.42 4.07a105.39 105.39 0 0 0 25.52-18.22l-1.32-7.92a35.12 35.12 0 0 0 -40.46-28.82l-7.5 1.26-31 5.18a38.2 38.2 0 0 0 -11.45 3.85c-11.66 13.89-16.13 29.09-10.21 40.6z" fill="#f29495"/><circle cx="283.66" cy="294.1" fill="#1e1d1d" r="4.85"/><circle cx="317.93" cy="292.38" fill="#1e1d1d" r="4.85"/><path d="m314.07 311.16a14.42 14.42 0 0 1 -3.87 10.32c-.33.34-.66.66-1 1a14.36 14.36 0 0 1 -9.05 3.6h-.58a14.44 14.44 0 0 1 -14.8-12.73q-.07-.6-.09-1.2a2.78 2.78 0 0 1 2.7-2.88l23.8-.8a2.79 2.79 0 0 1 2.89 2.69z" fill="#962f4a"/><path d="m299.78 323.84a11 11 0 0 1 -.14 2.23h-.08a14.42 14.42 0 0 1 -14.79-12.73 11.43 11.43 0 0 1 15 10.5z" fill="#e1617f"/><path d="m310.65 308.48c0 2.83-4.3 5.24-9.65 5.42s-9.79-1.94-10-4.76z" fill="#fff"/><path d="m243.27 264.31h2.56a0 0 0 0 1 0 0v58.63a0 0 0 0 1 0 0h-29.57a0 0 0 0 1 0 0v-31.62a27 27 0 0 1 27.01-27.01z" fill="#030303" transform="matrix(-.99424483 .10713175 -.10713175 -.99424483 492.22 560.81)"/><circle cx="229.71" cy="309.74" fill="#f5b5a9" r="17.84"/><path d="m224.14 308.3a7.71 7.71 0 0 0 4.54 7.22 2.21 2.21 0 0 0 3-2l.25-10a2.24 2.24 0 0 0 -3.14-2.09 7.73 7.73 0 0 0 -4.65 6.87z" fill="#f29495"/><circle cx="226.13" cy="249.16" fill="#030303" r="32.19"/><path d="m194.13 252.61a32.1 32.1 0 0 0 13.8 23.08 32.17 32.17 0 0 1 40.34-49.9 32.19 32.19 0 0 0 -54.14 26.82z" fill="#1e1d1d"/><g fill="#030303"><circle cx="257.66" cy="227.18" r="43.18"/><circle cx="311.9" cy="232.08" r="43.18"/><circle cx="257.66" cy="227.18" r="43.18"/><circle cx="311.9" cy="232.08" r="43.18"/></g><g fill="#1e1d1d"><path d="m214.61 223.79a43.13 43.13 0 0 1 66.14-21.59 38.42 38.42 0 0 1 5 4.18 40.48 40.48 0 0 1 7.27-4 43.94 43.94 0 0 0 -5.22-6.16 43.19 43.19 0 0 0 -73.2 27.53z"/><path d="m280.75 202.2a38.42 38.42 0 0 1 5 4.18 40.48 40.48 0 0 1 7.27-4 42.3 42.3 0 0 1 12.2-3.16 43.17 43.17 0 0 1 47.56 38.29 43.88 43.88 0 0 1 .12 8 43.17 43.17 0 0 0 -65.1-49.3 41.47 41.47 0 0 0 -7.05 5.99z"/><circle cx="251.61" cy="233.55" r="18.61"/></g><path d="m280.31 384.76h26.87a76.44 76.44 0 0 1 76.44 76.44v157.47a0 0 0 0 1 0 0h-139.09a0 0 0 0 1 0 0v-198.13a35.77 35.77 0 0 1 35.78-35.78z" fill="#333" transform="matrix(.99424483 -.10713175 .10713175 .99424483 -51.94 36.53)"/><rect fill="#333" height="35.06" rx="17.53" transform="matrix(.99424483 -.10713175 .10713175 .99424483 -39.98 32.77)" width="109.22" x="230.39" y="370.99"/><g fill="#030303"><path d="m483.38 891.74-11.31-247.84a39.27 39.27 0 0 1 36.93-41.47l1-.06a39.27 39.27 0 0 1 41.47 37l11.31 247.83a6 6 0 0 1 -5.63 6.31l-67.51 3.9a6 6 0 0 1 -6.26-5.67z"/><path d="m510.17 873.74h28.51v58.13h-28.51z" transform="matrix(.03158521 .99950106 -.99950106 .03158521 1410.18 350.07)"/><path d="m388.37 605.72h105.85a54.81 54.81 0 0 1 54.78 54.81v13.37a15.82 15.82 0 0 1 -15.82 15.82h-144.81a42 42 0 0 1 -42-42 42 42 0 0 1 42-42z" transform="matrix(-.99882313 .04850112 -.04850112 -.99882313 926.34 1272.92)"/><path d="m520.67 923.08 57.18 3.12a28.63 28.63 0 0 0 -57.18-3.12z"/><path d="m583.64 933.18.1-8.77a7.2 7.2 0 0 0 -6.67-7.26l-75.13-5.52a9 9 0 0 0 -9.65 8.86l-.18 16.25z"/><path d="m492.17 931.9-.06 5.27a6.08 6.08 0 0 0 6 6.14l81.29.9a9.94 9.94 0 0 0 10.05-9.83 9.94 9.94 0 0 0 -9.83-10l-22.76-.25a8.52 8.52 0 0 0 -8.62 8.43z"/></g><path d="m257.3 644.15a55.49 55.49 0 0 0 18.26 38.74 51.88 51.88 0 0 0 34.09 13.48h.57c.9 0 1.79 0 2.7-.06l102.27-5a39.86 39.86 0 0 0 28.09-13.69 42.28 42.28 0 0 0 9.72-19.88 43.39 43.39 0 0 0 .75-9.66c-.79-23.44-20.74-41.7-43.41-40.59l-154.46 7.51z" fill="#333"/><path d="m616.65 860.63h36.89v58.73h-36.89z" fill="#ffb2bf" transform="matrix(.67 .74 -.74 .67 863.7 -179.2)"/><path d="m620.68 851.48h12.12v58.73h-12.12z" fill="#f9a0b4" transform="matrix(.67456012 .73821992 -.73821992 .67456012 854.23 -176.01)"/><path d="m646.71 912 45.29-35.08a28.63 28.63 0 0 0 -45.29 35.08z" fill="#333"/><path d="m700.94 878.41-5.67-6.7a7.2 7.2 0 0 0 -9.79-1.12l-60.43 45a9 9 0 0 0 -1.5 13l10.5 12.4z" fill="#fdbf48"/><path d="m630.92 937.3 3.39 4a6.11 6.11 0 0 0 8.6.72l62-52.5a10 10 0 0 0 1.17-14 9.94 9.94 0 0 0 -14-1.16l-17.37 14.7a8.53 8.53 0 0 0 -1 12z" fill="#333"/><path d="m385.28 673.72 1.36 1.48 15.36 16.8 78.39 85.79 109.1 120.7a8.68 8.68 0 0 0 12.27.56l45.93-42a8.69 8.69 0 0 0 .55-12.27l-64.63-72-110.08-120.46-29.53-32.32a39.79 39.79 0 1 0 -58.75 53.68z" fill="#333"/><circle cx="286.21" cy="449.55" fill="#030303" r="44.04"/><path d="m334.52 585.36a37.57 37.57 0 0 1 -48.28-22l-34.87-93.25a37.51 37.51 0 1 1 70.28-26.27l34.87 93.24a37.52 37.52 0 0 1 -22 48.28z" fill="#302e2e"/><path d="m329.59 586.82a37.51 37.51 0 0 1 -43.35-23.46l-34.87-93.25a37.47 37.47 0 0 1 4.08-34.17 43.8 43.8 0 0 0 2.89 23.63l25.89 63.08 5.92 14.44c.37.92.77 1.79 1.19 2.68s.55 2 .88 3.06a60.17 60.17 0 0 0 23.35 31.07 59.23 59.23 0 0 0 14.02 12.92z" fill="#333"/><circle cx="333.57" cy="555.7" fill="#030303" r="53.61"/><g fill="#f5b5a9"><rect height="44.73" rx="22.36" transform="matrix(.99489833 -.10088266 .10088266 .99489833 -52.49 51.04)" width="68.42" x="444.43" y="522.35"/><rect height="35.41" rx="17.71" transform="matrix(.67094445 -.74150761 .74150761 .67094445 -217.25 479.94)" width="68.42" x="397.96" y="467.07"/><rect height="62.59" rx="31.3" transform="matrix(.99489833 -.10088266 .10088266 .99489833 -49.09 50.53)" width="87.35" x="431.53" y="479.52"/><rect height="208.77" rx="46.71" transform="matrix(-.27009634 -.9628333 .9628333 -.27009634 -26.93 1060.23)" width="93.41" x="341.69" y="435.94"/><rect height="44.73" rx="22.36" transform="matrix(.99489833 -.10088266 .10088266 .99489833 -52.49 51.04)" width="68.42" x="444.43" y="522.35"/></g><path d="m287.89 568.52a46.5 46.5 0 0 1 .67-27.43 46.77 46.77 0 0 0 59 50.83l104.44-29.3 6.6-1.85a46.26 46.26 0 0 0 5.6-2 21.52 21.52 0 0 0 7 .4l4.82-.49 18.74-1.9a22 22 0 0 0 10.8-4.08 22.43 22.43 0 0 0 7.24-8.74 22.34 22.34 0 0 1 -20.08 21.77l-23.58 2.39a23.34 23.34 0 0 1 -7-.38 51.84 51.84 0 0 1 -5.55 1.93l-111.1 31.2a46.71 46.71 0 0 1 -57.6-32.35z" fill="#f8cdc5"/><path d="m176.26 821h316.4a71.07 71.07 0 0 1 71.07 71v51.42a0 0 0 0 1 0 0h-458.54a0 0 0 0 1 0 0v-51.42a71.07 71.07 0 0 1 71.07-71z" fill="#7986bf"/><path d="m155.86 704.13h357.2v150.76h-357.2z" fill="#7986bf"/><rect fill="#97a6db" height="437.61" rx="26.08" transform="matrix(.98741381 -.15815807 .15815807 .98741381 -72.43 31.28)" width="99.77" x="110.35" y="251.72"/><path d="m105.48 250.22h48.72a74.82 74.82 0 0 1 74.8 74.78 74.82 74.82 0 0 1 -74.82 74.82h-66.88a0 0 0 0 1 0 0v-131.43a18.17 18.17 0 0 1 18.17-18.17z" fill="#97a6db" transform="matrix(.99 -.16 .16 .99 -49.44 29.12)"/><path d="m135.7 704.13h386a35.64 35.64 0 0 1 35.64 35.64v4.1a35.64 35.64 0 0 1 -35.64 35.64h-377.3a8.7 8.7 0 0 1 -8.7-8.7v-66.68a0 0 0 0 1 0 0z" fill="#6877af"/><path d="m157.38 613.91h385a17.14 17.14 0 0 1 17.18 17.09v5.88a85.18 85.18 0 0 1 -85.18 85.18h-314.44a30.87 30.87 0 0 1 -30.87-30.87v-49a28.31 28.31 0 0 1 28.31-28.31z" fill="#7986bf"/><path d="m636.73 169.56c29.07-3.91 50.78-20.95 48.48-38.06s-27.74-27.81-56.82-23.9c-16.21 2.18-29.42 13.77-37.93 23.59a17.26 17.26 0 0 0 3.45 25.64c10.81 7.23 26.6 14.91 42.82 12.73z" fill="#e1160c"/><path d="m709.73 262.73h63.51a0 0 0 0 1 0 0v67.49a0 0 0 0 1 0 0h-63.51a31.77 31.77 0 0 1 -31.73-31.77v-3.95a31.77 31.77 0 0 1 31.73-31.77z" fill="#efd6d8" transform="matrix(.79494435 -.60668235 .60668235 .79494435 -31.08 501.02)"/><rect fill="#d2d6fa" height="13.71" rx="6.85" width="173.54" x="435.03" y="371.91"/><path d="m796.3 214.4h6.55a0 0 0 0 1 0 0v224.41a0 0 0 0 1 0 0h-81.14a0 0 0 0 1 0 0v-149.81a74.58 74.58 0 0 1 74.59-74.6z" fill="#efd6d8" transform="matrix(.79494435 -.60668235 .60668235 .79494435 -41.83 529.45)"/><path d="m787.02 192.32h8.37v224.41h-8.37z" fill="#f7dade" transform="matrix(.79494435 -.60668235 .60668235 .79494435 -22.51 542.47)"/><path d="m779.76 378.08h81.14v49.15h-81.14z" fill="#614d63" transform="matrix(.79494435 -.60668235 .60668235 .79494435 -76.07 580.26)"/><path d="m664.62 84.45h7.67a33.17 33.17 0 0 1 33.17 33.17v40.82a43.5 43.5 0 0 1 -43.5 43.5h-.29a43.5 43.5 0 0 1 -43.5-43.5v-27.53a46.46 46.46 0 0 1 46.46-46.46z" fill="#e1160c" transform="matrix(.87706234 -.48037658 .48037658 .87706234 12.59 335.57)"/><path d="m698.13 175.84 3.94 7.5 8.48 16.18a14.72 14.72 0 1 1 -26.06 13.68l-.89-1.7-11.53-22a14.73 14.73 0 0 1 1.93-16.5 14.93 14.93 0 0 1 2.14-2 14.72 14.72 0 0 1 21.99 4.84z" fill="#ffb2bf"/><path d="m698.13 175.84 3.94 7.5a49.28 49.28 0 0 1 -18.47 28.16l-11.53-22a14.73 14.73 0 0 1 1.93-16.5 14.93 14.93 0 0 1 2.14-2 14.72 14.72 0 0 1 21.99 4.84z" fill="#f9a0b4"/><path d="m688.6 105.85 14 29a49.49 49.49 0 0 1 -23.06 66.08 38.18 38.18 0 0 1 -51-17.8l-11.74-24.34-.21-.44c-.32-.67-.61-1.34-.89-2a51.27 51.27 0 0 1 24.37-65.68l.62-.31 1.45-.7a34.81 34.81 0 0 1 46.46 16.21z" fill="#ffb2bf"/><path d="m675 202.74a38.18 38.18 0 0 1 -38-21.42l-11.8-24.32c-.07-.15-.13-.29-.21-.44-.31-.68-.61-1.34-.88-2a51.25 51.25 0 0 1 24.36-65.67l.63-.32 1.45-.69a30.42 30.42 0 0 1 3.81-1.55 32.81 32.81 0 0 0 -6 1 34.51 34.51 0 0 0 -6.19 2.29l-1.44.7-.64.31a51.28 51.28 0 0 0 -24.36 65.68c.28.69.58 1.35.89 2 .07.16.14.3.21.45l11.73 24.31a38.18 38.18 0 0 0 46.44 19.67z" fill="#f9a0b4"/><path d="m692.43 112.38-.19.06-.4.13-.11-.23z" fill="#f9e0e5"/><circle cx="648.07" cy="161.9" fill="#2c0f33" r="3.69"/><g fill="#ffb2bf"><rect height="149.42" rx="28.02" transform="matrix(-.87906683 -.47669855 .47669855 -.87906683 1175.1 939.2)" width="56.03" x="678.65" y="245.85"/><rect height="149.42" rx="28.02" transform="matrix(-.13744455 -.99050946 .99050946 -.13744455 362.05 1050.76)" width="56.03" x="610.51" y="293.03"/><ellipse cx="582.07" cy="382.24" rx="37.59" ry="29.64" transform="matrix(.53139858 -.84712192 .84712192 .53139858 -51.03 672.24)"/></g><path d="m561.45 376.22a49.47 49.47 0 0 1 2.88-4.12c7.13-9.08 16.83-14.6 26.21-15.53.77-.17 1.56-.32 2.37-.42l13.8-1.92 53.88-7.48 10.56-1.47 6.07-11.18 31.55-58.2a28 28 0 0 1 34.08-13 15.9 15.9 0 0 0 8.79.69l.28-.06a28 28 0 0 0 -47.63 2.66l-37.63 69.4-78.24 10.85a20.82 20.82 0 0 0 -2.38.45c-10.72 1.06-21.87 8.12-29.08 19.62-8.94 14.27-9.13 31-1.49 41.41-2.42-9.65-.54-21.32 5.98-31.7z" fill="#f9a0b4"/><rect fill="#614d63" height="8.4" rx="4.2" transform="matrix(-.13744455 -.99050946 .99050946 -.13744455 334.48 1032.76)" width="74.38" x="579.71" y="366.55"/><rect fill="#614d63" height="8.4" rx="4.2" transform="matrix(-.13744455 -.99050946 .99050946 -.13744455 347.92 1040.91)" width="65.28" x="594.53" y="364.77"/><ellipse cx="588.07" cy="386" fill="#fdc3cd" rx="15.34" ry="11.06" transform="matrix(.50708715 -.86189479 .86189479 .50708715 -42.84 697.09)"/><path d="m634.56 142.3c29.07-3.91 50.78-21 48.47-38.06s-27.73-27.81-56.81-23.9c-16.22 2.18-29.42 13.77-37.93 23.59a17.28 17.28 0 0 0 3.45 25.65c10.8 7.22 26.6 14.91 42.82 12.72z" fill="#e1160c"/><path d="m634.56 142.3c29.07-3.91 50.78-21 48.47-38.06s-27.73-27.81-56.81-23.9c-16.22 2.18-29.42 13.77-37.93 23.59a17.28 17.28 0 0 0 3.45 25.65c10.8 7.22 26.6 14.91 42.82 12.72z" fill="#e1160c"/><path d="m591.74 129.58a86.21 86.21 0 0 0 19.19 9.81 92.78 92.78 0 0 1 -11.93-6.81 17.27 17.27 0 0 1 -3.45-25.64c8.51-9.83 21.71-21.42 37.93-23.6 12.66-1.7 24.64-.64 34.3 2.52-10.56-5.38-25.51-7.68-41.57-5.52-16.21 2.18-29.43 13.77-37.93 23.6a17.27 17.27 0 0 0 3.46 25.64z" fill="#fc4942"/><g fill="#e1160c"><circle cx="668.74" cy="99.86" r="27.95"/><ellipse cx="694.31" cy="115.58" rx="20.79" ry="28.69" transform="matrix(.83 -.55 .55 .83 52.42 404.38)"/><circle cx="668.74" cy="99.86" r="27.95"/><ellipse cx="694.31" cy="115.58" rx="20.79" ry="28.69" transform="matrix(.83 -.55 .55 .83 52.42 404.38)"/></g><path d="m640.79 99.58a28 28 0 0 1 51.87 1.94 27.58 27.58 0 0 1 3.82 1.73 36.22 36.22 0 0 1 12.73 11.86 35.52 35.52 0 0 1 6.19 18.58c4.17-7.77 3-19.49-3.79-29.64a34.66 34.66 0 0 0 -16.54-13.58 28 28 0 0 0 -54.28 9.11z" fill="#d20900"/><circle cx="696.85" cy="127.24" fill="#ffb2bf" r="15.5"/><path d="m704.89 140.49a49.49 49.49 0 0 1 -25.37 60.41 37.92 37.92 0 0 1 -15.62 3.79 37 37 0 0 0 9.88-3.2 49.49 49.49 0 0 0 25.83-59c-.14-.47-.28-.94-.45-1.41a15.51 15.51 0 0 0 -6.73-28.71 15.5 15.5 0 0 1 12.46 28.11z" fill="#fdc3cd"/><path d="m701.07 124a6.63 6.63 0 0 0 -7-2.24 1.9 1.9 0 0 0 -.89 3l5.38 6.72a1.92 1.92 0 0 0 3.22-.36 6.64 6.64 0 0 0 -.71-7.12z" fill="#f9a0b4"/><path d="m778 444h114.7l-44.46 219.53a2.91 2.91 0 0 1 -2.86 2.34h-64.38a2.92 2.92 0 0 1 -3-2.87z" fill="#614d63"/><circle cx="835.37" cy="443.99" fill="#614d63" r="57.33"/><path d="m892.71 444a57.08 57.08 0 0 1 -4.52 22.35l-39.94 197.18a2.94 2.94 0 0 1 -2.87 2.34h-10l36.79-177.87 5.83-28a56.55 56.55 0 0 0 4.31-16 55.06 55.06 0 0 0 .41-6.83 57.15 57.15 0 0 0 -20.28-43.74 57.31 57.31 0 0 1 30.27 50.57z" fill="#68566b"/><path d="m688 199h34.2a6.06 6.06 0 0 1 6.06 6.06v21.46a6.06 6.06 0 0 1 -6.06 6.06h-30.32a9.89 9.89 0 0 1 -9.89-9.89v-17.6a6.06 6.06 0 0 1 6.01-6.09z" fill="#614d63" transform="matrix(.79494435 -.60668235 .60668235 .79494435 13.67 472.07)"/><path d="m716.32 188.71h2.39a6.1 6.1 0 0 1 6.1 6.1v21.37a6.1 6.1 0 0 1 -6.1 6.1 6.17 6.17 0 0 1 -6.17-6.17v-23.62a3.78 3.78 0 0 1 3.78-3.78z" fill="#68566b" transform="matrix(.79494435 -.60668235 .60668235 .79494435 22.7 478.16)"/><path d="m606.08 51.8 44.54-12a15.42 15.42 0 0 1 18.06 8.55l12 26.59a11.79 11.79 0 0 1 -7.21 16.06l-61.37 19.44a11.79 11.79 0 0 1 -15.32-10.44l-2.07-32.29a15.4 15.4 0 0 1 11.37-15.91z" fill="#614d63"/><path d="m673.47 91-9.72 3.08a11.56 11.56 0 0 0 -.89-2.92l-12-26.59a15.42 15.42 0 0 0 -18-8.55l-38.18 10.3a15.41 15.41 0 0 1 11.4-14.53l44.55-12a15.37 15.37 0 0 1 18 8.55l12 26.58a11.79 11.79 0 0 1 -7.16 16.08z" fill="#68566b"/><path d="m696.47 218.93s-30.36 4.46-36.51 51-37.66 51.89-37.66 51.89 71.48 20.36 65.71-39.59c-4.01-41.51 8.46-63.3 8.46-63.3z" fill="#614d63"/><path d="m782.74 665.87h52.63v267.17h-52.63z" fill="#ffb2bf"/><path d="m782.74 665.87h52.63v24.85h-52.63z" fill="#f9a0b4"/><path d="m737.62 930.44 76.8-.34a38.4 38.4 0 0 0 -76.8.34z" fill="#efd6d8"/><path d="m730.43 931.48a13.16 13.16 0 0 0 13.22 13.1l33.23-.15 65.31-.32a9 9 0 0 0 .61-17.89l-63.86-5.41-34.39-2.52a13.15 13.15 0 0 0 -14.12 13.19z" fill="#614d63"/><circle cx="772.16" cy="893.47" fill="#614d63" r="10.23"/><path d="m489.27 290.13h36.5a1.86 1.86 0 0 1 1.86 1.86v12.39a20.12 20.12 0 0 1 -20.12 20.12 20.12 20.12 0 0 1 -20.12-20.12v-12.38a1.86 1.86 0 0 1 1.86-1.86z" fill="#c4c8f2"/><path d="m523.92 293.3v11.63a16.41 16.41 0 0 1 -16.39 16.41 16.41 16.41 0 0 1 -16.39-16.41v-2.32c5.95 11.78 18.74 9.43 21 0 2.18-9.2 11.34-9.31 11.81-9.31z" fill="#e1160c"/><path d="m507 321.33a2.65 2.65 0 0 1 2.65 2.65v42.92a0 0 0 0 1 0 0h-5.3a0 0 0 0 1 0 0v-42.9a2.65 2.65 0 0 1 2.65-2.67z" fill="#c4c8f2"/><rect fill="#c4c8f2" height="4.52" rx="2.26" width="32.56" x="490.71" y="366.9"/><path d="m769.74 381.47h81.14v16.12h-81.14z" fill="#4c3a4f" transform="matrix(.79 -.61 .61 .79 -70.16 571.49)"/><path d="m835.23 359.33h8.17v16.12h-8.17z" fill="#564559" transform="matrix(.79494435 -.60668235 .60668235 .79494435 -50.78 584.55)"/><path d="m648.53 184.37a11.31 11.31 0 0 0 7.56 4.3c.36.05.73.07 1.09.09a11.31 11.31 0 0 0 7.3-2.39l.36-.28a11.38 11.38 0 0 0 2.54-15.18c-.17-.26-.35-.52-.55-.77a2.2 2.2 0 0 0 -3.09-.38l-14.82 11.52a2.21 2.21 0 0 0 -.39 3.09z" fill="#962f4a"/><path d="m663.59 184.85a8.53 8.53 0 0 0 1.2 1.27h.05a11.37 11.37 0 0 0 2.54-15.18 9.2 9.2 0 0 0 -2.21 1.26 9 9 0 0 0 -1.58 12.65z" fill="#e1617f"/><path d="m649.25 181c1.44 1.71 5.25 1 8.58-1.58s4.95-6.11 3.66-7.93z" fill="#fff"/></svg>