<svg viewBox="0 0 1000 1000" xmlns="http://www.w3.org/2000/svg"><path d="m945.55 584a137.73 137.73 0 0 1 -32.55 142.86q-4.18 4.18-8.72 8a137.15 137.15 0 0 1 -84.28 32.24c-1.42 0-2.84.06-4.27.06h-90.38a27 27 0 0 0 -10 1.89 27.3 27.3 0 0 0 -17.35 25.43v64.78a37.12 37.12 0 0 1 -37.12 37.13h-382.48a37.12 37.12 0 0 1 -37.12-37.13v-27.66a64.45 64.45 0 0 0 -64.45-64.44h-16.56a132.35 132.35 0 0 1 -132.41-132.4v-10.41a137.49 137.49 0 0 1 5.72-40.35 112.89 112.89 0 0 1 13.13-28.38 119.45 119.45 0 0 1 27.34-29.62 139.72 139.72 0 0 1 14.69-10c1.91-1.15 3.82-2.24 5.75-3.28a183.76 183.76 0 0 1 34.51-14.18 43.83 43.83 0 0 0 31.24-42.1v-43c0-1.11 0-2.21.08-3.3a63 63 0 0 1 29.62-50.14 61.93 61.93 0 0 1 14.44-6.65 62.74 62.74 0 0 1 16.25-2.84c.88 0 1.77-.06 2.66-.06a48.63 48.63 0 0 0 43.76-27.48c.57-1.14 1.07-2.3 1.52-3.48a48.35 48.35 0 0 0 3.3-17.61 48.56 48.56 0 0 0 -48.59-48.59h-68a83.55 83.55 0 0 1 -55-20.6 81.94 81.94 0 0 1 -8.28-8.48 83.55 83.55 0 0 1 0-109.21c.54-.63 1.08-1.25 1.65-1.85a83.33 83.33 0 0 1 61.68-27.15h599.47a64.44 64.44 0 0 1 64.44 64.44c0 50.61 35.56 94.68 85.26 104.29a83.62 83.62 0 0 1 -16 165.7h-178.84a35.76 35.76 0 1 0 0 71.51h106a137.65 137.65 0 0 1 129.85 92z" fill="#fffaf4"/><rect fill="#a66633" height="17.61" rx="8.8" width="74.06" x="63.64" y="896.38"/><rect fill="#a66633" height="17.61" rx="8.8" width="809.94" x="144.87" y="896.38"/><path d="m549.84 497.91v21.37a6.72 6.72 0 0 1 -6.71 6.72h-469.08a139.72 139.72 0 0 1 14.69-10c1.91-1.15 3.82-2.24 5.75-3.28a183.76 183.76 0 0 1 34.51-14.18 43.68 43.68 0 0 0 14.26-7.34h399.87a6.71 6.71 0 0 1 6.71 6.71z" fill="#ea9e5a"/><path d="m129.9 499.43h392.44v3.28h-392.44z" fill="#a66633"/><path d="m442.07 512.71v3.29h-353.33c1.91-1.15 3.82-2.24 5.75-3.28z" fill="#a66633"/><path d="m439.5 526-1.1 34.8-10.64 337.13h-19.77l-10.64-337.13-1.1-34.8z" fill="#ea9e5a"/><path d="m439.5 526-1.1 34.8h-41.05l-1.1-34.8z" fill="#a66633"/><path d="m549.84 86v353.23a8 8 0 0 1 -8 7.95h-381.57v-33.75c0-1.11 0-2.21.08-3.3a63 63 0 0 1 29.59-50.13 61.93 61.93 0 0 1 14.44-6.65 62.74 62.74 0 0 1 16.25-2.84c.88 0 1.77-.06 2.66-.06a48.31 48.31 0 0 0 31.41-11.53l12.35-15.95c.57-1.14 1.07-2.3 1.52-3.48a48.35 48.35 0 0 0 3.3-17.61 48.56 48.56 0 0 0 -48.59-48.59h-68a83.55 83.55 0 0 1 -55-20.6 81.94 81.94 0 0 1 -8.28-8.48 83.55 83.55 0 0 1 0-109.21v-1.85h1.65a83.33 83.33 0 0 1 61.68-27.15z" fill="#a66633"/><path d="m520.06 86v327.72.41a8 8 0 0 1 -7.95 7.7h-351.84v-8.4c0-1.11 0-2.21.08-3.3a63 63 0 0 1 29.59-50.13 61.93 61.93 0 0 1 14.44-6.65 62.74 62.74 0 0 1 16.25-2.84c.88 0 1.77-.06 2.66-.06a48.31 48.31 0 0 0 31.41-11.53l12.35-15.95c.57-1.14 1.07-2.3 1.52-3.48a48.35 48.35 0 0 0 3.3-17.61 48.56 48.56 0 0 0 -48.59-48.59h-68a83.55 83.55 0 0 1 -55-20.6 81.94 81.94 0 0 1 -8.28-8.48v-111h1.65a83.33 83.33 0 0 1 61.68-27.21z" fill="#fffaeb"/><g opacity=".63"><path d="m520.06 260.74v153 .41a8 8 0 0 1 -7.95 7.54h-351.84v-8.24c0-1.11 0-2.21.08-3.3a63 63 0 0 1 29.59-50.15 61.93 61.93 0 0 1 14.44-6.65 62.74 62.74 0 0 1 16.25-2.84c.88 0 1.77-.06 2.66-.06a48.31 48.31 0 0 0 31.41-11.53l12.35-15.95c.57-1.14 1.07-2.3 1.52-3.48a48.35 48.35 0 0 0 3.3-17.61 48.56 48.56 0 0 0 -48.59-48.59h-68a83.55 83.55 0 0 1 -55-20.6 81.94 81.94 0 0 1 -8.28-8.48v-111h51.29a23.63 23.63 0 0 1 23.63 23.64v40.26a17.89 17.89 0 0 0 17.89 17.89h.46a18.43 18.43 0 0 0 18.51-18.42v-11.94a12.82 12.82 0 0 1 .79-4.45 12.65 12.65 0 0 1 7.77-7.48 12.46 12.46 0 0 1 4-.66h39.29a12.59 12.59 0 0 1 11.46 7.41c.12.24.21.48.32.73a12.6 12.6 0 0 1 .81 4.45v100a27.13 27.13 0 0 0 .56 5.52 27.43 27.43 0 0 0 22.45 21.55 26.9 26.9 0 0 0 4.42.36 27.42 27.42 0 0 0 16.35-5.41 26.79 26.79 0 0 0 3-2.61 27.29 27.29 0 0 0 8-19.4v-19.43a9 9 0 0 1 11-8.81 8.82 8.82 0 0 1 4.41 2.44l19.58 19.6 10 9.94a72.32 72.32 0 0 1 21.19 51.13v53.74a10.92 10.92 0 0 0 21.83 0v-173.26a53.7 53.7 0 0 1 1.25-11.55 54.27 54.27 0 0 1 14.72-27l1.28-1.29 7.49-7.48 18.77-18.78.1-.09a10.88 10.88 0 0 1 18.58 7.69v72.4a46.81 46.81 0 0 0 46.86 46.84z" fill="#f9f2de"/><g fill="#fffdf8"><path d="m100.38 124.41h17.98v12.12h-17.98z"/><path d="m100.38 176.36h17.98v12.12h-17.98z"/><path d="m118.35 228.31v12.12h-7.46a83.69 83.69 0 0 1 -10.51-7.81v-4.31z"/><path d="m133.74 150.38h17.98v12.12h-17.98z"/><path d="m133.74 202.33h17.98v12.12h-17.98z"/><path d="m133.74 228.31h17.98v12.12h-17.98z"/><path d="m331.45 310.6h17.98v12.12h-17.98z"/><path d="m331.45 362.55h17.98v12.12h-17.98z"/><path d="m331.45 388.53h17.98v12.12h-17.98z"/><path d="m361.78 336.58h17.98v12.12h-17.98z"/><path d="m361.78 362.55h17.98v12.12h-17.98z"/><path d="m482.07 284.63h29.37v12.12h-29.37z"/><path d="m482.07 336.58h29.37v12.12h-29.37z"/><path d="m482.07 388.53h29.37v12.12h-29.37z"/><path d="m178.47 202.33h11.47v12.12h-11.47z"/><path d="m189.94 360v10.35h-11.47v-1.18a62.33 62.33 0 0 1 11.47-9.17z"/><path d="m216.05 164.18h41.15v12.12h-41.15z"/><path d="m216.05 190.15h41.15v12.12h-41.15z"/><path d="m257.21 242.11v12.12h-24a48.69 48.69 0 0 0 -9.88-1h-7.25v-11.12z"/><path d="m216.05 371.98h41.15v12.12h-41.15z"/><path d="m421.15 185.47h41.15v12.12h-41.15z"/><path d="m421.15 263.39h41.15v12.12h-41.15z"/><path d="m421.15 315.34h41.15v12.12h-41.15z"/><path d="m421.15 367.29h41.15v12.12h-41.15z"/><path d="m274.01 335.25h39.56v12.12h-39.56z"/></g></g><g fill="#fff"><path d="m204.38 353.31-44 56.81a63 63 0 0 1 29.56-50.12 61.93 61.93 0 0 1 14.44-6.69z" opacity=".42"/><path d="m411.48 86-51.68 66.7-5.8 7.49-42 54.17-12 15.48-31.2 40.33-4.41 5.69a48.56 48.56 0 0 0 -41.09-22.64h-28.83l39.47-50.94 9.38-12.12 10.74-13.86 3.15-4.05 9.34-12.06.56-.73 5.23-6.75 27.66-35.71 12-15.48 12-15.52z" opacity=".42"/><path d="m491.7 86.01-37.13 47.92-14.55 18.78-5.79 7.48-21.92 28.3-54.21 69.96-46.06 59.44-12 15.48-1.47 1.89-9.38 12.12-57.57 74.29-.12.16h-41.06l.12-.16 29.1-37.57 9.4-12.12 25.65-33.1 12.35-15.95.01-.02 24.18-31.19 8.79-11.34 12-15.49 11.07-14.29 11-14.19 59.04-76.22 5.8-7.48 51.68-66.7z" opacity=".42"/></g><path d="m300.04 86.01h12v355.39h-12z" fill="#a66633"/><path d="m85.26 152.7h441.29v7.48h-441.29z" fill="#a66633"/><g fill="#8c684e"><ellipse cx="671.04" cy="412.43" rx="106.76" ry="89.49" transform="matrix(.96 -.28 .28 .96 -88.93 205.46)"/><ellipse cx="665.39" cy="332.28" rx="81.55" ry="68.36" transform="matrix(.95960912 -.28133671 .28133671 .95960912 -66.61 200.63)"/><ellipse cx="671.04" cy="412.43" rx="106.76" ry="89.49" transform="matrix(.96 -.28 .28 .96 -88.93 205.46)"/><ellipse cx="665.39" cy="332.28" rx="81.55" ry="68.36" transform="matrix(.95960912 -.28133671 .28133671 .95960912 -66.61 200.63)"/></g><path d="m738.58 476.48c23.16-23.5 33.69-55.19 24.92-85.11a77.94 77.94 0 0 0 -24.36-37.29c-1.65-1.43-3.35-2.79-5.12-4.09a60.59 60.59 0 0 0 2-14.27 58.18 58.18 0 0 0 -2.34-17.41c-10.68-36.23-54.29-55.31-97.51-42.64a94.44 94.44 0 0 0 -31.12 15.71 92.48 92.48 0 0 1 41.11-24.69c43.21-12.68 86.86 6.42 97.48 42.64a59.05 59.05 0 0 1 .36 31.67c14 10.36 24.5 24.45 29.47 41.39 9.96 33.93-4.91 70.15-34.89 94.09z" fill="#59442a"/><ellipse cx="659.19" cy="278.24" fill="#8c684e" rx="63.39" ry="53.14" transform="matrix(.95960912 -.28133671 .28133671 .95960912 -51.66 196.71)"/><rect fill="#ea9e5a" height="30.76" rx="15.38" width="210.71" x="517.75" y="612.02"/><path d="m561.39 794.06h133.53v14.15h-133.53z" fill="#a66633"/><path d="m702.41 642.78-.71 26.98-9.18 228.46h-14.18l-9.16-228.46-.72-26.98z" fill="#ea9e5a"/><path d="m578.36 642.78-.72 26.98-9.16 228.46h-14.18l-9.16-228.46-.72-26.98z" fill="#ea9e5a"/><path d="m578.36 642.78-.72 26.98h-32.5l-.72-26.98z" fill="#a66633"/><path d="m702.41 642.78h-33.95l.72 26.98h32.52z" fill="#a66633"/><path d="m598.82 443.57h90.62v120.11h-90.62z" fill="#a2c845" transform="matrix(.99999925 .00122173 -.00122173 .99999925 .65 -.83)"/><path d="m630.38 423.16c.15.25.32.49.49.73-2.55.05-5.07 0-7.56-.13 2.33-.12 4.69-.33 7.07-.6z" fill="#fdfae4"/><path d="m647.5 385a29.11 29.11 0 0 1 -10.32 22.28l-32.62 27.61-23.91 20.23-36.06 30.48a29.17 29.17 0 0 1 -37.69-44.52l92.6-78.37a29.16 29.16 0 0 1 48 22.24z" fill="#ffb2bf"/><path d="m604.56 434.84-23.91 20.23a33 33 0 0 1 -8.33-22v-2.47a68.86 68.86 0 0 1 20.15-48.6c1.28-1.28 2.6-2.51 4-3.67a81 81 0 0 0 4.61 49.36q1.57 3.67 3.48 7.15z" fill="#f9a0b4"/><path d="m647.51 385a28.16 28.16 0 0 1 -.21 3.42 29.17 29.17 0 0 0 -47.79-18.74l-92.6 78.32a29 29 0 0 0 -10.12 18.85 29.13 29.13 0 0 1 10.12-25.79l92.6-78.37a29.16 29.16 0 0 1 48 22.25z" fill="#f9e0e5"/><path d="m689.82 435.05v67.17a45.5 45.5 0 0 1 -45.5 45.49 45.49 45.49 0 0 1 -45.49-45.49v-67.17z" fill="#a2c845"/><path d="m689.82 435.05v67.16a45.5 45.5 0 1 1 -91 0v-67.16z" fill="#a2c845"/><path d="m689.82 435.05v24.6a184.75 184.75 0 0 1 -91 26.89v-51.49z" fill="#839e31"/><path d="m640.6 366.12a29.6 29.6 0 0 0 -3.85-3.75 29.15 29.15 0 0 1 -3.72 40.7l-92.6 78.38a29.15 29.15 0 0 1 -37.25.34c.11.13.2.27.3.4a29.16 29.16 0 0 0 41.1 3.41l92.6-78.38a29.17 29.17 0 0 0 3.42-41.1z" fill="#f9a0b4"/><rect fill="#ffb2bf" height="167.12" rx="29.16" transform="matrix(-.98450318 .17536673 -.17536673 -.98450318 1095.91 721.92)" width="58.32" x="486.89" y="325.83"/><rect fill="#f9e0e5" height="55.61" opacity=".38" rx="5.98" transform="matrix(-.98450318 .17536673 -.17536673 -.98450318 1085.7 731.69)" width="11.96" x="504.53" y="386.02"/><g fill="#ffb2bf"><rect height="155.53" rx="29.16" transform="matrix(-.80062681 .59916334 -.59916334 -.80062681 1533.29 341.78)" width="58.32" x="680.63" y="348.2"/><rect height="155.53" rx="29.16" transform="matrix(-.95716803 -.28953301 .28953301 -.95716803 1270.52 1209.76)" width="58.32" x="695.56" y="433.16"/><ellipse cx="713.85" cy="570.61" rx="30.85" ry="39.13" transform="matrix(.8369554 -.5472711 .5472711 .8369554 -195.88 483.62)"/></g><path d="m699.18 587.49a49.75 49.75 0 0 1 -2.64-4.53c-5.49-10.69-6.48-22.26-3.27-31.53q.26-1.21.63-2.43l4.19-13.88 16.39-54.19 3.21-10.63-7.93-10.61-41.29-55.17a29.17 29.17 0 0 1 2.53-37.89 16.66 16.66 0 0 0 4.48-8l.06-.29a29.18 29.18 0 0 0 -18.23 46.19l49.23 65.79-23.8 78.68a24.42 24.42 0 0 0 -.62 2.45c-3.66 10.6-1.84 24.21 5.9 36 9.59 14.66 25.29 22.11 38.49 19.44-10.14-1.89-20.36-8.73-27.33-19.4z" fill="#f9a0b4"/><rect fill="#ea9e5a" height="8.74" rx="4.37" transform="matrix(-.95716803 -.28953301 .28953301 -.95716803 1251.35 1250.43)" width="77.42" x="679.44" y="528.3"/><rect fill="#9b7d63" height="8.74" rx="4.37" transform="matrix(-.95716803 -.28953301 .28953301 -.95716803 1259.85 1230.72)" width="67.95" x="686.96" y="517.82"/><path d="m530.94 491.6h-.24c-.78.14-1.56.24-2.34.32a29.17 29.17 0 0 1 -31.48-23.91l-19.08-107.01a29.16 29.16 0 0 1 28.5-34.27 29.14 29.14 0 0 0 -23.37 33.78l19.07 107.06a29.15 29.15 0 0 0 28.94 24.03z" fill="#f9e0e5"/><path d="m576.8 423.48v2.52a33.21 33.21 0 0 0 33.2 33.2h71.25a33.2 33.2 0 0 0 33.19-33.2v-2.49a68.53 68.53 0 0 0 -12.36-39.35 65.31 65.31 0 0 0 -4.42-5.67l-.26-.31c-1-1.14-2-2.24-3.12-3.33a68.84 68.84 0 0 0 -105.11 9.29c-.37.53-.73 1.07-1.08 1.6a68.32 68.32 0 0 0 -11.29 37.74z" fill="#a2c845"/><path d="m576.8 423.48v2.52a33.12 33.12 0 0 0 33 33.21h29.72a81.49 81.49 0 0 1 -38.73-88c-1.38 1.16-2.69 2.38-4 3.66a69 69 0 0 0 -20 48.65z" fill="#badb52"/><ellipse cx="512.04" cy="349.33" fill="#ffb2bf" rx="30.85" ry="39.13" transform="matrix(.59510335 -.80364918 .80364918 .59510335 -73.41 552.95)"/><path d="m544.22 340.55a48.13 48.13 0 0 0 -10-9.87c-17.36-12.86-39.66-12.19-49.8 1.51-6.58 8.89-6.42 21.08-.73 32.05-9.24-12.32-11-27.6-3.13-38.2 10.15-13.69 32.44-14.37 49.81-1.51a46.76 46.76 0 0 1 13.85 16.02z" fill="#f9e0e5"/><path d="m589.17 384.11a79 79 0 0 0 52.33 24.22c1.6.1 3.23.15 4.87.15 1 0 2 0 3-.06a79.06 79.06 0 0 0 53.26-23.3 70.44 70.44 0 0 0 -5-6.66l-.26-.31c-1-1.14-2-2.24-3.12-3.33a68.84 68.84 0 0 0 -105.11 9.29z" fill="#ffb2bf"/><path d="m641.5 408.32c1.6.11 3.23.16 4.87.16 1 0 2 0 3-.07l-.88-5a3 3 0 0 0 -6-.05z" fill="#f9a0b4"/><ellipse cx="653.4" cy="283.42" fill="#8c684e" rx="56.87" ry="64.8"/><path d="m671.79 304.68-3.16 36.88-2.21 25.75a14.53 14.53 0 0 1 -15.72 13.23l-2-.16a14.54 14.54 0 0 1 -13.25-15.72l1.45-16.9 3.96-45.76a14.53 14.53 0 0 1 15.73-13.24l2 .17a14.53 14.53 0 0 1 13.2 15.75z" fill="#ffb2bf"/><path d="m671.79 304.68-3.16 36.88a51.94 51.94 0 0 1 -26.09 6.66 41.48 41.48 0 0 1 -5.61-.46l3.93-45.76a14.53 14.53 0 0 1 15.73-13.24l2 .17a14.53 14.53 0 0 1 13.2 15.75z" fill="#f9a0b4"/><path d="m657 219.45h1.69a36.61 36.61 0 0 1 36.61 36.61v33.84a52.08 52.08 0 0 1 -52.07 52.1 40.18 40.18 0 0 1 -40.18-40.18v-28.42a53.95 53.95 0 0 1 53.95-53.95z" fill="#ffb2bf" transform="matrix(.99993762 .01116987 -.01116987 .99993762 3.19 -7.26)"/><path d="m602.82 301.3a40.17 40.17 0 0 0 39.72 40.62c1.47 0 2.92 0 4.36-.13a40.17 40.17 0 0 1 -37.06-40.49l.33-28.41a53.94 53.94 0 0 1 50.88-53.27c-.56 0-1.11-.05-1.67-.05h-1.69a54 54 0 0 0 -54.55 53.35z" fill="#f9e0e5"/><ellipse cx="649.34" cy="244.66" fill="#8c684e" rx="36.69" ry="58.36" transform="matrix(.10938735 -.9939992 .9939992 .10938735 335.15 863.36)"/><ellipse cx="649.34" cy="244.66" fill="#8c684e" rx="36.69" ry="58.36" transform="matrix(.10938735 -.9939992 .9939992 .10938735 335.15 863.36)"/><path d="m696.17 225.92c-9.44-6.27-21.91-10.78-35.87-12.31-32-3.52-59.8 9.95-62 30.09-1 9 3.29 17.8 11.16 25.1-12.2-8.1-19.35-19.16-18.1-30.52 2.22-20.14 30-33.62 62-30.09 17.72 1.95 33.04 8.69 42.81 17.73z" fill="#aa7c62"/><ellipse cx="635.43" cy="240.31" fill="#aa7c62" rx="27.18" ry="17.09" transform="matrix(1 -.01 .01 1 -2.41 6.48)"/><ellipse cx="691.21" cy="283.42" fill="#8c684e" rx="20.25" ry="19.81"/><circle cx="693.86" cy="291.94" fill="#ffb2bf" r="16.41"/><circle cx="619.86" cy="290.48" fill="#59442a" r="3.37"/><circle cx="647.5" cy="291.94" fill="#59442a" r="3.37"/><path d="m698.64 293.36a6.54 6.54 0 0 1 -4.16 5.93 1.87 1.87 0 0 1 -2.49-1.83l.22-8.51a1.9 1.9 0 0 1 2.75-1.64 6.57 6.57 0 0 1 3.68 6.05z" fill="#f9a0b4"/><path d="m497.09 611.29h98a50.77 50.77 0 0 0 50.76-50.76v-12.38a14.65 14.65 0 0 0 -14.65-14.65h-134.11a38.89 38.89 0 0 0 -38.89 38.89 38.9 38.9 0 0 0 38.89 38.9z" fill="#59442a"/><path d="m385 720a25.18 25.18 0 0 0 34.17-4.27l48.59-58.2-54.14-25.62-35 53.94a25.23 25.23 0 0 0 6.38 34.15z" fill="#f9a0b4"/><path d="m413.62 631.86 54.14 25.62 55.47-66.48a35 35 0 1 0 -56.55-41z" fill="#59442a"/><path d="m341.7 782.45a19.42 19.42 0 0 1 -4.4-23.91l38.26-69.83a15.89 15.89 0 0 1 24.44-4.49l16.22 14a29.69 29.69 0 0 1 -2.29 46.7l-47.7 38.25a19.42 19.42 0 0 1 -24.53-.72z" fill="#f9a0b4"/><path d="m385 720a25.18 25.18 0 0 0 34.17-4.27l48.59-58.2-54.14-25.62-35 53.94a25.23 25.23 0 0 0 6.38 34.15z" fill="#f9a0b4"/><path d="m463.48 671.43-54.93-36.09 5.24-20.55 66.48 43.68z" fill="#362714"/><path d="m689.1 560.53a52.94 52.94 0 0 1 -14.32 36.66 44.39 44.39 0 0 1 -29.23 14h-.5c-.78 0-1.56.07-2.36.07h-89.62a34 34 0 0 1 -25.14-11.39 39.85 39.85 0 0 1 -9.34-18 41.83 41.83 0 0 1 -1.07-8.89c-.3-21.73 16.36-39.51 36.22-39.51h135.36z" fill="#9b7d63"/><path d="m604.59 749.32a25.16 25.16 0 0 0 17.26-29.79l-17-73.9-53.14 27.64 21.82 60.48a25.22 25.22 0 0 0 31.06 15.57z" fill="#ffb2bf"/><path d="m551.72 673.27 53.14-27.64-19.39-84.35a35 35 0 1 0 -66.84 20.27z" fill="#9b7d63"/><path d="m551.72 673.27 9.81-5.1-33.09-91.72a35 35 0 0 1 12-40.05 35 35 0 0 0 -21.79 45.15z" fill="#c9a788"/><path d="m628.19 821.6a19.41 19.41 0 0 1 -21.69-11l-32.5-72.6a15.9 15.9 0 0 1 11.18-22.14l21-4.44a29.69 29.69 0 0 1 35.82 30l1.63 61.12a19.41 19.41 0 0 1 -15.44 19.06z" fill="#ffb2bf"/><path d="m628.19 821.6a19.21 19.21 0 0 0 9-4.57 1.9 1.9 0 0 1 -.36.09 19.4 19.4 0 0 1 -21.68-11l-25.46-56.95-7-15.75a15.87 15.87 0 0 1 -1.43-6.92l-2.82-7.5-18.12-50.2-8.6 4.47 20.85 57.78a15.57 15.57 0 0 0 1.43 6.95l32.5 72.7a19.43 19.43 0 0 0 21.69 10.9z" fill="#f9e0e5" opacity=".38"/><path d="m538.22 662.82 13.21 16.59 12-4.25 49.96-17.69-.18-21.2-56.03 19.84z" fill="#59442a"/><path d="m624.24 304.81a8.4 8.4 0 0 0 2.29 6l.59.56a8.37 8.37 0 0 0 5.3 2.08h.34a8.44 8.44 0 0 0 8.62-7.5c0-.23 0-.46 0-.69a1.65 1.65 0 0 0 -.44-1.17 1.6 1.6 0 0 0 -1.15-.51l-13.93-.4a1.62 1.62 0 0 0 -1.62 1.63z" fill="#962f4a"/><path d="m632.63 312.18a7.09 7.09 0 0 0 .09 1.31 8.44 8.44 0 0 0 8.61-7.5 6.7 6.7 0 0 0 -8.75 6.19z" fill="#e1617f"/><path d="m626.23 303.23c0 1.66 2.53 3 5.66 3.14s5.72-1.16 5.83-2.81z" fill="#fff"/><path d="m479.56 437.39h15a14 14 0 0 1 14 14v35.17a4.68 4.68 0 0 1 -4.68 4.68h-33.6a4.68 4.68 0 0 1 -4.68-4.68v-35.21a14 14 0 0 1 13.96-13.96z" fill="#626594" transform="matrix(-1 0 0 -1 974.16 928.59)"/><path d="m508.55 442.07v35.17a14 14 0 0 1 -13.95 14h-15a13.94 13.94 0 0 1 -13.6-10.56 26.57 26.57 0 0 0 26.56-26.57v-16.73h11.28a4.68 4.68 0 0 1 4.71 4.69z" fill="#5a5a7f"/><path d="m505.75 447.26v5.06a9 9 0 1 1 0 18v5.07a14.08 14.08 0 0 0 0-28.16z" fill="#5a5a7f"/><g fill="#fff"><path d="m348.51 491.2h-12.29l-37.76-118.34h7.05a7.17 7.17 0 0 1 6.83 5z"/><path d="m346.74 477.05h6.1a3.72 3.72 0 0 1 3.72 3.72v3.05a0 0 0 0 1 0 0h-13.56a0 0 0 0 1 0 0v-3.05a3.72 3.72 0 0 1 3.74-3.72z"/><path d="m360.29 477.05h6.1a3.72 3.72 0 0 1 3.72 3.72v3.05a0 0 0 0 1 0 0h-13.54a0 0 0 0 1 0 0v-3.05a3.72 3.72 0 0 1 3.72-3.72z"/><path d="m373.83 477.05h6.1a3.72 3.72 0 0 1 3.72 3.72v3.05a0 0 0 0 1 0 0h-13.54a0 0 0 0 1 0 0v-3.05a3.72 3.72 0 0 1 3.72-3.72z"/><path d="m387.37 477.05h6.1a3.72 3.72 0 0 1 3.72 3.72v3.05a0 0 0 0 1 0 0h-13.54a0 0 0 0 1 0 0v-3.05a3.72 3.72 0 0 1 3.72-3.72z"/><path d="m400.91 477.05h6.09a3.72 3.72 0 0 1 3.72 3.72v3.05a0 0 0 0 1 0 0h-13.53a0 0 0 0 1 0 0v-3.05a3.72 3.72 0 0 1 3.72-3.72z"/><path d="m414.45 477.05h6.1a3.72 3.72 0 0 1 3.72 3.72v3.05a0 0 0 0 1 0 0h-13.54a0 0 0 0 1 0 0v-3.05a3.72 3.72 0 0 1 3.72-3.72z"/><path d="m428 477.05h6.1a3.72 3.72 0 0 1 3.72 3.72v3.05a0 0 0 0 1 0 0h-13.55a0 0 0 0 1 0 0v-3.05a3.72 3.72 0 0 1 3.72-3.72z"/><path d="m441.53 477.05h6.1a3.72 3.72 0 0 1 3.72 3.72v3.05a0 0 0 0 1 0 0h-13.54a0 0 0 0 1 0 0v-3.05a3.72 3.72 0 0 1 3.72-3.72z"/></g><path d="m458.55 479.72h-115.55a2.62 2.62 0 0 1 -2.49-1.83l-34.08-108.49a5.86 5.86 0 1 0 -11.19 3.51l36.3 115.57a3.87 3.87 0 0 0 3.7 2.72h123.56a5.74 5.74 0 0 0 5.71-6.31 5.9 5.9 0 0 0 -5.96-5.17z" fill="#59442a"/></svg>