<svg viewBox="0 0 1000 1000" xmlns="http://www.w3.org/2000/svg"><path d="m929.67 573.05v70.95a43.72 43.72 0 0 1 -43.75 43.76 35.05 35.05 0 0 0 -35.07 35.07v5.37a35.08 35.08 0 0 1 -35.08 35.08h-655.64a45.33 45.33 0 0 1 -37-71.53 43.8 43.8 0 0 1 5-5.9 45.15 45.15 0 0 1 32-13.24h35.87a65 65 0 0 0 64.44-56.46q.39-2.91.51-5.9c0-.87 0-1.75 0-2.63a64.94 64.94 0 0 0 -65-65h-14.07a88.07 88.07 0 0 1 -19.06-2.08 87.73 87.73 0 0 1 -68-75.6c-.23-1.95-.39-3.91-.48-5.9q-.09-2-.09-4.08a87.65 87.65 0 0 1 87.67-87.67h1.3a41.47 41.47 0 0 0 39.65-53.56 40.12 40.12 0 0 0 -2.31-5.9 41.45 41.45 0 0 0 -37.34-23.44h-15.93a43.34 43.34 0 0 1 -43.29-43.39c0-1 0-2 .1-2.92a42.31 42.31 0 0 1 .8-5.9 43.37 43.37 0 0 1 42.44-34.52h294.78a35.08 35.08 0 0 1 35.07 34.52v.56 14.41a35.06 35.06 0 0 0 35.08 35.08 35.07 35.07 0 0 1 34.89 31.45 36.16 36.16 0 0 1 .18 3.63v14.86a35.08 35.08 0 0 0 35.08 35.07h48.68a109.43 109.43 0 0 1 57.41 16.15 104.13 104.13 0 0 1 8.67 5.9 108.4 108.4 0 0 1 11.74 10.19 109.64 109.64 0 0 1 30.72 59.52c.34 2 .61 3.91.83 5.9a110.46 110.46 0 0 1 .7 12.41 35.07 35.07 0 0 0 35.07 35.07h72.76a60.62 60.62 0 0 1 60.63 60.64z" fill="#f3f4fe"/><rect fill="#d2d6fa" height="17.61" rx="8.8" width="74.06" x="871.52" y="754.47"/><rect fill="#d2d6fa" height="17.61" rx="8.8" width="809.94" x="54.42" y="754.47"/><g fill="#edeefe"><path d="m497.2 232.78v5.34h-373.15a42.31 42.31 0 0 1 .8-5.9h372.34c.01.19.01.37.01.56z"/><path d="m567.17 313.72h-344.34a40.12 40.12 0 0 0 -2.31-5.9h345.48a35 35 0 0 1 1.17 5.9z"/><path d="m717.19 389.33h-593.44a87.91 87.91 0 0 1 7.41-5.9h577.36a104.13 104.13 0 0 1 8.67 5.9z"/><path d="m760.47 464.93h-665.69c-.23-1.95-.39-3.91-.48-5.9h665.34c.36 1.97.61 3.91.83 5.9z"/><path d="m920.22 540.53h-757.4a86.91 86.91 0 0 1 -17.51-5.89h770.69a60.5 60.5 0 0 1 4.22 5.89z"/><path d="m929.67 610.24v5.9h-669.21q.39-2.91.51-5.9z"/><path d="m898.73 685.84a43.35 43.35 0 0 1 -12.81 1.91 34.89 34.89 0 0 0 -16.26 4h-746.52a43.8 43.8 0 0 1 5-5.9z"/></g><rect fill="#ffa84d" height="64.07" rx="31.93" transform="matrix(.68212599 -.73123466 .73123466 .68212599 -366.3 389.63)" width="210.39" x="159.82" y="584.11"/><rect fill="#ffa84d" height="64.07" rx="31.93" transform="matrix(.68212599 -.73123466 .73123466 .68212599 -366.3 389.63)" width="210.39" x="159.82" y="584.11"/><path d="m347 563.15a31.55 31.55 0 0 0 -7.34-10.26l-.16-.15a31.92 31.92 0 0 0 -45.12 1.57l-100 107.15a31.75 31.75 0 0 0 -8.57 21.28 31.92 31.92 0 0 1 5.77-34.88l100-107.15a31.93 31.93 0 0 1 45.13-1.56l.15.14a31.77 31.77 0 0 1 10.14 23.86z" fill="#ffbe83"/><path d="m536 751.81a32 32 0 0 1 -40.68-19.91l-12.42-36.19-6.68-19.51-33.45-96.2a32 32 0 0 1 60.61-20.78l28.11 80.64 24.43 71.26a32 32 0 0 1 -19.92 40.69z" fill="#ffa84d"/><path d="m538.39 750.89c-.77.34-1.57.64-2.38.93a32 32 0 0 1 -40.7-19.92l-35.83-104.51a32 32 0 0 1 32.45-42.39 32 32 0 0 0 -17.53 39.76l35.84 104.52a32 32 0 0 0 28.15 21.61z" fill="#ffbe83"/><g fill="#ffdab2"><path d="m316.18 588.77h154.66v165.7h-154.66z"/><path d="m333.56 522.27h119.9a50.37 50.37 0 0 1 50.37 50.37 70.16 70.16 0 0 1 -70.16 70.16h-80.32a70.16 70.16 0 0 1 -70.16-70.16 50.37 50.37 0 0 1 50.37-50.37z"/><path d="m316.18 588.77h154.66v165.7h-154.66z"/><path d="m333.56 522.27h119.9a50.37 50.37 0 0 1 50.37 50.37 70.16 70.16 0 0 1 -70.16 70.16h-80.32a70.16 70.16 0 0 1 -70.16-70.16 50.37 50.37 0 0 1 50.37-50.37z"/></g><rect fill="#ff9f8c" height="64.07" rx="32.03" width="183.24" x="493.66" y="689.63"/><ellipse cx="663.48" cy="717.5" fill="#ff9f8c" rx="44.78" ry="35.13" transform="matrix(.91046724 -.41358121 .41358121 .91046724 -237.31 338.57)"/><path d="m704.26 699a26.87 26.87 0 0 0 -2-3.69c4.2 16.78-7.39 36.4-27.92 45.73a54.9 54.9 0 0 1 -5.86 2.28 50.45 50.45 0 0 1 -25.48 1.8c-.6 0-1.21.06-1.83.07h-11.78l-107.39.07a32 32 0 0 1 -27.24-15.16 32 32 0 0 0 30.94 23.63l119.17-.07q.92 0 1.83-.06a51.82 51.82 0 0 0 31.3-4.11c22.53-10.23 34.28-32.84 26.26-50.49z" fill="#f78f7a"/><path d="m453 522.27h-24.7a50.37 50.37 0 0 1 50.37 50.36 70 70 0 0 1 -20.55 49.62 72 72 0 0 1 -5.35 4.83 18.94 18.94 0 0 0 -7.09 14.68v112.71h25.17v-122.33a70.72 70.72 0 0 0 12.43-9.89 70 70 0 0 0 20.55-49.07c.17-28-22.83-50.91-50.83-50.91z" fill="#ffecd9"/><rect fill="#ff9f8c" height="43.79" rx="9.48" transform="matrix(.79674091 .60432104 -.60432104 .79674091 549.31 -255.76)" width="18.96" x="645.42" y="666.92"/><path d="m364 730.4h10.33a24.07 24.07 0 0 1 24.07 24.07 0 0 0 0 1 0 0h-58.48a0 0 0 0 1 0 0 24.07 24.07 0 0 1 24.08-24.07z" fill="#4970db"/><path d="m346.07 715.8a32 32 0 0 1 -22.07 34.08l-.77.24c-.75.23-1.52.42-2.3.58l-.78.16-.72.13h-.15l-.63.09h-.06a31 31 0 0 1 -4.1.3c-.46 0-.94 0-1.41 0-.71 0-1.42-.07-2.13-.14s-1.53-.19-2.3-.32a31.52 31.52 0 0 1 -9-3l-1.85-.94-96.55-49.27a32 32 0 0 1 -17.28-25 31.57 31.57 0 0 1 -.19-4.56c0-.77.07-1.54.16-2.3s.18-1.53.32-2.3a32.33 32.33 0 0 1 .8-3.41q.16-.57.36-1.14c.24-.74.53-1.49.83-2.23s.66-1.47 1-2.19c.18-.34.35-.67.54-1a26.92 26.92 0 0 1 1.63-2.63l.13-.19c.15-.23.31-.45.47-.67a32.07 32.07 0 0 1 21.42-12.69c.55-.07 1.1-.14 1.65-.18a31.64 31.64 0 0 1 17.26 3.38l98.41 50.22a32 32 0 0 1 17.31 24.98z" fill="#ff9f8c"/><ellipse cx="323.75" cy="719.39" fill="#ff9f8c" rx="35.13" ry="44.78" transform="matrix(.11 -.99 .99 .11 -426.77 962.37)"/><path d="m331.73 754.37a55.76 55.76 0 0 1 -11.83-.06 54.28 54.28 0 0 1 -22.08-7.31l-96.55-49.27a32 32 0 0 1 -17.28-25 31.57 31.57 0 0 1 -.19-4.56c0-.77.07-1.54.16-2.3s.18-1.53.32-2.3a32.33 32.33 0 0 1 .8-3.41q.16-.57.36-1.14c.24-.74.53-1.49.83-2.23s.66-1.47 1-2.19c.18-.34.35-.67.54-1a26.92 26.92 0 0 1 1.63-2.63l.13-.19c.15-.23.31-.45.47-.67a32.07 32.07 0 0 1 21.42-12.69c.55-.07 1.1-.14 1.65-.18l-9.34 11.76c-.34.43-.68.88-1 1.32-.17.21-.32.44-.48.67l-.13.18a32 32 0 0 0 19.84 49.06c-.77.14-1.54.26-2.31.35h-.34l64.47 32.9 26.7 13.63 1.86 1a32.49 32.49 0 0 0 5.57 2.22c.73.21 1.45.4 2.18.55l-.72.13h-.15l-.63.09a55.42 55.42 0 0 0 13.1 3.27z" fill="#ffc3b5"/><path d="m328.83 684.55a1.66 1.66 0 0 0 -.32 0l.52.07z" fill="#fcb798"/><g fill="#ff9f8c"><rect height="43.79" rx="9.48" transform="matrix(.30702443 .95170163 -.95170163 .30702443 882.48 167.54)" width="18.96" x="316.72" y="667.82"/><rect height="58.11" rx="9.48" transform="matrix(-.50392474 .86374757 -.86374757 -.50392474 1165.44 764.52)" width="18.96" x="353.69" y="687.89"/><rect height="58.11" rx="9.48" transform="matrix(-.50392474 .86374757 -.86374757 -.50392474 1170.58 796.44)" width="18.96" x="347.09" y="705.33"/><rect height="58.11" rx="9.48" transform="matrix(-.50392474 .86374757 -.86374757 -.50392474 1138.09 825.9)" width="18.96" x="322.39" y="710.73"/></g><ellipse cx="320.21" cy="715.31" fill="#ffc3b5" rx="17.57" ry="22.39" transform="matrix(.10956083 -.99398009 .99398009 .10956083 -425.88 955.22)"/><path d="m402.9 453.21-22.47-76.69a10.52 10.52 0 0 1 9.57-13.52 51.92 51.92 0 0 1 28.7 96.2 10.63 10.63 0 0 1 -15.8-5.99z" fill="#082a3c"/><path d="m419.39 466.69-.13 26.54-.18 31.73-69.06.48.24-46.67.07-11.59z" fill="#ff9f8c"/><path d="m426.23 506.75a5 5 0 0 1 5.08 5.42l-.4 4.65-.68 7.73a5 5 0 0 1 -4.86 4.55l-80.89 1.8a5 5 0 0 1 -5.08-5.42l1.08-12.38a5 5 0 0 1 4.86-4.55z" fill="#ffdab2"/><path d="m419.4 467.08.06 33.37a30.31 30.31 0 0 1 -14.26 3.6h-12.65a50.69 50.69 0 0 1 -42.2-22.31v-14.58z" fill="#fe8f77"/><path d="m373.76 379.71h12.64a50.76 50.76 0 0 1 50.76 50.76v37.84a27.63 27.63 0 0 1 -27.63 27.63h-40.87a25.43 25.43 0 0 1 -25.43-25.43v-60.27a30.53 30.53 0 0 1 30.53-30.53z" fill="#ff9f8c" transform="matrix(-.9999961 .00279252 -.00279252 -.9999961 781.65 874.53)"/><path d="m437.07 405 .17 60.26a30.52 30.52 0 0 1 -30.45 30.62h-12.63a50.87 50.87 0 0 1 -18.73-3.51 50.92 50.92 0 0 0 12.43 1.5h12.63a30.53 30.53 0 0 0 30.45-30.62l-.17-60.25a25.38 25.38 0 0 0 -14.55-22.91 25.42 25.42 0 0 1 20.85 24.91z" fill="#ffc3b5"/><path d="m417.51 455.48a8.44 8.44 0 0 1 -2.3 6 7.94 7.94 0 0 1 -.59.57 8.39 8.39 0 0 1 -5.3 2.07h-.32a8.44 8.44 0 0 1 -8.62-7.49c0-.23 0-.46-.05-.7a1.64 1.64 0 0 1 1.59-1.68l13.93-.39a1.63 1.63 0 0 1 1.66 1.62z" fill="#962f4a"/><path d="m409.11 462.86a6.23 6.23 0 0 1 -.09 1.3 8.43 8.43 0 0 1 -8.62-7.49 6.7 6.7 0 0 1 8.75 6.19z" fill="#e1617f"/><path d="m415.52 453.91c0 1.65-2.53 3-5.67 3.14s-5.72-1.17-5.83-2.82z" fill="#fff"/><circle cx="394.02" cy="434.25" fill="#541000" r="3.63"/><circle cx="426.47" cy="433.93" fill="#541000" r="3.63"/><g fill="#082a3c"><circle cx="353.63" cy="385.55" r="21.8"/><circle cx="384.71" cy="372.87" r="32.82"/><circle cx="353.63" cy="385.55" r="21.8"/><circle cx="384.71" cy="372.87" r="32.82"/></g><path d="m411.91 354.51a32.83 32.83 0 0 0 -49.82 10.94 33.69 33.69 0 0 0 -2.2 5.61 21.79 21.79 0 0 0 -18.49 32.54 21.8 21.8 0 0 1 11.77-39.84 32.82 32.82 0 0 1 58.74-9.25z" fill="#011923"/><circle cx="424.43" cy="368.85" fill="#082a3c" r="43.02"/><circle cx="424.43" cy="368.85" fill="#082a3c" r="43.02"/><path d="m467.45 368.85a43 43 0 0 1 -47.85 42.75 43 43 0 0 0 0-85.5 43 43 0 0 1 47.85 42.75z" fill="#0f4d68"/><path d="m335.87 439.15-1.47-48.58a6.4 6.4 0 0 1 7.69-6.51 31.58 31.58 0 0 1 2.17 61 6.47 6.47 0 0 1 -8.39-5.91z" fill="#082a3c"/><path d="m334.29 439.82 3.77-35.11a4.64 4.64 0 0 1 6.18-3.91 22.94 22.94 0 0 1 -4.51 44.13 4.69 4.69 0 0 1 -5.44-5.11z" fill="#0f4d68"/><circle cx="346.43" cy="440.25" fill="#ff9f8c" r="15.84"/><path d="m341.11 440.61a7.07 7.07 0 0 0 4.5 6.4 2 2 0 0 0 2.69-2l-.25-9.19a2.06 2.06 0 0 0 -3-1.76 7.07 7.07 0 0 0 -3.94 6.55z" fill="#fb8265"/><path d="m706.2 426.59h61.21a42.06 42.06 0 0 1 42.06 42.06v174.47a0 0 0 0 1 0 0h-103.27a0 0 0 0 1 0 0v-216.53a0 0 0 0 1 0 0z" fill="#011923"/><path d="m706.2 426.59h61.21a42.06 42.06 0 0 1 42.06 42.06v174.47a0 0 0 0 1 0 0h-103.27a0 0 0 0 1 0 0v-216.53a0 0 0 0 1 0 0z" fill="#011923"/><path d="m809.46 468.65v174.47h-42.46v-174.47a42.06 42.06 0 0 0 -42-42.06h42.4a42.06 42.06 0 0 1 42.06 42.06z" fill="#082a3c"/><path d="m709.32 627.34c.15.24.31.47.47.7-2.43.05-4.82 0-7.19-.13 2.22-.11 4.46-.31 6.72-.57z" fill="#0f4d68"/><path d="m725.6 591a27.62 27.62 0 0 1 -9.82 21.17l-31 26.24-22.72 19.23-34.27 29a27.72 27.72 0 1 1 -35.79-42.26l88-74.49a27.73 27.73 0 0 1 45.6 21.11z" fill="#ffb2bf"/><path d="m684.78 638.44-22.72 19.23a31.39 31.39 0 0 1 -7.92-20.89v-2.36a65.09 65.09 0 0 1 11.75-37.42 63.92 63.92 0 0 1 7.41-8.84c1.21-1.22 2.46-2.38 3.77-3.48a77 77 0 0 0 4.39 46.91c1 2.41 2.12 4.65 3.32 6.85z" fill="#ff6d8d"/><path d="m725.6 591a25.32 25.32 0 0 1 -.2 3.25 27.73 27.73 0 0 0 -45.4-17.77l-88 74.52a27.5 27.5 0 0 0 -9.61 17.92 27.68 27.68 0 0 1 9.61-24.54l88-74.49a27.72 27.72 0 0 1 45.6 21.11z" fill="#f9e0e5"/><path d="m679.34 638.64h86.48v115.83h-86.48z" fill="#0d9a73"/><path d="m765.82 638.64v23.36a175.47 175.47 0 0 1 -86.49 25.57v-49z" fill="#0b8962"/><path d="m719 573.14a27.31 27.31 0 0 0 -3.65-3.57 27.7 27.7 0 0 1 -3.54 38.68l-88 74.5a27.71 27.71 0 0 1 -35.41.32c.1.12.19.25.29.38a27.72 27.72 0 0 0 39.06 3.24l88-74.49a27.72 27.72 0 0 0 3.25-39.06z" fill="#ff6d8d"/><rect fill="#ffb2bf" height="158.83" rx="27.72" transform="matrix(-.99682073 .079677 -.079677 -.99682073 1258.04 1178.54)" width="55.43" x="577.81" y="534.93"/><rect fill="#f9e0e5" height="46.41" opacity=".38" rx="8.23" transform="matrix(-.99682073 .079677 -.079677 -.99682073 1238.18 1181.29)" width="16.47" x="587.31" y="592.12"/><g fill="#ffb2bf"><rect height="147.82" rx="27.72" transform="matrix(-.80062681 .59916334 -.59916334 -.80062681 1777.27 668.27)" width="55.43" x="749.75" y="555.88"/><rect height="147.82" rx="27.72" transform="matrix(-.95716803 -.28953301 .28953301 -.95716803 1343.75 1619.84)" width="55.43" x="763.95" y="636.64"/><ellipse cx="781.32" cy="767.27" rx="29.32" ry="37.19" transform="matrix(.8369554 -.5472711 .5472711 .8369554 -292.5 552.6)"/></g><path d="m767.38 783.31a47 47 0 0 1 -2.5-4.3c-5.22-10.16-6.16-21.16-3.11-30 .16-.77.36-1.53.59-2.3l4-13.2 15.57-51.51 3-10.09-7.53-10.09-39.2-52.41a27.73 27.73 0 0 1 2.4-36 15.74 15.74 0 0 0 4.26-7.61l.06-.27a27.72 27.72 0 0 0 -17.32 43.89l46.78 62.58-22.62 74.79a22.09 22.09 0 0 0 -.59 2.33c-3.48 10.07-1.74 23 5.6 34.24 9.12 13.94 24 21 36.59 18.48-9.64-1.84-19.36-8.38-25.98-18.53z" fill="#ff6d8d"/><rect fill="#ffa84d" height="8.31" rx="4.15" transform="matrix(-.95716803 -.28953301 .28953301 -.95716803 1325.53 1658.48)" width="73.58" x="748.62" y="727.06"/><rect fill="#ffecd9" height="8.31" rx="4.15" transform="matrix(-.95716803 -.28953301 .28953301 -.95716803 1333.61 1639.76)" width="64.58" x="755.77" y="717.1"/><path d="m612.07 693.48a.91.91 0 0 1 -.23 0c-.75.06-1.49.09-2.24.09a27.72 27.72 0 0 1 -27.6-25.47l-8.22-103.1a27.68 27.68 0 0 1 30.1-29.81 27.69 27.69 0 0 0 -25.2 29.81l8.22 103.1a27.73 27.73 0 0 0 25.17 25.38z" fill="#f9e0e5"/><path d="m789.21 627.65v2.35a31.55 31.55 0 0 1 -31.54 31.55h-67.67a31.56 31.56 0 0 1 -31.6-31.55v-2.37a65.41 65.41 0 1 1 130.81 0z" fill="#0d9a73"/><path d="m658.07 627.65v2.35a31.56 31.56 0 0 0 31.54 31.56h28.39a77.33 77.33 0 0 1 -37-83.65c-1.31 1.1-2.56 2.27-3.78 3.48a66.07 66.07 0 0 0 -7.41 8.85 65.12 65.12 0 0 0 -11.74 37.41z" fill="#13b887"/><path d="m777.47 590.26a75.17 75.17 0 0 1 -50.26 23.55c-1.52.1-3.07.15-4.63.15-.94 0-1.89 0-2.83-.06a75.16 75.16 0 0 1 -50.63-22.14c11.7-17.76 31.82-30.76 54.68-30.76 18.07 0 34.42 8.56 46.26 20.39a66.07 66.07 0 0 1 7.41 8.87z" fill="#ffb2bf"/><path d="m727.21 613.81c-1.52.1-3.07.15-4.63.15-.94 0-1.89 0-2.83-.06l.84-4.77a2.89 2.89 0 0 1 5.69 0z" fill="#ff6d8d"/><ellipse cx="607.23" cy="557.16" fill="#ffb2bf" rx="29.32" ry="37.19" transform="matrix(.66977887 -.74256062 .74256062 .66977887 -213.21 634.84)"/><path d="m638.48 551.81a46 46 0 0 0 -8.48-10.26c-15.25-13.75-36.4-15.16-47.26-3.13-7 7.8-8 19.35-3.63 30.26-7.61-12.51-7.84-27.13.55-36.43 10.85-12 32-10.62 47.25 3.13a44.28 44.28 0 0 1 11.57 16.43z" fill="#f9e0e5"/><circle cx="761.94" cy="449.75" fill="#ffa84d" r="26.38"/><circle cx="756.71" cy="450.83" fill="#082a3c" r="24.24"/><path d="m719.44 424.31h11.86a37.11 37.11 0 0 1 37.11 37.11v41.43a48.66 48.66 0 0 1 -48.66 48.66h-3.62a48.66 48.66 0 0 1 -48.66-48.66v-26.57a52 52 0 0 1 51.97-51.97z" fill="#082a3c" transform="matrix(.99875443 -.04989569 .04989569 .99875443 -23.44 36.42)"/><path d="m741.13 536.71.29 9.16.63 19.78a15.93 15.93 0 1 1 -31.85 1l-.07-2.08-.85-26.86a15.93 15.93 0 1 1 31.85-1z" fill="#ffb2bf"/><path d="m741.13 536.71.29 9.16a53.32 53.32 0 0 1 -31.29 18.72l-.85-26.86a15.93 15.93 0 1 1 31.85-1z" fill="#f9a0b4"/><path d="m764.88 464v34.83a53.6 53.6 0 0 1 -53.68 53.49 41.34 41.34 0 0 1 -41.26-41.41v-29.23c0-.18 0-.35 0-.53 0-.8 0-1.6.08-2.39a55.5 55.5 0 0 1 54.75-52.48h2.5a37.13 37.13 0 0 1 7.12.68 37.65 37.65 0 0 1 30.49 37.04z" fill="#ffb2bf"/><path d="m705.85 552a41.35 41.35 0 0 1 -26.94-38.82l.05-29.23c0-.18 0-.35 0-.53 0-.8 0-1.6.09-2.39a55.5 55.5 0 0 1 54.75-52.48h2.49a32.82 32.82 0 0 1 4.45.28 35.38 35.38 0 0 0 -6.36-1.83 38.11 38.11 0 0 0 -7.12-.69h-2.5a55.52 55.52 0 0 0 -54.76 52.47c-.06.8-.08 1.59-.09 2.4v.53 29.22a41.34 41.34 0 0 0 35.94 41.07z" fill="#f9a0b4"/><path d="m773.66 488.37-11.36-20.95a20 20 0 0 0 -4.23-5.36l1.19-.32c.42-.15 1.21-6 1.19-6.39a1 1 0 0 0 -.06-.29 48.78 48.78 0 0 0 -26-28.08 37.13 37.13 0 0 0 -7.12-.68h-2.5a55.5 55.5 0 0 0 -54.77 52.48 48.66 48.66 0 0 0 30.06-1l16-4.35a24.85 24.85 0 0 1 28.37 12.14 20.34 20.34 0 0 0 27.57 8.19 4 4 0 0 0 1.66-5.39z" fill="#f9a0b4"/><path d="m742.32 445.82h5.68a29.14 29.14 0 0 1 29.17 29.18v16.47a5.71 5.71 0 0 1 -5.71 5.71 29.14 29.14 0 0 1 -29.14-29.18v-22.18a0 0 0 0 1 0 0z" fill="#082a3c" transform="matrix(.99875443 -.04989569 .04989569 .99875443 -22.57 38.48)"/><circle cx="762.83" cy="488.76" fill="#ffb2bf" r="16.78"/><path d="m764.4 505.46a53.6 53.6 0 0 1 -53.25 46.88 41.11 41.11 0 0 1 -17-3.68 40.16 40.16 0 0 0 11.13 1.54 53.6 53.6 0 0 0 53-45.28c.08-.52.16-1.05.22-1.58a17 17 0 0 0 6.22-1.84 16.81 16.81 0 0 0 .79-29.31 16.78 16.78 0 0 1 -1.14 33.27z" fill="#fdc3cd"/><path d="m765.54 472.19h-.22-.45v-.28z" fill="#f9e0e5"/><path d="m768.45 487.61a7.16 7.16 0 0 0 -5.73-5.47 2 2 0 0 0 -2.28 2.51l2.06 9.09a2.08 2.08 0 0 0 3.31 1.16 7.17 7.17 0 0 0 2.64-7.29z" fill="#f9a0b4"/><circle cx="684.05" cy="488.73" fill="#473a82" r="4"/><circle cx="716.41" cy="490.24" fill="#473a82" r="4"/><path d="m656.9 413.08h47.1a61.41 61.41 0 0 1 61.41 61.41 0 0 0 0 1 0 0h-47.1a61.41 61.41 0 0 1 -61.41-61.41 0 0 0 0 1 0 0z" fill="#082a3c" transform="matrix(-.9635838 .26740656 -.26740656 -.9635838 1515.03 681.25)"/><path d="m673.35 461.66-.17-.19c-8.43-10-3.49-25.45 9.13-29l24.09-6.69a61.33 61.33 0 0 1 52.91 9.79 61.39 61.39 0 0 0 -63.3-19.5l-45.34 12.57a61.08 61.08 0 0 0 22.68 33.02z" fill="#0f4d68"/><rect fill="#0f4d68" height="126.92" rx="4.99" width="9.98" x="786.67" y="471.4"/><path d="m692.07 504.91a8.39 8.39 0 0 0 2.29 6c.19.2.39.39.59.57a8.36 8.36 0 0 0 5.3 2.07h.35a8.25 8.25 0 0 0 5-1.48 8.38 8.38 0 0 0 3.6-6 5.36 5.36 0 0 0 0-.7 1.6 1.6 0 0 0 -.44-1.17 1.68 1.68 0 0 0 -1.14-.51l-13.93-.39a1.62 1.62 0 0 0 -1.62 1.61z" fill="#962f4a"/><path d="m700.46 512.29a6.93 6.93 0 0 0 .09 1.3h.05a8.41 8.41 0 0 0 8.61-7.49 6.7 6.7 0 0 0 -8.75 6.19z" fill="#e1617f"/><path d="m694.06 503.34c0 1.65 2.53 3.05 5.66 3.14s5.72-1.16 5.83-2.82z" fill="#fff"/><g fill="#d7e2ff"><path d="m544.85 735.78h6.09a5.83 5.83 0 0 1 5.83 5.83v3.39a0 0 0 0 1 0 0h-17.77a0 0 0 0 1 0 0v-3.39a5.83 5.83 0 0 1 5.85-5.83z"/><path d="m527.11 735.78h6.09a5.83 5.83 0 0 1 5.83 5.83v3.39a0 0 0 0 1 0 0h-17.75a0 0 0 0 1 0 0v-3.39a5.83 5.83 0 0 1 5.83-5.83z"/><path d="m509.36 735.78h6.09a5.83 5.83 0 0 1 5.83 5.83v3.39a0 0 0 0 1 0 0h-17.75a0 0 0 0 1 0 0v-3.39a5.83 5.83 0 0 1 5.83-5.83z"/><path d="m491.62 735.78h6.09a5.83 5.83 0 0 1 5.83 5.83v3.39a0 0 0 0 1 0 0h-17.75a0 0 0 0 1 0 0v-3.39a5.83 5.83 0 0 1 5.83-5.83z"/><path d="m473.87 735.78h6.13a5.83 5.83 0 0 1 5.83 5.83v3.39a0 0 0 0 1 0 0h-17.83a0 0 0 0 1 0 0v-3.39a5.83 5.83 0 0 1 5.87-5.83z"/><path d="m456.12 735.78h6.09a5.83 5.83 0 0 1 5.83 5.83v3.39a0 0 0 0 1 0 0h-17.74a0 0 0 0 1 0 0v-3.39a5.83 5.83 0 0 1 5.82-5.83z"/><path d="m438.38 735.78h6.09a5.83 5.83 0 0 1 5.83 5.83v3.39a0 0 0 0 1 0 0h-17.75a0 0 0 0 1 0 0v-3.39a5.83 5.83 0 0 1 5.83-5.83z"/></g><rect fill="#4970db" height="14.46" rx="7.23" width="202.54" x="408.97" y="740.01"/><path d="m555.71 754.46h169a15.44 15.44 0 0 0 15-11.68l32.94-130.87a15.45 15.45 0 0 0 -15-19.23h-149.17a15.47 15.47 0 0 0 -15 11.69z" fill="#5476ef"/><path d="m772.63 611.92-32.93 130.86a15.47 15.47 0 0 1 -15 11.69h-169l3.65-14.47h133.52a15.47 15.47 0 0 0 15-11.69l32.93-130.85a15.69 15.69 0 0 0 .44-4.78h16.39a15.47 15.47 0 0 1 15 19.24z" fill="#4970db"/><g fill="#d7e2ff"><circle cx="674.75" cy="677.9" r="8.46"/><path d="m686.08 690.57a16.58 16.58 0 1 1 -22.89-22.9 16.58 16.58 0 0 0 22.89 22.9z"/></g></svg>